<?xml version="1.0" encoding="utf-8"?>
<!-- Generator: Adobe Illustrator 22.0.1, SVG Export Plug-In . SVG Version: 6.00 Build 0)  -->
<svg version="1.1" id="Layer_1" xmlns="http://www.w3.org/2000/svg" xmlns:xlink="http://www.w3.org/1999/xlink" x="0px" y="0px"
	 viewBox="0 0 187.965 99.465" enable-background="new 0 0 187.965 99.465" xml:space="preserve">
<g>
	<g>
		<path fill="#192C59" d="M143.563,86.586c-0.19,0-0.375-0.073-0.515-0.205l-3.165-2.987c-0.776,0.655-2.287,1.748-3.933,1.963
			c-0.15,0.02-0.304,0.029-0.459,0.029c-2.446,0-5.099-2.337-5.775-3.538c-0.631-1.123-0.554-5.524,0.642-8.228
			c0.661-1.494,1.588-2.388,2.757-2.657c0.504-0.116,1.009-0.202,1.511-0.258l-0.722-0.427c-0.284-0.168-0.425-0.503-0.346-0.824
			l0.454-1.855c0.082-0.333,0.378-0.568,0.722-0.572c0.215,0,4.992,0.05,6.839,4.372c1.137,2.663,1.191,4.394,1.231,5.658
			c0.02,0.618,0.033,1.065,0.173,1.397c0.401,0.955,2.485,3.451,3.254,4.332c0.241,0.276,0.247,0.687,0.014,0.97l-2.103,2.556
			c-0.132,0.16-0.324,0.259-0.532,0.272C143.594,86.586,143.578,86.586,143.563,86.586z M136.972,75.238
			c-0.08,0-0.165,0.008-0.253,0.025c-1.211,0.228-2.001,0.668-2.349,1.309c-0.354,0.652-0.283,1.587,0.21,2.78
			c0.321,0.776,0.652,0.776,0.761,0.776c0.949,0,2.494-1.746,2.949-2.44c0.034-0.165-0.024-1.33-0.534-2.019
			C137.471,75.283,137.172,75.238,136.972,75.238z"/>
		<path fill="#FFFFFF" d="M134.745,67.778c0.174,0,4.481,0.039,6.138,3.917c1.69,3.958,0.866,5.773,1.401,7.051
			c0.536,1.277,3.381,4.535,3.381,4.535l-2.103,2.556l-3.67-3.463c0,0-1.937,1.966-4.04,2.241c-0.119,0.016-0.239,0.023-0.362,0.023
			c-2.043,0-4.514-2.076-5.122-3.157c-0.618-1.099-0.494-9.002,2.914-9.785c1.076-0.247,2.009-0.316,2.715-0.316
			c0.891,0,1.421,0.11,1.421,0.11l-3.132-1.855l0.454-1.855C134.74,67.778,134.742,67.778,134.745,67.778 M135.341,80.879
			c1.507,0,3.336-2.412,3.577-2.78c0.309-0.475,0.036-3.611-1.946-3.611c-0.124,0-0.254,0.012-0.392,0.038
			c-2.335,0.439-4.068,1.786-2.693,5.112C134.261,80.543,134.778,80.879,135.341,80.879 M134.745,66.278c-0.005,0-0.016,0-0.022,0
			c-0.685,0.007-1.278,0.478-1.441,1.144l-0.454,1.855c-0.081,0.33-0.045,0.668,0.086,0.964c-0.968,0.231-2.305,0.955-3.243,3.077
			c-1.249,2.825-1.405,7.483-0.61,8.898c0.772,1.369,3.659,3.921,6.43,3.921c0.188,0,0.375-0.012,0.556-0.036
			c1.515-0.198,2.886-1.025,3.797-1.712l2.69,2.538c0.279,0.263,0.648,0.409,1.029,0.409c0.031,0,0.063-0.001,0.094-0.003
			c0.415-0.026,0.8-0.223,1.064-0.544l2.103-2.556c0.466-0.566,0.454-1.387-0.028-1.94c-1.292-1.48-2.855-3.479-3.128-4.129
			c-0.086-0.204-0.099-0.634-0.115-1.131c-0.039-1.249-0.098-3.136-1.291-5.928C140.634,67.294,136.771,66.278,134.745,66.278
			L134.745,66.278z M135.428,79.363c-0.038-0.054-0.093-0.146-0.155-0.298c-0.391-0.946-0.477-1.704-0.243-2.136
			c0.228-0.42,0.877-0.75,1.828-0.929c0.043-0.008,0.082-0.012,0.115-0.012c0.049,0,0.076,0,0.15,0.087
			c0.289,0.34,0.408,1.044,0.406,1.396C136.989,78.198,135.937,79.223,135.428,79.363L135.428,79.363z"/>
	</g>
	<g>
		<path fill="#192C59" d="M117.901,85.715c-1.938,0-3.551-0.691-4.796-2.055c-3.31-3.625-2.766-10.735-2.759-10.806
			c0.388-4.582,4.282-7.149,7.481-8.509c1.272-0.541,2.505-0.815,3.663-0.815c4.763,0,6.69,4.462,6.77,4.652
			c0.134,0.319,0.032,0.688-0.246,0.894l-3.278,2.42c-0.13,0.096-0.286,0.146-0.445,0.146c-0.057,0-0.114-0.006-0.17-0.02
			c-0.214-0.05-0.396-0.191-0.497-0.386c-0.013-0.025-1.302-2.47-3.202-2.47c-1.012,0-2.09,0.691-3.204,2.055
			c-1.122,1.373-1.534,2.944-1.225,4.671c0.337,1.885,1.489,3.41,2.039,3.733c0.336,0.197,0.733,0.29,1.251,0.29
			c0.783,0,1.741-0.221,2.755-0.454l0.682-0.155c1.723-0.383,2.686-2.242,2.695-2.261c0.131-0.259,0.396-0.412,0.671-0.412
			c0.091,0,0.184,0.017,0.273,0.052l3.358,1.327c0.339,0.134,0.533,0.492,0.459,0.849c-0.055,0.266-1.456,6.532-11.694,7.234
			C118.284,85.708,118.09,85.715,117.901,85.715z"/>
		<path fill="#FFFFFF" d="M121.489,64.28c4.319,0,6.078,4.192,6.078,4.192l-3.278,2.42c0,0-1.475-2.876-3.868-2.876
			c-1.089,0-2.368,0.596-3.785,2.33c-3.284,4.02-0.312,8.745,1.015,9.526c0.484,0.285,1.031,0.393,1.632,0.393
			c1.047,0,2.261-0.329,3.6-0.627c2.108-0.469,3.202-2.655,3.202-2.655l3.358,1.327c0,0-1.224,5.965-11.01,6.637
			c-0.182,0.012-0.359,0.019-0.532,0.019c-7.406,0-6.884-11.203-6.808-12.042c0.078-0.859,0.234-4.998,7.027-7.887
			C119.383,64.499,120.503,64.28,121.489,64.28 M121.489,62.78L121.489,62.78c-1.259,0-2.59,0.294-3.956,0.875
			c-3.389,1.441-7.516,4.183-7.928,9.059l-0.006,0.072c-0.007,0.074-0.576,7.515,2.951,11.379c1.393,1.526,3.193,2.3,5.35,2.3
			c0.206,0,0.417-0.007,0.634-0.022c10.8-0.741,12.318-7.543,12.377-7.832c0.146-0.713-0.241-1.429-0.918-1.696l-3.358-1.327
			c-0.18-0.071-0.367-0.105-0.551-0.105c-0.553,0-1.081,0.307-1.342,0.829c-0.004,0.007-0.82,1.558-2.186,1.862
			c-0.233,0.052-0.462,0.105-0.687,0.156c-0.972,0.224-1.889,0.435-2.587,0.435c-0.379,0-0.655-0.059-0.871-0.186
			c-0.349-0.214-1.399-1.547-1.69-3.274c-0.25-1.48,0.112-2.829,1.077-4.01c0.663-0.811,1.656-1.779,2.623-1.779
			c1.185,0,2.255,1.53,2.536,2.066c0.203,0.388,0.567,0.67,0.994,0.768c0.113,0.026,0.227,0.039,0.341,0.039
			c0.317,0,0.629-0.099,0.888-0.291l3.278-2.42c0.557-0.411,0.76-1.149,0.492-1.787C128.863,67.683,126.745,62.78,121.489,62.78
			L121.489,62.78z"/>
	</g>
	<g>
		<path fill="#192C59" d="M163.903,84.375c-0.32,0-0.779-0.042-1.058-0.397c-0.166-0.212-0.223-0.486-0.156-0.753
			c1.563-6.291-0.644-8.086-0.817-8.216c0,0-0.001,0-0.002,0c-0.013,0-0.091-0.022-0.21-0.022c-0.312,0-0.971,0.155-1.885,1.195
			c-1.252,1.422-0.286,5.632,0.15,6.994c0.071,0.223,0.035,0.466-0.099,0.658s-0.349,0.31-0.582,0.321
			c-0.071,0.003-1.755,0.076-3.052,0.076c-1.161,0-1.434-0.06-1.597-0.117c-0.194-0.067-0.353-0.21-0.438-0.397
			c-0.086-0.187-0.091-0.4-0.015-0.591c1.685-4.204,0.309-7.786-0.215-8.135c-0.162-0.108-0.31-0.16-0.451-0.16
			c-0.413,0-0.972,0.46-1.576,1.295c-0.547,0.757-0.357,4.161,0.131,6.88c0.038,0.212-0.017,0.43-0.15,0.599
			c-0.134,0.168-0.333,0.272-0.548,0.283c0,0-5.058,0.267-5.07,0.267c-0.336,0-0.633-0.224-0.723-0.551
			c-0.042-0.152-0.141-0.509,0.502-2.576c0.526-1.693,0.545-3.532,0.461-7.04c-0.065-2.744-0.67-3.336-0.676-3.342
			c-0.303-0.161-0.416-0.479-0.335-0.813c0.082-0.333,0.42-0.542,0.763-0.545c0,0,4.706-0.049,4.709-0.049
			c0.207,0,0.404,0.085,0.546,0.236c0.144,0.152,0.217,0.358,0.202,0.567l-0.028,0.396c0.751-0.538,1.768-1.043,3.01-1.147
			c0.121-0.01,0.237-0.015,0.351-0.015c1.543,0,2.537,0.893,3.089,1.768c0.793-0.634,2.164-1.455,4.186-1.748
			c0.264-0.039,0.524-0.057,0.781-0.057c1.672,0,3.293,0.791,4.336,2.115c0.868,1.102,1.201,2.415,0.915,3.601
			c-0.441,1.826,0.271,6.157,0.582,7.671c0.08,0.387-0.154,0.77-0.535,0.875C168.074,83.591,165.188,84.375,163.903,84.375z"/>
		<path fill="#FFFFFF" d="M163.101,69.99c2.826,0,5.057,2.573,4.522,4.79c-0.577,2.391,0.577,7.998,0.577,7.998
			s-3.076,0.846-4.297,0.846c-0.33,0-0.525-0.062-0.486-0.22c1.802-7.255-1.155-9.038-1.155-9.038s-0.217-0.13-0.602-0.13
			c-0.535,0-1.394,0.251-2.449,1.45c-1.814,2.062,0,7.719,0,7.719s-1.723,0.076-3.018,0.076c-0.648,0-1.188-0.019-1.353-0.076
			c1.732-4.321,0.495-8.378-0.495-9.038c-0.288-0.192-0.577-0.286-0.867-0.286c-0.706,0-1.424,0.555-2.183,1.606
			c-1.072,1.485,0,7.453,0,7.453l-5.03,0.266c0,0-0.082-0.297,0.495-2.154c0.577-1.855,0.577-3.833,0.495-7.281
			c-0.082-3.448-0.99-3.932-0.99-3.932l4.701-0.049l-0.164,2.322c0,0,1.484-2.067,3.957-2.273c0.099-0.008,0.195-0.012,0.288-0.012
			c2.238,0,2.846,2.285,2.846,2.285s1.403-1.819,4.535-2.273C162.655,70.005,162.88,69.99,163.101,69.99 M150.965,69.99h0.005
			 M163.101,68.49C163.101,68.49,163.101,68.49,163.101,68.49c-0.296,0-0.595,0.022-0.889,0.064
			c-1.735,0.251-3.029,0.858-3.926,1.449c-0.705-0.802-1.763-1.477-3.24-1.477c-0.134,0-0.271,0.006-0.413,0.017
			c-0.903,0.075-1.698,0.339-2.376,0.679c-0.261-0.439-0.739-0.733-1.287-0.733h-0.005c0,0-0.001,0-0.001,0c0,0-0.001,0-0.001,0
			c0,0-0.001,0-0.001,0c0,0-0.001,0-0.001,0c0,0-0.001,0-0.001,0c0,0,0,0,0,0c-0.004,0-0.008,0-0.012,0l-4.698,0.049
			c-0.685,0.007-1.279,0.478-1.442,1.144c-0.136,0.558,0.059,1.134,0.482,1.496c0.09,0.161,0.419,0.878,0.465,2.828
			c0.082,3.425,0.066,5.213-0.428,6.8c-0.653,2.101-0.609,2.634-0.508,2.999c0.18,0.653,0.774,1.1,1.445,1.1
			c0.027,0,0.053-0.001,0.08-0.002l5.03-0.266c0.43-0.023,0.829-0.229,1.096-0.566c0.267-0.337,0.377-0.773,0.301-1.197
			c-0.49-2.734-0.606-5.691-0.249-6.327c0.53-0.733,0.85-0.915,0.946-0.957c0.502,0.615,1.383,3.754-0.021,7.257
			c-0.153,0.381-0.143,0.808,0.028,1.182c0.171,0.374,0.487,0.661,0.876,0.794c0.297,0.102,0.678,0.157,1.841,0.157
			c1.313,0,3.012-0.074,3.084-0.077c0.467-0.021,0.898-0.258,1.165-0.641c0.267-0.384,0.34-0.87,0.197-1.315
			c-0.649-2.034-1.115-5.346-0.302-6.27c0.627-0.713,1.049-0.886,1.229-0.927c0.424,0.483,1.62,2.362,0.395,7.294
			c-0.122,0.492-0.015,1.001,0.294,1.396c0.536,0.686,1.373,0.686,1.648,0.686c1.355,0,4.149-0.75,4.695-0.9
			c0.762-0.21,1.23-0.974,1.071-1.748c-0.42-2.043-0.95-5.843-0.588-7.344c0.341-1.412-0.044-2.958-1.054-4.241
			C166.843,69.387,165.002,68.49,163.101,68.49L163.101,68.49L163.101,68.49z"/>
	</g>
	<g>
		<path fill="#192C59" d="M168.69,93.831c-0.363,0-0.679-0.263-0.739-0.628c-0.066-0.404,0.11-1.777,0.497-3.867
			c0.578-3.115,0.56-6.61,0.482-12.054c-0.071-5.048-0.771-6.065-0.801-6.106c-0.23-0.206-0.28-0.499-0.173-0.788
			c0.107-0.29,0.413-0.451,0.722-0.457l4.647-0.081c0.591-0.208,1.977-0.61,3.89-0.61l0.201,0.001
			c1.199,0.018,2.294,0.698,3.253,2.021c1.736,2.394,2.733,6.68,2.352,7.909c-0.471,1.516-2.926,4.541-5.361,4.739
			c-0.134,0.011-0.268,0.016-0.401,0.016c-0.001,0-0.001,0-0.001,0c-1.193,0-2.381-0.415-3.235-0.805
			c0.174,4.656,0.446,9.421,0.449,9.473c0.023,0.404-0.279,0.754-0.683,0.79C173.789,93.383,168.713,93.831,168.69,93.831z
			 M173.882,77.01c0.544,0.49,2.104,1.677,3.098,1.677c0.206,0,0.59,0,0.761-0.937c0.23-1.257,0.108-2.181-0.362-2.746
			c-0.446-0.536-1.254-0.807-2.399-0.807l-0.186,0.002c-0.381,0.009-0.641,0.146-0.828,0.438
			C173.925,74.977,173.882,75.649,173.882,77.01z"/>
		<path fill="#FFFFFF" d="M177.214,69.99c0.063,0,0.127,0,0.191,0.001c3.497,0.052,5.274,7.752,4.899,8.957
			c-0.39,1.256-2.591,4.041-4.706,4.213c-0.114,0.009-0.228,0.014-0.342,0.014c-1.841,0-3.722-1.134-4.03-1.327
			c0.168,5.09,0.495,10.788,0.495,10.788l-5.031,0.445c0,0-0.082-0.497,0.495-3.609c0.577-3.11,0.577-6.423,0.495-12.202
			c-0.082-5.78-0.99-6.59-0.99-6.59l4.701-0.082c0,0,0.003,0.01,0.005,0.025C173.732,70.491,175.141,69.99,177.214,69.99
			 M176.979,79.437c0.706,0,1.289-0.4,1.499-1.552c0.628-3.438-1.218-4.437-3.5-4.437c-0.068,0-0.136,0.001-0.204,0.003
			c-0.784,0.02-1.258,0.415-1.536,0.948c-0.004,0.031-0.007,0.061-0.011,0.093c-0.072,0.54-0.099,1.525-0.096,2.766
			c0.034,0.076,0.07,0.14,0.106,0.176C173.527,77.721,175.516,79.437,176.979,79.437 M177.214,68.49c-1.901,0-3.326,0.38-4.02,0.613
			l-4.53,0.079c-0.617,0.011-1.165,0.399-1.38,0.978c-0.184,0.497-0.091,1.047,0.23,1.452c0.098,0.202,0.607,1.449,0.667,5.68
			c0.084,5.919,0.065,9.023-0.47,11.907c-0.625,3.37-0.531,3.939-0.5,4.126c0.12,0.73,0.752,1.256,1.479,1.256
			c0.044,0,0.089-0.002,0.134-0.006l5.031-0.445c0.807-0.071,1.412-0.771,1.365-1.58c-0.003-0.048-0.232-4.057-0.403-8.307
			c0.74,0.247,1.582,0.432,2.441,0.432c0.155,0,0.309-0.006,0.463-0.019c2.908-0.236,5.5-3.601,6.017-5.263
			c0.481-1.55-0.647-6.071-2.46-8.571c-1.377-1.9-2.854-2.316-3.85-2.331L177.214,68.49L177.214,68.49z M174.686,74.964
			c0.03-0.009,0.069-0.012,0.126-0.014l0.166-0.002c0.627,0,1.453,0.093,1.823,0.537c0.313,0.375,0.384,1.132,0.202,2.131
			c-0.029,0.157-0.062,0.258-0.087,0.318c-0.58-0.051-1.656-0.758-2.284-1.268C174.638,75.81,174.661,75.286,174.686,74.964
			L174.686,74.964z"/>
	</g>
</g>
<g>
	<path fill="#192C59" d="M173.659,56.667c-2.146,0-2.722-0.1-3.002-0.197c-0.194-0.067-0.352-0.21-0.438-0.397
		c-0.085-0.187-0.09-0.4-0.014-0.59c3.475-8.67,0.794-16.496-0.728-17.511c-0.463-0.308-0.905-0.458-1.354-0.458
		c-1.128,0-2.42,0.997-3.839,2.961c-1.64,2.27-0.462,11.317,0.13,14.612c0.039,0.219-0.021,0.443-0.163,0.614
		s-0.354,0.269-0.575,0.269h-3.84c-0.443-0.004-4.311-0.098-5.756-2.08c-0.388-0.532-0.766-1.439-0.361-2.738
		c1.108-3.562,1.147-7.36,0.975-14.596c-0.149-6.239-1.646-7.381-1.661-7.392c-0.303-0.161-0.437-0.495-0.355-0.828
		c0.082-0.333,0.399-0.556,0.742-0.56c0,0,9.582-0.1,9.585-0.1c0.207,0,0.404,0.085,0.546,0.236
		c0.144,0.153,0.217,0.358,0.202,0.567l-0.184,2.592c1.442-1.332,3.873-3.023,7.102-3.292c2.158,0.027,3.959,0.865,5.425,2.489
		c6.038,6.684,4.524,24.791,4.457,25.558c-0.033,0.375-0.338,0.667-0.714,0.684C179.805,56.513,176.283,56.667,173.659,56.667
		L173.659,56.667z"/>
	<path fill="#FFFFFF" d="M163.006,28.428l-0.336,4.732c0,0,3.024-4.212,8.065-4.632c11.45,0.16,9.073,27.234,9.073,27.234
		s-3.51,0.155-6.148,0.155c-1.319,0-2.421-0.039-2.757-0.155c3.528-8.805,1.008-17.069-1.008-18.413
		c-0.588-0.392-1.177-0.584-1.769-0.584c-1.438,0-2.901,1.131-4.447,3.272c-2.184,3.024,0,15.184,0,15.184h-3.839
		c0,0-6.577-0.063-5.401-3.846c1.176-3.782,1.176-7.81,1.008-14.836s-2.016-8.011-2.016-8.011L163.006,28.428 M163.006,26.928
		c-0.005,0-0.01,0-0.016,0l-9.577,0.1c-0.685,0.007-1.279,0.478-1.442,1.144c-0.149,0.609,0.097,1.239,0.603,1.589
		c0.143,0.157,1.244,1.54,1.37,6.813c0.171,7.152,0.134,10.899-0.941,14.355c-0.496,1.597-0.017,2.732,0.472,3.403
		c1.626,2.231,5.573,2.381,6.347,2.388l3.854,0c0.444,0,0.865-0.197,1.15-0.538c0.285-0.341,0.404-0.79,0.326-1.227
		c-0.995-5.548-1.378-12.494-0.26-14.041c1.582-2.191,2.631-2.651,3.231-2.651c0.295,0,0.602,0.109,0.937,0.332
		c1.07,0.714,3.886,8.027,0.448,16.607c-0.153,0.381-0.143,0.808,0.028,1.181c0.17,0.373,0.486,0.66,0.874,0.795
		c0.332,0.115,0.884,0.238,3.247,0.238c2.641,0,6.07-0.15,6.214-0.157c0.752-0.033,1.362-0.618,1.428-1.367
		c0.069-0.781,1.607-19.203-4.647-26.127c-1.612-1.785-3.597-2.706-5.899-2.738c-0.007,0-0.014,0-0.021,0
		c-0.042,0-0.083,0.002-0.125,0.005c-2.554,0.213-4.638,1.261-6.169,2.367l0.061-0.865c0.03-0.418-0.117-0.829-0.404-1.134
		C163.814,27.098,163.419,26.928,163.006,26.928L163.006,26.928z M163.006,29.928h0.005H163.006L163.006,29.928z"/>
</g>
<path fill="#192C59" d="M104.226,61.046c-46.546,2.795-66.284-2.549-73.785-5.849c-1.413,1.969-2.628,4.025-3.525,6.197
	c8.818,7.294,39.623,28.839,78.431,11.413C105.347,72.807,104.562,64.295,104.226,61.046z"/>
<path fill="#192C59" d="M104.226,61.046c-46.546,2.795-66.284-2.549-73.785-5.849c-1.413,1.969-2.628,4.025-3.525,6.197
	c8.818,7.294,39.623,28.839,78.431,11.413C105.347,72.807,104.562,64.295,104.226,61.046z"/>
<g>
	<path fill="#192C59" d="M74.96,80.196c-0.588-0.004-1.174-0.014-1.755-0.033c-0.615-0.02-1.165-0.046-1.711-0.076l-0.502-0.033
		c-0.4-0.025-0.801-0.053-1.198-0.085l-0.572-0.049c-0.378-0.034-0.755-0.07-1.13-0.109l-0.557-0.061
		c-0.395-0.045-0.785-0.094-1.174-0.144l-0.473-0.062c-0.53-0.073-1.059-0.15-1.583-0.234c-0.565-0.09-1.104-0.184-1.639-0.283
		l-0.38-0.073c-0.397-0.075-0.793-0.153-1.186-0.234c0,0-1.209-0.26-1.561-0.341l-0.505-0.118c-0.359-0.085-1.193-0.293-1.193-0.293
		l-0.315-0.08c-0.432-0.111-0.86-0.227-1.285-0.345l-0.196-0.054c-0.495-0.139-0.989-0.283-1.478-0.432l-0.15-0.047
		c-0.483-0.148-0.879-0.273-1.272-0.4c0,0-1.079-0.359-1.407-0.472l-1.813-0.652c-0.362-0.135-1.322-0.506-1.322-0.506
		c-0.453-0.179-0.896-0.358-1.335-0.54c-0.458-0.191-0.861-0.363-1.26-0.536c0,0-0.953-0.421-1.25-0.557l-1.597-0.747
		c-0.302-0.146-1.165-0.57-1.165-0.57c-0.774-0.387-1.527-0.778-2.257-1.171l-1.39-0.766l-1.036-0.592l-1.005-0.593
		c-0.313-0.188-0.62-0.374-0.92-0.559c-0.35-0.216-1.078-0.677-1.078-0.677l-1.043-0.677l-0.863-0.576l-0.805-0.55l-0.761-0.533
		l-0.827-0.595l-0.738-0.545l-1.326-1.013l-0.561-0.442c-0.34-0.271-0.657-0.529-0.949-0.771c-0.544-0.45-1.004-0.846-1.38-1.177
		l-0.505,14.727c-0.012,0.357-0.274,0.656-0.627,0.714c-0.415,0.069-10.203,1.688-13.716,2.023
		c-0.024,0.002-0.048,0.003-0.072,0.003c-0.356,0-0.668-0.253-0.736-0.609c-4.594-24.059,2.075-58.328,2.143-58.671
		c0.07-0.352,0.378-0.604,0.736-0.604c0.004,0,14.449,0.252,14.449,0.252c0.217,0.004,0.422,0.102,0.562,0.269
		c0.139,0.167,0.2,0.386,0.166,0.6l-1.67,10.422c1.067-1.23,2.467-2.771,3.754-3.953c0.245-0.225,0.521-0.486,0.83-0.777
		c2.892-2.73,8.276-7.813,15.411-9.783c0.116-0.028,0.214-0.04,0.314-0.04c1.84,0,5.664,5.25,7.223,7.507
		c0.196,0.285,0.173,0.667-0.057,0.925L27.476,52.766c0.573,0.391,1.607,1.016,3.266,1.746c1.899,0.834,4.162,1.612,6.723,2.313
		c1.298,0.354,2.68,0.691,4.122,1.004l-0.032,0.761l0.158-0.733c0.982,0.211,2.024,0.419,3.126,0.621l0.217,0.039
		c1.102,0.199,2.262,0.391,3.487,0.575l0.179,0.027c0.639,0.095,1.204,0.175,1.783,0.253l0.219,0.03
		c0.649,0.087,1.311,0.171,1.99,0.252l0.242,0.029c0.593,0.07,1.204,0.138,1.826,0.205l0.409,0.043
		c1.406,0.147,2.876,0.283,4.412,0.405l0.527,0.042c0.701,0.054,1.414,0.106,2.143,0.154l0.233,0.017
		c0.801,0.052,1.625,0.101,2.464,0.146l0.557,0.029c0.705,0.037,1.423,0.071,2.153,0.102l0.521,0.022
		c0.88,0.036,1.774,0.068,2.688,0.096l0.463,0.013c0.778,0.022,1.57,0.041,2.375,0.058l0.71,0.014
		c0.962,0.017,1.936,0.031,2.934,0.039c0.818,0.006,3.029,0.008,3.029,0.008l0.81-0.003c0.893-0.003,1.798-0.01,2.718-0.021
		l0.498-0.005c1.069-0.014,2.161-0.034,3.27-0.059l0.809-0.02c0.907-0.021,1.827-0.047,2.76-0.077l0.827-0.026
		c1.155-0.039,2.328-0.082,3.523-0.132l0.649-0.029c1.014-0.043,2.043-0.091,3.085-0.144l1.007-0.051
		c1.257-0.065,2.527-0.134,3.825-0.212c0.015-0.001,0.03-0.001,0.045-0.001c0.382,0,0.706,0.289,0.746,0.673
		c0.336,3.251,1.122,11.769,1.122,11.769c0.029,0.319-0.147,0.622-0.439,0.753c-0.677,0.304-1.35,0.593-2.021,0.874l-0.651,0.265
		c-0.456,0.186-0.91,0.368-1.363,0.543l-0.678,0.257c-0.497,0.186-0.921,0.342-1.345,0.493l-0.749,0.263
		c-0.438,0.151-0.875,0.296-1.312,0.438l-0.666,0.216c-0.544,0.171-1.085,0.333-1.625,0.49l-0.333,0.099
		c-0.65,0.186-1.296,0.359-1.939,0.525l-0.537,0.132c-0.465,0.116-0.93,0.228-1.393,0.333l-0.63,0.139
		c-0.468,0.102-0.881,0.189-1.294,0.271l-0.71,0.138c-0.413,0.078-0.824,0.151-1.233,0.221l-0.659,0.112
		c-0.474,0.077-0.948,0.146-1.42,0.212l-0.439,0.064c-0.622,0.083-1.239,0.158-1.854,0.224l-0.359,0.035
		c-0.492,0.05-0.982,0.096-1.47,0.136l-0.598,0.043c-0.408,0.03-0.816,0.056-1.222,0.079l-0.641,0.031
		c-0.397,0.018-0.792,0.032-1.186,0.042l-0.613,0.016c-0.432,0.008-0.861,0.011-1.289,0.011l-0.387,0.001
		C75.041,80.196,74.962,80.196,74.96,80.196z"/>
	<path fill="#FFFFFF" d="M46.094,16.117c1.645,0,6.606,7.183,6.606,7.183L26.379,52.87c0,0,1.039,0.998,4.061,2.328
		c0,0,0-0.001,0.001-0.001c1.64,0.721,3.865,1.541,6.827,2.351c0.004,0.001,0.008,0.002,0.013,0.003
		c1.247,0.341,2.627,0.68,4.147,1.01c0.043,0.009,0.084,0.019,0.127,0.028c0.989,0.213,2.038,0.422,3.149,0.625
		c0.073,0.013,0.146,0.027,0.22,0.04c1.107,0.2,2.275,0.393,3.507,0.579c0.088,0.013,0.177,0.026,0.266,0.039
		c0.556,0.082,1.125,0.163,1.707,0.242c0.075,0.01,0.148,0.021,0.223,0.031c0.649,0.087,1.315,0.171,1.998,0.253
		c0.079,0.009,0.161,0.019,0.24,0.028c0.599,0.071,1.213,0.14,1.838,0.207c0.137,0.015,0.274,0.029,0.412,0.044
		c1.41,0.147,2.886,0.283,4.429,0.407c0.175,0.014,0.352,0.028,0.528,0.041c0.704,0.054,1.419,0.106,2.151,0.155
		c0.078,0.005,0.153,0.011,0.232,0.016c0.806,0.053,1.633,0.102,2.474,0.148c0.184,0.01,0.372,0.019,0.558,0.029
		c0.708,0.037,1.428,0.071,2.16,0.102c0.175,0.007,0.348,0.016,0.524,0.023c0.881,0.036,1.778,0.068,2.695,0.096
		c0.153,0.005,0.31,0.008,0.465,0.013c0.78,0.022,1.574,0.042,2.38,0.058c0.237,0.005,0.474,0.01,0.714,0.014
		c0.963,0.017,1.939,0.031,2.94,0.039c0.021,0,0.043,0,0.064,0c0.747,0.006,1.507,0.008,2.276,0.008c0.231,0,0.463,0,0.696-0.001
		c0.269,0,0.541-0.001,0.812-0.003c0.894-0.004,1.801-0.011,2.724-0.022c0.167-0.002,0.33-0.003,0.497-0.005
		c1.072-0.014,2.167-0.034,3.277-0.059c0.268-0.006,0.54-0.013,0.81-0.02c0.909-0.022,1.831-0.048,2.765-0.077
		c0.276-0.009,0.55-0.016,0.828-0.026c1.157-0.039,2.332-0.082,3.529-0.132c0.215-0.009,0.435-0.02,0.651-0.029
		c1.016-0.044,2.046-0.092,3.091-0.144c0.336-0.017,0.671-0.033,1.01-0.051c1.258-0.066,2.53-0.135,3.83-0.213
		c0.336,3.249,1.121,11.761,1.121,11.761c-0.67,0.301-1.337,0.588-2.003,0.866c-0.216,0.09-0.43,0.175-0.645,0.262
		c-0.451,0.184-0.902,0.365-1.351,0.539c-0.248,0.096-0.495,0.188-0.742,0.281c-0.422,0.158-0.842,0.313-1.262,0.462
		c-0.247,0.088-0.495,0.176-0.741,0.261c-0.434,0.15-0.867,0.293-1.299,0.434c-0.22,0.071-0.441,0.145-0.66,0.214
		c-0.538,0.169-1.073,0.33-1.608,0.485c-0.11,0.032-0.22,0.067-0.329,0.098c-0.643,0.184-1.283,0.356-1.92,0.519
		c-0.178,0.046-0.354,0.086-0.531,0.131c-0.461,0.115-0.92,0.226-1.378,0.33c-0.226,0.052-0.452,0.1-0.677,0.149
		c-0.41,0.089-0.819,0.175-1.226,0.257c-0.235,0.047-0.469,0.093-0.703,0.137c-0.409,0.077-0.815,0.15-1.221,0.219
		c-0.217,0.037-0.435,0.076-0.651,0.11c-0.47,0.076-0.938,0.145-1.405,0.211c-0.145,0.02-0.291,0.044-0.435,0.063
		c-0.614,0.082-1.225,0.156-1.833,0.221c-0.119,0.013-0.237,0.022-0.356,0.034c-0.487,0.05-0.971,0.095-1.454,0.134
		c-0.198,0.016-0.394,0.029-0.591,0.043c-0.404,0.029-0.808,0.056-1.209,0.077c-0.212,0.011-0.423,0.022-0.635,0.031
		c-0.392,0.018-0.783,0.031-1.172,0.042c-0.203,0.006-0.405,0.012-0.607,0.016c-0.427,0.008-0.851,0.011-1.274,0.011
		c-0.127,0-0.255,0.002-0.382,0.002c-0.027,0-0.054,0-0.082,0c-0.582-0.004-1.161-0.014-1.735-0.032
		c-0.02-0.001-0.041-0.002-0.061-0.003c-0.548-0.018-1.092-0.043-1.633-0.073c-0.166-0.009-0.331-0.021-0.496-0.032
		c-0.397-0.025-0.793-0.053-1.186-0.085c-0.189-0.015-0.378-0.032-0.566-0.049c-0.374-0.033-0.746-0.07-1.117-0.109
		c-0.184-0.019-0.369-0.039-0.552-0.06c-0.389-0.044-0.776-0.092-1.161-0.143c-0.155-0.02-0.311-0.039-0.466-0.06
		c-0.526-0.072-1.049-0.149-1.568-0.232c-0.007-0.001-0.015-0.002-0.022-0.003c-0.538-0.086-1.071-0.179-1.6-0.276
		c-0.126-0.023-0.251-0.049-0.376-0.072c-0.394-0.075-0.785-0.151-1.174-0.232c-0.165-0.034-0.329-0.07-0.493-0.105
		c-0.352-0.075-0.703-0.153-1.051-0.233c-0.167-0.038-0.333-0.077-0.499-0.116c-0.356-0.084-0.71-0.172-1.062-0.261
		c-0.145-0.037-0.29-0.072-0.434-0.11c-0.427-0.111-0.85-0.225-1.27-0.342c-0.063-0.018-0.127-0.034-0.19-0.052
		c-0.494-0.139-0.983-0.282-1.467-0.429c-0.078-0.024-0.154-0.048-0.232-0.072c-0.395-0.121-0.788-0.245-1.177-0.371
		c-0.138-0.045-0.274-0.091-0.411-0.136c-0.33-0.109-0.658-0.22-0.983-0.332c-0.147-0.051-0.293-0.102-0.438-0.153
		c-0.321-0.113-0.64-0.228-0.956-0.344c-0.133-0.049-0.268-0.098-0.4-0.147c-0.359-0.134-0.715-0.27-1.067-0.408
		c-0.082-0.032-0.165-0.063-0.246-0.095c-0.445-0.175-0.885-0.353-1.32-0.533c-0.017-0.007-0.033-0.014-0.05-0.021
		c-0.404-0.168-0.803-0.338-1.199-0.51c-0.115-0.05-0.229-0.101-0.343-0.151c-0.301-0.132-0.599-0.265-0.895-0.4
		c-0.126-0.057-0.252-0.115-0.377-0.173c-0.283-0.13-0.563-0.261-0.84-0.393c-0.122-0.058-0.245-0.116-0.366-0.174
		c-0.298-0.143-0.593-0.288-0.885-0.432c-0.089-0.044-0.18-0.088-0.268-0.132c-0.768-0.384-1.513-0.771-2.237-1.161
		c-0.087-0.047-0.172-0.094-0.259-0.141c-0.271-0.147-0.539-0.294-0.803-0.441c-0.106-0.059-0.211-0.118-0.316-0.177
		c-0.244-0.137-0.486-0.275-0.724-0.412c-0.105-0.061-0.21-0.121-0.314-0.182c-0.243-0.142-0.483-0.283-0.72-0.424
		c-0.088-0.053-0.178-0.105-0.265-0.158c-0.309-0.185-0.613-0.37-0.911-0.553c-0.009-0.006-0.019-0.012-0.029-0.017
		c-0.317-0.196-0.628-0.39-0.933-0.584c-0.064-0.041-0.126-0.081-0.19-0.122c-0.232-0.148-0.462-0.296-0.687-0.443
		c-0.089-0.058-0.177-0.116-0.265-0.174c-0.197-0.13-0.392-0.259-0.583-0.387c-0.09-0.061-0.18-0.121-0.269-0.181
		c-0.19-0.128-0.376-0.256-0.56-0.382c-0.08-0.055-0.16-0.11-0.239-0.164c-0.21-0.146-0.416-0.29-0.618-0.433
		c-0.045-0.032-0.092-0.065-0.137-0.097c-0.25-0.177-0.493-0.352-0.73-0.524c-0.036-0.026-0.069-0.051-0.104-0.076
		c-0.194-0.142-0.385-0.282-0.57-0.42c-0.073-0.054-0.143-0.107-0.215-0.161c-0.148-0.111-0.293-0.22-0.435-0.328
		c-0.071-0.054-0.141-0.108-0.211-0.161c-0.141-0.108-0.278-0.214-0.413-0.318c-0.062-0.048-0.123-0.096-0.184-0.143
		c-0.147-0.115-0.289-0.227-0.428-0.337c-0.042-0.033-0.085-0.067-0.126-0.1c-0.336-0.268-0.65-0.523-0.939-0.762c0,0,0,0,0,0
		c-1.668-1.38-2.553-2.252-2.553-2.252l-0.56,16.354c0,0-10.137,1.68-13.665,2.016c-4.62-24.194,2.142-58.385,2.142-58.385
		l14.435,0.252l-2.1,13.105c0,0,2.961-3.695,5.432-5.965c2.471-2.27,8.205-8.256,15.932-10.389
		C46.016,16.121,46.054,16.117,46.094,16.117 M46.094,14.617C46.094,14.617,46.094,14.617,46.094,14.617
		c-0.159,0-0.317,0.019-0.468,0.055c-7.361,2.031-12.832,7.197-15.772,9.973c-0.305,0.288-0.579,0.547-0.821,0.769
		c-0.692,0.636-1.416,1.372-2.104,2.109l1.267-7.908c0.069-0.429-0.052-0.867-0.331-1.2c-0.279-0.333-0.689-0.529-1.124-0.537
		l-14.435-0.252c-0.009,0-0.018,0-0.027,0c-0.715,0-1.332,0.505-1.471,1.209c-0.278,1.408-6.766,34.755-2.144,58.957
		c0.136,0.713,0.76,1.219,1.472,1.219c0.047,0,0.095-0.002,0.144-0.007c3.539-0.337,13.352-1.961,13.768-2.03
		c0.705-0.117,1.229-0.714,1.254-1.428l0.451-13.169c0.068,0.056,0.136,0.113,0.206,0.171c0.294,0.244,0.616,0.505,0.959,0.779
		l0.075,0.059l0.053,0.042l0.438,0.345l0.146,0.114l0.041,0.032l0.421,0.325l0.216,0.165l0.444,0.334l0.065,0.049l0.155,0.116
		c0.188,0.14,0.383,0.283,0.58,0.427l0.042,0.031l0.064,0.047c0.241,0.175,0.489,0.354,0.743,0.534l0.084,0.06l0.056,0.039
		c0.206,0.146,0.415,0.292,0.629,0.441l0.178,0.123l0.066,0.045c0.187,0.129,0.376,0.258,0.57,0.389l0.274,0.184
		c0.195,0.131,0.394,0.262,0.594,0.395l0.062,0.041l0.208,0.137c0.229,0.149,0.462,0.3,0.699,0.451l0.081,0.052l0.112,0.072
		c0.311,0.197,0.627,0.396,0.95,0.595c0.332,0.205,0.642,0.393,0.956,0.581l0.174,0.103l0.096,0.057
		c0.242,0.144,0.485,0.287,0.733,0.431l0.32,0.185c0.243,0.14,0.489,0.279,0.737,0.419l0.045,0.026l0.277,0.155
		c0.269,0.15,0.542,0.299,0.817,0.449l0.101,0.055l0.162,0.088c0.748,0.403,1.514,0.8,2.278,1.182l0.165,0.082l0.108,0.053
		c0.298,0.147,0.597,0.294,0.901,0.44l0.32,0.153l0.053,0.025c0.282,0.134,0.567,0.267,0.855,0.4l0.384,0.176
		c0.3,0.137,0.604,0.272,0.911,0.407l0.122,0.054l0.227,0.1c0.402,0.175,0.809,0.348,1.221,0.52c0,0,0.05,0.021,0.051,0.021
		c0.443,0.184,0.891,0.365,1.345,0.543l0.147,0.057l0.103,0.04c0.36,0.14,0.722,0.279,1.088,0.416l0.286,0.106l0.121,0.044
		c0.323,0.119,0.648,0.236,0.975,0.351l0.446,0.156c0.332,0.115,0.666,0.227,1.002,0.339l0.128,0.043l0.291,0.096
		c0.396,0.129,0.797,0.255,1.2,0.378l0.096,0.03l0.141,0.044c0.494,0.15,0.992,0.296,1.496,0.437l0.117,0.032l0.077,0.021
		c0.429,0.12,0.861,0.236,1.297,0.349l0.301,0.076l0.142,0.036c0.359,0.091,0.719,0.18,1.083,0.266l0.509,0.119
		c0.355,0.082,0.713,0.161,1.073,0.238l0.103,0.022l0.401,0.085c0.397,0.082,0.797,0.16,1.199,0.237l0.149,0.029l0.235,0.045
		c0.541,0.099,1.085,0.194,1.634,0.282c0.552,0.088,1.086,0.166,1.623,0.24l0.309,0.04l0.167,0.021
		c0.393,0.051,0.788,0.1,1.186,0.146l0.564,0.061c0.378,0.04,0.759,0.077,1.141,0.111l0.579,0.05
		c0.402,0.033,0.806,0.061,1.212,0.086l0.178,0.012l0.329,0.021c0.553,0.031,1.108,0.057,1.668,0.075
		c0.001,0,0.062,0.003,0.062,0.003c0.587,0.019,1.178,0.029,1.773,0.033l0.091,0l0.203-0.001l0.179-0.001
		c0.432,0,0.866-0.003,1.302-0.011l0.497-0.013l0.124-0.003c0.398-0.011,0.797-0.025,1.198-0.043c0.215-0.01,0.431-0.02,0.648-0.032
		c0.41-0.022,0.823-0.049,1.236-0.079l0.178-0.013l0.425-0.031c0.493-0.04,0.988-0.086,1.485-0.137l0.145-0.014l0.218-0.021
		c0.621-0.067,1.245-0.142,1.872-0.226l0.271-0.039l0.173-0.025c0.477-0.067,0.955-0.138,1.435-0.215
		c0.166-0.027,0.333-0.056,0.499-0.084l0.166-0.029c0.414-0.071,0.83-0.145,1.247-0.224c0.239-0.045,0.478-0.092,0.718-0.14
		c0.416-0.083,0.833-0.171,1.252-0.262l0.149-0.033c0.18-0.039,0.361-0.078,0.542-0.12c0.467-0.107,0.936-0.22,1.406-0.337
		l0.205-0.05l0.338-0.083c0.65-0.167,1.303-0.343,1.959-0.53l0.202-0.06l0.134-0.04c0.545-0.158,1.091-0.322,1.64-0.495
		c0.152-0.048,0.305-0.098,0.458-0.148l0.215-0.07c0.441-0.143,0.882-0.289,1.325-0.442c0.252-0.087,0.503-0.176,0.756-0.266
		c0.427-0.152,0.856-0.309,1.286-0.471l0.059-0.022c0.232-0.087,0.464-0.174,0.697-0.264c0.457-0.177,0.917-0.361,1.376-0.549
		l0.225-0.091c0.144-0.058,0.287-0.116,0.431-0.176c0.677-0.283,1.357-0.575,2.039-0.881c0.585-0.263,0.938-0.868,0.879-1.506
		c-0.008-0.085-0.79-8.558-1.123-11.778c-0.079-0.769-0.728-1.346-1.491-1.346c-0.03,0-0.061,0.001-0.091,0.003
		c-1.296,0.078-2.564,0.147-3.818,0.212l-1.007,0.051c-1.041,0.052-2.068,0.1-3.08,0.144l-0.292,0.013l-0.356,0.016
		c-1.193,0.05-2.363,0.093-3.517,0.131l-0.517,0.016l-0.308,0.009c-0.931,0.029-1.849,0.055-2.755,0.077l-0.289,0.007l-0.518,0.013
		c-1.106,0.025-2.196,0.045-3.264,0.059L84.153,60.3l-0.234,0.002c-0.918,0.011-1.821,0.018-2.712,0.021l-0.809,0.003l-0.694,0.001
		c-0.765,0-1.522-0.002-2.265-0.008l-0.076,1.5l0.012-1.5c-0.996-0.008-1.967-0.022-2.925-0.039l-0.563-0.011l-0.147-0.003
		c-0.802-0.016-1.591-0.035-2.367-0.057l-0.202-0.005l-0.26-0.007c-0.911-0.028-1.803-0.06-2.679-0.096l-0.306-0.013l-0.215-0.01
		c-0.728-0.031-1.443-0.065-2.147-0.102l-0.196-0.01l-0.359-0.019c-0.835-0.045-1.656-0.094-2.457-0.146l-0.11-0.008l-0.12-0.008
		c-0.726-0.048-1.436-0.1-2.135-0.154l-0.524-0.041c-1.508-0.121-2.986-0.256-4.393-0.403l-0.319-0.034l-0.09-0.01
		c-0.62-0.066-1.227-0.134-1.821-0.205l-0.111-0.013l-0.127-0.015c-0.675-0.081-1.334-0.165-1.977-0.251l-0.12-0.016l-0.101-0.014
		c-0.576-0.078-1.139-0.158-1.689-0.239l-0.106-0.016l-0.157-0.023c-1.183-0.178-2.348-0.37-3.464-0.572l-0.217-0.039
		c-1.072-0.196-2.116-0.403-3.102-0.616l-0.065-0.014l-0.061-0.013c-1.428-0.31-2.798-0.644-4.069-0.991
		c-2.544-0.696-4.771-1.462-6.631-2.28c-1.059-0.466-1.851-0.884-2.421-1.22l25.197-28.307c0.46-0.517,0.507-1.281,0.114-1.85
		C48.526,14.617,46.696,14.617,46.094,14.617L46.094,14.617z"/>
</g>
<g>
	<g>
		<path fill="#192C59" d="M65.491,59.612l-15.205-1.978c-0.225-0.029-0.425-0.159-0.543-0.352l-5.918-9.671
			c-0.081-0.132-0.119-0.286-0.109-0.439l0.723-11.274c0.014-0.21,0.114-0.405,0.278-0.537l9.64-7.759
			c0.139-0.111,0.305-0.166,0.47-0.166c0.219,0,0.437,0.096,0.585,0.28l4.213,5.234c0.125,0.155,0.183,0.353,0.161,0.551
			s-0.121,0.379-0.275,0.504l-1.958,1.576l6.925-3.216c0.101-0.047,0.208-0.07,0.316-0.07c0.136,0,0.272,0.037,0.392,0.11
			l9.786,5.999c0.185,0.114,0.312,0.302,0.348,0.516l1.675,9.976c0.042,0.25-0.045,0.503-0.231,0.675L66.096,59.42
			c-0.139,0.128-0.321,0.199-0.509,0.199C65.555,59.619,65.523,59.617,65.491,59.612z M63.087,51.01l5.13-4.738l-0.442-2.637
			l-3.469-2.126l-1.515,0.704l1.275,1.566c0.125,0.154,0.185,0.352,0.165,0.55c-0.021,0.198-0.119,0.379-0.273,0.505l-5.214,4.242
			c-0.134,0.109-0.301,0.168-0.473,0.168c-0.025,0-0.051-0.001-0.077-0.004c-0.198-0.021-0.379-0.119-0.505-0.273l-3.482-4.28
			c-0.115-0.14-0.174-0.317-0.168-0.499l0.201-5.941l-1.81,1.457l-0.36,5.633l2.819,4.605L63.087,51.01z"/>
		<path fill="#FFFFFF" d="M54.827,28.186l4.213,5.235l-7.337,5.905l-0.396,6.199l3.131,5.114l8.901,1.159l5.686-5.252l-0.566-3.373
			l-4.103-2.515l-2.754,1.279l1.884,2.314l-5.214,4.242l-3.482-4.28l0.224-6.626l9.78-4.542l9.786,5.999l1.675,9.976l-10.666,9.849
			l-15.205-1.978l-5.919-9.671l0.723-11.274L54.827,28.186 M54.826,26.686c-0.33,0-0.662,0.108-0.94,0.332l-9.64,7.759
			c-0.328,0.264-0.529,0.653-0.556,1.072l-0.723,11.274c-0.02,0.308,0.056,0.615,0.217,0.879l5.919,9.671
			c0.237,0.387,0.636,0.646,1.086,0.704l15.205,1.978c0.065,0.008,0.129,0.013,0.194,0.013c0.375,0,0.739-0.141,1.018-0.398
			l10.666-9.849c0.372-0.343,0.546-0.851,0.462-1.35l-1.675-9.976c-0.072-0.428-0.325-0.804-0.695-1.03l-9.786-5.999
			c-0.24-0.147-0.511-0.221-0.784-0.221c-0.215,0-0.431,0.046-0.632,0.14l-3.622,1.682c-0.012-0.322-0.126-0.633-0.331-0.887
			l-4.213-5.235C55.699,26.878,55.264,26.686,54.826,26.686L54.826,26.686z M53.158,40.081l0.278-0.224l-0.146,4.305
			c-0.012,0.362,0.107,0.716,0.336,0.997l3.482,4.28c0.011,0.013,0.022,0.026,0.033,0.039l-1.798-0.234l-2.508-4.097L53.158,40.081
			L53.158,40.081z M63.982,42.486l0.275-0.128l2.835,1.738l0.319,1.9l-4.575,4.225l-3.724-0.485
			c0.036-0.025,0.072-0.051,0.106-0.079l5.214-4.242c0.309-0.251,0.505-0.615,0.545-1.01c0.041-0.396-0.078-0.792-0.329-1.1
			L63.982,42.486L63.982,42.486z"/>
	</g>
</g>
<g>
	<path fill="#192C59" d="M79.136,58.211c-0.405,0-0.736-0.321-0.75-0.725l-1.008-30.579c-0.01-0.309,0.17-0.592,0.454-0.714
		l5.486-2.352c0.095-0.041,0.195-0.061,0.295-0.061c0.154,0,0.307,0.047,0.436,0.14c0.117,0.084,2.521,1.821,3.798,4.221
		c2.946-3.324,6.159-4.058,8.418-4.058c2.951,0,5.101,1.2,5.191,1.251c0.181,0.103,0.311,0.275,0.359,0.477
		c0.049,0.202,0.011,0.415-0.103,0.588c-3.415,5.18-4.329,5.18-4.673,5.18c-0.148,0-0.388-0.071-0.511-0.153
		c-0.334-0.222-0.714-0.33-1.162-0.33c-1.041,0-2.021,0.6-2.04,0.612l0,0c0.01,0-3.114,2.627-4.198,5.415
		c-0.921,2.368-0.882,15.473-0.789,20.323c0.004,0.201-0.074,0.396-0.215,0.54c-0.141,0.144-0.334,0.225-0.535,0.225H79.136z"/>
	<path fill="#FFFFFF" d="M83.615,24.531c0,0,3.137,2.241,4.032,5.04c2.847-3.759,6.053-4.737,8.62-4.737
		c2.787,0,4.821,1.154,4.821,1.154s-3.193,4.843-4.047,4.843c-0.036,0-0.068-0.009-0.096-0.027
		c-0.505-0.337-1.053-0.456-1.577-0.456c-1.293,0-2.442,0.729-2.442,0.729s-3.318,2.751-4.494,5.776
		c-1.176,3.024-0.84,20.609-0.84,20.609h-8.456l-1.008-30.579L83.615,24.531 M83.615,23.031c-0.2,0-0.401,0.04-0.591,0.121
		l-5.487,2.352c-0.568,0.244-0.929,0.81-0.908,1.428l1.008,30.579c0.027,0.809,0.69,1.451,1.499,1.451h8.456
		c0.403,0,0.789-0.162,1.071-0.45c0.282-0.288,0.437-0.676,0.429-1.079c-0.128-6.685-0.04-18.035,0.738-20.037
		c0.822-2.113,3.063-4.321,3.968-5.092c0.277-0.154,0.946-0.456,1.571-0.456c0.295,0,0.539,0.067,0.745,0.204
		c0.274,0.182,0.595,0.279,0.928,0.279c0.662,0,1.661,0,5.299-5.517c0.229-0.347,0.303-0.773,0.206-1.176
		c-0.097-0.404-0.357-0.749-0.718-0.954c-0.097-0.055-2.414-1.349-5.561-1.349c-2.241,0-5.354,0.668-8.288,3.577
		c-1.405-2.093-3.383-3.523-3.493-3.601C84.228,23.126,83.923,23.031,83.615,23.031L83.615,23.031z"/>
</g>
<g>
	<path fill="#192C59" d="M106.002,59.279c-3.844,0-6.812-1.224-8.822-3.638c-3.734-4.483-3.32-11.943-2.316-17.413
		c1-5.459,5.643-8.288,5.84-8.405c0.18-0.11,4.595-2.782,7.785-2.782c3.679,0,8.493,1.996,10.372,6.379
		c1.301,3.035,1.487,6.1,0.51,8.409c-0.721,1.704-2.069,2.975-3.901,3.676c-1.915,0.815-4.056,1.233-6.339,1.233
		c-2.044,0-3.839-0.326-5.15-0.563c-0.609-0.111-1.146-0.208-1.507-0.233c0.079,1.758,0.224,4.142,6.366,4.33l0.271,0.004
		c4.962,0,7.43-4.232,7.455-4.275c0.137-0.24,0.389-0.379,0.652-0.379c0.091,0,0.182,0.016,0.271,0.051l3.641,1.41
		c0.297,0.115,0.489,0.405,0.479,0.723c-0.003,0.112-0.529,11.18-15.239,11.47L106.002,59.279z M102.337,39.521
		c1.288,0.839,2.932,1.264,4.896,1.264c2.239,0,4.489-0.566,5.896-1.112c1.195-1.056,0.893-1.882,0.792-2.158
		c-0.674-1.848-4.272-3.587-6.569-3.587c-0.158,0-0.309,0.009-0.45,0.028C103.535,34.412,102.598,37.719,102.337,39.521z"/>
	<path fill="#FFFFFF" d="M108.489,27.791c3.016,0,7.834,1.612,9.682,5.925c1.848,4.312,1.567,9.352-2.969,11.089
		c-2.119,0.901-4.2,1.184-6.071,1.184c-3.152,0-5.704-0.803-6.819-0.803c-0.409,0-0.625,0.108-0.606,0.403
		c0.113,1.792-0.223,5.208,7.112,5.433c0.099,0.003,0.197,0.004,0.294,0.004c5.456,0,8.106-4.654,8.106-4.654l3.641,1.41
		c0,0-0.336,10.464-14.504,10.744c-0.119,0.002-0.235,0.004-0.352,0.004c-13.771,0-11.11-16.303-10.401-20.165
		c0.95-5.187,5.487-7.897,5.487-7.897S105.473,27.791,108.489,27.791 M107.233,41.534c2.576,0,5.023-0.703,6.289-1.21
		c4.036-3.396-2.647-7.147-6.17-7.147c-0.194,0-0.378,0.011-0.551,0.035c-3.302,0.448-4.928,3.415-5.264,6.664
		C103.193,41.118,105.251,41.534,107.233,41.534 M108.489,26.291c-3.342,0-7.697,2.6-8.182,2.896
		c-0.197,0.117-5.12,3.117-6.181,8.907c-1.033,5.627-1.443,13.323,2.478,18.029c2.159,2.592,5.321,3.907,9.398,3.907
		c0.127,0,0.252-0.001,0.382-0.004c15.414-0.304,15.97-12.076,15.974-12.195c0.02-0.637-0.364-1.217-0.958-1.447l-3.539-1.37
		c0.966-0.761,1.711-1.737,2.2-2.891c1.056-2.496,0.869-5.775-0.512-8.997C117.537,28.43,112.406,26.291,108.489,26.291
		L108.489,26.291z M103.162,39.14c0.323-1.653,1.24-4.088,3.84-4.441c0.104-0.014,0.221-0.021,0.35-0.021
		c2.169,0,5.347,1.677,5.864,3.094c0.072,0.196,0.215,0.589-0.488,1.251c-1.347,0.505-3.426,1.012-5.496,1.012
		C105.627,40.034,104.262,39.734,103.162,39.14L103.162,39.14z M109.131,47.489c2.24,0,4.352-0.387,6.286-1.151
		c-0.891,1.126-2.978,3.188-6.305,3.188c-0.082,0-0.165-0.001-0.249-0.004c-4.443-0.136-5.341-1.374-5.561-2.707
		c0.175,0.03,0.359,0.064,0.546,0.098C105.186,47.157,107.019,47.489,109.131,47.489L109.131,47.489z"/>
</g>
<g>
	<path fill="#192C59" d="M150.43,60.704c-0.19,0-0.375-0.073-0.515-0.205l-6.962-6.57c-1.256,1.136-4.543,3.807-8.136,4.276
		c-0.274,0.036-0.553,0.053-0.835,0.053c-4.503,0-9.739-4.412-11.089-6.813c-1.062-1.887-1.113-10.515,1.339-16.063
		c1.242-2.81,2.952-4.483,5.082-4.973c1.841-0.423,3.684-0.646,5.481-0.663l-3.65-2.161c-0.284-0.168-0.425-0.503-0.346-0.824
		l0.924-3.78c0.082-0.333,0.378-0.568,0.722-0.572c0.41,0,9.652,0.096,13.213,8.436c2.26,5.291,2.368,8.733,2.446,11.246
		c0.041,1.293,0.073,2.314,0.412,3.124c1.033,2.463,6.705,8.972,6.762,9.038c0.242,0.276,0.248,0.687,0.015,0.97l-4.284,5.208
		c-0.132,0.16-0.324,0.259-0.532,0.272C150.461,60.704,150.445,60.704,150.43,60.704z M137.001,37.581
		c-0.209,0-0.431,0.022-0.659,0.064c-2.709,0.51-4.501,1.54-5.326,3.062c-0.837,1.545-0.705,3.675,0.394,6.332
		c0.852,2.063,1.918,2.063,2.268,2.063c2.596,0,6.119-4.496,6.659-5.324c0.217-0.436,0.167-2.96-0.905-4.695
		C138.817,38.086,137.999,37.581,137.001,37.581z"/>
	<path fill="#FFFFFF" d="M132.463,23.159c0.357,0,9.132,0.081,12.506,7.981c3.444,8.065,1.764,11.761,2.856,14.365
		c1.092,2.604,6.889,9.241,6.889,9.241l-4.284,5.208l-7.477-7.057c0,0-3.948,4.005-8.233,4.564
		c-0.242,0.032-0.488,0.047-0.738,0.047c-4.163,0-9.197-4.228-10.435-6.431c-1.26-2.239-1.008-18.341,5.936-19.937
		c2.192-0.504,4.092-0.645,5.531-0.645c1.818,0,2.898,0.225,2.898,0.225l-6.385-3.78l0.924-3.78
		C132.452,23.159,132.456,23.159,132.463,23.159 M133.678,49.852c3.071,0,6.798-4.914,7.287-5.664
		c0.633-0.967,0.075-7.358-3.965-7.357c-0.252,0-0.518,0.025-0.798,0.078c-4.759,0.895-8.288,3.64-5.487,10.417
		C131.477,49.168,132.532,49.852,133.678,49.852 M132.463,21.659c-0.004,0-0.019,0-0.023,0c-0.687,0.005-1.282,0.477-1.445,1.144
		l-0.924,3.78c-0.157,0.642,0.124,1.31,0.693,1.647l1.542,0.913c-1.048,0.114-2.104,0.292-3.159,0.535
		c-2.373,0.545-4.257,2.362-5.6,5.4c-2.433,5.504-2.59,14.455-1.307,16.735c1.373,2.442,6.762,7.196,11.743,7.196
		c0.317,0,0.63-0.02,0.932-0.06c3.361-0.439,6.445-2.678,8.018-4.008l6.467,6.104c0.279,0.264,0.648,0.409,1.029,0.409
		c0.031,0,0.063-0.001,0.094-0.003c0.415-0.026,0.8-0.223,1.064-0.544l4.284-5.208c0.466-0.567,0.454-1.387-0.029-1.94
		c-1.568-1.796-5.817-6.883-6.635-8.834c-0.286-0.682-0.315-1.595-0.354-2.858c-0.081-2.573-0.191-6.096-2.506-11.517
		C142.594,21.76,132.875,21.659,132.463,21.659L132.463,21.659z M133.678,48.352c-0.226,0-0.915,0-1.575-1.599
		c-1.008-2.438-1.152-4.352-0.427-5.688c0.712-1.314,2.328-2.216,4.805-2.682c0.182-0.034,0.357-0.052,0.521-0.052c0,0,0,0,0,0
		c0.415,0,1.034,0.093,1.626,0.897c1.008,1.369,1.15,3.636,1.019,4.235C138.67,44.901,135.558,48.352,133.678,48.352L133.678,48.352
		z"/>
</g>
<path fill="#E51D25" d="M104.226,61.046c-4.024,0.242-7.836,0.419-11.47,0.545c-0.446,2.209-1.552,4.563-0.921,7.94
	c0.446,2.398,2.132,5.085,2.961,7.15c3.442-0.987,6.961-2.262,10.551-3.873C105.347,72.807,104.562,64.295,104.226,61.046z"/>
<path fill="#FCD75A" d="M92.801,69.951c-1.097-1.99-0.759-5.227,0.018-8.361c-3.425,0.119-6.677,0.19-9.771,0.219
	c1.777,4.145,4.027,8.334,6.56,10.662c1.533,1.408,3.137,2.9,4.686,4.346c0.797-0.222,1.602-0.476,2.407-0.731
	C95.158,73.819,93.698,71.576,92.801,69.951z"/>
<path fill="#00AEEF" d="M79.499,61.823l1.315,4.879l-0.118,12.533c4.366-0.337,8.906-1.108,13.599-2.418
	c0,0-6.035-5.789-7.382-7.614c-1.061-1.439-2.978-5.663-3.746-7.395C81.918,61.821,80.696,61.825,79.499,61.823z"/>
<path fill="#622C91" d="M66.539,61.524c1.238,1.621,2.963,5.346,2.963,5.346L68.93,79.139c3.829,0.362,7.844,0.419,12.021,0.08
	l-0.137-12.517l-1.269-4.879C74.818,61.819,70.494,61.712,66.539,61.524z"/>
<g>
	<g>
		<path fill="#D72829" d="M101.679,19.713c-0.414,0-0.75-0.336-0.75-0.75v-3.77c0-0.175,0.06-0.336,0.161-0.463
			c-0.103-0.063-0.201-0.129-0.295-0.201c-0.786-0.593-1.201-1.401-1.201-2.338c0-0.885,0.376-1.659,1.09-2.246h-0.982
			c-0.414,0-0.75-0.336-0.75-0.75v-1.33c0-0.414,0.336-0.75,0.75-0.75h2.325V6.432c0-0.414,0.336-0.75,0.75-0.75h1.666
			c0.414,0,0.75,0.336,0.75,0.75v0.685h2.283V6.61c0-0.414,0.336-0.75,0.75-0.75h1.646c0.414,0,0.75,0.336,0.75,0.75v3.449h1.2
			c0.414,0,0.75,0.336,0.75,0.75v1.396c0,0.414-0.336,0.75-0.75,0.75h-1.2v2.92c0,0.414-0.336,0.75-0.75,0.75h-1.646
			c-0.414,0-0.75-0.336-0.75-0.75V13.31c-0.198,0.463-0.526,0.874-0.975,1.215c-0.634,0.48-1.442,0.755-2.406,0.821v1.472h6.135
			c0.414,0,0.75,0.336,0.75,0.75v1.396c0,0.414-0.336,0.75-0.75,0.75H101.679z M103.643,11.896c-0.358,0-0.641,0.056-0.796,0.158
			c-0.087,0.058-0.087,0.086-0.087,0.137c0,0.063,0.004,0.102,0.096,0.166c0.083,0.057,0.296,0.155,0.787,0.155
			c0.505,0,0.724-0.098,0.81-0.157s0.094-0.093,0.094-0.165c0-0.054,0-0.081-0.087-0.137
			C104.368,11.995,104.141,11.896,103.643,11.896z M106.611,9.946c0.393,0.322,0.683,0.701,0.865,1.125V9.946H106.611z"/>
		<path fill="#FFFFFF" d="M104.442,6.432v1.435h3.075v1.33h-7.816v-1.33h3.075V6.432H104.442 M109.872,6.61v4.199h1.95v1.396h-1.95
			v3.67h-1.646V6.61H109.872 M103.643,9.777c1.005,0,1.808,0.227,2.407,0.681c0.6,0.454,0.899,1.032,0.899,1.733
			c0,0.701-0.301,1.279-0.902,1.736c-0.603,0.456-1.408,0.684-2.417,0.684c-0.988,0-1.782-0.227-2.385-0.681
			c-0.602-0.454-0.902-1.034-0.902-1.739c0-0.697,0.299-1.273,0.896-1.729C101.836,10.006,102.638,9.777,103.643,9.777
			 M103.643,13.263c0.542,0,0.953-0.096,1.233-0.288c0.28-0.191,0.42-0.453,0.42-0.783c0-0.326-0.144-0.582-0.43-0.767
			c-0.287-0.186-0.694-0.278-1.224-0.278c-0.521,0-0.922,0.094-1.207,0.281c-0.284,0.188-0.426,0.442-0.426,0.764
			c0,0.326,0.139,0.586,0.416,0.78C102.704,13.166,103.109,13.263,103.643,13.263 M103.345,15.193v2.374h6.885v1.396h-8.551v-3.77
			H103.345 M104.442,4.932h-1.666c-0.806,0-1.464,0.637-1.499,1.435h-1.577c-0.828,0-1.5,0.672-1.5,1.5v1.33
			c0,0.653,0.417,1.209,1,1.415c-0.237,0.481-0.359,1.012-0.359,1.581c0,1.119,0.465,2.089,1.347,2.817
			c-0.007,0.061-0.011,0.123-0.011,0.185v3.77c0,0.828,0.672,1.5,1.5,1.5h8.551c0.828,0,1.5-0.672,1.5-1.5v-1.396
			c0-0.434-0.185-0.825-0.479-1.099c0.079-0.182,0.122-0.383,0.122-0.594v-2.17h0.45c0.828,0,1.5-0.672,1.5-1.5v-1.396
			c0-0.828-0.672-1.5-1.5-1.5h-0.45V6.61c0-0.828-0.672-1.5-1.5-1.5h-1.646c-0.745,0-1.364,0.544-1.48,1.256h-0.804
			C105.907,5.568,105.249,4.932,104.442,4.932L104.442,4.932z M104.845,16.01c0.711-0.126,1.34-0.369,1.881-0.726v0.591
			c0,0.065,0.004,0.13,0.012,0.193h-1.893V16.01L104.845,16.01z"/>
	</g>
	<g>
		<path fill="#D72829" d="M121.576,20.116c-0.414,0-0.75-0.336-0.75-0.75v-2.794h-6.146c-0.414,0-0.75-0.336-0.75-0.75v-1.409
			c0-0.414,0.336-0.75,0.75-0.75h2.708v-0.345h-4.235c-0.414,0-0.75-0.336-0.75-0.75v-1.396c0-0.414,0.336-0.75,0.75-0.75h7.59
			c0.024-0.479,0.041-0.941,0.049-1.383h-5.782c-0.414,0-0.75-0.336-0.75-0.75V6.895c0-0.414,0.336-0.75,0.75-0.75h8.207
			c0.414,0,0.75,0.336,0.75,0.75c0,0.959-0.04,2.143-0.119,3.528h1.142c0.414,0,0.75,0.336,0.75,0.75v1.396
			c0,0.414-0.336,0.75-0.75,0.75h-4.448v0.345h2.702c0.414,0,0.75,0.336,0.75,0.75v4.953c0,0.414-0.336,0.75-0.75,0.75H121.576z"/>
		<path fill="#FFFFFF" d="M123.217,6.895h0.005 M123.217,6.895c0,1.133-0.056,2.559-0.166,4.278h1.938v1.396h-5.198v1.845h3.452
			v4.953h-1.667v-3.544h-6.896v-1.409h3.458v-1.845h-4.985v-1.396h8.299c0.065-1.036,0.099-1.997,0.099-2.883h-6.54V6.895H123.217
			 M123.222,5.395h-0.005h-8.207c-0.828,0-1.5,0.672-1.5,1.5V8.29c0,0.622,0.379,1.156,0.919,1.383h-1.276
			c-0.828,0-1.5,0.672-1.5,1.5v1.396c0,0.828,0.672,1.5,1.5,1.5h0.067c-0.026,0.111-0.04,0.226-0.04,0.345v1.409
			c0,0.828,0.672,1.5,1.5,1.5h5.396v2.044c0,0.828,0.672,1.5,1.5,1.5h1.667c0.828,0,1.5-0.672,1.5-1.5v-4.953
			c0-0.119-0.014-0.234-0.04-0.345h0.286c0.828,0,1.5-0.672,1.5-1.5v-1.396c0-0.828-0.672-1.5-1.5-1.5h-0.351
			c0.05-1.024,0.076-1.924,0.078-2.689c0.002-0.029,0.003-0.059,0.003-0.089C124.719,6.066,124.05,5.395,123.222,5.395
			L123.222,5.395z M123.217,8.395h0.005H123.217L123.217,8.395z"/>
	</g>
	<g>
		<path fill="#D72829" d="M128.428,19.673c-0.414,0-0.75-0.336-0.75-0.75v-3.835c0-0.049,0.005-0.096,0.014-0.143h-0.996
			c-0.414,0-0.75-0.336-0.75-0.75V12.8c0-0.414,0.336-0.75,0.75-0.75h1.135c-0.063-0.11-0.1-0.238-0.1-0.375V7.126
			c0-0.414,0.336-0.75,0.75-0.75h8.266c0.414,0,0.75,0.336,0.75,0.75v4.549c0,0.136-0.037,0.264-0.1,0.375h1.136
			c0.414,0,0.75,0.336,0.75,0.75v1.395c0,0.414-0.336,0.75-0.75,0.75h-4.21v1.743c0,0.03-0.002,0.061-0.005,0.09h2.641
			c0.414,0,0.75,0.336,0.75,0.75v1.395c0,0.414-0.336,0.75-0.75,0.75H128.428z M131.167,16.778c-0.003-0.029-0.005-0.06-0.005-0.09
			v-1.743h-0.332c0.009,0.046,0.014,0.094,0.014,0.143v1.69H131.167z M134.343,9.543V9.258h-3.459v0.286H134.343z"/>
		<path fill="#FFFFFF" d="M136.746,7.126v4.549h-8.266V7.126H136.746 M130.134,10.293h4.959V8.508h-4.959V10.293 M138.532,12.8
			v1.395h-4.96v2.493h-1.66v-2.493h-5.217V12.8H138.532 M130.094,15.087v2.44h6.864v1.395h-8.53v-3.835H130.094 M136.746,5.626
			h-8.266c-0.828,0-1.5,0.672-1.5,1.5V11.3h-0.285c-0.828,0-1.5,0.672-1.5,1.5v1.395c0,0.828,0.672,1.5,1.5,1.5h0.232v3.228
			c0,0.828,0.672,1.5,1.5,1.5h8.53c0.828,0,1.5-0.672,1.5-1.5v-1.395c0-0.828-0.672-1.5-1.5-1.5h-1.886v-0.333h3.46
			c0.828,0,1.5-0.672,1.5-1.5V12.8c0-0.828-0.672-1.5-1.5-1.5h-0.286V7.126C138.246,6.298,137.575,5.626,136.746,5.626
			L136.746,5.626z"/>
	</g>
	<g>
		<path fill="#D72829" d="M149.093,20.116c-0.414,0-0.75-0.336-0.75-0.75v-1.274c-2.288,0.124-5.125,0.186-8.442,0.186
			c-0.38,0-0.7-0.284-0.745-0.661l-0.165-1.382c-0.025-0.212,0.041-0.425,0.182-0.585s0.344-0.252,0.557-0.254l2.742-0.02
			c-0.58-0.194-1.065-0.487-1.45-0.874c-0.579-0.582-0.873-1.296-0.873-2.125c0-0.867,0.334-1.626,0.97-2.212h-0.868
			c-0.414,0-0.75-0.336-0.75-0.75V8.019c0-0.414,0.336-0.75,0.75-0.75h2.378V6.518c0-0.414,0.336-0.75,0.75-0.75h1.666
			c0.414,0,0.75,0.336,0.75,0.75v0.751h2.365c0.063,0,0.124,0.008,0.183,0.022V6.61c0-0.414,0.336-0.75,0.75-0.75h1.666
			c0.414,0,0.75,0.336,0.75,0.75v4.692h1.161c0.414,0,0.75,0.336,0.75,0.75v1.396c0,0.414-0.336,0.75-0.75,0.75h-1.161v5.168
			c0,0.414-0.336,0.75-0.75,0.75H149.093z M147.353,10.164c0.597,0.565,0.909,1.305,0.909,2.159c0,0.813-0.286,1.527-0.85,2.123
			c-0.349,0.369-0.785,0.654-1.305,0.855c1.056-0.031,1.805-0.063,2.235-0.096v-5.063c-0.059,0.015-0.119,0.022-0.183,0.022H147.353
			z M144.219,11.976c-0.331,0-0.584,0.063-0.752,0.189c-0.151,0.112-0.151,0.183-0.151,0.225c0,0.052,0,0.117,0.135,0.216
			c0.157,0.117,0.424,0.178,0.769,0.178c0.341,0,0.604-0.061,0.759-0.175c0.121-0.089,0.131-0.149,0.131-0.219
			c0-0.093-0.021-0.156-0.132-0.24C144.823,12.036,144.562,11.976,144.219,11.976z"/>
		<path fill="#FFFFFF" d="M145.045,6.518v1.501h3.115v1.396h-7.909V8.019h3.128V6.518H145.045 M150.759,6.61v5.442h1.911v1.396
			h-1.911v5.918h-1.666V6.61H150.759 M144.219,9.863c1.022,0,1.827,0.224,2.414,0.671c0.586,0.448,0.879,1.044,0.879,1.789
			c0,0.618-0.215,1.153-0.645,1.607c-0.43,0.454-1.037,0.75-1.822,0.886v1.263c1.808-0.044,2.977-0.09,3.505-0.139l0.112,1.382
			c-2.345,0.137-5.266,0.205-8.762,0.205l-0.165-1.382l3.644-0.026v-1.29c-0.78-0.132-1.389-0.417-1.825-0.856
			c-0.437-0.438-0.654-0.971-0.654-1.597c0-0.736,0.301-1.339,0.902-1.809C142.403,10.098,143.209,9.863,144.219,9.863
			 M144.219,13.534c0.512,0,0.912-0.107,1.203-0.321c0.291-0.214,0.437-0.488,0.437-0.823c0-0.344-0.145-0.624-0.433-0.84
			c-0.289-0.216-0.691-0.324-1.207-0.324c-0.498,0-0.898,0.113-1.2,0.337s-0.453,0.5-0.453,0.827c0,0.331,0.146,0.604,0.439,0.82
			C143.299,13.426,143.703,13.534,144.219,13.534 M145.045,5.018h-1.666c-0.828,0-1.5,0.672-1.5,1.5v0.001h-1.628
			c-0.828,0-1.5,0.672-1.5,1.5v1.396c0,0.644,0.405,1.193,0.975,1.406c-0.216,0.475-0.326,0.998-0.326,1.557
			c0,0.844,0.258,1.618,0.752,2.266l-0.427,0.003c-0.427,0.003-0.832,0.188-1.115,0.508c-0.282,0.32-0.415,0.746-0.364,1.17
			l0.165,1.382c0.09,0.754,0.73,1.322,1.489,1.322c2.959,0,5.539-0.05,7.692-0.148v0.486c0,0.828,0.672,1.5,1.5,1.5h1.666
			c0.828,0,1.5-0.672,1.5-1.5v-4.418h0.411c0.828,0,1.5-0.672,1.5-1.5v-1.396c0-0.828-0.672-1.5-1.5-1.5h-0.411V6.61
			c0-0.828-0.672-1.5-1.5-1.5h-1.666c-0.798,0-1.45,0.623-1.497,1.409h-1.051V6.518C146.545,5.689,145.873,5.018,145.045,5.018
			L145.045,5.018z"/>
	</g>
	<g>
		<path fill="#D72829" d="M156.704,19.845c-0.414,0-0.75-0.336-0.75-0.75v-4.728c0-0.099,0.02-0.193,0.054-0.279
			c-0.316,0.203-0.646,0.393-0.991,0.569c-0.108,0.056-0.227,0.083-0.343,0.083c-0.198,0-0.395-0.079-0.539-0.229l-1.124-1.164
			c-0.179-0.185-0.25-0.447-0.19-0.697c0.061-0.25,0.244-0.451,0.486-0.534c0.277-0.095,0.545-0.208,0.804-0.341
			c-0.28-0.018-0.533-0.193-0.645-0.46l-0.569-1.369c-0.093-0.222-0.072-0.475,0.053-0.68c0.126-0.206,0.343-0.337,0.583-0.356
			l0.079-0.006c-0.041-0.093-0.064-0.196-0.064-0.304V7.218c0-0.414,0.336-0.75,0.75-0.75h5.336c0.097,0,0.192,0.019,0.28,0.054
			c0.125-0.24,0.376-0.405,0.666-0.405h1.626c0.132,0,0.256,0.034,0.363,0.094c0.133-0.211,0.368-0.352,0.636-0.352h1.64
			c0.414,0,0.75,0.336,0.75,0.75v7.221c0,0.094-0.018,0.185-0.049,0.268c0.031,0.083,0.049,0.173,0.049,0.268v4.728
			c0,0.414-0.336,0.75-0.75,0.75H156.704z M162.454,16.963v-0.451h-3.36v0.451H162.454z M159.829,9.612
			c-0.275,0.699-0.646,1.36-1.109,1.98c-0.567,0.758-1.248,1.436-2.033,2.024c0.006,0,3.143,0,3.143,0V9.612z"/>
		<path fill="#FFFFFF" d="M164.844,6.61v7.221h-1.64v-2.579h-0.999v2.579h-1.626V6.868h1.626v2.996h0.999V6.61H164.844
			 M159.633,7.218h0.005 M159.633,7.218c-0.137,1.451-0.642,2.759-1.514,3.925c-0.873,1.166-2.021,2.115-3.445,2.847l-1.124-1.164
			c1.186-0.406,2.215-1.109,3.088-2.11l-2.479,0.311l-0.569-1.369l3.928-0.298c0.128-0.26,0.223-0.514,0.285-0.76h-3.505V7.218
			H159.633 M164.844,14.367v4.728h-8.14v-4.728H164.844 M158.344,17.713h4.86v-1.951h-4.86V17.713 M164.844,5.11h-1.64
			c-0.316,0-0.61,0.098-0.852,0.265c-0.049-0.005-0.098-0.007-0.147-0.007h-1.626c-0.367,0-0.703,0.132-0.964,0.351h-5.318
			c-0.828,0-1.5,0.672-1.5,1.5v1.167c-0.195,0.121-0.363,0.288-0.486,0.489c-0.252,0.41-0.291,0.916-0.107,1.361l0.549,1.32
			c-0.328,0.206-0.569,0.534-0.662,0.92c-0.12,0.499,0.023,1.025,0.379,1.394l1.124,1.164c0.29,0.3,0.682,0.458,1.079,0.458
			c0.178,0,0.358-0.032,0.53-0.097v3.702c0,0.828,0.672,1.5,1.5,1.5h8.14c0.828,0,1.5-0.672,1.5-1.5v-4.728
			c0-0.091-0.008-0.181-0.024-0.268c0.016-0.087,0.024-0.176,0.024-0.268V6.61C166.344,5.781,165.672,5.11,164.844,5.11
			L164.844,5.11z M158.634,12.867c0.154-0.167,0.303-0.339,0.445-0.515v0.515H158.634L158.634,12.867z"/>
	</g>
	<g>
		<path fill="#D72829" d="M167.324,18.383c-0.414,0-0.75-0.336-0.75-0.75v-1.382c0-0.414,0.336-0.75,0.75-0.75h11.837
			c0.414,0,0.75,0.336,0.75,0.75v1.382c0,0.414-0.336,0.75-0.75,0.75H167.324z M168.408,14.892c-0.414,0-0.75-0.336-0.75-0.75
			v-1.369c0-0.414,0.336-0.75,0.75-0.75h1.025l-0.102-2.183h-0.831c-0.414,0-0.75-0.336-0.75-0.75V7.721
			c0-0.414,0.336-0.75,0.75-0.75h9.482c0.414,0,0.75,0.336,0.75,0.75V9.09c0,0.414-0.336,0.75-0.75,0.75h-0.833l-0.13,2.183h1.056
			c0.414,0,0.75,0.336,0.75,0.75v1.369c0,0.414-0.336,0.75-0.75,0.75H168.408z M173.916,12.023l0.083-2.183h-1.515l0.074,2.183
			H173.916z"/>
		<path fill="#FFFFFF" d="M177.983,7.721V9.09h-9.482V7.721H177.983 M176.41,9.659h0.005 M176.41,9.659l-0.186,3.114h1.852v1.369
			h-9.668v-1.369h1.812l-0.146-3.114h1.653l0.106,3.114h2.804l0.119-3.114H176.41 M179.161,16.251v1.382h-11.837v-1.382H179.161
			 M177.983,6.221h-9.482c-0.828,0-1.5,0.672-1.5,1.5V9.09c0,0.828,0.672,1.5,1.5,1.5h0.115l0.032,0.683h-0.24
			c-0.828,0-1.5,0.672-1.5,1.5v1.369c0,0.227,0.05,0.442,0.14,0.635c-0.697,0.129-1.224,0.74-1.224,1.475v1.382
			c0,0.828,0.672,1.5,1.5,1.5h11.837c0.828,0,1.5-0.672,1.5-1.5v-1.382c0-0.735-0.528-1.346-1.225-1.475
			c0.09-0.193,0.14-0.408,0.14-0.634v-1.369c0-0.828-0.672-1.5-1.5-1.5h-0.26l0.041-0.683h0.126c0.828,0,1.5-0.672,1.5-1.5V7.721
			C179.483,6.892,178.812,6.221,177.983,6.221L177.983,6.221z M176.41,11.159h0.005H176.41L176.41,11.159z"/>
	</g>
</g>
</svg>
