<?xml version="1.0" encoding="utf-8"?>
<!-- Generator: Adobe Illustrator 22.0.1, SVG Export Plug-In . SVG Version: 6.00 Build 0)  -->
<svg version="1.1" id="Layer_1" xmlns="http://www.w3.org/2000/svg" xmlns:xlink="http://www.w3.org/1999/xlink" x="0px" y="0px"
	 viewBox="0 0 180.1 110.8" style="enable-background:new 0 0 180.1 110.8;" xml:space="preserve">
<style type="text/css">
	.st0{fill-rule:evenodd;clip-rule:evenodd;fill:url(#SVGID_1_);}
	.st1{fill:#262424;}
</style>
<linearGradient id="SVGID_1_" gradientUnits="userSpaceOnUse" x1="66.3893" y1="97.8163" x2="66.3893" y2="24.1614">
	<stop  offset="0" style="stop-color:#939F47"/>
	<stop  offset="0.35" style="stop-color:#939F47"/>
	<stop  offset="0.62" style="stop-color:#4F5D36"/>
	<stop  offset="0.63" style="stop-color:#939F47"/>
	<stop  offset="1" style="stop-color:#939F47"/>
</linearGradient>
<path class="st0" d="M37.6,21.1h57.6c8.4,0,15.3,6.9,15.3,15.3v29.9c0,8.4-6.8,15.2-15.2,15.3v17.1c0,1.5-2.3,3.8-5.5,0.2L74.2,81.6
	H37.6c-8.4,0-15.3-6.9-15.3-15.3V36.4C22.3,28,29.2,21.1,37.6,21.1L37.6,21.1z M54.1,51.5c0-4.6-0.6-8.1-1.7-10.6
	c-0.7-1.4-1.5-2.6-2.4-3.6c-1-1-2.1-1.7-3.3-2.2c-1.3-0.5-2.7-0.8-4.3-0.8c-2.4,0-4.4,0.6-6.1,1.7c-1.7,1.1-3,2.8-3.9,5
	c-0.5,1.3-0.9,2.9-1.1,4.7c-0.2,1.8-0.4,3.9-0.4,6.2c0,1.8,0.1,3.4,0.3,4.9c0.2,1.5,0.6,2.9,1,4.2c0.9,2.3,2.3,4.1,4.1,5.4
	c1.8,1.3,3.9,2,6.2,2c2,0,3.8-0.5,5.5-1.5c1.6-1,3-2.3,4-4.1c0.8-1.5,1.4-3.1,1.7-4.9C54,56.1,54.1,54,54.1,51.5L54.1,51.5z
	 M47.9,51.1c0-2.8-0.2-5-0.5-6.8c-0.3-1.8-0.9-3.1-1.7-4c-0.8-0.9-1.9-1.3-3.3-1.3c-2,0-3.4,1-4.2,3c-0.8,2-1.2,5.1-1.2,9.3
	c0,2.8,0.2,5.2,0.5,7c0.3,1.8,0.9,3.2,1.7,4.1c0.8,0.9,1.9,1.4,3.2,1.4c1.4,0,2.5-0.5,3.3-1.5c0.8-1,1.3-2.4,1.7-4.2
	C47.7,56.3,47.9,54,47.9,51.1L47.9,51.1z M66.2,47.7h-0.9c-1.1,0-1.9,0.2-2.4,0.7c-0.6,0.4-0.8,1-0.8,1.8c0,0.7,0.2,1.3,0.7,1.7
	c0.5,0.4,1.1,0.6,1.9,0.6c0.2,0,0.6,0,1.2-0.1c0.6-0.1,1.1-0.1,1.4-0.1c1.7,0,3.1,0.5,4,1.5c1,1,1.5,2.4,1.5,4.2
	c0,1.2-0.3,2.2-0.9,3.2c-0.6,0.9-1.3,1.6-2.2,2.1c-0.9,0.5-1.8,0.7-2.7,0.7c-1.6,0-2.9-0.5-3.8-1.5c-0.9-1-1.7-2.6-2.5-4.7
	c-0.1-0.3-0.4-0.6-0.8-0.9c-0.4-0.3-0.8-0.4-1.2-0.4c-0.9,0-1.6,0.3-2.1,0.8c-0.6,0.5-0.9,1.2-0.9,2.1c0,0.7,0.2,1.5,0.7,2.6
	c0.5,1,1.2,2.1,2.1,3c0.9,1,2.1,1.8,3.6,2.4c1.4,0.7,3.1,1,4.9,1c1.8,0,3.4-0.3,4.9-0.9c1.5-0.6,2.8-1.4,3.8-2.4
	c1.1-1,1.9-2.1,2.4-3.4c0.6-1.3,0.8-2.6,0.8-4c0-1.1-0.2-2.2-0.6-3.2c-0.4-1-1-1.9-1.8-2.7c-0.8-0.8-1.8-1.5-3-2.2
	c1.2-1,2.2-2.1,2.8-3.2c0.7-1.1,1-2.4,1-3.9c0-1.1-0.2-2.2-0.7-3.2c-0.5-1-1.1-1.9-2-2.6c-0.9-0.8-1.9-1.3-3.2-1.7
	c-1.2-0.4-2.6-0.6-4-0.6c-1.7,0-3.2,0.2-4.6,0.7c-1.4,0.5-2.5,1.1-3.4,1.9c-0.9,0.8-1.6,1.6-2.1,2.5c-0.5,0.9-0.7,1.7-0.7,2.5
	c0,0.8,0.2,1.5,0.8,2c0.5,0.5,1.1,0.7,1.7,0.7c0.5,0,1-0.1,1.4-0.3c0.4-0.2,0.7-0.4,0.8-0.7c0.3-0.6,0.5-1.2,0.9-1.9
	c0.3-0.7,0.6-1.2,1-1.6c0.3-0.4,0.8-0.8,1.4-1c0.6-0.3,1.4-0.4,2.3-0.4c1.4,0,2.5,0.4,3.2,1.3c0.8,0.8,1.2,1.8,1.2,3
	c0,1.5-0.5,2.7-1.5,3.5C68.8,47.3,67.6,47.7,66.2,47.7L66.2,47.7z M88.5,62.5c0.4-0.6,0.8-1.1,1.1-1.5c0.8-1,2.4-2.5,4.7-4.3
	c2.3-1.9,3.9-3.2,4.9-4.1c1-0.9,1.9-2.1,2.9-3.6c0.9-1.5,1.4-3.2,1.4-5.1c0-1.2-0.2-2.4-0.7-3.5c-0.4-1.1-1.1-2.1-1.9-2.9
	c-0.8-0.9-1.7-1.5-2.8-2c-1.6-0.7-3.6-1.1-5.9-1.1c-1.9,0-3.6,0.3-5,0.9c-1.4,0.6-2.6,1.3-3.5,2.2c-0.9,0.9-1.6,2-2.1,3.1
	c-0.5,1.1-0.7,2.2-0.7,3.3c0,0.9,0.2,1.5,0.8,2c0.5,0.5,1.1,0.7,1.9,0.7c0.9,0,1.5-0.3,2-0.8c0.4-0.5,0.8-1.3,1.2-2.3
	c0.4-1,0.6-1.6,0.8-1.9c1.1-1.7,2.7-2.6,4.7-2.6c0.9,0,1.8,0.2,2.6,0.6c0.8,0.4,1.4,1,1.9,1.8c0.5,0.8,0.7,1.6,0.7,2.6
	c0,0.9-0.2,1.8-0.6,2.7c-0.4,0.9-1.1,1.8-1.9,2.7c-0.8,0.9-1.9,1.8-3.1,2.6c-0.7,0.5-1.9,1.5-3.5,2.9c-1.6,1.5-3.4,3.3-5.5,5.4
	c-0.5,0.5-0.9,1.2-1.3,2.1c-0.4,0.9-0.6,1.6-0.6,2.2c0,0.8,0.3,1.6,1,2.2c0.6,0.6,1.5,0.9,2.7,0.9h16.7c1,0,1.8-0.3,2.2-0.8
	c0.5-0.5,0.7-1.1,0.7-1.9c0-0.8-0.3-1.5-0.9-2c-0.6-0.5-1.5-0.7-2.7-0.7H88.5z"/>
<path class="st1" d="M132.6,59.1v-0.8c-0.8,0.9-1.5,1.7-2.4,2.4c-0.8,0.6-1.7,1.1-2.7,1.4c-1,0.3-2.1,0.5-3.4,0.5
	c-1.5,0-2.9-0.3-4.1-0.9c-1.2-0.6-2.1-1.5-2.8-2.6c-0.8-1.3-1.2-3.2-1.2-5.7V40.9c0-1.3,0.3-2.2,0.8-2.8c0.6-0.6,1.3-0.9,2.3-0.9
	c0.9,0,1.7,0.3,2.3,0.9c0.6,0.6,0.9,1.6,0.9,2.8v10c0,1.4,0.1,2.7,0.4,3.7c0.2,1,0.7,1.8,1.3,2.3c0.6,0.6,1.5,0.8,2.6,0.8
	c1,0,2-0.3,3-0.9c0.9-0.6,1.6-1.4,2-2.5c0.4-0.9,0.5-2.8,0.5-5.8v-7.6c0-1.2,0.3-2.2,0.9-2.8c0.6-0.6,1.3-0.9,2.3-0.9
	c0.9,0,1.7,0.3,2.3,0.9c0.6,0.6,0.8,1.6,0.8,2.8v18.2c0,1.2-0.3,2.1-0.8,2.7c-0.5,0.6-1.2,0.9-2.1,0.9c-0.9,0-1.6-0.3-2.1-0.9
	C132.9,61.1,132.6,60.2,132.6,59.1L132.6,59.1z M151.3,86.4c0,0,0,0.1-0.1,0.1c0,0-0.1,0-0.1,0.1c-0.1,0-0.1,0-0.3,0
	c-0.1,0-0.2,0-0.3,0c-0.1,0-0.1,0-0.1-0.1c0,0,0-0.1,0-0.1v-0.6c-0.2,0.3-0.5,0.5-0.8,0.6c-0.3,0.1-0.6,0.2-1,0.2
	c-0.3,0-0.6,0-0.8-0.1c-0.2-0.1-0.4-0.2-0.6-0.3c-0.2-0.1-0.3-0.3-0.4-0.5c-0.1-0.2-0.1-0.5-0.1-0.7c0-0.3,0.1-0.6,0.2-0.8
	c0.1-0.2,0.3-0.4,0.6-0.6c0.2-0.2,0.5-0.3,0.9-0.3c0.3-0.1,0.7-0.1,1.2-0.1h0.8v-0.4c0-0.2,0-0.4-0.1-0.6c0-0.2-0.1-0.3-0.2-0.4
	c-0.1-0.1-0.2-0.2-0.4-0.3c-0.2-0.1-0.4-0.1-0.6-0.1c-0.3,0-0.5,0-0.7,0.1c-0.2,0.1-0.4,0.1-0.5,0.2c-0.2,0.1-0.3,0.1-0.4,0.2
	c-0.1,0.1-0.2,0.1-0.2,0.1c0,0-0.1,0-0.1,0c0,0,0,0-0.1-0.1c0,0,0-0.1,0-0.1c0-0.1,0-0.1,0-0.2c0-0.1,0-0.2,0-0.2
	c0-0.1,0-0.1,0.1-0.2c0.1-0.1,0.2-0.1,0.3-0.2c0.1-0.1,0.3-0.1,0.5-0.2c0.2-0.1,0.4-0.1,0.6-0.1c0.2,0,0.4-0.1,0.6-0.1
	c0.4,0,0.7,0,1,0.1c0.3,0.1,0.5,0.2,0.7,0.4c0.2,0.2,0.3,0.4,0.4,0.7c0.1,0.3,0.1,0.6,0.1,0.9V86.4L151.3,86.4z M150.3,83.9h-0.9
	c-0.3,0-0.5,0-0.7,0.1c-0.2,0-0.4,0.1-0.5,0.2c-0.1,0.1-0.2,0.2-0.3,0.3c-0.1,0.1-0.1,0.3-0.1,0.4c0,0.3,0.1,0.5,0.3,0.7
	c0.2,0.2,0.4,0.3,0.8,0.3c0.3,0,0.5-0.1,0.7-0.2c0.2-0.1,0.5-0.3,0.7-0.6V83.9L150.3,83.9z M146,84.8c0,0.3-0.1,0.6-0.2,0.8
	c-0.1,0.2-0.3,0.4-0.5,0.6c-0.2,0.2-0.5,0.3-0.8,0.4c-0.3,0.1-0.7,0.1-1.1,0.1c-0.1,0-0.3,0-0.4,0c-0.1,0-0.3,0-0.4,0
	c-0.1,0-0.2,0-0.4,0c-0.1,0-0.2,0-0.4,0c-0.2,0-0.3-0.1-0.4-0.2c-0.1-0.1-0.1-0.2-0.1-0.4v-4.8c0-0.2,0-0.3,0.1-0.4
	c0.1-0.1,0.2-0.1,0.4-0.2c0.1,0,0.2,0,0.3,0c0.1,0,0.2,0,0.4,0c0.1,0,0.3,0,0.4,0c0.1,0,0.3,0,0.4,0c0.4,0,0.7,0,1,0.1
	c0.3,0.1,0.5,0.2,0.7,0.3c0.2,0.1,0.3,0.3,0.4,0.5c0.1,0.2,0.1,0.4,0.1,0.6c0,0.3-0.1,0.6-0.3,0.8c-0.2,0.2-0.4,0.4-0.7,0.5
	c0.4,0.1,0.7,0.3,0.9,0.5C145.9,84.1,146,84.4,146,84.8L146,84.8z M144.8,82.2c0-0.1,0-0.3-0.1-0.4c0-0.1-0.1-0.2-0.2-0.3
	c-0.1-0.1-0.3-0.1-0.4-0.2c-0.2,0-0.4-0.1-0.7-0.1c-0.2,0-0.4,0-0.5,0c-0.2,0-0.3,0-0.4,0v1.7h1c0.4,0,0.8-0.1,1-0.2
	C144.7,82.7,144.8,82.5,144.8,82.2L144.8,82.2z M145,84.8c0-0.2,0-0.3-0.1-0.4c-0.1-0.1-0.2-0.2-0.3-0.3c-0.1-0.1-0.3-0.1-0.5-0.2
	c-0.2,0-0.4-0.1-0.7-0.1h-1v2c0.1,0,0.2,0,0.2,0c0.1,0,0.2,0,0.3,0c0.1,0,0.2,0,0.3,0c0.1,0,0.2,0,0.2,0c0.3,0,0.5,0,0.7-0.1
	c0.2,0,0.3-0.1,0.5-0.2c0.1-0.1,0.2-0.2,0.3-0.3C144.9,85.1,145,85,145,84.8L145,84.8z M140.3,83.6c0,0.5-0.1,0.9-0.2,1.3
	c-0.1,0.4-0.3,0.7-0.5,1c-0.2,0.3-0.5,0.5-0.9,0.6c-0.4,0.2-0.8,0.2-1.2,0.2c-0.5,0-0.9-0.1-1.2-0.2c-0.3-0.1-0.6-0.3-0.9-0.6
	c-0.2-0.3-0.4-0.6-0.5-1c-0.1-0.4-0.2-0.8-0.2-1.3c0-0.5,0.1-0.9,0.2-1.3c0.1-0.4,0.3-0.7,0.5-1c0.2-0.3,0.5-0.5,0.9-0.6
	c0.4-0.2,0.8-0.2,1.2-0.2c0.5,0,0.9,0.1,1.2,0.2c0.3,0.1,0.6,0.3,0.9,0.6c0.2,0.3,0.4,0.6,0.5,1C140.3,82.7,140.3,83.1,140.3,83.6
	L140.3,83.6z M139.3,83.6c0-0.3,0-0.6-0.1-0.9c-0.1-0.3-0.1-0.5-0.3-0.7c-0.1-0.2-0.3-0.4-0.5-0.5c-0.2-0.1-0.5-0.2-0.8-0.2
	c-0.3,0-0.6,0.1-0.8,0.2c-0.2,0.1-0.4,0.3-0.5,0.5c-0.1,0.2-0.2,0.4-0.3,0.7c-0.1,0.3-0.1,0.6-0.1,0.9c0,0.3,0,0.6,0.1,0.9
	c0.1,0.3,0.1,0.5,0.3,0.7c0.1,0.2,0.3,0.4,0.5,0.5c0.2,0.1,0.5,0.2,0.8,0.2c0.3,0,0.6-0.1,0.8-0.2c0.2-0.1,0.4-0.3,0.5-0.5
	c0.1-0.2,0.2-0.4,0.3-0.7C139.2,84.2,139.3,84,139.3,83.6L139.3,83.6z M134.1,84.8c0,0.3-0.1,0.6-0.2,0.8c-0.1,0.2-0.3,0.4-0.5,0.6
	c-0.2,0.2-0.5,0.3-0.8,0.4c-0.3,0.1-0.7,0.1-1.1,0.1c-0.1,0-0.3,0-0.4,0c-0.1,0-0.3,0-0.4,0c-0.1,0-0.2,0-0.4,0c-0.1,0-0.2,0-0.4,0
	c-0.2,0-0.3-0.1-0.4-0.2c-0.1-0.1-0.1-0.2-0.1-0.4v-4.8c0-0.2,0-0.3,0.1-0.4c0.1-0.1,0.2-0.1,0.4-0.2c0.1,0,0.2,0,0.3,0
	c0.1,0,0.2,0,0.4,0c0.1,0,0.3,0,0.4,0c0.1,0,0.3,0,0.4,0c0.4,0,0.7,0,1,0.1c0.3,0.1,0.5,0.2,0.7,0.3c0.2,0.1,0.3,0.3,0.4,0.5
	c0.1,0.2,0.1,0.4,0.1,0.6c0,0.3-0.1,0.6-0.3,0.8c-0.2,0.2-0.4,0.4-0.7,0.5c0.4,0.1,0.7,0.3,0.9,0.5C134,84.1,134.1,84.4,134.1,84.8
	L134.1,84.8z M132.8,82.2c0-0.1,0-0.3-0.1-0.4c0-0.1-0.1-0.2-0.2-0.3c-0.1-0.1-0.3-0.1-0.4-0.2c-0.2,0-0.4-0.1-0.7-0.1
	c-0.2,0-0.4,0-0.5,0c-0.2,0-0.3,0-0.4,0v1.7h1c0.4,0,0.8-0.1,1-0.2C132.7,82.7,132.8,82.5,132.8,82.2L132.8,82.2z M133,84.8
	c0-0.2,0-0.3-0.1-0.4c-0.1-0.1-0.2-0.2-0.3-0.3c-0.1-0.1-0.3-0.1-0.5-0.2c-0.2,0-0.4-0.1-0.7-0.1h-1v2c0.1,0,0.2,0,0.2,0
	c0.1,0,0.2,0,0.3,0c0.1,0,0.2,0,0.3,0c0.1,0,0.2,0,0.2,0c0.3,0,0.5,0,0.7-0.1c0.2,0,0.3-0.1,0.5-0.2c0.1-0.1,0.2-0.2,0.3-0.3
	C133,85.1,133,85,133,84.8L133,84.8z M128.6,84.6c0,0.3-0.1,0.6-0.2,0.8c-0.1,0.2-0.3,0.5-0.5,0.6c-0.2,0.2-0.5,0.3-0.9,0.4
	c-0.3,0.1-0.8,0.2-1.3,0.2c-0.1,0-0.2,0-0.3,0c-0.1,0-0.2,0-0.4,0c-0.1,0-0.2,0-0.3,0c-0.1,0-0.2,0-0.3,0c-0.2,0-0.3-0.1-0.4-0.2
	c-0.1-0.1-0.1-0.2-0.1-0.4v-5.2c0,0,0-0.1,0-0.1c0,0,0,0,0.1-0.1c0,0,0.1,0,0.2,0c0.1,0,0.2,0,0.2,0c0.1,0,0.2,0,0.3,0
	c0.1,0,0.1,0,0.2,0c0,0,0.1,0,0.1,0.1c0,0,0,0.1,0,0.1v2c0.2,0,0.3,0,0.5,0c0.2,0,0.4,0,0.5,0c0.5,0,0.8,0,1.2,0.1
	c0.3,0.1,0.6,0.2,0.8,0.4c0.2,0.2,0.4,0.4,0.5,0.6C128.5,84.1,128.6,84.4,128.6,84.6L128.6,84.6z M127.5,84.7c0-0.2,0-0.3-0.1-0.5
	c-0.1-0.1-0.1-0.3-0.3-0.4c-0.1-0.1-0.3-0.2-0.5-0.2c-0.2-0.1-0.4-0.1-0.7-0.1c-0.2,0-0.3,0-0.5,0c-0.2,0-0.3,0-0.5,0v2.2
	c0.1,0,0.3,0,0.5,0c0.2,0,0.4,0,0.6,0c0.5,0,0.9-0.1,1.1-0.3C127.4,85.3,127.5,85.1,127.5,84.7L127.5,84.7z M122.3,86.4
	C122.3,86.5,122.3,86.5,122.3,86.4c0,0.1-0.1,0.1-0.1,0.1c0,0-0.1,0-0.2,0c-0.1,0-0.2,0-0.3,0c-0.1,0-0.2,0-0.3,0
	c-0.1,0-0.1,0-0.2,0c0,0-0.1,0-0.1-0.1c0,0,0-0.1,0-0.1v-7H119c-0.1,1-0.2,1.8-0.3,2.5c-0.1,0.7-0.2,1.4-0.4,1.9
	c-0.1,0.5-0.3,1-0.4,1.3c-0.1,0.4-0.3,0.6-0.5,0.9c-0.2,0.2-0.4,0.4-0.7,0.5c-0.2,0.1-0.5,0.1-0.8,0.1c0,0-0.1,0-0.1,0
	c0,0-0.1,0-0.1-0.1c0,0,0-0.1-0.1-0.1c0-0.1,0-0.1,0-0.2c0-0.1,0-0.2,0-0.3c0-0.1,0-0.1,0-0.2c0,0,0-0.1,0.1-0.1c0,0,0.1,0,0.1,0
	c0.2,0,0.3,0,0.4-0.1c0.1-0.1,0.3-0.2,0.4-0.3c0.1-0.2,0.2-0.4,0.4-0.7c0.1-0.3,0.2-0.7,0.3-1.2c0.1-0.5,0.2-1.1,0.3-1.8
	c0.1-0.7,0.2-1.5,0.3-2.5c0-0.2,0.1-0.3,0.1-0.4c0.1-0.1,0.2-0.1,0.3-0.1h3.6c0.1,0,0.2,0,0.3,0.1c0.1,0.1,0.1,0.2,0.1,0.3V86.4
	L122.3,86.4z M166.8,74.8c0,0,0,0.1-0.1,0.1c0,0-0.1,0-0.1,0.1c-0.1,0-0.1,0-0.3,0c-0.1,0-0.2,0-0.3,0c-0.1,0-0.1,0-0.1-0.1
	c0,0,0-0.1,0-0.1v-0.6c-0.2,0.3-0.5,0.5-0.8,0.6c-0.3,0.1-0.6,0.2-1,0.2c-0.3,0-0.6,0-0.8-0.1c-0.2-0.1-0.4-0.2-0.6-0.3
	c-0.2-0.1-0.3-0.3-0.4-0.5c-0.1-0.2-0.1-0.5-0.1-0.7c0-0.3,0.1-0.6,0.2-0.8c0.1-0.2,0.3-0.4,0.6-0.6c0.2-0.2,0.5-0.3,0.9-0.3
	c0.3-0.1,0.7-0.1,1.2-0.1h0.8V71c0-0.2,0-0.4-0.1-0.6c0-0.2-0.1-0.3-0.2-0.4c-0.1-0.1-0.2-0.2-0.4-0.3c-0.2-0.1-0.4-0.1-0.6-0.1
	c-0.3,0-0.5,0-0.7,0.1c-0.2,0.1-0.4,0.1-0.5,0.2c-0.2,0.1-0.3,0.1-0.4,0.2c-0.1,0.1-0.2,0.1-0.2,0.1c0,0-0.1,0-0.1,0
	c0,0,0,0-0.1-0.1c0,0,0-0.1,0-0.1c0-0.1,0-0.1,0-0.2c0-0.1,0-0.2,0-0.2c0-0.1,0-0.1,0.1-0.2c0.1-0.1,0.2-0.1,0.3-0.2
	c0.1-0.1,0.3-0.1,0.5-0.2c0.2-0.1,0.4-0.1,0.6-0.1c0.2,0,0.4-0.1,0.6-0.1c0.4,0,0.7,0,1,0.1c0.3,0.1,0.5,0.2,0.7,0.4
	c0.2,0.2,0.3,0.4,0.4,0.7c0.1,0.3,0.1,0.6,0.1,0.9V74.8L166.8,74.8z M165.7,72.2h-0.9c-0.3,0-0.5,0-0.7,0.1c-0.2,0-0.4,0.1-0.5,0.2
	c-0.1,0.1-0.2,0.2-0.3,0.3c-0.1,0.1-0.1,0.3-0.1,0.4c0,0.3,0.1,0.5,0.3,0.7c0.2,0.2,0.4,0.3,0.8,0.3c0.3,0,0.5-0.1,0.7-0.2
	c0.2-0.1,0.5-0.3,0.7-0.6V72.2L165.7,72.2z M162,69.5c0,0.1,0,0.2,0,0.2c0,0.1,0,0.1,0,0.1c0,0,0,0.1-0.1,0.1c0,0-0.1,0-0.1,0h-1.7
	v4.8c0,0,0,0.1,0,0.1c0,0,0,0-0.1,0.1c0,0-0.1,0-0.2,0c-0.1,0-0.2,0-0.3,0c-0.1,0-0.2,0-0.2,0c-0.1,0-0.1,0-0.2,0c0,0-0.1,0-0.1-0.1
	c0,0,0-0.1,0-0.1v-4.8h-1.7c0,0-0.1,0-0.1,0c0,0,0,0-0.1-0.1c0,0,0-0.1,0-0.1c0-0.1,0-0.1,0-0.2c0-0.1,0-0.1,0-0.2
	c0-0.1,0-0.1,0-0.1c0,0,0-0.1,0.1-0.1c0,0,0.1,0,0.1,0h4.4c0,0,0.1,0,0.1,0c0,0,0,0,0.1,0.1c0,0,0,0.1,0,0.1
	C162,69.3,162,69.4,162,69.5L162,69.5z M157.1,73.9c0,0.1,0,0.1,0,0.2c0,0.1,0,0.1,0,0.1c0,0,0,0.1,0,0.1c0,0,0,0.1-0.1,0.1
	c-0.1,0.1-0.1,0.1-0.3,0.2c-0.1,0.1-0.3,0.1-0.4,0.2c-0.2,0.1-0.3,0.1-0.5,0.1c-0.2,0-0.4,0.1-0.6,0.1c-0.4,0-0.8-0.1-1.1-0.2
	c-0.3-0.1-0.6-0.3-0.8-0.6c-0.2-0.3-0.4-0.6-0.5-0.9c-0.1-0.4-0.2-0.8-0.2-1.3c0-0.6,0.1-1,0.2-1.4c0.1-0.4,0.3-0.7,0.6-1
	c0.2-0.3,0.5-0.4,0.8-0.6c0.3-0.1,0.7-0.2,1-0.2c0.2,0,0.4,0,0.5,0.1c0.2,0,0.3,0.1,0.5,0.1c0.1,0.1,0.3,0.1,0.4,0.2
	c0.1,0.1,0.2,0.1,0.2,0.2c0.1,0,0.1,0.1,0.1,0.1c0,0,0,0.1,0,0.1c0,0,0,0.1,0,0.1c0,0,0,0.1,0,0.2c0,0.2,0,0.3-0.1,0.3
	c0,0.1-0.1,0.1-0.1,0.1c-0.1,0-0.1,0-0.2-0.1c-0.1-0.1-0.2-0.1-0.3-0.2c-0.1-0.1-0.3-0.2-0.4-0.2c-0.2-0.1-0.4-0.1-0.6-0.1
	c-0.5,0-0.9,0.2-1.1,0.6c-0.3,0.4-0.4,0.9-0.4,1.7c0,0.4,0,0.7,0.1,0.9c0.1,0.3,0.2,0.5,0.3,0.7c0.1,0.2,0.3,0.3,0.5,0.4
	c0.2,0.1,0.4,0.1,0.7,0.1c0.2,0,0.4,0,0.6-0.1c0.2-0.1,0.3-0.2,0.5-0.2c0.1-0.1,0.2-0.2,0.3-0.2c0.1-0.1,0.2-0.1,0.2-0.1
	c0,0,0.1,0,0.1,0c0,0,0,0,0.1,0.1c0,0,0,0.1,0,0.1C157.1,73.8,157.1,73.8,157.1,73.9L157.1,73.9z M151.6,74.8
	C151.6,74.8,151.6,74.8,151.6,74.8c0,0.1-0.1,0.1-0.1,0.1c0,0-0.1,0-0.2,0c-0.1,0-0.2,0-0.3,0c-0.1,0-0.2,0-0.2,0
	c-0.1,0-0.1,0-0.2,0c0,0-0.1,0-0.1-0.1c0,0,0-0.1,0-0.1v-5.6c0,0,0-0.1,0-0.1c0,0,0,0,0.1-0.1c0,0,0.1,0,0.2,0c0.1,0,0.2,0,0.2,0
	c0.1,0,0.2,0,0.3,0c0.1,0,0.1,0,0.2,0c0,0,0.1,0,0.1,0.1c0,0,0,0.1,0,0.1V74.8L151.6,74.8z M151.7,67.3c0,0.2,0,0.4-0.1,0.5
	c-0.1,0.1-0.3,0.1-0.5,0.1c-0.2,0-0.4,0-0.5-0.1c-0.1-0.1-0.1-0.2-0.1-0.5c0-0.2,0-0.4,0.1-0.5c0.1-0.1,0.3-0.1,0.5-0.1
	c0.2,0,0.4,0,0.5,0.1C151.7,66.9,151.7,67,151.7,67.3L151.7,67.3z M149.5,74.7c0,0.1,0,0.2-0.1,0.2c-0.1,0-0.2,0.1-0.4,0.1
	c-0.1,0-0.2,0-0.3,0c-0.1,0-0.1,0-0.2,0c0,0-0.1,0-0.1-0.1s0-0.1,0-0.1l-0.4-3.3c0-0.1,0-0.2,0-0.4c0-0.1,0-0.3,0-0.4
	c0-0.1,0-0.3,0-0.4c0-0.1,0-0.3,0-0.4l0-0.1c0,0.1-0.1,0.2-0.1,0.4c0,0.1-0.1,0.3-0.1,0.4c0,0.1-0.1,0.3-0.1,0.4
	c0,0.1-0.1,0.3-0.1,0.4l-1.2,3.3c0,0,0,0.1-0.1,0.1c0,0-0.1,0.1-0.1,0.1c0,0-0.1,0-0.1,0c-0.1,0-0.1,0-0.2,0c-0.1,0-0.2,0-0.2,0
	c-0.1,0-0.1,0-0.1,0c0,0-0.1,0-0.1-0.1c0,0,0-0.1-0.1-0.1l-1.1-3.3c0-0.1-0.1-0.2-0.1-0.4c0-0.1-0.1-0.3-0.1-0.4
	c0-0.1-0.1-0.3-0.1-0.4c0-0.1-0.1-0.3-0.1-0.4l0,0.1c0,0.1,0,0.2,0,0.4c0,0.1,0,0.3,0,0.4c0,0.1,0,0.3,0,0.4c0,0.1,0,0.3,0,0.4
	l-0.4,3.2c0,0.1,0,0.1,0,0.1c0,0,0,0.1-0.1,0.1c0,0-0.1,0-0.2,0c-0.1,0-0.2,0-0.3,0c-0.1,0-0.2,0-0.2,0c-0.1,0-0.1,0-0.1,0
	c0,0-0.1,0-0.1-0.1c0,0,0-0.1,0-0.1l0.6-5.3c0-0.1,0.1-0.2,0.1-0.3c0.1-0.1,0.2-0.1,0.3-0.1h0.5c0.1,0,0.2,0,0.3,0
	c0.1,0,0.2,0.1,0.2,0.1c0.1,0,0.1,0.1,0.2,0.2c0,0.1,0.1,0.2,0.1,0.3l0.8,2.4c0,0.1,0.1,0.3,0.1,0.4c0.1,0.1,0.1,0.3,0.1,0.4
	c0,0.1,0.1,0.3,0.1,0.4c0,0.1,0.1,0.3,0.1,0.4h0c0-0.1,0.1-0.3,0.1-0.4c0-0.1,0.1-0.3,0.1-0.4c0-0.1,0.1-0.3,0.1-0.4
	c0-0.1,0.1-0.3,0.1-0.4l0.8-2.4c0-0.1,0.1-0.2,0.1-0.3c0-0.1,0.1-0.1,0.1-0.2c0.1,0,0.1-0.1,0.2-0.1c0.1,0,0.2,0,0.3,0h0.5
	c0.1,0,0.3,0,0.3,0.1c0.1,0.1,0.1,0.2,0.1,0.3L149.5,74.7L149.5,74.7z M139,69.5c0,0.1,0,0.2,0,0.2c0,0.1,0,0.1,0,0.1
	c0,0,0,0.1-0.1,0.1c0,0-0.1,0-0.1,0h-1.7v4.8c0,0,0,0.1,0,0.1c0,0,0,0-0.1,0.1c0,0-0.1,0-0.2,0c-0.1,0-0.2,0-0.3,0
	c-0.1,0-0.2,0-0.2,0c-0.1,0-0.1,0-0.2,0c0,0-0.1,0-0.1-0.1c0,0,0-0.1,0-0.1v-4.8h-1.7c0,0-0.1,0-0.1,0c0,0,0,0-0.1-0.1
	c0,0,0-0.1,0-0.1c0-0.1,0-0.1,0-0.2c0-0.1,0-0.1,0-0.2c0-0.1,0-0.1,0-0.1c0,0,0-0.1,0.1-0.1c0,0,0.1,0,0.1,0h4.4c0,0,0.1,0,0.1,0
	c0,0,0,0,0.1,0.1c0,0,0,0.1,0,0.1C139,69.3,139,69.4,139,69.5L139,69.5z M133.6,74.8C133.6,74.8,133.6,74.8,133.6,74.8
	c0,0.1-0.1,0.1-0.1,0.1c0,0-0.1,0-0.2,0c-0.1,0-0.1,0-0.2,0c-0.1,0-0.2,0-0.2,0c-0.1,0-0.1,0-0.2,0c0,0-0.1,0-0.1-0.1
	c0,0,0-0.1,0-0.1v-3.2c0-0.2,0-0.3,0-0.5c0-0.2,0-0.3,0-0.5c-0.1,0.2-0.2,0.3-0.3,0.5c-0.1,0.2-0.2,0.3-0.3,0.5l-2.4,3.2
	c0,0-0.1,0.1-0.1,0.1c0,0-0.1,0-0.1,0.1c0,0-0.1,0-0.1,0c-0.1,0-0.1,0-0.2,0c-0.1,0-0.2,0-0.2,0c-0.1,0-0.1,0-0.1,0
	c0,0-0.1,0-0.1-0.1c0,0,0-0.1,0-0.1v-5.6c0,0,0-0.1,0-0.1c0,0,0,0,0.1-0.1c0,0,0.1,0,0.2,0c0.1,0,0.1,0,0.2,0c0.2,0,0.3,0,0.4,0
	c0.1,0,0.1,0.1,0.1,0.1v3.2c0,0.2,0,0.3,0,0.5c0,0.2,0,0.3,0,0.5c0.1-0.2,0.2-0.3,0.3-0.5c0.1-0.2,0.2-0.3,0.3-0.4l2.4-3.3
	c0,0,0.1-0.1,0.1-0.1c0,0,0.1,0,0.1-0.1c0,0,0.1,0,0.1,0c0.1,0,0.1,0,0.2,0c0.1,0,0.2,0,0.2,0c0.1,0,0.1,0,0.1,0c0,0,0.1,0,0.1,0.1
	c0,0,0,0.1,0,0.1V74.8L133.6,74.8z M133,66.5c0,0.2,0,0.5-0.1,0.7c-0.1,0.2-0.2,0.4-0.3,0.5c-0.2,0.2-0.3,0.3-0.6,0.4
	c-0.2,0.1-0.5,0.1-0.9,0.1c-0.3,0-0.6,0-0.8-0.1c-0.2-0.1-0.4-0.2-0.6-0.3c-0.2-0.1-0.3-0.3-0.4-0.5c-0.1-0.2-0.1-0.5-0.1-0.7
	c0,0,0-0.1,0-0.1c0,0,0-0.1,0.1-0.1c0,0,0.1,0,0.2,0c0.1,0,0.1,0,0.2,0c0.1,0,0.2,0,0.2,0c0.1,0,0.1,0,0.1,0c0,0,0.1,0,0.1,0.1
	c0,0,0,0.1,0,0.1c0,0.1,0,0.3,0.1,0.4c0,0.1,0.1,0.2,0.2,0.3c0.1,0.1,0.2,0.1,0.3,0.2c0.1,0,0.3,0.1,0.4,0.1c0.2,0,0.3,0,0.4-0.1
	c0.1,0,0.2-0.1,0.3-0.2c0.1-0.1,0.1-0.2,0.2-0.3c0-0.1,0.1-0.2,0.1-0.4c0,0,0-0.1,0-0.1c0,0,0-0.1,0.1-0.1c0,0,0.1,0,0.1,0
	c0.1,0,0.1,0,0.2,0c0.1,0,0.2,0,0.2,0c0.1,0,0.1,0,0.2,0c0,0,0.1,0,0.1,0.1C133,66.5,133,66.5,133,66.5L133,66.5z M127.1,74.8
	c0,0,0,0.1-0.1,0.1c0,0-0.1,0-0.1,0.1c-0.1,0-0.1,0-0.3,0c-0.1,0-0.2,0-0.3,0c-0.1,0-0.1,0-0.1-0.1c0,0,0-0.1,0-0.1v-0.6
	c-0.2,0.3-0.5,0.5-0.8,0.6c-0.3,0.1-0.6,0.2-1,0.2c-0.3,0-0.6,0-0.8-0.1c-0.2-0.1-0.4-0.2-0.6-0.3c-0.2-0.1-0.3-0.3-0.4-0.5
	c-0.1-0.2-0.1-0.5-0.1-0.7c0-0.3,0.1-0.6,0.2-0.8c0.1-0.2,0.3-0.4,0.6-0.6c0.2-0.2,0.5-0.3,0.9-0.3c0.3-0.1,0.7-0.1,1.2-0.1h0.8V71
	c0-0.2,0-0.4-0.1-0.6c0-0.2-0.1-0.3-0.2-0.4c-0.1-0.1-0.2-0.2-0.4-0.3c-0.2-0.1-0.4-0.1-0.6-0.1c-0.3,0-0.5,0-0.7,0.1
	c-0.2,0.1-0.4,0.1-0.5,0.2c-0.2,0.1-0.3,0.1-0.4,0.2c-0.1,0.1-0.2,0.1-0.2,0.1c0,0-0.1,0-0.1,0c0,0,0,0-0.1-0.1c0,0,0-0.1,0-0.1
	c0-0.1,0-0.1,0-0.2c0-0.1,0-0.2,0-0.2c0-0.1,0-0.1,0.1-0.2c0.1-0.1,0.2-0.1,0.3-0.2c0.1-0.1,0.3-0.1,0.5-0.2
	c0.2-0.1,0.4-0.1,0.6-0.1c0.2,0,0.4-0.1,0.6-0.1c0.4,0,0.7,0,1,0.1c0.3,0.1,0.5,0.2,0.7,0.4c0.2,0.2,0.3,0.4,0.4,0.7
	c0.1,0.3,0.1,0.6,0.1,0.9V74.8L127.1,74.8z M126.1,72.2h-0.9c-0.3,0-0.5,0-0.7,0.1c-0.2,0-0.4,0.1-0.5,0.2c-0.1,0.1-0.2,0.2-0.3,0.3
	c-0.1,0.1-0.1,0.3-0.1,0.4c0,0.3,0.1,0.5,0.3,0.7c0.2,0.2,0.4,0.3,0.8,0.3c0.3,0,0.5-0.1,0.7-0.2c0.2-0.1,0.5-0.3,0.7-0.6V72.2
	L126.1,72.2z M122.1,73.8c0,0.1,0,0.1,0,0.2c0,0,0,0.1,0,0.1c0,0,0,0.1,0,0.1c0,0,0,0.1-0.1,0.1c0,0-0.1,0.1-0.3,0.2
	c-0.1,0.1-0.3,0.2-0.5,0.3c-0.2,0.1-0.4,0.1-0.7,0.2c-0.3,0.1-0.5,0.1-0.8,0.1c-0.5,0-1-0.1-1.4-0.3c-0.4-0.2-0.8-0.4-1.1-0.8
	c-0.3-0.3-0.5-0.8-0.7-1.3c-0.2-0.5-0.2-1.1-0.2-1.7c0-0.7,0.1-1.3,0.3-1.8c0.2-0.5,0.4-1,0.7-1.3c0.3-0.4,0.7-0.6,1.1-0.8
	c0.4-0.2,0.9-0.3,1.4-0.3c0.2,0,0.5,0,0.7,0.1c0.2,0,0.4,0.1,0.6,0.2c0.2,0.1,0.4,0.1,0.5,0.2c0.1,0.1,0.2,0.2,0.3,0.2
	c0.1,0.1,0.1,0.1,0.1,0.1c0,0,0,0.1,0,0.1c0,0,0,0.1,0,0.1c0,0.1,0,0.1,0,0.2c0,0.1,0,0.2,0,0.2c0,0.1,0,0.1,0,0.1
	c0,0,0,0.1-0.1,0.1c0,0-0.1,0-0.1,0c-0.1,0-0.1,0-0.2-0.1c-0.1-0.1-0.2-0.2-0.4-0.3c-0.2-0.1-0.4-0.2-0.6-0.3
	c-0.2-0.1-0.5-0.1-0.8-0.1c-0.4,0-0.7,0.1-1,0.2c-0.3,0.1-0.5,0.4-0.7,0.6c-0.2,0.3-0.4,0.6-0.5,1c-0.1,0.4-0.2,0.9-0.2,1.4
	c0,0.5,0.1,1,0.2,1.4c0.1,0.4,0.3,0.7,0.5,1c0.2,0.3,0.5,0.5,0.8,0.6c0.3,0.1,0.6,0.2,1,0.2c0.3,0,0.6,0,0.8-0.1
	c0.2-0.1,0.4-0.2,0.6-0.3c0.2-0.1,0.3-0.2,0.4-0.3c0.1-0.1,0.2-0.1,0.3-0.1c0,0,0.1,0,0.1,0c0,0,0,0,0.1,0.1c0,0,0,0.1,0,0.1
	C122.1,73.6,122.1,73.7,122.1,73.8L122.1,73.8z M157.6,59.1c-1.5,1.2-3,2.1-4.4,2.6c-1.4,0.6-3,0.9-4.8,0.9c-1.6,0-3-0.3-4.2-1
	c-1.2-0.6-2.2-1.5-2.8-2.6c-0.7-1.1-1-2.3-1-3.5c0-1.7,0.5-3.2,1.6-4.4c1.1-1.2,2.6-2,4.5-2.4c0.4-0.1,1.4-0.3,3-0.6
	c1.6-0.3,2.9-0.6,4.1-0.9c1.1-0.3,2.3-0.6,3.7-1c-0.1-1.7-0.4-2.9-1-3.6c-0.6-0.8-1.8-1.2-3.7-1.2c-1.6,0-2.8,0.2-3.6,0.7
	c-0.8,0.4-1.5,1.1-2.1,2c-0.6,0.9-1,1.5-1.2,1.8c-0.2,0.3-0.8,0.4-1.5,0.4c-0.7,0-1.3-0.2-1.8-0.7c-0.5-0.5-0.8-1-0.8-1.7
	c0-1.1,0.4-2.2,1.2-3.2c0.8-1,2-1.9,3.7-2.6c1.7-0.7,3.7-1,6.2-1c2.8,0,4.9,0.3,6.5,1c1.6,0.6,2.7,1.7,3.3,3.1c0.6,1.4,1,3.3,1,5.6
	c0,1.5,0,2.7,0,3.7c0,1,0,2.2,0,3.4c0,1.2,0.2,2.4,0.6,3.7c0.4,1.3,0.6,2.1,0.6,2.5c0,0.6-0.3,1.2-0.9,1.8c-0.6,0.5-1.3,0.8-2.1,0.8
	c-0.6,0-1.3-0.3-1.9-0.9C159,61.1,158.3,60.3,157.6,59.1L157.6,59.1z M157.2,50.1c-0.9,0.3-2.3,0.7-4,1.1c-1.8,0.4-3,0.7-3.6,0.8
	c-0.7,0.2-1.3,0.5-1.9,1c-0.6,0.5-0.9,1.2-0.9,2.1c0,1,0.4,1.8,1.1,2.4c0.7,0.7,1.7,1,2.8,1c1.2,0,2.4-0.3,3.4-0.8
	c1-0.5,1.8-1.2,2.3-2.1c0.6-1,0.8-2.5,0.8-4.7V50.1z"/>
</svg>
