<?xml version="1.0" encoding="utf-8"?>
<!-- Generator: Adobe Illustrator 22.0.1, SVG Export Plug-In . SVG Version: 6.00 Build 0)  -->
<svg version="1.1" id="Layer_1" xmlns="http://www.w3.org/2000/svg" xmlns:xlink="http://www.w3.org/1999/xlink" x="0px" y="0px"
	 viewBox="0 0 151.8 73.8" style="enable-background:new 0 0 151.8 73.8;" xml:space="preserve">
<style type="text/css">
	.st0{fill:#5F9547;}
	.st1{fill:#FFFFFF;}
</style>
<g>
	<rect x="5.1" y="5.4" class="st0" width="138.3" height="59.2"/>
	<path class="st1" d="M52,38.9c1,0,1.8-0.3,2.4-0.8c0.5-0.5,0.8-1.1,0.8-1.8c0-0.6-0.2-1.2-0.7-1.6c-0.6-0.5-1.4-0.8-2.5-0.8h-2.7v7
		h2v-2H52z"/>
	<path class="st1" d="M57.8,39.9c0.9,0.8,2,1.1,3.3,1.1c1.3,0,2.4-0.4,3.2-1.1c0.8-0.7,1.2-1.5,1.2-2.5s-0.4-1.8-1.3-2.5
		c-0.9-0.7-1.9-1.1-3.2-1.1c-1.3,0-2.4,0.4-3.3,1.1c-0.8,0.7-1.3,1.6-1.3,2.5C56.6,38.3,57,39.2,57.8,39.9z"/>
	<path class="st1" d="M40,39.9c0.9,0.8,2,1.1,3.3,1.1c1.3,0,2.4-0.4,3.2-1.1c0.8-0.7,1.2-1.5,1.2-2.5s-0.4-1.8-1.3-2.5
		c-0.9-0.7-1.9-1.1-3.2-1.1c-1.3,0-2.4,0.4-3.3,1.1c-0.8,0.7-1.3,1.6-1.3,2.5C38.8,38.3,39.2,39.2,40,39.9z"/>
	<path class="st1" d="M119.5,45.2c0.1-0.2,0.1-0.4,0.2-0.6c0,0.2,0.1,0.4,0.2,0.6l0.3,0.8h-1L119.5,45.2z M118.7,47.3l0.3-0.9h1.3
		l0.3,0.9h0.5l-1.2-3h-0.4l-1.2,3H118.7z M112.7,46h0.7c0.2,0,0.3,0,0.4,0.1c0.1,0,0.2,0.1,0.2,0.2c0.1,0.1,0.1,0.2,0.1,0.3
		c0,0.1,0,0.2-0.1,0.3c0,0.1-0.1,0.1-0.2,0.2c-0.1,0-0.1,0.1-0.2,0.1c0,0-0.1,0-0.3,0h-0.7V46z M112.7,44.7h0.6c0.2,0,0.4,0,0.5,0
		c0.1,0,0.2,0.1,0.2,0.2c0,0.1,0.1,0.2,0.1,0.3c0,0.1,0,0.2-0.1,0.3c-0.1,0.1-0.1,0.1-0.2,0.1c-0.1,0-0.2,0-0.4,0h-0.7V44.7z
		 M113.5,47.3c0.2,0,0.4,0,0.5,0c0.1,0,0.2-0.1,0.3-0.1c0.1-0.1,0.2-0.2,0.2-0.3c0.1-0.1,0.1-0.3,0.1-0.4c0-0.2,0-0.3-0.1-0.5
		c-0.1-0.1-0.2-0.2-0.4-0.3c0.1-0.1,0.2-0.2,0.3-0.3c0.1-0.1,0.1-0.2,0.1-0.4c0-0.1,0-0.3-0.1-0.4c-0.1-0.1-0.2-0.2-0.3-0.3
		c-0.1-0.1-0.3-0.1-0.6-0.1h-1.1v3H113.5z M106.1,44.9c0.2-0.2,0.4-0.3,0.7-0.3c0.2,0,0.4,0,0.5,0.2c0.2,0.1,0.3,0.2,0.4,0.4
		c0.1,0.2,0.1,0.4,0.1,0.6c0,0.4-0.1,0.7-0.3,0.9c-0.2,0.2-0.4,0.3-0.7,0.3c-0.3,0-0.5-0.1-0.7-0.3c-0.2-0.2-0.3-0.5-0.3-0.9
		C105.8,45.4,105.9,45.1,106.1,44.9z M105.5,46.6c0.1,0.2,0.3,0.4,0.5,0.6c0.2,0.1,0.5,0.2,0.8,0.2c0.3,0,0.5-0.1,0.7-0.2
		c0.2-0.1,0.4-0.3,0.5-0.5c0.1-0.2,0.2-0.5,0.2-0.8c0-0.3-0.1-0.6-0.2-0.8c-0.1-0.2-0.3-0.4-0.5-0.6c-0.2-0.1-0.5-0.2-0.7-0.2
		c-0.4,0-0.8,0.1-1,0.4c-0.3,0.3-0.4,0.7-0.4,1.2C105.3,46.1,105.4,46.4,105.5,46.6z M99.6,46h0.7c0.2,0,0.3,0,0.4,0.1
		c0.1,0,0.2,0.1,0.2,0.2c0.1,0.1,0.1,0.2,0.1,0.3c0,0.1,0,0.2-0.1,0.3c0,0.1-0.1,0.1-0.2,0.2c-0.1,0-0.1,0.1-0.2,0.1
		c-0.1,0-0.1,0-0.3,0h-0.7V46z M99.6,44.7h0.6c0.2,0,0.4,0,0.5,0c0.1,0,0.2,0.1,0.2,0.2c0,0.1,0.1,0.2,0.1,0.3c0,0.1,0,0.2-0.1,0.3
		c-0.1,0.1-0.1,0.1-0.2,0.1c-0.1,0-0.2,0-0.4,0h-0.6V44.7z M100.3,47.3c0.2,0,0.4,0,0.5,0c0.1,0,0.2-0.1,0.3-0.1
		c0.1-0.1,0.2-0.2,0.2-0.3c0.1-0.1,0.1-0.3,0.1-0.4c0-0.2,0-0.3-0.1-0.5c-0.1-0.1-0.2-0.2-0.4-0.3c0.1-0.1,0.2-0.2,0.3-0.3
		c0.1-0.1,0.1-0.2,0.1-0.4c0-0.1,0-0.3-0.1-0.4c-0.1-0.1-0.2-0.2-0.3-0.3c-0.1-0.1-0.3-0.1-0.5-0.1h-1.1v3H100.3z M93.2,46h0.5
		c0.3,0,0.4,0,0.5,0c0.1,0,0.2,0.1,0.3,0.2c0.1,0.1,0.1,0.2,0.1,0.3c0,0.1,0,0.3-0.1,0.4C94.4,47,94.2,47,93.9,47h-0.7V46z
		 M92.8,47.3h1.1c0.4,0,0.7-0.1,0.9-0.3c0.2-0.2,0.2-0.4,0.2-0.6c0-0.1,0-0.3-0.1-0.4c-0.1-0.1-0.2-0.2-0.3-0.3
		c-0.2-0.1-0.4-0.1-0.7-0.1h-0.7v-1.3h-0.4V47.3z M86.6,46.5c0,0.3,0,0.4-0.1,0.5c0,0.1-0.1,0.1-0.2,0.1c0,0-0.1,0-0.2,0l-0.1,0.4
		c0.1,0,0.2,0,0.3,0c0.1,0,0.3,0,0.4-0.1c0.1-0.1,0.2-0.2,0.2-0.3c0-0.1,0-0.4,0-0.7v-1.5h1.1v2.6h0.4v-3h-1.9V46.5z M77.3,47.3v-3
		h-0.4v3H77.3z M71.6,47.4c0.3,0,0.6-0.1,0.8-0.3c0.2-0.2,0.3-0.4,0.3-0.6c0-0.2-0.1-0.3-0.2-0.5c-0.1-0.1-0.2-0.2-0.4-0.3
		c0.3-0.2,0.4-0.4,0.4-0.7c0-0.2-0.1-0.4-0.3-0.6c-0.2-0.2-0.4-0.2-0.7-0.2c-0.6,0-1,0.3-1.1,1l0.4,0.1c0-0.1,0-0.2,0.1-0.3
		c0-0.1,0.1-0.2,0.2-0.3c0.1-0.1,0.2-0.1,0.4-0.1c0.2,0,0.3,0,0.4,0.1c0.1,0.1,0.2,0.2,0.2,0.3c0,0.1,0,0.2-0.1,0.3
		c-0.1,0.1-0.2,0.1-0.3,0.2c-0.1,0-0.2,0-0.4,0V46h0.2c0.2,0,0.4,0,0.5,0.1c0.1,0.1,0.2,0.2,0.2,0.4c0,0.2-0.1,0.3-0.2,0.4
		c-0.1,0.1-0.3,0.2-0.5,0.2c-0.2,0-0.4-0.1-0.5-0.2c-0.1-0.1-0.2-0.3-0.2-0.4l-0.4,0.1C70.6,47.1,71,47.4,71.6,47.4z M59.2,47.3h0.4
		l1.6-2.4v2.4h0.4v-3h-0.4l-1.6,2.4v-2.4h-0.4V47.3z M52.9,47.3v-1.4h1.6v1.4h0.4v-3h-0.4v1.2h-1.6v-1.2h-0.4v3H52.9z M45.9,47.3
		h0.4l1.6-2.4v2.4h0.4v-3h-0.4l-1.6,2.4v-2.4h-0.4V47.3z M39.8,46h0.7c0.2,0,0.3,0,0.4,0.1c0.1,0,0.2,0.1,0.2,0.2
		c0.1,0.1,0.1,0.2,0.1,0.3c0,0.1,0,0.2-0.1,0.3c0,0.1-0.1,0.1-0.2,0.2c-0.1,0-0.1,0.1-0.2,0.1c-0.1,0-0.1,0-0.3,0h-0.7V46z
		 M39.8,44.7h0.6c0.2,0,0.4,0,0.5,0c0.1,0,0.2,0.1,0.2,0.2c0,0.1,0.1,0.2,0.1,0.3c0,0.1,0,0.2-0.1,0.3c-0.1,0.1-0.1,0.1-0.2,0.1
		c-0.1,0-0.2,0-0.4,0h-0.6V44.7z M40.6,47.3c0.2,0,0.4,0,0.5,0c0.1,0,0.2-0.1,0.3-0.1c0.1-0.1,0.2-0.2,0.2-0.3
		c0.1-0.1,0.1-0.3,0.1-0.4c0-0.2,0-0.3-0.1-0.5c-0.1-0.1-0.2-0.2-0.4-0.3c0.1-0.1,0.2-0.2,0.3-0.3c0.1-0.1,0.1-0.2,0.1-0.4
		c0-0.1,0-0.3-0.1-0.4c-0.1-0.1-0.2-0.2-0.3-0.3c-0.1-0.1-0.3-0.1-0.5-0.1h-1.1v3H40.6z M33.1,44.9c0.2-0.2,0.4-0.3,0.7-0.3
		c0.2,0,0.4,0,0.5,0.2c0.2,0.1,0.3,0.2,0.4,0.4c0.1,0.2,0.1,0.4,0.1,0.6c0,0.4-0.1,0.7-0.3,0.9c-0.2,0.2-0.4,0.3-0.7,0.3
		c-0.3,0-0.5-0.1-0.7-0.3c-0.2-0.2-0.3-0.5-0.3-0.9C32.8,45.4,32.9,45.1,33.1,44.9z M32.6,46.6c0.1,0.2,0.3,0.4,0.5,0.6
		c0.2,0.1,0.5,0.2,0.8,0.2c0.3,0,0.5-0.1,0.7-0.2c0.2-0.1,0.4-0.3,0.5-0.5c0.1-0.2,0.2-0.5,0.2-0.8c0-0.3-0.1-0.6-0.2-0.8
		c-0.1-0.2-0.3-0.4-0.5-0.6c-0.2-0.1-0.5-0.2-0.7-0.2c-0.4,0-0.8,0.1-1,0.4c-0.3,0.3-0.4,0.7-0.4,1.2C32.4,46.1,32.5,46.4,32.6,46.6
		z M26.3,47.3v-1.4h1.6v1.4h0.4v-3h-0.4v1.2h-1.6v-1.2h-0.4v3H26.3z"/>
	<path class="st1" d="M118.2,40.9c0.4,0,0.7,0.1,1.1,0.1c1.1,0,1.9-0.2,2.5-0.7c0.4-0.3,0.6-0.8,0.6-1.3c0-0.5-0.2-0.9-0.6-1.3
		c-0.3-0.3-0.7-0.5-1.2-0.8c-0.4-0.2-0.7-0.4-0.9-0.5c-0.4-0.3-0.5-0.5-0.5-0.7c0-0.2,0.1-0.3,0.3-0.4c0.2-0.1,0.4-0.1,0.7-0.1
		c0.3,0,0.6,0,0.9,0.1c0.3,0.1,0.7,0.2,1,0.3v-1.5c-0.3-0.1-0.6-0.2-0.9-0.2c-0.3,0-0.6-0.1-0.9-0.1c-1,0-1.8,0.2-2.4,0.5
		c-0.5,0.3-0.8,0.8-0.8,1.4c0,0.5,0.1,0.9,0.4,1.2c0.2,0.3,0.6,0.6,1.3,1c0.8,0.5,1.2,0.7,1.2,0.8c0.2,0.2,0.3,0.3,0.3,0.5
		c0,0.2-0.1,0.3-0.4,0.4c-0.1,0.1-0.3,0.1-0.5,0.1c-0.4,0-0.8,0-1.1-0.1c-0.4-0.1-0.8-0.2-1.3-0.3v1.5
		C117.5,40.8,117.9,40.9,118.2,40.9z"/>
	<polygon class="st1" points="111.6,41 111.8,41 115.8,33.9 113.7,33.9 111.7,37.6 109.8,33.7 109.6,33.7 107.7,37.6 105.6,33.9 
		103.6,33.9 107.6,41 107.8,41 109.7,37.2 	"/>
	<polygon class="st1" points="99,36.7 99,35.3 102.2,35.3 102.2,33.9 96.9,33.9 96.9,40.9 102.2,40.9 102.2,39.5 99,39.5 99,38 
		102.2,38 102.2,36.7 	"/>
	<polygon class="st1" points="88.5,33.7 88.3,33.7 88.3,40.9 90,40.9 90,37.4 94.9,41 95,41 95,33.9 93.4,33.9 93.4,37.3 	"/>
	<rect x="84.5" y="39.4" class="st1" width="1.8" height="1.5"/>
	<path class="st1" d="M78.7,40.9c0.4,0,0.7,0.1,1.1,0.1c1.1,0,1.9-0.2,2.5-0.7c0.4-0.3,0.6-0.8,0.6-1.3c0-0.5-0.2-0.9-0.6-1.3
		c-0.3-0.3-0.7-0.5-1.2-0.8c-0.4-0.2-0.7-0.4-0.9-0.5c-0.4-0.3-0.5-0.5-0.5-0.7c0-0.2,0.1-0.3,0.3-0.4c0.2-0.1,0.4-0.1,0.7-0.1
		c0.3,0,0.6,0,0.9,0.1c0.3,0.1,0.7,0.2,1,0.3v-1.5c-0.3-0.1-0.6-0.2-0.9-0.2c-0.3,0-0.6-0.1-0.9-0.1c-1,0-1.8,0.2-2.4,0.5
		c-0.5,0.3-0.8,0.8-0.8,1.4c0,0.5,0.1,0.9,0.4,1.2c0.2,0.3,0.6,0.6,1.3,1c0.8,0.5,1.2,0.7,1.2,0.8c0.2,0.2,0.3,0.3,0.3,0.5
		c0,0.2-0.1,0.3-0.4,0.4c-0.1,0.1-0.3,0.1-0.5,0.1c-0.4,0-0.8,0-1.1-0.1c-0.4-0.1-0.8-0.2-1.3-0.3v1.5
		C77.9,40.8,78.3,40.9,78.7,40.9z"/>
	<rect x="74" y="33.9" class="st1" width="2" height="7"/>
	<polygon class="st1" points="72.3,39.5 69.1,39.5 69.1,33.9 67.1,33.9 67.1,40.9 72.3,40.9 	"/>
	<path class="st0" d="M59.3,35.8c0.5-0.4,1-0.7,1.8-0.7c0.7,0,1.3,0.2,1.8,0.7c0.5,0.4,0.7,1,0.7,1.6c0,0.6-0.2,1.2-0.7,1.6
		c-0.5,0.4-1,0.6-1.8,0.6c-0.7,0-1.3-0.2-1.8-0.6c-0.5-0.4-0.7-1-0.7-1.6C58.6,36.8,58.8,36.2,59.3,35.8z"/>
	<path class="st0" d="M51.4,35.3h0.5c0.4,0,0.7,0.1,0.9,0.2c0.3,0.2,0.4,0.5,0.4,0.9c0,0.5-0.2,0.8-0.5,1c-0.2,0.1-0.4,0.1-0.8,0.1
		h-0.5V35.3z"/>
	<path class="st0" d="M41.6,35.8c0.5-0.4,1.1-0.7,1.8-0.7c0.7,0,1.3,0.2,1.8,0.7c0.5,0.4,0.7,1,0.7,1.6c0,0.6-0.2,1.2-0.7,1.6
		c-0.4,0.4-1,0.6-1.8,0.6c-0.7,0-1.3-0.2-1.8-0.6c-0.5-0.4-0.7-1-0.7-1.6C40.9,36.8,41.1,36.2,41.6,35.8z"/>
	<polygon class="st1" points="34.1,36.7 34.1,35.3 37.3,35.3 37.3,33.9 32.1,33.9 32.1,40.9 37.3,40.9 37.3,39.5 34.1,39.5 34.1,38 
		37.3,38 37.3,36.7 	"/>
	<polygon class="st1" points="30.4,39.5 27.2,39.5 27.2,33.9 25.2,33.9 25.2,40.9 30.4,40.9 	"/>
	<path class="st1" d="M122,30.1h-0.2V30l-0.9-1.1l-0.6-1v-1.4l-1.9-2.2l-1.2,0v-0.9c0,0-0.2-0.9-0.5-1.1c-0.5-0.3-0.5-0.8-0.5-0.8
		l-0.1-0.7c0,0,0-0.4-0.2-0.4v-0.5h0.5v-0.1h-0.5v-0.5h-0.1v0.5h-0.5v0.1h0.5v0.5c-0.2,0.1-0.3,0.5-0.3,0.5s0,0.3,0,0.9
		c0,0.4-0.7,0.5-0.9,1.2c-0.2,0.6,0,0.7,0,0.7l-0.1,0.6l-0.8,0l-0.3-0.3l-0.5,0c0,0,0.1-0.3,0.1-0.8c0-0.5-0.5-0.8-0.7-1
		c-0.1-0.2-0.1-0.7-0.1-1.1c0-0.2-0.2-0.5-0.2-0.5l0,0v-0.8h0.5v-0.1h-0.5v-0.5h-0.1v0.5h-0.5v0.1h0.5v0.8l0,0l-0.3,0.5v1.1
		c0,0.3-0.8,0.6-0.8,1.2c0,0.6,0.3,0.9,0.3,0.9l0,1.6l-0.6,0l0.2,0.9v2.9h-1v-0.9v-2.1l0.3-0.3l-0.3-0.5l0.2-0.9l-0.2-0.4l-0.5,0.4
		c0,0-0.3-0.2-0.5-0.6c-0.2-0.4-0.3-1.9-0.3-1.9l0.3-0.4l-0.3,0.1l0-0.3l0.3-0.3l-0.5-0.5v-1.2c0,0-0.1-0.6-0.3-0.9
		c-0.1-0.3-0.2-0.5-0.3-0.6v-1.2l0.5,0v-0.1h-0.5v-0.6h-0.1v0.6h-0.5v0.1h0.5v1.1c0,0.1-0.1,0.2-0.1,0.4c-0.1,0.3-0.4,1.1-0.4,1.1
		v1.2l-0.6,0.6l0.3,0.2v0.4l-0.3,0l0.5,0.4c0,0,0,0.6-0.2,1.3c-0.2,0.6-0.5,1.2-0.5,1.2l-0.3,0.2l-0.2-0.4l-0.4,0.3v0.5
		c0,0,0.1,0.5-0.2,0.8c-0.3,0.3,0.1,0.5,0.1,0.5l-0.2,2l-4.3-0.1l-0.4,0.7l-0.1-0.6L99.6,28l-0.5-0.3L99,27l-0.3-0.3v-0.6h0.4V26
		h-0.4v-0.5h-0.1V26h-0.4v0.1h0.4v0.5l0,0L98.1,27c0,0-0.2,0.2-0.2,0.6c0,0.4-0.5,0.5-0.6,0.7c-0.1,0.3-0.1,0.7-0.1,0.7L96.8,29
		v-1.5l0.3-0.4L96.6,27l0-2.1l0.3-0.4l-0.6,0v-1.4l0-0.7l0-1.8l-0.2,0l-0.2,1.1l-0.4,0l-0.1-0.6v-0.8l0-0.3c0,0,0.2-0.2,0.2-0.4
		c0-0.3-0.4-0.5-0.4-0.5l-0.2-1h0v-1h0.5v-0.1h-0.5v-0.6h-0.1v0.6h-0.5v0.1h0.5v1h-0.1l-0.1,0.6l0,0.4c0,0-0.3,0.1-0.4,0.4
		c-0.1,0.3,0.2,0.5,0.2,0.5l0,1c0,0-0.1,0.4-0.3,0.7c0,0-0.3,0.1-0.3,0.1l-0.2-1.3h-0.3V22v0.7l0,1.8l-0.7,0l0.2,0.5l0,2.1l-0.5,0.2
		l0.6,0.3l0,1.5l-1.6,0l-0.1-1.2l-4.6-0.4l0-4.1l0.6,0l0-0.6l-0.6,0L86.5,19l0.5-0.4v-0.7l-1.6,0l0-0.4l-0.4,0l0-1.5
		c0,0,0.4-0.2,0.8-0.1c0.3,0.1,0.8,0.3,0.8,0.3l0.1-1.5c0,0-0.1-0.5-0.4-0.5c-0.3,0-0.9,0.1-0.9,0.1s-0.5-0.4-0.6-0.4l0,3.6l-0.4,0
		V18h-1.9l0.1,0.6l0.5,0.3l0,4.1h-0.6l0,0.6h0.6l0,4L78.5,28l0,2h-1l0-0.2l-0.6-1.2h-1.2l0-1.9l0.5-0.7l-0.5,0c0,0,0-1.1-0.4-1.8
		c-0.5-0.9-1.9-1.6-1.9-1.6l-0.1-1.4L73,20.6c0,0-0.1-0.1-0.2-0.1v-1h0.5v-0.1h-0.5v-0.6h-0.1v0.6h-0.5v0.1h0.5v1c0,0-0.1,0-0.1,0.1
		c-0.2,0.2-0.4,0.8-0.4,0.8v1.5c0,0-0.9,0.3-1.5,0.9c-0.5,0.6-0.9,2-0.9,2l-0.1,0.4l-0.6,0l0.6,0.5l0,2.3H69l-0.1-2.2
		c0,0-0.1-0.3-0.1-0.7c0-0.2-0.5-0.8-0.8-1.1c0,0,0-0.1,0-0.1c0-0.3-0.1-0.6-0.3-0.6v-0.9h0.5v-0.1h-0.5v-0.6h-0.1v0.6H67v0.1h0.5
		v0.9c-0.2,0.1-0.3,0.3-0.3,0.6c0,0.1,0,0.1,0,0.2c-0.2,0.3-0.5,0.6-0.6,0.9c-0.2,0.5-0.1,0.9-0.1,0.9l0,2.4l-1.3,0V28L65,27.6
		l-0.2-1c0,0,0.1-0.8-0.1-1.2c-0.2-0.4-0.7-0.7-0.7-0.7L64,23.9l-0.3-0.2v-0.8H64v-0.1h-0.3v-0.4h-0.1v0.4h-0.3v0.1h0.3v0.8
		l-0.3,0.2l0,0.9c0,0-0.3,0.1-0.4,0.3c-0.1,0.1-0.3,0.4-0.3,0.4l-0.5-0.4l0-0.9l-0.3-0.3v-0.7h0.3v-0.1h-0.3v-0.4h-0.1v0.4h-0.3v0.1
		h0.3v0.6l-0.1,0.1l-0.3,0.3l0,1c0,0-0.4,0.4-0.6,0.8c-0.2,0.4-0.2,1.2-0.2,1.2l0.1,0.8l-0.7,0.7V29l-3.1,0v-1.6l0.3-0.8
		c0,0-0.1-0.7-0.3-1.3c-0.2-0.6-1.3-1.6-1.3-1.6l0-1.1L55.1,22l0,0c0-0.1-0.1-0.2-0.1-0.2v-0.9h0.5v-0.1H55v-0.6h-0.1v0.6h-0.5v0.1
		h0.5v0.9c-0.1,0-0.1,0.1-0.1,0.2v0l-0.1,0l-0.2,0.5v0.6v0.5c0,0-1,0.6-1.3,1.4c-0.3,0.8-0.5,1.6-0.5,1.6l0.3,0.8v1.4l-5.2,0
		l-0.1,0.1l0.5-0.6l-0.6,0l0-1l-0.4,0l0-1.2l-0.1-2l-0.2-0.2l-0.2,0.2l-0.1,2.3l-1.3,0l0-0.6L44.8,25h-0.3v-0.9l0.2-0.2l-0.3-0.4
		l-0.2-0.4l0-0.4c0,0,0.1-0.1,0.1-0.3c0-0.2,0.1-0.3,0.1-0.3v-0.4l-0.4-0.1l0-0.5l0-0.3c0,0-0.3,0.4-0.4,0.6
		c-0.1,0.3-0.1,0.3-0.1,0.3l-0.1-0.2l-0.3-0.9L43,20.9v0.5v0.5c0,0.2,0.1,0.2,0.3,0.3c0.2,0.1-0.2,0.4-0.2,0.4l0.1,0.7l-0.5,0.5l0,1
		l-5.1-2.3l0-0.3L37.3,22v-1l0.1-0.5l0.3-0.3l0-0.6l-0.5-0.3l-0.7,0l-0.6,0.1l-0.2,0.4l0.2,0.2l0.1,0.5l0.4,0.4v0.5v0.7l-0.3,0.2
		l0,0.4l-5.6,2.2V24l0.1-0.4l-0.2-0.1v-0.8v-0.5v-0.6c0-0.2,0.3-0.6,0.3-0.6l-0.4,0.2c0,0,0,0.3-0.3,0.4c-0.3,0.2-0.1,0.2-0.3,0.2
		c-0.2,0-0.3-0.3-0.3-0.3l-0.3-0.4v0.4c0,0.2,0.1,0.4,0.1,0.4l0,0.7v0.7L29,23.6v1.6l-0.5,0.5l0,0.7l-1.5,0L27,24.2l-0.2-0.3
		l-0.2,0.3l-0.1,2.1l0,1.2h-0.3v1.1l-0.7,0l0.7,0.7l0,0.8h-0.8v1.3H26h19.8h1.9h20.2h0.4h18.7h34.9h0.2V30.1z"/>
</g>
</svg>
