<?xml version="1.0" encoding="utf-8"?>
<!-- Generator: Adobe Illustrator 22.0.1, SVG Export Plug-In . SVG Version: 6.00 Build 0)  -->
<svg version="1.1" id="Layer_1" xmlns="http://www.w3.org/2000/svg" xmlns:xlink="http://www.w3.org/1999/xlink" x="0px" y="0px"
	 viewBox="0 0 226.8 118.8" style="enable-background:new 0 0 226.8 118.8;" xml:space="preserve">
<style type="text/css">
	.st0{fill:#CE4236;}
</style>
<g>
	<path class="st0" d="M91.6,80.9c0-1.5,1.2-2.7,2.8-2.7c1.1,0,1.7,0.5,2.2,1.1l-1.1,0.8c-0.3-0.4-0.7-0.6-1.2-0.6
		c-0.7,0-1.2,0.6-1.2,1.4c0,0.8,0.5,1.4,1.2,1.4c0.5,0,0.9-0.3,1.2-0.6l1.1,0.8c-0.5,0.7-1.2,1.2-2.3,1.2
		C92.8,83.7,91.6,82.5,91.6,80.9z"/>
	<path class="st0" d="M99.5,78.3h1.5v5.2h-1.5V78.3z"/>
	<path class="st0" d="M104.2,78.3h1.4l2.2,2.8v-2.8h1.4v5.2h-1.3l-2.2-2.9v2.9h-1.4V78.3z"/>
	<path class="st0" d="M112.3,78.3h4.2v1.2h-2.8v0.8h2.5v1.1h-2.5v0.8h2.8v1.2h-4.2V78.3z"/>
	<path class="st0" d="M119.5,78.3h1.5l1.2,2l1.2-2h1.5v5.2h-1.4v-3l-1.3,2h0l-1.3-2v3h-1.4V78.3z"/>
	<path class="st0" d="M130.1,78.3h1.4l2.2,5.3h-1.6l-0.4-0.9h-2l-0.4,0.9h-1.5L130.1,78.3z M131.3,81.5l-0.6-1.5l-0.6,1.5H131.3z"/>
</g>
<path class="st0" d="M207.4,28.3v63h-189v-63H207.4 M211.6,24.2h-4.1h-189h-4.1v4.1v63v4.1h4.1h189h4.1v-4.1v-63V24.2L211.6,24.2z"
	/>
<g>
	<path class="st0" d="M54.3,70.3V58.1l-4,8h-2.8l-4-8v12.3h-4.1v-21h4l5.5,11.4l5.5-11.4h4v21H54.3z"/>
	<path class="st0" d="M70.3,70.5c-4.3,0-7.7-2.9-7.7-7.4V49.3h4.1V63c0,2.4,1.4,3.9,3.6,3.9c2.2,0,3.7-1.4,3.7-3.9V49.3h4.1v13.8
		C78.1,67.6,74.6,70.5,70.3,70.5z"/>
	<path class="st0" d="M82.2,70.3v-21h4.1v17.4H95v3.7H82.2z"/>
	<path class="st0" d="M103,52.9v17.4h-4.1V52.9h-5.5v-3.7h15.1v3.7H103z"/>
	<path class="st0" d="M111.3,70.3v-21h4.1v21H111.3z"/>
	<path class="st0" d="M128.4,62.4h-4v7.9h-4.1v-21h8.2c4.3,0,6.9,3,6.9,6.6C135.3,59.4,132.7,62.4,128.4,62.4z M128.2,52.9h-3.8v5.8
		h3.8c1.9,0,3-1.2,3-2.9C131.2,54.1,130,52.9,128.2,52.9z"/>
	<path class="st0" d="M137.4,70.3v-21h4.1v17.4h8.7v3.7H137.4z"/>
	<path class="st0" d="M153.1,70.3v-21H167v3.7h-9.8v4.9h8.3v3.7h-8.3v5.1h9.8v3.7H153.1z"/>
	<path class="st0" d="M181.7,70.3l-4.1-7.3l-4,7.3h-4.7l6.5-10.8l-6.1-10.3h4.7l3.7,6.8l3.7-6.8h4.6l-6.1,10.3l6.6,10.8H181.7z"/>
</g>
</svg>
