<?xml version="1.0" encoding="utf-8"?>
<!-- Generator: Adobe Illustrator 22.0.1, SVG Export Plug-In . SVG Version: 6.00 Build 0)  -->
<svg version="1.1" id="Layer_1" xmlns="http://www.w3.org/2000/svg" xmlns:xlink="http://www.w3.org/1999/xlink" x="0px" y="0px"
	 viewBox="0 0 226.8 72.1" style="enable-background:new 0 0 226.8 72.1;" xml:space="preserve">
<style type="text/css">
	.st0{fill:#00ABEB;}
</style>
<g>
	<path class="st0" d="M47.9,26.8c-5.6,0-10.1,4.5-10.1,10.1v14.9c0,5.6,4.5,10.1,10.1,10.1S58,57.3,58,51.7V36.9
		C58,31.3,53.5,26.8,47.9,26.8 M51,51.7L51,51.7c0,1.7-1.4,3.1-3.1,3.1c-1.7,0-3.1-1.4-3.1-3.1V36.9c0-1.7,1.4-3.1,3.1-3.1
		c1.7,0,3.1,1.4,3.1,3.1V51.7z"/>
	<path class="st0" d="M111.1,26.8c-5.6,0-10.1,4.5-10.1,10.1v14.9c0,5.6,4.5,10.1,10.1,10.1c5.6,0,10.1-4.5,10.1-10.1V36.9
		C121.2,31.3,116.7,26.8,111.1,26.8 M114.2,51.7L114.2,51.7c0,1.7-1.4,3.1-3.1,3.1c-1.7,0-3.1-1.4-3.1-3.1V36.9
		c0-1.7,1.4-3.1,3.1-3.1c1.7,0,3.1,1.4,3.1,3.1V51.7z"/>
	<path class="st0" d="M162.5,26.8c-5.6,0-10.1,4.5-10.1,10.1v14.9c0,5.6,4.5,10.1,10.1,10.1c5.6,0,10.1-4.5,10.1-10.1V36.9
		C172.6,31.3,168.1,26.8,162.5,26.8 M165.6,51.7L165.6,51.7c0,1.7-1.4,3.1-3.1,3.1c-1.7,0-3.1-1.4-3.1-3.1V36.9
		c0-1.7,1.4-3.1,3.1-3.1c1.7,0,3.1,1.4,3.1,3.1V51.7z"/>
	<path class="st0" d="M69.8,60.9v-24c0-1.7,1.4-3.1,3.1-3.1c1.7,0,3.1,1.4,3.1,3.1v24h7v-24c0-1.7,1.4-3.1,3.1-3.1
		c1.7,0,3.1,1.4,3.1,3.1v24h7v-24c0-5.6-4.5-10.1-10.1-10.1c-2.5,0-4.8,0.9-6.6,2.5c-1.8-1.5-4.1-2.5-6.6-2.5
		c-5.6,0-10.1,4.5-10.1,10.1v24H69.8z"/>
	<path class="st0" d="M203.8,27.7v24c0,1.7-1.4,3.1-3.1,3.1c-1.7,0-3.1-1.4-3.1-3.1v-24h-7v24c0,1.7-1.4,3.1-3.1,3.1
		c-1.7,0-3.1-1.4-3.1-3.1v-24h-7v24c0,5.6,4.5,10.1,10.1,10.1c2.5,0,4.8-0.9,6.6-2.5c1.8,1.5,4.1,2.5,6.6,2.5
		c5.6,0,10.1-4.5,10.1-10.1v-24H203.8z"/>
	<polygon class="st0" points="15,15.9 15,22.9 26.1,22.9 26.1,60.9 33,60.9 33,22.9 62.8,22.9 62.8,15.9 	"/>
	<path class="st0" d="M136.1,26.8c-5.6,0-10.1,4.5-10.1,10.1v24h7v-24c0-1.7,1.4-3.1,3.1-3.1h0.5v-7H136.1z"/>
	<path class="st0" d="M149.3,26.8c-5.6,0-10.1,4.5-10.1,10.1v24h7v-24c0-1.7,1.4-3.1,3.1-3.1h0.5v-7H149.3z"/>
</g>
</svg>
