<?xml version="1.0" encoding="utf-8"?>
<!-- Generator: Adobe Illustrator 22.0.1, SVG Export Plug-In . SVG Version: 6.00 Build 0)  -->
<svg version="1.1" id="Layer_1" xmlns="http://www.w3.org/2000/svg" xmlns:xlink="http://www.w3.org/1999/xlink" x="0px" y="0px"
	 viewBox="0 0 226.8 105.5" style="enable-background:new 0 0 226.8 105.5;" xml:space="preserve">
<style type="text/css">
	.st0{fill:#262424;}
</style>
<g>
	<path class="st0" d="M143.5,65.1c-1.1,0-1.9,0.4-2.4,1.1c-0.5,0.8-0.8,2-0.8,3.8c0,1.7,0.2,2.9,0.7,3.7c0.5,0.8,1.2,1.2,2.3,1.2
		c1.1,0,1.9-0.4,2.4-1.2c0.6-0.8,0.8-2.1,0.8-3.8c0-1.7-0.3-2.9-0.8-3.7C145.3,65.5,144.6,65.1,143.5,65.1 M86.8,65.2h-1.7v4.2h1.2
		c0.8,0,1.4-0.2,1.9-0.6c0.4-0.4,0.7-0.9,0.7-1.6c0-0.6-0.2-1.1-0.5-1.5C88,65.4,87.5,65.2,86.8,65.2 M101.1,71.2h3.1l-1.5-4.9
		L101.1,71.2z M169,58.4h-37.8v-2.3l-15.8-4.5l-15.9,4.5v2.3H62l4,12.2l-4,12.2h38.3c0,0,0,0,0,0c0.4,0.5,0.9,1.1,1.5,1.7l0.1,0.1
		c0.1,0.1,0.3,0.3,0.4,0.4c0,0,0.1,0,0.1,0.1c0.1,0.1,0.3,0.3,0.5,0.4l0.1,0.1c1.1,0.8,2.3,1.7,3.5,2.4l0,0c0.2,0.1,0.4,0.2,0.6,0.4
		l0,0c1.5,0.9,3,1.7,4.3,2.4c0,0,0,0,0,0c0.2,0.1,0.3,0.2,0.5,0.3c0,0,0,0,0.1,0c0.2,0.1,0.3,0.2,0.5,0.2c0,0,0,0,0,0
		c0.7,0.3,1.2,0.6,1.7,0.8c0,0,0,0,0,0c0.1,0,0.2,0.1,0.3,0.1c0,0,0,0,0.1,0c0.1,0,0.1,0.1,0.2,0.1c0,0,0.1,0,0.1,0
		c0,0,0.1,0,0.1,0.1c0,0,0.1,0,0.1,0c0,0,0.1,0,0.1,0c0,0,0.1,0,0.1,0c0,0,0,0,0,0c0,0,0,0,0,0s0,0,0.1,0c0,0,0,0,0.1,0
		c0,0,0,0,0.1,0c0,0,0.1,0,0.1-0.1c0,0,0.1,0,0.1,0c0.1,0,0.1,0,0.2-0.1c0,0,0.1,0,0.1-0.1c0.1,0,0.1-0.1,0.2-0.1
		c0.1,0,0.1-0.1,0.2-0.1c0.1,0,0.1-0.1,0.2-0.1c0.1,0,0.1-0.1,0.2-0.1c0,0,0.1,0,0.2-0.1c0.2-0.1,0.4-0.2,0.6-0.3c0,0,0.1,0,0.1-0.1
		c0.1,0,0.2-0.1,0.3-0.2c0.1,0,0.1-0.1,0.2-0.1c0.1-0.1,0.2-0.1,0.3-0.2c0.1,0,0.2-0.1,0.2-0.1c0.1-0.1,0.2-0.1,0.3-0.2
		c0.1,0,0.2-0.1,0.3-0.1c0.1-0.1,0.2-0.1,0.4-0.2c0.1,0,0.2-0.1,0.2-0.1c0.1-0.1,0.3-0.1,0.4-0.2c0.1,0,0.1-0.1,0.2-0.1
		c0.5-0.3,1-0.5,1.6-0.8c0.1,0,0.1-0.1,0.2-0.1c0.2-0.1,0.3-0.2,0.5-0.3c0.1,0,0.2-0.1,0.2-0.1c0.1-0.1,0.3-0.2,0.4-0.3
		c0.1,0,0.2-0.1,0.3-0.1c0.1-0.1,0.3-0.2,0.4-0.3c0.1-0.1,0.2-0.1,0.3-0.2c0.1-0.1,0.3-0.2,0.4-0.3c0.1-0.1,0.2-0.1,0.2-0.2
		c0.1-0.1,0.3-0.2,0.4-0.3c0.1,0,0.1-0.1,0.2-0.1c0.5-0.3,1-0.7,1.5-1c0.1,0,0.1-0.1,0.2-0.1c0.1-0.1,0.2-0.2,0.4-0.3
		c0.1-0.1,0.1-0.1,0.2-0.2c0.1-0.1,0.2-0.2,0.3-0.3c0.1-0.1,0.1-0.1,0.2-0.2c0.1-0.1,0.2-0.2,0.3-0.3c0.1-0.1,0.1-0.1,0.2-0.2
		c0.1-0.1,0.2-0.2,0.3-0.3c0.1-0.1,0.1-0.1,0.2-0.2c0.1-0.1,0.2-0.2,0.3-0.3c0-0.1,0.1-0.1,0.1-0.2c0.2-0.2,0.4-0.5,0.6-0.7H169
		l-4-12.2L169,58.4z M93.3,77.2h-3.8l-1.7-3.8c-0.4-0.8-0.7-1.3-0.9-1.6c-0.2-0.2-0.6-0.3-1.1-0.3h-0.7v3.4l1.5,0.5v1.8h-6.1v-1.8
		l1.5-0.5v-9.7l-1.5-0.6v-1.7l4.7-0.1h1.5c1.7,0,3,0.4,3.9,1.1c0.9,0.7,1.4,1.7,1.4,3.1c0,1.8-0.8,3.1-2.3,3.9
		c0.3,0.4,0.6,0.8,0.9,1.3l1.4,2.8l1.4,0.5V77.2z M110.3,77.2h-6.4v-1.8l1.5-0.5l-0.5-1.5h-4.5l-0.5,1.5l1.6,0.5v1.8h-6.1v-1.8
		l1.5-0.5l4.5-12.2l3.2-0.1l4.4,12.2l1.4,0.5V77.2z M123.9,75.2c-1.2,1.3-2.9,2-4.9,2h-6.3v-1.8l1.5-0.5v-9.7l-1.5-0.6v-1.7l4.7-0.1
		h1.9c2.1,0,3.6,0.6,4.8,1.8c1.1,1.2,1.7,2.9,1.7,5.2C125.7,72.1,125.1,73.9,123.9,75.2 M134.5,64.6l-1.5,0.6v9.7l1.5,0.5v1.8h-6.2
		v-1.8l1.5-0.5v-9.7l-1.5-0.6v-1.7l6.2-0.1V64.6z M148.2,75.4c-1.3,1.4-2.9,2.1-4.9,2.1c-2,0-3.6-0.6-4.7-1.9
		c-1.1-1.3-1.6-3.1-1.6-5.5c0-2.4,0.6-4.2,1.8-5.6c1.2-1.4,2.8-2,4.9-2c2,0,3.6,0.6,4.7,1.9c1.1,1.3,1.7,3.1,1.7,5.4
		C150,72.1,149.4,74,148.2,75.4 M119.2,65.2h-1.8v9.6h1.7c1.1,0,1.9-0.4,2.4-1.1c0.6-0.8,0.9-2,0.9-3.8c0-1.7-0.3-2.9-0.8-3.6
		C121,65.5,120.2,65.2,119.2,65.2"/>
	<path class="st0" d="M38,40.2l1.1-1.2l-0.7-1.6L32.7,40l0.7,1.5l1.7-0.1l2.5,5.6c0.5,1.2,0.7,2.1,0.6,2.7c-0.1,0.6-0.6,1.2-1.6,1.6
		c-0.9,0.4-1.6,0.4-2.2,0.2c-0.6-0.3-1.1-1-1.6-2.1l-2.6-5.9l1.2-1.2l-0.7-1.6l-5.7,2.6l0.7,1.5l1.6-0.1l2.6,5.9
		c0.8,1.8,1.8,3,3,3.4c1.2,0.5,2.7,0.3,4.5-0.5c1.9-0.9,3.1-1.9,3.5-3.2c0.4-1.3,0.2-2.8-0.6-4.7L38,40.2z M58.8,43.5l-2.1-2.3
		c-0.4-0.4-0.8-0.7-1.2-1c1.2-1.2,1.6-2.6,1.1-4.4c-0.4-1.3-1.1-2.2-2.2-2.6c-1.1-0.4-2.4-0.3-4,0.2l-1.5,0.5l-4.4,1.5l0.5,1.6
		l1.6,0.1l2.9,9.2L48,47.3l0.5,1.7l5.9-1.8l-0.5-1.7l-1.5-0.1l-1-3.2L52,42c0.5-0.2,0.9-0.2,1.1,0c0.3,0.1,0.7,0.5,1.3,1.2l2.7,3.1
		l3.6-1.1l-0.5-1.7L58.8,43.5z M53.4,38.8c-0.3,0.5-0.9,0.9-1.6,1.1l-1.1,0.3l-1.2-4l1.6-0.5c0.6-0.2,1.1-0.2,1.6,0.1
		c0.5,0.2,0.8,0.7,1,1.2C53.8,37.7,53.7,38.3,53.4,38.8 M71.7,35.1c1.5-0.8,2-2.1,1.7-3.8c-0.2-1.1-0.8-1.9-1.7-2.3
		c-0.9-0.4-2-0.5-3.4-0.2l-2.1,0.4l-4.5,1.1l0.4,1.7l1.6,0.3l2,9.5c-0.6,0.4-1.1,0.6-1.4,0.8l0.4,1.7l6.3-1.3
		c3.4-0.7,4.9-2.5,4.3-5.2C74.9,36.1,73.7,35.3,71.7,35.1 M66.7,31.6l1.7-0.4c0.5-0.1,0.9-0.1,1.3,0.1c0.4,0.2,0.6,0.5,0.7,1
		c0.3,1.2-0.4,2-1.8,2.3L67.4,35L66.7,31.6z M71.8,39.8c-0.3,0.4-0.8,0.7-1.5,0.8L68.7,41l-0.8-3.9l1.2-0.2c0.9-0.2,1.6-0.2,2.1,0.1
		c0.5,0.2,0.8,0.7,1,1.4C72.2,38.9,72.1,39.4,71.8,39.8 M93.4,37.2l-5.8-11.5l-3.2,0.5l-3,12.5L80,39.3l0.2,1.8l6.1-0.8l-0.2-1.8
		l-1.6-0.3l0.3-1.6l4.5-0.6l0.7,1.5l-1.5,0.7l0.2,1.8l6.4-0.8l-0.2-1.8L93.4,37.2z M85.2,34.5l1-5l2.1,4.6L85.2,34.5z M113.2,24
		l-5.8,0.3l0.1,1.7l1.5,0.6l0.3,7l-5.9-9.2l-4.9,0.3l0.1,1.7l1.5,0.5l0.4,9.7L99,37.1l0.1,1.8l5.9-0.2l-0.1-1.8l-1.6-0.4l-0.3-6.9
		l5.8,9l3.4-0.1l-0.5-11.9l1.5-0.7L113.2,24z M130.9,27.2c0.4-0.2,0.9-0.3,1.6-0.3c0.6,0,1.2,0.2,1.8,0.4l0.4,1.8l1.9,0.1l0.4-3.7
		l-0.6-0.2c-0.4-0.2-1-0.3-1.7-0.5c-0.7-0.2-1.4-0.3-2.1-0.3c-1.5-0.1-2.8,0.2-3.8,0.9c-1,0.7-1.6,1.7-1.6,3.1
		c-0.1,0.8,0.1,1.5,0.4,2.1c0.3,0.6,0.7,1.1,1.2,1.4c0.5,0.3,1,0.6,1.6,0.9c0.6,0.3,1.1,0.5,1.6,0.7c0.5,0.2,0.9,0.4,1.2,0.7
		c0.3,0.3,0.5,0.6,0.4,1c0,0.5-0.3,0.9-0.8,1.2c-0.5,0.3-1.1,0.4-1.8,0.3c-0.8-0.1-1.4-0.2-2-0.6l-0.2-1.7l-2.1-0.1l-0.3,3.9
		l0.6,0.2c0.4,0.2,1,0.3,1.7,0.5c0.7,0.2,1.5,0.3,2.1,0.3c1.6,0.1,3-0.2,4-1c1.1-0.8,1.7-1.9,1.8-3.4c0.1-0.7-0.1-1.4-0.4-2
		c-0.3-0.6-0.7-1-1.2-1.3c-0.5-0.3-1-0.6-1.6-0.9c-0.6-0.3-1.1-0.5-1.6-0.7c-0.5-0.2-0.9-0.4-1.2-0.7c-0.3-0.3-0.5-0.6-0.4-1
		C130.3,27.8,130.5,27.5,130.9,27.2 M149.9,26.5l-1.9-0.3l-4.6-0.6l-0.2,1.7l1.4,0.8l-1.3,9.6l-1.6,0.3l-0.2,1.8l6.1,0.9l0.2-1.8
		l-1.4-0.7l0.4-2.7l1.1,0.2c1.9,0.3,3.3,0,4.4-0.7c1.1-0.7,1.8-1.9,2-3.6c0.2-1.3-0.1-2.4-0.9-3.3C152.5,27.3,151.4,26.8,149.9,26.5
		 M151,31.4c-0.1,0.7-0.4,1.3-0.9,1.6c-0.5,0.3-1.2,0.4-2,0.3l-1.1-0.2l0.6-4.5l1.6,0.2c0.7,0.1,1.2,0.4,1.5,0.8
		C151,30.2,151.1,30.8,151,31.4 M168.6,30.1l-3.2-0.7l-7,10.7l-1.6,0.1l-0.4,1.7l6,1.4l0.4-1.7l-1.4-0.8l0.8-1.4l4.4,1l0.1,1.6
		l-1.6,0.1l-0.4,1.7l6.3,1.4l0.4-1.7l-1.3-0.8L168.6,30.1z M163.4,37.5l2.6-4.3l0.4,5L163.4,37.5z M187.6,35.7
		c-0.7-0.4-1.4-0.7-2.1-0.9c-2-0.7-3.8-0.5-5.4,0.3c-1.6,0.9-2.8,2.5-3.5,4.7c-0.7,2.2-0.8,4.1-0.1,5.6c0.7,1.5,2,2.6,4,3.3
		c0.6,0.2,1.2,0.3,1.8,0.3c0.6,0,1.1,0,1.6,0c0.4-0.1,0.9-0.1,1.3-0.3c0.4-0.1,0.7-0.2,0.8-0.3c0.1-0.1,0.2-0.1,0.3-0.1l-0.5-2.1
		l-0.6,0.2c-0.4,0.1-1,0.2-1.6,0.2c-0.7,0-1.3-0.1-1.9-0.3c-2.2-0.7-2.8-2.6-1.8-5.5c1-3.2,2.6-4.4,4.8-3.7c0.8,0.3,1.5,0.6,2.1,1
		l-0.2,2l1.9,0.6l1.3-3.6l-0.5-0.4C188.8,36.4,188.3,36.1,187.6,35.7 M200.3,40.8L196,39l-0.7,1.5l1.1,1.2l-4,8.8l-1.6-0.2l-0.7,1.6
		l9.6,4.4l1.7-3.7l-1.7-0.8l-1.1,1.3l-3.3-1.5l1.6-3.6l3.7,1.7l0.9-2l-3.7-1.7l1.4-3.1l3,1.4l-0.2,1.6l1.7,0.8l1.6-3.6L200.3,40.8z"
		/>
</g>
</svg>
