<?xml version="1.0" encoding="utf-8"?>
<!-- Generator: Adobe Illustrator 22.0.1, SVG Export Plug-In . SVG Version: 6.00 Build 0)  -->
<svg version="1.1" id="Layer_1" xmlns="http://www.w3.org/2000/svg" xmlns:xlink="http://www.w3.org/1999/xlink" x="0px" y="0px"
	 viewBox="0 0 188 99.5" style="enable-background:new 0 0 188 99.5;" xml:space="preserve">
<style type="text/css">
	.st0{fill:#FFFFFF;}
	.st1{fill:#E51D25;}
	.st2{fill:#FCD75A;}
	.st3{fill:#00AEEF;}
	.st4{fill:#622C91;}
	.st5{fill:#D72829;}
</style>
<g>
	<path class="st0" d="M142.3,78.7c-0.5-1.3,0.3-3.1-1.4-7.1c-1.7-4-6.1-3.9-6.1-3.9l-0.5,1.9l3.1,1.9c0,0-1.7-0.4-4.1,0.2
		c-3.4,0.8-3.5,8.7-2.9,9.8c0.6,1.1,3.4,3.4,5.5,3.1c2.1-0.3,4-2.2,4-2.2l3.7,3.5l2.1-2.6C145.7,83.3,142.8,80,142.3,78.7z
		 M138.9,78.1c-0.3,0.5-3.7,4.9-5,1.5c-1.4-3.3,0.4-4.7,2.7-5.1C138.9,74.1,139.2,77.6,138.9,78.1z"/>
	<path class="st0" d="M124.3,70.9l3.3-2.4c0,0-2.7-6.3-9.4-3.4c-6.8,2.9-6.9,7-7,7.9s-0.6,12.6,7.3,12c9.8-0.7,11-6.6,11-6.6
		l-3.4-1.3c0,0-1.1,2.2-3.2,2.7c-2.1,0.5-3.9,1-5.2,0.2c-1.3-0.8-4.3-5.5-1-9.5C121.2,64.8,124.3,70.9,124.3,70.9z"/>
	<path class="st0" d="M146.3,70c0,0,0.9,0.5,1,3.9c0.1,3.4,0.1,5.4-0.5,7.3c-0.6,1.9-0.5,2.2-0.5,2.2l5-0.3c0,0-1.1-6,0-7.5
		c1.1-1.5,2.1-2,3.1-1.3c1,0.7,2.2,4.7,0.5,9c0.5,0.2,4.4,0,4.4,0s-1.8-5.7,0-7.7c1.8-2.1,3.1-1.3,3.1-1.3s3,1.8,1.2,9
		c-0.2,0.7,4.8-0.6,4.8-0.6s-1.2-5.6-0.6-8c0.6-2.4-2.1-5.2-5.2-4.7c-3.1,0.5-4.5,2.3-4.5,2.3s-0.7-2.5-3.1-2.3
		c-2.5,0.2-4,2.3-4,2.3L151,70L146.3,70z"/>
	<path class="st0" d="M177.4,70c-2.2,0-3.7,0.5-4,0.6l0,0c0,0,0,0,0,0l-4.7,0.1c0,0,0.9,0.8,1,6.6c0.1,5.8,0.1,9.1-0.5,12.2
		c-0.6,3.1-0.5,3.6-0.5,3.6l5-0.4c0,0-0.3-5.7-0.5-10.8c0.3,0.2,2.4,1.5,4.4,1.3c2.1-0.2,4.3-3,4.7-4.2
		C182.7,77.7,180.9,70,177.4,70z M178.5,77.9c-0.6,3.5-4.8,0-5.2-0.5c0,0-0.1-0.1-0.1-0.2c0-1.2,0-2.2,0.1-2.8c0,0,0-0.1,0-0.1
		c0.3-0.5,0.8-0.9,1.5-0.9C177.1,73.4,179.1,74.3,178.5,77.9z"/>
</g>
<path class="st0" d="M170.7,28.5c-5,0.4-8.1,4.6-8.1,4.6l0.3-4.7l-9.6,0.1c0,0,1.8,1,2,8s0.2,11.1-1,14.8c-1.2,3.8,5.4,3.8,5.4,3.8
	h3.8c0,0-2.2-12.2,0-15.2c2.2-3,4.2-4,6.2-2.7c2,1.3,4.5,9.6,1,18.4c1,0.3,8.9,0,8.9,0S182.2,28.7,170.7,28.5z"/>
<path class="st0" d="M75.4,79.3c0.4,0,0.8,0,1.3,0c0.2,0,0.4,0,0.6,0c0.4,0,0.8,0,1.2,0c0.2,0,0.4,0,0.6,0c0.4,0,0.8,0,1.2-0.1
	c0.2,0,0.4,0,0.6,0c0.5,0,1-0.1,1.5-0.1c0.1,0,0.2,0,0.4,0c0.6-0.1,1.2-0.1,1.8-0.2c0.1,0,0.3,0,0.4-0.1c0.5-0.1,0.9-0.1,1.4-0.2
	c0.2,0,0.4-0.1,0.7-0.1c0.4-0.1,0.8-0.1,1.2-0.2c0.2,0,0.5-0.1,0.7-0.1c0.4-0.1,0.8-0.2,1.2-0.3c0.2,0,0.5-0.1,0.7-0.1
	c0.5-0.1,0.9-0.2,1.4-0.3c0.2,0,0.4-0.1,0.5-0.1c0.6-0.2,1.3-0.3,1.9-0.5c0.1,0,0.2-0.1,0.3-0.1c0.5-0.2,1.1-0.3,1.6-0.5
	c0.2-0.1,0.4-0.1,0.7-0.2c0.4-0.1,0.9-0.3,1.3-0.4c0.2-0.1,0.5-0.2,0.7-0.3c0.4-0.1,0.8-0.3,1.3-0.5c0.2-0.1,0.5-0.2,0.7-0.3
	c0.4-0.2,0.9-0.4,1.4-0.5c0.2-0.1,0.4-0.2,0.6-0.3c0.7-0.3,1.3-0.6,2-0.9c0,0-0.8-8.4-1.1-11.6c-1.3,0.1-2.6,0.1-3.8,0.2
	c-0.3,0-0.7,0-1,0.1c-1,0.1-2.1,0.1-3.1,0.1c-0.2,0-0.4,0-0.7,0c-1.2,0-2.4,0.1-3.5,0.1c-0.3,0-0.6,0-0.8,0c-0.9,0-1.9,0.1-2.8,0.1
	c-0.3,0-0.5,0-0.8,0c-1.1,0-2.2,0-3.3,0.1c-0.2,0-0.3,0-0.5,0c-0.9,0-1.8,0-2.7,0c-0.3,0-0.5,0-0.8,0c-1,0-2,0-3,0c0,0,0,0-0.1,0
	c-1,0-2,0-2.9,0c-0.2,0-0.5,0-0.7,0c-0.8,0-1.6,0-2.4-0.1c-0.2,0-0.3,0-0.5,0c-0.9,0-1.8-0.1-2.7-0.1c-0.2,0-0.3,0-0.5,0
	c-0.7,0-1.5-0.1-2.2-0.1c-0.2,0-0.4,0-0.6,0c-0.8,0-1.7-0.1-2.5-0.1c-0.1,0-0.2,0-0.2,0c-0.7,0-1.4-0.1-2.2-0.2c-0.2,0-0.4,0-0.5,0
	c-1.5-0.1-3-0.3-4.4-0.4c-0.1,0-0.3,0-0.4,0c-0.6-0.1-1.2-0.1-1.8-0.2c-0.1,0-0.2,0-0.2,0c-0.7-0.1-1.3-0.2-2-0.3
	c-0.1,0-0.1,0-0.2,0c-0.6-0.1-1.2-0.2-1.7-0.2c-0.1,0-0.2,0-0.3,0c-1.2-0.2-2.4-0.4-3.5-0.6c-0.1,0-0.1,0-0.2,0
	c-1.1-0.2-2.2-0.4-3.1-0.6c0,0-0.1,0-0.1,0c-1.5-0.3-2.9-0.7-4.1-1c0,0,0,0,0,0c-3-0.8-5.2-1.6-6.8-2.4c0,0,0,0,0,0
	c-3-1.3-4.1-2.3-4.1-2.3l26.3-29.6c0,0-5.2-7.5-6.7-7.2c-7.7,2.1-13.5,8.1-15.9,10.4c-2.5,2.3-5.4,6-5.4,6l2.1-13.1l-14.4-0.3
	c0,0-6.8,34.2-2.1,58.4c3.5-0.3,13.7-2,13.7-2l0.6-16.4c0,0,0.9,0.9,2.6,2.3c0,0,0,0,0,0c0.3,0.2,0.6,0.5,0.9,0.8
	c0,0,0.1,0.1,0.1,0.1c0.1,0.1,0.3,0.2,0.4,0.3c0.1,0,0.1,0.1,0.2,0.1c0.1,0.1,0.3,0.2,0.4,0.3c0.1,0.1,0.1,0.1,0.2,0.2
	c0.1,0.1,0.3,0.2,0.4,0.3c0.1,0.1,0.1,0.1,0.2,0.2c0.2,0.1,0.4,0.3,0.6,0.4c0,0,0.1,0.1,0.1,0.1c0.2,0.2,0.5,0.3,0.7,0.5
	c0,0,0.1,0.1,0.1,0.1c0.2,0.1,0.4,0.3,0.6,0.4c0.1,0.1,0.2,0.1,0.2,0.2c0.2,0.1,0.4,0.3,0.6,0.4c0.1,0.1,0.2,0.1,0.3,0.2
	c0.2,0.1,0.4,0.3,0.6,0.4c0.1,0.1,0.2,0.1,0.3,0.2c0.2,0.1,0.5,0.3,0.7,0.4c0.1,0,0.1,0.1,0.2,0.1c0.3,0.2,0.6,0.4,0.9,0.6
	c0,0,0,0,0,0c0.3,0.2,0.6,0.4,0.9,0.6c0.1,0.1,0.2,0.1,0.3,0.2c0.2,0.1,0.5,0.3,0.7,0.4c0.1,0.1,0.2,0.1,0.3,0.2
	c0.2,0.1,0.5,0.3,0.7,0.4c0.1,0.1,0.2,0.1,0.3,0.2c0.3,0.1,0.5,0.3,0.8,0.4c0.1,0,0.2,0.1,0.3,0.1c0.7,0.4,1.5,0.8,2.2,1.2
	c0.1,0,0.2,0.1,0.3,0.1c0.3,0.1,0.6,0.3,0.9,0.4c0.1,0.1,0.2,0.1,0.4,0.2c0.3,0.1,0.6,0.3,0.8,0.4c0.1,0.1,0.3,0.1,0.4,0.2
	c0.3,0.1,0.6,0.3,0.9,0.4c0.1,0.1,0.2,0.1,0.3,0.2c0.4,0.2,0.8,0.3,1.2,0.5c0,0,0,0,0,0c0.4,0.2,0.9,0.4,1.3,0.5
	c0.1,0,0.2,0.1,0.2,0.1c0.4,0.1,0.7,0.3,1.1,0.4c0.1,0,0.3,0.1,0.4,0.1c0.3,0.1,0.6,0.2,1,0.3c0.1,0.1,0.3,0.1,0.4,0.2
	c0.3,0.1,0.7,0.2,1,0.3c0.1,0,0.3,0.1,0.4,0.1c0.4,0.1,0.8,0.2,1.2,0.4c0.1,0,0.2,0,0.2,0.1c0.5,0.1,1,0.3,1.5,0.4
	c0.1,0,0.1,0,0.2,0.1c0.4,0.1,0.8,0.2,1.3,0.3c0.1,0,0.3,0.1,0.4,0.1c0.4,0.1,0.7,0.2,1.1,0.3c0.2,0,0.3,0.1,0.5,0.1
	c0.3,0.1,0.7,0.2,1.1,0.2c0.2,0,0.3,0.1,0.5,0.1c0.4,0.1,0.8,0.2,1.2,0.2c0.1,0,0.3,0,0.4,0.1c0.5,0.1,1.1,0.2,1.6,0.3c0,0,0,0,0,0
	c0.5,0.1,1,0.2,1.6,0.2c0.2,0,0.3,0,0.5,0.1c0.4,0.1,0.8,0.1,1.2,0.1c0.2,0,0.4,0,0.6,0.1c0.4,0,0.6,0.1,0.9,0.1c0.2,0,0.5,0,0.7,0
	c0.4,0,0.8,0.1,1.2,0.1c0.2,0,0.4,0,0.6,0c0.5,0,1,0,1.5,0c0,0,0,0,0.1,0c0.6,0,1.2,0,1.7,0C75.1,79.3,75.3,79.3,75.4,79.3z"/>
<g>
	<polygon class="st0" points="65.6,58.9 50.4,56.9 44.5,47.2 45.2,35.9 54.8,28.2 59,33.4 51.7,39.3 51.3,45.5 54.4,50.6 63.3,51.8 
		69,46.5 68.5,43.2 64.4,40.7 61.6,41.9 63.5,44.3 58.3,48.5 54.8,44.2 55,37.6 64.8,33 74.6,39 76.3,49 	"/>
</g>
<path class="st0" d="M83.6,24.5l-5.5,2.4l1,30.6h8.5c0,0-0.3-17.6,0.8-20.6c1.2-3,4.5-5.8,4.5-5.8s2.3-1.4,4-0.3
	c0.7,0.4,4.1-4.8,4.1-4.8s-7.5-4.3-13.4,3.6C86.8,26.8,83.6,24.5,83.6,24.5z"/>
<path class="st0" d="M117.2,46.4c0,0-2.7,4.8-8.4,4.6c-7.3-0.2-7-3.6-7.1-5.4c-0.1-1.6,6.5,2.2,13.5-0.8c4.5-1.7,4.8-6.8,3-11.1
	c-1.8-4.3-6.7-5.9-9.7-5.9c-3,0-7.4,2.7-7.4,2.7s-4.5,2.7-5.5,7.9c-0.7,3.9-3.4,20.4,10.8,20.2c14.2-0.3,14.5-10.7,14.5-10.7
	L117.2,46.4z M106.8,33.2c3.3-0.4,11,3.5,6.7,7.1c-2.2,0.9-8.2,2.4-12-0.4C101.9,36.6,103.5,33.7,106.8,33.2z"/>
<path class="st0" d="M147.8,45.5c-1.1-2.6,0.6-6.3-2.9-14.4c-3.4-8.1-12.5-8-12.5-8l-0.9,3.8l6.4,3.8c0,0-3.5-0.7-8.4,0.4
	c-6.9,1.6-7.2,17.7-5.9,19.9c1.3,2.3,6.9,6.9,11.2,6.4c4.3-0.6,8.2-4.6,8.2-4.6l7.5,7.1l4.3-5.2C154.7,54.7,148.9,48.1,147.8,45.5z
	 M141,44.2c-0.7,1-7.5,9.9-10.2,3.1c-2.8-6.8,0.7-9.5,5.5-10.4C141,36,141.6,43.2,141,44.2z"/>
<path class="st1" d="M104.2,61c-4,0.2-7.8,0.4-11.5,0.5c-0.4,2.2-1.6,4.6-0.9,7.9c0.4,2.4,2.1,5.1,3,7.1c3.4-1,7-2.3,10.6-3.9
	C105.3,72.8,104.6,64.3,104.2,61z"/>
<path class="st2" d="M92.8,70c-1.1-2-0.8-5.2,0-8.4c-3.4,0.1-6.7,0.2-9.8,0.2c1.8,4.1,4,8.3,6.6,10.7c1.5,1.4,3.1,2.9,4.7,4.3
	c0.8-0.2,1.6-0.5,2.4-0.7C95.2,73.8,93.7,71.6,92.8,70z"/>
<path class="st3" d="M79.5,61.8l1.3,4.9l-0.1,12.5c4.4-0.3,8.9-1.1,13.6-2.4c0,0-6-5.8-7.4-7.6c-1.1-1.4-3-5.7-3.7-7.4
	C81.9,61.8,80.7,61.8,79.5,61.8z"/>
<path class="st4" d="M66.5,61.5c1.2,1.6,3,5.3,3,5.3l-0.6,12.3c3.8,0.4,7.8,0.4,12,0.1l-0.1-12.5l-1.3-4.9
	C74.8,61.8,70.5,61.7,66.5,61.5z"/>
<g>
	<path class="st5" d="M99.7,9.2V7.9h3.1V6.4h1.7v1.4h3.1v1.3H99.7z M103.6,14.6c-1,0-1.8-0.2-2.4-0.7c-0.6-0.5-0.9-1-0.9-1.7
		c0-0.7,0.3-1.3,0.9-1.7c0.6-0.5,1.4-0.7,2.4-0.7s1.8,0.2,2.4,0.7s0.9,1,0.9,1.7c0,0.7-0.3,1.3-0.9,1.7
		C105.4,14.4,104.6,14.6,103.6,14.6z M101.7,19v-3.8h1.7v2.4h6.9V19H101.7z M103.6,11.1c-0.5,0-0.9,0.1-1.2,0.3
		c-0.3,0.2-0.4,0.4-0.4,0.8c0,0.3,0.1,0.6,0.4,0.8c0.3,0.2,0.7,0.3,1.2,0.3c0.5,0,1-0.1,1.2-0.3c0.3-0.2,0.4-0.5,0.4-0.8
		c0-0.3-0.1-0.6-0.4-0.8C104.6,11.2,104.2,11.1,103.6,11.1z M109.9,12.2v3.7h-1.6V6.6h1.6v4.2h2v1.4H109.9z"/>
	<path class="st5" d="M121.6,19.4v-3.5h-6.9v-1.4h3.5v-1.8h-5v-1.4h8.3c0.1-1,0.1-2,0.1-2.9H115V6.9h8.2c0,1.1-0.1,2.6-0.2,4.3h1.9
		v1.4h-5.2v1.8h3.5v5H121.6z"/>
	<path class="st5" d="M133.6,14.2v2.5h-1.7v-2.5h-5.2v-1.4h11.8v1.4H133.6z M128.4,18.9v-3.8h1.7v2.4h6.9v1.4H128.4z M128.5,11.7
		V7.1h8.3v4.5H128.5z M135.1,8.5h-5v1.8h5V8.5z"/>
	<path class="st5" d="M148.7,17.3c-2.3,0.1-5.3,0.2-8.8,0.2l-0.2-1.4l3.6,0v-1.3c-0.8-0.1-1.4-0.4-1.8-0.9c-0.4-0.4-0.7-1-0.7-1.6
		c0-0.7,0.3-1.3,0.9-1.8c0.6-0.5,1.4-0.7,2.4-0.7c1,0,1.8,0.2,2.4,0.7c0.6,0.4,0.9,1,0.9,1.8c0,0.6-0.2,1.2-0.6,1.6
		c-0.4,0.5-1,0.7-1.8,0.9v1.3c1.8,0,3-0.1,3.5-0.1L148.7,17.3z M140.3,9.4V8h3.1V6.5h1.7V8h3.1v1.4H140.3z M144.2,11.2
		c-0.5,0-0.9,0.1-1.2,0.3s-0.5,0.5-0.5,0.8c0,0.3,0.1,0.6,0.4,0.8c0.3,0.2,0.7,0.3,1.2,0.3c0.5,0,0.9-0.1,1.2-0.3s0.4-0.5,0.4-0.8
		c0-0.3-0.1-0.6-0.4-0.8C145.1,11.3,144.7,11.2,144.2,11.2z M150.8,13.4v5.9h-1.7V6.6h1.7v5.4h1.9v1.4H150.8z"/>
	<path class="st5" d="M154.2,11l-0.6-1.4l3.9-0.3c0.1-0.3,0.2-0.5,0.3-0.8h-3.5V7.2h5.3c-0.1,1.5-0.6,2.8-1.5,3.9
		c-0.9,1.2-2,2.1-3.4,2.8l-1.1-1.2c1.2-0.4,2.2-1.1,3.1-2.1L154.2,11z M156.7,19.1v-4.7h8.1v4.7H156.7z M163.2,15.8h-4.9v2h4.9V15.8
		z M163.2,13.8v-2.6h-1v2.6h-1.6v-7h1.6v3h1V6.6h1.6v7.2H163.2z"/>
	<path class="st5" d="M167.3,17.6v-1.4h11.8v1.4H167.3z M168.4,14.1v-1.4h1.8l-0.1-3.1h1.7l0.1,3.1h2.8l0.1-3.1h1.7l-0.2,3.1h1.9
		v1.4H168.4z M168.5,9.1V7.7h9.5v1.4H168.5z"/>
</g>
</svg>
