<?xml version="1.0" encoding="utf-8"?>
<!-- Generator: Adobe Illustrator 16.0.0, SVG Export Plug-In . SVG Version: 6.00 Build 0)  -->
<!DOCTYPE svg PUBLIC "-//W3C//DTD SVG 1.1//EN" "http://www.w3.org/Graphics/SVG/1.1/DTD/svg11.dtd">
<svg version="1.1" id="Layer_1" xmlns="http://www.w3.org/2000/svg" xmlns:xlink="http://www.w3.org/1999/xlink" x="0px" y="0px"
	 width="141.73px" height="51px" viewBox="0 0 141.73 51" enable-background="new 0 0 141.73 51" xml:space="preserve">
<g>
	<path d="M23.605,42.192c-1.689,1.397-3.488,2.095-5.396,2.095c-1.909,0-3.886-0.885-5.932-2.655l-0.414,1.998H4.702l6.772-31.742
		l7.381-0.975l-5.993,27.966c0.909,0.667,1.859,0.999,2.85,0.999c1.494,0,2.834-0.666,4.02-1.998
		c2.29-2.582,3.914-6.667,4.872-12.253c0.455-2.566,0.682-5.132,0.682-7.698c0-6.285-2.428-9.428-7.284-9.428
		c-3.8,0-6.927,1.096-9.379,3.289c-2.452,2.192-3.678,5.14-3.678,8.843c0,1.348,0.187,2.363,0.56,3.045
		c0.081,0.13,0.122,0.244,0.122,0.341c-2.631,0-4.288-0.82-4.97-2.46c-0.244-0.601-0.365-1.396-0.365-2.387
		c0-0.99,0.223-2.034,0.67-3.13c0.446-1.096,1.076-2.131,1.888-3.106c1.657-1.998,3.914-3.617,6.772-4.86
		c2.858-1.242,5.936-1.863,9.232-1.863c5.993,0,10.004,2.42,12.034,7.259c0.86,2.063,1.291,4.486,1.291,7.271
		c0,2.786-0.382,5.591-1.145,8.417C29.46,35.055,26.983,39.399,23.605,42.192z"/>
	<path d="M61.121,24.677c-2.014,2.111-4.962,3.492-8.843,4.142c-0.39,4.547-1.697,8.185-3.922,10.914
		c-2.225,2.728-4.888,4.092-7.99,4.092c-3.833,0-6.301-1.413-7.405-4.239c-0.39-0.99-0.585-2.086-0.585-3.289
		c0-1.202,0.102-2.424,0.305-3.666c0.203-1.243,0.523-2.521,0.962-3.837c0.991-2.972,2.428-5.384,4.312-7.235
		c2.241-2.208,4.937-3.313,8.088-3.313c4.271,0,6.407,2.655,6.407,7.966v0.048c0.162,0.033,0.438,0.049,0.828,0.049
		c0.893,0,2.042-0.284,3.447-0.853c1.405-0.568,2.725-1.283,3.959-2.144L61.121,24.677z M48.136,28.964
		c-0.893-0.227-1.34-0.966-1.34-2.217c0-1.25,0.52-2.111,1.559-2.582c-0.065-1.056-0.231-1.803-0.5-2.241
		c-0.268-0.438-0.792-0.658-1.571-0.658c-1.526,0-2.988,1.685-4.385,5.055c-1.397,3.37-2.095,6.362-2.095,8.977
		c0,1.607,0.146,2.627,0.438,3.057c0.292,0.43,0.601,0.703,0.926,0.816c0.324,0.114,0.763,0.17,1.315,0.17
		c1.136,0,2.265-0.999,3.386-2.996S47.747,31.888,48.136,28.964z"/>
	<path d="M73.982,36.955c0,1.429,0.609,2.144,1.827,2.144c1.121,0,1.981-0.357,2.582-1.072c0.601-0.714,1.194-1.827,1.778-3.337
		h2.095c-1.933,5.603-4.547,8.648-7.844,9.135c-0.52,0.065-1.161,0.098-1.924,0.098c-0.764,0-1.519-0.163-2.266-0.487
		c-2.079-0.877-3.118-2.59-3.118-5.14c0-1.364,0.374-3.54,1.121-6.529c0.747-2.988,1.121-5.05,1.121-6.188
		c0-1.705-0.601-2.558-1.803-2.558s-2.274,0.95-3.215,2.85c-0.276,0.536-0.503,1.121-0.682,1.754l-3.386,16.005h-7.186l5.286-24.945
		h7.186l-0.536,2.583c1.624-1.852,3.564-2.777,5.822-2.777c1.591,0,2.915,0.438,3.971,1.315c1.055,0.877,1.583,2.177,1.583,3.898
		c0,1.722-0.276,3.67-0.828,5.846l-1.193,4.824C74.112,35.428,73.982,36.289,73.982,36.955z"/>
	<path d="M108.501,34.689c-2.111,6.155-5.449,9.233-10.012,9.233c-2.939,0-4.572-1.526-4.896-4.58
		c-2.177,3.054-4.714,4.58-7.613,4.58s-4.868-1.421-5.908-4.263c-0.373-1.023-0.56-2.188-0.56-3.496s0.114-2.615,0.341-3.922
		c0.228-1.307,0.577-2.61,1.048-3.91c1.039-2.858,2.525-5.221,4.458-7.089c1.932-1.867,4.263-2.801,6.991-2.801
		c1.429,0,2.46,0.24,3.094,0.718c0.633,0.479,0.95,1.084,0.95,1.815v0.365l0.536-2.655h7.187l-3.581,16.955
		c-0.146,0.569-0.219,1.104-0.219,1.608c0,1.429,0.682,2.144,2.046,2.144c1.77,0,3.118-1.567,4.044-4.702H108.501z M95.932,23.435
		c0-0.308-0.143-0.702-0.426-1.182c-0.284-0.479-0.889-0.718-1.815-0.718s-1.827,0.496-2.704,1.486
		c-2.111,2.387-3.435,5.814-3.971,10.28c-0.082,0.682-0.122,1.405-0.122,2.168c0,1.478,0.308,2.509,0.926,3.094
		c0.357,0.357,0.804,0.536,1.339,0.536c0.991,0,1.892-0.394,2.704-1.181s1.373-1.864,1.681-3.228L95.932,23.435z"/>
	<path d="M121.826,34.689c-2.144,6.155-5.725,9.233-10.743,9.233c-1.315,0-2.493-0.471-3.532-1.413
		c-1.023-0.942-1.535-2.46-1.535-4.555c0-0.942,0.13-2.03,0.39-3.265l2.996-14.007h-1.656l0.414-1.998h1.632l1.51-6.894l7.381-0.999
		l-1.706,7.893h2.997l-0.39,1.998h-2.997l-3.191,14.958c-0.13,0.601-0.195,1.194-0.195,1.778c0,1.121,0.674,1.681,2.022,1.681
		c0.975,0,1.88-0.422,2.716-1.267c0.836-0.844,1.433-1.892,1.791-3.143H121.826z"/>
	<path d="M126.406,35.055c0,2.761,1.056,4.141,3.167,4.141c0.926,0,1.928-0.268,3.009-0.804c1.079-0.536,2.018-1.153,2.813-1.852
		c-0.894,4.921-3.769,7.381-8.624,7.381c-2.338,0-4.214-0.613-5.627-1.839c-1.413-1.226-2.12-3.252-2.12-6.078
		c0-3.8,0.966-7.479,2.899-11.035c1.478-2.712,3.492-4.645,6.042-5.798c1.315-0.617,2.679-0.926,4.092-0.926
		c2.306,0,3.873,0.435,4.702,1.304c0.828,0.869,1.242,2.026,1.242,3.471c0,2.858-1.142,5.278-3.423,7.259
		c-2.282,1.981-4.966,3.069-8.051,3.264C126.447,33.999,126.406,34.502,126.406,35.055z M134.153,22.679
		c0-1.202-0.415-1.802-1.243-1.802c-1.575,0.065-3.094,1.9-4.555,5.505c-0.617,1.543-1.112,3.134-1.486,4.774
		c1.916-0.064,3.609-0.929,5.079-2.594C133.418,26.898,134.153,24.937,134.153,22.679z"/>
</g>
</svg>
