<?xml version="1.0" encoding="utf-8"?>
<!-- Generator: Adobe Illustrator 16.0.0, SVG Export Plug-In . SVG Version: 6.00 Build 0)  -->
<!DOCTYPE svg PUBLIC "-//W3C//DTD SVG 1.1//EN" "http://www.w3.org/Graphics/SVG/1.1/DTD/svg11.dtd">
<svg version="1.1" id="Layer_1" xmlns="http://www.w3.org/2000/svg" xmlns:xlink="http://www.w3.org/1999/xlink" x="0px" y="0px"
	 width="196.271px" height="126.354px" viewBox="0 0 196.271 126.354" enable-background="new 0 0 196.271 126.354"
	 xml:space="preserve">
<g>
	<g>
		<path fill="#F15A29" d="M128.917,71.369c-4.238,0-7.02-3.121-7.02-7.863c0-4.257,2.593-7.842,7.146-7.842
			c2.993,0,5.775,1.644,6.281,5.123h-2.614c-0.357-1.813-1.77-2.887-3.709-2.887c-3.163,0-4.448,2.845-4.448,5.606
			c0,2.782,1.223,5.628,4.427,5.628c2.444,0,3.562-1.623,3.835-3.837h2.635C135.177,68.944,132.668,71.369,128.917,71.369z"/>
		<path fill="#F15A29" d="M147.037,71.009h-2.255v-1.624c-0.929,1.307-2.066,1.92-3.584,1.92c-2.402,0-3.709-1.412-3.709-3.963
			v-7.209h2.402v6.218c0,1.581,0.085,2.93,2.13,2.93c1.917,0,2.612-1.602,2.612-3.392v-5.755h2.404V71.009z"/>
		<path fill="#F15A29" d="M152.047,71.009h-2.383V56.001h2.383V71.009z"/>
		<path fill="#F15A29" d="M159.97,61.883h-2.192v5.733c0,1.034-0.022,1.56,1.243,1.56c0.338,0,0.59,0,0.949-0.042v1.897
			c-0.716,0.084-1.012,0.084-1.624,0.084c-3.161,0-2.971-1.581-2.971-4.047v-5.185h-1.813v-1.75h1.813v-3.268h2.403v3.268h2.192
			V61.883z"/>
		<path fill="#F15A29" d="M171.221,71.009h-2.255v-1.624c-0.929,1.307-2.066,1.92-3.584,1.92c-2.402,0-3.709-1.412-3.709-3.963
			v-7.209h2.402v6.218c0,1.581,0.085,2.93,2.13,2.93c1.917,0,2.612-1.602,2.612-3.392v-5.755h2.404V71.009z"/>
		<path fill="#F15A29" d="M179.92,62.219c-0.422-0.042-0.59-0.063-0.843-0.063c-2.383,0-3.141,1.791-3.141,4.068v4.785h-2.381
			V60.133h2.255v2.171c0.717-1.497,1.897-2.425,3.646-2.425c0.149,0,0.233,0.021,0.464,0.042V62.219z"/>
		<path fill="#F15A29" d="M185.608,71.369c-3.352,0-5.354-2.425-5.354-5.671c0-3.415,2.213-5.881,5.27-5.881
			c3.184,0,5.165,2.34,5.165,6.093v0.252h-8.031c0.063,2.192,1.137,3.436,2.993,3.436c1.328,0,2.107-0.59,2.593-1.981h2.297
			C189.994,69.999,188.054,71.369,185.608,71.369z M185.503,61.608c-1.582,0-2.572,1.032-2.803,2.952h5.585
			C188.138,62.724,187.083,61.608,185.503,61.608z"/>
	</g>
	<g>
		<path fill="#622D91" d="M125.653,99.218c-0.876-2.088,0.472-5.051-2.29-11.515c-2.761-6.466-10.033-6.398-10.033-6.398
			l-0.742,3.03l5.117,3.03c0,0-2.779-0.577-6.756,0.338c-5.564,1.278-5.768,14.186-4.758,15.981
			c1.053,1.871,5.521,5.567,8.957,5.118c3.435-0.449,6.598-3.659,6.598-3.659l5.994,5.656l3.435-4.173
			C131.175,106.626,126.528,101.305,125.653,99.218z M120.154,98.162c-0.54,0.825-5.972,7.947-8.218,2.515
			c-2.244-5.432,0.586-7.633,4.4-8.35C120.154,91.607,120.69,97.337,120.154,98.162z"/>
		<path fill="#622D91" d="M96.262,86.39l5.354-3.953c0,0-4.334-10.33-15.43-5.611c-11.096,4.717-11.35,11.478-11.478,12.881
			c-0.128,1.403-1.019,20.532,11.987,19.638c15.984-1.097,17.983-10.839,17.983-10.839l-5.484-2.168c0,0-1.788,3.571-5.229,4.337
			c-3.443,0.765-6.375,1.657-8.545,0.382c-2.167-1.275-7.022-8.991-1.657-15.558C91.16,76.445,96.262,86.39,96.262,86.39z"/>
		<path fill="#622D91" d="M132.155,84.998c0,0,1.482,0.79,1.616,6.422c0.134,5.632,0.134,8.86-0.808,11.891
			c-0.943,3.033-0.808,3.519-0.808,3.519l8.214-0.435c0,0-1.75-9.747,0-12.173c1.752-2.423,3.368-3.231,4.983-2.154
			c1.616,1.079,3.637,7.704,0.808,14.762c0.808,0.278,7.139,0,7.139,0s-2.964-9.239,0-12.607c2.962-3.367,4.981-2.154,4.981-2.154
			s4.83,2.913,1.887,14.762c-0.3,1.208,7.812-1.023,7.812-1.023s-1.885-9.158-0.942-13.064c0.942-3.906-3.368-8.486-8.486-7.744
			c-5.117,0.741-7.408,3.712-7.408,3.712s-1.075-4.05-5.118-3.712c-4.04,0.336-6.461,3.712-6.461,3.712l0.268-3.792L132.155,84.998z
			"/>
		<path fill="#622D91" d="M183.015,84.919c-3.556-0.053-5.982,0.811-6.547,1.035l0,0c-0.004-0.026-0.009-0.041-0.009-0.041
			l-7.677,0.133c0,0,1.483,1.322,1.617,10.763c0.134,9.438,0.134,14.849-0.808,19.928c-0.942,5.082-0.809,5.895-0.809,5.895
			l8.218-0.727c0,0-0.535-9.307-0.808-17.621c0.533,0.335,3.966,2.404,7.14,2.145c3.454-0.279,7.049-4.83,7.686-6.88
			C191.629,97.582,188.727,85.005,183.015,84.919z M184.769,97.813c-1.056,5.783-7.86-0.043-8.56-0.737
			c-0.061-0.059-0.119-0.166-0.173-0.289c-0.006-2.027,0.038-3.636,0.156-4.518c0.006-0.053,0.012-0.101,0.018-0.152
			c0.454-0.87,1.229-1.516,2.509-1.547C182.598,90.473,185.825,92.031,184.769,97.813z"/>
	</g>
	<g>
		<path fill="#1B2C59" d="M185.653,14.203c-5.769,0.481-9.23,5.302-9.23,5.302l0.385-5.414l-10.961,0.112
			c0,0,2.115,1.128,2.308,9.169c0.192,8.042,0.192,12.652-1.154,16.982c-1.346,4.328,6.184,4.4,6.184,4.4h4.393
			c0,0-2.5-13.917,0-17.378c2.5-3.461,4.808-4.615,7.115-3.077c2.308,1.538,5.192,10.997,1.154,21.074c1.154,0.4,10.191,0,10.191,0
			S198.759,14.386,185.653,14.203z"/>
		<g>
			<path fill="#1A2D5A" d="M18.418,18.731c0,0,3.389-4.229,6.217-6.827s9.391-9.45,18.236-11.889
				c1.734-0.422,7.692,8.204,7.692,8.204L20.437,42.063c0,0,14.358,13.845,89.098,9.358c0.384,3.718,1.281,13.46,1.281,13.46
				C57.999,88.599,18.13,49.243,18.13,49.243l-0.642,18.716c0,0-11.602,1.923-15.64,2.307C-3.439,42.575,4.3,3.443,4.3,3.443
				l16.521,0.289L18.418,18.731z"/>
			<path fill="#1A2D5A" d="M109.535,51.421c-53.275,3.198-75.865-2.916-84.45-6.693c-1.616,2.252-3.007,4.604-4.034,7.091
				c10.093,8.349,45.348,33.007,89.765,13.063C110.816,64.881,109.919,55.139,109.535,51.421z"/>
			<path fill="#1A2D5A" d="M109.535,51.421c-53.275,3.198-75.865-2.916-84.45-6.693c-1.616,2.252-3.007,4.604-4.034,7.091
				c10.093,8.349,45.348,33.007,89.765,13.063C110.816,64.881,109.919,55.139,109.535,51.421z"/>
			<path fill="#1A2D5A" d="M109.535,51.421c-53.275,3.198-75.865-2.916-84.45-6.693c-1.616,2.252-3.007,4.604-4.034,7.091
				c10.093,8.349,45.348,33.007,89.765,13.063C110.816,64.881,109.919,55.139,109.535,51.421z"/>
			<g>
				<polygon fill="#1A2D5A" points="65.311,48.929 47.909,46.665 41.135,35.596 41.962,22.692 52.997,13.812 57.819,19.803 
					49.421,26.562 48.967,33.658 52.55,39.511 62.736,40.837 69.246,34.827 68.597,30.965 63.9,28.087 60.75,29.55 62.904,32.199 
					56.939,37.054 52.952,32.155 53.21,24.572 64.402,19.374 75.604,26.239 77.521,37.657 				"/>
			</g>
			<path fill="#1A2D5A" d="M85.945,9.63l-6.281,2.692l1.154,34.998h9.679c0,0-0.384-20.128,0.961-23.589
				c1.346-3.461,5.144-6.61,5.144-6.61s2.595-1.648,4.599-0.313c0.769,0.514,4.743-5.512,4.743-5.512s-8.588-4.872-15.383,4.103
				C89.536,12.193,85.945,9.63,85.945,9.63z"/>
			<path fill="#1A2D5A" d="M124.404,34.628c0,0-3.143,5.517-9.615,5.32c-8.396-0.257-8.012-4.166-8.14-6.218
				c-0.114-1.806,7.435,2.512,15.447-0.897c5.192-1.988,5.514-7.756,3.398-12.691s-7.629-6.782-11.083-6.782
				c-3.453,0-8.469,3.063-8.469,3.063s-5.192,3.101-6.281,9.038c-0.818,4.459-3.91,23.397,12.307,23.076
				c16.217-0.32,16.602-12.295,16.602-12.295L124.404,34.628z M112.482,19.564c3.783-0.512,12.564,4.038,7.692,8.141
				c-2.563,1.024-9.358,2.755-13.716-0.514C106.842,23.475,108.701,20.077,112.482,19.564z"/>
			<path fill="#1A2D5A" d="M159.435,33.634c-1.25-2.981,0.673-7.211-3.269-16.441S141.84,8.058,141.84,8.058l-1.058,4.327
				l7.308,4.327c0,0-3.969-0.825-9.648,0.481c-7.947,1.827-8.236,20.255-6.793,22.82c1.502,2.671,7.884,7.947,12.788,7.308
				c4.903-0.642,9.422-5.225,9.422-5.225l8.557,8.076l4.904-5.961C167.319,44.21,160.685,36.614,159.435,33.634z M151.583,32.128
				c-0.769,1.176-8.525,11.345-11.73,3.589s0.833-10.896,6.281-11.922C151.583,22.769,152.352,30.951,151.583,32.128z"/>
			<path fill="#E51E25" d="M109.535,51.421c-4.608,0.276-8.969,0.479-13.127,0.625c-0.511,2.527-1.776,5.222-1.055,9.086
				c0.511,2.746,2.44,5.82,3.388,8.183c3.939-1.13,7.967-2.588,12.076-4.434C110.816,64.881,109.919,55.139,109.535,51.421z"/>
			<path fill="#FCD75B" d="M96.458,61.612c-1.259-2.277-0.869-5.982,0.021-9.569c-3.921,0.137-7.644,0.218-11.183,0.251
				c2.033,4.744,4.607,9.538,7.508,12.203c1.755,1.613,3.591,3.318,5.363,4.974c0.911-0.254,1.833-0.545,2.755-0.835
				C99.155,66.042,97.483,63.474,96.458,61.612z"/>
			<path fill="#00AEEF" d="M81.234,52.31l1.505,5.586l-0.135,14.342c4.995-0.386,10.192-1.267,15.564-2.767
				c0,0-6.908-6.624-8.449-8.713c-1.214-1.648-3.411-6.482-4.288-8.464C84.001,52.307,82.604,52.313,81.234,52.31z"/>
			<path fill="#622D91" d="M66.4,51.968c1.417,1.857,3.392,6.12,3.392,6.12L69.138,72.13c4.38,0.413,8.976,0.478,13.755,0.09
				l-0.153-14.324l-1.454-5.584C75.877,52.306,70.928,52.183,66.4,51.968z"/>
		</g>
	</g>
</g>
</svg>
