<?xml version="1.0" encoding="utf-8"?>
<!-- Generator: Adobe Illustrator 16.0.0, SVG Export Plug-In . SVG Version: 6.00 Build 0)  -->
<!DOCTYPE svg PUBLIC "-//W3C//DTD SVG 1.1//EN" "http://www.w3.org/Graphics/SVG/1.1/DTD/svg11.dtd">
<svg version="1.1" id="Layer_1" xmlns="http://www.w3.org/2000/svg" xmlns:xlink="http://www.w3.org/1999/xlink" x="0px" y="0px"
	 width="255px" height="255px" viewBox="0 0 255 255" enable-background="new 0 0 255 255" xml:space="preserve">
<g>
	<path fill="#26397B" d="M100.789,122.226l0.369,1.748h0.148l5.12-19.198h5.439l-9.329,30.766c-0.624,1.838-1.469,3.401-2.535,4.69
		c-1.067,1.287-2.601,1.932-4.603,1.932c-0.41,0-0.849-0.045-1.317-0.137c-0.468-0.09-0.931-0.191-1.391-0.307l0.542-3.691
		c0.18,0.032,0.427,0.064,0.738,0.098s0.558,0.049,0.739,0.049c0.968,0,1.735-0.414,2.301-1.242
		c0.566-0.829,1.005-1.809,1.316-2.941l0.886-2.708l-8.221-26.508h5.415L100.789,122.226z"/>
	<path fill="#26397B" d="M134.953,120.306c0,3.512-0.771,6.326-2.314,8.442s-3.684,3.175-6.424,3.175
		c-1.297,0-2.438-0.255-3.422-0.763s-1.83-1.255-2.535-2.24v12.725h-4.996v-36.87h4.455l0.32,3.052
		c0.705-1.132,1.566-2.006,2.584-2.621s2.199-0.923,3.545-0.923c2.771,0,4.93,1.165,6.473,3.495s2.314,5.415,2.314,9.254V120.306z
		 M129.955,117.033c0-2.609-0.43-4.738-1.291-6.387s-2.146-2.474-3.852-2.474c-1.068,0-1.979,0.304-2.732,0.911
		c-0.756,0.607-1.363,1.436-1.822,2.486v13.463c0.443,1.001,1.043,1.769,1.797,2.302c0.756,0.533,1.682,0.8,2.781,0.8
		c1.723,0,3.008-0.718,3.852-2.154c0.846-1.436,1.268-3.327,1.268-5.673V117.033z"/>
	<path fill="#26397B" d="M149.006,128.133c1.247,0,2.298-0.48,3.15-1.44c0.854-0.96,1.28-2.244,1.28-3.852h4.479l0.049,0.148
		c0.065,2.51-0.783,4.627-2.547,6.35c-1.765,1.723-3.901,2.584-6.412,2.584c-3.314,0-5.854-1.124-7.617-3.372
		c-1.765-2.248-2.646-5.111-2.646-8.59v-3.667c0-3.479,0.882-6.35,2.646-8.615c1.764-2.264,4.295-3.396,7.593-3.396
		c2.691,0,4.877,0.898,6.56,2.695c1.682,1.797,2.498,4.123,2.449,6.978l-0.074,0.147h-4.479c0-1.787-0.406-3.238-1.219-4.355
		c-0.812-1.117-1.891-1.675-3.236-1.675c-1.903,0-3.253,0.773-4.049,2.319s-1.193,3.504-1.193,5.872v3.676
		c0,2.402,0.397,4.368,1.193,5.897S147.086,128.133,149.006,128.133z"/>
	<path fill="#26397B" d="M176.4,104.775h4.973v26.631H176.4v-18.066l-0.147-0.025l-8.762,18.091h-4.997v-26.631h4.997v18.042
		l0.147,0.024L176.4,104.775z"/>
</g>
<g>
	<path fill="#E02526" d="M59.865,159.588c0-3.312,0.866-6.037,2.599-8.179c1.733-2.141,4.108-3.211,7.127-3.211
		c3.003,0,5.375,1.066,7.116,3.199c1.74,2.134,2.61,4.863,2.61,8.19v3.188c0,3.343-0.866,6.072-2.599,8.19
		c-1.732,2.118-4.101,3.177-7.104,3.177c-3.035,0-5.418-1.059-7.151-3.177s-2.599-4.848-2.599-8.19V159.588z M64.555,162.757
		c0,2.285,0.416,4.161,1.248,5.628c0.832,1.468,2.103,2.2,3.813,2.2c1.663,0,2.915-0.732,3.754-2.2
		c0.839-1.467,1.259-3.343,1.259-5.628v-3.196c0-2.254-0.42-4.118-1.259-5.593s-2.099-2.212-3.777-2.212
		c-1.694,0-2.957,0.733-3.789,2.2c-0.832,1.467-1.248,3.335-1.248,5.604V162.757z"/>
	<path fill="#E02526" d="M102.261,163.238c0,3.297-0.724,5.938-2.172,7.925s-3.458,2.98-6.03,2.98c-1.217,0-2.287-0.239-3.211-0.717
		c-0.924-0.477-1.718-1.178-2.38-2.102v11.944h-4.69V148.66h4.182l0.3,2.864c0.662-1.063,1.471-1.883,2.426-2.46
		c0.955-0.578,2.064-0.866,3.327-0.866c2.603,0,4.628,1.094,6.076,3.28c1.448,2.188,2.172,5.083,2.172,8.688V163.238z
		 M97.571,160.166c0-2.449-0.404-4.448-1.213-5.996c-0.809-1.548-2.014-2.321-3.616-2.321c-1.001,0-1.856,0.285-2.564,0.854
		c-0.708,0.57-1.278,1.348-1.709,2.333v12.639c0.416,0.939,0.978,1.659,1.687,2.16c0.708,0.5,1.579,0.75,2.611,0.75
		c1.617,0,2.822-0.673,3.616-2.021c0.793-1.348,1.19-3.122,1.19-5.325V160.166z"/>
	<path fill="#E02526" d="M115.799,174.144c-2.973,0-5.352-1.032-7.139-3.096c-1.787-2.064-2.68-4.706-2.68-7.925v-3.65
		c0-3.266,0.874-5.961,2.622-8.086c1.748-2.126,3.97-3.188,6.666-3.188c2.834,0,5.013,0.967,6.539,2.899
		c1.524,1.933,2.287,4.532,2.287,7.797v3.235h-13.446v0.993c0,2.156,0.474,3.939,1.421,5.349s2.291,2.113,4.032,2.113
		c1.293,0,2.402-0.203,3.327-0.611c0.924-0.408,1.802-1.006,2.634-1.791l1.479,2.911c-0.785,0.894-1.841,1.625-3.165,2.194
		C119.049,173.858,117.524,174.144,115.799,174.144z M115.268,151.756c-1.355,0-2.441,0.663-3.257,1.988
		c-0.817,1.326-1.271,3.004-1.363,5.035h8.802v-0.953c0-1.783-0.354-3.24-1.063-4.372
		C117.679,152.322,116.639,151.756,115.268,151.756z"/>
	<path fill="#E02526" d="M141.375,148.66h4.667v24.998h-4.667V156.7l-0.139-0.023l-8.225,16.981h-4.69V148.66h4.69v16.935
		l0.139,0.023L141.375,148.66z M143.593,138.379l0.047,0.139c0.062,1.817-0.497,3.288-1.676,4.413
		c-1.178,1.124-2.769,1.687-4.771,1.687c-2.018,0-3.615-0.563-4.794-1.687c-1.179-1.125-1.729-2.596-1.652-4.413l0.047-0.139h3.488
		c0,1.017,0.234,1.849,0.705,2.495c0.47,0.646,1.205,0.971,2.206,0.971c0.955,0,1.667-0.324,2.137-0.971s0.705-1.479,0.705-2.495
		H143.593z"/>
	<path fill="#E02526" d="M160.182,170.585c1.17,0,2.156-0.45,2.957-1.352c0.801-0.9,1.201-2.105,1.201-3.615h4.205l0.046,0.139
		c0.062,2.356-0.735,4.344-2.391,5.961c-1.656,1.617-3.662,2.426-6.019,2.426c-3.111,0-5.495-1.055-7.15-3.165
		c-1.656-2.11-2.484-4.798-2.484-8.063v-3.442c0-3.266,0.828-5.961,2.484-8.086c1.655-2.126,4.031-3.188,7.127-3.188
		c2.526,0,4.578,0.843,6.157,2.529s2.345,3.87,2.299,6.55l-0.069,0.139h-4.205c0-1.677-0.381-3.039-1.144-4.088
		c-0.762-1.048-1.775-1.572-3.038-1.572c-1.787,0-3.054,0.726-3.801,2.177c-0.747,1.452-1.12,3.289-1.12,5.513v3.451
		c0,2.254,0.373,4.1,1.12,5.535C157.104,169.868,158.379,170.585,160.182,170.585z"/>
	<path fill="#E02526" d="M177.74,157.093h4.667c2.664,0,4.755,0.767,6.272,2.299c1.517,1.533,2.275,3.516,2.275,5.949
		c0,2.449-0.759,4.447-2.275,5.995c-1.518,1.548-3.608,2.322-6.272,2.322h-9.334V148.66h4.667V157.093z M177.74,160.65v9.45h4.667
		c1.309,0,2.279-0.441,2.911-1.324c0.631-0.882,0.947-2.004,0.947-3.366c0-1.315-0.316-2.438-0.947-3.366
		c-0.632-0.929-1.603-1.394-2.911-1.394H177.74z"/>
	<path fill="#E02526" d="M202.484,163.1h-2.333v10.559h-4.69V148.66h4.69v10.466h2.218l5.753-10.466h5.845l-7.763,11.714
		l8.41,13.284h-6.1L202.484,163.1z"/>
	<path fill="#E02526" d="M216.254,159.588c0-3.312,0.866-6.037,2.6-8.179c1.732-2.141,4.108-3.211,7.127-3.211
		c3.004,0,5.375,1.066,7.116,3.199c1.74,2.134,2.61,4.863,2.61,8.19v3.188c0,3.343-0.866,6.072-2.599,8.19
		c-1.733,2.118-4.102,3.177-7.104,3.177c-3.035,0-5.418-1.059-7.15-3.177c-1.733-2.118-2.6-4.848-2.6-8.19V159.588z
		 M220.944,162.757c0,2.285,0.415,4.161,1.247,5.628c0.832,1.468,2.103,2.2,3.813,2.2c1.663,0,2.914-0.732,3.754-2.2
		c0.84-1.467,1.26-3.343,1.26-5.628v-3.196c0-2.254-0.42-4.118-1.26-5.593s-2.099-2.212-3.777-2.212c-1.694,0-2.957,0.733-3.789,2.2
		s-1.247,3.335-1.247,5.604V162.757z"/>
	<path fill="#E02526" d="M240.352,144.224h-4.806v-4.273h4.806V144.224z M245.157,173.658h-4.69V148.66h4.69V173.658z
		 M250.239,144.224h-4.782v-4.273h4.782V144.224z"/>
</g>
<g>
	<path fill="#26397B" d="M106.524,204.493h0.148l6.67-20.527h6.252v26.632h-5.021v-17.377l-0.148-0.024l-6.128,17.401h-3.397
		l-6.153-17.574l-0.147,0.025v17.549h-4.972v-26.632h6.276L106.524,204.493z"/>
	<path fill="#26397B" d="M124.737,195.608c0-3.528,0.924-6.433,2.77-8.713c1.846-2.281,4.377-3.422,7.593-3.422
		c3.2,0,5.727,1.137,7.581,3.409c1.854,2.273,2.781,5.182,2.781,8.726v3.396c0,3.561-0.923,6.47-2.769,8.726
		c-1.847,2.256-4.369,3.384-7.568,3.384c-3.233,0-5.772-1.128-7.618-3.384s-2.77-5.165-2.77-8.726V195.608z M129.734,198.984
		c0,2.435,0.443,4.434,1.329,5.996s2.239,2.344,4.062,2.344c1.771,0,3.104-0.781,3.999-2.344s1.342-3.562,1.342-5.996v-3.405
		c0-2.401-0.447-4.388-1.342-5.958c-0.895-1.571-2.235-2.356-4.024-2.356c-1.805,0-3.15,0.781-4.036,2.344s-1.329,3.553-1.329,5.971
		V198.984z"/>
	<path fill="#26397B" d="M150.532,210.598v-26.632h9.107c2.953,0,5.259,0.61,6.916,1.831c1.657,1.22,2.486,3.033,2.486,5.441
		c0,1.277-0.357,2.415-1.071,3.414s-1.727,1.745-3.039,2.235c1.641,0.379,2.899,1.131,3.777,2.257s1.317,2.437,1.317,3.933
		c0,2.482-0.78,4.356-2.339,5.622s-3.766,1.898-6.62,1.898H150.532z M155.504,195.338h4.455c1.362-0.017,2.388-0.341,3.077-0.973
		s1.033-1.555,1.033-2.769c0-1.296-0.369-2.261-1.107-2.893c-0.738-0.631-1.846-0.947-3.322-0.947h-4.136V195.338z M155.504,198.857
		v7.95h5.563c1.313,0,2.305-0.34,2.978-1.019s1.01-1.673,1.01-2.981c0-1.243-0.333-2.212-0.997-2.907
		c-0.665-0.695-1.661-1.043-2.99-1.043H155.504z"/>
	<path fill="#26397B" d="M188.806,183.966h4.973v26.632h-4.973v-18.066l-0.147-0.024l-8.762,18.091h-4.997v-26.632h4.997v18.042
		l0.147,0.024L188.806,183.966z"/>
</g>
<g>
	<path fill="#26397B" d="M161.1,75.347c-0.703,0.737-1.056,1.626-1.056,2.663c0,1.041,0.353,1.929,1.056,2.666
		c0.805,0.803,1.887,1.208,3.242,1.208c1.26,0,2.263-0.404,3.018-1.208c0.668-0.737,1.005-1.625,1.005-2.666
		c0-1.037-0.337-1.926-1.005-2.663c-0.755-0.789-1.758-1.182-3.018-1.182C162.986,74.166,161.904,74.559,161.1,75.347z
		 M164.191,72.633c0.067-0.201,0.025-0.426-0.126-0.681c-0.218-0.234-0.3-0.393-0.251-0.477c0.052-0.118,0.309-0.118,0.779,0
		c0.621,0.335,0.972,0.597,1.058,0.777c0.049,0.119-0.024,0.277-0.229,0.479l-0.253,0.352c1.512,0.337,2.665,0.922,3.469,1.762
		c0.74,0.768,1.15,1.741,1.232,2.913c0.504,0.052,1.335,0.06,2.487,0.025c1.178-0.015,2.15-0.067,2.921-0.149v-7.517
		c-0.019-0.251-0.277-0.561-0.781-0.93c-0.402-0.302-0.878-0.584-1.433-0.856c-0.436-0.149-0.663-0.297-0.678-0.45
		c-0.033-0.185,0.267-0.293,0.903-0.328c0.555,0.119,1.156,0.268,1.811,0.45c0.536,0.154,0.962,0.287,1.281,0.405
		c0.304,0.134,0.486,0.25,0.555,0.353c0.052,0.083,0.059,0.21,0.025,0.375l-0.052,0.454l-0.024,14.908
		c-0.018,2.381-0.066,4.021-0.15,4.929c-0.102,0.92-0.278,1.615-0.526,2.084c-0.253,0.421-0.462,0.544-0.632,0.378
		c-0.2-0.219-0.299-0.797-0.299-1.736V78.488l-3.145,0.177c-0.151,0.018-0.276,0.042-0.375,0.076l-0.229,0.101
		c-0.165,0.084-0.335,0.118-0.5,0.101c-0.234-0.034-0.63-0.167-1.181-0.401c-0.17,1.291-0.706,2.321-1.611,3.094
		c-0.973,0.835-2.262,1.255-3.869,1.255c-1.761,0-3.187-0.468-4.274-1.41c-1.005-0.836-1.57-1.875-1.684-3.117
		c-0.117-1.24,0.226-2.339,1.032-3.293c0.886-1.071,2.177-1.718,3.869-1.936l0.227-0.051
		C163.891,73.002,164.109,72.85,164.191,72.633z M148.422,69.438l0.274-0.073c0.118-0.036,0.238-0.049,0.354-0.049
		c0.201,0,0.52,0.023,0.955,0.072c0.537,0.07,0.849,0.162,0.928,0.28c0.053,0.067-0.007,0.232-0.173,0.501l-0.15,0.25
		c-0.067,0.102-0.119,0.211-0.151,0.331c-0.367,1.052-0.804,2.203-1.306,3.442c-0.502,1.207-0.865,2.011-1.083,2.413l2.263-0.1
		c0.252-0.033,0.452-0.083,0.601-0.15c0.103-0.035,0.214-0.085,0.331-0.152c0.166-0.1,0.342-0.168,0.527-0.202
		c0.283-0.049,0.744-0.049,1.383,0c0.504,0.034,0.895,0.135,1.182,0.3c0.235,0.135,0.352,0.304,0.352,0.507
		c0,0.185-0.099,0.333-0.305,0.45c-0.216,0.134-0.482,0.201-0.802,0.201c-1.544-0.083-3.336-0.125-5.38-0.125
		c-1.827,0-3.186,0.023-4.073,0.076c0,1.373-0.033,2.496-0.1,3.367c-0.05,0.872-0.15,1.575-0.303,2.113l3.019-0.102l0.655-0.1
		c0.216-0.051,0.4-0.074,0.552-0.074c0.25-0.019,0.579-0.011,0.979,0.023c0.487,0.034,0.762,0.134,0.831,0.302
		c0.032,0.084-0.025,0.234-0.178,0.453l-0.1,0.176l-0.051,0.176l-0.052,3.973c-0.014,0.599-0.057,1.119-0.124,1.557
		c-0.085,0.472-0.193,0.89-0.327,1.256c-0.299,0.635-0.562,0.923-0.78,0.856c-0.198-0.051-0.301-0.386-0.301-1.007v-6.938
		c-0.786,0-2.069,0.035-3.845,0.1c-2.012,0.103-3.664,0.211-4.952,0.328c-0.203,0.018-0.385,0.05-0.556,0.1
		c-0.1,0.035-0.224,0.084-0.375,0.153c-0.302,0.134-0.585,0.176-0.857,0.125c-0.381-0.101-1.063-0.428-2.035-0.978
		c-0.333-0.239-0.466-0.396-0.399-0.481c0.049-0.1,0.291-0.1,0.727,0c0.891,0.167,2.087,0.252,3.596,0.252
		c1.14,0,2.245-0.042,3.319-0.126v-5.429c-1.407,0.033-2.674,0.083-3.795,0.15c-1.293,0.069-2.079,0.141-2.365,0.226
		c-0.151,0.016-0.292,0.05-0.427,0.099c-0.067,0.036-0.169,0.075-0.304,0.129c-0.318,0.131-0.645,0.168-0.979,0.1
		c-0.47-0.1-1.321-0.443-2.562-1.033c-0.32-0.201-0.47-0.361-0.452-0.477c0-0.134,0.272-0.16,0.828-0.075
		c1.743,0.267,4.19,0.376,7.341,0.326c1.776-0.032,4.146-0.135,7.115-0.302h0.426c0.268-0.655,0.529-1.5,0.778-2.536
		c0.302-1.242,0.529-2.542,0.677-3.896c-0.734-0.017-2.184,0-4.346,0.052c-2.177,0.063-3.947,0.141-5.306,0.223
		c-0.201,0.017-0.384,0.051-0.552,0.101c-0.102,0.036-0.229,0.084-0.379,0.151c-0.351,0.119-0.651,0.149-0.906,0.1
		c-0.367-0.1-1.012-0.402-1.933-0.902c-0.318-0.184-0.486-0.339-0.502-0.454c-0.036-0.136,0.208-0.16,0.727-0.077
		c0.505,0.121,1.392,0.203,2.665,0.255c1.56,0.083,3.345,0.092,5.355,0.025l4.351-0.155
		C148.13,69.499,148.287,69.474,148.422,69.438z M113.473,85.856c-0.27-0.136-0.745-0.305-1.434-0.503
		c-0.351-0.102-0.51-0.21-0.477-0.327c0.015-0.15,0.292-0.268,0.828-0.35c0.536,0,1.074,0.016,1.609,0.047
		c0.454,0.035,0.821,0.077,1.106,0.127c0.287,0.068,0.463,0.167,0.529,0.303c0.05,0.084,0.05,0.241,0,0.478l-0.025,0.374
		l0.025,3.171c0,0.283,0.092,0.495,0.276,0.625c0.183,0.115,0.504,0.192,0.956,0.229l4.677-0.05
		c0.368-0.036,0.668-0.095,0.904-0.178c0.148-0.035,0.309-0.097,0.475-0.2c0.255-0.151,0.487-0.243,0.706-0.276
		c0.386-0.083,0.971-0.109,1.759-0.078c0.387,0.021,0.703,0.101,0.956,0.251c0.218,0.137,0.353,0.302,0.401,0.506
		c0.034,0.167-0.009,0.318-0.124,0.451c-0.137,0.135-0.32,0.211-0.554,0.227h-9.277c-0.923-0.016-1.592-0.152-2.011-0.405
		c-0.469-0.266-0.719-0.703-0.753-1.304l-0.051-2.515C113.957,86.225,113.791,86.023,113.473,85.856z M117.544,73.387
		c0.102-0.049,0.227-0.119,0.376-0.204c0.186-0.113,0.369-0.201,0.554-0.25c0.285-0.063,0.712-0.102,1.281-0.102
		c0.403,0,0.731,0.079,0.981,0.229c0.2,0.116,0.309,0.267,0.325,0.452c0.018,0.168-0.066,0.318-0.249,0.451
		c-0.201,0.136-0.47,0.203-0.808,0.203c-1.389,0.016-2.425,0.041-3.115,0.076c-1.057,0.035-1.895,0.084-2.514,0.153
		c0.286,0.333,0.451,0.576,0.501,0.727c0.05,0.101,0.042,0.216-0.025,0.35l-0.05,0.276c1.425,0.188,2.515,0.681,3.267,1.485
		c0.671,0.738,0.957,1.585,0.855,2.539c-0.1,0.938-0.561,1.735-1.381,2.388c-0.887,0.707-2.011,1.057-3.368,1.057
		c-1.408,0-2.573-0.35-3.494-1.057c-0.823-0.636-1.292-1.433-1.409-2.388c-0.117-0.938,0.168-1.774,0.855-2.513
		c0.769-0.822,1.901-1.323,3.392-1.511c0.203-0.164,0.286-0.372,0.251-0.625c-0.031-0.235-0.157-0.464-0.377-0.678
		c-0.451,0-0.938,0.024-1.458,0.073c-0.519,0.035-1.104,0.093-1.757,0.177c-0.138,0.016-0.254,0.04-0.353,0.075l-0.226,0.125
		c-0.219,0.104-0.429,0.127-0.629,0.077c-0.286-0.084-0.83-0.354-1.635-0.805c-0.436-0.251-0.629-0.436-0.578-0.552
		c0.05-0.117,0.342-0.126,0.88-0.027c1.07,0.17,2.264,0.253,3.568,0.253c1.241,0,3.126-0.083,5.658-0.253
		C117.133,73.522,117.359,73.456,117.544,73.387z M111.637,77.41c-0.553,0.519-0.831,1.165-0.831,1.933
		c0,0.754,0.278,1.402,0.831,1.938c0.604,0.583,1.433,0.877,2.49,0.877c1.037,0,1.869-0.295,2.488-0.877
		c0.552-0.537,0.829-1.185,0.829-1.938c0-0.768-0.277-1.414-0.829-1.933c-0.619-0.588-1.452-0.881-2.488-0.881
		C113.07,76.529,112.241,76.821,111.637,77.41z M111.761,71.099c-0.299-0.183-0.626-0.421-0.979-0.705
		c-0.236-0.216-0.338-0.367-0.303-0.454c0.033-0.1,0.31-0.09,0.832,0.028c0.534,0.066,1.046,0.108,1.532,0.126
		c0.686,0.031,1.724,0.04,3.118,0.024c0.352,0.016,0.627,0.093,0.828,0.227c0.185,0.117,0.27,0.261,0.252,0.425
		c-0.016,0.153-0.143,0.287-0.377,0.405c-0.25,0.116-0.593,0.183-1.03,0.199l-3.018,0.076
		C112.4,71.416,112.114,71.299,111.761,71.099z M122.119,69.214c-0.368-0.268-0.904-0.545-1.609-0.833
		c-0.453-0.166-0.653-0.318-0.604-0.449c0.032-0.154,0.345-0.236,0.932-0.253c0.47,0.018,0.962,0.093,1.482,0.229
		c0.302,0.083,0.744,0.216,1.332,0.4l0.05,0.025c0.336,0.104,0.546,0.229,0.629,0.38c0.05,0.083,0.05,0.25,0,0.5l-0.022,0.454
		l-0.028,9.1l1.333-0.076c0.203-0.035,0.367-0.087,0.505-0.151c0.08-0.036,0.19-0.099,0.325-0.203
		c0.184-0.118,0.37-0.198,0.551-0.249c0.321-0.085,0.771-0.109,1.36-0.079c0.317,0.021,0.578,0.095,0.78,0.229
		c0.184,0.117,0.283,0.26,0.302,0.426c0.014,0.168-0.043,0.311-0.176,0.427c-0.153,0.151-0.354,0.243-0.605,0.278l-4.397,0.074
		c-0.017,1.642-0.069,2.892-0.153,3.745c-0.066,0.69-0.168,1.24-0.301,1.661c-0.251,0.552-0.486,0.846-0.705,0.881
		c-0.268,0.033-0.401-0.351-0.401-1.159V69.997C122.697,69.76,122.504,69.502,122.119,69.214z"/>
</g>
<g>
	<path fill="#E02526" d="M212.84,94.557c0.132-0.054,0.256-0.08,0.371-0.08c0.198-0.012,0.501,0.013,0.905,0.08
		c0.421,0.051,0.634,0.151,0.65,0.294c0.012,0.092-0.087,0.253-0.295,0.49l-0.118,0.157c-0.342,1.888-0.67,3.454-0.982,4.696
		c-0.342,1.326-0.716,2.465-1.122,3.421c-0.197,0.314-0.358,0.463-0.49,0.453c-0.133-0.026-0.133-0.248,0-0.67
		c0.224-0.955,0.451-2.161,0.688-3.616c0.273-1.739,0.457-3.287,0.551-4.634l-2.456,0.09c-1.602,0.073-2.785,0.122-3.56,0.144
		c-1.336,0.066-2.325,0.126-2.967,0.176c-0.144,0.015-0.281,0.039-0.41,0.079c-0.067,0.027-0.152,0.061-0.259,0.101
		c-0.223,0.091-0.432,0.117-0.627,0.075c-0.289-0.064-0.8-0.286-1.533-0.665c-0.288-0.184-0.433-0.316-0.433-0.396
		c-0.013-0.118,0.197-0.144,0.629-0.076c0.917,0.146,2.398,0.215,4.44,0.215c1.873,0,3.684-0.045,5.425-0.139l1.259-0.118
		L212.84,94.557z M208.201,100.098c-0.129-0.117-0.359-0.249-0.687-0.392c-0.381-0.119-0.55-0.237-0.511-0.355
		c0.04-0.104,0.262-0.162,0.668-0.177c0.982,0.132,1.604,0.269,1.867,0.413c0.169,0.09,0.229,0.243,0.176,0.453l-0.02,0.234
		l-0.137,5.876c0.366,0,0.832-0.019,1.395-0.059c0.562-0.026,1.146-0.059,1.749-0.096c0.169-0.014,0.32-0.041,0.451-0.08
		c0.078-0.027,0.177-0.065,0.296-0.118c0.195-0.093,0.381-0.147,0.551-0.157c0.287-0.027,0.729,0.007,1.316,0.097
		c0.421,0.053,0.747,0.146,0.979,0.274c0.201,0.121,0.297,0.244,0.297,0.374c0,0.131-0.079,0.239-0.236,0.316
		c-0.184,0.077-0.405,0.105-0.667,0.077c-1.521-0.154-3.647-0.214-6.387-0.173c-2.188,0.023-4.368,0.108-6.545,0.253
		c-0.17,0.029-0.32,0.068-0.452,0.12c-0.091,0.04-0.188,0.085-0.294,0.137c-0.223,0.118-0.451,0.152-0.688,0.098
		c-0.315-0.065-1.003-0.313-2.063-0.746c-0.303-0.171-0.459-0.315-0.472-0.434c0-0.117,0.216-0.124,0.646-0.021
		c0.683,0.081,1.368,0.14,2.063,0.179c0.42,0.013,0.995,0.019,1.729,0.019l0.867,0.021l-0.022-4.934c0-0.17-0.123-0.346-0.373-0.53
		c-0.185-0.12-0.444-0.256-0.786-0.413c-0.262-0.118-0.372-0.224-0.332-0.314c0.025-0.105,0.229-0.159,0.607-0.159
		c0.968,0.094,1.593,0.217,1.867,0.375c0.171,0.092,0.237,0.261,0.198,0.511v0.275l-0.082,5.167l3.303-0.038l-0.019-5.561
		C208.445,100.399,208.358,100.229,208.201,100.098z M182.732,98.565c-0.432,0.406-0.646,0.91-0.646,1.513
		c0,0.59,0.215,1.094,0.646,1.512c0.484,0.459,1.135,0.689,1.947,0.689c0.812,0,1.461-0.229,1.946-0.689
		c0.431-0.418,0.648-0.922,0.648-1.512c0-0.604-0.218-1.107-0.648-1.513c-0.485-0.458-1.135-0.689-1.946-0.689
		C183.867,97.876,183.217,98.107,182.732,98.565z M187.47,95.401c0.078-0.04,0.179-0.091,0.295-0.156
		c0.159-0.106,0.3-0.179,0.433-0.218c0.22-0.051,0.549-0.079,0.983-0.079c0.326,0,0.582,0.062,0.764,0.178
		c0.173,0.092,0.263,0.21,0.277,0.355c0.013,0.13-0.054,0.248-0.197,0.352c-0.144,0.105-0.349,0.159-0.61,0.159
		c-0.876,0.013-1.688,0.034-2.435,0.06c-0.774,0.025-1.389,0.057-1.848,0.096c0.182,0.225,0.274,0.414,0.274,0.572
		c0,0.091-0.046,0.209-0.138,0.352l-0.098,0.197c1.114,0.145,1.964,0.536,2.555,1.18c0.537,0.59,0.767,1.258,0.688,2.005
		c-0.065,0.748-0.412,1.369-1.042,1.866c-0.693,0.565-1.578,0.844-2.652,0.844c-1.102,0-2.01-0.279-2.731-0.844
		c-0.656-0.513-1.021-1.138-1.103-1.888c-0.091-0.758,0.134-1.427,0.669-2.005c0.604-0.653,1.495-1.054,2.673-1.197
		c0.211-0.131,0.311-0.294,0.294-0.492c-0.012-0.169-0.109-0.341-0.294-0.51h-0.099c-0.444,0.013-0.807,0.026-1.079,0.038
		c-0.46,0.027-0.906,0.071-1.335,0.138c-0.107,0.014-0.198,0.033-0.278,0.059l-0.197,0.079c-0.155,0.092-0.313,0.112-0.47,0.058
		c-0.234-0.052-0.663-0.255-1.277-0.608c-0.316-0.184-0.459-0.322-0.432-0.415c0.024-0.091,0.248-0.096,0.667-0.019
		c0.894,0.121,1.836,0.185,2.83,0.197c1.036,0,2.392-0.058,4.069-0.178l0.313-0.019C187.146,95.507,187.325,95.454,187.47,95.401z
		 M183.108,93.946c-0.225-0.146-0.479-0.327-0.769-0.55c-0.183-0.17-0.261-0.287-0.233-0.353c0.023-0.093,0.24-0.086,0.647,0.021
		c0.418,0.052,0.818,0.084,1.197,0.098c0.54,0.025,1.348,0.032,2.438,0.019c0.274,0.013,0.49,0.072,0.648,0.177
		c0.145,0.091,0.211,0.194,0.197,0.312c-0.013,0.131-0.111,0.237-0.296,0.314c-0.196,0.094-0.464,0.153-0.805,0.179l-2.359,0.039
		C183.605,94.19,183.384,94.104,183.108,93.946z M185.269,105.148c-0.195,0.012-0.361,0.046-0.491,0.099
		c-0.092,0.025-0.189,0.072-0.295,0.137c-0.185,0.094-0.368,0.119-0.551,0.079c-0.261-0.065-0.766-0.275-1.514-0.628
		c-0.261-0.17-0.393-0.303-0.393-0.391c-0.012-0.106,0.156-0.126,0.51-0.062c0.749,0.105,1.789,0.15,3.127,0.138
		c0.772,0,1.973-0.032,3.597-0.098l1.552-0.04c0.091-0.013,0.178-0.025,0.257-0.039l0.177-0.059c0.104-0.04,0.2-0.072,0.295-0.099
		c0.154-0.027,0.365-0.039,0.626-0.039c0.524,0,0.842,0.059,0.944,0.175c0.065,0.08,0.04,0.238-0.08,0.473l-0.115,0.333
		l-0.021,0.904c-0.014,0.995-0.032,1.677-0.058,2.045c-0.039,0.55-0.127,1.14-0.257,1.769c-0.156,0.588-0.348,0.916-0.571,0.982
		c-0.223,0.064-0.345-0.211-0.373-0.825v-5.149L185.269,105.148z M191.321,93.181c-0.275-0.223-0.656-0.438-1.141-0.648
		c-0.339-0.132-0.488-0.25-0.45-0.354c0.039-0.117,0.287-0.183,0.746-0.196c0.222,0.014,0.463,0.052,0.727,0.118
		c0.17,0.037,0.405,0.106,0.707,0.196l0.434,0.118c0.365,0.118,0.588,0.235,0.668,0.354c0.065,0.078,0.07,0.217,0.018,0.413
		l-0.038,0.333v5.876l0.336-0.02l0.453-0.02c0.142-0.039,0.272-0.086,0.391-0.137c0.064-0.025,0.149-0.071,0.255-0.139
		c0.169-0.117,0.341-0.197,0.514-0.235c0.273-0.064,0.693-0.085,1.255-0.059c0.25,0.014,0.438,0.07,0.571,0.177
		c0.13,0.106,0.195,0.223,0.195,0.353c0,0.131-0.054,0.25-0.157,0.355c-0.105,0.103-0.243,0.163-0.411,0.174l-3.454,0.08
		c-0.018,0.72-0.059,1.324-0.122,1.807c-0.051,0.459-0.129,0.84-0.23,1.142c-0.181,0.43-0.354,0.661-0.522,0.688
		c-0.192,0.038-0.289-0.258-0.289-0.888v-8.88C191.759,93.605,191.608,93.403,191.321,93.181z"/>
</g>
<g>
	<path fill="#26397B" d="M45.487,79.167c0.063-0.152,0.129-0.314,0.194-0.479c0.077-0.086,0.151-0.175,0.229-0.264
		C45.804,78.703,45.671,78.958,45.487,79.167c0.748-0.849,0.748-0.849,1.495-1.699c-0.136,0.009-0.246,0.029-0.359,0.048
		c0.265-0.364,0.515-0.744,0.751-1.149c-0.072-0.082-0.156-0.169-0.246-0.256c0.128-0.109,0.265-0.195,0.412-0.263
		c-0.195,0.023-0.374,0.071-0.539,0.14c-0.042-0.041-0.073-0.075-0.121-0.117c-0.07,0.083-0.128,0.175-0.186,0.269
		c-0.678,0.429-1.059,1.25-1.171,2.15c-0.052,0.195-0.058,0.408-0.049,0.628c0.005-0.005,0.007-0.011,0.014-0.016
		C45.487,78.992,45.481,79.079,45.487,79.167z M46.11,77.651c0.031-0.068,0.062-0.132,0.093-0.2
		c-0.018,0.063-0.035,0.125-0.052,0.186C46.139,77.643,46.122,77.646,46.11,77.651z"/>
	<path fill="#26397B" d="M52.644,150.963c-0.224-0.628-0.45-1.267-0.675-1.91c-3.561-9.347-4.962-18.811-5.305-28.786
		c-0.193-5.613,2.703-17.425,4.742-27.355c0.227-1.104,0.443-2.185,0.645-3.229c-0.518-3.686,4.07-7.185,1.369-11.821
		c-0.875-1.147-2.735-2.031-4.433-2.021c-0.585-0.208-1.055-0.173-1.447,0.009c0.048-0.007,0.089-0.024,0.139-0.028
		c-0.097,0.19-0.202,0.367-0.305,0.546c0.109,0.127,0.198,0.244,0.266,0.356c-0.716,0.814-1.435,1.629-2.152,2.444
		c-0.006-0.083-0.009-0.165-0.014-0.248c-0.606,0.664-1.245,1.279-1.887,1.873c-0.655,0.604-1.305,1.195-1.931,1.801
		c-0.256,0.146-0.504,0.296-0.739,0.453c-0.821,0.482-1.403,1.255-1.934,2.091c-0.017,0.011-0.036,0.022-0.053,0.032
		c-0.041,0.248-0.106,0.486-0.19,0.721c0.133-0.13,0.27-0.25,0.402-0.392c0.016-0.007,0.029-0.017,0.043-0.027
		c0.094-0.105,0.184-0.208,0.263-0.296c0,0.001,0.002,0.001,0.002,0.001c-0.028,0.066-0.064,0.126-0.098,0.191
		c0.009-0.005,0.018-0.011,0.024-0.016c-0.01,0.012-0.022,0.024-0.034,0.036c-0.275,0.561-0.653,1.028-1.094,1.442
		c-0.038,0.055-0.086,0.101-0.125,0.154c0.372-0.198,0.722-0.415,1.055-0.65c-0.203,0.35-0.507,0.637-0.877,0.86
		c-0.146,0.041-0.304,0.087-0.463,0.133c-0.071,0.072-0.153,0.132-0.228,0.199c-0.349,0.621-0.857,1.148-1.545,1.479
		c-0.048,0.048-0.085,0.104-0.136,0.149c-0.633,0.677-1.318,1.34-2.046,1.927c-0.422,0.53-0.993,0.947-1.717,1.173
		c-0.551,0.307-1.123,0.542-1.706,0.703c-0.165,0.121-0.335,0.227-0.511,0.314c1.848-0.101,4.047-1.003,5.873-2.264
		c3.042-2.6,5.334-4.348,8.707-5.261c-0.406,0.717-3.61,9.746-4.133,12.299c-0.334,1.778-0.731,3.45-1.134,5.09
		c-0.402,1.642-0.807,3.253-1.154,4.908c-0.186,1.086-0.665,2.979-0.867,4.041c-0.402,2.123-0.85,2.784-1.217,5.221
		c-0.229,1.436-0.442,2.87-0.644,4.295c-0.201,1.429-0.387,2.852-0.557,4.264c-0.219,2.141-0.395,4.36-0.491,6.613
		c-0.094,2.254-0.11,4.544-0.006,6.821c0.029,1.055,1.054,11.011,1.134,12.079c0.112,0.811,0.239,1.605,0.377,2.405
		c1.923,11.14,5.72,22.266,13.833,23.324C61.361,174.24,57.356,164.217,52.644,150.963z M47.729,76.88
		c0.22,0.451,0.103,0.778-0.174,1.042C47.672,77.627,47.732,77.279,47.729,76.88z"/>
	<path fill="#26397B" d="M39.453,84.821c-0.002,0.007-0.003,0.014-0.005,0.02c-0.063,0.043-0.125,0.088-0.19,0.128
		C39.322,84.919,39.388,84.869,39.453,84.821z"/>
	<path fill="#26397B" d="M97.203,84.968c-5.758-7.074-14.415-0.483-20.657,2.382c-1.007,0.713-1.961,1.454-2.855,2.186
		c-0.893,0.734-1.722,1.463-2.471,2.146c-1.049,0.864-2.044,1.712-2.971,2.504c-0.863,0.65-1.736,1.26-2.628,1.799
		c-0.979,0.662-1.975,1.296-3.003,1.892c-0.881,0.509-1.784,0.988-2.714,1.429c-0.56,0.429-1.156,0.834-1.773,1.214
		c-0.619,0.38-1.26,0.739-1.922,1.079c-3.058,1.524-6.158,3.006-9.21,4.132c-1.018,0.375-2.032,0.709-3.037,0.995
		c-0.975,0.552-1.963,1.07-2.965,1.578c-2.235,0.804-4.396,1.708-6.47,2.719c-2.075,1.009-6.618,3.507-5.949,3.348
		c-3.802,2.195-9.857,5.408-5.337,4.011c-5.168,2.02-5.587,2.233-0.604,0.872c-5.063,1.447-5.082,1.455-0.032,0.033
		c-5.062,1.434-5.113,1.451-0.096,0.083c-4.98,1.443-4.925,1.518,0.255,0.853c-5.18,0.714-5.288,0.666-0.311-0.605
		c-5,1.272-4.939,1.325,0.234,0.608c-5.135,0.796-5.07,0.806,0.156,0.174c-5.211,0.65-4.663,0.544,0.72-0.194
		c-4.547,0.997,3.069,0.905,7.221,0.611c0.007-0.154,4.803-0.901,7.212-1.688c2.412-0.788,4.833-1.72,7.275-2.561
		c0.99-0.371,1.98-0.736,2.971-1.077c0.735-0.163,1.459-0.351,2.172-0.556c0.713-0.209,1.417-0.438,2.11-0.687
		c2.738-1.396,5.543-2.682,8.389-3.915c0.951-0.41,1.905-0.814,2.861-1.215c1.136-0.451,2.25-0.9,3.353-1.346
		c1.099-0.448,2.183-0.896,3.251-1.349c1.072-0.433,2.142-0.887,3.209-1.358c1.064-0.471,2.127-0.958,3.191-1.466
		c1.326-0.754,2.741-1.448,4.2-2.151c2.946-1.782,6.109-3.451,8.928-4.979c0.347-0.2,0.704-0.399,1.056-0.587
		C96.652,96.183,100.491,88.897,97.203,84.968z"/>
	<path fill="#26397B" d="M18.271,110c-14.249-0.253-21.355-0.559-3.381-0.201c-17.221-0.377-1.441-0.064,6.614-0.036
		c-8.396,0.064,2.085,0.277,3.379,0.486c1.109,0.208,2.207,0.458,3.291,0.742c1.064,0.234,2.122,0.501,3.173,0.795
		c1.111,0.382,2.23,0.761,3.35,1.133c1.121,0.374,2.246,0.742,3.375,1.11c1.12,0.361,2.236,0.723,3.349,1.086
		c1.113,0.366,2.225,0.73,3.338,1.098c4.29,0.947,8.333,2.271,12.37,3.68c0.805,0.282,1.612,0.568,2.421,0.853
		c8.471,1.544,16.969,5.06,24.263,9.632c2.616,1.081,3.304,6.817,0.243,8.666c-9.012,3.284-17.061-3.162-24.488-7.551
		c-0.953-0.54-1.892-1.044-2.829-1.495c-0.935-0.446-1.862-0.838-2.792-1.152c-0.718-0.345-1.438-0.685-2.162-1.021
		c-2.892-1.344-5.836-2.61-8.928-3.704c-1.002-0.352-2.011-0.677-3.029-0.968c-1.017-0.29-2.05-0.548-3.093-0.766
		c-0.988-0.34-1.975-0.689-2.952-1.048c-0.976-0.362-1.946-0.737-2.905-1.127c-1.029-0.473-2.042-0.98-3.048-1.527
		c-1.002-0.549-1.997-1.139-2.982-1.777c-0.867-0.606-1.703-1.264-2.499-1.977c-0.797-0.713-1.557-1.486-2.27-2.324
		c-0.335-0.402-10.732-1.435-4.517-1.39C7.205,110.481,3.908,109.976,18.271,110c-14.469-0.213-25.248-0.754-7.006-0.054
		C-6.977,109.246,3.802,109.787,18.271,110z"/>
</g>
</svg>
