<?xml version="1.0" encoding="utf-8"?>
<!-- Generator: Adobe Illustrator 16.0.0, SVG Export Plug-In . SVG Version: 6.00 Build 0)  -->
<!DOCTYPE svg PUBLIC "-//W3C//DTD SVG 1.1//EN" "http://www.w3.org/Graphics/SVG/1.1/DTD/svg11.dtd">
<svg version="1.1" id="Layer_1" xmlns="http://www.w3.org/2000/svg" xmlns:xlink="http://www.w3.org/1999/xlink" x="0px" y="0px"
	 width="308.976px" height="430.866px" viewBox="0 0 308.976 430.866" enable-background="new 0 0 308.976 430.866"
	 xml:space="preserve">
<g>
	<path fill="#E12526" d="M91.344,273.192C79.503,255.227,70.52,235.219,70.52,213.17c-0.408,20.824,8.167,39.608,18.375,57.165
		c-1.225-2.042-3.267-3.676-4.899-5.309c2.365,3.262,4.931,6.352,7.674,9.261c-1.985-2.16-3.87-4.427-5.634-6.811
		C87.67,269.519,89.304,271.56,91.344,273.192z"/>
	<path fill="#E12526" d="M146.667,303.746c-5.229-0.345-10.457-1.084-15.684-2.089c5.997,1.21,12.048,2.253,18.343,2.567
		C148.438,304.078,147.551,303.915,146.667,303.746z"/>
	<path fill="#E12526" d="M139.621,302.159c-8.248-2.136-16.278-5.223-23.786-9.266C123.308,296.978,131.312,300.099,139.621,302.159
		z"/>
	<path fill="#E12526" d="M139.621,302.159c2.334,0.605,4.684,1.135,7.046,1.587c0.341,0.021,0.683,0.052,1.025,0.071
		C144.974,303.378,142.283,302.82,139.621,302.159z"/>
	<path fill="#E12526" d="M91.67,274.287c6.951,7.567,15.182,13.77,24.165,18.606C106.885,288.003,98.696,281.742,91.67,274.287z"/>
	<path fill="#E12526" d="M125.643,300.55c1.781,0.395,3.56,0.767,5.34,1.107C129.199,301.299,127.421,300.924,125.643,300.55z"/>
	<path fill="#E12526" d="M240.21,262.917c-0.086,0.428-0.167,0.859-0.239,1.293c10.563-22.691,9.5-48.754,1.133-72.087
		c-0.106-0.197-0.207-0.397-0.315-0.593C249.635,214.61,249.781,240.225,240.21,262.917z"/>
	<path fill="#E12526" d="M220.372,283.4c1.453-1.566,2.827-3.188,4.131-4.855c1.638-2.611,3.21-5.292,4.684-8.034
		C226.605,275.022,223.646,279.336,220.372,283.4z"/>
	<path fill="#E12526" d="M201.181,302.184c21.232-12.657,35.932-33.074,43.281-56.348c-1.633,7.35-4.083,14.29-6.124,21.233
		c0.662-1.372,1.283-2.758,1.872-4.152c1.362-6.83,4.277-13.023,4.661-19.939C238.746,267.477,222.822,289.117,201.181,302.184z"/>
	<path fill="#E12526" d="M226.861,167.907c-1.771-2.208-3.654-4.324-5.639-6.34c10.611,7.45,17.712,18.641,24.466,29.146
		c-5.922-11.844-14.261-22.161-24.23-30.53c-2.239-1.745-4.575-3.368-7.043-4.809c-2.034-1.654-4.147-3.215-6.334-4.674
		c4.709,2.796,9.188,5.966,13.377,9.483c6.268,4.884,11.778,10.729,17.288,16.239c-8.675-11.637-19.984-20.745-32.729-27.055
		c-2.465-1.542-5.015-2.96-7.644-4.242c7.76,2.481,14.906,6.423,21.64,10.825c3.138,2.374,6.13,4.936,8.954,7.676
		c-2.313-2.3-4.736-4.486-7.259-6.552c2.464,1.652,4.874,3.354,7.238,5.057c-5.304-4.843-11.131-8.969-17.329-12.37
		c-3.693-2.357-7.531-4.49-11.487-6.384c-1.727-0.495-3.465-0.98-5.213-1.44c3.212,1.269,6.371,2.689,9.455,4.258
		c-6.113-2.693-12.509-4.739-19.065-6.119c-0.785-0.229-1.573-0.45-2.368-0.656c4.025,0.57,8.025,1.477,11.979,2.517
		c-0.903-0.357-1.809-0.706-2.719-1.039c5.175,0.776,10.021,2.537,14.749,4.45c0.53,0.151,1.058,0.302,1.583,0.45
		c-11.072-5.167-22.896-7.825-34.792-8.213c-2.713-0.384-5.467-0.638-8.256-0.753c3.228-0.418,6.497-0.49,9.773-0.362
		c13.879,1.035,27.486,5.18,39.808,12.187c-2.692-1.046-5.384-2.203-8.116-3.308c-0.75-0.215-1.503-0.433-2.259-0.652
		c5.172,2.103,10.015,4.773,15.275,6.818c-11.023-6.991-23.109-11.678-35.674-14.299c3.496,0.398,6.963,0.87,10.358,1.233
		c-7.693-2.254-15.557-3.253-23.412-3.206c-2.26-0.217-4.529-0.375-6.805-0.47c8.167-0.816,15.925-0.816,24.091,0
		c-4.015-0.821-8.049-1.314-12.09-1.533c-5.026,0.751-10.235,0.958-15.339,1.579c-3.434,0.57-6.852,1.264-10.209,2.161
		c-0.737,0.25-1.466,0.529-2.188,0.833c-0.507,0.082-1.014,0.163-1.518,0.253c1.225-0.393,2.46-0.753,3.705-1.086
		c3.292-1.119,6.727-1.736,10.209-2.161c3.018-0.5,6.046-0.907,9.056-1.271c-10.463,0.154-20.693,2.338-30.277,6.18
		c-1.893,0.521-3.758,1.107-5.594,1.755c11.856-5.042,24.479-8.088,37.448-8.377c-8.557-0.026-17.12,1.096-25.559,2.893
		c3.574-1.287,7.224-2.376,10.916-3.268c-5.895,0.951-11.611,2.551-17.095,4.704c-1.794,0.45-3.583,0.925-5.363,1.421
		c5.717-3.675,12.25-5.308,18.783-7.758c-16.166,3.44-30.883,11.227-43.42,21.65c1.948-2.074,3.926-4.104,5.855-6.133
		c-3.903,3.186-7.505,6.702-10.795,10.483c-0.626,0.583-1.249,1.17-1.863,1.766c4.084-5.716,9.392-11.025,14.7-15.516
		c-3.829,2.826-7.432,5.939-10.787,9.294c-4.596,6.294-9.693,12.235-12.969,19.176c-1.752,2.468-3.369,5.039-4.849,7.696
		c0.853-2.219,1.77-4.407,2.731-6.559c-1.823,3.417-3.429,6.947-4.821,10.561c-0.394,0.807-0.774,1.62-1.143,2.44
		c1.3-4.071,2.922-8.048,4.875-11.887c-1.655,2.973-3.158,6.03-4.49,9.159c1.376-4.103,2.938-8.145,4.503-12.115
		c-3.715,6.867-6.339,14.139-7.966,21.607c-0.21,0.689-0.415,1.38-0.608,2.075c0.816-8.982,4.899-16.741,7.35-24.907
		c-4.53,8.738-7.645,18.117-9.329,27.731c-0.417,3.662-0.725,7.323-0.792,10.985c-0.33,2.426-0.558,4.884-0.672,7.371
		c-0.087-6.145,0.403-12.297,1.465-18.356c0.339-2.983,0.751-5.965,1.163-8.949c-2.545,9.414-3.383,19.104-2.68,28.665
		c-0.025,0.779-0.04,1.56-0.042,2.342c-0.604-4.452-1.016-8.951-1.363-13.45c-0.245,6.783,0.313,13.532,1.605,20.108
		c0.252,3.301,0.704,6.548,1.33,9.729c-2.849-8.271-3.575-17.147-4.568-25.753c-0.171,11.226,2.074,22.229,6.197,32.522
		c0.556,1.942,1.181,3.856,1.872,5.738c-1.869-3.56-3.583-7.218-5.21-10.904c2.043,6.712,4.976,13.044,8.632,18.89
		c0.073,0.146,0.145,0.292,0.217,0.437c-1.368-1.922-2.684-3.877-3.95-5.851c1.425,2.724,2.997,5.344,4.699,7.854
		c-3.548-5.144-6.625-10.658-9.189-16.43c3.168,8.099,7.559,15.587,12.905,22.276c2.414,3.752,5.124,7.293,8.091,10.6
		c-9.134-8.359-16.451-18.669-20.996-30.426c4.688,12.224,12.332,22.867,21.884,31.396c2.056,2.218,4.228,4.326,6.512,6.31
		c-4.045-2.69-7.934-5.633-11.655-8.716c5.188,5.188,11.041,9.612,17.334,13.224c0.115,0.082,0.229,0.167,0.342,0.25
		c-0.863-0.402-1.72-0.81-2.57-1.225c1.621,1.026,3.276,1.982,4.957,2.876c0.068,0.046,0.138,0.09,0.206,0.136
		c-4.2-2.13-8.25-4.526-12.103-7.095c0.656,0.521,1.323,1.028,1.995,1.524c3.589,2.237,7.329,4.369,11.194,6.283
		c1.544,0.989,3.124,1.925,4.736,2.813c-5.612-2.384-10.968-5.416-15.93-9.096c-0.808-0.503-1.61-1.012-2.402-1.524
		c5.78,4.496,12.114,8.12,18.782,10.87c6.599,3.58,13.736,6.289,21.26,7.982c-3.024-0.288-6.034-0.721-9.01-1.295
		c2.149,0.556,4.309,1.005,6.472,1.363c-0.524-0.043-1.049-0.088-1.573-0.139c2.718,0.543,5.444,0.923,8.17,1.15
		c0.637,0.019,1.274,0.03,1.91,0.036c0.354,0.054,0.708,0.101,1.063,0.149c-0.991-0.042-1.981-0.102-2.974-0.186
		c-1.911-0.057-3.82-0.164-5.72-0.334c4.014,0.63,8.034,0.923,12.03,0.905c2.623,0.25,5.281,0.382,7.97,0.382
		c4.768,0,9.44-0.406,13.989-1.177c-1.782,0.563-3.584,1.074-5.407,1.523c2.793-0.522,5.533-1.208,8.212-2.043
		c2.852-0.585,5.647-1.318,8.384-2.188c-19.516,7.485-41.375,8.644-61.511,1.372c21.078,7.75,44.743,6.084,65.281-2.67
		c5.006-1.858,9.785-4.185,14.283-6.927c-9.002,6.939-19.578,11.434-30.158,15.313c1.863-0.428,3.701-0.927,5.514-1.485
		c8.991-4.284,18.298-8.514,26.176-14.783c2.356-1.509,4.63-3.134,6.816-4.865c-9.271,8.935-20.494,15.8-32.992,19.648
		c-0.752,0.358-1.501,0.716-2.247,1.076c13.589-4.024,25.797-11.432,35.75-21.137c7.144-5.748,13.317-12.65,18.236-20.428
		c-0.977,2.104-2.02,4.178-3.116,6.218c1.32-2.31,2.541-4.672,3.653-7.08c1.342-2.18,2.584-4.428,3.726-6.735
		c-2.834,7.805-6.858,15.198-12.063,21.85c-0.42,0.669-0.843,1.338-1.271,1.998c6.145-7.43,10.718-15.828,13.755-24.702
		c3.745-7.804,6.308-16.282,7.457-25.202c0.077,4.828-0.194,9.649-0.797,14.381c1.339-6.695,1.75-13.455,1.332-20.126
		c0.087-1.479,0.137-2.966,0.146-4.464c0.419,2.607,0.746,5.227,0.973,7.849c0.041-4.553-0.352-9.031-1.121-13.403
		c-0.421-7.042-1.717-13.847-3.782-20.309c0.721,1.42,1.403,2.857,2.045,4.313c-0.877-2.447-1.882-4.817-2.996-7.117
		c-2.409-6.699-5.653-12.998-9.607-18.773c9.259,11.928,15.899,25.859,18.646,40.792c0.601,2.524,1.159,5.05,1.716,7.556
		C249.21,201.107,240.268,182.616,226.861,167.907z M144.017,133.958c-9.044,3.979-17.767,8.924-25.603,15.111
		c-1.41,0.869-2.792,1.778-4.144,2.728c3.895-3.475,8.04-6.688,12.026-9.866c-2.826,1.663-5.56,3.476-8.19,5.425
		c-3.438,2.732-6.65,5.704-9.619,8.888c-1.928,1.622-3.782,3.327-5.555,5.114c4.534-5.178,9.626-9.893,15.174-14.002
		c3.142-2.498,6.47-4.799,9.987-6.865c-0.594,0.479-1.193,0.959-1.796,1.44C131.878,138.646,137.812,135.948,144.017,133.958z
		 M77.87,213.987c0.236,2.476,0.56,4.951,0.971,7.415c0.018,1.003,0.05,2.002,0.103,2.996
		C78.363,220.972,77.999,217.496,77.87,213.987z"/>
	<path fill="#E12526" d="M200.13,143.378c1.528,0.437,3.048,0.88,4.559,1.319c-2.055-0.835-4.16-1.584-6.366-2.165
		C198.928,142.809,199.53,143.09,200.13,143.378z"/>
	<path fill="#E12526" d="M94.203,168.256c-1.183,1.897-2.273,3.838-3.279,5.814c0.826-1.481,1.69-2.943,2.592-4.38
		C93.744,169.21,93.972,168.732,94.203,168.256z"/>
	<path fill="#E12526" d="M249.28,213.781c-2.039-8.581-4.576-17.128-9.309-24.701c0.394,1.008,0.768,2.024,1.133,3.043
		c5.47,10.073,7.48,21.675,9.483,32.889C250.404,221.218,249.958,217.47,249.28,213.781z"/>
	<path fill="#E12526" d="M98.562,162.415c-1.791,2.349-3.477,4.776-5.046,7.275c-0.511,1.079-1.013,2.168-1.503,3.266
		C93.958,169.309,96.147,165.787,98.562,162.415z"/>
	<path fill="#E12526" d="M228.967,163.626c5.788,5.754,10.887,12.22,15.087,19.329C239.942,175.759,234.822,169.306,228.967,163.626
		z"/>
	<path fill="#E12526" d="M108.494,150.698c-3.643,3.642-6.959,7.566-9.932,11.716c2.623-3.439,5.474-6.708,8.536-9.771
		C107.57,151.999,108.037,151.352,108.494,150.698z"/>
	<path fill="#E12526" d="M177.091,133.141c-1.795-0.066-3.583-0.073-5.364-0.034c1.568,0.005,3.137,0.049,4.706,0.134
		C176.652,133.208,176.872,133.176,177.091,133.141z"/>
</g>
<path fill="#FFFFFF" d="M230.419,178.838"/>
<g>
	<defs>
		<path id="SVGID_1_" d="M243.804,179.5l-9.887-13.333c0,0-2.133-2.375-3.167-2.54c-0.774-0.123-1.783-2.543-1.783-2.543
			s-0.545-0.638-0.802-0.709c-26.66-7.458-70.615,0.546-61.481,57.407c9.017,56.137-39.764,60.649-72.946,55.51
			c-0.924-0.143-2.38-0.288-2.38-0.288l0.313,3.847l11.017,10.484l22.956,15.655L147.692,310l18.321,1l21.82-1l13.672-3.733
			l23.273-16.601L243.804,266l7.191-38.13c0,0,2.671-12.497-0.408-28.537C248.992,191.838,243.804,179.5,243.804,179.5z"/>
	</defs>
	<clipPath id="SVGID_2_">
		<use xlink:href="#SVGID_1_"  overflow="visible"/>
	</clipPath>
	<g clip-path="url(#SVGID_2_)">
		<path fill="#26397B" d="M91.344,273.192C79.503,255.227,70.52,235.219,70.52,213.17c-0.408,20.824,8.167,39.608,18.375,57.165
			c-1.225-2.042-3.267-3.676-4.899-5.309c2.365,3.262,4.931,6.352,7.674,9.261c-1.985-2.16-3.87-4.427-5.634-6.811
			C87.67,269.519,89.304,271.56,91.344,273.192z"/>
		<path fill="#26397B" d="M146.667,303.746c-5.229-0.345-10.457-1.084-15.684-2.089c5.997,1.21,12.048,2.253,18.343,2.567
			C148.438,304.078,147.551,303.915,146.667,303.746z"/>
		<path fill="#26397B" d="M139.621,302.159c-8.248-2.136-16.278-5.223-23.786-9.266
			C123.308,296.978,131.312,300.099,139.621,302.159z"/>
		<path fill="#26397B" d="M139.621,302.159c2.334,0.605,4.684,1.135,7.046,1.587c0.341,0.021,0.683,0.052,1.025,0.071
			C144.974,303.378,142.283,302.82,139.621,302.159z"/>
		<path fill="#26397B" d="M91.67,274.287c6.951,7.567,15.182,13.77,24.165,18.606C106.885,288.003,98.696,281.742,91.67,274.287z"/>
		<path fill="#26397B" d="M125.643,300.55c1.781,0.395,3.56,0.767,5.34,1.107C129.199,301.299,127.421,300.924,125.643,300.55z"/>
		<path fill="#26397B" d="M240.21,262.917c-0.086,0.428-0.167,0.859-0.239,1.293c10.563-22.691,9.5-48.754,1.133-72.087
			c-0.106-0.197-0.207-0.397-0.315-0.593C249.635,214.61,249.781,240.225,240.21,262.917z"/>
		<path fill="#26397B" d="M220.372,283.4c1.453-1.566,2.827-3.188,4.131-4.855c1.638-2.611,3.21-5.292,4.684-8.034
			C226.605,275.022,223.646,279.336,220.372,283.4z"/>
		<path fill="#26397B" d="M201.181,302.184c21.232-12.657,35.932-33.074,43.281-56.348c-1.633,7.35-4.083,14.29-6.124,21.233
			c0.662-1.372,1.283-2.758,1.872-4.152c1.362-6.83,4.277-13.023,4.661-19.939C238.746,267.477,222.822,289.117,201.181,302.184z"/>
		<path fill="#26397B" d="M226.861,167.907c-1.771-2.208-3.654-4.324-5.639-6.34c10.611,7.45,17.712,18.641,24.466,29.146
			c-5.922-11.844-14.261-22.161-24.23-30.53c-2.239-1.745-4.575-3.368-7.043-4.809c-2.034-1.654-4.147-3.215-6.334-4.674
			c4.709,2.796,9.188,5.966,13.377,9.483c6.268,4.884,11.778,10.729,17.288,16.239c-8.675-11.637-19.984-20.745-32.729-27.055
			c-2.465-1.542-5.015-2.96-7.644-4.242c7.76,2.481,14.906,6.423,21.64,10.825c3.138,2.374,6.13,4.936,8.954,7.676
			c-2.313-2.3-4.736-4.486-7.259-6.552c2.464,1.652,4.874,3.354,7.238,5.057c-5.304-4.843-11.131-8.969-17.329-12.37
			c-3.693-2.357-7.531-4.49-11.487-6.384c-1.727-0.495-3.465-0.98-5.213-1.44c3.212,1.269,6.371,2.689,9.455,4.258
			c-6.113-2.693-12.509-4.739-19.065-6.119c-0.785-0.229-1.573-0.45-2.368-0.656c4.025,0.57,8.025,1.477,11.979,2.517
			c-0.903-0.357-1.809-0.706-2.719-1.039c5.175,0.776,10.021,2.537,14.749,4.45c0.53,0.151,1.058,0.302,1.583,0.45
			c-11.072-5.167-22.896-7.825-34.792-8.213c-2.713-0.384-5.467-0.638-8.256-0.753c3.228-0.418,6.497-0.49,9.773-0.362
			c13.879,1.035,27.486,5.18,39.808,12.187c-2.692-1.046-5.384-2.203-8.116-3.308c-0.75-0.215-1.503-0.433-2.259-0.652
			c5.172,2.103,10.015,4.773,15.275,6.818c-11.023-6.991-23.109-11.678-35.674-14.299c3.496,0.398,6.963,0.87,10.358,1.233
			c-7.693-2.254-15.557-3.253-23.412-3.206c-2.26-0.217-4.529-0.375-6.805-0.47c8.167-0.816,15.925-0.816,24.091,0
			c-4.015-0.821-8.049-1.314-12.09-1.533c-5.026,0.751-10.235,0.958-15.339,1.579c-3.434,0.57-6.852,1.264-10.209,2.161
			c-0.737,0.25-1.466,0.529-2.188,0.833c-0.507,0.082-1.014,0.163-1.518,0.253c1.225-0.393,2.46-0.753,3.705-1.086
			c3.292-1.119,6.727-1.736,10.209-2.161c3.018-0.5,6.046-0.907,9.056-1.271c-10.463,0.154-20.693,2.338-30.277,6.18
			c-1.893,0.521-3.758,1.107-5.594,1.755c11.856-5.042,24.479-8.088,37.448-8.377c-8.557-0.026-17.12,1.096-25.559,2.893
			c3.574-1.287,7.224-2.376,10.916-3.268c-5.895,0.951-11.611,2.551-17.095,4.704c-1.794,0.45-3.583,0.925-5.363,1.421
			c5.717-3.675,12.25-5.308,18.783-7.758c-16.166,3.44-30.883,11.227-43.42,21.65c1.948-2.074,3.926-4.104,5.855-6.133
			c-3.903,3.186-7.505,6.702-10.795,10.483c-0.626,0.583-1.249,1.17-1.863,1.766c4.084-5.716,9.392-11.025,14.7-15.516
			c-3.829,2.826-7.432,5.939-10.787,9.294c-4.596,6.294-9.693,12.235-12.969,19.176c-1.752,2.468-3.369,5.039-4.849,7.696
			c0.853-2.219,1.77-4.407,2.731-6.559c-1.823,3.417-3.429,6.947-4.821,10.561c-0.394,0.807-0.774,1.62-1.143,2.44
			c1.3-4.071,2.922-8.048,4.875-11.887c-1.655,2.973-3.158,6.03-4.49,9.159c1.376-4.103,2.938-8.145,4.503-12.115
			c-3.715,6.867-6.339,14.139-7.966,21.607c-0.21,0.689-0.415,1.38-0.608,2.075c0.816-8.982,4.899-16.741,7.35-24.907
			c-4.53,8.738-7.645,18.117-9.329,27.731c-0.417,3.662-0.725,7.323-0.792,10.985c-0.33,2.426-0.558,4.884-0.672,7.371
			c-0.087-6.145,0.403-12.297,1.465-18.356c0.339-2.983,0.751-5.965,1.163-8.949c-2.545,9.414-3.383,19.104-2.68,28.665
			c-0.025,0.779-0.04,1.56-0.042,2.342c-0.604-4.452-1.016-8.951-1.363-13.45c-0.245,6.783,0.313,13.532,1.605,20.108
			c0.252,3.301,0.704,6.548,1.33,9.729c-2.849-8.271-3.575-17.147-4.568-25.753c-0.171,11.226,2.074,22.229,6.197,32.522
			c0.556,1.942,1.181,3.856,1.872,5.738c-1.869-3.56-3.583-7.218-5.21-10.904c2.043,6.712,4.976,13.044,8.632,18.89
			c0.073,0.146,0.145,0.292,0.217,0.437c-1.368-1.922-2.684-3.877-3.95-5.851c1.425,2.724,2.997,5.344,4.699,7.854
			c-3.548-5.144-6.625-10.658-9.189-16.43c3.168,8.099,7.559,15.587,12.905,22.276c2.414,3.752,5.124,7.293,8.091,10.6
			c-9.134-8.359-16.451-18.669-20.996-30.426c4.688,12.224,12.332,22.867,21.884,31.396c2.056,2.218,4.228,4.326,6.512,6.31
			c-4.045-2.69-7.934-5.633-11.655-8.716c5.188,5.188,11.041,9.612,17.334,13.224c0.115,0.082,0.229,0.167,0.342,0.25
			c-0.863-0.402-1.72-0.81-2.57-1.225c1.621,1.026,3.276,1.982,4.957,2.876c0.068,0.046,0.138,0.09,0.206,0.136
			c-4.2-2.13-8.25-4.526-12.103-7.095c0.656,0.521,1.323,1.028,1.995,1.524c3.589,2.237,7.329,4.369,11.194,6.283
			c1.544,0.989,3.124,1.925,4.736,2.813c-5.612-2.384-10.968-5.416-15.93-9.096c-0.808-0.503-1.61-1.012-2.402-1.524
			c5.78,4.496,12.114,8.12,18.782,10.87c6.599,3.58,13.736,6.289,21.26,7.982c-3.024-0.288-6.034-0.721-9.01-1.295
			c2.149,0.556,4.309,1.005,6.472,1.363c-0.524-0.043-1.049-0.088-1.573-0.139c2.718,0.543,5.444,0.923,8.17,1.15
			c0.637,0.019,1.274,0.03,1.91,0.036c0.354,0.054,0.708,0.101,1.063,0.149c-0.991-0.042-1.981-0.102-2.974-0.186
			c-1.911-0.057-3.82-0.164-5.72-0.334c4.014,0.63,8.034,0.923,12.03,0.905c2.623,0.25,5.281,0.382,7.97,0.382
			c4.768,0,9.44-0.406,13.989-1.177c-1.782,0.563-3.584,1.074-5.407,1.523c2.793-0.522,5.533-1.208,8.212-2.043
			c2.852-0.585,5.647-1.318,8.384-2.188c-19.516,7.485-41.375,8.644-61.511,1.372c21.078,7.75,44.743,6.084,65.281-2.67
			c5.006-1.858,9.785-4.185,14.283-6.927c-9.002,6.939-19.578,11.434-30.158,15.313c1.863-0.428,3.701-0.927,5.514-1.485
			c8.991-4.284,18.298-8.514,26.176-14.783c2.356-1.509,4.63-3.134,6.816-4.865c-9.271,8.935-20.494,15.8-32.992,19.648
			c-0.752,0.358-1.501,0.716-2.247,1.076c13.589-4.024,25.797-11.432,35.75-21.137c7.144-5.748,13.317-12.65,18.236-20.428
			c-0.977,2.104-2.02,4.178-3.116,6.218c1.32-2.31,2.541-4.672,3.653-7.08c1.342-2.18,2.584-4.428,3.726-6.735
			c-2.834,7.805-6.858,15.198-12.063,21.85c-0.42,0.669-0.843,1.338-1.271,1.998c6.145-7.43,10.718-15.828,13.755-24.702
			c3.745-7.804,6.308-16.282,7.457-25.202c0.077,4.828-0.194,9.649-0.797,14.381c1.339-6.695,1.75-13.455,1.332-20.126
			c0.087-1.479,0.137-2.966,0.146-4.464c0.419,2.607,0.746,5.227,0.973,7.849c0.041-4.553-0.352-9.031-1.121-13.403
			c-0.421-7.042-1.717-13.847-3.782-20.309c0.721,1.42,1.403,2.857,2.045,4.313c-0.877-2.447-1.882-4.817-2.996-7.117
			c-2.409-6.699-5.653-12.998-9.607-18.773c9.259,11.928,15.899,25.859,18.646,40.792c0.601,2.524,1.159,5.05,1.716,7.556
			C249.21,201.107,240.268,182.616,226.861,167.907z M144.017,133.958c-9.044,3.979-17.767,8.924-25.603,15.111
			c-1.41,0.869-2.792,1.778-4.144,2.728c3.895-3.475,8.04-6.688,12.026-9.866c-2.826,1.663-5.56,3.476-8.19,5.425
			c-3.438,2.732-6.65,5.704-9.619,8.888c-1.928,1.622-3.782,3.327-5.555,5.114c4.534-5.178,9.626-9.893,15.174-14.002
			c3.142-2.498,6.47-4.799,9.987-6.865c-0.594,0.479-1.193,0.959-1.796,1.44C131.878,138.646,137.812,135.948,144.017,133.958z
			 M77.87,213.987c0.236,2.476,0.56,4.951,0.971,7.415c0.018,1.003,0.05,2.002,0.103,2.996
			C78.363,220.972,77.999,217.496,77.87,213.987z"/>
		<path fill="#26397B" d="M200.13,143.378c1.528,0.437,3.048,0.88,4.559,1.319c-2.055-0.835-4.16-1.584-6.366-2.165
			C198.928,142.809,199.53,143.09,200.13,143.378z"/>
		<path fill="#26397B" d="M94.203,168.256c-1.183,1.897-2.273,3.838-3.279,5.814c0.826-1.481,1.69-2.943,2.592-4.38
			C93.744,169.21,93.972,168.732,94.203,168.256z"/>
		<path fill="#26397B" d="M249.28,213.781c-2.039-8.581-4.576-17.128-9.309-24.701c0.394,1.008,0.768,2.024,1.133,3.043
			c5.47,10.073,7.48,21.675,9.483,32.889C250.404,221.218,249.958,217.47,249.28,213.781z"/>
		<path fill="#26397B" d="M98.562,162.415c-1.791,2.349-3.477,4.776-5.046,7.275c-0.511,1.079-1.013,2.168-1.503,3.266
			C93.958,169.309,96.147,165.787,98.562,162.415z"/>
		<path fill="#26397B" d="M228.967,163.626c5.788,5.754,10.887,12.22,15.087,19.329
			C239.942,175.759,234.822,169.306,228.967,163.626z"/>
		<path fill="#26397B" d="M108.494,150.698c-3.643,3.642-6.959,7.566-9.932,11.716c2.623-3.439,5.474-6.708,8.536-9.771
			C107.57,151.999,108.037,151.352,108.494,150.698z"/>
		<path fill="#26397B" d="M177.091,133.141c-1.795-0.066-3.583-0.073-5.364-0.034c1.568,0.005,3.137,0.049,4.706,0.134
			C176.652,133.208,176.872,133.176,177.091,133.141z"/>
	</g>
</g>
<path fill="#1C75BC" d="M167.109,220.724c0,0,3.575,29.235-15.9,44.788c-16.188,12.927-52.403,8.465-52.403,8.465
	s43.169,10.475,60.986-8.581C176.375,247.66,167.109,220.724,167.109,220.724z"/>
<path fill="#F7941E" d="M223.026,159.885c0,0-34.278-3.444-49.058,14.745c-13.064,16.078-5.628,52.139-5.628,52.139
	s-13.523-42.313,4.212-61.442C189.061,147.522,223.026,159.885,223.026,159.885z"/>
<g>
	
		<image overflow="visible" opacity="0.75" width="359" height="432" xlink:href="2D0D5964.png"  transform="matrix(0.24 0 0 0.24 67.6777 172.4028)">
	</image>
	<g>
		<g>
			<path fill="#FFFFFF" d="M103.804,179.637c0.044-0.105,0.089-0.217,0.135-0.33c0.051-0.06,0.103-0.121,0.157-0.182
				C104.021,179.317,103.93,179.493,103.804,179.637c0.514-0.584,0.514-0.584,1.028-1.169c-0.094,0.006-0.168,0.021-0.247,0.033
				c0.181-0.25,0.355-0.513,0.516-0.791c-0.049-0.056-0.107-0.116-0.168-0.176c0.087-0.075,0.182-0.134,0.284-0.182
				c-0.134,0.017-0.258,0.05-0.372,0.097c-0.029-0.027-0.051-0.052-0.083-0.08c-0.049,0.057-0.089,0.12-0.128,0.184
				c-0.466,0.296-0.729,0.859-0.805,1.479c-0.036,0.134-0.04,0.281-0.034,0.432c0.003-0.003,0.006-0.007,0.009-0.01
				C103.804,179.517,103.8,179.576,103.804,179.637z M104.232,178.594c0.021-0.046,0.042-0.092,0.064-0.137
				c-0.013,0.043-0.024,0.085-0.036,0.128C104.253,178.588,104.241,178.59,104.232,178.594z"/>
			<path fill="#FFFFFF" d="M108.725,229.007c-0.155-0.433-0.309-0.871-0.463-1.312c-2.449-6.428-3.413-12.937-3.648-19.797
				c-0.132-3.86,1.858-11.982,3.261-18.811c0.155-0.759,0.304-1.502,0.443-2.221c-0.356-2.535,2.799-4.941,0.942-8.13
				c-0.601-0.788-1.88-1.396-3.048-1.39c-0.401-0.142-0.724-0.12-0.994,0.006c0.032-0.003,0.061-0.016,0.095-0.018
				c-0.066,0.13-0.139,0.252-0.21,0.375c0.075,0.086,0.136,0.168,0.182,0.244c-0.492,0.561-0.987,1.121-1.479,1.682
				c-0.004-0.058-0.006-0.115-0.009-0.171c-0.417,0.457-0.855,0.88-1.296,1.288c-0.451,0.416-0.899,0.822-1.329,1.238
				c-0.176,0.1-0.346,0.204-0.509,0.312c-0.563,0.331-0.963,0.864-1.328,1.438c-0.013,0.008-0.025,0.015-0.038,0.022
				c-0.027,0.17-0.072,0.335-0.131,0.496c0.092-0.09,0.185-0.171,0.278-0.269c0.008-0.006,0.019-0.013,0.029-0.018
				c0.064-0.073,0.126-0.144,0.18-0.205c0,0,0.002,0.001,0.002,0.001c-0.02,0.046-0.045,0.087-0.067,0.131
				c0.005-0.003,0.011-0.007,0.016-0.01c-0.006,0.008-0.015,0.017-0.023,0.024c-0.19,0.385-0.449,0.707-0.752,0.993
				c-0.026,0.037-0.059,0.069-0.087,0.104c0.256-0.136,0.497-0.284,0.727-0.446c-0.14,0.241-0.35,0.437-0.604,0.591
				c-0.101,0.028-0.209,0.06-0.318,0.09c-0.05,0.05-0.104,0.091-0.157,0.137c-0.24,0.428-0.59,0.79-1.062,1.018
				c-0.033,0.033-0.059,0.071-0.095,0.102c-0.435,0.466-0.907,0.922-1.407,1.326c-0.29,0.365-0.681,0.651-1.18,0.806
				c-0.379,0.211-0.772,0.374-1.171,0.485c-0.115,0.083-0.231,0.155-0.353,0.216c1.27-0.069,2.782-0.691,4.038-1.558
				c2.091-1.787,3.667-2.989,5.988-3.617c-0.28,0.493-2.484,6.702-2.844,8.457c-0.228,1.223-0.503,2.373-0.778,3.501
				c-0.277,1.128-0.555,2.237-0.794,3.375c-0.127,0.747-0.456,2.048-0.596,2.778c-0.277,1.46-0.583,1.915-0.838,3.591
				c-0.155,0.988-0.302,1.973-0.441,2.954c-0.139,0.983-0.267,1.96-0.385,2.933c-0.15,1.472-0.27,2.997-0.335,4.547
				c-0.066,1.55-0.076,3.124-0.006,4.692c0.021,0.725,0.358,7.224,0.414,7.96c0.077,0.556,1.231,10.255,1.326,10.802
				c1.323,7.662,3.979,24.522,10.948,22.917C116.855,260.695,111.965,238.12,108.725,229.007z M105.345,178.063
				c0.151,0.31,0.071,0.536-0.12,0.717C105.306,178.578,105.348,178.338,105.345,178.063z"/>
			<path fill="#FFFFFF" d="M99.655,183.524c-0.002,0.005-0.002,0.009-0.004,0.015c-0.043,0.029-0.086,0.06-0.13,0.088
				C99.564,183.592,99.609,183.557,99.655,183.524z"/>
			<path fill="#FFFFFF" d="M140.616,182.113c-4.249-3.851-9.9,0.5-14.059,2.525c-0.658,0.475-1.283,0.962-1.862,1.442
				c-0.581,0.481-6.426,4.221-6.911,4.665c-0.682,0.565-1.328,1.119-1.929,1.635c-0.565,0.431-1.137,0.836-1.725,1.202
				c-0.644,0.443-1.299,0.872-1.978,1.277c-0.582,0.347-1.18,0.679-1.801,0.989c-0.365,0.284-0.755,0.554-1.163,0.811
				c-0.408,0.258-0.832,0.504-1.272,0.74c-2.031,1.064-4.091,2.105-6.136,2.933c-0.682,0.277-1.362,0.53-2.039,0.751
				c-0.645,0.377-1.3,0.737-1.965,1.09c-1.498,0.595-2.941,1.244-4.32,1.952c-1.378,0.707-4.386,2.424-3.933,2.294
				c-2.515,1.5-6.528,3.72-3.488,2.651c-3.458,1.47-3.734,1.619-0.377,0.546c-3.408,1.127-3.42,1.133-0.021,0.022
				c-3.408,1.118-3.443,1.131-0.062,0.052c-3.354,1.12-3.311,1.162,0.21,0.489c-3.519,0.701-3.593,0.679-0.238-0.34
				c-3.373,1.021-3.329,1.049,0.185,0.346c-3.485,0.747-3.44,0.75,0.116,0.094c-3.544,0.666-3.173,0.573,0.484-0.155
				c-3.073,0.835,2.144,0.367,4.977-0.033c-0.002-0.091,3.253-0.791,4.871-1.386c1.619-0.594,3.24-1.275,4.877-1.902
				c0.664-0.272,1.327-0.542,1.991-0.796c0.498-0.135,0.986-0.285,1.465-0.446c0.48-0.162,0.953-0.335,1.417-0.519
				c1.817-0.972,3.686-1.88,5.583-2.76c0.633-0.292,1.271-0.583,1.91-0.872c0.758-0.326,1.503-0.651,2.239-0.974
				c0.734-0.323,1.459-0.646,2.173-0.971c0.716-0.313,1.43-0.639,2.14-0.974c0.711-0.336,1.418-0.682,2.125-1.037
				c0.877-0.516,1.817-1.001,2.787-1.494c1.942-1.21,9.348-5.631,11.216-6.683c0.229-0.137,0.465-0.273,0.697-0.403
				C140.715,188.744,143.037,184.247,140.616,182.113z"/>
			<path fill="#FFFFFF" d="M85.088,203.013c-9.799-0.174-14.685-0.383-2.325-0.138c-11.842-0.259-0.991-0.045,4.55-0.025
				c-5.776,0.044,1.433,0.191,2.323,0.334c0.763,0.143,1.517,0.315,2.263,0.511c0.731,0.16,1.459,0.345,2.182,0.545
				c0.765,0.264,1.533,0.523,2.303,0.78c0.771,0.256,1.545,0.51,2.321,0.762c0.77,0.25,1.538,0.5,2.303,0.749
				c0.766,0.251,1.529,0.501,2.295,0.754c2.949,0.651,5.73,1.563,8.505,2.531c0.555,0.195,1.11,0.39,1.665,0.586
				c5.826,1.063,11.67,3.479,16.686,6.624c1.796,0.742,2.271,4.688,0.166,5.958c-6.195,2.258-11.731-2.174-16.838-5.193
				c-0.656-0.372-1.302-0.718-1.946-1.027c-0.641-0.306-1.28-0.577-1.919-0.792c-0.493-0.237-0.989-0.471-1.487-0.702
				c-1.99-0.923-4.013-1.796-6.14-2.547c-0.689-0.242-1.381-0.465-2.083-0.666c-0.699-0.2-1.407-0.377-2.125-0.528
				c-0.681-0.234-1.359-0.473-2.03-0.721c-0.672-0.249-1.339-0.505-1.998-0.775c-0.708-0.325-1.404-0.674-2.095-1.05
				c-0.691-0.377-1.376-0.783-2.052-1.223c-0.597-0.417-1.171-0.868-1.72-1.359c-0.547-0.491-1.07-1.021-1.561-1.598
				c-0.229-0.277-7.379-0.988-3.106-0.957C77.479,203.345,75.212,202.997,85.088,203.013c-9.95-0.146-17.362-0.519-4.818-0.037
				C67.726,202.495,75.139,202.867,85.088,203.013z"/>
		</g>
	</g>
</g>
<g>
	<path fill="#FFFFFF" d="M132.201,213.021c0-2.183,0.326-4.015,0.979-5.497c0.487-1.091,1.152-2.071,1.996-2.938
		c0.843-0.867,1.766-1.51,2.77-1.93c1.335-0.565,2.875-0.848,4.62-0.848c3.157,0,5.684,0.979,7.58,2.938
		c1.895,1.958,2.843,4.683,2.843,8.171c0,3.46-0.941,6.167-2.821,8.121c-1.881,1.954-4.396,2.931-7.543,2.931
		c-3.187,0-5.721-0.972-7.602-2.916C133.141,219.109,132.201,216.432,132.201,213.021z M136.66,212.875
		c0,2.427,0.56,4.267,1.681,5.519c1.121,1.252,2.543,1.878,4.269,1.878c1.725,0,3.14-0.621,4.247-1.864
		c1.106-1.243,1.659-3.106,1.659-5.591c0-2.456-0.539-4.288-1.616-5.497c-1.077-1.208-2.507-1.813-4.29-1.813
		c-1.784,0-3.221,0.612-4.313,1.835C137.205,208.565,136.66,210.409,136.66,212.875z"/>
	<path fill="#FFFFFF" d="M156.379,223.604v-21.431h9.107c2.29,0,3.954,0.193,4.992,0.578c1.038,0.385,1.869,1.07,2.492,2.054
		c0.624,0.985,0.936,2.11,0.936,3.377c0,1.608-0.473,2.936-1.418,3.983c-0.945,1.048-2.358,1.708-4.239,1.981
		c0.936,0.546,1.708,1.145,2.317,1.798c0.608,0.653,1.43,1.813,2.463,3.479l2.617,4.181h-5.175l-3.129-4.663
		c-1.11-1.667-1.871-2.717-2.28-3.15s-0.843-0.731-1.301-0.892c-0.458-0.161-1.185-0.241-2.179-0.241h-0.877v8.946H156.379z
		 M160.707,211.237h3.201c2.076,0,3.372-0.087,3.889-0.263c0.517-0.175,0.921-0.477,1.214-0.906
		c0.292-0.429,0.438-0.965,0.438-1.608c0-0.721-0.192-1.303-0.577-1.747c-0.386-0.443-0.929-0.724-1.631-0.84
		c-0.351-0.049-1.403-0.073-3.157-0.073h-3.377V211.237z"/>
	<path fill="#FFFFFF" d="M177.985,223.604v-21.431h15.891v3.625h-11.563v4.751h10.76v3.611h-10.76v5.833h11.973v3.61H177.985z"/>
	<path fill="#FFFFFF" d="M217.28,223.604h-4.707l-1.872-4.868h-8.565l-1.77,4.868h-4.59l8.347-21.431h4.576L217.28,223.604z
		 M209.312,215.126l-2.952-7.953l-2.895,7.953H209.312z"/>
	<path fill="#FFFFFF" d="M219.618,223.604v-21.431h4.21l8.771,14.312v-14.312h4.02v21.431h-4.341l-8.64-13.975v13.975H219.618z"/>
</g>
<g>
	<path fill="#FFFFFF" d="M134.025,250.689v-21.431h7.382c1.667,0,2.938,0.103,3.815,0.308c1.228,0.282,2.275,0.794,3.143,1.534
		c1.13,0.955,1.976,2.176,2.536,3.662c0.56,1.486,0.84,3.185,0.84,5.095c0,1.628-0.19,3.069-0.57,4.327
		c-0.38,1.257-0.868,2.297-1.462,3.121c-0.595,0.823-1.245,1.472-1.952,1.944s-1.559,0.83-2.558,1.074
		c-0.999,0.243-2.146,0.365-3.442,0.365H134.025z M136.861,248.16h4.576c1.413,0,2.521-0.131,3.326-0.395
		c0.804-0.263,1.445-0.633,1.922-1.11c0.672-0.673,1.196-1.577,1.571-2.712c0.375-1.136,0.563-2.512,0.563-4.13
		c0-2.241-0.368-3.964-1.104-5.168c-0.736-1.203-1.63-2.01-2.682-2.419c-0.76-0.292-1.983-0.438-3.669-0.438h-4.502V248.16z"/>
	<path fill="#FFFFFF" d="M153.292,250.689l8.23-21.431h3.055l8.771,21.431h-3.23l-2.5-6.49h-8.961l-2.354,6.49H153.292z
		 M159.476,241.89h7.266l-2.237-5.936c-0.682-1.803-1.188-3.284-1.52-4.444c-0.273,1.375-0.658,2.739-1.155,4.094L159.476,241.89z"
		/>
	<path fill="#FFFFFF" d="M179.43,250.689v-9.078l-8.259-12.353h3.45l4.225,6.462c0.779,1.208,1.505,2.417,2.178,3.625
		c0.644-1.121,1.423-2.383,2.339-3.786l4.151-6.301h3.304l-8.552,12.353v9.078H179.43z"/>
</g>
</svg>
