<?xml version="1.0" encoding="utf-8"?>
<!-- Generator: Adobe Illustrator 16.0.0, SVG Export Plug-In . SVG Version: 6.00 Build 0)  -->
<!DOCTYPE svg PUBLIC "-//W3C//DTD SVG 1.1//EN" "http://www.w3.org/Graphics/SVG/1.1/DTD/svg11.dtd">
<svg version="1.1" id="Layer_1" xmlns="http://www.w3.org/2000/svg" xmlns:xlink="http://www.w3.org/1999/xlink" x="0px" y="0px"
	 width="463.571px" height="323.595px" viewBox="0 0 463.571 323.595" enable-background="new 0 0 463.571 323.595"
	 xml:space="preserve">
<g>
	<path fill="#26397B" d="M3.234,2.233h26.509v38.125h0.298L55.507,2.233H87.08l-37.38,51.976l36.934,55.251H54.167L30.041,68.654
		h-0.298v40.806H3.234V2.233z"/>
	<path fill="#26397B" d="M189.243,2.233h34.104c20.105,0,36.636,15.786,36.636,35.296c0,19.509-16.382,35.443-36.487,35.443h-7.744
		v36.487h-26.509V2.233z M215.751,48.252h5.212c6.553,0,11.914-4.617,11.914-10.723c0-5.957-5.361-10.574-11.914-10.574h-5.212
		V48.252z"/>
	<path fill="#26397B" d="M267.432,55.847C267.432,25.02,292.898,0,324.173,0s56.741,25.02,56.741,55.847
		s-25.466,55.847-56.741,55.847S267.432,86.674,267.432,55.847z M353.958,55.847c0-17.425-13.254-31.126-29.785-31.126
		c-16.382,0-29.785,14-29.785,31.126s13.403,31.126,29.785,31.126S353.958,72.973,353.958,55.847z"/>
	<path fill="#26397B" d="M392.832,2.233h34.104c20.105,0,36.636,15.786,36.636,35.296c0,19.509-16.382,35.443-36.487,35.443h-7.744
		v36.487h-26.509V2.233z M419.34,48.252h5.212c6.553,0,11.914-4.617,11.914-10.723c0-5.957-5.361-10.574-11.914-10.574h-5.212
		V48.252z"/>
</g>
<g>
	<g>
		<path fill="#9E005D" d="M130.129,94.162c-1.09,0-2.108-0.418-2.868-1.177L96.634,63.438c-0.08-0.068-11.501-10.214-11.501-22.718
			c0-15.016,9.148-23.98,24.471-23.98c8.391,0,16.216,6.109,20.525,10.214c4.309-4.104,12.134-10.214,20.525-10.214
			c15.323,0,24.471,8.965,24.471,23.98c0,10.913-8.771,20.154-11.458,22.727l-30.683,29.552
			C132.238,93.744,131.219,94.162,130.129,94.162z"/>
		<path fill="#26397B" d="M150.654,17.74c14.682,0,23.471,8.593,23.471,22.98c0,11.784-10.803,21.654-11.245,22.096L132.29,92.278
			c-0.589,0.589-1.375,0.884-2.161,0.884s-1.571-0.295-2.161-0.884l-30.64-29.56c-0.393-0.344-11.195-10.214-11.195-21.998
			c0-14.388,8.79-22.98,23.471-22.98c8.593,0,16.646,6.776,20.525,10.606C134.008,24.517,142.062,17.74,150.654,17.74
			 M150.654,15.74c-8.296,0-15.984,5.665-20.525,9.844c-4.541-4.179-12.229-9.844-20.525-9.844c-15.711,0-25.471,9.572-25.471,24.98
			c0,12.541,11.023,22.731,11.832,23.462l30.615,29.535c0.923,0.923,2.192,1.444,3.549,1.444s2.626-0.521,3.574-1.469l30.564-29.437
			l0.09-0.087c2.76-2.642,11.767-12.14,11.767-23.449C176.125,25.313,166.366,15.74,150.654,15.74L150.654,15.74z"/>
	</g>
</g>
<g>
	<path fill="#26397B" d="M76.125,178.854c-4.517,11.45-19.749,20.8-33.931,20.8c-21.64,0-39.184-17.647-39.184-39.289
		c0-21.64,17.543-39.288,39.184-39.288c15.337,0,30.884,9.98,34.562,22.165h-8.614c-4.412-8.193-16.072-14.812-25.947-14.812
		c-17.018,0-30.884,14.182-30.884,31.83s13.866,32.04,30.884,32.04c10.084,0,21.22-5.987,25.107-13.446H76.125z"/>
	<path fill="#26397B" d="M81.479,160.364c0-21.64,17.543-39.288,39.184-39.288s39.183,17.648,39.183,39.288
		c0,21.642-17.543,39.289-39.183,39.289S81.479,182.006,81.479,160.364z M151.546,160.26c0-17.648-13.866-31.83-30.884-31.83
		s-30.885,14.182-30.885,31.83s13.867,32.04,30.885,32.04S151.546,177.908,151.546,160.26z"/>
	<path fill="#26397B" d="M166.669,122.547h9.245l43.595,64.501v-64.501h7.984v75.53h-9.245l-43.595-64.5v64.5h-7.984V122.547z"/>
	<path fill="#26397B" d="M307.537,178.854c-4.517,11.45-19.749,20.8-33.931,20.8c-21.64,0-39.184-17.647-39.184-39.289
		c0-21.64,17.543-39.288,39.184-39.288c15.337,0,30.884,9.98,34.562,22.165h-8.614c-4.413-8.193-16.072-14.812-25.947-14.812
		c-17.018,0-30.884,14.182-30.884,31.83s13.866,32.04,30.884,32.04c10.084,0,21.22-5.987,25.107-13.446H307.537z"/>
	<path fill="#26397B" d="M357.432,122.547v7.354h-34.562v26.367h33.406v7.354h-33.406v27.104h34.562v7.353h-42.545v-75.53H357.432z"
		/>
	<path fill="#26397B" d="M364.573,122.547h24.687c13.026,0,23.636,10.61,23.636,23.636c0,12.187-10.4,22.796-23.321,23.637
		l21.22,28.258h-9.56l-25.737-34.981h11.765c9.455,0,17.333-7.248,17.333-16.492c0-9.665-7.669-16.703-17.124-16.703h-14.917v68.177
		h-7.983V122.547z"/>
	<path fill="#26397B" d="M433.272,129.9h-17.123v-7.354h42.44v7.354h-17.123v68.177h-8.194V129.9z"/>
</g>
<g>
	<path fill="#9E005D" d="M92.416,235.642c0.528-0.951,1.057-1.612,1.587-1.983c0.528-0.369,1.043-0.595,1.547-0.674
		c0.502-0.08,0.992-0.106,1.468-0.08c0.476,0.027,0.978-0.04,1.507-0.198c0.528-0.158,1.058-0.476,1.587-0.952
		c0.528-0.477,1.111-1.27,1.746-2.381c-2.329,0.424-4.392,0.848-6.19,1.271c-1.799,0.424-3.042,0.714-3.729,0.873
		c-1.164,0.265-1.892-0.026-2.182-0.873c-0.291-0.847-0.212-1.866,0.238-3.056c0.448-1.189,1.203-2.354,2.262-3.492
		c1.057-1.137,2.353-1.864,3.888-2.182c3.967-0.74,7.63-1.163,10.991-1.27c3.359-0.105,6.36,0.093,9.007,0.596
		c2.644,0.502,4.88,1.269,6.705,2.301c1.825,1.031,3.187,2.289,4.086,3.769c1.375,2.276,1.917,4.498,1.627,6.666
		c-0.292,2.17-1.442,4.206-3.452,6.11c-2.011,1.904-4.934,3.664-8.769,5.277c-3.836,1.614-8.637,2.976-14.402,4.087
		c2.222,2.646,4.603,5.529,7.142,8.649c2.539,3.122,4.92,6.099,7.142,8.927c2.222,2.83,4.152,5.264,5.792,7.301
		c1.64,2.036,2.698,3.294,3.174,3.771c0.582,0.581,0.7,1.255,0.357,2.023c-0.344,0.766-0.966,1.388-1.864,1.864
		c-0.9,0.477-1.972,0.714-3.214,0.714c-1.244,0-2.42-0.503-3.532-1.508c-0.424-0.37-1.098-1.178-2.023-2.42
		c-0.926-1.244-2.037-2.751-3.333-4.523c-1.297-1.772-2.725-3.729-4.285-5.872c-1.561-2.143-3.174-4.271-4.84-6.388
		s-3.32-4.152-4.96-6.111c-1.641-1.956-3.174-3.649-4.603-5.078c-1.428,2.964-2.805,5.859-4.126,8.689
		c-1.323,2.83-2.513,5.396-3.571,7.697c-1.059,2.301-1.958,4.271-2.698,5.912c-0.742,1.639-1.218,2.75-1.429,3.333
		c-0.424,1.004-1.045,1.44-1.865,1.31c-0.821-0.133-1.587-0.636-2.301-1.509s-1.244-2.011-1.587-3.411
		c-0.345-1.403-0.278-2.871,0.198-4.404c0.317-1.004,0.913-2.434,1.786-4.285c0.873-1.852,1.877-3.9,3.016-6.15
		c1.137-2.248,2.341-4.549,3.61-6.904c1.27-2.354,2.473-4.575,3.611-6.665c1.137-2.089,2.143-3.915,3.016-5.476
		C91.423,237.376,92.044,236.277,92.416,235.642z M104.318,228.977c-1.218,2.063-2.474,4.324-3.769,6.785
		c-1.297,2.46-2.633,5.038-4.008,7.737c0.105,0.105,0.199,0.197,0.278,0.277c0.079,0.079,0.171,0.172,0.278,0.277
		c3.28-0.794,6.519-1.771,9.721-2.937c3.2-1.162,5.991-2.392,8.372-3.689c2.38-1.296,4.152-2.592,5.317-3.888
		c1.163-1.296,1.401-2.5,0.714-3.611c-0.424-0.635-1.204-1.098-2.341-1.389c-1.138-0.29-2.487-0.449-4.047-0.477
		c-1.561-0.026-3.253,0.054-5.078,0.239C107.929,228.487,106.116,228.713,104.318,228.977z"/>
	<path fill="#9E005D" d="M126.536,248.657c1.216-1.271,2.684-2.659,4.404-4.167c1.718-1.508,3.293-2.817,4.721-3.928
		c0.688-0.528,1.389-0.819,2.104-0.873c0.714-0.053,1.309,0.079,1.785,0.396s0.78,0.768,0.913,1.35
		c0.131,0.582,0.012,1.218-0.357,1.904c-0.424,0.688-0.807,1.337-1.151,1.944c-0.345,0.609-0.714,1.283-1.111,2.023
		c-0.397,0.741-0.847,1.587-1.349,2.539c-0.503,0.952-1.099,2.09-1.786,3.412c-0.742,1.323-0.926,2.17-0.555,2.54
		c0.37,0.37,1.111,0.331,2.222-0.119c1.11-0.449,2.486-1.271,4.126-2.461c1.639-1.189,3.385-2.71,5.238-4.562
		c0.634-0.636,1.256-0.979,1.864-1.032c0.608-0.053,1.098,0.079,1.468,0.396c0.37,0.317,0.528,0.794,0.476,1.429
		c-0.053,0.635-0.424,1.296-1.111,1.984c-0.529,0.528-1.218,1.203-2.063,2.022c-0.846,0.82-1.785,1.693-2.817,2.619
		c-1.031,0.927-2.103,1.824-3.214,2.698c-1.111,0.873-2.17,1.626-3.174,2.261c-1.641,1.06-3.123,1.681-4.444,1.865
		c-1.323,0.186-2.368,0-3.134-0.556c-0.768-0.555-1.19-1.494-1.27-2.817c-0.08-1.32,0.33-2.987,1.23-4.998
		c0.317-0.794,0.595-1.508,0.833-2.144c0.238-0.635,0.37-1.123,0.397-1.468c0.026-0.343-0.067-0.488-0.278-0.437
		c-0.212,0.054-0.609,0.371-1.19,0.953c-0.583,0.582-1.164,0.872-1.746,0.872c-0.583,0-1.044-0.171-1.389-0.516
		c-0.343-0.343-0.516-0.806-0.516-1.389C125.663,249.821,125.955,249.239,126.536,248.657z M147.009,223.978
		c0.477-0.265,0.992-0.356,1.547-0.278c0.556,0.079,1.032,0.278,1.429,0.596c0.396,0.317,0.687,0.754,0.873,1.309
		c0.185,0.556,0.119,1.151-0.198,1.786c-0.318,0.634-0.768,1.323-1.349,2.063c-0.583,0.741-1.178,1.468-1.786,2.182
		c-0.608,0.715-1.151,1.363-1.626,1.945c-0.477,0.582-0.794,1.058-0.953,1.428c-0.265,0.741-0.702,1.084-1.309,1.031
		c-0.609-0.053-1.072-0.397-1.389-1.031c-0.158-0.317-0.238-0.939-0.238-1.864c0-0.926,0.159-1.958,0.476-3.096
		s0.833-2.262,1.547-3.372C144.748,225.564,145.74,224.665,147.009,223.978z"/>
	<path fill="#9E005D" d="M172.165,248.657c0.422-0.423,0.925-0.648,1.508-0.676c0.582-0.026,1.071,0.107,1.468,0.396
		c0.396,0.293,0.621,0.716,0.674,1.271c0.052,0.556-0.237,1.15-0.873,1.786c-2.329,2.328-4.537,3.888-6.626,4.682
		c-2.091,0.793-3.928,1.059-5.515,0.793l-1.428,1.904c-1.429,1.8-2.95,3.36-4.563,4.682c-1.614,1.323-3.214,2.341-4.801,3.056
		c-1.587,0.715-3.134,1.099-4.642,1.151s-2.843-0.266-4.007-0.953c-1.163-0.687-1.957-1.679-2.381-2.976
		c-0.422-1.296-0.516-2.764-0.277-4.404c0.238-1.639,0.781-3.385,1.627-5.237c0.846-1.851,1.984-3.677,3.412-5.475
		c1.428-1.799,2.948-3.359,4.563-4.683c1.613-1.321,3.226-2.341,4.84-3.056c1.613-0.714,3.174-1.097,4.682-1.15
		c1.507-0.052,2.843,0.266,4.007,0.952c1.693,1.06,2.605,2.712,2.738,4.96c0.131,2.249-0.411,4.722-1.627,7.419
		c0.952-0.051,1.996-0.422,3.134-1.11C169.214,251.303,170.578,250.191,172.165,248.657z M158.277,245.403
		c-0.688-0.212-1.428-0.172-2.222,0.118c-0.793,0.292-1.601,0.755-2.42,1.39c-0.821,0.634-1.601,1.401-2.341,2.301
		c-0.741,0.9-1.402,1.825-1.984,2.777c-0.583,0.952-1.031,1.904-1.349,2.856c-0.317,0.953-0.476,1.825-0.476,2.618
		c0,0.794,0.145,1.496,0.436,2.104c0.291,0.609,0.78,1.02,1.468,1.23c1.375,0.476,2.83,0.198,4.365-0.834
		c1.534-1.031,2.883-2.524,4.047-4.483l0.317-0.555c-0.424-0.477-0.728-1.084-0.913-1.826c-0.186-0.74-0.265-1.533-0.238-2.38
		c0.026-0.846,0.131-1.692,0.317-2.539c0.185-0.846,0.437-1.613,0.754-2.301L158.277,245.403z"/>
</g>
<g>
	<path fill="#9E005D" d="M331.069,237.25c1.117-1.187,2.226-2.024,3.326-2.515c1.1-0.488,2.086-0.707,2.959-0.654
		c0.872,0.053,1.553,0.358,2.042,0.917c0.489,0.559,0.698,1.31,0.628,2.252c-0.07,0.943,0.026,1.554,0.288,1.833
		s0.602,0.314,1.021,0.104c0.419-0.209,0.865-0.646,1.336-1.309c0.472-0.664,0.898-1.501,1.283-2.515
		c0.174-0.453,0.506-0.707,0.995-0.76c0.489-0.052,0.907,0.079,1.257,0.394c0.349,0.313,0.506,0.804,0.472,1.466
		c-0.036,0.664-0.49,1.485-1.362,2.462c-1.223,1.327-2.392,2.271-3.509,2.828c-1.118,0.56-2.095,0.812-2.933,0.761
		c-0.838-0.053-1.493-0.376-1.964-0.97c-0.472-0.594-0.69-1.379-0.654-2.357c0.034-0.977-0.123-1.526-0.472-1.649
		c-0.349-0.122-0.794-0.035-1.335,0.262c-0.542,0.298-1.118,0.707-1.729,1.231c-0.612,0.523-1.161,0.96-1.65,1.31
		c-0.489,0.349-0.838,0.454-1.048,0.314c-0.209-0.141-0.297-0.394-0.262-0.761c0.034-0.366,0.165-0.794,0.393-1.283
		C330.379,238.124,330.684,237.669,331.069,237.25z"/>
</g>
<g>
	<path fill="#9E005D" d="M189.034,244.291c1.534-2.273,3.227-4.178,5.078-5.713c1.852-1.533,3.663-2.777,5.436-3.729
		c1.772-0.952,3.452-1.64,5.039-2.063c1.587-0.422,2.883-0.635,3.888-0.635c0.318,0,0.608,0.04,0.873,0.119
		c0.264,0.08,0.476,0.119,0.635,0.119c0.898,0.371,1.706,0.887,2.42,1.548c0.714,0.662,1.071,1.548,1.071,2.658
		c0,1.059-0.41,2.235-1.23,3.531c-0.821,1.297-1.865,2.817-3.134,4.563c1.692-2.011,3.385-3.916,5.078-5.714
		c1.693-1.799,3.306-3.386,4.841-4.762c1.534-1.375,2.962-2.46,4.286-3.254c1.321-0.793,2.486-1.189,3.491-1.189
		c0.899,0,1.798,0.437,2.698,1.31c0.899,0.873,1.35,1.892,1.35,3.055c0,0.211,0.026,0.384,0.079,0.516
		c0.052,0.132-0.093,0.543-0.436,1.23c-0.345,0.688-1.032,1.813-2.063,3.372c-1.032,1.561-2.606,3.85-4.722,6.864
		c1.48-1.64,2.988-3.2,4.523-4.682c1.534-1.48,3.015-2.79,4.443-3.928c1.428-1.137,2.764-2.05,4.007-2.739
		c1.243-0.687,2.314-1.031,3.214-1.031c0.477,0,0.952,0.12,1.429,0.357c0.476,0.237,0.912,0.556,1.309,0.953
		c0.397,0.396,0.714,0.847,0.953,1.348c0.238,0.504,0.357,1.02,0.357,1.548c0,0.266-0.159,0.715-0.476,1.35
		s-0.886,1.626-1.706,2.976c-0.821,1.349-1.944,3.108-3.373,5.276c-1.429,2.17-3.281,4.921-5.555,8.254
		c0-0.053,0.012-0.08,0.039-0.08c0.026,0,0.04-0.025,0.04-0.079c-1.535,2.328-2.845,4.313-3.928,5.951
		c-1.085,1.641-1.971,3.044-2.658,4.206c-0.688,1.165-1.19,2.17-1.508,3.016c-0.317,0.846-0.476,1.613-0.476,2.301
		c0,1.058,0.264,1.904,0.793,2.54c0.528,0.635,1.177,1.137,1.944,1.508c0.767,0.369,1.534,0.62,2.301,0.754
		c0.766,0.131,1.389,0.224,1.865,0.277c5.025,0.369,9.866,0.278,14.522-0.277c4.654-0.557,9.217-1.258,13.688-2.104
		c4.47-0.847,8.888-1.667,13.252-2.459c4.365-0.794,8.769-1.244,13.213-1.35c1.375-0.054,2.764-0.027,4.166,0.079
		c1.401,0.105,2.843,0.29,4.325,0.556c1.428,0.265,2.473,0.647,3.134,1.15c0.661,0.502,1.111,1.032,1.35,1.587
		c0.238,0.556,0.317,1.072,0.238,1.548c-0.08,0.476-0.147,0.819-0.199,1.031c-0.371,0.687-0.741,1.243-1.111,1.667
		c-0.317,0.369-0.635,0.621-0.952,0.754c-0.317,0.131-0.529-0.04-0.635-0.517c-0.371-1.218-1.507-2.195-3.412-2.936
		c-1.904-0.742-4.338-1.139-7.301-1.19c-2.751-0.053-5.701,0.119-8.848,0.516c-3.148,0.396-6.427,0.873-9.84,1.429
		c-3.412,0.555-6.903,1.137-10.475,1.745s-7.116,1.098-10.633,1.469c-3.52,0.37-6.971,0.567-10.356,0.595
		c-3.386,0.026-6.586-0.277-9.602-0.913c-1.265-0.37-2.301-0.872-3.107-1.507c-0.807-0.635-1.444-1.323-1.914-2.063
		c-0.468-0.741-0.793-1.508-0.975-2.302c-0.183-0.793-0.273-1.561-0.273-2.301c0-1.377,0.247-2.804,0.741-4.285
		c0.493-1.479,1.054-2.829,1.679-4.047c0.677-1.376,1.482-2.724,2.42-4.047c0.317-0.635,0.727-1.35,1.23-2.144
		c0.502-0.793,0.992-1.547,1.468-2.261c0.476-0.714,0.873-1.321,1.19-1.825c0.317-0.502,0.448-0.754,0.396-0.754
		c1.163-1.798,2.262-3.359,3.293-4.683c1.032-1.321,1.905-2.46,2.619-3.411c0.715-0.953,1.283-1.772,1.707-2.461
		c0.422-0.687,0.635-1.296,0.635-1.824c0-0.369-0.212-0.556-0.635-0.556c-0.265,0-0.754,0.277-1.468,0.833s-1.614,1.35-2.698,2.381
		c-1.085,1.031-2.341,2.261-3.77,3.69c-1.428,1.428-2.936,2.988-4.523,4.682c-2.063,2.17-4.035,4.205-5.912,6.11
		c-1.878,1.904-3.638,4.1-5.277,6.586l-0.634,1.11c-0.424,1.006-0.663,1.641-0.715,1.904c-0.053,0.213-0.079,0.372-0.079,0.477
		c0,0.371,0.052,0.596,0.158,0.675c0.105,0.079,0.159,0.331,0.159,0.754c0,0.158-0.08,0.411-0.238,0.754
		c-0.158,0.345-0.608,0.517-1.349,0.517c-0.424,0-0.9-0.093-1.429-0.278c-0.529-0.185-1.005-0.463-1.428-0.834
		c-0.424-0.369-0.781-0.806-1.071-1.309c-0.292-0.502-0.437-1.045-0.437-1.627c0-0.688,0.159-1.322,0.476-1.905
		c0.052-0.104,0.08-0.197,0.08-0.277c0-0.079,0.026-0.185,0.08-0.317c0.052-0.132,0.145-0.329,0.277-0.596
		c0.132-0.264,0.357-0.66,0.675-1.189c0.793-1.639,1.692-3.215,2.698-4.722c1.004-1.508,1.931-2.869,2.777-4.086
		c0.846-1.217,1.56-2.209,2.143-2.977c0.582-0.767,0.845-1.203,0.793-1.31c2.432-3.174,4.416-5.845,5.952-8.014
		c1.534-2.17,2.301-3.624,2.301-4.366c0-0.369-0.212-0.555-0.635-0.555c-0.317,0-1.363,0.873-3.134,2.618
		c-1.773,1.746-3.928,3.968-6.467,6.667c-2.54,2.697-5.265,5.673-8.173,8.927c-2.911,3.254-5.634,6.388-8.174,9.404
		c-0.688,1.11-1.297,2.115-1.825,3.015c-0.529,0.9-0.926,1.694-1.19,2.381c-0.158,0.37-0.292,0.741-0.396,1.11
		c-0.266,0.687-0.397,1.402-0.397,2.144c0,0.634,0.159,1.11,0.477,1.428h0.237c0.159,0,0.344,0.04,0.556,0.119
		c0.21,0.08,0.317,0.25,0.317,0.517c0,0.475-0.212,0.858-0.635,1.15c-0.424,0.29-0.926,0.437-1.507,0.437
		c-0.847,0-1.734-0.358-2.659-1.072c-0.926-0.714-1.389-1.972-1.389-3.769c0-1.217,0.25-2.553,0.754-4.008
		c0.502-1.455,1.098-2.883,1.785-4.285c0.688-1.401,1.415-2.725,2.183-3.969c0.766-1.241,1.415-2.313,1.944-3.213
		c1.058-1.692,2.248-3.492,3.571-5.396c1.322-1.904,2.579-3.701,3.77-5.396c1.19-1.692,2.195-3.16,3.016-4.404
		c0.819-1.242,1.229-2.023,1.229-2.341c0-0.369-0.132-0.556-0.397-0.556c-0.371,0-0.992,0.265-1.864,0.793
		c-0.873,0.53-1.945,1.39-3.214,2.58c-1.27,1.19-2.738,2.751-4.404,4.682c-1.667,1.932-3.479,4.324-5.436,7.182
		c0.052,0-0.093,0.212-0.436,0.635c-0.345,0.424-0.728,0.966-1.151,1.626c-0.424,0.662-0.821,1.363-1.19,2.104
		c-0.371,0.741-0.556,1.402-0.556,1.984c0,0.424,0.106,0.767,0.317,1.031h0.477c0.211,0,0.423,0.026,0.635,0.079
		c0.211,0.054,0.317,0.187,0.317,0.396c0,0.371-0.226,0.741-0.674,1.111c-0.45,0.37-0.992,0.556-1.627,0.556
		c-0.53,0-1.032-0.159-1.508-0.477s-0.886-0.74-1.23-1.27c-0.345-0.527-0.608-1.111-0.793-1.745
		c-0.186-0.636-0.278-1.243-0.278-1.826c0-1.321,0.383-2.79,1.15-4.404c0.767-1.613,1.997-3.715,3.69-6.309L189.034,244.291z"/>
	<path fill="#9E005D" d="M253.628,259.845c-0.053,0-0.093-0.013-0.119-0.04c-0.027-0.024-0.067-0.038-0.12-0.038
		c-0.212,0-0.371-0.026-0.476-0.08c-0.424,0.9-0.821,1.654-1.19,2.262c-0.371,0.609-0.873,1.283-1.508,2.023
		c-1.376,1.746-2.686,2.964-3.928,3.65c-1.244,0.688-2.341,1.164-3.293,1.428c-0.212,0.106-0.424,0.172-0.635,0.199
		c-0.212,0.026-0.424,0.066-0.635,0.118c-1.059,0.212-1.998,0.226-2.817,0.04s-1.52-0.489-2.103-0.912
		c-0.582-0.423-1.072-0.899-1.468-1.429c-0.397-0.527-0.701-1.031-0.913-1.508c-0.423-1.004-0.621-2.023-0.595-3.055
		c0.027-1.032,0.251-2.155,0.674-3.373c0.318-1.004,0.873-2.142,1.667-3.412c0.794-1.27,1.72-2.512,2.777-3.729
		c0.053-0.053,0.105-0.104,0.159-0.158c0.052-0.053,0.131-0.132,0.238-0.238c0.105-0.106,0.198-0.211,0.278-0.317
		c0.079-0.105,0.224-0.238,0.436-0.397c1.111-1.11,2.659-2.207,4.643-3.293c1.984-1.084,4.113-1.731,6.388-1.944
		c0.635,0,1.243,0.107,1.825,0.317c0.476,0.159,0.925,0.437,1.349,0.833c0.423,0.397,0.714,0.993,0.873,1.786
		c0,0.371,0,0.622,0,0.754c0,0.133-0.053,0.331-0.159,0.595c-0.053,0.106-0.106,0.199-0.159,0.278
		c-0.054,0.078-0.106,0.172-0.159,0.277h-0.08c-0.053,0.159-0.159,0.265-0.317,0.317c-0.158,0.054-0.317,0.079-0.476,0.079
		c-0.317,0-0.476-0.21-0.476-0.634c0.105-0.159,0.105-0.291,0-0.397c-0.106-0.635-0.662-0.873-1.667-0.715
		c-0.424,0.107-1.178,0.437-2.261,0.993c-1.085,0.555-2.369,1.547-3.849,2.975c-0.266,0.267-0.504,0.53-0.715,0.794
		c-0.212,0.266-0.424,0.529-0.634,0.793c-0.266,0.159-0.424,0.318-0.477,0.477c-0.317,0.424-0.635,0.833-0.952,1.23
		c-0.317,0.396-0.635,0.887-0.952,1.468c-0.9,1.429-1.547,2.673-1.944,3.729c-0.397,1.059-0.648,2.144-0.754,3.254
		c0.052,1.005,0.33,1.654,0.833,1.944c0.502,0.291,1.111,0.356,1.825,0.197c0.714-0.157,1.468-0.487,2.261-0.991
		c0.793-0.502,1.508-1.018,2.143-1.547c0.528-0.528,0.885-0.873,1.071-1.032c0.185-0.158,0.489-0.476,0.913-0.952
		c0.793-0.952,1.295-1.719,1.507-2.301c0.211-0.477,0.238-0.899,0.08-1.27s-0.357-0.754-0.595-1.15
		c-0.238-0.397-0.437-0.834-0.595-1.31c-0.159-0.477-0.106-1.084,0.159-1.825c0.159-0.369,0.304-0.701,0.437-0.992
		c0.131-0.29,0.304-0.541,0.516-0.754c0.528-0.635,1.072-1.071,1.627-1.31s1.044-0.383,1.468-0.437
		c0.105-0.104,0.238-0.158,0.397-0.158h0.237c0.211,0,0.37,0.054,0.477,0.158c0.264,0.054,0.502,0.238,0.714,0.556
		c0.105,0.159,0.159,0.45,0.159,0.873c0,0.424-0.04,0.9-0.119,1.428c-0.079,0.53-0.159,1.046-0.238,1.548
		c-0.079,0.503-0.146,0.913-0.199,1.229c-0.053,0.213-0.092,0.425-0.119,0.636c-0.027,0.212-0.093,0.45-0.198,0.714
		c0.159,0,0.264-0.026,0.317-0.079c0.794-0.159,1.455-0.357,1.984-0.595c0.529-0.239,0.926-0.409,1.19-0.517
		c0.582-0.265,1.018-0.449,1.31-0.556c0.29-0.105,0.437,0.054,0.437,0.477c-0.053,0.106-0.08,0.237-0.08,0.396v0.159
		c0,0.265-0.092,0.582-0.278,0.952c-0.186,0.37-0.569,0.715-1.15,1.031c-0.371,0.212-0.886,0.385-1.547,0.516
		C255.386,260.018,254.58,260.004,253.628,259.845z"/>
	<path fill="#9E005D" d="M282.988,257.703c0.423-0.477,0.794-0.82,1.111-1.032c0.265-0.158,0.516-0.171,0.754-0.04
		c0.238,0.133,0.304,0.569,0.198,1.31c0,0.213-0.053,0.45-0.158,0.714c-0.107,0.267-0.252,0.583-0.437,0.953
		c-0.186,0.37-0.49,0.768-0.913,1.19c-0.424,0.476-0.979,1.07-1.667,1.786c-0.688,0.714-1.376,1.415-2.063,2.102
		c-0.688,0.689-1.309,1.31-1.865,1.865c-0.555,0.556-0.913,0.912-1.071,1.071c-0.9,0.794-1.825,1.217-2.777,1.27
		c-0.952,0.052-1.853-0.211-2.698-0.793c-0.742-0.477-1.456-1.27-2.143-2.381c-0.688-1.11-0.873-2.513-0.555-4.206
		c0.211-0.581,0.462-1.281,0.753-2.104c0.291-0.818,0.675-1.599,1.151-2.341c0.369-0.581,0.753-1.177,1.15-1.785
		c0.397-0.606,0.806-1.202,1.23-1.785c0.105-0.158,0.238-0.344,0.397-0.556c0.159-0.211,0.29-0.437,0.396-0.674
		c0.105-0.238,0.159-0.437,0.159-0.596s-0.132-0.264-0.396-0.317c-0.317-0.052-1.006,0.317-2.063,1.111
		c-1.059,0.793-2.261,1.76-3.611,2.896c-1.349,1.138-2.725,2.354-4.126,3.65c-1.402,1.296-2.579,2.419-3.531,3.372
		c-0.159,0.37-0.317,0.82-0.477,1.35c-0.159,0.528-0.266,1.005-0.317,1.428c0,0.635,0.105,1.085,0.317,1.35h0.556
		c0.528,0.105,0.687,0.45,0.476,1.031c0,0.053-0.027,0.106-0.079,0.159c0,0.053-0.027,0.079-0.08,0.079
		c0,0.158-0.08,0.265-0.238,0.317c-0.053,0.054-0.212,0.158-0.476,0.317c-0.318,0.265-0.742,0.423-1.27,0.476
		c-0.687,0.052-1.27-0.026-1.746-0.238h-0.08c-0.052,0-0.105-0.026-0.159-0.078c-0.423-0.159-0.635-0.291-0.635-0.397
		c-1.111-0.793-1.613-1.957-1.507-3.492c0-0.687,0.132-1.48,0.396-2.381c0.053-0.104,0.079-0.21,0.079-0.316
		c0.053,0,0.08-0.053,0.08-0.158c0.477-1.588,1.19-3.24,2.143-4.96s1.93-3.347,2.936-4.881c0.264-0.423,0.502-0.846,0.714-1.27
		c0.211-0.424,0.37-0.794,0.476-1.111h-0.079h0.079v-0.158v-0.556v-0.237c-0.053-0.106-0.079-0.266-0.079-0.477
		c0-0.265,0.079-0.503,0.238-0.714c0.105-0.159,0.29-0.305,0.556-0.437c0.264-0.132,0.661-0.199,1.19-0.199
		c0.105,0,0.199,0.014,0.278,0.04c0.08,0.027,0.171,0.04,0.278,0.04c0.476,0.157,0.964,0.41,1.468,0.753
		c0.502,0.345,0.952,0.754,1.349,1.23c0.397,0.477,0.661,1.005,0.794,1.587c0.131,0.583,0.065,1.19-0.199,1.825
		c-0.107,0.159-0.198,0.318-0.278,0.476c-0.079,0.159-0.172,0.345-0.277,0.557c-0.107,0.158-0.226,0.33-0.357,0.515
		c-0.133,0.187-0.305,0.41-0.516,0.676v-0.08c-0.212,0.317-0.371,0.53-0.477,0.635c1.111-1.004,2.262-1.984,3.452-2.936
		c1.19-0.953,2.341-1.813,3.452-2.58c1.111-0.766,2.155-1.36,3.134-1.784c0.979-0.423,1.812-0.608,2.5-0.557h0.08
		c1.163,0.159,1.97,0.544,2.42,1.15c0.449,0.609,0.647,1.35,0.595,2.223c-0.054,0.872-0.345,1.839-0.873,2.896
		c-0.529,1.059-1.19,2.116-1.984,3.174c-0.106,0.106-0.186,0.212-0.238,0.318c-0.053,0.105-0.132,0.211-0.238,0.317
		c-0.106,0.157-0.212,0.305-0.317,0.437c-0.106,0.132-0.212,0.251-0.317,0.356l-1.111,1.508v0.079
		c-1.111,1.535-1.958,2.817-2.539,3.849c-0.583,1.032-0.556,1.76,0.08,2.183c0.211,0.158,0.528,0.186,0.952,0.079
		c0.317-0.105,0.74-0.317,1.27-0.635c0.528-0.317,1.163-0.846,1.904-1.587c0.74-0.74,1.429-1.468,2.063-2.182
		c0.635-0.715,1.216-1.362,1.746-1.945C281.903,258.813,282.459,258.232,282.988,257.703z"/>
	<path fill="#9E005D" d="M295.208,257.544c0.37-0.477,0.714-0.819,1.032-1.031c0.264-0.159,0.502-0.172,0.714-0.04
		c0.211,0.133,0.344,0.568,0.397,1.31c0.052,0.212,0.052,0.45,0,0.714c-0.053,0.266-0.159,0.583-0.317,0.952
		c-0.158,0.37-0.424,0.769-0.793,1.19c-0.371,0.477-0.847,1.071-1.428,1.786c-0.583,0.714-1.164,1.415-1.746,2.103
		c-0.583,0.688-1.099,1.309-1.547,1.865c-0.45,0.556-0.754,0.912-0.913,1.07c-0.741,0.794-1.601,1.23-2.579,1.31
		c-0.979,0.08-1.918-0.17-2.817-0.754c-0.37-0.21-0.78-0.528-1.23-0.952c-0.449-0.423-0.846-0.912-1.19-1.468
		c-0.343-0.556-0.634-1.19-0.873-1.904s-0.33-1.469-0.278-2.263c0.106-0.581,0.251-1.281,0.437-2.102
		c0.186-0.82,0.464-1.6,0.833-2.341c0.371-0.899,0.793-1.772,1.27-2.619s0.925-1.613,1.349-2.302
		c0.476-0.793,0.952-1.56,1.428-2.301c0.846-1.27,1.746-2.646,2.698-4.127c0.952-1.48,1.718-2.697,2.301-3.65
		c-2.698,0-4.894-0.131-6.586-0.396c-1.692-0.264-3.015-0.567-3.968-0.912c-0.952-0.345-1.587-0.688-1.904-1.032
		c-0.317-0.344-0.423-0.595-0.317-0.754c0.212-0.477,0.529-0.66,0.952-0.556c0.212,0.054,0.397,0.187,0.556,0.396
		c0.158,0.213,0.821,0.372,1.984,0.477c1.164,0.106,2.46,0.159,3.888,0.159c1.429,0,2.817-0.026,4.167-0.079
		s2.314-0.106,2.896-0.158c-0.424-0.741-0.714-1.416-0.873-2.024c-0.159-0.607,0-1.441,0.476-2.5
		c0.528-1.11,1.111-1.943,1.746-2.499c0.635-0.557,1.242-0.965,1.825-1.23c0.635-0.264,1.295-0.396,1.984-0.396
		c1.004,0.106,1.891,0.714,2.658,1.825c0.767,1.111,0.965,2.328,0.595,3.649h-0.08c-0.053,0.213-0.186,0.583-0.396,1.112
		c-0.106,0.211-0.226,0.45-0.357,0.714c-0.133,0.265-0.306,0.582-0.516,0.951c1.534-0.422,3.095-0.793,4.682-1.11
		c1.587-0.317,3.015-0.527,4.285-0.635c1.429-0.105,2.54-0.013,3.333,0.277c0.793,0.291,1.389,0.675,1.785,1.15
		c0.397,0.477,0.647,0.953,0.754,1.43c0.105,0.475,0.159,0.82,0.159,1.031c-0.054,0.634-0.159,1.164-0.317,1.587
		c-0.159,0.37-0.371,0.688-0.635,0.952c-0.266,0.266-0.609,0.266-1.032,0c-0.317-0.159-0.821-0.396-1.508-0.714
		c-0.688-0.318-1.561-0.608-2.619-0.873c-1.059-0.265-2.289-0.437-3.69-0.516c-1.402-0.08-2.95,0.039-4.642,0.356
		c-0.424,0.107-0.833,0.199-1.23,0.277c-0.397,0.08-0.807,0.173-1.23,0.278c-0.054,0-0.186,0.054-0.397,0.158
		c-0.9,1.377-1.865,2.831-2.896,4.365c-1.032,1.535-2.024,3.016-2.977,4.443c-0.952,1.43-1.825,2.738-2.618,3.928
		c-0.793,1.19-1.402,2.131-1.825,2.817l-0.873,1.587c-0.9,1.535-1.363,2.817-1.389,3.85c-0.027,1.031,0.304,1.759,0.992,2.182
		c0.318,0.159,0.661,0.187,1.032,0.08c0.317-0.106,0.714-0.317,1.19-0.635c0.476-0.318,1.004-0.846,1.587-1.588
		c0.582-0.74,1.15-1.454,1.706-2.143c0.556-0.687,1.044-1.321,1.468-1.904C294.308,258.734,294.784,258.127,295.208,257.544z
		 M297.192,233.262c-0.529,0.053-1.059,0.464-1.587,1.229c-0.529,0.768-0.714,1.627-0.556,2.58c0.476-0.74,0.833-1.336,1.071-1.786
		c0.238-0.449,0.437-0.806,0.595-1.071c0.159-0.264,0.264-0.463,0.317-0.596C297.085,233.487,297.139,233.368,297.192,233.262z"/>
	<path fill="#9E005D" d="M309.253,259.527c-1.481,2.276-2.936,4.234-4.364,5.872c-0.634,0.689-1.283,1.337-1.944,1.945
		c-0.663,0.608-1.336,1.099-2.024,1.468s-1.349,0.595-1.984,0.674c-0.635,0.08-1.244-0.066-1.825-0.437
		c-1.111-0.793-1.944-1.705-2.5-2.737c-0.555-1.031-0.885-2.128-0.992-3.293c-0.105-1.162-0.013-2.328,0.277-3.492
		c0.292-1.163,0.728-2.247,1.31-3.253c0.529-0.952,1.336-1.997,2.42-3.135c1.083-1.137,2.313-2.182,3.69-3.135l0.476-0.316
		c0.105-0.106,0.211-0.171,0.317-0.198c0.105-0.026,0.238-0.092,0.397-0.199c1.375-0.846,3.121-1.587,5.237-2.223
		c2.115-0.634,4.364-0.738,6.745-0.316c0.635,0.159,1.216,0.396,1.746,0.715c0.423,0.265,0.806,0.661,1.15,1.19
		c0.344,0.528,0.542,1.217,0.595,2.063c-0.053,0.37-0.093,0.635-0.119,0.793c-0.027,0.159-0.093,0.346-0.198,0.556
		c-0.159,0.266-0.317,0.425-0.476,0.477v0.08c-0.212,0.105-0.371,0.157-0.476,0.157c-0.159,0-0.292-0.025-0.397-0.079
		c-0.266-0.104-0.371-0.344-0.318-0.714v-0.477c-0.106-0.635-0.608-1.004-1.507-1.11c-0.477-0.106-1.323,0-2.539,0.317
		c-1.218,0.317-2.672,1.006-4.365,2.063c-0.317,0.159-0.623,0.345-0.913,0.557c-0.291,0.211-0.595,0.424-0.913,0.634
		c-0.107,0.107-0.186,0.173-0.238,0.199c-0.053,0.027-0.132,0.092-0.238,0.198h-0.079c-0.742,0.583-1.536,1.297-2.381,2.143
		c-0.793,0.9-1.601,1.892-2.42,2.976c-0.821,1.085-1.496,2.116-2.023,3.096c-0.529,0.979-0.847,1.838-0.952,2.578
		c-0.106,0.741,0.159,1.218,0.793,1.428c0.528,0.159,1.389-0.25,2.579-1.229c1.19-0.979,2.432-2.156,3.729-3.531
		c1.296-1.376,2.539-2.777,3.729-4.207c1.19-1.428,2.076-2.512,2.659-3.253c0.052,0,0.08-0.013,0.08-0.04
		c0-0.026,0.025-0.04,0.079-0.04c0.476-0.581,1.031-1.097,1.667-1.547c0.635-0.448,1.322-0.542,2.063-0.277
		c1.375,0.424,2.248,1.031,2.619,1.824c0.37,0.794,0.343,1.563-0.079,2.302v0.079v0.079c-0.053,0-0.08,0.027-0.08,0.08
		s-0.014,0.079-0.04,0.079c-0.027,0-0.04,0.027-0.04,0.08l-0.08,0.078v0.08l-0.08,0.079c-0.106,0.106-0.186,0.237-0.237,0.396
		c-0.054,0.159-0.133,0.291-0.238,0.397v0.079c-0.054,0-0.08,0.027-0.08,0.08v0.078c-0.054,0-0.08,0.027-0.08,0.08l-0.079,0.079
		v0.079c-0.053,0-0.08,0.027-0.08,0.08c-0.476,0.793-0.926,1.561-1.349,2.301c-0.424,0.741-0.754,1.441-0.992,2.104
		c-0.238,0.661-0.357,1.229-0.357,1.705s0.159,0.821,0.476,1.032c0.265,0.158,0.608,0.186,1.032,0.079
		c0.318-0.105,0.727-0.317,1.23-0.635c0.502-0.317,1.071-0.873,1.706-1.667c0.635-0.74,1.243-1.454,1.825-2.142
		c0.582-0.688,1.111-1.322,1.587-1.905c0.582-0.635,1.111-1.241,1.587-1.825c0.37-0.476,0.714-0.819,1.032-1.031
		c0.264-0.158,0.502-0.171,0.714-0.039c0.21,0.132,0.317,0.568,0.317,1.309c0,0.266-0.027,0.529-0.08,0.793
		c-0.106,0.267-0.226,0.57-0.357,0.913c-0.132,0.345-0.384,0.728-0.754,1.15c-0.424,0.477-0.952,1.072-1.587,1.786
		c-0.635,0.714-1.27,1.416-1.904,2.104c-0.635,0.688-1.191,1.309-1.667,1.864c-0.477,0.555-0.794,0.913-0.952,1.071
		c-0.794,0.793-1.681,1.229-2.659,1.31c-0.979,0.079-1.918-0.172-2.817-0.754c-0.476-0.317-0.979-0.727-1.507-1.23
		c-0.53-0.502-0.979-1.123-1.349-1.864c-0.371-0.741-0.595-1.561-0.674-2.46C308.659,261.645,308.83,260.639,309.253,259.527z"/>
	<path fill="#9E005D" d="M349.169,257.703c0.423-0.477,0.793-0.82,1.11-1.032c0.265-0.158,0.516-0.171,0.754-0.04
		c0.238,0.133,0.304,0.569,0.198,1.31c0,0.213-0.053,0.45-0.158,0.714c-0.106,0.267-0.252,0.583-0.437,0.953
		c-0.186,0.37-0.49,0.768-0.913,1.19c-0.424,0.476-0.979,1.07-1.667,1.786c-0.688,0.714-1.376,1.415-2.063,2.102
		c-0.688,0.689-1.31,1.31-1.865,1.865c-0.555,0.556-0.912,0.912-1.071,1.071c-0.9,0.794-1.825,1.217-2.777,1.27
		c-0.952,0.052-1.852-0.211-2.698-0.793c-0.741-0.477-1.456-1.27-2.143-2.381c-0.688-1.11-0.873-2.513-0.556-4.206
		c0.211-0.581,0.462-1.281,0.754-2.104c0.29-0.818,0.674-1.599,1.151-2.341c0.369-0.581,0.753-1.177,1.15-1.785
		c0.397-0.606,0.806-1.202,1.23-1.785c0.105-0.158,0.238-0.344,0.397-0.556c0.159-0.211,0.29-0.437,0.396-0.674
		c0.105-0.238,0.159-0.437,0.159-0.596s-0.132-0.264-0.396-0.317c-0.317-0.052-1.006,0.317-2.063,1.111
		c-1.059,0.793-2.262,1.76-3.611,2.896c-1.35,1.138-2.726,2.354-4.127,3.65c-1.402,1.296-2.579,2.419-3.531,3.372
		c-0.159,0.37-0.317,0.82-0.476,1.35c-0.159,0.528-0.266,1.005-0.318,1.428c0,0.635,0.106,1.085,0.318,1.35h0.555
		c0.528,0.105,0.687,0.45,0.476,1.031c0,0.053-0.027,0.106-0.079,0.159c0,0.053-0.027,0.079-0.08,0.079
		c0,0.158-0.079,0.265-0.238,0.317c-0.053,0.054-0.212,0.158-0.476,0.317c-0.318,0.265-0.742,0.423-1.27,0.476
		c-0.687,0.052-1.269-0.026-1.746-0.238h-0.08c-0.052,0-0.105-0.026-0.159-0.078c-0.423-0.159-0.635-0.291-0.635-0.397
		c-1.111-0.793-1.613-1.957-1.507-3.492c0-0.687,0.132-1.48,0.396-2.381c0.054-0.104,0.079-0.21,0.079-0.316
		c0.053,0,0.08-0.053,0.08-0.158c0.477-1.588,1.19-3.24,2.143-4.96c0.953-1.72,1.93-3.347,2.937-4.881
		c0.264-0.423,0.502-0.846,0.714-1.27c0.211-0.424,0.37-0.794,0.476-1.111h-0.08h0.08v-0.158v-0.556v-0.237
		c-0.053-0.106-0.08-0.266-0.08-0.477c0-0.265,0.08-0.503,0.238-0.714c0.105-0.159,0.29-0.305,0.556-0.437
		c0.264-0.132,0.661-0.199,1.19-0.199c0.105,0,0.199,0.014,0.278,0.04c0.079,0.027,0.171,0.04,0.277,0.04
		c0.476,0.157,0.964,0.41,1.468,0.753c0.502,0.345,0.952,0.754,1.349,1.23c0.397,0.477,0.661,1.005,0.794,1.587
		c0.131,0.583,0.066,1.19-0.199,1.825c-0.107,0.159-0.198,0.318-0.278,0.476c-0.079,0.159-0.172,0.345-0.277,0.557
		c-0.107,0.158-0.226,0.33-0.357,0.515c-0.133,0.187-0.305,0.41-0.516,0.676v-0.08c-0.212,0.317-0.371,0.53-0.476,0.635
		c1.111-1.004,2.261-1.984,3.452-2.936c1.19-0.953,2.341-1.813,3.452-2.58c1.111-0.766,2.155-1.36,3.134-1.784
		c0.979-0.423,1.812-0.608,2.5-0.557h0.079c1.163,0.159,1.97,0.544,2.42,1.15c0.449,0.609,0.647,1.35,0.595,2.223
		c-0.054,0.872-0.345,1.839-0.873,2.896c-0.529,1.059-1.19,2.116-1.984,3.174c-0.106,0.106-0.186,0.212-0.238,0.318
		c-0.053,0.105-0.133,0.211-0.238,0.317c-0.106,0.157-0.212,0.305-0.317,0.437c-0.106,0.132-0.212,0.251-0.317,0.356l-1.111,1.508
		v0.079c-1.111,1.535-1.958,2.817-2.54,3.849c-0.583,1.032-0.556,1.76,0.08,2.183c0.211,0.158,0.528,0.186,0.952,0.079
		c0.317-0.105,0.74-0.317,1.27-0.635c0.528-0.317,1.163-0.846,1.904-1.587c0.74-0.74,1.429-1.468,2.063-2.182
		c0.635-0.715,1.216-1.362,1.746-1.945C348.083,258.813,348.639,258.232,349.169,257.703z"/>
	<path fill="#9E005D" d="M363.134,259.527c-1.481,2.276-2.936,4.234-4.364,5.872c-0.634,0.689-1.283,1.337-1.944,1.945
		c-0.663,0.608-1.336,1.099-2.024,1.468s-1.349,0.595-1.984,0.674c-0.635,0.08-1.244-0.066-1.825-0.437
		c-1.111-0.793-1.944-1.705-2.5-2.737c-0.555-1.031-0.885-2.128-0.992-3.293c-0.106-1.162-0.013-2.328,0.278-3.492
		c0.291-1.163,0.728-2.247,1.309-3.253c0.529-0.952,1.336-1.997,2.42-3.135c1.083-1.137,2.313-2.182,3.69-3.135l0.476-0.316
		c0.105-0.106,0.211-0.171,0.317-0.198c0.105-0.026,0.238-0.092,0.397-0.199c1.375-0.846,3.121-1.587,5.237-2.223
		c2.115-0.634,4.364-0.738,6.745-0.316c0.635,0.159,1.216,0.396,1.746,0.715c0.423,0.265,0.806,0.661,1.15,1.19
		c0.344,0.528,0.542,1.217,0.596,2.063c-0.053,0.37-0.093,0.635-0.119,0.793c-0.027,0.159-0.093,0.346-0.198,0.556
		c-0.159,0.266-0.317,0.425-0.477,0.477v0.08c-0.212,0.105-0.371,0.157-0.476,0.157c-0.159,0-0.292-0.025-0.397-0.079
		c-0.266-0.104-0.371-0.344-0.318-0.714v-0.477c-0.106-0.635-0.608-1.004-1.507-1.11c-0.477-0.106-1.323,0-2.539,0.317
		c-1.218,0.317-2.672,1.006-4.365,2.063c-0.317,0.159-0.623,0.345-0.913,0.557c-0.291,0.211-0.595,0.424-0.913,0.634
		c-0.107,0.107-0.186,0.173-0.238,0.199c-0.053,0.027-0.132,0.092-0.238,0.198h-0.079c-0.742,0.583-1.536,1.297-2.381,2.143
		c-0.793,0.9-1.601,1.892-2.42,2.976c-0.821,1.085-1.496,2.116-2.023,3.096c-0.529,0.979-0.847,1.838-0.952,2.578
		c-0.106,0.741,0.159,1.218,0.793,1.428c0.528,0.159,1.389-0.25,2.579-1.229c1.19-0.979,2.432-2.156,3.729-3.531
		c1.295-1.376,2.539-2.777,3.729-4.207c1.19-1.428,2.076-2.512,2.659-3.253c0.052,0,0.08-0.013,0.08-0.04
		c0-0.026,0.025-0.04,0.079-0.04c0.476-0.581,1.031-1.097,1.667-1.547c0.635-0.448,1.322-0.542,2.063-0.277
		c1.375,0.424,2.248,1.031,2.618,1.824c0.37,0.794,0.344,1.563-0.079,2.302v0.079v0.079c-0.053,0-0.08,0.027-0.08,0.08
		s-0.014,0.079-0.04,0.079c-0.027,0-0.04,0.027-0.04,0.08l-0.079,0.078v0.08l-0.08,0.079c-0.106,0.106-0.186,0.237-0.237,0.396
		c-0.054,0.159-0.133,0.291-0.238,0.397v0.079c-0.054,0-0.08,0.027-0.08,0.08v0.078c-0.054,0-0.079,0.027-0.079,0.08l-0.08,0.079
		v0.079c-0.053,0-0.08,0.027-0.08,0.08c-0.476,0.793-0.926,1.561-1.349,2.301c-0.424,0.741-0.754,1.441-0.992,2.104
		c-0.238,0.661-0.357,1.229-0.357,1.705s0.159,0.821,0.476,1.032c0.265,0.158,0.608,0.186,1.032,0.079
		c0.318-0.105,0.727-0.317,1.23-0.635c0.502-0.317,1.071-0.873,1.706-1.667c0.635-0.74,1.242-1.454,1.825-2.142
		c0.582-0.688,1.111-1.322,1.587-1.905c0.582-0.635,1.111-1.241,1.587-1.825c0.37-0.476,0.714-0.819,1.032-1.031
		c0.264-0.158,0.502-0.171,0.714-0.039c0.21,0.132,0.317,0.568,0.317,1.309c0,0.266-0.027,0.529-0.08,0.793
		c-0.106,0.267-0.226,0.57-0.357,0.913c-0.132,0.345-0.384,0.728-0.754,1.15c-0.424,0.477-0.952,1.072-1.587,1.786
		c-0.635,0.714-1.27,1.416-1.904,2.104c-0.635,0.688-1.19,1.309-1.667,1.864c-0.477,0.555-0.794,0.913-0.952,1.071
		c-0.794,0.793-1.681,1.229-2.659,1.31c-0.979,0.079-1.918-0.172-2.817-0.754c-0.476-0.317-0.979-0.727-1.507-1.23
		c-0.53-0.502-0.979-1.123-1.349-1.864c-0.371-0.741-0.595-1.561-0.674-2.46C362.539,261.645,362.71,260.639,363.134,259.527z"/>
</g>
<g>
	<path fill="#26397B" d="M157.567,300.684c-0.069,0.068-0.148,0.102-0.24,0.102h-12.095c-0.091,0-0.175-0.037-0.251-0.113
		c-0.076-0.075-0.114-0.167-0.114-0.273v-1.348c0-0.075,0.042-0.151,0.125-0.228c0.084-0.075,0.171-0.114,0.263-0.114h12.072
		c0.091,0,0.171,0.034,0.24,0.104c0.068,0.067,0.103,0.148,0.103,0.238v1.37C157.67,300.527,157.636,300.614,157.567,300.684z
		 M151.462,301.585c0.685,0,1.332,0.106,1.94,0.319c0.608,0.214,1.137,0.502,1.586,0.867c0.449,0.365,0.803,0.796,1.062,1.289
		c0.259,0.495,0.388,1.023,0.388,1.586c0,0.578-0.129,1.115-0.388,1.608c-0.259,0.495-0.612,0.925-1.062,1.29
		c-0.449,0.365-0.978,0.654-1.586,0.867c-0.608,0.214-1.263,0.32-1.962,0.32c-0.685,0-1.324-0.106-1.917-0.32
		c-0.593-0.213-1.115-0.502-1.563-0.867s-0.803-0.795-1.061-1.29c-0.259-0.493-0.388-1.03-0.388-1.608
		c0-0.563,0.129-1.091,0.388-1.586c0.258-0.493,0.612-0.924,1.061-1.289s0.974-0.653,1.575-0.867
		C150.135,301.691,150.778,301.585,151.462,301.585z M154.623,297.613c-0.068,0.077-0.163,0.114-0.285,0.114h-5.956
		c-0.061,0-0.133-0.03-0.217-0.09c-0.084-0.062-0.126-0.146-0.126-0.252v-1.347c0-0.121,0.042-0.213,0.126-0.274
		c0.083-0.06,0.156-0.091,0.217-0.091h5.956c0.106,0,0.198,0.039,0.274,0.115c0.076,0.075,0.115,0.167,0.115,0.273v1.301
		C154.727,297.454,154.692,297.537,154.623,297.613z M162.554,316.418c-0.076,0.047-0.152,0.069-0.229,0.069h-12.049
		c-0.685,0-1.149-0.122-1.393-0.366c-0.244-0.243-0.365-0.66-0.365-1.255v-3.537c0-0.075,0.038-0.151,0.114-0.229
		c0.076-0.075,0.152-0.114,0.229-0.114h1.939c0.106,0,0.194,0.039,0.263,0.114c0.068,0.077,0.103,0.153,0.103,0.229v2.602
		c0,0.152,0.031,0.252,0.091,0.297s0.167,0.068,0.32,0.068h10.748c0.077,0,0.152,0.03,0.229,0.091
		c0.076,0.062,0.114,0.13,0.114,0.207v1.619C162.668,316.304,162.63,316.373,162.554,316.418z M151.462,303.615
		c-0.715,0-1.309,0.198-1.78,0.594c-0.472,0.396-0.707,0.875-0.707,1.438c0,0.578,0.235,1.073,0.707,1.484
		c0.471,0.41,1.064,0.615,1.78,0.615c0.73,0,1.328-0.205,1.792-0.615c0.464-0.411,0.696-0.906,0.696-1.484
		c0-0.563-0.232-1.041-0.696-1.438C152.79,303.813,152.193,303.615,151.462,303.615z M165.098,304.928
		c-0.068,0.055-0.148,0.08-0.239,0.08h-3.081v6.573c0,0.196-0.099,0.296-0.296,0.296h-2.032c-0.197,0-0.296-0.1-0.296-0.296v-16.113
		c0-0.196,0.099-0.296,0.296-0.296h2.032c0.197,0,0.296,0.1,0.296,0.296v7.35h3.081c0.091,0,0.171,0.03,0.239,0.091
		c0.069,0.061,0.103,0.13,0.103,0.206v1.62C165.201,304.81,165.167,304.875,165.098,304.928z"/>
	<path fill="#26397B" d="M180.514,297.227c0,0.35-0.011,0.756-0.034,1.22c-0.023,0.465-0.061,0.959-0.114,1.483
		c-0.054,0.525-0.118,1.062-0.194,1.609c-0.076,0.547-0.167,1.08-0.274,1.598h3.355c0.076,0,0.152,0.042,0.228,0.126
		c0.077,0.084,0.114,0.163,0.114,0.238v1.484c0,0.076-0.038,0.151-0.114,0.228c-0.076,0.077-0.152,0.114-0.228,0.114h-8.809v3.401
		h4.45c0.624,0,1.031,0.105,1.221,0.318c0.19,0.213,0.286,0.654,0.286,1.324v6.139c0,0.076-0.034,0.148-0.103,0.217
		s-0.141,0.103-0.217,0.103h-1.986c-0.091,0-0.171-0.034-0.239-0.103s-0.103-0.141-0.103-0.217v-5.249
		c0-0.152-0.031-0.25-0.092-0.297c-0.061-0.045-0.175-0.068-0.342-0.068H166.09c-0.076,0-0.152-0.026-0.228-0.08
		c-0.076-0.053-0.114-0.117-0.114-0.193v-1.62c0-0.092,0.038-0.159,0.114-0.206c0.076-0.045,0.152-0.067,0.228-0.067h5.729v-3.401
		h-8.444c-0.091,0-0.167-0.037-0.228-0.114c-0.061-0.076-0.091-0.151-0.091-0.228v-1.484c0-0.242,0.106-0.364,0.319-0.364h14.104
		c0.137-0.746,0.251-1.518,0.342-2.316s0.137-1.654,0.137-2.567c0-0.213-0.053-0.347-0.16-0.399c-0.106-0.054-0.266-0.08-0.479-0.08
		h-10.635c-0.076,0-0.152-0.029-0.229-0.091c-0.076-0.062-0.114-0.129-0.114-0.206v-1.575c0-0.09,0.038-0.159,0.114-0.204
		c0.077-0.046,0.152-0.068,0.229-0.068h12.323c0.487,0,0.859,0.125,1.119,0.376C180.384,296.256,180.514,296.664,180.514,297.227z"
		/>
	<path fill="#26397B" d="M209.496,310.896c0.076,0.076,0.114,0.152,0.114,0.228v1.507c0,0.076-0.038,0.152-0.114,0.228
		c-0.076,0.077-0.152,0.115-0.228,0.115H189.39c-0.091,0-0.167-0.038-0.228-0.115c-0.061-0.075-0.091-0.151-0.091-0.228v-1.507
		c0-0.09,0.031-0.171,0.091-0.238c0.061-0.069,0.137-0.104,0.228-0.104h19.877C209.343,310.781,209.419,310.82,209.496,310.896z
		 M206.631,306.435c-0.053,0.053-0.118,0.079-0.193,0.079h-12.643c-0.609,0-1.05-0.151-1.324-0.456
		c-0.273-0.305-0.41-0.723-0.41-1.256v-6.618c0-0.577,0.129-0.969,0.388-1.175c0.259-0.205,0.677-0.308,1.255-0.308h12.529
		c0.213,0,0.319,0.1,0.319,0.297v1.597c0,0.198-0.106,0.297-0.319,0.297h-11.137c-0.274,0-0.411,0.13-0.411,0.389v4.654
		c0,0.138,0.027,0.24,0.08,0.309s0.164,0.103,0.331,0.103h11.251c0.121,0,0.213,0.016,0.273,0.047
		c0.061,0.03,0.092,0.106,0.092,0.228v1.552C206.712,306.294,206.685,306.381,206.631,306.435z"/>
	<path fill="#26397B" d="M221.237,310.633c-0.084,0.068-0.187,0.118-0.308,0.148c-0.669,0.153-1.472,0.285-2.407,0.4
		c-0.937,0.114-1.879,0.201-2.83,0.262c-0.951,0.061-1.856,0.099-2.716,0.113c-0.86,0.017-1.541,0-2.042-0.045
		c-0.669-0.06-1.13-0.205-1.38-0.434c-0.251-0.229-0.377-0.631-0.377-1.209v-5.477c0-0.548,0.133-0.944,0.399-1.188
		c0.266-0.244,0.665-0.365,1.198-0.365h5.431c0.122,0,0.206-0.019,0.251-0.058c0.045-0.037,0.068-0.132,0.068-0.285v-3.194
		c0-0.121-0.015-0.205-0.046-0.252c-0.03-0.045-0.122-0.067-0.274-0.067h-6.572c-0.076,0-0.148-0.03-0.217-0.092
		c-0.068-0.06-0.103-0.129-0.103-0.205v-1.574c0-0.076,0.035-0.141,0.103-0.194c0.069-0.053,0.141-0.08,0.217-0.08h7.941
		c0.654,0,1.077,0.122,1.267,0.364c0.19,0.245,0.285,0.64,0.285,1.188v5.066c0,0.578-0.118,0.974-0.354,1.187
		c-0.236,0.214-0.65,0.32-1.243,0.32h-5.409c-0.213,0-0.319,0.106-0.319,0.319v3.605c0,0.168,0.03,0.277,0.091,0.331
		c0.061,0.053,0.167,0.08,0.32,0.08c0.684,0.03,1.388,0.034,2.111,0.011c0.722-0.022,1.445-0.061,2.167-0.114
		c0.723-0.053,1.434-0.125,2.134-0.217c0.699-0.091,1.361-0.197,1.985-0.319c0.121-0.03,0.231-0.019,0.331,0.034
		c0.099,0.054,0.164,0.149,0.194,0.285l0.206,1.369C221.354,310.471,221.32,310.564,221.237,310.633z M228.517,305.624
		c-0.069,0.062-0.141,0.092-0.217,0.092h-3.104v10.816c0,0.198-0.099,0.297-0.297,0.297h-2.031c-0.198,0-0.297-0.099-0.297-0.297
		v-21.064c0-0.196,0.099-0.296,0.297-0.296h2.031c0.198,0,0.297,0.1,0.297,0.296v8.057h3.104c0.076,0,0.148,0.026,0.217,0.08
		c0.068,0.053,0.102,0.117,0.102,0.193v1.599C228.619,305.487,228.585,305.564,228.517,305.624z"/>
	<path fill="#26397B" d="M238.136,310.085c-0.244,0.237-0.655,0.354-1.232,0.354h-7.166c-0.639,0-1.081-0.117-1.323-0.354
		c-0.244-0.235-0.365-0.649-0.365-1.242V298.39c0-0.578,0.118-0.978,0.354-1.198c0.236-0.22,0.643-0.331,1.221-0.331h7.28
		c0.578,0,0.989,0.104,1.232,0.309c0.243,0.206,0.365,0.612,0.365,1.221v10.453C238.5,309.436,238.379,309.85,238.136,310.085z
		 M235.876,299.303c0-0.121-0.019-0.202-0.057-0.24c-0.039-0.037-0.118-0.057-0.24-0.057h-4.632c-0.122,0-0.202,0.016-0.239,0.045
		c-0.039,0.031-0.057,0.108-0.057,0.229v8.718c0,0.137,0.019,0.221,0.057,0.25c0.037,0.03,0.118,0.047,0.239,0.047h4.632
		c0.122,0,0.202-0.017,0.24-0.047c0.038-0.029,0.057-0.113,0.057-0.25V299.303z M247.23,305.579c-0.068,0.061-0.141,0.09-0.217,0.09
		h-3.104v10.863c0,0.198-0.099,0.297-0.297,0.297h-2.031c-0.198,0-0.296-0.099-0.296-0.297v-21.064c0-0.196,0.098-0.296,0.296-0.296
		h2.031c0.198,0,0.297,0.1,0.297,0.296v8.011h3.104c0.076,0,0.148,0.027,0.217,0.08c0.068,0.054,0.103,0.118,0.103,0.194v1.597
		C247.333,305.441,247.298,305.518,247.23,305.579z"/>
</g>
<g>
	<path fill="#26397B" d="M276.595,310.233c0,1.188-0.229,2.222-0.688,3.098c-0.458,0.875-1.072,1.605-1.842,2.189
		c-0.77,0.584-1.665,1.022-2.685,1.314c-1.02,0.291-2.092,0.437-3.216,0.437s-2.191-0.146-3.2-0.437
		c-1.01-0.292-1.905-0.73-2.686-1.314c-0.78-0.584-1.4-1.314-1.857-2.189c-0.458-0.876-0.687-1.909-0.687-3.098v-8.102
		c0-1.188,0.25-2.211,0.749-3.065c0.5-0.855,1.15-1.565,1.952-2.128c0.802-0.563,1.702-0.98,2.701-1.252
		c0.999-0.271,2.009-0.406,3.029-0.406c1.02,0,2.034,0.146,3.044,0.438s1.915,0.725,2.717,1.298
		c0.801,0.574,1.447,1.299,1.936,2.174c0.489,0.876,0.734,1.908,0.734,3.098V310.233z M271.621,303.227
		c0-0.626-0.104-1.152-0.313-1.579c-0.208-0.429-0.474-0.772-0.797-1.033c-0.324-0.26-0.693-0.454-1.11-0.578
		c-0.417-0.126-0.824-0.188-1.22-0.188c-0.418,0-0.83,0.063-1.236,0.188c-0.407,0.124-0.777,0.318-1.111,0.578
		c-0.333,0.261-0.605,0.604-0.813,1.033c-0.209,0.427-0.313,0.953-0.313,1.579v6.101c0,0.625,0.104,1.152,0.313,1.579
		c0.208,0.428,0.479,0.771,0.813,1.032c0.333,0.262,0.704,0.454,1.111,0.579c0.406,0.125,0.818,0.188,1.236,0.188
		c0.396,0,0.802-0.063,1.22-0.188c0.417-0.125,0.787-0.317,1.11-0.579c0.323-0.261,0.589-0.604,0.797-1.032
		c0.208-0.427,0.313-0.954,0.313-1.579V303.227z"/>
	<path fill="#26397B" d="M296.647,310.734c0,1.084-0.23,2.028-0.688,2.831c-0.459,0.803-1.08,1.475-1.861,2.018
		c-0.782,0.543-1.7,0.949-2.753,1.22c-1.053,0.271-2.164,0.406-3.332,0.406c-0.792,0-1.559-0.041-2.299-0.124
		c-0.74-0.084-1.455-0.235-2.143-0.454s-1.372-0.521-2.049-0.906c-0.678-0.387-1.351-0.871-2.018-1.455l2.784-3.66
		c0.917,0.73,1.84,1.267,2.769,1.611c0.928,0.344,1.861,0.516,2.8,0.516c0.688,0,1.262-0.063,1.721-0.188
		c0.458-0.126,0.829-0.286,1.11-0.485c0.281-0.197,0.479-0.411,0.594-0.642c0.115-0.229,0.172-0.448,0.172-0.656
		c0-0.313-0.078-0.59-0.235-0.83c-0.156-0.238-0.422-0.463-0.798-0.672c-0.375-0.208-0.871-0.417-1.486-0.625
		c-0.615-0.208-1.382-0.438-2.299-0.688c-1.001-0.271-1.888-0.578-2.66-0.923c-0.772-0.344-1.423-0.762-1.955-1.252
		c-0.532-0.489-0.934-1.068-1.204-1.735c-0.271-0.668-0.407-1.471-0.407-2.409c0-0.98,0.193-1.861,0.579-2.643
		c0.386-0.783,0.928-1.449,1.627-2.003c0.698-0.553,1.533-0.975,2.502-1.267c0.969-0.292,2.028-0.438,3.175-0.438
		c1.251,0,2.486,0.115,3.707,0.344c1.22,0.23,2.487,0.782,3.801,1.659l-2.221,4.004c-1.022-0.646-1.955-1.053-2.8-1.221
		c-0.844-0.166-1.694-0.25-2.549-0.25c-0.792,0-1.434,0.13-1.924,0.391c-0.49,0.262-0.735,0.694-0.735,1.299
		c0,0.271,0.078,0.516,0.234,0.735c0.156,0.219,0.422,0.433,0.798,0.641c0.375,0.209,0.865,0.412,1.47,0.61
		c0.604,0.198,1.345,0.422,2.221,0.673c1.376,0.376,2.481,0.798,3.316,1.267c0.833,0.47,1.475,0.98,1.924,1.532
		c0.448,0.554,0.746,1.148,0.892,1.783C296.574,309.385,296.647,310.046,296.647,310.734z"/>
	<path fill="#26397B" d="M308.503,299.973v17.08h-4.974v-17.08h-5.474V295.5h15.891v4.473H308.503z"/>
</g>
</svg>
