<?xml version="1.0" encoding="utf-8"?>
<!-- Generator: Adobe Illustrator 16.0.0, SVG Export Plug-In . SVG Version: 6.00 Build 0)  -->
<!DOCTYPE svg PUBLIC "-//W3C//DTD SVG 1.1//EN" "http://www.w3.org/Graphics/SVG/1.1/DTD/svg11.dtd">
<svg version="1.1" id="Layer_1" xmlns="http://www.w3.org/2000/svg" xmlns:xlink="http://www.w3.org/1999/xlink" x="0px" y="0px"
	 width="99.5px" height="27.71px" viewBox="0 0 99.5 27.71" enable-background="new 0 0 99.5 27.71" xml:space="preserve">
<g>
	<path fill="#004C98" d="M24.185,21.621v-4.406h-6.086v-4.97h12.934v13.465c-1.765,0.606-3.63,1.06-5.601,1.365
		c-1.968,0.313-4.036,0.459-6.199,0.459c-5.156,0-9.029-1.129-11.618-3.396c-2.586-2.26-3.882-5.639-3.882-10.123
		c0-4.442,1.275-7.855,3.832-10.248c2.553-2.395,6.208-3.584,10.963-3.584c4.012,0,7.063,0.73,9.138,2.19
		c2.082,1.46,3.2,3.661,3.364,6.597h-7.428c-0.047-1.213-0.535-2.166-1.477-2.879c-0.937-0.703-2.207-1.052-3.804-1.052
		c-2.392,0-4.228,0.74-5.515,2.222c-1.286,1.494-1.932,3.601-1.932,6.336c0,2.92,0.683,5.117,2.046,6.593
		c1.367,1.469,3.4,2.209,6.103,2.209c0.808,0,1.642-0.066,2.498-0.202C22.395,22.063,23.272,21.878,24.185,21.621z"/>
	<path fill="#004C98" d="M38.44,27.084V0.498h9.012l11.104,19.131V0.498h6.172v26.587H55.69L44.594,8.039v19.046H38.44z"/>
	<path fill="#004C98" d="M95.767,17.812c-0.099,3.186-1.151,5.606-3.172,7.25c-2.008,1.646-4.914,2.467-8.711,2.467
		c-4.469,0-7.871-1.163-10.21-3.514c-2.35-2.34-3.524-5.731-3.524-10.187c0-4.442,1.205-7.829,3.604-10.16
		c2.399-2.325,5.89-3.491,10.474-3.491c3.598,0,6.342,0.746,8.233,2.248c1.897,1.5,2.974,3.777,3.224,6.818h-6.93
		c-0.188-1.232-0.707-2.163-1.543-2.806C86.37,5.804,85.235,5.48,83.778,5.48c-2.243,0-3.902,0.674-4.991,2.014
		c-1.078,1.348-1.622,3.409-1.622,6.201c0,2.806,0.514,4.908,1.555,6.316c1.039,1.407,2.598,2.099,4.686,2.099
		c1.674,0,2.939-0.349,3.814-1.05c0.87-0.7,1.403-1.784,1.594-3.252L95.767,17.812L95.767,17.812z"/>
</g>
</svg>
