<?xml version="1.0" encoding="utf-8"?>
<!-- Generator: Adobe Illustrator 16.0.0, SVG Export Plug-In . SVG Version: 6.00 Build 0)  -->
<!DOCTYPE svg PUBLIC "-//W3C//DTD SVG 1.1//EN" "http://www.w3.org/Graphics/SVG/1.1/DTD/svg11.dtd">
<svg version="1.1" id="Layer_1" xmlns="http://www.w3.org/2000/svg" xmlns:xlink="http://www.w3.org/1999/xlink" x="0px" y="0px"
	 width="358.715px" height="92.143px" viewBox="0 0 358.715 92.143" enable-background="new 0 0 358.715 92.143"
	 xml:space="preserve">
<g>
	<path fill="#004C98" d="M146.213,57.544v-8.853h-12.215v-9.975h25.971V65.75c-3.545,1.218-7.288,2.124-11.248,2.742
		c-3.95,0.62-8.104,0.919-12.435,0.919c-10.354,0-18.131-2.263-23.329-6.813c-5.189-4.547-7.789-11.321-7.789-20.32
		c0-8.924,2.561-15.78,7.693-20.587c5.125-4.801,12.467-7.192,22.003-7.192c8.059,0,14.181,1.468,18.352,4.399
		c4.171,2.94,6.425,7.357,6.753,13.251H145.06c-0.091-2.427-1.075-4.348-2.962-5.772c-1.878-1.417-4.426-2.124-7.634-2.124
		c-4.798,0-8.484,1.49-11.075,4.464c-2.577,2.988-3.873,7.228-3.873,12.719c0,5.859,1.365,10.272,4.106,13.227
		c2.74,2.958,6.825,4.435,12.254,4.435c1.628,0,3.298-0.134,5.021-0.394C142.616,58.434,144.386,58.053,146.213,57.544z"/>
	<path fill="#004C98" d="M174.83,68.515V15.143h18.083l22.302,38.394V15.143h12.383v53.372h-18.144l-22.271-38.242v38.242H174.83z"
		/>
	<path fill="#004C98" d="M289.907,49.902c-0.199,6.395-2.314,11.252-6.36,14.556c-4.037,3.308-9.87,4.956-17.496,4.956
		c-8.972,0-15.799-2.349-20.501-7.056c-4.71-4.696-7.063-11.516-7.063-20.439c0-8.92,2.413-15.721,7.236-20.406
		c4.805-4.671,11.817-7.012,21.02-7.012c7.224,0,12.735,1.502,16.535,4.516c3.806,3.009,5.969,7.582,6.474,13.696h-13.916
		c-0.375-2.479-1.411-4.361-3.101-5.639c-1.688-1.278-3.978-1.917-6.896-1.917c-4.503,0-7.837,1.347-10.013,4.042
		c-2.173,2.697-3.257,6.835-3.257,12.435c0,5.648,1.032,9.871,3.118,12.686c2.095,2.819,5.22,4.215,9.412,4.215
		c3.355,0,5.897-0.695,7.65-2.1c1.754-1.407,2.824-3.588,3.195-6.537h13.959v0.005H289.907z"/>
</g>
<path fill="#004C98" d="M48.244,38.712c0,0,1.988-5.093,3.593-7.646c0,0,0.795-0.763,1.188,0.316c0,0,0.302,3.859,1.322,7.889
	c0,0-0.066,0.354,0.484,0.728c0,0,3.518,1.54,6.87,2.547c0,0,2.227,0.694,0.869,1.343c-1.357,0.647-4.647,1.979-5.833,2.51
	c0,0-0.635,0.442-0.278,1.489c0,0,1.786,4.057,2.074,5.021c0.291,0.961,0.45,1.84-0.744,1.402c0,0-4.013-1.211-4.978-1.817
	c0,0-0.479-0.233-1.166-0.024c-0.688,0.205-4.244,2.063-5.295,3.063c0,0-0.888,0.82-0.938-0.26
	c-0.056-1.084-0.123-8.594,0.028-9.355c0,0,0.161-0.322-0.313-0.875c-0.471-0.557-7.317-3.188-8.969-4.729
	c0,0-0.902-0.605,0.332-0.877c1.229-0.269,8.511-0.3,10.776,0.104C47.27,39.536,48.021,39.765,48.244,38.712z"/>
<path fill="#004C98" d="M33.773,26.484c0,0,1.007-1.063,1.837-3.123c0,0,0.854-1.328,1.771-0.212
	c0.914,1.118,1.386,3.691,1.685,4.188c0,0,0.019,0.164,0.524,0.355c0.507,0.196,3.859,0.613,4.885,1.084
	c1.021,0.475,0.642,0.86,0.104,0.933c-0.539,0.073-3.427,0.815-4.447,1.438c0,0-0.577,0.26-0.307,1.054
	c0.271,0.792,1.851,3.248,2.356,3.711c0.51,0.465,0.769,1.417-0.688,0.854c-1.462-0.561-4.767-2.45-5.357-2.854
	c0,0-0.133-0.37-0.823-0.077c0,0-3.584,2.664-4.118,3.297c-0.535,0.635-1.422,0.318-1.302-0.513
	c0.116-0.836,1.999-5.107,2.086-5.435c0.082-0.321-0.005-0.562-0.21-0.769c0,0-4.318-1.654-5.684-2.438c0,0-0.938-0.524,0.343-1
	c1.282-0.471,6.438-0.104,6.797-0.169C33.578,26.742,33.773,26.484,33.773,26.484z"/>
<path fill="#004C98" d="M45.065,16.45c0,0,1.13-1.41,1.617-2.482c0,0,0.563-0.773,1,0.169c0,0,0.451,2.233,0.715,3.26
	c0,0,0.121,0.375,0.34,0.506c0,0,4.425,1.121,5.903,1.841c1.479,0.718,0.248,1.114,0.248,1.114s-4.333,0.94-4.906,0.966
	c0,0-0.379,0.106-0.477,0.638c0,0,0.021,3.483-0.116,4.08c0,0-0.277,1.141-1.05,0.352c-0.774-0.784-2.403-3.454-2.403-3.454
	s-0.185-0.239-0.744-0.104c0,0-2.255,1.412-3.092,1.549c-0.838,0.133-1.184-0.743-0.937-1.115c0.244-0.374,1.233-2.087,1.371-2.396
	c0.138-0.305-0.072-0.632-0.072-0.632s-2.632-3.435-4.008-4.875c0,0-0.398-1.004,0.705-0.659c1.105,0.345,0.31,0.339,5.354,1.558
	C44.516,16.758,44.854,16.692,45.065,16.45z"/>
<path fill="#004C98" d="M78.584,27.186c0,0,0.373-1.657,0.371-2.823c0,0,0.16-0.889,0.838-0.096c0,0,1.146,2.034,1.72,2.955
	c0,0,0.228,0.329,0.442,0.396c0,0,3.838-0.082,5.244,0.217c1.401,0.303,0.588,1.012,0.588,1.012s-3.029,2.045-3.468,2.223
	c0,0-0.258,0.206-0.143,0.74c0,0,1.256,3.354,1.36,3.959c0,0,0.19,1.175-0.688,0.62c-0.881-0.555-3.103-2.694-3.103-2.694
	s-0.226-0.187-0.615,0.094c0,0-1.245,1.952-1.851,2.305c-0.604,0.352-1.182-0.401-1.125-0.828c0.058-0.421,0.218-2.338,0.214-2.669
	c-0.004-0.332-0.283-0.594-0.283-0.594s-3.271-2.614-4.851-3.643c0,0-0.672-0.862,0.312-0.822c0.981,0.045,0.356,0.247,4.718,0.093
	C78.268,27.629,78.506,27.473,78.584,27.186z"/>
<path fill="#004C98" d="M63.15,28.046c0,0,3.087-1.557,3.896-1.789c0.811-0.229,1.098,0.246,1.061,0.425
	c-0.04,0.181-0.446,3.001-0.671,3.561c0,0-0.156,0.27,0.138,0.648c0,0,3.523,2.512,4.212,3.391c0.688,0.874-0.224,1.026-0.466,1.016
	c0,0-2.588,0.02-4.34-0.943c0,0-0.725-0.242-0.937,0.188c0,0-0.192,3.842-0.234,4.306c-0.042,0.462-0.271,0.812-0.896,0.249
	c-0.634-0.561-2.382-3.297-2.769-4.093c0,0-0.162-0.16-0.494-0.135c0,0-3.388,0.396-4.239,0.11c0,0-0.616-0.204-0.218-0.743
	c0.399-0.538,2.722-2.724,2.895-2.949c0.176-0.229,0.052-0.329,0.01-0.584c0,0-4.122-3.92-4.578-4.428
	c-0.459-0.508-0.026-0.666,0.323-0.669c0.351-0.001,5.803,2.247,6.435,2.546C62.274,28.15,62.725,28.349,63.15,28.046z"/>
<path fill="#004C98" d="M75.508,41.448c0,0,4.369-2.55,5.021-2.916c0.656-0.361,1.462-0.008,1.322,0.689
	c-0.138,0.699-2.211,5.56-2.332,6.071c-0.121,0.515-0.25,0.937,0.084,1.476c0.336,0.545,6.209,6.225,6.892,7.003
	c0.68,0.782,0.065,1.206-0.604,0.938c-0.672-0.271-6.828-1.813-8.101-2.684c0,0-0.408-0.236-0.789,0.243
	c0,0-0.394,2.808-1.429,5.255c0,0-0.75,3.953-1.639,0.152c-0.894-3.796-0.599-1.744-2.481-7.438c0,0-0.011-0.119-0.445-0.296
	c0,0-6.03,0.443-7.334,0.358c-1.305-0.088-0.278-1.026-0.278-1.026s5.534-3.008,6.019-3.43c0,0,0.246-0.183,0.284-0.512
	c0.037-0.335-0.473-5.881-0.401-7c0.07-1.112,1.117-0.212,1.117-0.212s3.69,3.15,3.942,3.45
	C74.604,41.875,75.508,41.448,75.508,41.448z"/>
<path fill="#004C98" d="M27.901,47.353c0,0,1.656-2.919,2.022-3.593c0.369-0.674,0.938-0.327,1.13,0.177
	c0.192,0.501,0.397,1.786,1.271,3.109c0,0,0.08,0.208,0.514,0.349c0.432,0.143,6.491,0.652,7.594,0.855
	c1.103,0.207,1.272,1.204,0.553,1.421c-0.726,0.222-4.216,1.825-5.126,2.005c0,0-0.561,0.17-0.605,0.893
	c-0.049,0.723,0.307,3.408,0.722,4.388c0.412,0.978-0.09,1.763-1.252,0.972c-1.161-0.788-3.236-1.771-4.103-2.453
	c0,0-0.514-0.323-1.128-0.125c0,0-3.941,2.448-5.575,2.707c-1.631,0.258-2.039-0.203-1.463-1.416
	c0.575-1.214,2.628-4.834,2.808-5.605c0,0,0.132-0.257-0.062-0.729c0,0-1.381-0.973-1.896-1.58c-0.516-0.61,0.048-0.809,0.313-0.906
	c0.267-0.104,3.432-0.135,3.991-0.303L27.901,47.353z"/>
<path fill="#004C98" d="M20.377,33.888c0,0,0.418-1.961,0.99-2.586c0.571-0.623,1.138,0.354,1.138,0.354s0.451,1.634,0.658,2.1
	c0.207,0.467,0.509,0.368,0.509,0.368s3.048-0.32,3.644-0.155c0.593,0.163,1.185,0.521,0.462,1.096
	c-0.724,0.575-2.381,1.603-2.594,1.728c-0.214,0.122-0.196,0.459-0.155,0.962c0.039,0.503,1.334,3.27,1.334,3.27
	s0.521,1.516-0.662,0.796c-1.188-0.72-2.887-1.435-2.887-1.435s-0.278-0.155-0.757,0.126c-0.477,0.282-2.3,1.793-3.066,2.257
	c-0.767,0.466-1.23-0.014-1.009-0.896c0.224-0.884,0.94-2.526,1.163-3.414c0,0,0.162-0.486-0.298-0.713c0,0-1.915-0.198-3.13-0.916
	c0,0-0.688-0.411,0.029-0.815c0.719-0.404,3.666-1.451,4.132-1.593C20.346,34.284,20.377,33.888,20.377,33.888z"/>
<path fill="#004C98" d="M57.038,15.938c0,0,1.563,1.311,2.4,1.51c0.841,0.208,0.671-0.81,0.671-0.81s-0.667-1.469-0.799-1.919
	c-0.127-0.453,0.173-0.521,0.173-0.521s2.596-1.204,2.959-1.61c0.368-0.406,0.606-0.958-0.32-1.061
	c-0.931-0.097-2.879-0.093-3.125-0.088c-0.244,0.002-0.438-0.261-0.726-0.669c-0.285-0.399-0.998-3.133-0.998-3.133
	S56.732,6.23,56.25,7.343c-0.48,1.114-1.369,2.47-1.369,2.47s-0.121,0.247-0.674,0.257c-0.554,0.013-2.934-0.275-3.826-0.271
	c-0.896,0.008-0.963,0.593-0.231,1.165c0.73,0.572,2.324,1.489,3.054,2.063c0,0,0.438,0.297,0.215,0.688
	c0,0-1.381,1.061-1.888,2.186c0,0-0.279,0.64,0.539,0.607c0.814-0.025,3.787-0.625,4.242-0.741S57.038,15.938,57.038,15.938z"/>
<path fill="#004C98" d="M69.463,16.452c0,0,1.396-1.41,2.238-1.65c0.846-0.239,0.854,0.835,0.854,0.835s-0.435,1.552-0.482,2.032
	c-0.053,0.478,0.273,0.538,0.273,0.538s2.94,1.193,3.399,1.607c0.457,0.416,0.812,0.995-0.146,1.121
	c-0.955,0.129-3,0.175-3.256,0.177c-0.261,0-0.416,0.281-0.64,0.717c-0.226,0.431-0.476,3.313-0.476,3.313s-0.306,1.49-1.015,0.339
	c-0.713-1.152-1.893-2.553-1.893-2.553s-0.175-0.258-0.753-0.255c-0.578,0.006-3.022,0.37-3.962,0.39
	c-0.938,0.019-1.118-0.6-0.46-1.216c0.661-0.619,2.168-1.621,2.824-2.243c0,0,0.399-0.319,0.1-0.728c0,0-1.645-1.075-2.381-2.239
	c0,0-0.414-0.666,0.451-0.654c0.86,0.01,4.085,0.56,4.586,0.667C69.231,16.758,69.463,16.452,69.463,16.452z"/>
<path fill="#004C98" d="M12.171,46.084c0,0,0.327-2.869,0.479-3.627c0.156-0.764,0.817-0.502,0.996-0.211
	c0.176,0.291,1.248,2.655,1.615,3.063c0.368,0.406,3.737-0.31,4.639-0.136c0.902,0.172,1.438,0.782,0.756,1.428
	c-0.684,0.65-2.467,2.875-3.018,3.286c0,0-0.004,0.733,0.245,1.17c0.248,0.438,1.568,1.66,1.869,1.98c0,0,0.397,0.813-0.644,0.792
	c-1.042-0.026-2.867-0.692-4.004-1.097c0,0-0.342-0.087-0.869,0.206c-0.526,0.3-2.312,2.525-2.729,3.055
	c-0.417,0.528-1.195,0.765-1.209-0.58c-0.014-1.349,0.821-3.188,0.926-3.833c0.102-0.646,0.063-0.729-0.205-1.051
	c0,0-2.438-0.256-3.036-0.486c-0.601-0.23-0.613-0.816-0.028-1.139c0.586-0.323,3.628-2.148,3.974-2.414
	C12.275,46.227,12.124,46.23,12.171,46.084z"/>
<path fill="#004C98" d="M94.543,42.522c0,0,2.97-0.557,3.791-0.632c0.824-0.084,0.926,0.684,0.733,0.954
	c-0.188,0.271-1.926,2.114-2.125,2.622c-0.2,0.509,2.295,3.757,2.604,4.741c0.313,0.979,0.005,1.726-0.991,1.225
	c-0.994-0.503-4.119-1.645-4.813-2.084c0,0-0.714,0.227-1.009,0.621c-0.295,0.388-0.782,2.133-0.937,2.541
	c0,0-0.582,0.668-1.114-0.414c-0.531-1.082-0.854-3.17-1.063-4.463c0,0-0.101-0.381-0.666-0.835
	c-0.568-0.45-3.693-1.593-4.433-1.857c-0.738-0.264-1.383-0.991-0.078-1.426c1.304-0.433,3.418-0.153,4.103-0.25
	c0.683-0.091,0.748-0.157,0.916-0.536c0,0-0.922-2.589-1.019-3.277c-0.092-0.693,0.47-0.893,1.099-0.391
	c0.629,0.504,4.026,3.065,4.474,3.341C94.458,42.677,94.374,42.517,94.543,42.522z"/>
</svg>
