<?xml version="1.0" encoding="utf-8"?>
<!-- Generator: Adobe Illustrator 23.0.6, SVG Export Plug-In . SVG Version: 6.00 Build 0)  -->
<svg version="1.1" id="Layer_1" xmlns="http://www.w3.org/2000/svg" xmlns:xlink="http://www.w3.org/1999/xlink" x="0px" y="0px"
	 viewBox="0 0 97.6 79.3" style="enable-background:new 0 0 97.6 79.3;" xml:space="preserve">
<style type="text/css">
	.st0{fill:#FF004C;}
	.st1{fill:#FFFFFF;}
	.st2{fill:#F6B91B;}
	.st3{fill:#3D4377;}
</style>
<rect y="64.4" class="st0" width="97.1" height="14.9"/>
<g>
	<g>
		<path class="st1" d="M4.3,72.6h1.4L6,71.1H4.7v-1.2h1.4l0.4-2.5H8l-0.4,2.5h1.8l0.4-2.5h1.5L11,69.9h1v1.2h-1.2l-0.2,1.5h1v1.2
			h-1.2L10.1,76H8.5l0.3-2.2H7.1L6.8,76H5.2l0.3-2.2H4.3V72.6z M7.2,72.7H9l0.2-1.6H7.5L7.2,72.7z"/>
		<path class="st1" d="M13.4,67h1.7v3.3c0.5-0.2,0.9-0.3,1.4-0.3c1.7,0,2.8,1.2,2.8,3.1c0,2.3-1.6,3.1-3.4,3.1
			c-0.9,0-1.7-0.2-2.5-0.5V67z M15.1,74.7c0.4,0.1,0.7,0.2,1,0.1c0.9,0,1.5-0.5,1.5-1.7c0-1.1-0.6-1.7-1.4-1.7
			c-0.3,0-0.7,0.1-1.1,0.3V74.7z"/>
		<path class="st1" d="M22.3,76.2c-1.1,0-2.1-0.7-2.2-1.9c-0.1-1.5,1-2.1,2.3-2.1c0.5,0,1.1,0.1,1.6,0.4v-0.4c0-0.7-0.9-0.9-1.5-0.9
			s-1.2,0.1-1.7,0.4l-0.2-1.2c0.6-0.3,1.4-0.4,2.2-0.4c1.5,0,2.8,0.5,2.8,2.2v2.1c0,0.5,0,0.8,0.6,0.8v1c-0.9,0.2-1.9,0.1-1.9-0.9
			C24.1,75.9,23.1,76.2,22.3,76.2z M24,73.6c-0.3-0.2-0.8-0.3-1.2-0.3c-0.5,0-1,0.3-0.9,0.9c0,0.4,0.4,0.6,0.8,0.6
			c0.6,0,1.3-0.3,1.3-0.9C24,73.9,24,73.6,24,73.6z"/>
		<path class="st1" d="M31.5,72.2c-0.2-0.6-0.7-0.8-1.2-0.8c-0.7,0-1.5,0.6-1.5,1.6c0,1.1,0.8,1.6,1.5,1.6c0.5,0,1.1-0.3,1.3-0.9
			h1.6c-0.2,1.6-1.6,2.4-3,2.4c-1.6,0-3.2-1-3.2-3.1s1.6-3.1,3.2-3.1c1.3,0,2.7,0.8,2.9,2.3H31.5z"/>
		<path class="st1" d="M36.5,72.3c1.4,0,1.7-1,1.7-2.2h1.6c0,1.3-0.2,2.3-1.4,2.9l1.7,2.8V76h-1.7L37,73.6c-0.1,0-0.3,0.1-0.5,0.1
			h-0.4V76h-1.7v-9h1.7v5.3H36.5z"/>
		<path class="st1" d="M43.8,68.9c-0.5,0-1.1,0.2-1.1,1.1h-1.6c0-1.7,1-2.7,2.7-2.7c2.4,0,3.4,2.5,1.7,4.7c-0.3,0.4-0.6,1-1.7,2.4
			h2.8V76H41v-0.4l3.1-4.3c0.3-0.4,0.6-0.9,0.7-1.4C44.8,69.2,44.3,68.9,43.8,68.9z"/>
		<path class="st1" d="M48.1,73.2v-5.8H50v5.7c0,0.9,0.8,1.4,1.6,1.4c0.9,0,1.6-0.5,1.6-1.4v-5.7H55v5.8c0,1.9-1.6,3-3.4,3
			S48.1,75.1,48.1,73.2z"/>
		<path class="st1" d="M58.9,72.3c1.4,0,1.7-1,1.7-2.2h1.6c0,1.3-0.2,2.3-1.4,2.9l1.7,2.8V76h-1.7l-1.4-2.5c-0.1,0-0.3,0.1-0.5,0.1
			h-0.4V76h-1.7v-9h1.7v5.3H58.9z"/>
		<path class="st1" d="M67.1,69.9c0.5,0,0.9,0.1,1.3,0.4L68,71.7c-0.4-0.2-0.7-0.3-1.1-0.3c-0.8,0-1.4,0.5-1.4,1.4V76h-1.7v-4.2
			c0-0.5,0-0.8-0.6-0.7V70c0.9-0.2,2.1-0.2,2.2,0.9C65.7,70.2,66.4,69.9,67.1,69.9z"/>
		<path class="st1" d="M71,76.2c-1.1,0-2.1-0.7-2.2-1.9c-0.1-1.5,1-2.1,2.3-2.1c0.5,0,1.1,0.1,1.6,0.4v-0.4c0-0.7-0.9-0.9-1.5-0.9
			s-1.2,0.1-1.7,0.4l-0.2-1.2c0.6-0.3,1.4-0.4,2.2-0.4c1.5,0,2.8,0.5,2.8,2.2v2.1c0,0.5,0,0.8,0.6,0.8v1c-0.9,0-1.9,0-1.9-1.1
			C72.7,75.9,71.7,76.2,71,76.2z M72.7,73.6c-0.3-0.2-0.8-0.3-1.2-0.3c-0.5,0-1,0.3-0.9,0.9c0,0.4,0.4,0.6,0.8,0.6
			c0.6,0,1.3-0.3,1.3-0.9C72.7,73.9,72.7,73.6,72.7,73.6z"/>
		<path class="st1" d="M77,67.4c0.5,0,1,0.3,1,1s-0.5,1-1,1s-1-0.3-1-1S76.4,67.4,77,67.4z M77.8,76h-1.7v-5.9h1.7V76z"/>
		<path class="st1" d="M83.7,76v-3.4c0-0.8-0.5-1.3-1.1-1.3c-0.7,0-1.3,0.5-1.3,1.3V76h-1.7v-4.1c0-0.6,0-0.8-0.6-0.8V70
			c0.8-0.1,2.2-0.3,2.2,0.8c0.3-0.7,1.2-0.9,1.9-0.9c1.7,0,2.3,1.2,2.3,2.6V76H83.7z"/>
		<path class="st1" d="M92.4,73.4h-4c0.1,0.9,0.8,1.3,1.6,1.3c0.2,0,0.5,0,0.8,0c0.5-0.1,1.1-0.2,1.4-0.4l0.2,1.3
			c-0.7,0.3-1.5,0.5-2.3,0.5c-2,0-3.4-1.2-3.4-3.2c0-2.1,1.5-3,3.1-3C91.9,69.9,92.8,71.4,92.4,73.4z M88.4,72.3H91
			c0-0.8-0.6-1-1.2-1C89.1,71.3,88.5,71.6,88.4,72.3z"/>
	</g>
</g>
<g>
	<path class="st2" d="M66.9,44.3l-1.1,3.5h-2.3l0.7-2.3c-0.9-0.3-1.6-1-1.6-2.1c0-1.3,1-2.1,2.3-2.1c1,0,1.9,0.5,2.2,1.4
		c0.1,0.2,0.1,0.4,0.1,0.8C67,43.8,67,44,66.9,44.3z"/>
	<path class="st2" d="M74.6,44.6c-1.1,0-2.4,0.6-2.4,2.5h-3.6c0-3.8,2.3-6,6.1-6c5.5,0,7.6,5.6,3.7,10.7c-0.6,0.8-1.4,2.3-3.9,5.5
		h6.3v3.6H68.3V60l6.9-9.7c0.7-1,1.4-2.1,1.5-3.2C76.8,45.4,75.7,44.6,74.6,44.6z"/>
	<path class="st2" d="M97.6,47.7v6.8c0,4.2-3.3,6.7-7.2,6.7c-4,0-7.3-2.5-7.3-6.7v-6.8c0-4.2,3.3-6.7,7.3-6.7S97.6,43.5,97.6,47.7z
		 M93.6,54.9c0.1-0.5,0.1-1,0.1-1.6v-4.5c0-0.6,0-1.1-0.1-1.6c-0.2-1.8-1.6-2.6-3.3-2.6c-1.8,0-3.1,0.9-3.3,2.6
		c-0.1,0.5-0.1,1-0.1,1.6v4.5c0,0.6,0,1.1,0.1,1.6c0.2,1.7,1.5,2.6,3.3,2.6C92.1,57.6,93.4,56.6,93.6,54.9z"/>
</g>
<g>
	<path class="st0" d="M9.7,27.6l2-4.1l2.5-4.2h4.6V20l-7,11.6v8.2H7.5v-8.2L0.4,20v-0.6h4.7l2.5,4.4l1.9,3.9L9.7,27.6L9.7,27.6z"/>
	<path class="st0" d="M29.6,40.1c-5.5,0-10.4-3.7-10.4-10.6S24.3,19,29.7,19c5.3,0,10.4,3.7,10.4,10.5
		C40.1,35.8,35.8,40.1,29.6,40.1z M29.7,36.1c3.2,0,6.1-2.1,6.1-6.6c0-4.4-2.9-6.5-6-6.5c-3.2,0-6.1,2.2-6.1,6.5
		C23.6,34,26.4,36.1,29.7,36.1z"/>
	<path class="st0" d="M43.5,33V19.3h4.4v13.5c0,2.2,1.8,3.3,3.8,3.3s3.8-1.1,3.8-3.3V19.3h4.3V33c0,4.6-3.8,7.1-8.1,7.1
		C47.4,40,43.5,37.5,43.5,33z"/>
	<path class="st0" d="M62.5,23.1v-3.8h15.1v3.8h-5.4v16.6H68V23.1H62.5z"/>
	<path class="st0" d="M92.7,39.8v-8.6h-7.8v8.6h-4.4V19.3h4.4v7.8h7.8v-7.8h4.4v20.4h-4.4V39.8z"/>
</g>
<g>
	<path class="st3" d="M11.3,53.9H4.4v6.9H0.3V41.4h11.8V45H4.4v5.2h6.9V53.9z"/>
	<path class="st3" d="M27.1,45h-7.6v4h7.2v3.6h-7.2V57h7.9v3.7h-12V41.4h11.8V45H27.1z"/>
	<path class="st3" d="M33.9,55c0.1,1.8,2,2.5,3.9,2.5c1.7,0,3.7-0.4,3.7-2.4c0-2.2-2.4-2.4-4.2-2.5c-3.5-0.3-7-1.5-7-5.5
		c0-4.3,3.5-6.1,7.3-6.1c3.6,0,7.3,1.5,7.3,5.8H41c-0.2-1.6-1.8-2.2-3.5-2.2s-3.3,0.9-3.3,2.4c0,1.7,1.7,2.1,3.7,2.3
		c4.1,0.4,7.6,1.3,7.6,5.8s-3.9,5.9-7.7,6C34,61.1,30,59.2,30,55H33.9z"/>
	<path class="st3" d="M47,45v-3.6h14.3V45h-5.1v15.7h-4V45H47z"/>
</g>
<g>
	<g>
		<path class="st3" d="M8.8,0c3.4,0,6.9,1.7,7.9,5.7h-3.6C12.2,4,10.9,3.4,8.9,3.4c-3.2,0-5.1,2.4-5.1,5.5c0,3.3,2,5.5,5.1,5.5
			c2.4,0,4.1-0.7,4.8-3.3H9V8h8.1c0.1,1.7,0,3.3-0.5,4.8c-1.3,3.5-4.4,4.9-7.7,4.9C4.3,17.8,0,14.6,0,8.9S4.3,0,8.8,0z"/>
		<path class="st3" d="M23.7,14.3h7.2v3.3H20V0.3h3.7V14.3z"/>
		<path class="st3" d="M40.8,17.9c-4.6,0-8.8-3.1-8.8-8.9s4.2-9,8.8-9c4.5,0,8.8,3.1,8.8,8.9C49.6,14.2,46,17.9,40.8,17.9z
			 M40.8,14.5c2.7,0,5.1-1.8,5.1-5.6c0-3.7-2.4-5.5-5.1-5.5c-2.7,0-5.1,1.9-5.1,5.5C35.7,12.7,38,14.5,40.8,14.5z"/>
		<path class="st3" d="M63.7,8.6c1.6,0.7,2.5,2.1,2.5,3.9c0,3-2,5.1-5.5,5.1h-8V0.3H60c3.2,0,5.4,1.9,5.4,5.1
			C65.5,6.7,64.8,7.9,63.7,8.6z M56.4,3.5v3.9h3.4c1.3,0,2.1-0.7,2.1-1.9c0-1.3-0.8-2.1-2.1-2.1L56.4,3.5L56.4,3.5z M56.4,10.4v4
			h4.1c1.3,0,2-0.7,2.1-1.9c0-0.7-0.2-1.3-0.8-1.7c-0.4-0.3-0.9-0.3-1.5-0.3h-3.9V10.4z"/>
		<path class="st3" d="M72.1,14.7l-1.3,2.9h-3.9v-0.5l8-16.9h1.7l7.9,16.9v0.5h-3.8l-1.4-2.9C79.3,14.7,72.1,14.7,72.1,14.7z
			 M73.3,11.6h4.8l-2.4-5.7L73.3,11.6z"/>
		<path class="st3" d="M90,14.3h7.2v3.3H86.3V0.3H90V14.3z"/>
	</g>
</g>
</svg>
