<?xml version="1.0" encoding="utf-8"?>
<!-- Generator: Adobe Illustrator 16.0.0, SVG Export Plug-In . SVG Version: 6.00 Build 0)  -->
<!DOCTYPE svg PUBLIC "-//W3C//DTD SVG 1.1//EN" "http://www.w3.org/Graphics/SVG/1.1/DTD/svg11.dtd">
<svg version="1.1" id="Layer_1" xmlns="http://www.w3.org/2000/svg" xmlns:xlink="http://www.w3.org/1999/xlink" x="0px" y="0px"
	 width="222.441px" height="28.921px" viewBox="0 0 222.441 28.921" enable-background="new 0 0 222.441 28.921"
	 xml:space="preserve">
<g>
	<path fill="#FFFFFF" d="M179.088,18.078c0,1.379-0.268,2.578-0.798,3.594c-0.531,1.019-1.244,1.865-2.14,2.543
		c-0.896,0.679-1.935,1.188-3.115,1.525c-1.185,0.338-2.429,0.508-3.731,0.508c-1.304,0-2.544-0.17-3.716-0.508
		c-1.172-0.339-2.211-0.848-3.116-1.525s-1.625-1.524-2.156-2.543c-0.53-1.016-0.797-2.215-0.797-3.594V8.673
		c0-1.379,0.289-2.565,0.869-3.558c0.579-0.992,1.334-1.815,2.266-2.469c0.933-0.653,1.978-1.137,3.136-1.452
		c1.16-0.314,2.332-0.472,3.518-0.472s2.36,0.169,3.533,0.508s2.225,0.841,3.152,1.507c0.931,0.666,1.68,1.507,2.246,2.523
		c0.566,1.017,0.854,2.215,0.854,3.595L179.088,18.078L179.088,18.078z M173.315,9.944c0-0.726-0.121-1.337-0.362-1.833
		c-0.241-0.496-0.552-0.896-0.927-1.198c-0.376-0.303-0.806-0.526-1.289-0.672c-0.482-0.145-0.957-0.218-1.416-0.218
		c-0.483,0-0.962,0.073-1.437,0.218c-0.472,0.146-0.9,0.369-1.288,0.672c-0.389,0.303-0.702,0.702-0.943,1.198
		c-0.241,0.496-0.361,1.107-0.361,1.833v7.081c0,0.727,0.12,1.337,0.361,1.833c0.242,0.497,0.559,0.896,0.943,1.198
		c0.388,0.303,0.816,0.525,1.288,0.672c0.474,0.145,0.95,0.218,1.437,0.218c0.459,0,0.934-0.073,1.416-0.218
		c0.483-0.146,0.913-0.369,1.289-0.672c0.375-0.303,0.686-0.702,0.927-1.198s0.362-1.106,0.362-1.833V9.944z"/>
	<path fill="#FFFFFF" d="M202.362,18.658c0,1.26-0.268,2.354-0.799,3.286c-0.533,0.933-1.253,1.712-2.161,2.343
		c-0.907,0.629-1.974,1.103-3.193,1.416c-1.224,0.313-2.513,0.471-3.867,0.471c-0.92,0-1.812-0.049-2.669-0.146
		c-0.857-0.096-1.688-0.272-2.485-0.526c-0.8-0.254-1.593-0.604-2.379-1.053c-0.786-0.447-1.566-1.011-2.343-1.688l3.23-4.249
		c1.064,0.848,2.138,1.471,3.214,1.87c1.076,0.398,2.159,0.599,3.25,0.599c0.8,0,1.464-0.073,1.996-0.218
		c0.532-0.146,0.963-0.333,1.289-0.563c0.327-0.229,0.559-0.479,0.688-0.744c0.132-0.268,0.2-0.521,0.2-0.765
		c0-0.362-0.092-0.685-0.271-0.962c-0.182-0.277-0.49-0.539-0.927-0.779c-0.438-0.242-1.012-0.484-1.727-0.728
		s-1.604-0.509-2.669-0.8c-1.162-0.313-2.19-0.671-3.087-1.07s-1.65-0.883-2.271-1.453c-0.616-0.568-1.084-1.24-1.396-2.015
		c-0.313-0.774-0.473-1.707-0.473-2.795c0-1.138,0.225-2.161,0.673-3.068c0.445-0.908,1.076-1.682,1.889-2.324
		c0.813-0.641,1.778-1.131,2.904-1.471c1.126-0.339,2.354-0.508,3.688-0.508c1.452,0,2.888,0.133,4.304,0.399
		c1.416,0.267,2.888,0.908,4.411,1.924l-2.577,4.648c-1.188-0.75-2.271-1.222-3.25-1.417c-0.979-0.193-1.968-0.29-2.959-0.29
		c-0.921,0-1.665,0.151-2.232,0.454s-0.854,0.805-0.854,1.507c0,0.315,0.091,0.599,0.271,0.854c0.184,0.254,0.49,0.502,0.928,0.744
		s1.004,0.478,1.707,0.708c0.701,0.23,1.562,0.49,2.577,0.781c1.599,0.436,2.881,0.926,3.85,1.471
		c0.969,0.544,1.713,1.138,2.231,1.779c0.521,0.642,0.865,1.333,1.035,2.07C202.277,17.091,202.362,17.859,202.362,18.658z"/>
	<path fill="#FFFFFF" d="M216.124,6.168v19.826h-5.771V6.168h-6.354V0.976h18.444v5.192H216.124z"/>
</g>
<g>
	<path fill="#FFFFFF" d="M18.637,7.459c-0.093,0.093-0.2,0.139-0.323,0.139H1.987c-0.123,0-0.236-0.051-0.339-0.154
		c-0.104-0.103-0.154-0.226-0.154-0.37V5.256c0-0.103,0.056-0.205,0.169-0.308c0.113-0.104,0.231-0.154,0.354-0.154h16.297
		c0.123,0,0.23,0.046,0.323,0.139c0.092,0.093,0.139,0.2,0.139,0.323v1.849C18.776,7.249,18.73,7.367,18.637,7.459z M10.397,8.676
		c0.924,0,1.797,0.144,2.619,0.431c0.82,0.288,1.534,0.678,2.141,1.17c0.605,0.493,1.083,1.074,1.432,1.741
		c0.35,0.667,0.524,1.381,0.524,2.141c0,0.781-0.175,1.504-0.524,2.172c-0.349,0.666-0.826,1.246-1.432,1.739
		c-0.606,0.493-1.32,0.884-2.141,1.171c-0.822,0.289-1.705,0.432-2.649,0.432c-0.924,0-1.787-0.143-2.588-0.432
		c-0.801-0.287-1.504-0.678-2.11-1.171c-0.605-0.493-1.083-1.073-1.433-1.739c-0.35-0.668-0.524-1.392-0.524-2.172
		c0-0.76,0.175-1.474,0.524-2.141c0.349-0.667,0.827-1.248,1.433-1.741c0.605-0.493,1.314-0.883,2.125-1.17
		C8.605,8.82,9.472,8.676,10.397,8.676z M14.663,3.316c-0.092,0.103-0.221,0.154-0.385,0.154h-8.04c-0.083,0-0.18-0.041-0.293-0.123
		S5.776,3.152,5.776,3.008V1.19c0-0.164,0.057-0.287,0.169-0.37c0.113-0.082,0.21-0.123,0.293-0.123h8.041
		c0.143,0,0.267,0.051,0.37,0.154c0.103,0.103,0.154,0.227,0.154,0.37v1.756C14.802,3.1,14.756,3.213,14.663,3.316z M25.368,28.701
		c-0.103,0.062-0.206,0.092-0.308,0.092H8.795c-0.924,0-1.551-0.164-1.879-0.492c-0.329-0.328-0.493-0.895-0.493-1.694v-4.774
		c0-0.103,0.052-0.205,0.154-0.309c0.104-0.104,0.205-0.152,0.308-0.152h2.619c0.144,0,0.263,0.051,0.354,0.152
		c0.092,0.104,0.139,0.206,0.139,0.309v3.512c0,0.205,0.041,0.34,0.123,0.4c0.082,0.062,0.227,0.094,0.432,0.094h14.511
		c0.102,0,0.205,0.041,0.308,0.123c0.104,0.082,0.154,0.174,0.154,0.276v2.187C25.523,28.546,25.471,28.638,25.368,28.701z
		 M10.397,11.418c-0.965,0-1.768,0.267-2.403,0.801C7.357,12.753,7.039,13.4,7.039,14.16c0,0.781,0.318,1.448,0.955,2.001
		c0.636,0.555,1.438,0.832,2.403,0.832c0.985,0,1.792-0.277,2.418-0.832c0.626-0.554,0.938-1.221,0.938-2.001
		c0-0.76-0.313-1.407-0.938-1.941C12.188,11.685,11.383,11.418,10.397,11.418z M28.803,13.189c-0.093,0.072-0.2,0.108-0.323,0.108
		h-4.159v8.873c0,0.268-0.134,0.4-0.4,0.4h-2.741c-0.268,0-0.4-0.134-0.4-0.4V0.42c0-0.267,0.133-0.4,0.4-0.4h2.741
		c0.268,0,0.4,0.134,0.4,0.4v9.919h4.159c0.123,0,0.23,0.042,0.323,0.124c0.092,0.082,0.139,0.175,0.139,0.277v2.187
		C28.942,13.03,28.896,13.118,28.803,13.189z"/>
	<path fill="#FFFFFF" d="M49.613,2.792c0,0.473-0.015,1.022-0.046,1.648s-0.083,1.293-0.154,2.002
		c-0.072,0.709-0.159,1.433-0.262,2.172c-0.104,0.74-0.227,1.458-0.37,2.157h4.528c0.103,0,0.205,0.057,0.308,0.169
		c0.104,0.113,0.154,0.221,0.154,0.323v2.002c0,0.103-0.052,0.206-0.154,0.308c-0.103,0.103-0.206,0.154-0.308,0.154H41.418v4.591
		h6.007c0.843,0,1.392,0.145,1.648,0.432s0.385,0.883,0.385,1.787v8.287c0,0.102-0.046,0.199-0.139,0.291
		c-0.092,0.094-0.19,0.139-0.292,0.139h-2.68c-0.124,0-0.231-0.045-0.324-0.139c-0.092-0.092-0.14-0.189-0.14-0.291v-7.087
		c0-0.204-0.041-0.339-0.122-0.399c-0.083-0.063-0.236-0.094-0.463-0.094H30.143c-0.104,0-0.206-0.035-0.309-0.106
		s-0.153-0.159-0.153-0.263v-2.188c0-0.123,0.051-0.216,0.153-0.277c0.104-0.062,0.205-0.092,0.309-0.092h7.731v-4.591H26.477
		c-0.123,0-0.227-0.051-0.309-0.154c-0.082-0.104-0.123-0.205-0.123-0.308v-2.002c0-0.328,0.144-0.493,0.432-0.493h19.038
		c0.185-1.006,0.339-2.049,0.462-3.127s0.185-2.233,0.185-3.466c0-0.287-0.072-0.467-0.215-0.539
		C45.803,3.566,45.587,3.53,45.3,3.53H30.944c-0.104,0-0.206-0.041-0.308-0.123c-0.104-0.082-0.154-0.174-0.154-0.277V1.005
		c0-0.123,0.051-0.216,0.154-0.277c0.103-0.062,0.204-0.092,0.308-0.092h16.635c0.657,0,1.16,0.169,1.51,0.508
		S49.613,2.033,49.613,2.792z"/>
	<path fill="#FFFFFF" d="M88.736,21.246c0.103,0.104,0.154,0.205,0.154,0.309v2.033c0,0.103-0.053,0.205-0.154,0.308
		c-0.104,0.104-0.206,0.153-0.308,0.153H61.596c-0.123,0-0.227-0.051-0.309-0.153s-0.123-0.205-0.123-0.308v-2.033
		c0-0.123,0.041-0.23,0.123-0.323s0.186-0.14,0.309-0.14h26.832C88.531,21.091,88.633,21.142,88.736,21.246z M84.87,15.222
		c-0.072,0.072-0.159,0.107-0.262,0.107H67.542c-0.821,0-1.417-0.205-1.787-0.617c-0.37-0.41-0.554-0.975-0.554-1.694V4.086
		c0-0.78,0.174-1.309,0.523-1.586c0.349-0.277,0.914-0.416,1.693-0.416h16.913c0.288,0,0.433,0.134,0.433,0.4v2.157
		c0,0.267-0.145,0.4-0.433,0.4H69.298c-0.369,0-0.555,0.175-0.555,0.523v6.285c0,0.185,0.036,0.323,0.108,0.416
		c0.071,0.092,0.22,0.139,0.446,0.139h15.188c0.164,0,0.287,0.021,0.37,0.062c0.082,0.042,0.123,0.144,0.123,0.308v2.095
		C84.978,15.033,84.942,15.151,84.87,15.222z"/>
	<path fill="#FFFFFF" d="M104.586,20.891c-0.112,0.092-0.252,0.159-0.416,0.2c-0.903,0.205-1.986,0.385-3.25,0.539
		c-1.263,0.152-2.537,0.271-3.819,0.354c-1.284,0.083-2.506,0.135-3.666,0.154c-1.161,0.021-2.08,0-2.757-0.063
		c-0.904-0.082-1.525-0.277-1.864-0.584c-0.339-0.31-0.508-0.854-0.508-1.634v-7.394c0-0.739,0.18-1.273,0.539-1.602
		c0.358-0.328,0.897-0.493,1.617-0.493h7.332c0.165,0,0.277-0.026,0.339-0.077c0.063-0.051,0.094-0.18,0.094-0.385V5.595
		c0-0.164-0.021-0.277-0.063-0.339s-0.165-0.092-0.37-0.092h-8.872c-0.103,0-0.199-0.041-0.292-0.123s-0.139-0.174-0.139-0.277
		V2.638c0-0.103,0.046-0.19,0.139-0.262c0.093-0.071,0.189-0.107,0.292-0.107h10.722c0.883,0,1.453,0.165,1.709,0.493
		c0.257,0.329,0.385,0.863,0.385,1.602v6.839c0,0.781-0.159,1.314-0.479,1.602c-0.318,0.288-0.878,0.431-1.679,0.431h-7.301
		c-0.288,0-0.431,0.144-0.431,0.431v4.868c0,0.227,0.041,0.375,0.123,0.446s0.226,0.106,0.431,0.106
		c0.924,0.043,1.874,0.047,2.85,0.017c0.977-0.03,1.951-0.082,2.928-0.153c0.975-0.072,1.936-0.17,2.88-0.293
		c0.943-0.123,1.838-0.268,2.68-0.432c0.164-0.041,0.313-0.025,0.447,0.046c0.133,0.071,0.22,0.2,0.262,0.386l0.277,1.848
		C104.744,20.669,104.698,20.798,104.586,20.891z M114.412,14.129c-0.092,0.082-0.188,0.123-0.292,0.123h-4.188v14.602
		c0,0.267-0.135,0.399-0.4,0.399h-2.742c-0.267,0-0.399-0.133-0.399-0.399V0.42c0-0.267,0.134-0.4,0.399-0.4h2.742
		c0.267,0,0.4,0.134,0.4,0.4v10.875h4.188c0.104,0,0.2,0.036,0.292,0.108c0.093,0.072,0.139,0.159,0.139,0.262v2.157
		C114.551,13.944,114.505,14.047,114.412,14.129z"/>
	<path fill="#FFFFFF" d="M127.398,20.151c-0.329,0.319-0.884,0.478-1.664,0.478h-9.673c-0.862,0-1.459-0.157-1.787-0.478
		c-0.328-0.317-0.493-0.878-0.493-1.679V4.363c0-0.78,0.159-1.319,0.478-1.617c0.319-0.298,0.868-0.447,1.648-0.447h9.827
		c0.78,0,1.335,0.139,1.664,0.416c0.328,0.277,0.492,0.827,0.492,1.648v14.109C127.89,19.273,127.726,19.833,127.398,20.151z
		 M124.348,5.595c0-0.164-0.026-0.271-0.077-0.323c-0.052-0.051-0.159-0.077-0.324-0.077h-6.253c-0.165,0-0.272,0.021-0.323,0.062
		c-0.052,0.042-0.077,0.144-0.077,0.308v11.769c0,0.185,0.025,0.297,0.077,0.338c0.051,0.041,0.158,0.063,0.323,0.063h6.253
		c0.165,0,0.272-0.021,0.324-0.063c0.051-0.041,0.077-0.153,0.077-0.338V5.595z M139.673,14.067
		c-0.092,0.083-0.188,0.124-0.292,0.124h-4.188v14.664c0,0.268-0.134,0.4-0.4,0.4h-2.742c-0.268,0-0.399-0.135-0.399-0.4V0.42
		c0-0.267,0.133-0.4,0.399-0.4h2.742c0.268,0,0.4,0.134,0.4,0.4v10.813h4.188c0.104,0,0.2,0.036,0.292,0.108
		c0.094,0.072,0.14,0.159,0.14,0.262v2.157C139.812,13.882,139.766,13.985,139.673,14.067z"/>
</g>
</svg>
