<?xml version="1.0" encoding="utf-8"?>
<!-- Generator: Adobe Illustrator 16.0.0, SVG Export Plug-In . SVG Version: 6.00 Build 0)  -->
<!DOCTYPE svg PUBLIC "-//W3C//DTD SVG 1.1//EN" "http://www.w3.org/Graphics/SVG/1.1/DTD/svg11.dtd">
<svg version="1.1" id="Layer_1" xmlns="http://www.w3.org/2000/svg" xmlns:xlink="http://www.w3.org/1999/xlink" x="0px" y="0px"
	 width="467.643px" height="209.715px" viewBox="0 0 467.643 209.715" enable-background="new 0 0 467.643 209.715"
	 xml:space="preserve">
<g>
	<path fill="#FFFFFF" d="M0.226,2.234h26.509v38.125h0.298L52.499,2.234H84.07L46.69,54.21l36.934,55.251H51.159L27.033,68.655
		h-0.298v40.806H0.226V2.234z"/>
	<path fill="#FFFFFF" d="M186.233,2.234h34.104c20.104,0,36.636,15.786,36.636,35.296c0,19.509-16.381,35.443-36.487,35.443h-7.744
		v36.486h-26.509V2.234L186.233,2.234z M212.743,48.252h5.212c6.553,0,11.914-4.616,11.914-10.723
		c0-5.957-5.361-10.574-11.914-10.574h-5.212V48.252z"/>
	<path fill="#FFFFFF" d="M264.423,55.847C264.423,25.02,289.889,0,321.165,0s56.74,25.021,56.74,55.848s-25.465,55.847-56.74,55.847
		S264.423,86.675,264.423,55.847z M350.95,55.847c0-17.426-13.254-31.126-29.785-31.126c-16.382,0-29.785,14-29.785,31.126
		s13.403,31.126,29.785,31.126S350.95,72.973,350.95,55.847z"/>
	<path fill="#FFFFFF" d="M389.823,2.234h34.104c20.105,0,36.637,15.786,36.637,35.296c0,19.509-16.383,35.443-36.488,35.443h-7.744
		v36.486h-26.508V2.234L389.823,2.234z M416.331,48.252h5.213c6.553,0,11.914-4.616,11.914-10.723
		c0-5.957-5.361-10.574-11.914-10.574h-5.213V48.252z"/>
</g>
<g>
	<g>
		<path fill="#9E005D" d="M127.121,94.162c-1.09,0-2.108-0.418-2.868-1.177L93.625,63.438c-0.08-0.068-11.501-10.214-11.501-22.718
			c0-15.017,9.148-23.98,24.471-23.98c8.391,0,16.216,6.109,20.525,10.214c4.309-4.104,12.134-10.214,20.525-10.214
			c15.323,0,24.471,8.965,24.471,23.98c0,10.913-8.771,20.153-11.458,22.727l-30.683,29.552
			C129.229,93.744,128.21,94.162,127.121,94.162z"/>
		<path fill="#FFFFFF" d="M147.646,17.74c14.682,0,23.471,8.593,23.471,22.98c0,11.783-10.803,21.653-11.245,22.096l-30.591,29.462
			c-0.589,0.589-1.375,0.884-2.161,0.884s-1.571-0.295-2.161-0.884l-30.64-29.56c-0.393-0.345-11.195-10.215-11.195-21.998
			c0-14.389,8.79-22.98,23.471-22.98c8.593,0,16.646,6.776,20.525,10.606C131,24.517,139.053,17.74,147.646,17.74 M147.646,15.74
			c-8.296,0-15.984,5.665-20.525,9.844c-4.541-4.179-12.229-9.844-20.525-9.844c-15.711,0-25.471,9.572-25.471,24.98
			c0,12.541,11.023,22.73,11.832,23.462l30.615,29.535c0.923,0.923,2.192,1.443,3.549,1.443s2.626-0.521,3.574-1.469l30.564-29.437
			l0.09-0.088c2.76-2.642,11.767-12.14,11.767-23.448C173.117,25.313,163.356,15.74,147.646,15.74L147.646,15.74z"/>
	</g>
</g>
<g>
	<path fill="#FFFFFF" d="M73.116,178.854c-4.517,11.45-19.749,20.8-33.931,20.8C17.544,199.654,0,182.008,0,160.365
		c0-21.64,17.543-39.288,39.184-39.288c15.337,0,30.884,9.98,34.562,22.165h-8.614c-4.412-8.193-16.072-14.812-25.947-14.812
		c-17.018,0-30.884,14.182-30.884,31.83c0,17.647,13.866,32.04,30.884,32.04c10.084,0,21.22-5.987,25.107-13.446H73.116
		L73.116,178.854z"/>
	<path fill="#FFFFFF" d="M78.47,160.364c0-21.64,17.543-39.288,39.184-39.288c21.641,0,39.183,17.648,39.183,39.288
		c0,21.643-17.543,39.289-39.183,39.289C96.014,199.653,78.47,182.006,78.47,160.364z M148.538,160.26
		c0-17.648-13.866-31.83-30.884-31.83c-17.018,0-30.885,14.182-30.885,31.83c0,17.647,13.867,32.04,30.885,32.04
		C134.671,192.301,148.538,177.908,148.538,160.26z"/>
	<path fill="#FFFFFF" d="M163.661,122.547h9.245l43.595,64.502v-64.502h7.984v75.53h-9.245l-43.595-64.5v64.5h-7.984V122.547z"/>
	<path fill="#FFFFFF" d="M304.528,178.854c-4.516,11.45-19.748,20.8-33.93,20.8c-21.641,0-39.185-17.646-39.185-39.289
		c0-21.64,17.543-39.288,39.185-39.288c15.336,0,30.883,9.98,34.562,22.165h-8.614c-4.413-8.193-16.072-14.812-25.947-14.812
		c-17.018,0-30.884,14.182-30.884,31.83c0,17.647,13.866,32.04,30.884,32.04c10.084,0,21.221-5.987,25.107-13.446H304.528
		L304.528,178.854z"/>
	<path fill="#FFFFFF" d="M354.424,122.547v7.354h-34.563v26.367h33.406v7.354h-33.406v27.104h34.563v7.353h-42.546V122.55h42.546
		V122.547z"/>
	<path fill="#FFFFFF" d="M361.563,122.547h24.688c13.025,0,23.637,10.61,23.637,23.637c0,12.187-10.4,22.796-23.322,23.637
		l21.221,28.258h-9.561l-25.736-34.98h11.766c9.455,0,17.332-7.248,17.332-16.492c0-9.665-7.668-16.703-17.123-16.703h-14.918
		v68.177h-7.982V122.547L361.563,122.547z"/>
	<path fill="#FFFFFF" d="M430.264,129.901h-17.123v-7.354h42.439v7.354h-17.123v68.177h-8.193V129.901z"/>
</g>
</svg>
