<?xml version="1.0" encoding="utf-8"?>
<!-- Generator: Adobe Illustrator 16.0.0, SVG Export Plug-In . SVG Version: 6.00 Build 0)  -->
<!DOCTYPE svg PUBLIC "-//W3C//DTD SVG 1.1//EN" "http://www.w3.org/Graphics/SVG/1.1/DTD/svg11.dtd">
<svg version="1.1" id="Layer_1" xmlns="http://www.w3.org/2000/svg" xmlns:xlink="http://www.w3.org/1999/xlink" x="0px" y="0px"
	 width="110.75px" height="10.937px" viewBox="0 0 110.75 10.937" enable-background="new 0 0 110.75 10.937" xml:space="preserve">
<g>
	<g>
		<path fill="#FFFFFF" d="M54.191,8.027c-0.628,1.59-2.744,2.89-4.714,2.89c-3.006,0-5.443-2.452-5.443-5.459
			C44.034,2.453,46.471,0,49.477,0c2.13,0,4.291,1.387,4.802,3.08h-1.197c-0.612-1.138-2.232-2.057-3.604-2.057
			c-2.364,0-4.29,1.97-4.29,4.421c0,2.453,1.926,4.452,4.29,4.452c1.401,0,2.948-0.832,3.488-1.868H54.191z"/>
		<path fill="#FFFFFF" d="M54.929,5.458C54.929,2.453,57.366,0,60.373,0c3.006,0,5.443,2.453,5.443,5.458
			c0,3.007-2.438,5.459-5.443,5.459C57.366,10.917,54.929,8.465,54.929,5.458z M64.663,5.443c0-2.451-1.926-4.421-4.291-4.421
			s-4.291,1.97-4.291,4.421c0,2.453,1.927,4.452,4.291,4.452S64.663,7.896,64.663,5.443z"/>
		<path fill="#FFFFFF" d="M66.757,0.205h1.285l6.056,8.961V0.205h1.109v10.493h-1.285l-6.056-8.961v8.961h-1.109V0.205z"/>
		<path fill="#FFFFFF" d="M86.323,8.027c-0.628,1.59-2.744,2.89-4.715,2.89c-3.005,0-5.443-2.452-5.443-5.459
			C76.165,2.453,78.603,0,81.608,0c2.132,0,4.291,1.387,4.802,3.08h-1.197C84.6,1.942,82.98,1.022,81.608,1.022
			c-2.363,0-4.29,1.97-4.29,4.421c0,2.453,1.926,4.452,4.29,4.452c1.402,0,2.948-0.832,3.489-1.868H86.323z"/>
		<path fill="#FFFFFF" d="M93.249,0.205v1.021h-4.802V4.89h4.641v1.021h-4.641v3.766h4.802v1.022h-5.91V0.205H93.249z"/>
		<path fill="#FFFFFF" d="M94.237,0.205h3.429c1.81,0,3.283,1.474,3.283,3.283c0,1.693-1.444,3.167-3.239,3.283l2.947,3.927h-1.328
			l-3.575-4.861h1.634c1.314,0,2.408-1.006,2.408-2.291c0-1.343-1.065-2.321-2.378-2.321h-2.073v9.472h-1.108V0.205z"/>
		<path fill="#FFFFFF" d="M103.775,1.226h-2.378V0.205h5.896v1.021h-2.378v9.472h-1.139V1.226z"/>
	</g>
</g>
<g>
	<path fill="#FFFFFF" d="M0.332,0.248h2.633v3.788h0.03l2.529-3.788H8.66L4.947,5.412l3.669,5.488H5.391L2.995,6.846h-0.03v4.053
		H0.332V0.248z"/>
	<path fill="#FFFFFF" d="M14.307,0.248h3.387c1.998,0,3.64,1.568,3.64,3.507c0,1.938-1.627,3.521-3.625,3.521H16.94v3.624h-2.633
		V0.248z M16.94,4.82h0.518c0.65,0,1.184-0.458,1.184-1.065c0-0.592-0.533-1.05-1.184-1.05H16.94V4.82z"/>
	<path fill="#FFFFFF" d="M22.07,5.482c0-3.012,2.53-5.456,5.636-5.456c3.107,0,5.636,2.443,5.636,5.456
		c0,3.01-2.529,5.455-5.636,5.455C24.6,10.937,22.07,8.492,22.07,5.482z M30.665,5.482c0-1.702-1.317-3.041-2.958-3.041
		c-1.627,0-2.958,1.367-2.958,3.041c0,1.672,1.331,3.04,2.958,3.04C29.333,8.522,30.665,7.154,30.665,5.482z"/>
	<path fill="#FFFFFF" d="M34.523,0.248h3.387c1.997,0,3.639,1.568,3.639,3.507c0,1.938-1.627,3.521-3.625,3.521h-0.769v3.624h-2.633
		V0.248z M37.156,4.82h0.518c0.651,0,1.184-0.458,1.184-1.065c0-0.592-0.533-1.05-1.184-1.05h-0.518V4.82z"/>
</g>
<g>
	<g>
		<path fill="#D91C5C" d="M10.282,8.538L8.124,6.456c-0.028-0.024-0.789-0.72-0.789-1.549c0-1.014,0.62-1.619,1.653-1.619
			c0.605,0,1.172,0.478,1.446,0.747c0.273-0.27,0.84-0.747,1.445-0.747c1.034,0,1.653,0.605,1.653,1.619
			c0,0.83-0.761,1.525-0.792,1.556l-2.155,2.076c-0.041,0.041-0.097,0.062-0.152,0.062C10.378,8.599,10.323,8.579,10.282,8.538z"/>
	</g>
</g>
</svg>
