<?xml version="1.0" encoding="utf-8"?>
<!-- Generator: Adobe Illustrator 16.0.0, SVG Export Plug-In . SVG Version: 6.00 Build 0)  -->
<!DOCTYPE svg PUBLIC "-//W3C//DTD SVG 1.1//EN" "http://www.w3.org/Graphics/SVG/1.1/DTD/svg11.dtd">
<svg version="1.1" id="Layer_1" xmlns="http://www.w3.org/2000/svg" xmlns:xlink="http://www.w3.org/1999/xlink" x="0px" y="0px"
	 width="240.834px" height="48.98px" viewBox="0 0 240.834 48.98" enable-background="new 0 0 240.834 48.98" xml:space="preserve">
<g>
	<g>
		<g>
			<g>
				<path fill="#FFF200" d="M207.546,17.218c-0.768-0.048-1.379-0.351-1.815-0.9c-0.43-0.54-0.631-1.256-0.6-2.128
					c0.033-0.986-0.184-1.114-0.227-1.13c-0.056-0.02-0.12-0.029-0.189-0.029c-0.195,0-0.438,0.078-0.72,0.232
					c-0.435,0.24-0.904,0.575-1.396,0.995c-0.51,0.439-0.979,0.811-1.391,1.104c-0.337,0.241-0.612,0.359-0.84,0.359
					c-0.118,0-0.225-0.031-0.316-0.092c-0.176-0.117-0.376-0.362-0.328-0.865c0.029-0.329,0.144-0.705,0.35-1.149
					c0.199-0.429,0.47-0.832,0.805-1.197c0.956-1.014,1.915-1.737,2.853-2.153c0.856-0.381,1.648-0.574,2.353-0.574
					c0.078,0,0.154,0.002,0.229,0.007c0.791,0.047,1.421,0.332,1.874,0.849c0.451,0.518,0.647,1.211,0.583,2.06
					c-0.07,0.927,0.078,1.234,0.173,1.335c0.078,0.083,0.159,0.121,0.257,0.121c0.086,0,0.187-0.029,0.3-0.086
					c0.313-0.157,0.656-0.497,1.021-1.012c0.377-0.529,0.727-1.214,1.038-2.037c0.18-0.466,0.538-0.739,1.037-0.793
					c0.067-0.007,0.134-0.011,0.198-0.011c0.397,0,0.748,0.135,1.041,0.401c0.348,0.312,0.508,0.79,0.476,1.419
					c-0.032,0.616-0.424,1.337-1.197,2.204c-1.038,1.127-2.045,1.938-2.997,2.412c-0.882,0.441-1.68,0.665-2.371,0.665
					C207.678,17.224,207.611,17.222,207.546,17.218z"/>
				<path fill="#141A2C" d="M206.083,9.941c0.073,0,0.145,0.002,0.215,0.006c0.727,0.043,1.293,0.299,1.7,0.764
					c0.406,0.466,0.582,1.091,0.522,1.876c-0.06,0.784,0.022,1.294,0.24,1.525c0.125,0.133,0.271,0.2,0.438,0.2
					c0.125,0,0.263-0.038,0.412-0.113c0.35-0.175,0.721-0.537,1.112-1.091c0.394-0.552,0.748-1.249,1.067-2.093
					c0.146-0.378,0.422-0.589,0.83-0.633c0.059-0.006,0.116-0.009,0.172-0.009c0.334,0,0.626,0.112,0.873,0.336
					c0.291,0.262,0.422,0.669,0.394,1.222s-0.407,1.236-1.134,2.05c-1.018,1.105-1.992,1.892-2.922,2.354
					c-0.852,0.426-1.604,0.639-2.26,0.639c-0.062,0-0.122-0.002-0.183-0.006c-0.698-0.044-1.243-0.313-1.636-0.807
					c-0.393-0.494-0.574-1.148-0.545-1.964c0.027-0.813-0.104-1.271-0.393-1.374c-0.084-0.029-0.176-0.044-0.273-0.044
					c-0.239,0-0.52,0.088-0.84,0.263c-0.45,0.248-0.93,0.589-1.438,1.024c-0.508,0.437-0.967,0.801-1.374,1.091
					c-0.29,0.208-0.522,0.313-0.694,0.313c-0.068,0-0.128-0.017-0.178-0.05c-0.175-0.116-0.247-0.327-0.218-0.633
					c0.027-0.307,0.139-0.661,0.327-1.068c0.188-0.406,0.442-0.784,0.763-1.133c0.932-0.988,1.854-1.688,2.77-2.094
					C204.659,10.125,205.41,9.941,206.083,9.941 M206.083,9.441L206.083,9.441c-0.739,0-1.565,0.2-2.454,0.595
					c-0.968,0.43-1.954,1.172-2.931,2.208c-0.356,0.389-0.642,0.813-0.852,1.265c-0.219,0.471-0.34,0.875-0.372,1.234
					c-0.06,0.623,0.206,0.938,0.439,1.094c0.131,0.087,0.288,0.133,0.454,0.133c0.286,0,0.599-0.129,0.985-0.406
					c0.418-0.297,0.893-0.674,1.409-1.118c0.478-0.409,0.934-0.734,1.354-0.965c0.304-0.166,0.493-0.201,0.599-0.201
					c0.026,0,0.05,0.002,0.071,0.006c0.031,0.061,0.115,0.283,0.095,0.896c-0.033,0.932,0.187,1.704,0.653,2.292
					c0.483,0.607,1.155,0.942,1.996,0.995c0.07,0.004,0.142,0.007,0.214,0.007c0.73,0,1.566-0.233,2.483-0.691
					c0.979-0.487,2.01-1.316,3.066-2.463c0.818-0.917,1.23-1.688,1.265-2.363c0.036-0.708-0.151-1.253-0.559-1.619
					c-0.339-0.308-0.745-0.465-1.207-0.465c-0.073,0-0.148,0.004-0.226,0.012c-0.597,0.064-1.026,0.393-1.242,0.949
					c-0.306,0.807-0.645,1.473-1.009,1.983c-0.425,0.601-0.739,0.839-0.929,0.934c-0.104,0.052-0.163,0.06-0.188,0.06
					c-0.017,0-0.035,0-0.073-0.042c-0.009-0.009-0.179-0.201-0.106-1.146c0.069-0.918-0.147-1.673-0.645-2.243
					c-0.499-0.569-1.188-0.883-2.048-0.934C206.247,9.443,206.166,9.441,206.083,9.441L206.083,9.441z"/>
			</g>
		</g>
	</g>
	<g>
		<g>
			<g>
				<path fill="#FFF200" d="M36.6,49.105c-1.034,0-2.022-0.42-2.939-1.248c-0.345-0.302-0.876-0.936-1.622-1.937
					c-0.727-0.978-1.599-2.161-2.616-3.553c-1.019-1.391-2.14-2.927-3.365-4.609c-1.2-1.648-2.477-3.333-3.793-5.007
					c-1.314-1.667-2.623-3.278-3.889-4.79c-1.184-1.412-2.309-2.661-3.349-3.719c-1.066,2.214-2.094,4.38-3.084,6.499
					c-1.038,2.222-1.972,4.234-2.802,6.041c-0.831,1.806-1.537,3.352-2.117,4.639c-0.573,1.267-0.948,2.141-1.114,2.598
					c-0.34,0.808-0.837,1.211-1.482,1.211c-0.083,0-0.168-0.007-0.256-0.021c-0.703-0.114-1.362-0.542-1.959-1.272
					c-0.582-0.711-1.018-1.646-1.295-2.777c-0.28-1.138-0.226-2.346,0.16-3.591c0.252-0.798,0.728-1.939,1.414-3.396
					c0.687-1.458,1.484-3.084,2.369-4.834c0.882-1.744,1.837-3.569,2.837-5.424c0.998-1.848,1.942-3.592,2.835-5.233
					c0.892-1.641,1.683-3.074,2.368-4.299c0.687-1.227,1.175-2.09,1.466-2.59c0.435-0.783,0.867-1.32,1.319-1.636
					c0.444-0.311,0.888-0.503,1.319-0.571c0.306-0.048,0.612-0.073,0.909-0.073c0.099,0,0.445,0.013,0.445,0.013
					c0.297,0,0.616-0.051,0.947-0.15c0.377-0.113,0.765-0.346,1.151-0.694c0.316-0.285,0.665-0.733,1.041-1.336
					c-1.601,0.297-3.047,0.598-4.305,0.894c-1.412,0.333-2.388,0.561-2.929,0.686c-0.235,0.054-0.454,0.081-0.65,0.081
					c-0.678,0-1.146-0.321-1.355-0.929c-0.247-0.717-0.183-1.581,0.19-2.568c0.363-0.961,0.978-1.911,1.826-2.822
					c0.862-0.926,1.933-1.528,3.184-1.787c3.111-0.581,6.026-0.917,8.67-1.001c0.461-0.015,0.915-0.021,1.359-0.021
					c2.103,0,4.042,0.166,5.765,0.493c2.095,0.398,3.892,1.016,5.34,1.834c1.462,0.826,2.571,1.851,3.298,3.047
					c1.104,1.826,1.546,3.641,1.312,5.395c-0.235,1.753-1.173,3.417-2.786,4.944c-1.595,1.511-3.936,2.921-6.958,4.191
					c-2.917,1.228-6.594,2.284-10.938,3.141c1.69,2.017,3.483,4.191,5.335,6.468c1.987,2.442,3.874,4.801,5.609,7.011
					c1.743,2.22,3.257,4.13,4.545,5.728c1.276,1.586,2.108,2.575,2.473,2.939c0.528,0.527,0.643,1.173,0.332,1.867
					c-0.293,0.651-0.823,1.184-1.575,1.583C38.499,48.907,37.61,49.105,36.6,49.105z M18.333,18.245
					c2.511-0.613,5.023-1.374,7.468-2.263c2.492-0.907,4.691-1.876,6.537-2.881c1.834-0.999,3.215-2.008,4.106-3
					c0.837-0.933,1.012-1.762,0.534-2.536c-0.291-0.436-0.86-0.768-1.687-0.979c-0.868-0.221-1.917-0.344-3.118-0.365l-0.472-0.004
					c-1.073,0-2.246,0.063-3.485,0.188c-1.403,0.144-2.795,0.316-4.138,0.512c-0.932,1.584-1.904,3.336-2.892,5.212
					c-0.992,1.881-2.012,3.85-3.062,5.908L18.333,18.245z"/>
				<path fill="#141A2C" d="M27.487,0.125c2.097,0,4.002,0.163,5.718,0.488c2.076,0.395,3.831,0.996,5.264,1.807
					c1.433,0.81,2.501,1.797,3.207,2.959c1.08,1.785,1.505,3.529,1.277,5.231c-0.229,1.703-1.132,3.302-2.71,4.796
					c-1.578,1.495-3.872,2.877-6.883,4.143c-3.011,1.268-6.779,2.336-11.305,3.207c1.744,2.078,3.612,4.34,5.605,6.79
					s3.862,4.786,5.606,7.007s3.259,4.132,4.547,5.73c1.286,1.599,2.117,2.586,2.491,2.959c0.457,0.457,0.55,0.986,0.28,1.588
					c-0.271,0.602-0.758,1.09-1.464,1.465c-0.706,0.373-1.547,0.561-2.522,0.561s-1.899-0.396-2.771-1.184
					c-0.333-0.291-0.862-0.925-1.589-1.9c-0.727-0.977-1.599-2.16-2.615-3.551c-1.019-1.391-2.14-2.927-3.364-4.609
					c-1.225-1.682-2.491-3.352-3.799-5.014c-1.309-1.66-2.606-3.26-3.894-4.796s-2.491-2.865-3.612-3.986
					c-1.121,2.326-2.201,4.6-3.239,6.82c-1.038,2.222-1.973,4.235-2.803,6.042c-0.831,1.807-1.537,3.353-2.118,4.641
					c-0.582,1.286-0.955,2.158-1.121,2.615c-0.294,0.698-0.71,1.046-1.248,1.046c-0.07,0-0.142-0.006-0.216-0.018
					c-0.644-0.104-1.245-0.499-1.806-1.184s-0.977-1.579-1.246-2.679C0.888,40,0.94,38.847,1.314,37.642
					c0.249-0.787,0.716-1.908,1.401-3.363c0.685-1.453,1.473-3.062,2.366-4.827c0.893-1.765,1.838-3.571,2.834-5.419
					c0.997-1.848,1.941-3.592,2.835-5.232c0.892-1.64,1.682-3.072,2.366-4.297c0.686-1.225,1.173-2.087,1.464-2.586
					c0.415-0.747,0.83-1.266,1.246-1.557c0.414-0.29,0.819-0.467,1.215-0.529c0.295-0.047,0.586-0.07,0.87-0.07
					c0.095,0,0.188,0.003,0.281,0.008c0.054,0.003,0.109,0.005,0.164,0.005c0.325,0,0.665-0.054,1.02-0.161
					c0.415-0.124,0.83-0.373,1.246-0.747c0.415-0.374,0.872-0.997,1.37-1.868c-1.827,0.332-3.447,0.664-4.858,0.996
					c-1.412,0.333-2.388,0.561-2.928,0.686c-0.217,0.05-0.416,0.074-0.594,0.074c-0.572,0-0.944-0.253-1.119-0.76
					c-0.229-0.664-0.166-1.463,0.188-2.398c0.353-0.934,0.943-1.847,1.775-2.74c0.83-0.893,1.847-1.463,3.052-1.713
					c3.114-0.581,5.989-0.912,8.627-0.996C26.595,0.132,27.045,0.125,27.487,0.125 M18.256,18.521
					c2.574-0.623,5.117-1.391,7.631-2.305c2.512-0.914,4.702-1.879,6.571-2.896c1.868-1.018,3.259-2.035,4.173-3.053
					c0.913-1.017,1.1-1.962,0.561-2.834c-0.333-0.498-0.945-0.861-1.838-1.09c-0.893-0.228-1.952-0.352-3.176-0.373
					c-0.157-0.003-0.315-0.004-0.476-0.004c-1.091,0-2.261,0.063-3.51,0.189c-1.433,0.146-2.855,0.322-4.268,0.53
					c-0.955,1.619-1.941,3.395-2.958,5.325c-1.019,1.932-2.066,3.955-3.146,6.073c0.083,0.083,0.155,0.155,0.218,0.218
					S18.173,18.437,18.256,18.521 M27.487-0.375c-0.447,0-0.903,0.007-1.367,0.021c-2.657,0.085-5.584,0.423-8.703,1.004
					c-1.313,0.272-2.429,0.899-3.326,1.864c-0.871,0.935-1.502,1.913-1.877,2.904c-0.394,1.043-0.459,1.964-0.192,2.738
					c0.243,0.708,0.808,1.097,1.591,1.097c0.215,0,0.452-0.029,0.705-0.087c0.542-0.125,1.519-0.353,2.932-0.686
					c1.101-0.259,2.346-0.521,3.714-0.783c-0.24,0.342-0.466,0.608-0.675,0.796c-0.358,0.322-0.713,0.538-1.054,0.64
					c-0.309,0.093-0.604,0.14-0.876,0.14c-0.045,0-0.091-0.001-0.135-0.004c-0.104-0.006-0.207-0.009-0.31-0.009
					c-0.31,0-0.629,0.026-0.949,0.077c-0.469,0.074-0.948,0.28-1.423,0.613c-0.483,0.338-0.939,0.902-1.396,1.724
					c-0.287,0.491-0.775,1.356-1.463,2.584c-0.685,1.226-1.476,2.661-2.369,4.302c-0.894,1.641-1.838,3.385-2.835,5.234
					c-1.001,1.857-1.957,3.685-2.84,5.431c-0.886,1.752-1.685,3.38-2.372,4.84c-0.691,1.466-1.171,2.618-1.426,3.426
					c-0.401,1.291-0.456,2.544-0.165,3.727c0.286,1.169,0.739,2.137,1.345,2.876c0.637,0.779,1.348,1.236,2.112,1.36
					c0.103,0.017,0.201,0.024,0.296,0.024c0.519,0,1.237-0.234,1.708-1.352c0.174-0.476,0.546-1.344,1.116-2.604
					c0.581-1.288,1.287-2.832,2.117-4.638s1.764-3.818,2.802-6.039c0.929-1.987,1.912-4.061,2.928-6.175
					c0.966,0.997,2.001,2.154,3.087,3.45c1.265,1.51,2.572,3.119,3.884,4.784c1.314,1.671,2.589,3.353,3.787,4.998
					c1.225,1.684,2.346,3.22,3.365,4.611c1.017,1.392,1.89,2.576,2.617,3.554c0.756,1.015,1.3,1.662,1.661,1.979
					c0.958,0.865,2.003,1.307,3.101,1.307c1.052,0,1.979-0.208,2.756-0.618c0.803-0.427,1.371-0.999,1.687-1.702
					c0.357-0.797,0.225-1.539-0.383-2.146c-0.359-0.358-1.185-1.34-2.455-2.919c-1.229-1.525-2.715-3.398-4.543-5.726
					c-1.736-2.211-3.624-4.57-5.612-7.014c-1.754-2.157-3.456-4.222-5.067-6.147c4.18-0.845,7.733-1.878,10.572-3.073
					c3.05-1.282,5.416-2.709,7.033-4.241c1.656-1.567,2.619-3.281,2.862-5.092c0.242-1.812-0.21-3.681-1.345-5.557
					c-0.75-1.233-1.889-2.288-3.389-3.136c-1.472-0.832-3.294-1.459-5.417-1.862C31.561-0.208,29.606-0.375,27.487-0.375
					L27.487-0.375z M24.233,7.146c1.303-0.188,2.65-0.354,4.009-0.493c1.23-0.125,2.395-0.187,3.459-0.187
					c0.157,0,0.313,0.001,0.467,0.004c1.182,0.021,2.211,0.141,3.061,0.357c0.765,0.196,1.285,0.493,1.546,0.883
					c0.253,0.41,0.486,1.105-0.517,2.222c-0.872,0.971-2.231,1.962-4.04,2.948c-1.835,0.999-4.023,1.963-6.503,2.866
					c-2.381,0.866-4.825,1.61-7.271,2.213c1.015-1.988,2.011-3.909,2.963-5.715C22.373,10.413,23.322,8.699,24.233,7.146
					L24.233,7.146z"/>
			</g>
			<g>
				<path fill="#FFF200" d="M45.484,33.619c-0.748,0-1.377-0.182-1.87-0.539c-0.662-0.479-1.032-1.285-1.099-2.398
					c-0.064-1.073,0.267-2.434,0.986-4.041c0.245-0.611,0.462-1.17,0.648-1.667c0.177-0.47,0.277-0.835,0.297-1.084
					c0.001-0.013,0.001-0.024,0.002-0.035c-0.107,0.067-0.322,0.231-0.729,0.637c-0.502,0.504-1.023,0.759-1.547,0.759
					s-0.95-0.161-1.267-0.479c-0.317-0.317-0.478-0.743-0.478-1.266s0.255-1.043,0.759-1.547c0.949-0.992,2.117-2.097,3.469-3.282
					c1.335-1.172,2.585-2.212,3.717-3.092c0.577-0.445,1.178-0.692,1.786-0.737c0.086-0.006,0.17-0.009,0.252-0.009
					c0.506,0,0.945,0.122,1.306,0.361c0.427,0.285,0.703,0.692,0.822,1.211c0.116,0.517,0.014,1.079-0.304,1.67
					c-0.339,0.549-0.638,1.056-0.906,1.53c-0.27,0.477-0.559,1.005-0.87,1.583c-0.311,0.582-0.665,1.245-1.059,1.993
					c-0.395,0.747-0.862,1.64-1.401,2.676c-0.727,1.299-0.552,1.63-0.481,1.701c0.083,0.083,0.216,0.124,0.396,0.124
					c0.27,0,0.632-0.091,1.078-0.271c0.847-0.343,1.918-0.982,3.185-1.902c1.271-0.922,2.644-2.118,4.082-3.556
					c0.538-0.539,1.083-0.836,1.619-0.882c0.075-0.006,0.148-0.01,0.219-0.01c0.446,0,0.822,0.127,1.117,0.379
					c0.353,0.304,0.508,0.752,0.461,1.332c-0.047,0.558-0.365,1.135-0.944,1.714c-0.417,0.416-0.958,0.947-1.623,1.592
					c-0.666,0.646-1.406,1.333-2.218,2.062c-0.81,0.728-1.663,1.443-2.535,2.128c-0.872,0.685-1.717,1.287-2.512,1.79
					c-1.31,0.846-2.517,1.351-3.587,1.501C45.985,33.6,45.728,33.619,45.484,33.619z M54.766,12.479
					c-0.567-0.048-1.002-0.368-1.292-0.948c-0.144-0.287-0.214-0.802-0.214-1.575c0-0.744,0.129-1.584,0.383-2.497
					c0.254-0.913,0.673-1.826,1.245-2.716c0.58-0.902,1.397-1.644,2.427-2.203c0.321-0.178,0.669-0.269,1.035-0.269
					c0.109,0,0.22,0.008,0.333,0.024c0.479,0.067,0.896,0.242,1.242,0.52c0.348,0.278,0.606,0.663,0.767,1.143
					c0.166,0.5,0.109,1.036-0.169,1.592c-0.256,0.511-0.622,1.071-1.086,1.663c-0.459,0.584-0.929,1.158-1.408,1.721
					c-0.477,0.559-0.901,1.067-1.273,1.521c-0.355,0.435-0.595,0.792-0.712,1.062c-0.284,0.795-0.79,0.965-1.164,0.965
					C54.873,12.484,54.773,12.48,54.766,12.479z"/>
				<path fill="#141A2C" d="M58.351,2.523c0.098,0,0.197,0.007,0.298,0.021c0.437,0.062,0.81,0.217,1.121,0.467
					c0.312,0.249,0.54,0.592,0.686,1.027C60.6,4.474,60.549,4.942,60.3,5.44c-0.25,0.499-0.603,1.038-1.06,1.62
					s-0.925,1.152-1.401,1.713c-0.478,0.561-0.903,1.069-1.276,1.525c-0.374,0.457-0.623,0.832-0.748,1.121
					c-0.194,0.543-0.506,0.814-0.935,0.814c-0.03,0-0.062-0.001-0.093-0.004c-0.479-0.041-0.841-0.313-1.09-0.811
					c-0.125-0.249-0.188-0.736-0.188-1.463s0.125-1.536,0.374-2.43c0.249-0.893,0.654-1.775,1.215-2.647s1.339-1.577,2.336-2.118
					C57.721,2.602,58.027,2.523,58.351,2.523 M50.412,15.087c0.458,0,0.846,0.106,1.167,0.319c0.374,0.25,0.612,0.603,0.717,1.059
					c0.103,0.458,0.009,0.957-0.28,1.496c-0.333,0.539-0.634,1.049-0.903,1.525c-0.271,0.479-0.561,1.008-0.872,1.588
					c-0.312,0.582-0.665,1.246-1.06,1.994c-0.395,0.747-0.862,1.641-1.401,2.678c-0.582,1.039-0.727,1.703-0.436,1.993
					c0.131,0.132,0.322,0.197,0.573,0.197c0.303,0,0.694-0.097,1.171-0.29c0.872-0.353,1.951-0.997,3.238-1.932
					c1.287-0.934,2.657-2.127,4.111-3.581c0.498-0.499,0.986-0.769,1.464-0.81c0.067-0.006,0.133-0.009,0.197-0.009
					c0.387,0,0.706,0.106,0.955,0.319c0.29,0.25,0.414,0.623,0.374,1.121c-0.042,0.499-0.333,1.019-0.872,1.558
					c-0.416,0.415-0.956,0.945-1.62,1.589c-0.664,0.645-1.401,1.329-2.211,2.055c-0.81,0.728-1.65,1.434-2.522,2.118
					s-1.703,1.276-2.491,1.775c-1.288,0.831-2.451,1.318-3.488,1.464c-0.26,0.036-0.506,0.055-0.738,0.055
					c-0.697,0-1.271-0.164-1.723-0.491c-0.603-0.436-0.934-1.173-0.996-2.211s0.259-2.346,0.965-3.925
					c0.25-0.622,0.468-1.183,0.654-1.682c0.188-0.498,0.29-0.881,0.312-1.152c0.018-0.234-0.035-0.35-0.157-0.35
					c-0.019,0-0.039,0.003-0.061,0.008c-0.167,0.041-0.478,0.291-0.935,0.747c-0.457,0.458-0.914,0.686-1.37,0.686
					c-0.457,0-0.819-0.134-1.09-0.405c-0.27-0.27-0.405-0.633-0.405-1.09s0.229-0.913,0.686-1.37
					c0.954-0.997,2.106-2.087,3.457-3.271c1.349-1.184,2.585-2.211,3.706-3.083c0.539-0.415,1.09-0.644,1.65-0.685
					C50.258,15.09,50.336,15.087,50.412,15.087 M58.351,2.023L58.351,2.023c-0.409,0-0.798,0.101-1.159,0.301
					c-1.063,0.577-1.911,1.346-2.514,2.285c-0.585,0.911-1.015,1.847-1.276,2.784C53.142,8.327,53.01,9.19,53.01,9.957
					c0,0.824,0.077,1.36,0.241,1.687c0.413,0.826,1.04,1.046,1.494,1.084c0.045,0.004,0.091,0.006,0.135,0.006
					c0.372,0,1.049-0.149,1.405-1.146c0.062-0.141,0.239-0.454,0.664-0.973c0.372-0.454,0.795-0.96,1.271-1.518
					c0.494-0.581,0.969-1.163,1.414-1.729c0.475-0.605,0.85-1.179,1.114-1.705c0.309-0.618,0.37-1.218,0.183-1.783
					c-0.176-0.528-0.461-0.952-0.848-1.261c-0.38-0.305-0.839-0.498-1.363-0.571C58.594,2.032,58.471,2.023,58.351,2.023
					L58.351,2.023z M50.412,14.587c-0.088,0-0.179,0.003-0.271,0.01c-0.657,0.048-1.303,0.313-1.919,0.787
					c-1.137,0.884-2.392,1.928-3.73,3.103c-1.357,1.189-2.531,2.3-3.489,3.301c-0.544,0.544-0.824,1.124-0.824,1.716
					s0.186,1.077,0.552,1.443c0.365,0.366,0.851,0.552,1.443,0.552s1.173-0.28,1.724-0.833c0.052-0.052,0.101-0.1,0.146-0.144
					c-0.034,0.107-0.076,0.227-0.127,0.361c-0.186,0.497-0.402,1.053-0.65,1.671c-0.739,1.65-1.068,3.011-1,4.142
					c0.072,1.191,0.476,2.061,1.202,2.586c0.536,0.389,1.214,0.586,2.016,0.586c0.254,0,0.526-0.021,0.808-0.06
					c1.106-0.155,2.348-0.673,3.69-1.539c0.798-0.505,1.65-1.112,2.529-1.802c0.877-0.688,1.734-1.408,2.548-2.14
					c0.819-0.734,1.568-1.43,2.225-2.068c0.666-0.645,1.208-1.177,1.625-1.593c0.623-0.623,0.965-1.252,1.017-1.87
					c0.054-0.666-0.13-1.184-0.545-1.542c-0.344-0.293-0.774-0.44-1.282-0.44c-0.078,0-0.158,0.003-0.24,0.011
					c-0.597,0.051-1.194,0.372-1.775,0.955c-1.428,1.428-2.791,2.616-4.051,3.53c-1.251,0.908-2.305,1.538-3.132,1.872
					c-0.518,0.21-0.821,0.254-0.984,0.254c-0.105,0-0.187-0.019-0.218-0.05l0,0c0.004,0-0.098-0.299,0.517-1.396
					c0.546-1.049,1.013-1.942,1.407-2.688c0.395-0.747,0.748-1.41,1.059-1.992c0.309-0.576,0.598-1.102,0.866-1.578
					c0.277-0.49,0.578-0.998,0.894-1.509c0.362-0.672,0.472-1.292,0.343-1.868c-0.134-0.585-0.446-1.043-0.927-1.365
					C51.455,14.722,50.969,14.587,50.412,14.587L50.412,14.587z"/>
			</g>
			<g>
				<path fill="#FFF200" d="M57.456,37.337c-1.117,0-2.131-0.265-3.014-0.787c-0.963-0.568-1.629-1.399-1.98-2.472
					c-0.342-1.05-0.419-2.251-0.228-3.571c0.189-1.302,0.625-2.708,1.297-4.179c0.669-1.465,1.581-2.928,2.709-4.35
					c1.129-1.422,2.347-2.671,3.62-3.713c1.28-1.049,2.577-1.868,3.856-2.434c1.289-0.571,2.557-0.882,3.768-0.925l0.253-0.004
					c1.125,0,2.144,0.265,3.028,0.786c1.4,0.877,2.162,2.253,2.271,4.094c0.099,1.684-0.279,3.546-1.123,5.539
					c0.592-0.106,1.238-0.37,1.927-0.786c0.87-0.525,1.934-1.394,3.164-2.582c0.373-0.373,0.827-0.576,1.346-0.6l0.119-0.003
					c0.463,0,0.865,0.123,1.193,0.363c0.369,0.272,0.582,0.667,0.63,1.174c0.048,0.512-0.207,1.051-0.758,1.602
					c-1.843,1.844-3.623,3.099-5.289,3.731c-1.254,0.477-2.414,0.718-3.445,0.718c-0.295,0-0.584-0.02-0.862-0.059l-1.031,1.376
					c-1.131,1.425-2.349,2.674-3.623,3.718c-1.279,1.048-2.565,1.866-3.825,2.433c-1.27,0.571-2.527,0.883-3.737,0.925
					L57.456,37.337z M65.575,19.725c-0.302,0-0.623,0.062-0.955,0.184c-0.597,0.219-1.213,0.573-1.832,1.053
					c-0.625,0.483-1.23,1.078-1.798,1.768c-0.572,0.694-1.089,1.417-1.537,2.151c-0.445,0.727-0.793,1.463-1.035,2.191
					c-0.24,0.719-0.361,1.384-0.361,1.976c0,0.583,0.107,1.103,0.318,1.544c0.198,0.415,0.525,0.688,1,0.834
					c0.321,0.111,0.644,0.166,0.967,0.166c0.711,0,1.467-0.266,2.246-0.789c1.168-0.786,2.212-1.943,3.102-3.439l0.161-0.281
					c-0.299-0.38-0.519-0.85-0.655-1.399c-0.15-0.596-0.216-1.248-0.195-1.937c0.021-0.678,0.107-1.364,0.256-2.039
					c0.147-0.675,0.352-1.301,0.608-1.857l0.049-0.097C65.801,19.734,65.688,19.725,65.575,19.725z"/>
				<path fill="#141A2C" d="M67.738,15.153c1.083,0,2.05,0.25,2.901,0.751c1.328,0.832,2.044,2.129,2.148,3.894
					c0.104,1.766-0.322,3.706-1.276,5.823c0.747-0.04,1.566-0.331,2.46-0.871c0.893-0.539,1.962-1.412,3.208-2.616
					c0.332-0.332,0.726-0.509,1.184-0.53c0.036-0.001,0.072-0.002,0.107-0.002c0.41,0,0.759,0.104,1.045,0.315
					c0.311,0.229,0.487,0.561,0.529,0.996c0.041,0.436-0.188,0.903-0.686,1.401c-1.828,1.828-3.561,3.052-5.201,3.675
					c-1.23,0.467-2.349,0.701-3.356,0.701c-0.336,0-0.661-0.025-0.973-0.078l-1.121,1.495c-1.121,1.412-2.315,2.638-3.581,3.675
					c-1.268,1.039-2.522,1.838-3.769,2.398s-2.46,0.861-3.644,0.902c-0.087,0.003-0.173,0.005-0.258,0.005
					c-1.079,0-2.04-0.252-2.887-0.752c-0.913-0.539-1.536-1.317-1.869-2.335c-0.332-1.018-0.404-2.17-0.218-3.457
					s0.613-2.658,1.277-4.111s1.557-2.886,2.678-4.298c1.121-1.411,2.314-2.637,3.582-3.675c1.266-1.037,2.532-1.838,3.799-2.398
					s2.492-0.861,3.676-0.903C67.575,15.154,67.657,15.153,67.738,15.153 M60.342,31.841c0.766,0,1.561-0.277,2.385-0.831
					c1.204-0.811,2.263-1.982,3.177-3.52l0.249-0.436c-0.333-0.374-0.571-0.852-0.716-1.434c-0.146-0.58-0.208-1.203-0.188-1.868
					c0.021-0.663,0.104-1.328,0.25-1.993c0.145-0.664,0.342-1.266,0.591-1.807l0.188-0.373c-0.227-0.07-0.462-0.105-0.704-0.105
					c-0.333,0-0.68,0.066-1.041,0.199c-0.623,0.229-1.257,0.592-1.899,1.09c-0.645,0.498-1.257,1.101-1.838,1.807
					c-0.582,0.706-1.101,1.432-1.558,2.18c-0.457,0.747-0.81,1.494-1.059,2.242c-0.249,0.747-0.374,1.433-0.374,2.055
					c0,0.623,0.114,1.174,0.343,1.651c0.228,0.478,0.612,0.8,1.152,0.966C59.643,31.782,59.989,31.841,60.342,31.841 M67.738,14.653
					c-0.086,0-0.174,0.001-0.262,0.005c-1.244,0.044-2.542,0.362-3.861,0.946c-1.299,0.575-2.616,1.405-3.914,2.469
					c-1.286,1.053-2.516,2.315-3.657,3.75c-1.141,1.438-2.063,2.918-2.741,4.401c-0.682,1.492-1.125,2.922-1.317,4.248
					c-0.197,1.358-0.117,2.598,0.237,3.684c0.371,1.132,1.074,2.01,2.09,2.61c0.922,0.545,1.979,0.821,3.142,0.821
					c0.091,0,0.184-0.002,0.276-0.005c1.242-0.043,2.531-0.361,3.831-0.946c1.279-0.575,2.585-1.406,3.88-2.468
					c1.288-1.055,2.518-2.317,3.656-3.751l0.952-1.27c0.244,0.028,0.495,0.042,0.75,0.042c1.063,0,2.251-0.247,3.534-0.733
					c1.699-0.646,3.508-1.921,5.377-3.789c0.606-0.606,0.885-1.212,0.83-1.802c-0.056-0.582-0.302-1.036-0.731-1.352
					c-0.373-0.273-0.824-0.412-1.341-0.412c-0.042,0-0.085,0.001-0.129,0.003c-0.585,0.027-1.094,0.255-1.516,0.676
					c-1.21,1.169-2.259,2.026-3.113,2.542c-0.487,0.294-0.949,0.509-1.382,0.642c0.728-1.858,1.05-3.602,0.956-5.195
					c-0.114-1.927-0.916-3.369-2.382-4.288C69.969,14.929,68.908,14.653,67.738,14.653L67.738,14.653z M60.342,31.341
					c-0.296,0-0.591-0.051-0.877-0.149c-0.421-0.13-0.698-0.359-0.865-0.708c-0.195-0.408-0.294-0.892-0.294-1.437
					c0-0.565,0.117-1.203,0.348-1.896c0.236-0.709,0.576-1.429,1.011-2.14c0.442-0.724,0.953-1.438,1.517-2.123
					c0.556-0.676,1.147-1.257,1.758-1.729c0.599-0.464,1.193-0.806,1.766-1.016c0.289-0.106,0.567-0.162,0.829-0.167
					c-0.219,0.52-0.394,1.08-0.524,1.678c-0.151,0.689-0.24,1.391-0.261,2.084c-0.021,0.712,0.046,1.388,0.203,2.006
					c0.129,0.52,0.33,0.975,0.599,1.356l-0.082,0.143c-0.866,1.457-1.884,2.587-3.022,3.353
					C61.712,31.09,61.003,31.341,60.342,31.341L60.342,31.341z"/>
			</g>
		</g>
	</g>
	<g>
		<g>
			<g>
				<path fill="#FFF200" d="M126.855,46.583c-2.549,0-4.996-0.243-7.273-0.724c-1.04-0.304-1.889-0.716-2.542-1.23
					c-0.654-0.516-1.178-1.082-1.559-1.683c-0.382-0.605-0.65-1.239-0.798-1.884c-0.146-0.639-0.22-1.265-0.22-1.862
					c0-1.103,0.2-2.261,0.595-3.442c0.39-1.169,0.838-2.249,1.332-3.212c0.536-1.087,1.182-2.168,1.919-3.207
					c0.229-0.466,0.558-1.039,0.958-1.671c0.396-0.625,0.782-1.218,1.156-1.78c0.373-0.559,0.683-1.033,0.931-1.427
					c0.178-0.281,0.247-0.408,0.273-0.462c0.001-0.046,0.015-0.092,0.04-0.132c0.906-1.402,1.78-2.645,2.598-3.693
					c0.809-1.036,1.493-1.928,2.053-2.675c0.547-0.729,0.993-1.372,1.326-1.911c0.306-0.497,0.461-0.936,0.461-1.302
					c0-0.1,0-0.186-0.248-0.186c-0.038,0-0.264,0.029-0.999,0.602c-0.55,0.427-1.256,1.05-2.1,1.852
					c-0.85,0.809-1.834,1.773-2.954,2.892c-1.094,1.094-2.286,2.328-3.544,3.669c-1.621,1.706-3.17,3.305-4.644,4.801
					c-1.456,1.476-2.839,3.202-4.112,5.132l-0.489,0.858c-0.391,0.931-0.507,1.288-0.533,1.42c-0.05,0.202-0.058,0.29-0.058,0.325
					c0,0.275,0.041,0.344,0.042,0.347c0.14,0.103,0.207,0.339,0.207,0.774c0,0.164-0.066,0.386-0.209,0.696
					c-0.171,0.37-0.592,0.55-1.287,0.55c-0.36,0-0.765-0.078-1.204-0.231c-0.445-0.156-0.85-0.393-1.203-0.702
					c-0.353-0.308-0.653-0.675-0.893-1.091c-0.25-0.431-0.376-0.902-0.376-1.401c0-0.578,0.136-1.122,0.404-1.615
					c0.031-0.063,0.032-0.095,0.032-0.099c0-0.096,0.026-0.207,0.081-0.342c0.042-0.107,0.117-0.27,0.226-0.486
					c0.105-0.21,0.285-0.528,0.539-0.951c0.619-1.279,1.337-2.536,2.125-3.716c0.789-1.185,1.517-2.255,2.183-3.212
					c0.667-0.958,1.229-1.74,1.688-2.344c0.447-0.588,0.55-0.793,0.573-0.855c-0.005-0.061,0.012-0.124,0.051-0.174
					c1.905-2.487,3.475-4.601,4.666-6.284c1.455-2.058,1.76-2.92,1.76-3.281c0-0.1,0-0.187-0.248-0.187
					c-0.07,0.016-0.483,0.209-2.285,1.985c-1.367,1.344-3.073,3.102-5.07,5.225c-1.983,2.107-4.14,4.463-6.411,7.002
					c-2.277,2.546-4.434,5.027-6.411,7.375c-0.518,0.842-0.994,1.629-1.409,2.333c-0.407,0.693-0.715,1.31-0.916,1.832
					c-0.125,0.29-0.225,0.57-0.304,0.851c-0.203,0.526-0.302,1.062-0.302,1.613c0,0.379,0.079,0.671,0.235,0.871h0.075
					c0.155,0,0.326,0.035,0.522,0.108c0.155,0.059,0.412,0.218,0.412,0.641c0,0.459-0.204,0.831-0.606,1.108
					c-0.374,0.257-0.82,0.387-1.325,0.387c-0.719,0-1.472-0.301-2.239-0.893c-0.788-0.607-1.188-1.67-1.188-3.157
					c0-0.978,0.204-2.063,0.605-3.228c0.397-1.147,0.873-2.289,1.413-3.392c0.54-1.099,1.12-2.153,1.725-3.135
					c0.601-0.974,1.109-1.813,1.523-2.52c0.833-1.333,1.778-2.761,2.813-4.25c1.038-1.497,2.025-2.907,2.959-4.237
					c0.933-1.326,1.72-2.477,2.363-3.451c0.857-1.3,0.923-1.629,0.923-1.699c0-0.147-0.033-0.184-0.033-0.184
					c-0.002,0-0.004,0-0.007,0c-0.196,0-0.563,0.105-1.355,0.584c-0.669,0.406-1.504,1.077-2.482,1.993
					c-0.986,0.925-2.144,2.155-3.438,3.656c-1.289,1.494-2.703,3.36-4.204,5.547c-0.032,0.118-0.151,0.276-0.4,0.583
					c-0.264,0.324-0.554,0.734-0.887,1.253c-0.325,0.508-0.635,1.055-0.921,1.627c-0.272,0.545-0.41,1.031-0.41,1.446
					c0,0.227,0.043,0.411,0.13,0.56h0.243c0.182,0,0.37,0.023,0.559,0.069c0.28,0.071,0.439,0.273,0.439,0.555
					c0,0.367-0.208,0.726-0.62,1.064c-0.397,0.327-0.88,0.493-1.437,0.493c-0.464,0-0.909-0.14-1.322-0.415
					c-0.401-0.268-0.749-0.627-1.036-1.069c-0.282-0.431-0.502-0.914-0.654-1.437c-0.151-0.516-0.229-1.021-0.229-1.502
					c0-1.071,0.312-2.271,0.928-3.564c0.602-1.268,1.582-2.944,2.913-4.981l0.158-0.165c1.182-1.76,2.539-3.287,4.003-4.5
					c1.462-1.21,2.912-2.205,4.308-2.956c1.402-0.752,2.751-1.304,4.009-1.641c1.261-0.336,2.31-0.506,3.116-0.506
					c0.272,0,0.527,0.035,0.757,0.104c0.228,0.068,0.357,0.083,0.426,0.083c0.827,0.32,1.491,0.745,2.07,1.28
					c0.611,0.568,0.921,1.332,0.921,2.271c0,0.875-0.338,1.852-1.004,2.905c-0.011,0.018-0.022,0.035-0.034,0.053
					c0.39-0.428,0.779-0.849,1.167-1.26c1.325-1.409,2.608-2.671,3.814-3.753c1.212-1.087,2.357-1.955,3.402-2.581
					c1.073-0.645,2.039-0.971,2.87-0.971c0.768,0,1.539,0.37,2.292,1.099c0.753,0.731,1.135,1.598,1.135,2.577
					c0,0.137,0.015,0.241,0.043,0.311c0.067,0.168,0.03,0.413-0.351,1.173c-0.276,0.553-0.826,1.452-1.635,2.672
					c-0.454,0.689-1.044,1.558-1.781,2.626c0.413-0.419,0.829-0.83,1.244-1.231c1.206-1.164,2.385-2.206,3.506-3.098
					c1.131-0.9,2.201-1.631,3.181-2.172c1.009-0.558,1.898-0.841,2.644-0.841c0.41,0,0.825,0.103,1.232,0.307
					c0.393,0.195,0.761,0.462,1.093,0.793c0.332,0.333,0.6,0.712,0.797,1.129c0.202,0.428,0.305,0.873,0.305,1.322
					c0,0.252-0.127,0.624-0.4,1.17c-0.249,0.499-0.69,1.269-1.349,2.354c-0.659,1.082-1.552,2.479-2.652,4.15
					c-1.109,1.686-2.546,3.817-4.306,6.396c-0.001,0.001-0.012,0.017-0.013,0.019c-0.017,0.025-0.04,0.05-0.066,0.07l-2.996,4.54
					c-0.85,1.284-1.55,2.392-2.081,3.29c-0.528,0.893-0.919,1.677-1.165,2.328c-0.237,0.631-0.357,1.209-0.357,1.718
					c0,0.768,0.19,1.384,0.565,1.833c0.389,0.468,0.875,0.845,1.442,1.118c0.581,0.28,1.166,0.473,1.74,0.571
					c0.596,0.103,1.079,0.174,1.449,0.216c1.555,0.114,3.118,0.172,4.637,0.172c2.276,0,4.532-0.131,6.705-0.39
					c3.623-0.433,7.232-0.986,10.727-1.648c3.51-0.665,6.979-1.309,10.404-1.932c3.421-0.622,6.923-0.979,10.409-1.063
					c0.361-0.014,0.728-0.021,1.095-0.021c0.73,0,1.471,0.028,2.2,0.084c1.1,0.082,2.25,0.229,3.421,0.438
					c1.174,0.218,2.013,0.529,2.566,0.951c0.553,0.419,0.936,0.871,1.138,1.346c0.205,0.48,0.273,0.936,0.203,1.354
					c-0.063,0.383-0.117,0.658-0.158,0.828c-0.32,0.61-0.624,1.065-0.927,1.414c-0.272,0.316-0.556,0.538-0.839,0.658
					c-0.086,0.035-0.169,0.053-0.247,0.053c-0.206,0-0.477-0.11-0.593-0.636c-0.261-0.854-1.112-1.575-2.524-2.125
					c-1.461-0.568-3.36-0.877-5.645-0.917c-0.254-0.005-0.51-0.008-0.768-0.008c-1.912,0-3.979,0.139-6.142,0.41
					c-2.473,0.313-5.068,0.689-7.715,1.12c-2.678,0.437-5.418,0.892-8.22,1.37c-2.804,0.477-5.617,0.865-8.362,1.155
					c-2.755,0.289-5.497,0.446-8.152,0.468L126.855,46.583z"/>
				<path fill="#141A2C" d="M120.443,7.308c0.706,0,1.411,0.344,2.118,1.028c0.705,0.685,1.059,1.485,1.059,2.397
					c0,0.167,0.02,0.303,0.063,0.406c0.041,0.104-0.073,0.426-0.344,0.965c-0.27,0.54-0.809,1.423-1.619,2.646
					c-0.81,1.227-2.045,3.021-3.705,5.389c1.162-1.287,2.345-2.512,3.55-3.676c1.204-1.162,2.366-2.189,3.487-3.082
					c1.122-0.893,2.17-1.609,3.146-2.149c0.975-0.539,1.816-0.81,2.522-0.81c0.374,0,0.747,0.094,1.121,0.28
					s0.716,0.437,1.028,0.747c0.311,0.312,0.561,0.665,0.747,1.059c0.187,0.396,0.28,0.801,0.28,1.215
					c0,0.209-0.125,0.561-0.374,1.059c-0.249,0.499-0.696,1.277-1.339,2.336c-0.645,1.059-1.526,2.44-2.647,4.143
					c-1.109,1.685-2.544,3.815-4.303,6.394c0.003-0.01,0.005-0.023,0.005-0.04c-0.015,0.021-0.028,0.043-0.043,0.065
					c-0.008,0.004-0.013,0.012-0.016,0.024c-1.18,1.789-2.188,3.316-3.024,4.582c-0.852,1.287-1.548,2.388-2.087,3.301
					c-0.54,0.914-0.934,1.703-1.184,2.367c-0.249,0.663-0.373,1.266-0.373,1.806c0,0.831,0.207,1.495,0.623,1.993
					c0.414,0.498,0.923,0.893,1.525,1.184c0.602,0.29,1.204,0.488,1.807,0.592c0.602,0.104,1.09,0.176,1.463,0.218
					c1.578,0.116,3.134,0.174,4.665,0.174c2.297,0,4.541-0.13,6.734-0.392c3.653-0.436,7.235-0.986,10.744-1.65
					c3.509-0.665,6.977-1.309,10.402-1.932s6.883-0.976,10.37-1.059c0.362-0.014,0.725-0.021,1.089-0.021
					c0.723,0,1.45,0.027,2.182,0.083c1.101,0.082,2.231,0.228,3.396,0.436c1.121,0.208,1.939,0.508,2.459,0.904
					c0.52,0.394,0.873,0.809,1.06,1.245s0.249,0.841,0.187,1.214c-0.063,0.375-0.115,0.645-0.155,0.811
					c-0.291,0.539-0.582,0.975-0.872,1.309c-0.249,0.289-0.498,0.486-0.748,0.592c-0.054,0.022-0.104,0.033-0.149,0.033
					c-0.167,0-0.283-0.146-0.349-0.439c-0.291-0.955-1.184-1.723-2.678-2.305c-1.495-0.581-3.406-0.893-5.73-0.934
					c-0.256-0.005-0.513-0.008-0.772-0.008c-1.938,0-3.994,0.139-6.173,0.412c-2.471,0.313-5.045,0.686-7.724,1.121
					c-2.679,0.437-5.419,0.893-8.222,1.371c-2.803,0.477-5.586,0.861-8.347,1.152c-2.763,0.29-5.472,0.445-8.128,0.467
					c-0.105,0.001-0.211,0.001-0.315,0.001c-2.542,0-4.948-0.238-7.222-0.718c-0.993-0.291-1.807-0.685-2.439-1.183
					c-0.633-0.499-1.134-1.038-1.502-1.62c-0.367-0.582-0.623-1.184-0.766-1.806c-0.143-0.623-0.214-1.226-0.214-1.807
					c0-1.08,0.193-2.2,0.582-3.363c0.388-1.162,0.827-2.222,1.317-3.177c0.531-1.079,1.164-2.139,1.9-3.177
					c0.248-0.498,0.57-1.059,0.965-1.682s0.779-1.215,1.152-1.775c0.374-0.561,0.686-1.037,0.935-1.433
					c0.249-0.395,0.353-0.592,0.312-0.592c0.912-1.411,1.775-2.637,2.585-3.675c0.81-1.037,1.495-1.931,2.056-2.679
					c0.561-0.747,1.006-1.391,1.339-1.93c0.332-0.54,0.498-1.018,0.498-1.434c0-0.289-0.166-0.436-0.498-0.436
					c-0.208,0-0.592,0.218-1.152,0.654c-0.561,0.436-1.267,1.059-2.118,1.868s-1.837,1.775-2.959,2.896
					c-1.121,1.121-2.304,2.347-3.55,3.675c-1.619,1.703-3.167,3.301-4.64,4.796c-1.475,1.495-2.855,3.219-4.143,5.17l-0.498,0.872
					c-0.333,0.789-0.52,1.287-0.561,1.495c-0.042,0.167-0.063,0.291-0.063,0.374c0,0.291,0.041,0.467,0.125,0.529
					c0.082,0.063,0.124,0.26,0.124,0.592c0,0.124-0.063,0.322-0.187,0.592c-0.125,0.27-0.479,0.404-1.06,0.404
					c-0.332,0-0.706-0.072-1.121-0.218s-0.789-0.363-1.121-0.654c-0.333-0.29-0.613-0.632-0.841-1.027
					c-0.229-0.395-0.343-0.819-0.343-1.276c0-0.54,0.125-1.038,0.374-1.496c0.041-0.082,0.063-0.155,0.063-0.218
					c0-0.062,0.021-0.145,0.063-0.249c0.041-0.104,0.113-0.259,0.218-0.467c0.104-0.207,0.28-0.52,0.529-0.935
					c0.623-1.286,1.328-2.522,2.118-3.706c0.788-1.184,1.515-2.252,2.18-3.208c0.664-0.954,1.225-1.733,1.682-2.335
					s0.664-0.945,0.623-1.028c1.909-2.491,3.467-4.588,4.672-6.291c1.203-1.702,1.806-2.844,1.806-3.426
					c0-0.29-0.167-0.437-0.498-0.437c-0.249,0-1.069,0.686-2.46,2.057c-1.393,1.369-3.084,3.113-5.077,5.231
					s-4.132,4.454-6.415,7.007c-2.284,2.555-4.423,5.015-6.416,7.381c-0.54,0.873-1.018,1.662-1.433,2.367
					c-0.415,0.707-0.727,1.33-0.934,1.869c-0.125,0.291-0.229,0.582-0.312,0.872c-0.209,0.539-0.312,1.1-0.312,1.682
					c0,0.498,0.124,0.872,0.373,1.121h0.188c0.124,0,0.27,0.031,0.436,0.093c0.166,0.063,0.249,0.197,0.249,0.406
					c0,0.373-0.166,0.674-0.498,0.902c-0.333,0.229-0.727,0.343-1.184,0.343c-0.664,0-1.36-0.28-2.086-0.841
					c-0.728-0.561-1.091-1.547-1.091-2.959c0-0.955,0.197-2.003,0.592-3.146c0.395-1.142,0.861-2.263,1.401-3.363
					c0.54-1.1,1.111-2.138,1.713-3.114c0.602-0.975,1.111-1.816,1.526-2.523c0.83-1.328,1.765-2.74,2.803-4.234
					c1.038-1.496,2.024-2.906,2.959-4.236c0.935-1.328,1.723-2.48,2.367-3.457c0.643-0.975,0.965-1.588,0.965-1.837
					c0-0.29-0.104-0.437-0.312-0.437c-0.291,0-0.778,0.209-1.463,0.623c-0.686,0.416-1.526,1.09-2.523,2.024
					c-0.996,0.935-2.148,2.159-3.457,3.675c-1.308,1.517-2.73,3.395-4.267,5.637c0.041,0-0.072,0.167-0.342,0.499
					c-0.271,0.333-0.571,0.758-0.903,1.276c-0.333,0.52-0.645,1.07-0.935,1.65c-0.291,0.582-0.437,1.102-0.437,1.558
					c0,0.333,0.083,0.603,0.25,0.81h0.373c0.166,0,0.332,0.021,0.499,0.063c0.165,0.042,0.249,0.146,0.249,0.312
					c0,0.291-0.178,0.582-0.529,0.872c-0.354,0.291-0.779,0.436-1.277,0.436c-0.416,0-0.81-0.124-1.184-0.373
					c-0.374-0.25-0.695-0.582-0.965-0.997c-0.271-0.415-0.479-0.872-0.623-1.37c-0.146-0.498-0.219-0.975-0.219-1.433
					c0-1.038,0.301-2.19,0.903-3.457c0.602-1.267,1.567-2.917,2.896-4.952l0.125-0.124c1.204-1.785,2.532-3.28,3.986-4.485
					c1.453-1.203,2.875-2.18,4.267-2.928c1.391-0.746,2.709-1.286,3.955-1.619c1.246-0.332,2.263-0.498,3.052-0.498
					c0.25,0,0.478,0.031,0.686,0.094c0.207,0.063,0.374,0.094,0.498,0.094c0.706,0.291,1.34,0.695,1.9,1.214
					c0.561,0.521,0.841,1.215,0.841,2.087c0,0.831-0.322,1.755-0.966,2.771c-0.645,1.018-1.464,2.211-2.46,3.582
					c1.328-1.578,2.656-3.072,3.986-4.484c1.328-1.412,2.595-2.658,3.799-3.738c1.204-1.079,2.325-1.931,3.363-2.553
					C118.74,7.621,119.653,7.308,120.443,7.308 M125.234,27.655c-0.003,0.009-0.008,0.015-0.013,0.019
					C125.226,27.668,125.229,27.661,125.234,27.655 M125.222,27.674c-0.016,0.021-0.03,0.044-0.045,0.065
					c0-0.014,0.001-0.025,0.004-0.034c0.005-0.009,0.011-0.017,0.016-0.024c0.004-0.002,0.008-0.003,0.012-0.003
					C125.213,27.677,125.218,27.677,125.222,27.674 M120.443,6.808c-0.889,0-1.87,0.329-2.999,1.007
					c-1.058,0.634-2.215,1.512-3.439,2.609c-1.203,1.08-2.482,2.337-3.803,3.74c0.184-0.523,0.277-1.023,0.277-1.498
					c0-1.011-0.336-1.837-1-2.453c-0.602-0.557-1.291-0.997-2.05-1.31c-0.061-0.025-0.125-0.038-0.19-0.038
					c-0.034,0-0.137-0.007-0.354-0.072c-0.254-0.077-0.533-0.115-0.83-0.115c-0.84,0-1.88,0.168-3.181,0.515
					c-1.276,0.341-2.643,0.9-4.063,1.662c-1.412,0.758-2.875,1.762-4.349,2.983c-1.472,1.22-2.835,2.75-4.054,4.55l-0.09,0.089
					c-0.025,0.025-0.047,0.052-0.066,0.082c-1.337,2.047-2.323,3.733-2.93,5.011c-0.631,1.327-0.952,2.563-0.952,3.671
					c0,0.505,0.081,1.034,0.239,1.573c0.158,0.545,0.388,1.051,0.684,1.503c0.304,0.469,0.677,0.853,1.105,1.14
					c0.456,0.304,0.948,0.457,1.461,0.457c0.615,0,1.152-0.185,1.595-0.55c0.472-0.39,0.711-0.813,0.711-1.258
					c0-0.393-0.24-0.698-0.625-0.796c-0.212-0.053-0.42-0.078-0.623-0.078h-0.082c-0.028-0.088-0.042-0.19-0.042-0.31
					c0-0.376,0.129-0.825,0.384-1.334c0.282-0.564,0.588-1.104,0.908-1.604c0.323-0.504,0.616-0.918,0.87-1.23
					c0.208-0.256,0.363-0.447,0.43-0.625c1.489-2.168,2.892-4.019,4.17-5.5c1.289-1.494,2.44-2.717,3.42-3.637
					c0.964-0.904,1.786-1.564,2.44-1.962c0.489-0.295,0.793-0.433,0.975-0.496c-0.073,0.178-0.277,0.586-0.842,1.444
					c-0.653,0.99-1.447,2.149-2.358,3.445c-0.936,1.331-1.922,2.742-2.961,4.239c-1.037,1.493-1.984,2.924-2.816,4.255
					c-0.421,0.716-0.929,1.555-1.528,2.525c-0.609,0.988-1.193,2.051-1.736,3.156c-0.545,1.112-1.025,2.263-1.425,3.421
					c-0.411,1.189-0.619,2.303-0.619,3.309c0,1.569,0.433,2.698,1.286,3.355c0.812,0.626,1.616,0.944,2.391,0.944
					c0.557,0,1.05-0.145,1.466-0.431c0.468-0.322,0.715-0.776,0.715-1.314c0-0.419-0.209-0.737-0.573-0.874
					c-0.203-0.075-0.383-0.115-0.551-0.124c-0.081-0.151-0.121-0.36-0.121-0.622c0-0.521,0.093-1.025,0.278-1.501
					c0.089-0.309,0.187-0.582,0.305-0.855c0.203-0.527,0.505-1.132,0.905-1.813c0.408-0.693,0.877-1.469,1.407-2.326
					c1.97-2.337,4.117-4.808,6.383-7.342c2.27-2.537,4.425-4.891,6.407-6.997c1.996-2.121,3.699-3.876,5.063-5.218
					c1.348-1.329,1.891-1.742,2.094-1.871c-0.059,0.337-0.366,1.143-1.701,3.031c-1.188,1.68-2.757,3.792-4.661,6.275
					c-0.061,0.08-0.095,0.174-0.102,0.271c-0.04,0.077-0.162,0.285-0.522,0.759c-0.458,0.602-1.012,1.371-1.694,2.352
					c-0.679,0.976-1.415,2.058-2.186,3.216c-0.793,1.188-1.518,2.456-2.152,3.766c-0.232,0.383-0.417,0.709-0.526,0.929
					c-0.113,0.225-0.191,0.394-0.235,0.506c-0.065,0.163-0.098,0.306-0.098,0.434c-0.29,0.51-0.437,1.093-0.437,1.714
					c0,0.543,0.138,1.057,0.41,1.527c0.253,0.438,0.571,0.827,0.945,1.153c0.377,0.33,0.81,0.583,1.284,0.749
					c0.465,0.163,0.898,0.246,1.287,0.246c0.791,0,1.3-0.233,1.513-0.694c0.161-0.351,0.233-0.597,0.233-0.802
					c0-0.328-0.03-0.686-0.236-0.912c-0.006-0.035-0.013-0.101-0.013-0.209c0-0.003,0-0.065,0.047-0.252
					c0.021-0.104,0.103-0.394,0.525-1.396l0.483-0.846c1.247-1.889,2.62-3.603,4.064-5.066c1.532-1.556,3.095-3.171,4.646-4.803
					c1.259-1.342,2.449-2.574,3.541-3.666c1.155-1.155,2.121-2.099,2.95-2.888c0.837-0.796,1.537-1.414,2.08-1.835
					c0.534-0.417,0.766-0.519,0.84-0.543c-0.022,0.32-0.164,0.685-0.42,1.102c-0.329,0.532-0.771,1.168-1.313,1.891
					c-0.559,0.746-1.242,1.637-2.05,2.671c-0.821,1.054-1.7,2.303-2.61,3.711c-0.039,0.061-0.063,0.127-0.074,0.196
					c-0.032,0.06-0.1,0.178-0.24,0.4c-0.248,0.393-0.557,0.866-0.928,1.422c-0.375,0.563-0.762,1.159-1.159,1.785
					c-0.396,0.625-0.723,1.193-0.973,1.691c-0.736,1.041-1.381,2.122-1.919,3.214c-0.496,0.966-0.949,2.059-1.343,3.239
					c-0.403,1.207-0.608,2.392-0.608,3.521c0,0.616,0.076,1.262,0.227,1.918c0.154,0.673,0.433,1.332,0.83,1.961
					c0.396,0.626,0.939,1.213,1.615,1.746c0.679,0.534,1.557,0.962,2.608,1.27c2.331,0.493,4.796,0.738,7.362,0.738l0.319-0.001
					c2.663-0.021,5.414-0.18,8.176-0.47c2.752-0.29,5.57-0.679,8.379-1.156c2.802-0.479,5.541-0.935,8.218-1.371
					c2.644-0.43,5.236-0.806,7.706-1.118c2.153-0.271,4.209-0.408,6.11-0.408c0.256,0,0.511,0.003,0.763,0.008
					c2.255,0.04,4.125,0.343,5.56,0.899c1.337,0.521,2.138,1.188,2.38,1.984c0.156,0.713,0.631,0.794,0.827,0.794
					c0.111,0,0.226-0.023,0.341-0.071c0.327-0.138,0.633-0.376,0.936-0.728c0.313-0.36,0.628-0.831,0.934-1.397
					c0.02-0.038,0.035-0.078,0.046-0.12c0.042-0.173,0.097-0.454,0.162-0.846c0.078-0.466,0.004-0.968-0.22-1.492
					c-0.221-0.516-0.63-1.002-1.218-1.447c-0.584-0.446-1.458-0.772-2.67-0.997c-1.182-0.212-2.342-0.36-3.449-0.443
					c-0.735-0.056-1.481-0.084-2.219-0.084c-0.37,0-0.739,0.007-1.107,0.021c-3.493,0.083-7.008,0.442-10.441,1.066
					c-3.462,0.63-6.963,1.28-10.405,1.933c-3.489,0.66-7.093,1.214-10.711,1.646c-2.162,0.257-4.408,0.388-6.675,0.388
					c-1.512,0-3.069-0.058-4.628-0.173c-0.351-0.039-0.833-0.111-1.415-0.212c-0.552-0.095-1.114-0.279-1.674-0.549
					c-0.535-0.259-0.992-0.613-1.358-1.053c-0.341-0.409-0.507-0.957-0.507-1.674c0-0.479,0.115-1.027,0.341-1.63
					c0.24-0.638,0.625-1.408,1.146-2.289c0.528-0.896,1.227-1.998,2.073-3.279c0.816-1.235,1.796-2.719,2.938-4.452
					c0.029-0.025,0.056-0.056,0.078-0.089l0.045-0.065c0.001-0.002,0.002-0.004,0.003-0.006c0.003-0.003,0.005-0.007,0.007-0.01
					c0.001-0.001,0.002-0.002,0.003-0.003c1.813-2.658,3.222-4.751,4.308-6.401c1.103-1.674,1.996-3.073,2.656-4.157
					c0.663-1.092,1.107-1.868,1.359-2.373c0.295-0.59,0.427-0.985,0.427-1.282c0-0.486-0.11-0.967-0.328-1.428
					c-0.21-0.443-0.494-0.846-0.845-1.198c-0.354-0.352-0.743-0.634-1.159-0.841c-0.443-0.221-0.896-0.333-1.345-0.333
					c-0.799,0-1.703,0.285-2.765,0.872c-0.991,0.548-2.073,1.287-3.216,2.196c-0.954,0.76-1.95,1.627-2.969,2.585
					c0.13-0.194,0.252-0.378,0.365-0.55c0.813-1.228,1.369-2.136,1.649-2.699c0.383-0.763,0.471-1.096,0.361-1.372
					c-0.007-0.018-0.027-0.074-0.027-0.222c0-1.049-0.407-1.977-1.21-2.756C122.108,7.202,121.278,6.808,120.443,6.808
					L120.443,6.808z"/>
			</g>
			<g>
				<path fill="#FFF200" d="M130.904,38.773c-0.357,0-0.7-0.036-1.017-0.107c-0.674-0.153-1.261-0.408-1.743-0.759
					c-0.478-0.347-0.883-0.742-1.206-1.174c-0.319-0.424-0.569-0.839-0.744-1.231c-0.347-0.822-0.511-1.664-0.489-2.505
					c0.022-0.833,0.205-1.749,0.544-2.724c0.251-0.798,0.7-1.718,1.332-2.729c0.623-0.998,1.364-1.993,2.203-2.959l0.324-0.325
					c0.073-0.073,0.139-0.146,0.194-0.221c0.076-0.103,0.204-0.222,0.392-0.363c0.858-0.861,2.104-1.745,3.675-2.604
					c1.577-0.863,3.297-1.387,5.11-1.556c0.004,0,0.007,0,0.01,0c0.541,0,1.048,0.089,1.531,0.263
					c0.399,0.134,0.786,0.372,1.145,0.707c0.369,0.347,0.625,0.863,0.76,1.535l0.005,0.641c0,0.138-0.045,0.316-0.143,0.561
					c-0.057,0.113-0.103,0.194-0.148,0.263c-0.037,0.055-0.073,0.119-0.108,0.191c-0.026,0.052-0.068,0.092-0.118,0.116
					c-0.063,0.1-0.151,0.178-0.262,0.229c0.107,0.087,0.208,0.201,0.301,0.339c0.114,0.172,0.167,0.434,0.167,0.825
					c0,0.344-0.032,0.734-0.097,1.158l-0.187,1.216l-0.155,0.967c-0.045,0.179-0.074,0.334-0.093,0.488
					c-0.008,0.062-0.019,0.124-0.033,0.188c0.523-0.113,0.972-0.253,1.333-0.415c0.418-0.188,0.733-0.323,0.942-0.408
					c0.455-0.207,0.804-0.354,1.036-0.438c0.073-0.027,0.144-0.041,0.209-0.041c0.142,0,0.47,0.063,0.47,0.648
					c0,0.039-0.009,0.077-0.026,0.111c-0.024,0.049-0.036,0.116-0.036,0.201v0.124c0,0.248-0.082,0.537-0.244,0.859
					c-0.17,0.34-0.499,0.64-1.007,0.918c-0.314,0.179-0.736,0.32-1.286,0.43c-0.252,0.05-0.53,0.075-0.829,0.075
					c-0.352,0-0.742-0.035-1.16-0.105c-0.054-0.009-0.196-0.065-0.233-0.104c-0.043,0.016-0.09,0.022-0.137,0.022
					c-0.003,0-0.007,0-0.01,0c-0.304,0.633-0.593,1.176-0.86,1.616c-0.296,0.486-0.702,1.032-1.208,1.622
					c-1.089,1.382-2.151,2.367-3.151,2.921c-0.986,0.546-1.874,0.931-2.639,1.144c-0.144,0.076-0.338,0.137-0.533,0.162
					c-0.157,0.02-0.313,0.049-0.469,0.088C131.745,38.726,131.309,38.773,130.904,38.773z M140.37,22.72
					c-0.118,0-0.249,0.012-0.393,0.035c-0.293,0.074-0.872,0.329-1.7,0.754c-0.828,0.424-1.824,1.195-2.961,2.292
					c-0.198,0.199-0.379,0.399-0.539,0.6l-0.498,0.623c-0.282,0.188-0.324,0.273-0.332,0.296c-0.288,0.407-0.538,0.729-0.79,1.044
					c-0.24,0.301-0.483,0.677-0.722,1.115c-0.7,1.111-1.206,2.081-1.513,2.896c-0.302,0.807-0.496,1.644-0.576,2.488
					c0.036,0.659,0.214,1.104,0.529,1.286c0.215,0.125,0.465,0.188,0.743,0.188c0.159,0,0.331-0.021,0.511-0.061
					c0.531-0.117,1.103-0.368,1.696-0.745c0.607-0.384,1.164-0.786,1.655-1.195c0.404-0.406,0.689-0.681,0.837-0.808
					c0.138-0.118,0.371-0.361,0.693-0.724c0.597-0.716,0.98-1.299,1.135-1.726c0.144-0.327,0.164-0.589,0.067-0.814
					c-0.12-0.278-0.271-0.57-0.452-0.871c-0.196-0.328-0.36-0.69-0.489-1.077c-0.142-0.429-0.1-0.966,0.126-1.597
					c0.132-0.306,0.245-0.567,0.351-0.798c0.115-0.253,0.269-0.477,0.456-0.664c0.422-0.51,0.883-0.879,1.355-1.082
					c0.43-0.184,0.805-0.299,1.144-0.35c0.097-0.074,0.21-0.119,0.334-0.133c-0.025-0.086-0.041-0.19-0.041-0.315
					c0-0.049,0.015-0.097,0.041-0.138c-0.035-0.037-0.029-0.081-0.037-0.131C140.968,22.917,140.868,22.72,140.37,22.72z"/>
				<path fill="#141A2C" d="M139.503,19.766c0.498,0,0.975,0.084,1.433,0.249c0.374,0.125,0.726,0.343,1.059,0.654
					c0.332,0.312,0.561,0.778,0.686,1.401c0,0.291,0,0.489,0,0.592c0,0.104-0.042,0.26-0.125,0.468
					c-0.042,0.083-0.083,0.155-0.124,0.217c-0.042,0.063-0.084,0.136-0.125,0.219h-0.063c-0.041,0.125-0.125,0.208-0.249,0.249
					c-0.124,0.042-0.249,0.062-0.374,0.062c-0.248,0-0.373-0.164-0.373-0.498c0.082-0.124,0.082-0.227,0-0.311
					c-0.067-0.398-0.359-0.598-0.877-0.598c-0.13,0-0.273,0.013-0.432,0.038c-0.332,0.083-0.924,0.342-1.775,0.778
					s-1.858,1.214-3.021,2.335c-0.208,0.209-0.396,0.416-0.561,0.623c-0.167,0.209-0.333,0.416-0.498,0.623
					c-0.208,0.125-0.333,0.25-0.374,0.374c-0.249,0.333-0.498,0.653-0.748,0.966c-0.248,0.311-0.498,0.695-0.746,1.152
					c-0.707,1.121-1.215,2.097-1.527,2.928c-0.311,0.83-0.508,1.682-0.591,2.553c0.04,0.789,0.259,1.299,0.653,1.526
					c0.255,0.148,0.544,0.222,0.868,0.222c0.179,0,0.366-0.022,0.565-0.066c0.561-0.124,1.152-0.383,1.775-0.778
					c0.622-0.394,1.183-0.799,1.682-1.214c0.414-0.415,0.694-0.686,0.84-0.811s0.384-0.373,0.717-0.747
					c0.623-0.747,1.018-1.349,1.184-1.807c0.165-0.374,0.187-0.706,0.063-0.997c-0.125-0.289-0.281-0.591-0.468-0.902
					s-0.343-0.654-0.467-1.027c-0.124-0.374-0.084-0.852,0.124-1.434c0.125-0.289,0.238-0.549,0.343-0.778
					c0.104-0.228,0.239-0.425,0.405-0.591c0.414-0.499,0.841-0.842,1.277-1.028c0.436-0.187,0.818-0.301,1.152-0.343
					c0.082-0.082,0.186-0.125,0.311-0.125h0.188c0.165,0,0.289,0.043,0.373,0.125c0.207,0.042,0.395,0.188,0.561,0.436
					c0.083,0.125,0.125,0.354,0.125,0.686c0,0.333-0.031,0.707-0.094,1.121c-0.063,0.416-0.125,0.82-0.187,1.215
					c-0.063,0.395-0.115,0.717-0.155,0.965c-0.043,0.167-0.074,0.334-0.094,0.499c-0.021,0.167-0.073,0.353-0.156,0.561
					c0.125,0,0.207-0.021,0.25-0.063c0.622-0.124,1.141-0.28,1.557-0.467c0.414-0.187,0.727-0.321,0.934-0.405
					c0.457-0.207,0.8-0.352,1.028-0.436c0.046-0.017,0.087-0.025,0.123-0.025c0.146,0,0.22,0.133,0.22,0.398
					c-0.042,0.084-0.063,0.188-0.063,0.313v0.124c0,0.208-0.072,0.458-0.218,0.747c-0.146,0.291-0.446,0.561-0.903,0.811
					c-0.291,0.166-0.695,0.301-1.215,0.404c-0.236,0.047-0.496,0.07-0.78,0.07c-0.339,0-0.712-0.033-1.119-0.102
					c-0.042,0-0.073-0.01-0.094-0.031c-0.021-0.02-0.052-0.031-0.093-0.031c-0.167,0-0.291-0.02-0.374-0.063
					c-0.333,0.707-0.645,1.299-0.935,1.775c-0.291,0.479-0.686,1.008-1.184,1.589c-1.08,1.37-2.107,2.325-3.083,2.865
					s-1.837,0.913-2.585,1.121c-0.166,0.083-0.332,0.134-0.498,0.155c-0.166,0.021-0.333,0.052-0.498,0.094
					c-0.443,0.089-0.859,0.133-1.249,0.133c-0.342,0-0.662-0.034-0.962-0.102c-0.645-0.146-1.193-0.385-1.651-0.717
					c-0.456-0.332-0.841-0.705-1.152-1.121c-0.312-0.414-0.55-0.81-0.716-1.184c-0.332-0.788-0.488-1.588-0.468-2.397
					c0.021-0.81,0.198-1.692,0.53-2.647c0.248-0.788,0.685-1.682,1.308-2.678c0.622-0.997,1.35-1.973,2.18-2.928
					c0.041-0.041,0.083-0.083,0.125-0.125c0.04-0.041,0.103-0.104,0.187-0.187c0.083-0.083,0.156-0.165,0.219-0.249
					c0.062-0.083,0.176-0.188,0.342-0.313c0.872-0.871,2.087-1.732,3.645-2.584C136.046,20.441,137.717,19.933,139.503,19.766
					 M139.503,19.266c-0.016,0-0.031,0.001-0.047,0.002c-1.848,0.173-3.6,0.707-5.207,1.586c-1.577,0.862-2.833,1.752-3.733,2.645
					c-0.194,0.148-0.326,0.273-0.414,0.393c-0.049,0.065-0.106,0.128-0.171,0.193l-0.19,0.191l-0.038,0.038l-0.083,0.083
					c-0.871,1.001-1.62,2.007-2.25,3.017c-0.644,1.028-1.102,1.968-1.36,2.792c-0.343,0.985-0.531,1.927-0.554,2.784
					c-0.022,0.878,0.148,1.754,0.507,2.605c0.187,0.419,0.446,0.85,0.777,1.29c0.337,0.45,0.761,0.863,1.258,1.225
					c0.511,0.37,1.128,0.64,1.835,0.8c0.336,0.076,0.696,0.114,1.072,0.114c0.421,0,0.874-0.048,1.347-0.143
					c0.17-0.042,0.316-0.069,0.462-0.088c0.21-0.027,0.416-0.088,0.615-0.182c0.773-0.221,1.664-0.608,2.648-1.153
					c1.029-0.569,2.117-1.577,3.233-2.993c0.501-0.584,0.915-1.141,1.218-1.639c0.248-0.407,0.513-0.899,0.79-1.468
					c0.067,0.03,0.145,0.05,0.226,0.056c0.421,0.069,0.814,0.104,1.172,0.104c0.315,0,0.61-0.026,0.878-0.08
					c0.577-0.115,1.023-0.266,1.365-0.46c0.546-0.299,0.909-0.634,1.103-1.021c0.182-0.361,0.271-0.679,0.271-0.971v-0.124
					c0-0.065,0.01-0.09,0.01-0.09c0.027-0.063,0.053-0.154,0.053-0.223c0-0.873-0.646-0.898-0.72-0.898
					c-0.095,0-0.194,0.019-0.294,0.056c-0.248,0.091-0.605,0.242-1.063,0.45c-0.192,0.077-0.511,0.215-0.933,0.404
					c-0.261,0.117-0.57,0.222-0.924,0.313c0.016-0.089,0.034-0.176,0.057-0.263l0.042-0.247l0.123-0.765
					c0.062-0.396,0.124-0.802,0.187-1.219c0.066-0.437,0.1-0.839,0.1-1.195c0-0.442-0.066-0.748-0.208-0.962
					c-0.042-0.063-0.086-0.121-0.131-0.175c0.021-0.021,0.039-0.044,0.057-0.068c0.07-0.047,0.129-0.113,0.168-0.192
					c0.03-0.062,0.061-0.116,0.092-0.162c0.052-0.078,0.104-0.167,0.155-0.27c0.129-0.318,0.179-0.52,0.179-0.693v-0.592
					c0-0.033-0.003-0.066-0.01-0.098c-0.146-0.724-0.426-1.285-0.834-1.668c-0.385-0.36-0.803-0.617-1.242-0.764
					C140.592,19.36,140.053,19.266,139.503,19.266L139.503,19.266z M134.184,27.405c0.006,0,0.049-0.044,0.158-0.109
					c0.051-0.031,0.096-0.07,0.133-0.117l0.311-0.389l0.188-0.233c0.15-0.188,0.321-0.379,0.524-0.583
					c1.112-1.072,2.088-1.83,2.895-2.243c1.01-0.518,1.465-0.687,1.668-0.738c0.089-0.012,0.207-0.022,0.311-0.022
					c0.354,0,0.37,0.101,0.384,0.181c0.005,0.027,0.012,0.053,0.02,0.078c-0.016,0.05-0.026,0.103-0.026,0.149
					c0,0.046,0.002,0.09,0.006,0.133c-0.051,0.021-0.1,0.047-0.146,0.078c-0.344,0.059-0.72,0.176-1.145,0.358
					c-0.509,0.217-1.002,0.611-1.465,1.168c-0.178,0.175-0.348,0.423-0.476,0.703c-0.105,0.231-0.22,0.494-0.347,0.787
					c-0.257,0.715-0.3,1.307-0.14,1.789c0.135,0.404,0.307,0.783,0.513,1.127c0.174,0.291,0.321,0.575,0.438,0.844
					c0.023,0.056,0.1,0.233-0.061,0.597c-0.158,0.432-0.527,0.989-1.11,1.688c-0.382,0.429-0.57,0.612-0.659,0.688
					c-0.156,0.134-0.44,0.408-0.867,0.836c-0.449,0.371-0.998,0.767-1.596,1.145c-0.569,0.362-1.113,0.602-1.616,0.713
					c-0.163,0.036-0.316,0.055-0.457,0.055c-0.236,0-0.438-0.05-0.617-0.154c-0.227-0.131-0.369-0.515-0.403-1.083
					c0.081-0.811,0.269-1.614,0.559-2.389c0.3-0.799,0.799-1.753,1.481-2.836c0.248-0.454,0.482-0.817,0.714-1.106
					c0.253-0.316,0.506-0.642,0.758-0.979C134.142,27.499,134.166,27.453,134.184,27.405
					C134.183,27.405,134.183,27.405,134.184,27.405L134.184,27.405z"/>
			</g>
			<g>
				<path fill="#FFF200" d="M145.11,38.279c-0.421,0-0.796-0.067-1.115-0.2c-0.097-0.006-0.182-0.028-0.264-0.094
					c-0.292-0.112-0.497-0.223-0.579-0.374c-0.896-0.672-1.307-1.651-1.221-2.912c-0.001-0.545,0.107-1.197,0.32-1.922
					c0.041-0.09,0.052-0.134,0.052-0.18c0-0.075,0.033-0.142,0.085-0.188c0.388-1.318,0.953-2.619,1.69-3.951
					c0.75-1.353,1.528-2.646,2.314-3.846c0.201-0.321,0.384-0.646,0.546-0.972c0.125-0.249,0.226-0.475,0.302-0.674
					c-0.01-0.027-0.016-0.056-0.016-0.086c0-0.063,0.023-0.12,0.062-0.164v-0.531c-0.042-0.11-0.062-0.248-0.062-0.426
					c0-0.263,0.08-0.502,0.236-0.711c0.101-0.151,0.275-0.292,0.525-0.416c0.245-0.123,0.587-0.182,1.045-0.182
					c0.108,0,0.208,0.015,0.297,0.044c0.037,0.013,0.082,0.019,0.139,0.019c0.47,0.143,0.878,0.352,1.293,0.635
					c0.411,0.281,0.785,0.621,1.11,1.011c0.336,0.403,0.563,0.857,0.675,1.351c0.114,0.507,0.058,1.04-0.169,1.583
					c-0.1,0.158-0.167,0.274-0.225,0.39l-0.049,0.098c0.366-0.308,0.734-0.61,1.102-0.903c0.941-0.752,1.857-1.437,2.725-2.035
					c0.878-0.607,1.72-1.086,2.502-1.425c0.714-0.308,1.347-0.463,1.883-0.463c0.067,0,0.133,0.002,0.197,0.007
					c1.057,0.136,1.752,0.474,2.145,1.005c0.387,0.524,0.561,1.166,0.517,1.908c-0.046,0.717-0.285,1.514-0.712,2.37
					c-0.421,0.841-0.952,1.691-1.58,2.529c-0.088,0.092-0.135,0.152-0.163,0.21c-0.056,0.111-0.133,0.214-0.236,0.316
					c-0.055,0.091-0.142,0.212-0.228,0.32c-0.092,0.113-0.181,0.213-0.27,0.302l-0.808,1.102c-0.008,0.045-0.021,0.09-0.038,0.113
					c-0.861,1.189-1.526,2.197-1.979,2.998c-0.571,1.012-0.168,1.28-0.017,1.382c0.066,0.05,0.146,0.07,0.25,0.07l0,0
					c0.085,0,0.186-0.014,0.299-0.042c0.207-0.07,0.526-0.23,0.929-0.471c0.398-0.24,0.886-0.647,1.446-1.208
					c0.575-0.575,1.116-1.147,1.609-1.702c0.499-0.562,0.956-1.069,1.371-1.528c0.461-0.502,0.899-0.961,1.317-1.379
					c0.335-0.377,0.645-0.663,0.909-0.841c0.163-0.098,0.317-0.144,0.47-0.144c0.132,0,0.26,0.034,0.382,0.102
					c0.387,0.216,0.347,0.835,0.282,1.282c0.003,0.164-0.045,0.384-0.141,0.619c-0.084,0.211-0.201,0.468-0.35,0.765
					c-0.16,0.317-0.417,0.653-0.764,1c-0.323,0.364-0.763,0.834-1.304,1.396c-0.542,0.563-1.084,1.114-1.624,1.655l-2.305,2.305
					c-0.757,0.668-1.541,1.023-2.342,1.07c-0.066,0.003-0.132,0.005-0.196,0.005c-0.73,0-1.43-0.226-2.077-0.672
					c-0.604-0.389-1.196-1.044-1.753-1.943c-0.571-0.922-0.729-2.092-0.47-3.479l0.603-1.688c0.23-0.654,0.543-1.29,0.929-1.889
					c0.289-0.457,0.592-0.925,0.902-1.403c0.315-0.481,0.639-0.951,0.974-1.412c0.079-0.119,0.186-0.268,0.313-0.438
					c0.111-0.147,0.207-0.31,0.283-0.481c0.075-0.17,0.098-0.279,0.102-0.344c0,0-0.05-0.013-0.108-0.025
					c-0.098,0.001-0.429,0.082-1.42,0.826c-0.813,0.608-1.763,1.37-2.823,2.265c-1.063,0.897-2.151,1.859-3.231,2.857
					c-1.102,1.02-2.031,1.908-2.765,2.641c-0.069,0.205-0.189,0.55-0.311,0.954c-0.121,0.403-0.202,0.767-0.241,1.08
					c0.002,0.403,0.066,0.641,0.137,0.778h0.301c0.316,0.059,0.504,0.181,0.608,0.366c0.114,0.203,0.114,0.465,0.001,0.778h0.001
					c0.012,0-0.015,0.108-0.122,0.216l0,0c-0.033,0.161-0.136,0.285-0.296,0.354c-0.056,0.045-0.159,0.115-0.376,0.245
					c-0.251,0.215-0.632,0.36-1.1,0.409C145.325,38.275,145.216,38.279,145.11,38.279z"/>
				<path fill="#141A2C" d="M149.032,20.701c0.082,0,0.156,0.011,0.219,0.031c0.062,0.021,0.134,0.031,0.217,0.031
					c0.374,0.124,0.758,0.322,1.152,0.592s0.748,0.592,1.06,0.965c0.312,0.374,0.519,0.789,0.622,1.246s0.053,0.934-0.155,1.433
					c-0.083,0.124-0.155,0.249-0.218,0.374c-0.063,0.124-0.135,0.27-0.219,0.436c-0.083,0.125-0.176,0.26-0.279,0.404
					c-0.104,0.146-0.24,0.322-0.405,0.529V26.68c-0.167,0.249-0.291,0.415-0.374,0.498c0.873-0.788,1.775-1.558,2.71-2.305
					s1.837-1.422,2.71-2.024c0.871-0.602,1.691-1.068,2.46-1.401c0.685-0.295,1.279-0.443,1.783-0.443
					c0.061,0,0.12,0.002,0.179,0.006h0.063c0.912,0.125,1.547,0.427,1.899,0.904s0.509,1.059,0.468,1.744
					c-0.043,0.685-0.271,1.443-0.686,2.273c-0.416,0.83-0.935,1.66-1.557,2.491c-0.084,0.083-0.146,0.166-0.188,0.249
					c-0.042,0.084-0.104,0.166-0.188,0.249c-0.083,0.124-0.166,0.239-0.248,0.343c-0.084,0.104-0.167,0.197-0.25,0.28l-0.871,1.184
					v0.062c-0.873,1.205-1.537,2.212-1.994,3.021s-0.436,1.381,0.063,1.713c0.1,0.075,0.229,0.113,0.389,0.113
					c0.106,0,0.226-0.018,0.359-0.051c0.248-0.083,0.58-0.25,0.996-0.498c0.414-0.25,0.913-0.664,1.495-1.246
					c0.581-0.581,1.121-1.152,1.619-1.713c0.499-0.561,0.955-1.068,1.37-1.526c0.457-0.498,0.893-0.954,1.309-1.37
					c0.332-0.373,0.623-0.644,0.871-0.81c0.113-0.067,0.224-0.102,0.331-0.102c0.09,0,0.177,0.023,0.261,0.07
					c0.188,0.104,0.239,0.446,0.156,1.028c0,0.166-0.041,0.353-0.125,0.561c-0.083,0.207-0.197,0.457-0.342,0.747
					c-0.146,0.29-0.385,0.603-0.717,0.935c-0.332,0.373-0.769,0.84-1.308,1.4c-0.54,0.561-1.081,1.111-1.62,1.651
					s-1.027,1.027-1.463,1.464c-0.437,0.436-0.717,0.716-0.842,0.841c-0.706,0.622-1.432,0.954-2.18,0.997
					c-0.061,0.003-0.121,0.005-0.182,0.005c-0.68,0-1.325-0.208-1.936-0.628c-0.582-0.374-1.143-0.997-1.682-1.869
					c-0.541-0.872-0.686-1.972-0.437-3.301c0.165-0.457,0.362-1.007,0.592-1.65c0.228-0.645,0.529-1.256,0.903-1.838
					c0.29-0.457,0.592-0.924,0.902-1.402c0.313-0.477,0.633-0.943,0.966-1.4c0.083-0.125,0.187-0.27,0.312-0.437
					c0.125-0.165,0.229-0.343,0.312-0.529s0.124-0.343,0.124-0.468c0-0.124-0.104-0.207-0.311-0.248
					c-0.016-0.002-0.032-0.004-0.05-0.004c-0.269,0-0.791,0.291-1.569,0.875c-0.832,0.623-1.775,1.381-2.834,2.273
					c-1.06,0.895-2.14,1.849-3.24,2.865c-1.1,1.019-2.023,1.9-2.771,2.647c-0.125,0.291-0.249,0.645-0.373,1.06
					c-0.125,0.415-0.209,0.789-0.25,1.121c0,0.498,0.083,0.852,0.25,1.059h0.436c0.414,0.084,0.539,0.354,0.374,0.81
					c0,0.042-0.021,0.083-0.063,0.124c0,0.043-0.021,0.063-0.063,0.063c0,0.125-0.062,0.209-0.187,0.25
					c-0.042,0.041-0.166,0.124-0.374,0.248c-0.249,0.209-0.582,0.332-0.997,0.375c-0.105,0.008-0.209,0.012-0.309,0.012
					c-0.407,0-0.761-0.065-1.061-0.199h-0.063c-0.041,0-0.083-0.021-0.125-0.063c-0.332-0.125-0.498-0.228-0.498-0.312
					c-0.872-0.622-1.266-1.536-1.184-2.74c0-0.54,0.104-1.162,0.312-1.868c0.042-0.084,0.062-0.166,0.062-0.25
					c0.043,0,0.063-0.041,0.063-0.125c0.374-1.245,0.935-2.543,1.682-3.893c0.748-1.349,1.516-2.625,2.305-3.83
					c0.208-0.332,0.395-0.664,0.561-0.997c0.166-0.331,0.291-0.622,0.374-0.872h-0.062h0.062v-0.125V22.32v-0.187
					c-0.042-0.083-0.062-0.208-0.062-0.374c0-0.207,0.062-0.395,0.187-0.561c0.083-0.125,0.228-0.238,0.437-0.342
					C148.306,20.754,148.616,20.701,149.032,20.701 M149.032,20.201c-0.497,0-0.876,0.068-1.157,0.209
					c-0.289,0.144-0.496,0.312-0.63,0.513c-0.173,0.229-0.27,0.519-0.27,0.837c0,0.187,0.02,0.339,0.062,0.468v0.092v0.32
					c-0.039,0.071-0.062,0.153-0.062,0.24c0,0.023,0.002,0.045,0.005,0.067c-0.069,0.174-0.158,0.368-0.265,0.581
					c-0.159,0.319-0.34,0.64-0.537,0.956c-0.783,1.196-1.565,2.496-2.318,3.854c-0.758,1.369-1.336,2.707-1.719,3.977
					c-0.056,0.08-0.088,0.178-0.088,0.283c-0.014,0.026-0.033,0.08-0.041,0.108c-0.221,0.748-0.332,1.424-0.332,2.01
					c-0.09,1.301,0.341,2.342,1.282,3.065c0.146,0.217,0.428,0.341,0.646,0.425c0.123,0.087,0.243,0.116,0.338,0.123
					c0.34,0.133,0.73,0.2,1.164,0.2c0.111,0,0.227-0.004,0.346-0.013c0.514-0.054,0.93-0.209,1.248-0.464
					c0.178-0.106,0.281-0.176,0.347-0.226c0.175-0.084,0.305-0.224,0.372-0.395c0.028-0.036,0.052-0.076,0.07-0.119
					c0.056-0.085,0.084-0.168,0.098-0.241c0.119-0.361,0.107-0.674-0.037-0.931c-0.097-0.173-0.302-0.397-0.727-0.483
					c-0.033-0.007-0.066-0.01-0.1-0.01H146.6c-0.029-0.11-0.056-0.277-0.058-0.527c0.038-0.293,0.115-0.632,0.229-1.008
					c0.107-0.357,0.214-0.666,0.317-0.92c0.72-0.717,1.624-1.579,2.688-2.564c1.077-0.995,2.162-1.954,3.223-2.851
					c1.057-0.891,2.003-1.649,2.812-2.255c0.496-0.373,0.813-0.566,1.006-0.667c-0.061,0.121-0.131,0.234-0.21,0.339
					c-0.134,0.178-0.242,0.33-0.33,0.462c-0.312,0.428-0.632,0.892-0.967,1.402c-0.313,0.482-0.615,0.95-0.906,1.409
					c-0.395,0.613-0.716,1.267-0.953,1.939c-0.229,0.641-0.426,1.19-0.591,1.646c-0.009,0.025-0.016,0.052-0.021,0.078
					c-0.271,1.45-0.103,2.68,0.503,3.656c0.575,0.932,1.193,1.613,1.836,2.026c0.678,0.466,1.424,0.707,2.206,0.707
					c0.069,0,0.139-0.002,0.208-0.006c0.86-0.049,1.695-0.427,2.483-1.121l0.865-0.862l0.694-0.695l0.769-0.769
					c0.541-0.542,1.085-1.096,1.627-1.658c0.558-0.58,0.989-1.042,1.32-1.415c0.347-0.344,0.618-0.702,0.79-1.041
					c0.15-0.303,0.271-0.566,0.359-0.786c0.101-0.25,0.155-0.488,0.16-0.708c0.05-0.353,0.151-1.19-0.412-1.504
					c-0.16-0.089-0.329-0.134-0.504-0.134c-0.198,0-0.396,0.058-0.587,0.172c-0.309,0.206-0.625,0.498-0.988,0.907
					c-0.399,0.397-0.845,0.863-1.304,1.364c-0.418,0.461-0.875,0.97-1.375,1.532c-0.49,0.551-1.028,1.119-1.6,1.691
					c-0.547,0.547-1.018,0.94-1.4,1.172c-0.385,0.229-0.687,0.382-0.896,0.451c-0.057,0.013-0.137,0.025-0.201,0.025
					c-0.066,0-0.088-0.013-0.088-0.013c-0.122-0.083-0.385-0.258,0.072-1.067c0.447-0.792,1.107-1.793,1.964-2.975
					c0.037-0.051,0.063-0.108,0.079-0.169l0.768-1.044c0.086-0.087,0.171-0.185,0.258-0.29c0.084-0.106,0.166-0.22,0.248-0.341
					c0.105-0.109,0.186-0.223,0.246-0.343c0.01-0.021,0.034-0.06,0.092-0.117c0.018-0.018,0.034-0.036,0.049-0.056
					c0.637-0.851,1.176-1.714,1.604-2.567c0.442-0.887,0.69-1.716,0.737-2.466c0.048-0.803-0.142-1.5-0.564-2.072
					c-0.435-0.588-1.186-0.959-2.233-1.103c-0.023-0.003-0.046-0.005-0.068-0.005h-0.063c-0.033-0.004-0.105-0.006-0.179-0.006
					c-0.57,0-1.236,0.163-1.981,0.484c-0.798,0.346-1.654,0.833-2.546,1.449c-0.871,0.602-1.793,1.29-2.738,2.045
					c-0.093,0.075-0.187,0.15-0.28,0.226c0.105-0.427,0.113-0.847,0.021-1.253c-0.12-0.533-0.364-1.022-0.726-1.456
					c-0.341-0.408-0.731-0.764-1.161-1.058c-0.435-0.296-0.864-0.516-1.277-0.653c-0.051-0.017-0.104-0.025-0.157-0.025
					c-0.038,0-0.055-0.004-0.055-0.004C149.293,20.22,149.167,20.201,149.032,20.201L149.032,20.201z"/>
			</g>
			<g>
				<path fill="#FFF200" d="M168.22,38.185c-0.715,0-1.412-0.217-2.071-0.644c-0.296-0.17-0.637-0.433-1.001-0.776
					c-0.367-0.346-0.695-0.75-0.976-1.202c-0.279-0.451-0.518-0.972-0.709-1.547c-0.196-0.587-0.274-1.217-0.23-1.871
					c0.088-0.488,0.201-1.04,0.348-1.688c0.148-0.657,0.376-1.295,0.675-1.895c0.29-0.705,0.63-1.406,1.003-2.067
					c0.375-0.666,0.729-1.272,1.063-1.814c0.373-0.623,0.748-1.226,1.124-1.811c0.665-0.999,1.37-2.077,2.117-3.239
					c0.626-0.972,1.148-1.8,1.57-2.481c-1.93-0.014-3.53-0.119-4.763-0.313c-1.342-0.209-2.405-0.455-3.16-0.729
					c-0.792-0.286-1.313-0.571-1.594-0.874c-0.126-0.136-0.508-0.55-0.273-0.901c0.204-0.465,0.54-0.57,0.782-0.57
					c0.075,0,0.153,0.01,0.233,0.03c0.224,0.057,0.418,0.192,0.576,0.405c0.014,0.014,0.196,0.167,1.38,0.273
					c0.896,0.083,1.915,0.124,3.029,0.124c1.117,0,2.204-0.02,3.261-0.063c0.798-0.031,1.424-0.062,1.878-0.093
					c-0.241-0.464-0.416-0.902-0.522-1.307c-0.141-0.538-0.015-1.233,0.387-2.126c0.43-0.903,0.912-1.591,1.435-2.048
					c0.515-0.45,1.018-0.788,1.494-1.004c0.537-0.223,1.094-0.335,1.661-0.335c0.888,0.093,1.649,0.611,2.292,1.542
					c0.644,0.932,0.813,1.967,0.501,3.075c-0.017,0.06-0.054,0.109-0.103,0.141c-0.056,0.178-0.149,0.43-0.278,0.755
					c0,0-0.368,0.735-0.414,0.821c1.026-0.27,2.073-0.513,3.122-0.722c1.25-0.25,2.391-0.419,3.393-0.502
					c0.307-0.023,0.594-0.034,0.862-0.034c0.75,0,1.376,0.09,1.859,0.266c0.661,0.243,1.169,0.572,1.508,0.978
					c0.336,0.404,0.552,0.816,0.645,1.227c0.089,0.405,0.13,0.679,0.13,0.864c-0.046,0.551-0.132,0.981-0.265,1.334
					c-0.142,0.33-0.327,0.607-0.556,0.836c-0.15,0.15-0.336,0.229-0.536,0.229c-0.182,0-0.378-0.065-0.584-0.194
					c-0.227-0.111-0.619-0.298-1.155-0.545c-0.519-0.24-1.195-0.465-2.011-0.669c-0.821-0.205-1.78-0.338-2.85-0.398
					c-0.216-0.012-0.437-0.018-0.661-0.018c-0.896,0-1.88,0.099-2.924,0.294c-0.321,0.082-0.646,0.155-0.962,0.217
					c-0.308,0.062-0.626,0.134-0.953,0.215c-0.035,0.006-0.076,0.017-0.201,0.077c-0.696,1.063-1.441,2.188-2.238,3.371
					c-0.809,1.205-2.557,3.82-2.557,3.82l-1.833,2.75c-0.621,0.932-1.098,1.666-1.429,2.204l-0.679,1.234
					c-0.685,1.169-1.039,2.145-1.059,2.906c-0.02,0.721,0.196,1.21,0.659,1.494c0.098,0.048,0.215,0.075,0.341,0.075
					c0.086,0,0.177-0.013,0.27-0.04c0.216-0.071,0.51-0.229,0.864-0.466c0.351-0.233,0.75-0.635,1.188-1.192
					c0.456-0.581,0.903-1.143,1.341-1.685c0.434-0.535,0.813-1.03,1.145-1.484c0.421-0.507,0.791-0.979,1.121-1.434
					c0.31-0.397,0.602-0.688,0.873-0.869c0.161-0.098,0.313-0.144,0.459-0.144c0.132,0,0.257,0.036,0.372,0.108
					c0.247,0.153,0.379,0.53,0.429,1.222c0.043,0.159,0.044,0.384-0.004,0.627c-0.046,0.229-0.135,0.497-0.265,0.797
					c-0.135,0.315-0.358,0.652-0.664,1.001c-0.283,0.363-0.657,0.832-1.116,1.395c-0.458,0.562-0.915,1.113-1.372,1.654
					c-0.457,0.538-0.86,1.024-1.211,1.459c-0.362,0.446-0.607,0.734-0.735,0.861c-0.616,0.66-1.352,1.032-2.18,1.1
					C168.417,38.18,168.318,38.185,168.22,38.185z M175.162,10.566c-0.168,0.142-0.339,0.339-0.512,0.591
					c-0.228,0.329-0.365,0.677-0.415,1.049c0.162-0.267,0.292-0.493,0.392-0.684c0.19-0.359,0.349-0.642,0.475-0.853
					C175.123,10.633,175.144,10.599,175.162,10.566z"/>
				<path fill="#141A2C" d="M176.937,7.869c0.787,0.084,1.483,0.561,2.086,1.434c0.602,0.871,0.758,1.828,0.467,2.865h-0.063
					c-0.041,0.166-0.146,0.457-0.311,0.871c-0.084,0.167-0.178,0.354-0.281,0.561c-0.104,0.209-0.238,0.458-0.404,0.748
					c1.204-0.332,2.43-0.623,3.675-0.872c1.246-0.249,2.367-0.415,3.364-0.498c0.298-0.022,0.579-0.033,0.842-0.033
					c0.726,0,1.316,0.084,1.773,0.251c0.623,0.229,1.09,0.529,1.402,0.903c0.311,0.374,0.508,0.747,0.592,1.121
					c0.082,0.374,0.124,0.644,0.124,0.81c-0.042,0.498-0.124,0.914-0.249,1.246c-0.125,0.291-0.291,0.54-0.498,0.747
					c-0.104,0.104-0.225,0.156-0.359,0.156s-0.285-0.052-0.451-0.156c-0.249-0.124-0.645-0.312-1.184-0.561
					s-1.225-0.477-2.055-0.685c-0.832-0.207-1.797-0.344-2.896-0.405c-0.221-0.013-0.445-0.019-0.675-0.019
					c-0.917,0-1.906,0.1-2.97,0.299c-0.332,0.084-0.653,0.156-0.965,0.218c-0.312,0.063-0.634,0.136-0.965,0.218
					c-0.043,0-0.146,0.043-0.313,0.125c-0.706,1.08-1.463,2.223-2.273,3.426c-0.81,1.205-1.588,2.367-2.336,3.488
					c-0.747,1.121-1.432,2.148-2.055,3.083s-1.102,1.672-1.434,2.212l-0.685,1.245c-0.706,1.205-1.069,2.211-1.09,3.021
					c-0.021,0.811,0.238,1.381,0.778,1.713c0.15,0.075,0.308,0.113,0.472,0.113c0.109,0,0.223-0.018,0.339-0.051
					c0.248-0.082,0.561-0.249,0.934-0.498c0.374-0.249,0.789-0.664,1.246-1.246c0.456-0.58,0.902-1.141,1.339-1.682
					c0.437-0.539,0.819-1.037,1.152-1.494c0.415-0.499,0.788-0.976,1.121-1.434c0.29-0.373,0.561-0.643,0.81-0.809
					c0.113-0.068,0.22-0.102,0.32-0.102c0.085,0,0.165,0.023,0.24,0.07c0.166,0.104,0.27,0.446,0.312,1.027
					c0.041,0.166,0.041,0.354,0,0.561c-0.042,0.208-0.124,0.457-0.249,0.747c-0.125,0.291-0.332,0.603-0.623,0.935
					c-0.291,0.373-0.664,0.841-1.121,1.401s-0.914,1.111-1.37,1.651c-0.458,0.539-0.862,1.027-1.214,1.463
					c-0.354,0.436-0.592,0.717-0.717,0.841c-0.582,0.623-1.257,0.966-2.024,1.028c-0.093,0.008-0.185,0.012-0.276,0.012
					c-0.669,0-1.314-0.201-1.936-0.604c-0.289-0.166-0.611-0.415-0.965-0.748c-0.353-0.332-0.664-0.716-0.935-1.152
					c-0.27-0.436-0.498-0.934-0.685-1.494c-0.188-0.561-0.26-1.152-0.219-1.775c0.084-0.457,0.197-1.006,0.343-1.65
					c0.146-0.644,0.364-1.256,0.654-1.838c0.291-0.705,0.622-1.391,0.997-2.056c0.373-0.663,0.726-1.267,1.059-1.806
					c0.373-0.623,0.747-1.225,1.121-1.807c0.664-0.996,1.37-2.076,2.117-3.239c0.748-1.162,1.35-2.118,1.807-2.865
					c-2.117,0-3.842-0.103-5.17-0.312c-1.328-0.207-2.367-0.445-3.114-0.717c-0.747-0.27-1.245-0.539-1.495-0.809
					c-0.249-0.27-0.332-0.468-0.249-0.592c0.137-0.306,0.327-0.459,0.574-0.459c0.055,0,0.112,0.007,0.173,0.022
					c0.167,0.042,0.313,0.146,0.437,0.312s0.644,0.291,1.558,0.373c0.914,0.084,1.931,0.125,3.052,0.125s2.211-0.02,3.271-0.063
					c1.059-0.041,1.815-0.082,2.273-0.124c-0.334-0.581-0.561-1.11-0.686-1.589c-0.125-0.477,0-1.131,0.373-1.961
					c0.415-0.873,0.873-1.527,1.371-1.963s0.975-0.757,1.433-0.965C175.877,7.974,176.396,7.869,176.937,7.869 M175.69,10.05
					c-0.416,0.042-0.832,0.364-1.246,0.966c-0.416,0.602-0.561,1.276-0.436,2.023c0.373-0.58,0.654-1.047,0.84-1.4
					c0.188-0.354,0.344-0.633,0.468-0.842c0.124-0.207,0.208-0.363,0.249-0.467S175.648,10.134,175.69,10.05 M176.937,7.369
					c-0.601,0-1.189,0.118-1.75,0.351c-0.514,0.233-1.037,0.584-1.569,1.05c-0.549,0.48-1.052,1.195-1.493,2.125
					c-0.431,0.957-0.562,1.707-0.405,2.303c0.084,0.321,0.209,0.661,0.374,1.017c-0.402,0.023-0.903,0.046-1.498,0.069
					c-1.017,0.041-2.11,0.062-3.251,0.062c-1.107,0-2.118-0.042-3.006-0.123c-0.888-0.08-1.164-0.182-1.234-0.215
					c-0.188-0.236-0.418-0.389-0.684-0.456c-0.101-0.025-0.199-0.038-0.295-0.038c-0.255,0-0.722,0.095-1.017,0.723
					c-0.193,0.333-0.084,0.725,0.324,1.167c0.309,0.333,0.862,0.64,1.692,0.939c0.78,0.284,1.829,0.526,3.207,0.741
					c1.148,0.181,2.609,0.285,4.354,0.311c-0.387,0.619-0.833,1.323-1.335,2.101c-0.745,1.161-1.45,2.238-2.112,3.232
					c-0.391,0.607-0.771,1.219-1.134,1.827c-0.322,0.521-0.672,1.118-1.065,1.817c-0.378,0.67-0.723,1.38-1.023,2.11
					c-0.293,0.585-0.527,1.241-0.68,1.918c-0.143,0.631-0.26,1.192-0.348,1.67c-0.003,0.02-0.006,0.039-0.007,0.058
					c-0.045,0.688,0.037,1.349,0.243,1.967c0.197,0.594,0.444,1.132,0.734,1.599c0.291,0.472,0.634,0.893,1.017,1.254
					c0.378,0.356,0.734,0.631,1.059,0.817c0.678,0.439,1.421,0.67,2.185,0.67c0.105,0,0.211-0.005,0.316-0.014
					c0.893-0.072,1.683-0.471,2.35-1.186c0.122-0.12,0.354-0.392,0.74-0.866c0.35-0.434,0.751-0.919,1.206-1.454
					c0.459-0.544,0.918-1.097,1.377-1.659c0.46-0.564,0.835-1.035,1.128-1.41c0.305-0.347,0.542-0.705,0.688-1.045
					c0.137-0.315,0.23-0.601,0.28-0.846c0.052-0.263,0.054-0.509,0.006-0.734c-0.06-0.764-0.223-1.177-0.543-1.376
					c-0.156-0.098-0.325-0.146-0.505-0.146c-0.192,0-0.388,0.059-0.579,0.174c-0.316,0.211-0.62,0.511-0.945,0.93
					c-0.332,0.455-0.702,0.93-1.111,1.421c-0.357,0.489-0.74,0.984-1.156,1.499c-0.438,0.543-0.886,1.105-1.343,1.688
					c-0.423,0.537-0.803,0.92-1.131,1.139c-0.418,0.279-0.673,0.393-0.813,0.439c-0.052,0.015-0.119,0.025-0.182,0.025
					c-0.086,0-0.167-0.021-0.248-0.061c-0.204-0.128-0.524-0.422-0.502-1.252c0.019-0.721,0.361-1.655,1.021-2.781l0.691-1.257
					c0.312-0.507,0.777-1.225,1.411-2.176l1.833-2.75l0.222-0.333c0.748-1.121,1.525-2.282,2.335-3.487
					c0.782-1.162,1.516-2.267,2.201-3.314c0.019-0.009,0.036-0.016,0.051-0.022c0.013-0.002,0.026-0.005,0.039-0.008
					c0.323-0.08,0.639-0.152,0.943-0.213c0.318-0.063,0.647-0.137,0.989-0.223c0.998-0.186,1.966-0.284,2.847-0.284
					c0.22,0,0.436,0.006,0.646,0.018c1.055,0.059,1.998,0.191,2.804,0.392c0.8,0.2,1.462,0.42,1.966,0.653
					c0.533,0.246,0.925,0.431,1.171,0.554c0.203,0.13,0.444,0.208,0.674,0.208c0.268,0,0.514-0.104,0.712-0.302
					c0.252-0.252,0.455-0.556,0.604-0.904c0.15-0.396,0.241-0.848,0.288-1.401c0.002-0.246-0.041-0.537-0.134-0.958
					c-0.102-0.452-0.335-0.899-0.695-1.333c-0.369-0.441-0.912-0.795-1.615-1.053c-0.519-0.189-1.154-0.282-1.945-0.282
					c-0.274,0-0.567,0.012-0.879,0.035c-1.015,0.084-2.166,0.254-3.425,0.506c-0.871,0.174-1.741,0.371-2.6,0.587l0.154-0.309
					c0.131-0.323,0.221-0.563,0.28-0.742c0.06-0.059,0.104-0.134,0.128-0.218c0.332-1.183,0.151-2.288-0.537-3.285
					c-0.685-0.993-1.507-1.547-2.444-1.646C176.972,7.37,176.954,7.369,176.937,7.369L176.937,7.369z"/>
			</g>
			<g>
				<path fill="#FFF200" d="M176.8,38.751c-0.45,0-0.89-0.134-1.306-0.398c-0.91-0.649-1.596-1.401-2.048-2.242
					c-0.449-0.831-0.721-1.733-0.808-2.68c-0.085-0.936-0.01-1.886,0.225-2.824c0.233-0.933,0.588-1.813,1.054-2.618
					c0.424-0.763,1.057-1.584,1.934-2.508c0.862-0.904,1.85-1.742,2.936-2.494l0.379-0.252c0.078-0.085,0.197-0.157,0.325-0.19
					c0.034-0.008,0.104-0.033,0.234-0.121c1.102-0.677,2.504-1.273,4.178-1.776c1.016-0.305,2.083-0.459,3.174-0.459
					c0.726,0,1.478,0.068,2.236,0.203c0.537,0.134,1.021,0.332,1.455,0.592c0.368,0.231,0.697,0.571,0.984,1.013
					c0.292,0.45,0.463,1.035,0.507,1.74c-0.044,0.345-0.075,0.554-0.096,0.68c-0.025,0.148-0.083,0.314-0.178,0.506
					c-0.13,0.215-0.258,0.358-0.394,0.44c-0.022,0.048-0.055,0.089-0.093,0.108c-0.158,0.079-0.287,0.126-0.395,0.144
					c0.316,0.244,0.55,0.523,0.695,0.836c0.319,0.683,0.303,1.354-0.05,1.996c-0.011,0.045-0.028,0.092-0.052,0.136
					c-0.007,0.085-0.04,0.151-0.086,0.197c-0.012,0.025-0.027,0.049-0.048,0.069l-0.004-0.003c-0.013,0.052-0.032,0.103-0.059,0.129
					c-0.12,0.119-0.161,0.188-0.189,0.274c-0.045,0.138-0.113,0.26-0.201,0.361c-0.013,0.029-0.029,0.059-0.049,0.084
					c-0.013,0.046-0.036,0.091-0.066,0.129c-0.012,0.031-0.03,0.06-0.055,0.084l-0.01-0.005c-0.014,0.039-0.034,0.076-0.06,0.108
					c-0.005,0.013-0.011,0.025-0.019,0.037c-0.372,0.621-0.725,1.221-1.055,1.802c-0.321,0.558-0.577,1.1-0.762,1.611
					c-0.177,0.488-0.266,0.91-0.266,1.254c0,0.383,0.149,0.526,0.263,0.602c0.076,0.046,0.178,0.07,0.302,0.07
					c0.092,0,0.195-0.014,0.308-0.042c0.207-0.069,0.514-0.229,0.895-0.468c0.368-0.233,0.798-0.655,1.276-1.253
					c0.503-0.587,0.98-1.147,1.438-1.687c0.456-0.538,0.869-1.035,1.243-1.492c0.461-0.505,0.874-0.979,1.246-1.433
					c0.297-0.384,0.589-0.675,0.862-0.858c0.163-0.099,0.313-0.145,0.461-0.145c0.131,0,0.255,0.036,0.371,0.107
					c0.255,0.161,0.368,0.543,0.368,1.241c0,0.225-0.023,0.447-0.067,0.672c-0.097,0.251-0.19,0.488-0.293,0.757
					c-0.115,0.3-0.323,0.62-0.637,0.979l-1.246,1.402c-0.501,0.563-1,1.114-1.499,1.654c-0.496,0.537-0.93,1.023-1.302,1.457
					c-0.38,0.442-0.634,0.729-0.76,0.854c-0.663,0.663-1.418,1.033-2.243,1.101c-0.099,0.008-0.196,0.012-0.294,0.012
					c-0.718,0-1.415-0.216-2.074-0.643c-0.396-0.265-0.805-0.599-1.221-0.995c-0.434-0.412-0.807-0.928-1.109-1.533
					c-0.303-0.604-0.489-1.284-0.555-2.021c-0.028-0.32-0.019-0.657,0.03-1.01c-0.884,1.277-1.76,2.416-2.613,3.395
					c-0.512,0.554-1.03,1.072-1.546,1.546c-0.531,0.489-1.082,0.889-1.638,1.188c-0.57,0.305-1.124,0.492-1.646,0.558
					C176.993,38.745,176.896,38.751,176.8,38.751z M182.07,26.867c-0.555,0.441-1.153,0.982-1.781,1.61
					c-0.604,0.685-1.238,1.465-1.877,2.309c-0.635,0.841-1.163,1.647-1.568,2.397c-0.399,0.74-0.642,1.394-0.719,1.941
					c-0.085,0.59,0.198,0.764,0.454,0.849c0.026,0.008,0.066,0.014,0.109,0.014c0.247,0,0.738-0.163,1.677-0.936
					c0.927-0.762,1.903-1.687,2.905-2.75c1.005-1.066,1.986-2.173,2.917-3.29c0.932-1.118,1.626-1.967,2.082-2.548
					c0.024-0.031,0.056-0.056,0.091-0.072c0.025-0.024,0.056-0.045,0.092-0.06c0.372-0.443,0.811-0.846,1.303-1.194
					c0.355-0.252,0.738-0.379,1.136-0.379c0.231,0,0.471,0.043,0.712,0.129c0.221,0.068,0.427,0.143,0.617,0.224
					c-0.028-0.106-0.038-0.237-0.015-0.396l-0.003-0.339c-0.037-0.2-0.182-0.531-0.963-0.624c-0.1-0.021-0.193-0.029-0.305-0.029
					c-0.368,0-0.904,0.091-1.595,0.271c-0.924,0.241-2.054,0.776-3.356,1.59c-0.258,0.129-0.486,0.269-0.702,0.426
					c-0.232,0.168-0.474,0.337-0.727,0.505c-0.069,0.076-0.145,0.137-0.213,0.171h0.001c0,0-0.036,0.021-0.121,0.107
					C182.181,26.835,182.127,26.86,182.07,26.867z"/>
				<path fill="#141A2C" d="M187.076,20.439c0.714,0,1.445,0.066,2.192,0.199c0.498,0.125,0.955,0.312,1.371,0.561
					c0.332,0.209,0.633,0.52,0.902,0.935s0.426,0.956,0.468,1.619c-0.042,0.291-0.073,0.499-0.094,0.623s-0.073,0.271-0.155,0.437
					c-0.125,0.207-0.25,0.332-0.374,0.373v0.063c-0.167,0.084-0.291,0.125-0.374,0.125c-0.124,0-0.229-0.021-0.311-0.063
					c-0.209-0.083-0.291-0.27-0.25-0.561v-0.374c-0.084-0.499-0.478-0.788-1.184-0.872c-0.093-0.021-0.204-0.031-0.334-0.031
					c-0.389,0-0.942,0.093-1.658,0.28c-0.956,0.249-2.098,0.79-3.426,1.62c-0.25,0.124-0.489,0.27-0.717,0.436
					c-0.229,0.166-0.467,0.333-0.717,0.498c-0.084,0.084-0.146,0.136-0.187,0.156c-0.042,0.021-0.104,0.072-0.187,0.155h-0.063
					c-0.582,0.458-1.205,1.019-1.869,1.683c-0.623,0.706-1.256,1.484-1.899,2.335c-0.644,0.852-1.174,1.661-1.589,2.429
					c-0.415,0.77-0.664,1.443-0.746,2.025c-0.084,0.582,0.124,0.955,0.622,1.121c0.058,0.018,0.121,0.026,0.188,0.026
					c0.42,0,1.032-0.331,1.836-0.992c0.935-0.769,1.91-1.691,2.928-2.772c1.017-1.078,1.993-2.18,2.928-3.301
					c0.934-1.121,1.629-1.972,2.086-2.554c0.041,0,0.063-0.01,0.063-0.031c0-0.021,0.021-0.03,0.063-0.03
					c0.373-0.457,0.81-0.861,1.309-1.215c0.314-0.223,0.645-0.334,0.991-0.334c0.204,0,0.413,0.039,0.628,0.115
					c1.079,0.333,1.764,0.811,2.055,1.434c0.291,0.622,0.27,1.225-0.063,1.806v0.063v0.062c-0.041,0-0.062,0.021-0.062,0.063
					c0,0.042-0.011,0.063-0.031,0.063c-0.021,0-0.031,0.021-0.031,0.063l-0.062,0.063v0.063l-0.063,0.063
					c-0.084,0.083-0.146,0.186-0.188,0.311s-0.104,0.229-0.187,0.312v0.063c-0.042,0-0.063,0.021-0.063,0.062v0.063
					c-0.042,0-0.063,0.021-0.063,0.063l-0.062,0.063v0.063c-0.043,0-0.063,0.021-0.063,0.063c-0.374,0.623-0.728,1.225-1.059,1.807
					c-0.334,0.581-0.592,1.131-0.779,1.65s-0.28,0.965-0.28,1.339s0.124,0.644,0.374,0.81c0.124,0.075,0.271,0.113,0.44,0.113
					c0.113,0,0.236-0.018,0.369-0.051c0.249-0.083,0.57-0.25,0.966-0.498c0.394-0.25,0.84-0.686,1.339-1.309
					c0.498-0.581,0.976-1.142,1.433-1.682c0.457-0.539,0.871-1.037,1.246-1.495c0.455-0.498,0.871-0.976,1.246-1.433
					c0.289-0.373,0.561-0.643,0.809-0.81c0.113-0.067,0.22-0.102,0.321-0.102c0.084,0,0.164,0.023,0.239,0.07
					c0.166,0.104,0.25,0.446,0.25,1.028c0,0.208-0.021,0.415-0.063,0.623c-0.084,0.207-0.178,0.446-0.281,0.716
					c-0.104,0.271-0.301,0.571-0.592,0.903c-0.332,0.373-0.746,0.841-1.244,1.401c-0.5,0.561-0.998,1.111-1.496,1.65
					c-0.498,0.54-0.934,1.028-1.308,1.464s-0.623,0.717-0.747,0.841c-0.623,0.623-1.319,0.966-2.087,1.028
					c-0.092,0.008-0.183,0.011-0.273,0.011c-0.671,0-1.316-0.2-1.938-0.603c-0.373-0.25-0.769-0.57-1.184-0.966
					c-0.415-0.395-0.768-0.882-1.059-1.464c-0.291-0.581-0.467-1.225-0.529-1.932c-0.063-0.705,0.072-1.494,0.405-2.366
					c-1.163,1.786-2.305,3.323-3.426,4.609c-0.499,0.54-1.007,1.049-1.526,1.526s-1.049,0.861-1.588,1.152
					c-0.541,0.289-1.059,0.467-1.558,0.529c-0.088,0.011-0.175,0.017-0.261,0.017c-0.405,0-0.795-0.12-1.172-0.359
					c-0.872-0.623-1.525-1.339-1.962-2.149c-0.437-0.81-0.694-1.671-0.778-2.584c-0.083-0.914-0.01-1.827,0.218-2.741
					c0.229-0.913,0.571-1.765,1.028-2.554c0.415-0.748,1.049-1.566,1.898-2.461c0.852-0.893,1.816-1.713,2.896-2.46l0.375-0.249
					c0.082-0.082,0.164-0.135,0.248-0.156c0.083-0.02,0.188-0.071,0.313-0.155c1.078-0.663,2.449-1.245,4.11-1.744
					C184.971,20.589,186.005,20.439,187.076,20.439 M187.076,19.939c-1.115,0-2.207,0.158-3.245,0.469
					c-1.695,0.509-3.117,1.114-4.229,1.797c-0.121,0.081-0.166,0.094-0.168,0.095c-0.161,0.041-0.309,0.125-0.444,0.25l-0.338,0.225
					c-1.108,0.766-2.108,1.616-2.981,2.532c-0.894,0.939-1.539,1.778-1.975,2.563c-0.474,0.817-0.837,1.72-1.076,2.675
					c-0.24,0.966-0.317,1.944-0.23,2.907c0.09,0.98,0.371,1.915,0.836,2.776c0.471,0.874,1.182,1.654,2.111,2.319
					c0.48,0.305,0.965,0.452,1.463,0.452c0.106,0,0.215-0.007,0.323-0.021c0.552-0.069,1.135-0.266,1.73-0.584
					c0.576-0.312,1.145-0.723,1.69-1.226c0.521-0.479,1.044-1.002,1.556-1.556c0.705-0.809,1.421-1.719,2.143-2.723
					c0.003,0.063,0.007,0.124,0.013,0.185c0.068,0.768,0.263,1.479,0.58,2.111c0.315,0.631,0.706,1.17,1.161,1.603
					c0.426,0.405,0.846,0.748,1.25,1.019c0.707,0.458,1.45,0.688,2.217,0.688c0.104,0,0.208-0.004,0.313-0.013
					c0.887-0.072,1.694-0.467,2.4-1.173c0.132-0.132,0.37-0.399,0.772-0.868c0.377-0.439,0.813-0.928,1.296-1.451
					c0.5-0.541,1-1.094,1.502-1.656l0.631-0.711l0.613-0.691c0.337-0.383,0.56-0.728,0.686-1.057
					c0.103-0.266,0.195-0.502,0.277-0.707c0.013-0.029,0.021-0.06,0.027-0.091c0.048-0.242,0.072-0.484,0.072-0.72
					c0-0.804-0.145-1.238-0.483-1.451c-0.159-0.099-0.328-0.147-0.506-0.147c-0.193,0-0.388,0.059-0.578,0.173
					c-0.318,0.213-0.629,0.521-0.947,0.932c-0.353,0.431-0.767,0.906-1.22,1.402c-0.391,0.477-0.804,0.972-1.259,1.509
					c-0.456,0.539-0.933,1.1-1.431,1.68c-0.472,0.589-0.881,0.992-1.228,1.212c-0.361,0.227-0.649,0.377-0.855,0.445
					c-0.057,0.013-0.14,0.024-0.211,0.024c-0.077,0-0.137-0.013-0.182-0.04c-0.027-0.019-0.133-0.089-0.133-0.382
					c0-0.315,0.084-0.708,0.251-1.169c0.18-0.498,0.429-1.026,0.742-1.571c0.321-0.564,0.663-1.146,1.023-1.748
					c0.059-0.053,0.104-0.12,0.133-0.195c0.058-0.056,0.103-0.124,0.129-0.202c0.029-0.042,0.053-0.09,0.068-0.141
					c0.077-0.107,0.139-0.229,0.182-0.361c0.021-0.063,0.047-0.094,0.064-0.111l0.064-0.064c0.056-0.056,0.098-0.124,0.121-0.197
					c0.006-0.009,0.012-0.018,0.018-0.026c0.03-0.036,0.058-0.077,0.079-0.124c0.071-0.086,0.114-0.196,0.114-0.316
					c0.347-0.685,0.353-1.423,0.016-2.144c-0.107-0.229-0.255-0.441-0.443-0.636c0.01-0.005,0.019-0.01,0.028-0.015
					c0.081-0.04,0.147-0.101,0.194-0.174c0.138-0.104,0.265-0.253,0.383-0.449c0.127-0.252,0.192-0.441,0.221-0.614
					c0.021-0.126,0.053-0.337,0.096-0.633c0.005-0.034,0.006-0.068,0.004-0.103c-0.048-0.748-0.231-1.374-0.548-1.86
					c-0.307-0.473-0.661-0.838-1.055-1.085c-0.465-0.278-0.972-0.486-1.516-0.622C188.583,20.009,187.816,19.939,187.076,19.939
					L187.076,19.939z M182.733,26.697c0.241-0.161,0.473-0.323,0.694-0.484c0.205-0.149,0.422-0.281,0.646-0.392
					c1.324-0.825,2.43-1.35,3.329-1.584c0.67-0.175,1.186-0.264,1.532-0.264c0.116,0,0.188,0.01,0.227,0.019
					c0.662,0.081,0.764,0.304,0.791,0.43v0.296c-0.001,0.007-0.002,0.014-0.002,0.021c-0.092-0.033-0.187-0.064-0.284-0.094
					c-0.248-0.089-0.516-0.137-0.775-0.137c-0.45,0-0.881,0.143-1.28,0.425c-0.494,0.351-0.936,0.752-1.313,1.195
					c-0.03,0.017-0.058,0.036-0.083,0.058c-0.054,0.031-0.102,0.072-0.142,0.123c-0.449,0.572-1.128,1.403-2.076,2.542
					c-0.929,1.113-1.906,2.217-2.907,3.278c-0.995,1.056-1.964,1.975-2.882,2.729c-0.963,0.792-1.383,0.878-1.519,0.878
					c-0.223-0.064-0.377-0.152-0.315-0.576c0.073-0.52,0.306-1.145,0.691-1.859c0.398-0.738,0.92-1.534,1.547-2.364
					c0.636-0.839,1.267-1.615,1.876-2.306c0.583-0.582,1.158-1.104,1.692-1.532c0.082-0.023,0.158-0.067,0.22-0.13
					c0.033-0.034,0.06-0.06,0.081-0.075C182.541,26.866,182.624,26.802,182.733,26.697L182.733,26.697z"/>
			</g>
			<g>
				<path fill="#FFF200" d="M197.058,38.279c-0.421,0-0.797-0.067-1.117-0.201c-0.096-0.005-0.182-0.028-0.263-0.094
					c-0.291-0.112-0.496-0.222-0.577-0.373c-0.899-0.672-1.31-1.651-1.222-2.913c-0.001-0.543,0.106-1.195,0.319-1.921
					c0.042-0.09,0.053-0.134,0.053-0.18c0-0.074,0.033-0.142,0.085-0.188c0.387-1.318,0.952-2.619,1.69-3.951
					c0.75-1.353,1.528-2.646,2.314-3.846c0.199-0.321,0.383-0.646,0.546-0.972c0.125-0.25,0.226-0.475,0.3-0.672
					c-0.01-0.027-0.016-0.057-0.016-0.088c0-0.063,0.023-0.121,0.063-0.166v-0.531c-0.042-0.112-0.063-0.251-0.063-0.425
					c0-0.262,0.08-0.501,0.237-0.711c0.102-0.151,0.275-0.291,0.524-0.415c0.248-0.123,0.59-0.183,1.047-0.183
					c0.107,0,0.206,0.015,0.295,0.044c0.037,0.013,0.084,0.019,0.141,0.019c0.471,0.143,0.879,0.353,1.293,0.635
					c0.412,0.282,0.786,0.622,1.11,1.011c0.335,0.402,0.563,0.856,0.675,1.351c0.114,0.505,0.057,1.038-0.17,1.583
					c-0.101,0.159-0.166,0.274-0.224,0.39l-0.049,0.097c0.363-0.305,0.73-0.606,1.101-0.902c0.94-0.75,1.856-1.435,2.723-2.035
					c0.885-0.61,1.728-1.089,2.504-1.425c0.714-0.308,1.347-0.463,1.884-0.463c0.067,0,0.133,0.002,0.197,0.007
					c1.056,0.136,1.751,0.473,2.145,1.005c0.387,0.525,0.56,1.167,0.516,1.908c-0.043,0.712-0.282,1.509-0.712,2.37
					c-0.422,0.842-0.954,1.692-1.581,2.53c-0.087,0.09-0.134,0.152-0.161,0.209c-0.057,0.109-0.132,0.211-0.234,0.314
					c-0.059,0.095-0.146,0.216-0.233,0.324c-0.087,0.109-0.177,0.21-0.265,0.299l-0.811,1.104c-0.008,0.044-0.021,0.089-0.038,0.112
					c-0.862,1.193-1.527,2.202-1.977,2.998c-0.571,1.012-0.168,1.28-0.017,1.382c0.066,0.05,0.146,0.07,0.25,0.07l0,0
					c0.085,0,0.186-0.014,0.299-0.042c0.207-0.07,0.526-0.23,0.929-0.471c0.396-0.239,0.884-0.646,1.445-1.208
					c0.564-0.563,1.106-1.137,1.61-1.702c0.498-0.562,0.956-1.069,1.37-1.528c0.461-0.502,0.899-0.961,1.317-1.379
					c0.341-0.384,0.643-0.662,0.911-0.841c0.162-0.098,0.316-0.144,0.469-0.144c0.131,0,0.26,0.034,0.382,0.101
					c0.388,0.219,0.346,0.837,0.281,1.284c0.003,0.16-0.044,0.38-0.138,0.616c-0.087,0.214-0.204,0.47-0.353,0.767
					c-0.16,0.317-0.417,0.653-0.764,1c-0.323,0.364-0.762,0.834-1.303,1.396c-0.543,0.563-1.083,1.114-1.623,1.655l-2.306,2.305
					c-0.758,0.668-1.542,1.024-2.342,1.07c-0.066,0.003-0.132,0.005-0.196,0.005c-0.732,0-1.432-0.227-2.077-0.672
					c-0.604-0.388-1.195-1.043-1.755-1.943c-0.569-0.922-0.728-2.092-0.469-3.479c0.177-0.496,0.374-1.045,0.603-1.688
					c0.233-0.658,0.546-1.295,0.93-1.89c0.288-0.456,0.592-0.924,0.902-1.402c0.315-0.481,0.638-0.951,0.973-1.411
					c0.081-0.121,0.187-0.269,0.314-0.439c0.109-0.145,0.201-0.302,0.283-0.482c0.075-0.169,0.098-0.278,0.102-0.343
					c0,0-0.05-0.013-0.108-0.025c-0.077,0.001-0.402,0.061-1.422,0.826c-0.811,0.608-1.761,1.37-2.823,2.265
					c-1.07,0.904-2.157,1.866-3.229,2.857c-1.077,0.995-2.007,1.884-2.765,2.641c-0.068,0.205-0.19,0.55-0.311,0.954
					c-0.121,0.403-0.202,0.767-0.241,1.08c0.002,0.404,0.066,0.642,0.137,0.778h0.301c0.316,0.06,0.505,0.181,0.608,0.366
					c0.114,0.203,0.113,0.465,0,0.779c0-0.001,0.001-0.001,0.001-0.001c0.012,0-0.015,0.108-0.122,0.216l0,0
					c-0.033,0.161-0.136,0.285-0.296,0.354c-0.055,0.044-0.157,0.114-0.375,0.245c-0.251,0.215-0.632,0.36-1.1,0.409
					C197.272,38.275,197.163,38.279,197.058,38.279z"/>
				<path fill="#141A2C" d="M200.979,20.701c0.082,0,0.154,0.011,0.217,0.031c0.063,0.021,0.135,0.031,0.219,0.031
					c0.373,0.124,0.758,0.322,1.152,0.592s0.748,0.592,1.059,0.965c0.313,0.374,0.52,0.789,0.623,1.246s0.051,0.934-0.156,1.433
					c-0.084,0.124-0.154,0.249-0.217,0.374c-0.063,0.124-0.137,0.27-0.219,0.436c-0.084,0.125-0.178,0.26-0.279,0.404
					c-0.105,0.146-0.24,0.322-0.406,0.529V26.68c-0.166,0.249-0.291,0.415-0.373,0.498c0.871-0.788,1.775-1.558,2.709-2.305
					c0.936-0.747,1.838-1.422,2.709-2.024c0.873-0.602,1.691-1.068,2.461-1.401c0.685-0.295,1.279-0.443,1.784-0.443
					c0.061,0,0.12,0.002,0.179,0.006h0.063c0.912,0.125,1.546,0.427,1.899,0.904c0.352,0.478,0.508,1.059,0.467,1.744
					c-0.041,0.685-0.271,1.443-0.686,2.273c-0.416,0.83-0.935,1.66-1.558,2.491c-0.082,0.083-0.145,0.166-0.186,0.249
					c-0.043,0.084-0.105,0.166-0.188,0.249c-0.084,0.124-0.166,0.239-0.25,0.343c-0.082,0.104-0.166,0.197-0.248,0.28l-0.873,1.184
					v0.062c-0.871,1.205-1.535,2.212-1.992,3.021s-0.436,1.381,0.063,1.713c0.1,0.075,0.229,0.113,0.389,0.113
					c0.106,0,0.226-0.018,0.359-0.051c0.248-0.083,0.58-0.25,0.996-0.498c0.414-0.25,0.912-0.664,1.494-1.246
					c0.582-0.581,1.121-1.152,1.62-1.713c0.498-0.561,0.955-1.068,1.369-1.526c0.457-0.498,0.893-0.954,1.309-1.37
					c0.332-0.373,0.623-0.644,0.873-0.81c0.113-0.067,0.223-0.102,0.33-0.102c0.089,0,0.177,0.023,0.262,0.07
					c0.186,0.104,0.238,0.446,0.154,1.028c0,0.166-0.041,0.353-0.123,0.561c-0.084,0.207-0.199,0.457-0.344,0.747
					c-0.146,0.29-0.385,0.603-0.717,0.935c-0.332,0.373-0.768,0.84-1.307,1.4c-0.541,0.561-1.08,1.111-1.619,1.651
					c-0.542,0.54-1.028,1.027-1.464,1.464c-0.438,0.436-0.717,0.716-0.842,0.841c-0.707,0.622-1.432,0.954-2.18,0.997
					c-0.061,0.003-0.121,0.005-0.182,0.005c-0.681,0-1.327-0.208-1.936-0.628c-0.582-0.374-1.143-0.997-1.684-1.869
					c-0.539-0.872-0.684-1.972-0.436-3.301c0.166-0.457,0.363-1.007,0.592-1.65c0.229-0.645,0.529-1.256,0.904-1.838
					c0.289-0.457,0.592-0.924,0.902-1.402c0.313-0.477,0.633-0.943,0.965-1.4c0.084-0.125,0.188-0.27,0.313-0.437
					c0.125-0.165,0.227-0.343,0.311-0.529s0.125-0.343,0.125-0.468c0-0.124-0.104-0.207-0.311-0.248
					c-0.016-0.002-0.032-0.004-0.05-0.004c-0.269,0-0.793,0.291-1.571,0.875c-0.83,0.623-1.773,1.381-2.834,2.273
					c-1.059,0.895-2.139,1.849-3.238,2.865c-1.102,1.019-2.023,1.9-2.771,2.647c-0.125,0.291-0.25,0.645-0.373,1.06
					c-0.125,0.415-0.209,0.789-0.25,1.121c0,0.498,0.082,0.852,0.25,1.059h0.436c0.414,0.084,0.539,0.354,0.373,0.81
					c0,0.042-0.021,0.083-0.063,0.124c0,0.043-0.021,0.063-0.063,0.063c0,0.125-0.063,0.209-0.186,0.25
					c-0.043,0.041-0.168,0.124-0.375,0.248c-0.248,0.209-0.582,0.332-0.996,0.375c-0.105,0.008-0.209,0.012-0.309,0.012
					c-0.407,0-0.761-0.065-1.063-0.199h-0.061c-0.041,0-0.084-0.021-0.125-0.063c-0.332-0.125-0.498-0.228-0.498-0.312
					c-0.873-0.622-1.268-1.536-1.184-2.74c0-0.54,0.104-1.162,0.311-1.868c0.043-0.084,0.063-0.166,0.063-0.25
					c0.043,0,0.063-0.041,0.063-0.125c0.373-1.245,0.934-2.543,1.682-3.893c0.748-1.349,1.516-2.625,2.305-3.83
					c0.207-0.332,0.395-0.664,0.561-0.997c0.166-0.331,0.291-0.622,0.373-0.872h-0.063h0.063v-0.125V22.32v-0.187
					c-0.041-0.083-0.063-0.208-0.063-0.374c0-0.207,0.063-0.395,0.188-0.561c0.084-0.125,0.229-0.238,0.436-0.342
					C200.253,20.754,200.563,20.701,200.979,20.701 M200.979,20.201c-0.496,0-0.875,0.068-1.157,0.208
					c-0.29,0.145-0.495,0.312-0.629,0.511c-0.176,0.232-0.272,0.521-0.272,0.839c0,0.182,0.021,0.336,0.063,0.467v0.094v0.318
					c-0.04,0.072-0.063,0.154-0.063,0.242c0,0.024,0.002,0.047,0.005,0.07c-0.068,0.172-0.156,0.366-0.263,0.578
					c-0.155,0.312-0.336,0.633-0.537,0.957c-0.783,1.195-1.565,2.495-2.318,3.853c-0.759,1.368-1.337,2.706-1.719,3.977
					c-0.056,0.08-0.088,0.178-0.088,0.283c-0.015,0.028-0.033,0.079-0.042,0.109c-0.22,0.748-0.331,1.424-0.331,2.009
					c-0.092,1.3,0.339,2.341,1.282,3.065c0.146,0.218,0.428,0.341,0.646,0.425c0.103,0.072,0.218,0.114,0.336,0.122
					c0.341,0.134,0.732,0.201,1.166,0.201c0.111,0,0.227-0.004,0.346-0.013c0.515-0.054,0.93-0.209,1.248-0.464
					c0.176-0.106,0.278-0.175,0.346-0.226c0.175-0.084,0.305-0.224,0.372-0.395c0.028-0.036,0.052-0.076,0.07-0.119
					c0.056-0.084,0.084-0.167,0.098-0.24c0.12-0.361,0.108-0.675-0.036-0.931c-0.097-0.173-0.302-0.397-0.727-0.484
					c-0.033-0.007-0.066-0.01-0.1-0.01h-0.128c-0.029-0.11-0.056-0.277-0.058-0.527c0.038-0.293,0.115-0.632,0.229-1.008
					c0.104-0.353,0.211-0.661,0.317-0.92c0.742-0.739,1.646-1.602,2.688-2.564c1.069-0.989,2.153-1.948,3.221-2.851
					c1.059-0.891,2.005-1.649,2.812-2.255c0.497-0.373,0.813-0.566,1.007-0.667c-0.063,0.125-0.131,0.236-0.209,0.339
					c-0.133,0.177-0.241,0.328-0.329,0.459c-0.315,0.435-0.636,0.899-0.968,1.405c-0.313,0.482-0.617,0.951-0.907,1.409
					c-0.392,0.607-0.713,1.261-0.953,1.938c-0.228,0.642-0.425,1.19-0.59,1.646c-0.01,0.026-0.017,0.053-0.021,0.079
					c-0.271,1.449-0.102,2.68,0.501,3.655c0.588,0.946,1.188,1.609,1.839,2.027c0.675,0.466,1.422,0.707,2.206,0.707
					c0.069,0,0.139-0.002,0.208-0.006c0.859-0.049,1.694-0.426,2.483-1.121l0.117-0.115l0.747-0.746
					c0.437-0.438,0.923-0.925,1.464-1.464c0.542-0.543,1.083-1.096,1.626-1.658c0.542-0.563,0.986-1.039,1.32-1.416
					c0.347-0.344,0.618-0.702,0.79-1.041c0.152-0.307,0.272-0.568,0.36-0.785c0.103-0.258,0.154-0.489,0.159-0.709
					c0.051-0.353,0.152-1.188-0.408-1.503c-0.165-0.09-0.333-0.135-0.507-0.135c-0.198,0-0.396,0.059-0.587,0.173
					c-0.307,0.203-0.624,0.495-0.989,0.906c-0.399,0.397-0.845,0.863-1.304,1.364c-0.418,0.462-0.876,0.971-1.375,1.532
					c-0.5,0.562-1.038,1.131-1.6,1.691c-0.548,0.548-1.019,0.941-1.399,1.172c-0.385,0.229-0.687,0.382-0.896,0.451
					c-0.057,0.013-0.137,0.025-0.201,0.025c-0.066,0-0.088-0.013-0.089-0.013c-0.121-0.083-0.384-0.258,0.073-1.067
					c0.444-0.788,1.104-1.789,1.962-2.975c0.037-0.051,0.063-0.108,0.079-0.169l0.771-1.044c0.086-0.089,0.173-0.188,0.258-0.295
					c0.081-0.1,0.164-0.214,0.248-0.337c0.104-0.11,0.184-0.221,0.243-0.338c0.012-0.024,0.036-0.065,0.096-0.125
					c0.017-0.017,0.031-0.033,0.045-0.052c0.636-0.849,1.176-1.713,1.604-2.567c0.444-0.892,0.692-1.722,0.737-2.467
					c0.048-0.801-0.142-1.498-0.563-2.07c-0.436-0.589-1.188-0.96-2.233-1.103c-0.023-0.003-0.046-0.005-0.068-0.005h-0.063
					c-0.033-0.004-0.105-0.006-0.179-0.006c-0.579,0-1.228,0.158-1.982,0.484c-0.792,0.343-1.648,0.83-2.546,1.449
					c-0.873,0.603-1.793,1.291-2.738,2.045c-0.094,0.075-0.188,0.15-0.281,0.227c0.107-0.429,0.114-0.849,0.022-1.254
					c-0.12-0.534-0.365-1.023-0.727-1.457c-0.339-0.406-0.729-0.762-1.16-1.057c-0.434-0.296-0.863-0.516-1.276-0.653
					c-0.052-0.017-0.104-0.025-0.158-0.025c-0.041,0-0.058-0.004-0.058-0.004C201.238,20.22,201.113,20.201,200.979,20.201
					L200.979,20.201z"/>
			</g>
			<g>
				<path fill="#FFF200" d="M219.092,38.751c-0.45,0-0.89-0.134-1.306-0.398c-0.912-0.651-1.597-1.403-2.048-2.242
					c-0.448-0.831-0.721-1.732-0.808-2.68c-0.084-0.938-0.009-1.887,0.224-2.824c0.236-0.937,0.591-1.817,1.055-2.618
					c0.421-0.76,1.055-1.582,1.934-2.508c0.862-0.904,1.85-1.742,2.936-2.494l0.379-0.252c0.078-0.085,0.197-0.157,0.325-0.19
					c0.035-0.008,0.104-0.033,0.234-0.121c1.101-0.677,2.504-1.273,4.177-1.776c1.017-0.305,2.084-0.459,3.175-0.459
					c0.726,0,1.478,0.068,2.236,0.203c0.537,0.134,1.021,0.332,1.455,0.592c0.368,0.231,0.697,0.571,0.984,1.013
					c0.292,0.451,0.463,1.036,0.507,1.74c-0.044,0.343-0.075,0.553-0.095,0.678c-0.026,0.15-0.086,0.32-0.179,0.508
					c-0.13,0.215-0.257,0.358-0.392,0.44c-0.023,0.048-0.056,0.089-0.095,0.108c-0.161,0.081-0.287,0.127-0.395,0.144
					c0.316,0.245,0.55,0.523,0.695,0.836c0.319,0.683,0.303,1.354-0.05,1.996c-0.011,0.046-0.029,0.094-0.054,0.138
					c-0.007,0.082-0.037,0.146-0.081,0.191c-0.013,0.027-0.029,0.053-0.051,0.074l-0.005-0.002
					c-0.012,0.051-0.031,0.101-0.058,0.127c-0.12,0.119-0.161,0.188-0.189,0.274c-0.045,0.139-0.113,0.261-0.203,0.362
					c-0.012,0.027-0.026,0.055-0.044,0.078c-0.014,0.048-0.037,0.095-0.068,0.134c-0.013,0.031-0.031,0.061-0.056,0.085l-0.01-0.005
					c-0.014,0.039-0.034,0.075-0.06,0.107c-0.005,0.013-0.011,0.025-0.019,0.037c-0.374,0.621-0.725,1.222-1.056,1.802
					c-0.32,0.558-0.576,1.1-0.761,1.611c-0.176,0.486-0.265,0.908-0.265,1.254c0,0.384,0.149,0.526,0.262,0.602
					c0.076,0.046,0.178,0.07,0.302,0.07c0.092,0,0.195-0.014,0.307-0.042c0.208-0.07,0.507-0.225,0.896-0.468
					c0.368-0.233,0.798-0.655,1.275-1.253c0.505-0.587,0.981-1.147,1.438-1.687c0.456-0.538,0.869-1.035,1.243-1.492
					c0.461-0.505,0.874-0.979,1.246-1.433c0.297-0.384,0.589-0.675,0.862-0.858c0.163-0.099,0.313-0.145,0.461-0.145
					c0.131,0,0.255,0.036,0.371,0.107c0.255,0.161,0.368,0.543,0.368,1.241c0,0.225-0.023,0.447-0.067,0.672
					c-0.097,0.251-0.19,0.488-0.293,0.757c-0.115,0.3-0.323,0.62-0.637,0.979l-1.246,1.402c-0.501,0.563-1,1.114-1.499,1.654
					c-0.496,0.537-0.93,1.023-1.303,1.457c-0.379,0.443-0.632,0.729-0.76,0.855c-0.662,0.662-1.417,1.032-2.243,1.1
					c-0.099,0.008-0.196,0.012-0.294,0.012c-0.716,0-1.413-0.216-2.073-0.643c-0.393-0.263-0.802-0.597-1.22-0.994
					c-0.436-0.415-0.809-0.931-1.11-1.534c-0.303-0.604-0.489-1.284-0.555-2.021c-0.028-0.32-0.019-0.658,0.03-1.011
					c-0.882,1.275-1.759,2.414-2.614,3.396c-0.509,0.552-1.026,1.07-1.545,1.546c-0.531,0.489-1.082,0.889-1.638,1.188
					c-0.57,0.305-1.123,0.492-1.645,0.558C219.286,38.745,219.188,38.751,219.092,38.751z M224.362,26.867
					c-0.555,0.441-1.153,0.982-1.781,1.61c-0.605,0.687-1.24,1.468-1.876,2.309c-0.632,0.835-1.159,1.642-1.569,2.397
					c-0.399,0.743-0.642,1.396-0.719,1.941c-0.085,0.59,0.198,0.764,0.455,0.849c0.026,0.008,0.065,0.014,0.109,0.014
					c0.246,0,0.737-0.163,1.676-0.936c0.93-0.765,1.907-1.69,2.905-2.75c0.988-1.049,1.971-2.155,2.917-3.29
					c0.932-1.118,1.626-1.967,2.082-2.548c0.024-0.031,0.056-0.056,0.091-0.072c0.025-0.024,0.056-0.045,0.092-0.06
					c0.373-0.445,0.812-0.847,1.303-1.194c0.355-0.252,0.738-0.379,1.136-0.379c0.231,0,0.471,0.043,0.712,0.129
					c0.221,0.068,0.427,0.143,0.617,0.225c-0.028-0.107-0.038-0.237-0.015-0.397l-0.003-0.339c-0.037-0.2-0.182-0.531-0.963-0.624
					c-0.1-0.021-0.193-0.029-0.304-0.029c-0.368,0-0.904,0.091-1.596,0.271c-0.924,0.24-2.053,0.775-3.356,1.59
					c-0.255,0.128-0.483,0.267-0.703,0.426c-0.231,0.168-0.473,0.337-0.726,0.505c-0.096,0.103-0.166,0.147-0.207,0.169
					c-0.005,0.002-0.04,0.022-0.126,0.109C224.473,26.835,224.419,26.86,224.362,26.867z"/>
				<path fill="#141A2C" d="M229.368,20.439c0.714,0,1.444,0.066,2.192,0.199c0.498,0.125,0.955,0.312,1.371,0.561
					c0.332,0.209,0.633,0.52,0.902,0.935s0.426,0.956,0.467,1.619c-0.041,0.291-0.072,0.499-0.092,0.623
					c-0.021,0.124-0.074,0.271-0.156,0.437c-0.125,0.207-0.25,0.332-0.373,0.373v0.063c-0.168,0.084-0.291,0.125-0.375,0.125
					c-0.125,0-0.229-0.021-0.311-0.063c-0.209-0.083-0.291-0.27-0.25-0.561v-0.374c-0.084-0.499-0.479-0.788-1.184-0.872
					c-0.093-0.021-0.204-0.031-0.333-0.031c-0.39,0-0.942,0.093-1.659,0.28c-0.957,0.249-2.098,0.79-3.426,1.62
					c-0.25,0.124-0.488,0.27-0.717,0.436s-0.467,0.333-0.717,0.498c-0.084,0.084-0.146,0.136-0.186,0.156
					c-0.043,0.021-0.105,0.072-0.188,0.155h-0.063c-0.582,0.458-1.205,1.019-1.869,1.683c-0.623,0.706-1.256,1.484-1.898,2.335
					c-0.645,0.852-1.174,1.661-1.59,2.429c-0.414,0.77-0.664,1.443-0.746,2.025c-0.084,0.582,0.123,0.955,0.623,1.121
					c0.058,0.018,0.12,0.026,0.188,0.026c0.419,0,1.031-0.331,1.835-0.992c0.934-0.769,1.91-1.691,2.928-2.772
					c1.018-1.078,1.992-2.18,2.928-3.301c0.934-1.121,1.629-1.972,2.086-2.554c0.041,0,0.063-0.01,0.063-0.031
					c0-0.021,0.02-0.03,0.063-0.03c0.373-0.457,0.809-0.861,1.309-1.215c0.313-0.223,0.645-0.334,0.991-0.334
					c0.203,0,0.413,0.039,0.628,0.115c1.078,0.333,1.764,0.811,2.055,1.434c0.291,0.622,0.27,1.225-0.063,1.806v0.063v0.062
					c-0.041,0-0.063,0.021-0.063,0.063c0,0.042-0.01,0.063-0.031,0.063c-0.02,0-0.029,0.021-0.029,0.063l-0.063,0.063v0.063
					l-0.063,0.063c-0.084,0.083-0.146,0.186-0.188,0.311s-0.104,0.229-0.188,0.312v0.063c-0.041,0-0.061,0.021-0.061,0.062v0.063
					c-0.043,0-0.063,0.021-0.063,0.063l-0.063,0.063v0.063c-0.043,0-0.063,0.021-0.063,0.063c-0.375,0.623-0.727,1.225-1.059,1.807
					c-0.334,0.581-0.592,1.131-0.779,1.65s-0.279,0.965-0.279,1.339s0.123,0.644,0.373,0.81c0.124,0.075,0.271,0.113,0.44,0.113
					c0.112,0,0.235-0.018,0.368-0.051c0.25-0.083,0.57-0.25,0.967-0.498c0.395-0.25,0.84-0.686,1.338-1.309
					c0.5-0.581,0.977-1.142,1.434-1.682c0.457-0.539,0.871-1.037,1.246-1.495c0.455-0.498,0.871-0.976,1.246-1.433
					c0.289-0.373,0.561-0.643,0.809-0.81c0.113-0.067,0.22-0.102,0.321-0.102c0.084,0,0.164,0.023,0.239,0.07
					c0.166,0.104,0.25,0.446,0.25,1.028c0,0.208-0.021,0.415-0.063,0.623c-0.084,0.207-0.178,0.446-0.281,0.716
					c-0.104,0.271-0.301,0.571-0.592,0.903c-0.332,0.373-0.746,0.841-1.244,1.401c-0.5,0.561-0.998,1.111-1.496,1.65
					c-0.498,0.54-0.934,1.028-1.309,1.464c-0.373,0.436-0.621,0.717-0.746,0.841c-0.623,0.623-1.318,0.966-2.088,1.028
					c-0.092,0.008-0.183,0.011-0.273,0.011c-0.669,0-1.314-0.2-1.938-0.603c-0.373-0.25-0.768-0.57-1.184-0.966
					c-0.414-0.395-0.768-0.882-1.059-1.464c-0.291-0.581-0.467-1.225-0.529-1.932c-0.063-0.705,0.072-1.494,0.404-2.366
					c-1.162,1.786-2.305,3.323-3.426,4.609c-0.498,0.54-1.006,1.049-1.525,1.526s-1.049,0.861-1.588,1.152
					c-0.541,0.289-1.059,0.467-1.557,0.529c-0.088,0.011-0.176,0.017-0.262,0.017c-0.405,0-0.795-0.12-1.172-0.359
					c-0.871-0.623-1.525-1.339-1.961-2.149c-0.438-0.81-0.695-1.671-0.779-2.584c-0.082-0.914-0.01-1.827,0.217-2.741
					c0.23-0.913,0.572-1.765,1.029-2.554c0.414-0.748,1.049-1.566,1.898-2.461c0.852-0.893,1.816-1.713,2.896-2.46l0.375-0.249
					c0.082-0.082,0.164-0.135,0.248-0.156c0.084-0.02,0.188-0.071,0.313-0.155c1.078-0.663,2.449-1.245,4.109-1.744
					C227.263,20.589,228.297,20.439,229.368,20.439 M229.368,19.939c-1.115,0-2.207,0.158-3.246,0.469
					c-1.694,0.509-3.117,1.114-4.228,1.797c-0.121,0.081-0.165,0.094-0.167,0.095c-0.162,0.042-0.31,0.125-0.445,0.25l-0.338,0.225
					c-1.108,0.766-2.108,1.616-2.981,2.532c-0.896,0.942-1.541,1.78-1.975,2.563c-0.471,0.813-0.835,1.715-1.076,2.674
					c-0.24,0.966-0.317,1.943-0.23,2.908c0.091,0.981,0.372,1.916,0.838,2.776c0.468,0.872,1.178,1.652,2.109,2.318
					c0.48,0.306,0.965,0.453,1.463,0.453c0.106,0,0.215-0.007,0.323-0.021c0.553-0.069,1.135-0.266,1.73-0.584
					c0.576-0.312,1.145-0.723,1.69-1.226c0.523-0.48,1.047-1.004,1.555-1.556c0.707-0.811,1.424-1.721,2.144-2.723
					c0.003,0.062,0.007,0.124,0.013,0.185c0.067,0.768,0.263,1.479,0.58,2.111c0.314,0.629,0.705,1.168,1.161,1.603
					c0.429,0.407,0.85,0.75,1.25,1.019c0.708,0.458,1.451,0.688,2.216,0.688c0.104,0,0.208-0.004,0.313-0.013
					c0.887-0.071,1.695-0.467,2.401-1.173c0.13-0.129,0.361-0.389,0.772-0.869c0.382-0.443,0.818-0.932,1.296-1.45
					c0.5-0.541,1-1.094,1.502-1.656l0.629-0.709l0.615-0.693c0.337-0.383,0.56-0.728,0.686-1.057
					c0.103-0.266,0.194-0.502,0.277-0.707c0.013-0.029,0.021-0.06,0.027-0.091c0.048-0.242,0.072-0.484,0.072-0.72
					c0-0.804-0.145-1.238-0.483-1.451c-0.159-0.099-0.328-0.147-0.506-0.147c-0.193,0-0.388,0.059-0.578,0.173
					c-0.318,0.213-0.629,0.521-0.947,0.932c-0.354,0.431-0.767,0.906-1.22,1.402c-0.391,0.477-0.804,0.972-1.259,1.509
					c-0.456,0.539-0.932,1.099-1.431,1.679c-0.473,0.59-0.881,0.993-1.227,1.213c-0.364,0.228-0.653,0.378-0.856,0.445
					c-0.058,0.013-0.14,0.024-0.211,0.024c-0.077,0-0.137-0.013-0.182-0.04c-0.027-0.019-0.132-0.088-0.132-0.382
					c0-0.316,0.084-0.71,0.25-1.169c0.18-0.498,0.429-1.026,0.742-1.571c0.322-0.564,0.661-1.146,1.023-1.748
					c0.058-0.053,0.104-0.119,0.132-0.194c0.061-0.057,0.106-0.128,0.133-0.208c0.027-0.041,0.049-0.086,0.063-0.134
					c0.078-0.107,0.14-0.229,0.184-0.363c0.021-0.063,0.047-0.094,0.064-0.111l0.064-0.064c0.056-0.055,0.097-0.122,0.12-0.194
					c0.009-0.012,0.017-0.024,0.023-0.037c0.028-0.033,0.052-0.071,0.072-0.113c0.072-0.087,0.116-0.198,0.116-0.319
					c0.347-0.685,0.353-1.423,0.016-2.144c-0.107-0.229-0.255-0.44-0.443-0.636c0.01-0.005,0.019-0.009,0.028-0.014
					c0.081-0.041,0.148-0.102,0.196-0.176c0.137-0.104,0.263-0.252,0.381-0.448c0.126-0.25,0.191-0.438,0.222-0.61
					c0.021-0.133,0.052-0.344,0.094-0.639c0.005-0.033,0.006-0.067,0.004-0.101c-0.046-0.748-0.23-1.374-0.547-1.861
					c-0.307-0.473-0.662-0.838-1.055-1.085c-0.465-0.278-0.972-0.486-1.516-0.622C230.875,20.009,230.108,19.939,229.368,19.939
					L229.368,19.939z M225.025,26.697c0.241-0.161,0.473-0.323,0.694-0.484c0.208-0.15,0.425-0.282,0.646-0.392
					c1.325-0.826,2.431-1.351,3.329-1.584c0.671-0.175,1.187-0.264,1.533-0.264c0.115,0,0.187,0.01,0.226,0.019
					c0.663,0.081,0.764,0.304,0.791,0.43v0.296c-0.001,0.007-0.002,0.014-0.002,0.021c-0.092-0.033-0.187-0.064-0.284-0.094
					c-0.248-0.089-0.516-0.137-0.775-0.137c-0.45,0-0.881,0.143-1.28,0.425c-0.493,0.349-0.935,0.75-1.313,1.195
					c-0.03,0.017-0.058,0.036-0.083,0.058c-0.054,0.031-0.102,0.072-0.142,0.123c-0.449,0.572-1.128,1.403-2.076,2.542
					c-0.944,1.131-1.922,2.234-2.907,3.278c-0.991,1.053-1.961,1.971-2.882,2.729c-0.963,0.792-1.382,0.878-1.518,0.878
					c-0.224-0.064-0.378-0.152-0.316-0.576c0.072-0.517,0.306-1.143,0.691-1.859c0.403-0.744,0.924-1.54,1.548-2.364
					c0.633-0.837,1.263-1.612,1.875-2.306c0.583-0.582,1.158-1.104,1.692-1.532c0.082-0.023,0.158-0.067,0.22-0.13
					c0.033-0.033,0.059-0.059,0.08-0.073C224.838,26.862,224.92,26.799,225.025,26.697L225.025,26.697z"/>
			</g>
		</g>
	</g>
</g>
</svg>
