<?xml version="1.0" encoding="utf-8"?>
<!-- Generator: Adobe Illustrator 16.0.0, SVG Export Plug-In . SVG Version: 6.00 Build 0)  -->
<!DOCTYPE svg PUBLIC "-//W3C//DTD SVG 1.1//EN" "http://www.w3.org/Graphics/SVG/1.1/DTD/svg11.dtd">
<svg version="1.1" id="Layer_1" xmlns="http://www.w3.org/2000/svg" xmlns:xlink="http://www.w3.org/1999/xlink" x="0px" y="0px"
	 width="240.834px" height="48.98px" viewBox="0 0 240.834 48.98" enable-background="new 0 0 240.834 48.98" xml:space="preserve">
<g>
	<g>
		<g>
			<path fill="#FFFFFF" d="M14.582,11.919c0.415-0.748,0.83-1.266,1.246-1.557c0.415-0.291,0.819-0.468,1.215-0.529
				c0.394-0.063,0.778-0.084,1.152-0.063c0.374,0.021,0.768-0.031,1.184-0.156c0.415-0.125,0.83-0.373,1.246-0.748
				c0.415-0.373,0.872-0.996,1.371-1.868c-1.828,0.333-3.447,0.665-4.858,0.997c-1.412,0.332-2.388,0.561-2.928,0.686
				c-0.914,0.207-1.485-0.021-1.713-0.686c-0.229-0.664-0.167-1.464,0.187-2.398c0.353-0.934,0.944-1.848,1.775-2.74
				c0.83-0.893,1.847-1.464,3.052-1.713c3.114-0.582,5.989-0.913,8.627-0.997c2.637-0.083,4.993,0.073,7.07,0.468
				c2.076,0.395,3.831,0.996,5.263,1.806s2.501,1.797,3.208,2.959c1.08,1.786,1.505,3.53,1.277,5.231
				c-0.229,1.703-1.132,3.302-2.709,4.797c-1.579,1.494-3.873,2.876-6.883,4.143c-3.011,1.267-6.779,2.335-11.305,3.207
				c1.744,2.077,3.613,4.34,5.606,6.789c1.993,2.451,3.862,4.787,5.606,7.008s3.259,4.131,4.547,5.73
				c1.287,1.598,2.118,2.585,2.492,2.959c0.457,0.456,0.55,0.985,0.28,1.588c-0.271,0.602-0.758,1.09-1.464,1.464
				c-0.707,0.374-1.547,0.561-2.522,0.561c-0.976,0-1.9-0.396-2.772-1.184c-0.333-0.291-0.862-0.925-1.588-1.899
				c-0.727-0.977-1.599-2.16-2.616-3.551c-1.018-1.392-2.139-2.928-3.364-4.609c-1.225-1.682-2.492-3.353-3.799-5.014
				c-1.308-1.66-2.606-3.26-3.893-4.797c-1.288-1.535-2.492-2.865-3.613-3.986c-1.121,2.326-2.201,4.6-3.239,6.82
				c-1.039,2.223-1.973,4.236-2.803,6.043c-0.831,1.806-1.537,3.352-2.118,4.64c-0.582,1.286-0.956,2.159-1.121,2.616
				c-0.333,0.789-0.82,1.131-1.464,1.027c-0.644-0.104-1.246-0.498-1.806-1.184C1.844,43.094,1.428,42.2,1.159,41.1
				C0.888,40,0.94,38.847,1.314,37.643c0.249-0.788,0.716-1.909,1.401-3.363c0.685-1.453,1.473-3.063,2.367-4.828
				c0.893-1.764,1.837-3.57,2.834-5.418s1.941-3.592,2.834-5.232c0.892-1.641,1.682-3.072,2.367-4.298
				C13.803,13.28,14.291,12.417,14.582,11.919z M23.924,6.686c-0.956,1.619-1.941,3.395-2.958,5.326
				c-1.018,1.931-2.066,3.955-3.146,6.072c0.083,0.084,0.156,0.156,0.218,0.219c0.062,0.063,0.134,0.135,0.218,0.218
				c2.574-0.623,5.117-1.391,7.63-2.305c2.512-0.913,4.703-1.878,6.571-2.896c1.869-1.017,3.259-2.034,4.173-3.052
				c0.913-1.018,1.1-1.963,0.561-2.834c-0.333-0.498-0.945-0.861-1.838-1.09c-0.893-0.229-1.952-0.353-3.176-0.374
				c-1.226-0.021-2.554,0.042-3.986,0.187C26.759,6.303,25.336,6.479,23.924,6.686z"/>
			<path fill="#FFFFFF" d="M41.364,22.134c0.955-0.996,2.107-2.086,3.457-3.27c1.349-1.184,2.585-2.211,3.706-3.084
				c0.539-0.414,1.09-0.643,1.65-0.685c0.561-0.041,1.028,0.062,1.402,0.312c0.374,0.249,0.612,0.602,0.716,1.059
				c0.103,0.457,0.009,0.956-0.28,1.495c-0.333,0.54-0.634,1.049-0.903,1.526c-0.271,0.478-0.561,1.007-0.872,1.588
				c-0.312,0.582-0.665,1.246-1.059,1.993c-0.395,0.747-0.862,1.642-1.401,2.679c-0.582,1.038-0.727,1.703-0.436,1.992
				c0.29,0.291,0.872,0.261,1.744-0.093c0.872-0.353,1.951-0.997,3.239-1.931c1.287-0.935,2.657-2.128,4.111-3.582
				c0.498-0.498,0.986-0.768,1.463-0.81c0.477-0.04,0.861,0.063,1.152,0.312c0.29,0.249,0.415,0.623,0.374,1.121
				c-0.042,0.498-0.333,1.018-0.872,1.557c-0.416,0.416-0.956,0.945-1.62,1.589c-0.665,0.645-1.401,1.329-2.211,2.056
				c-0.81,0.727-1.651,1.433-2.523,2.117c-0.872,0.686-1.703,1.277-2.491,1.775c-1.288,0.832-2.451,1.318-3.488,1.464
				c-1.039,0.146-1.859,0-2.46-0.437c-0.603-0.436-0.934-1.172-0.997-2.211c-0.062-1.037,0.259-2.346,0.965-3.924
				c0.25-0.623,0.467-1.184,0.654-1.682s0.29-0.882,0.312-1.152c0.021-0.27-0.053-0.383-0.218-0.342
				c-0.167,0.041-0.478,0.291-0.934,0.746c-0.458,0.458-0.914,0.686-1.371,0.686c-0.457,0-0.819-0.134-1.09-0.404
				c-0.27-0.27-0.405-0.633-0.405-1.09S40.908,22.591,41.364,22.134z M57.435,2.762c0.374-0.207,0.778-0.28,1.214-0.218
				c0.436,0.062,0.81,0.218,1.121,0.467s0.54,0.592,0.685,1.028c0.145,0.436,0.094,0.902-0.155,1.4
				c-0.25,0.499-0.603,1.039-1.059,1.62c-0.458,0.582-0.925,1.152-1.401,1.713c-0.478,0.561-0.903,1.069-1.277,1.526
				c-0.374,0.457-0.623,0.831-0.748,1.121c-0.208,0.582-0.551,0.852-1.028,0.81c-0.478-0.041-0.841-0.312-1.09-0.81
				c-0.125-0.25-0.187-0.736-0.187-1.464c0-0.726,0.125-1.536,0.374-2.429c0.25-0.893,0.654-1.775,1.215-2.648
				C55.659,4.009,56.438,3.302,57.435,2.762z"/>
			<path fill="#FFFFFF" d="M77.179,22.134c0.332-0.332,0.726-0.508,1.184-0.529c0.456-0.021,0.841,0.084,1.152,0.312
				c0.311,0.229,0.487,0.561,0.529,0.997c0.041,0.436-0.187,0.902-0.685,1.4c-1.828,1.828-3.561,3.053-5.201,3.676
				c-1.641,0.623-3.083,0.831-4.329,0.623l-1.121,1.494c-1.121,1.412-2.315,2.638-3.582,3.676c-1.267,1.038-2.522,1.837-3.768,2.397
				c-1.246,0.561-2.46,0.862-3.644,0.903c-1.184,0.042-2.231-0.207-3.146-0.748C53.655,35.796,53.033,35.018,52.7,34
				c-0.332-1.017-0.405-2.169-0.218-3.457c0.187-1.286,0.613-2.657,1.277-4.11c0.665-1.453,1.557-2.887,2.678-4.299
				c1.121-1.41,2.314-2.637,3.582-3.675c1.266-1.037,2.532-1.837,3.799-2.397c1.267-0.561,2.492-0.861,3.675-0.904
				c1.183-0.04,2.231,0.209,3.146,0.748c1.328,0.831,2.044,2.129,2.149,3.893c0.103,1.766-0.322,3.707-1.277,5.824
				c0.747-0.041,1.567-0.332,2.46-0.872C74.863,24.211,75.933,23.339,77.179,22.134z M66.278,19.58
				c-0.54-0.165-1.121-0.134-1.744,0.094c-0.623,0.229-1.256,0.592-1.899,1.09c-0.645,0.499-1.257,1.101-1.837,1.807
				c-0.582,0.706-1.101,1.433-1.558,2.18c-0.457,0.747-0.81,1.495-1.059,2.243c-0.249,0.746-0.374,1.432-0.374,2.055
				s0.114,1.174,0.343,1.65c0.228,0.479,0.612,0.801,1.152,0.966c1.079,0.374,2.221,0.155,3.426-0.653
				c1.204-0.811,2.263-1.983,3.177-3.52l0.249-0.437c-0.333-0.374-0.571-0.851-0.716-1.433c-0.146-0.581-0.208-1.203-0.187-1.869
				c0.021-0.663,0.104-1.328,0.25-1.992c0.145-0.664,0.342-1.267,0.591-1.807L66.278,19.58z"/>
		</g>
	</g>
	<g>
		<g>
			<path fill="#FFFFFF" d="M202.714,12.731c0.931-0.988,1.854-1.687,2.77-2.094s1.737-0.589,2.465-0.545
				c0.727,0.043,1.293,0.298,1.7,0.763c0.407,0.466,0.582,1.091,0.523,1.876c-0.059,0.784,0.022,1.294,0.24,1.526
				s0.502,0.262,0.851,0.087s0.72-0.538,1.112-1.091c0.393-0.552,0.748-1.249,1.068-2.093c0.146-0.378,0.421-0.589,0.829-0.633
				c0.406-0.044,0.756,0.065,1.046,0.327c0.291,0.262,0.422,0.669,0.393,1.222s-0.407,1.236-1.134,2.05
				c-1.018,1.105-1.992,1.891-2.922,2.354c-0.931,0.466-1.745,0.677-2.442,0.633c-0.698-0.044-1.243-0.313-1.636-0.807
				s-0.574-1.148-0.545-1.963c0.028-0.813-0.103-1.271-0.393-1.374c-0.291-0.102-0.662-0.028-1.112,0.218
				c-0.451,0.248-0.931,0.589-1.439,1.025s-0.967,0.8-1.374,1.091s-0.697,0.378-0.872,0.262s-0.247-0.327-0.218-0.633
				c0.028-0.306,0.138-0.661,0.327-1.068C202.14,13.458,202.394,13.08,202.714,12.731z"/>
		</g>
	</g>
	<g>
		<g>
			<path fill="#FFFFFF" d="M90.795,18.708c1.204-1.785,2.532-3.279,3.986-4.484c1.453-1.204,2.875-2.18,4.267-2.928
				c1.391-0.747,2.709-1.287,3.956-1.619c1.246-0.332,2.263-0.498,3.052-0.498c0.25,0,0.477,0.031,0.685,0.094
				c0.208,0.062,0.374,0.093,0.499,0.093c0.706,0.291,1.339,0.696,1.9,1.214c0.561,0.521,0.841,1.215,0.841,2.088
				c0,0.83-0.322,1.754-0.965,2.771c-0.645,1.018-1.464,2.211-2.46,3.581c1.329-1.577,2.657-3.072,3.986-4.484
				c1.329-1.411,2.595-2.657,3.799-3.737c1.204-1.08,2.325-1.932,3.364-2.554c1.038-0.623,1.951-0.935,2.74-0.935
				c0.706,0,1.412,0.343,2.118,1.027c0.706,0.686,1.059,1.486,1.059,2.398c0,0.166,0.021,0.302,0.063,0.405
				c0.041,0.104-0.073,0.427-0.343,0.966c-0.271,0.539-0.81,1.422-1.619,2.646c-0.811,1.226-2.046,3.021-3.706,5.389
				c1.162-1.287,2.345-2.513,3.55-3.676c1.204-1.162,2.367-2.189,3.488-3.083c1.121-0.893,2.17-1.608,3.146-2.149
				c0.976-0.539,1.816-0.809,2.522-0.809c0.374,0,0.748,0.093,1.121,0.279c0.374,0.188,0.717,0.437,1.028,0.748
				c0.312,0.311,0.561,0.664,0.747,1.059c0.188,0.395,0.281,0.8,0.281,1.215c0,0.208-0.125,0.561-0.375,1.059
				c-0.248,0.498-0.695,1.277-1.338,2.336c-0.645,1.059-1.527,2.439-2.648,4.143s-2.574,3.861-4.359,6.477
				c0-0.04,0.01-0.062,0.031-0.062c0.02,0,0.031-0.021,0.031-0.063c-1.205,1.828-2.232,3.386-3.084,4.672
				c-0.852,1.288-1.547,2.388-2.086,3.302c-0.541,0.913-0.935,1.703-1.184,2.366c-0.25,0.663-0.374,1.267-0.374,1.806
				c0,0.831,0.208,1.496,0.623,1.994c0.415,0.498,0.923,0.893,1.526,1.184c0.602,0.289,1.203,0.487,1.807,0.592
				c0.601,0.103,1.09,0.176,1.463,0.217c3.945,0.291,7.744,0.219,11.398-0.217c3.654-0.437,7.235-0.987,10.744-1.65
				c3.51-0.666,6.977-1.309,10.402-1.932s6.883-0.977,10.371-1.059c1.08-0.042,2.17-0.021,3.27,0.063
				c1.101,0.082,2.232,0.227,3.396,0.436c1.121,0.207,1.94,0.508,2.46,0.903c0.52,0.394,0.872,0.81,1.059,1.245
				c0.188,0.437,0.25,0.842,0.188,1.215c-0.063,0.374-0.115,0.644-0.156,0.811c-0.291,0.539-0.582,0.975-0.871,1.308
				c-0.25,0.29-0.499,0.487-0.748,0.592c-0.249,0.103-0.416-0.031-0.498-0.405c-0.291-0.955-1.184-1.724-2.679-2.305
				c-1.495-0.582-3.405-0.893-5.73-0.934c-2.159-0.043-4.475,0.093-6.944,0.404c-2.472,0.312-5.046,0.686-7.725,1.121
				c-2.678,0.436-5.418,0.893-8.222,1.371c-2.803,0.477-5.585,0.861-8.347,1.152c-2.762,0.289-5.471,0.445-8.128,0.467
				c-2.658,0.02-5.17-0.219-7.537-0.717c-0.993-0.291-1.806-0.686-2.439-1.184c-0.633-0.498-1.134-1.038-1.501-1.619
				c-0.368-0.582-0.623-1.184-0.766-1.807s-0.214-1.225-0.214-1.807c0-1.08,0.193-2.199,0.582-3.363
				c0.387-1.162,0.827-2.221,1.317-3.176c0.532-1.08,1.164-2.139,1.9-3.178c0.249-0.498,0.57-1.059,0.965-1.682
				s0.779-1.215,1.153-1.775c0.373-0.561,0.686-1.037,0.934-1.432c0.25-0.395,0.353-0.592,0.313-0.592
				c0.912-1.412,1.774-2.637,2.584-3.676c0.811-1.037,1.495-1.93,2.056-2.678s1.007-1.391,1.339-1.931s0.498-1.017,0.498-1.433
				c0-0.29-0.166-0.436-0.498-0.436c-0.208,0-0.592,0.217-1.152,0.653s-1.267,1.06-2.117,1.868
				c-0.852,0.811-1.838,1.775-2.959,2.896s-2.304,2.347-3.55,3.676c-1.619,1.703-3.167,3.301-4.64,4.795
				c-1.475,1.496-2.855,3.219-4.142,5.17l-0.499,0.873c-0.333,0.789-0.52,1.287-0.561,1.494c-0.042,0.167-0.063,0.291-0.063,0.374
				c0,0.291,0.041,0.468,0.125,0.529c0.083,0.063,0.125,0.261,0.125,0.592c0,0.124-0.063,0.322-0.187,0.592
				c-0.125,0.271-0.478,0.405-1.059,0.405c-0.333,0-0.707-0.072-1.121-0.219c-0.416-0.145-0.789-0.363-1.121-0.654
				c-0.333-0.289-0.613-0.632-0.841-1.027c-0.229-0.395-0.343-0.819-0.343-1.276c0-0.54,0.125-1.038,0.374-1.495
				c0.041-0.082,0.062-0.156,0.062-0.219c0-0.062,0.021-0.145,0.063-0.248c0.041-0.104,0.114-0.26,0.218-0.467
				c0.104-0.208,0.28-0.52,0.53-0.936c0.623-1.286,1.328-2.521,2.118-3.705c0.788-1.184,1.515-2.252,2.18-3.209
				c0.664-0.954,1.224-1.732,1.682-2.335c0.457-0.602,0.664-0.944,0.623-1.028c1.909-2.491,3.466-4.588,4.671-6.291
				c1.204-1.701,1.806-2.844,1.806-3.426c0-0.289-0.167-0.436-0.498-0.436c-0.25,0-1.07,0.686-2.46,2.056
				c-1.392,1.37-3.083,3.114-5.077,5.231c-1.993,2.118-4.132,4.454-6.416,7.008c-2.284,2.554-4.422,5.014-6.416,7.381
				c-0.54,0.872-1.018,1.662-1.433,2.367c-0.416,0.707-0.727,1.329-0.934,1.869c-0.125,0.291-0.229,0.582-0.312,0.871
				c-0.208,0.539-0.312,1.1-0.312,1.682c0,0.498,0.125,0.873,0.374,1.121h0.187c0.125,0,0.27,0.031,0.436,0.094
				c0.166,0.063,0.249,0.197,0.249,0.405c0,0.374-0.167,0.675-0.498,0.903c-0.333,0.228-0.727,0.342-1.184,0.342
				c-0.665,0-1.36-0.279-2.086-0.84c-0.727-0.561-1.09-1.548-1.09-2.959c0-0.955,0.197-2.004,0.592-3.146
				c0.394-1.141,0.861-2.262,1.401-3.363c0.54-1.1,1.111-2.138,1.713-3.113c0.602-0.976,1.111-1.816,1.526-2.523
				c0.83-1.328,1.764-2.74,2.803-4.235c1.038-1.495,2.024-2.906,2.958-4.235c0.935-1.328,1.723-2.48,2.367-3.457
				c0.643-0.975,0.965-1.588,0.965-1.838c0-0.289-0.104-0.436-0.312-0.436c-0.291,0-0.778,0.208-1.463,0.623
				c-0.686,0.415-1.526,1.09-2.523,2.023c-0.997,0.936-2.149,2.16-3.457,3.676s-2.731,3.395-4.267,5.637
				c0.041,0-0.073,0.166-0.342,0.498c-0.271,0.333-0.571,0.758-0.903,1.277c-0.333,0.52-0.645,1.069-0.935,1.65
				c-0.291,0.582-0.436,1.101-0.436,1.557c0,0.334,0.083,0.604,0.25,0.811h0.374c0.166,0,0.332,0.021,0.499,0.063
				c0.165,0.041,0.249,0.146,0.249,0.311c0,0.291-0.177,0.582-0.529,0.873c-0.354,0.291-0.779,0.436-1.277,0.436
				c-0.416,0-0.81-0.125-1.184-0.374c-0.374-0.249-0.696-0.581-0.965-0.997c-0.271-0.414-0.478-0.871-0.623-1.369
				c-0.146-0.499-0.218-0.976-0.218-1.434c0-1.037,0.301-2.189,0.903-3.457c0.602-1.266,1.567-2.916,2.896-4.951L90.795,18.708z"/>
			<path fill="#FFFFFF" d="M141.496,30.917c-0.041,0-0.072-0.01-0.094-0.031c-0.021-0.021-0.052-0.031-0.093-0.031
				c-0.167,0-0.291-0.021-0.374-0.063c-0.332,0.707-0.645,1.299-0.934,1.775c-0.291,0.478-0.686,1.008-1.184,1.588
				c-1.08,1.371-2.108,2.326-3.084,2.865c-0.976,0.541-1.837,0.914-2.584,1.121c-0.167,0.083-0.333,0.135-0.498,0.156
				c-0.167,0.02-0.334,0.051-0.499,0.094c-0.831,0.165-1.567,0.176-2.211,0.031c-0.644-0.146-1.193-0.385-1.651-0.717
				c-0.456-0.332-0.84-0.705-1.152-1.121c-0.311-0.415-0.549-0.811-0.716-1.184c-0.331-0.789-0.487-1.588-0.468-2.398
				c0.021-0.81,0.198-1.691,0.53-2.646c0.249-0.789,0.685-1.682,1.308-2.679s1.35-1.972,2.18-2.928
				c0.041-0.04,0.084-0.083,0.125-0.124s0.104-0.104,0.188-0.188c0.082-0.082,0.155-0.165,0.218-0.249
				c0.062-0.083,0.176-0.187,0.343-0.312c0.871-0.871,2.086-1.732,3.644-2.584s3.228-1.36,5.015-1.527
				c0.498,0,0.975,0.084,1.432,0.25c0.374,0.125,0.727,0.342,1.059,0.654c0.332,0.311,0.561,0.777,0.686,1.4
				c0,0.291,0,0.489,0,0.592c0,0.104-0.041,0.26-0.125,0.468c-0.041,0.083-0.083,0.155-0.124,0.218
				c-0.042,0.063-0.083,0.135-0.124,0.219h-0.063c-0.042,0.124-0.125,0.207-0.25,0.248c-0.124,0.043-0.248,0.063-0.373,0.063
				c-0.249,0-0.373-0.165-0.373-0.498c0.082-0.125,0.082-0.228,0-0.312c-0.084-0.498-0.521-0.685-1.309-0.561
				c-0.333,0.083-0.925,0.343-1.775,0.778c-0.852,0.437-1.859,1.215-3.021,2.336c-0.207,0.209-0.395,0.416-0.561,0.623
				c-0.166,0.208-0.332,0.416-0.498,0.623c-0.208,0.125-0.332,0.249-0.373,0.373c-0.25,0.334-0.498,0.654-0.748,0.966
				c-0.249,0.312-0.498,0.696-0.747,1.152c-0.706,1.121-1.215,2.097-1.526,2.928c-0.311,0.831-0.509,1.682-0.592,2.554
				c0.041,0.789,0.26,1.299,0.654,1.525c0.395,0.229,0.872,0.281,1.433,0.156s1.152-0.383,1.775-0.779
				c0.622-0.394,1.183-0.799,1.682-1.214c0.415-0.415,0.694-0.685,0.841-0.81c0.145-0.125,0.383-0.374,0.717-0.748
				c0.623-0.747,1.017-1.349,1.184-1.807c0.164-0.373,0.186-0.705,0.062-0.996c-0.124-0.29-0.28-0.592-0.468-0.902
				c-0.186-0.313-0.342-0.654-0.467-1.028c-0.124-0.374-0.084-0.851,0.125-1.433c0.125-0.29,0.238-0.55,0.342-0.779
				c0.104-0.227,0.239-0.425,0.406-0.591c0.414-0.499,0.84-0.841,1.276-1.028c0.437-0.187,0.819-0.301,1.152-0.342
				c0.083-0.083,0.187-0.125,0.312-0.125h0.187c0.165,0,0.29,0.042,0.374,0.125c0.207,0.041,0.395,0.187,0.561,0.436
				c0.082,0.125,0.125,0.354,0.125,0.686s-0.031,0.706-0.094,1.121c-0.063,0.416-0.125,0.82-0.188,1.215s-0.115,0.716-0.155,0.965
				c-0.042,0.166-0.073,0.333-0.094,0.498c-0.021,0.167-0.073,0.354-0.155,0.561c0.125,0,0.207-0.02,0.249-0.063
				c0.622-0.124,1.142-0.279,1.558-0.467c0.414-0.187,0.726-0.32,0.934-0.404c0.457-0.207,0.799-0.353,1.027-0.437
				c0.229-0.083,0.344,0.042,0.344,0.374c-0.043,0.084-0.063,0.187-0.063,0.312v0.124c0,0.209-0.073,0.458-0.219,0.748
				c-0.146,0.291-0.446,0.561-0.902,0.81c-0.291,0.167-0.696,0.302-1.215,0.405C142.877,31.052,142.244,31.041,141.496,30.917z"/>
			<path fill="#FFFFFF" d="M164.543,29.235c0.331-0.374,0.622-0.645,0.871-0.811c0.207-0.124,0.405-0.134,0.592-0.031
				c0.188,0.104,0.238,0.447,0.156,1.028c0,0.167-0.042,0.353-0.125,0.561c-0.084,0.208-0.197,0.458-0.342,0.747
				c-0.146,0.291-0.385,0.603-0.717,0.935c-0.333,0.374-0.77,0.841-1.309,1.401c-0.54,0.561-1.08,1.111-1.619,1.65
				c-0.54,0.541-1.027,1.027-1.464,1.464s-0.716,0.716-0.841,0.841c-0.707,0.623-1.433,0.955-2.18,0.997
				c-0.748,0.04-1.454-0.165-2.118-0.623c-0.582-0.374-1.143-0.997-1.682-1.868c-0.54-0.873-0.685-1.973-0.437-3.302
				c0.166-0.456,0.363-1.007,0.592-1.65s0.529-1.256,0.904-1.838c0.289-0.456,0.591-0.923,0.902-1.401
				c0.312-0.477,0.633-0.943,0.965-1.401c0.084-0.124,0.188-0.27,0.313-0.437c0.124-0.165,0.228-0.342,0.311-0.529
				c0.084-0.187,0.125-0.342,0.125-0.467s-0.104-0.207-0.312-0.249c-0.249-0.041-0.789,0.249-1.619,0.872
				c-0.831,0.623-1.775,1.381-2.834,2.273c-1.06,0.894-2.14,1.848-3.239,2.865c-1.101,1.018-2.024,1.9-2.771,2.646
				c-0.125,0.291-0.25,0.645-0.374,1.06s-0.208,0.789-0.249,1.121c0,0.499,0.082,0.852,0.249,1.06h0.437
				c0.414,0.083,0.539,0.353,0.373,0.809c0,0.043-0.021,0.084-0.063,0.125c0,0.042-0.021,0.063-0.063,0.063
				c0,0.125-0.062,0.208-0.186,0.249c-0.043,0.042-0.167,0.124-0.375,0.249c-0.248,0.209-0.582,0.332-0.996,0.374
				c-0.539,0.04-0.996-0.021-1.37-0.187h-0.063c-0.04,0-0.083-0.021-0.124-0.063c-0.332-0.125-0.498-0.229-0.498-0.313
				c-0.873-0.622-1.267-1.535-1.184-2.74c0-0.539,0.104-1.162,0.311-1.868c0.042-0.083,0.063-0.165,0.063-0.249
				c0.042,0,0.063-0.041,0.063-0.125c0.373-1.246,0.934-2.543,1.682-3.893s1.516-2.626,2.305-3.831
				c0.207-0.331,0.395-0.663,0.561-0.997c0.166-0.331,0.29-0.622,0.373-0.871h-0.062h0.062v-0.125v-0.436v-0.188
				c-0.041-0.082-0.062-0.207-0.062-0.373c0-0.207,0.062-0.395,0.187-0.561c0.083-0.125,0.229-0.238,0.437-0.343
				c0.207-0.104,0.519-0.155,0.935-0.155c0.082,0,0.155,0.01,0.218,0.03c0.062,0.021,0.134,0.031,0.218,0.031
				c0.373,0.124,0.758,0.322,1.152,0.592c0.395,0.271,0.748,0.592,1.059,0.966c0.312,0.373,0.52,0.789,0.623,1.246
				s0.052,0.934-0.156,1.432c-0.083,0.125-0.155,0.25-0.217,0.374c-0.063,0.124-0.136,0.271-0.219,0.437
				c-0.084,0.124-0.177,0.26-0.28,0.404c-0.104,0.146-0.239,0.322-0.405,0.529V26.68c-0.166,0.25-0.291,0.416-0.373,0.498
				c0.872-0.787,1.775-1.557,2.709-2.305c0.935-0.746,1.838-1.422,2.71-2.023s1.691-1.068,2.46-1.402
				c0.768-0.331,1.422-0.477,1.963-0.436h0.062c0.913,0.125,1.547,0.426,1.899,0.903c0.354,0.478,0.509,1.06,0.468,1.744
				c-0.042,0.685-0.271,1.443-0.685,2.273c-0.416,0.831-0.936,1.661-1.558,2.491c-0.084,0.084-0.146,0.166-0.187,0.25
				c-0.043,0.083-0.104,0.166-0.188,0.248c-0.084,0.125-0.166,0.24-0.249,0.344s-0.167,0.197-0.249,0.279l-0.872,1.184v0.063
				c-0.872,1.205-1.536,2.211-1.993,3.021c-0.457,0.809-0.436,1.381,0.063,1.713c0.165,0.124,0.414,0.146,0.747,0.063
				c0.249-0.084,0.581-0.25,0.997-0.499c0.414-0.249,0.912-0.663,1.494-1.245s1.121-1.152,1.619-1.713
				c0.499-0.561,0.955-1.069,1.371-1.527C163.691,30.106,164.127,29.65,164.543,29.235z"/>
			<path fill="#FFFFFF" d="M174.133,29.11c0.291-0.374,0.561-0.644,0.811-0.81c0.207-0.125,0.395-0.135,0.561-0.031
				c0.166,0.104,0.27,0.446,0.311,1.028c0.041,0.166,0.041,0.353,0,0.561c-0.041,0.207-0.124,0.457-0.248,0.746
				c-0.125,0.291-0.333,0.604-0.623,0.936c-0.291,0.373-0.665,0.84-1.121,1.4c-0.457,0.561-0.914,1.111-1.371,1.651
				s-0.861,1.027-1.214,1.464c-0.354,0.436-0.592,0.716-0.716,0.84c-0.582,0.623-1.258,0.967-2.025,1.028
				c-0.769,0.063-1.506-0.134-2.211-0.592c-0.29-0.165-0.612-0.415-0.965-0.747c-0.354-0.332-0.664-0.717-0.936-1.152
				c-0.27-0.436-0.498-0.935-0.685-1.495s-0.259-1.152-0.218-1.774c0.084-0.457,0.197-1.007,0.342-1.651
				c0.146-0.644,0.365-1.255,0.654-1.837c0.291-0.706,0.623-1.391,0.997-2.057c0.374-0.663,0.726-1.266,1.059-1.806
				c0.374-0.623,0.747-1.225,1.122-1.806c0.663-0.997,1.369-2.076,2.117-3.24c0.748-1.162,1.349-2.117,1.807-2.865
				c-2.118,0-3.842-0.103-5.17-0.311c-1.328-0.207-2.367-0.445-3.115-0.717c-0.747-0.27-1.245-0.539-1.494-0.81
				c-0.25-0.27-0.332-0.468-0.25-0.592c0.167-0.374,0.416-0.519,0.748-0.437c0.166,0.043,0.312,0.146,0.436,0.313
				c0.125,0.166,0.645,0.291,1.558,0.373c0.914,0.084,1.931,0.125,3.052,0.125s2.211-0.021,3.271-0.063
				c1.059-0.041,1.815-0.082,2.273-0.125c-0.333-0.58-0.561-1.109-0.685-1.588c-0.125-0.477,0-1.131,0.373-1.962
				c0.414-0.872,0.872-1.526,1.371-1.962c0.498-0.437,0.975-0.758,1.432-0.966c0.498-0.207,1.018-0.312,1.558-0.312
				c0.788,0.084,1.483,0.561,2.087,1.433c0.602,0.872,0.757,1.828,0.467,2.865h-0.063c-0.041,0.167-0.146,0.458-0.312,0.872
				c-0.083,0.166-0.177,0.354-0.28,0.561c-0.104,0.209-0.239,0.457-0.404,0.748c1.203-0.332,2.429-0.623,3.674-0.873
				c1.246-0.248,2.367-0.414,3.364-0.498c1.121-0.082,1.993-0.01,2.616,0.219s1.09,0.529,1.401,0.902
				c0.312,0.374,0.508,0.748,0.592,1.121c0.083,0.374,0.124,0.645,0.124,0.811c-0.041,0.498-0.124,0.914-0.248,1.246
				c-0.125,0.291-0.291,0.539-0.499,0.746c-0.208,0.209-0.478,0.209-0.81,0c-0.25-0.124-0.645-0.311-1.184-0.561
				c-0.54-0.248-1.225-0.477-2.056-0.685c-0.831-0.207-1.796-0.343-2.896-0.405c-1.102-0.063-2.316,0.031-3.645,0.281
				c-0.333,0.083-0.654,0.155-0.965,0.217c-0.313,0.063-0.635,0.136-0.966,0.219c-0.042,0-0.146,0.042-0.312,0.125
				c-0.707,1.08-1.464,2.222-2.273,3.426c-0.811,1.205-1.588,2.367-2.336,3.488s-1.433,2.148-2.056,3.082
				c-0.622,0.936-1.101,1.672-1.433,2.212l-0.686,1.245c-0.706,1.205-1.068,2.211-1.09,3.021c-0.021,0.81,0.238,1.381,0.779,1.713
				c0.249,0.125,0.519,0.146,0.81,0.063c0.249-0.083,0.561-0.25,0.935-0.498c0.373-0.25,0.788-0.664,1.246-1.246
				c0.455-0.581,0.902-1.142,1.338-1.682c0.437-0.539,0.82-1.037,1.152-1.495C173.427,30.044,173.801,29.567,174.133,29.11z
				 M175.69,10.05c-0.415,0.043-0.831,0.365-1.245,0.966c-0.416,0.603-0.561,1.276-0.437,2.024c0.374-0.581,0.654-1.048,0.841-1.401
				c0.188-0.353,0.343-0.633,0.467-0.841c0.125-0.207,0.208-0.363,0.25-0.467C175.607,10.227,175.648,10.134,175.69,10.05z"/>
			<path fill="#FFFFFF" d="M185.158,30.667c-1.162,1.786-2.305,3.323-3.426,4.609c-0.498,0.541-1.007,1.049-1.525,1.526
				c-0.52,0.478-1.049,0.862-1.589,1.152s-1.059,0.468-1.558,0.529c-0.498,0.063-0.976-0.052-1.432-0.343
				c-0.873-0.623-1.526-1.339-1.963-2.148c-0.436-0.811-0.694-1.672-0.778-2.585c-0.083-0.913-0.009-1.827,0.218-2.741
				c0.229-0.912,0.572-1.764,1.028-2.553c0.415-0.748,1.049-1.567,1.899-2.461c0.852-0.893,1.816-1.713,2.896-2.461l0.374-0.248
				c0.083-0.083,0.165-0.135,0.249-0.156c0.082-0.021,0.188-0.072,0.312-0.156c1.079-0.663,2.45-1.245,4.11-1.744
				c1.66-0.498,3.426-0.58,5.295-0.248c0.498,0.124,0.955,0.311,1.37,0.561c0.332,0.208,0.633,0.52,0.903,0.934
				c0.27,0.416,0.426,0.956,0.467,1.619c-0.041,0.291-0.072,0.499-0.094,0.623c-0.021,0.125-0.072,0.271-0.155,0.437
				c-0.124,0.208-0.249,0.333-0.374,0.374v0.063c-0.166,0.083-0.291,0.124-0.373,0.124c-0.125,0-0.229-0.021-0.312-0.063
				c-0.208-0.083-0.291-0.27-0.249-0.561v-0.374c-0.084-0.498-0.479-0.788-1.184-0.871c-0.373-0.083-1.039,0-1.993,0.248
				c-0.956,0.25-2.097,0.79-3.426,1.62c-0.249,0.124-0.489,0.271-0.716,0.437c-0.229,0.166-0.468,0.332-0.717,0.498
				c-0.084,0.084-0.146,0.135-0.188,0.155c-0.041,0.021-0.104,0.073-0.187,0.155h-0.062c-0.582,0.458-1.205,1.019-1.869,1.683
				c-0.623,0.706-1.256,1.485-1.9,2.335c-0.644,0.852-1.174,1.662-1.588,2.43c-0.416,0.77-0.664,1.443-0.747,2.024
				c-0.083,0.582,0.124,0.956,0.622,1.121c0.415,0.124,1.091-0.196,2.025-0.966c0.934-0.768,1.909-1.691,2.928-2.771
				c1.016-1.079,1.992-2.18,2.927-3.301s1.63-1.973,2.087-2.555c0.041,0,0.063-0.01,0.063-0.031c0-0.02,0.02-0.03,0.063-0.03
				c0.373-0.456,0.809-0.861,1.308-1.215c0.498-0.353,1.037-0.425,1.619-0.218c1.079,0.332,1.765,0.81,2.056,1.433
				c0.29,0.622,0.27,1.226-0.063,1.806v0.063v0.063c-0.041,0-0.063,0.021-0.063,0.063s-0.01,0.063-0.031,0.063
				s-0.031,0.021-0.031,0.063l-0.062,0.062v0.063l-0.063,0.063c-0.083,0.083-0.146,0.187-0.187,0.312
				c-0.042,0.125-0.104,0.229-0.188,0.311v0.063c-0.041,0-0.063,0.021-0.063,0.063v0.063c-0.041,0-0.063,0.021-0.063,0.063
				l-0.062,0.063v0.063c-0.042,0-0.063,0.021-0.063,0.062c-0.374,0.623-0.728,1.226-1.059,1.807
				c-0.333,0.581-0.592,1.132-0.778,1.65c-0.188,0.52-0.281,0.966-0.281,1.339c0,0.374,0.125,0.645,0.375,0.811
				c0.207,0.124,0.477,0.146,0.809,0.063c0.25-0.084,0.57-0.25,0.966-0.499c0.394-0.249,0.841-0.685,1.339-1.308
				c0.498-0.582,0.976-1.143,1.433-1.682s0.872-1.038,1.246-1.496c0.456-0.498,0.872-0.975,1.246-1.432
				c0.29-0.374,0.561-0.644,0.81-0.811c0.207-0.124,0.394-0.134,0.561-0.031c0.165,0.105,0.249,0.447,0.249,1.028
				c0,0.208-0.021,0.415-0.063,0.623c-0.083,0.208-0.177,0.446-0.28,0.716c-0.104,0.271-0.302,0.572-0.592,0.903
				c-0.333,0.374-0.747,0.841-1.245,1.401c-0.499,0.561-0.997,1.111-1.495,1.65c-0.498,0.541-0.935,1.028-1.309,1.465
				c-0.373,0.436-0.623,0.716-0.747,0.84c-0.623,0.623-1.319,0.966-2.087,1.028c-0.769,0.062-1.506-0.134-2.211-0.592
				c-0.373-0.249-0.77-0.57-1.184-0.966c-0.416-0.395-0.769-0.881-1.059-1.463c-0.291-0.582-0.467-1.225-0.529-1.932
				C184.691,32.329,184.826,31.54,185.158,30.667z"/>
			<path fill="#FFFFFF" d="M216.489,29.235c0.332-0.374,0.623-0.645,0.872-0.811c0.207-0.124,0.404-0.134,0.592-0.031
				c0.187,0.104,0.238,0.447,0.155,1.028c0,0.167-0.042,0.353-0.124,0.561c-0.084,0.208-0.198,0.458-0.343,0.747
				c-0.146,0.291-0.385,0.603-0.717,0.935c-0.333,0.374-0.769,0.841-1.308,1.401c-0.54,0.561-1.08,1.111-1.619,1.65
				c-0.541,0.541-1.028,1.027-1.464,1.464c-0.437,0.437-0.717,0.716-0.841,0.841c-0.707,0.623-1.433,0.955-2.181,0.997
				c-0.747,0.04-1.454-0.165-2.117-0.623c-0.582-0.374-1.143-0.997-1.683-1.868c-0.54-0.873-0.685-1.973-0.436-3.302
				c0.165-0.456,0.363-1.007,0.592-1.65c0.228-0.644,0.529-1.256,0.903-1.838c0.29-0.456,0.592-0.923,0.903-1.401
				c0.312-0.477,0.632-0.943,0.965-1.401c0.083-0.124,0.188-0.27,0.312-0.437c0.125-0.165,0.228-0.342,0.312-0.529
				c0.083-0.187,0.125-0.342,0.125-0.467s-0.104-0.207-0.312-0.249c-0.249-0.041-0.79,0.249-1.62,0.872
				c-0.831,0.623-1.774,1.381-2.834,2.273c-1.059,0.894-2.139,1.848-3.238,2.865c-1.102,1.018-2.024,1.9-2.772,2.646
				c-0.124,0.291-0.249,0.645-0.373,1.06c-0.125,0.415-0.209,0.789-0.25,1.121c0,0.499,0.083,0.852,0.25,1.06h0.436
				c0.415,0.083,0.539,0.353,0.374,0.809c0,0.043-0.021,0.084-0.063,0.125c0,0.042-0.021,0.063-0.063,0.063
				c0,0.125-0.063,0.208-0.187,0.249c-0.042,0.042-0.167,0.124-0.374,0.249c-0.249,0.209-0.582,0.332-0.996,0.374
				c-0.539,0.04-0.997-0.021-1.371-0.187h-0.062c-0.041,0-0.083-0.021-0.125-0.063c-0.332-0.125-0.498-0.229-0.498-0.313
				c-0.872-0.622-1.267-1.535-1.184-2.74c0-0.539,0.104-1.162,0.312-1.868c0.042-0.083,0.063-0.165,0.063-0.249
				c0.042,0,0.062-0.041,0.062-0.125c0.374-1.246,0.935-2.543,1.683-3.893c0.747-1.35,1.515-2.626,2.305-3.831
				c0.207-0.331,0.394-0.663,0.561-0.997c0.165-0.331,0.29-0.622,0.373-0.871h-0.063h0.063v-0.125v-0.436v-0.188
				c-0.042-0.082-0.063-0.207-0.063-0.373c0-0.207,0.063-0.395,0.188-0.561c0.083-0.125,0.228-0.238,0.436-0.343
				c0.208-0.104,0.519-0.155,0.935-0.155c0.083,0,0.155,0.01,0.218,0.03c0.063,0.021,0.135,0.031,0.218,0.031
				c0.374,0.124,0.758,0.322,1.152,0.592c0.395,0.271,0.748,0.592,1.06,0.966c0.312,0.373,0.519,0.789,0.623,1.246
				c0.103,0.457,0.051,0.934-0.156,1.432c-0.084,0.125-0.155,0.25-0.218,0.374s-0.136,0.271-0.218,0.437
				c-0.084,0.124-0.178,0.26-0.28,0.404c-0.104,0.146-0.24,0.322-0.405,0.529V26.68c-0.166,0.25-0.291,0.416-0.374,0.498
				c0.872-0.787,1.775-1.557,2.71-2.305c0.935-0.746,1.837-1.422,2.709-2.023s1.691-1.068,2.461-1.402
				c0.768-0.331,1.422-0.477,1.962-0.436h0.063c0.913,0.125,1.546,0.426,1.899,0.903c0.353,0.478,0.508,1.06,0.467,1.744
				s-0.271,1.443-0.685,2.273c-0.416,0.831-0.935,1.661-1.558,2.491c-0.083,0.084-0.146,0.166-0.187,0.25
				c-0.042,0.083-0.104,0.166-0.187,0.248c-0.084,0.125-0.167,0.24-0.25,0.344s-0.166,0.197-0.249,0.279l-0.872,1.184v0.063
				c-0.872,1.205-1.536,2.211-1.993,3.021c-0.457,0.809-0.436,1.381,0.063,1.713c0.166,0.124,0.415,0.146,0.748,0.063
				c0.249-0.084,0.58-0.25,0.996-0.499c0.415-0.249,0.913-0.663,1.495-1.245c0.581-0.582,1.121-1.152,1.619-1.713
				s0.955-1.069,1.37-1.527C215.638,30.106,216.073,29.65,216.489,29.235z"/>
			<path fill="#FFFFFF" d="M227.45,30.667c-1.163,1.786-2.305,3.323-3.426,4.609c-0.498,0.541-1.007,1.049-1.525,1.526
				c-0.521,0.478-1.05,0.862-1.589,1.152c-0.54,0.29-1.059,0.468-1.557,0.529c-0.499,0.063-0.977-0.052-1.433-0.343
				c-0.872-0.623-1.526-1.339-1.962-2.148c-0.437-0.811-0.695-1.672-0.779-2.585c-0.082-0.913-0.01-1.827,0.218-2.741
				c0.229-0.912,0.571-1.764,1.028-2.553c0.415-0.748,1.049-1.567,1.899-2.461c0.851-0.893,1.816-1.713,2.896-2.461l0.374-0.248
				c0.083-0.083,0.165-0.135,0.249-0.156c0.083-0.021,0.187-0.072,0.312-0.156c1.079-0.663,2.449-1.245,4.11-1.744
				c1.661-0.498,3.426-0.58,5.295-0.248c0.498,0.124,0.955,0.311,1.37,0.561c0.332,0.208,0.633,0.52,0.903,0.934
				c0.27,0.416,0.426,0.956,0.467,1.619c-0.041,0.291-0.072,0.499-0.093,0.623c-0.021,0.125-0.073,0.271-0.156,0.437
				c-0.124,0.208-0.249,0.333-0.373,0.374v0.063c-0.167,0.083-0.291,0.124-0.374,0.124c-0.125,0-0.229-0.021-0.312-0.063
				c-0.208-0.083-0.291-0.27-0.249-0.561v-0.374c-0.084-0.498-0.479-0.788-1.184-0.871c-0.374-0.083-1.038,0-1.993,0.248
				c-0.956,0.25-2.098,0.79-3.426,1.62c-0.249,0.124-0.488,0.271-0.717,0.437s-0.467,0.332-0.716,0.498
				c-0.084,0.084-0.146,0.135-0.187,0.155c-0.042,0.021-0.104,0.073-0.188,0.155h-0.063c-0.582,0.458-1.204,1.019-1.868,1.683
				c-0.623,0.706-1.257,1.485-1.899,2.335c-0.645,0.852-1.174,1.662-1.589,2.43c-0.415,0.77-0.665,1.443-0.747,2.024
				c-0.083,0.582,0.124,0.956,0.623,1.121c0.414,0.124,1.09-0.196,2.024-0.966c0.934-0.768,1.909-1.691,2.927-2.771
				c1.018-1.079,1.993-2.18,2.928-3.301s1.629-1.973,2.087-2.555c0.041,0,0.063-0.01,0.063-0.031c0-0.02,0.02-0.03,0.062-0.03
				c0.374-0.456,0.81-0.861,1.309-1.215c0.498-0.353,1.037-0.425,1.619-0.218c1.079,0.332,1.765,0.81,2.056,1.433
				c0.29,0.622,0.27,1.226-0.063,1.806v0.063v0.063c-0.042,0-0.063,0.021-0.063,0.063s-0.011,0.063-0.031,0.063
				s-0.03,0.021-0.03,0.063l-0.063,0.062v0.063l-0.063,0.063c-0.084,0.083-0.146,0.187-0.187,0.312
				c-0.042,0.125-0.104,0.229-0.188,0.311v0.063c-0.042,0-0.062,0.021-0.062,0.063v0.063c-0.042,0-0.063,0.021-0.063,0.063
				l-0.063,0.063v0.063c-0.042,0-0.063,0.021-0.063,0.062c-0.374,0.623-0.727,1.226-1.059,1.807
				c-0.333,0.581-0.592,1.132-0.778,1.65c-0.188,0.52-0.28,0.966-0.28,1.339c0,0.374,0.124,0.645,0.373,0.811
				c0.208,0.124,0.478,0.146,0.81,0.063c0.25-0.084,0.57-0.25,0.966-0.499c0.395-0.249,0.841-0.685,1.339-1.308
				c0.499-0.582,0.976-1.143,1.433-1.682s0.872-1.038,1.246-1.496c0.456-0.498,0.872-0.975,1.246-1.432
				c0.29-0.374,0.561-0.644,0.81-0.811c0.207-0.124,0.394-0.134,0.561-0.031c0.165,0.105,0.249,0.447,0.249,1.028
				c0,0.208-0.021,0.415-0.063,0.623c-0.083,0.208-0.177,0.446-0.28,0.716c-0.104,0.271-0.302,0.572-0.592,0.903
				c-0.333,0.374-0.747,0.841-1.245,1.401c-0.499,0.561-0.997,1.111-1.495,1.65c-0.498,0.541-0.935,1.028-1.309,1.465
				c-0.373,0.436-0.622,0.716-0.747,0.84c-0.623,0.623-1.318,0.966-2.087,1.028c-0.769,0.062-1.505-0.134-2.211-0.592
				c-0.374-0.249-0.769-0.57-1.184-0.966c-0.415-0.395-0.769-0.881-1.059-1.463c-0.291-0.582-0.467-1.225-0.529-1.932
				C226.983,32.329,227.117,31.54,227.45,30.667z"/>
		</g>
	</g>
</g>
</svg>
