<?xml version="1.0" encoding="utf-8"?>
<!-- Generator: Adobe Illustrator 16.0.0, SVG Export Plug-In . SVG Version: 6.00 Build 0)  -->
<!DOCTYPE svg PUBLIC "-//W3C//DTD SVG 1.1//EN" "http://www.w3.org/Graphics/SVG/1.1/DTD/svg11.dtd">
<svg version="1.1" id="Layer_1" xmlns="http://www.w3.org/2000/svg" xmlns:xlink="http://www.w3.org/1999/xlink" x="0px" y="0px"
	 width="1068px" height="540px" viewBox="0 0 1068 540" enable-background="new 0 0 1068 540" xml:space="preserve">
<g>
	<defs>
		<rect id="SVGID_1_" width="1068.846" height="540"/>
	</defs>
	<clipPath id="SVGID_2_">
		<use xlink:href="#SVGID_1_"  overflow="visible"/>
	</clipPath>
	<g clip-path="url(#SVGID_2_)">
		<g>
			<polygon id="triangle36_188_" fill="none" stroke="#FFFFFF" stroke-width="0.5" stroke-miterlimit="10" points="60.082,-10.184 
				66.711,36.379 17.263,-9.656 			"/>
			<polygon id="triangle36_187_" fill="none" stroke="#FFFFFF" stroke-width="0.5" stroke-miterlimit="10" points="66.711,36.379 
				52.988,76.672 17.263,-9.656 			"/>
			<polygon fill="none" stroke="#FFFFFF" stroke-width="0.5" stroke-miterlimit="10" points="247.715,-60.702 284.229,-35.993 
				297.842,-61.917 			"/>
			<polygon fill="none" stroke="#FFFFFF" stroke-width="0.5" stroke-miterlimit="10" points="243.363,-60.598 231.883,-25.042 
				284.229,-35.993 247.715,-60.702 			"/>
			<polygon id="triangle36_186_" fill="none" stroke="#FFFFFF" stroke-width="0.5" stroke-miterlimit="10" points="134.629,-37.247 
				109.58,13.995 89.324,-25.115 			"/>
			<polygon id="triangle36_185_" fill="none" stroke="#FFFFFF" stroke-width="0.5" stroke-miterlimit="10" points="60.082,-10.184 
				66.711,36.379 89.324,-25.115 			"/>
			<polygon id="triangle36_184_" fill="none" stroke="#FFFFFF" stroke-width="0.5" stroke-miterlimit="10" points="109.58,13.995 
				66.711,36.379 89.324,-25.115 			"/>
			<polygon id="triangle36_183_" fill="none" stroke="#FFFFFF" stroke-width="0.5" stroke-miterlimit="10" points="-12.031,132.405 
				14.73,202.286 -24.77,162.483 			"/>
			<polygon fill="none" stroke="#FFFFFF" stroke-width="0.5" stroke-miterlimit="10" points="-24.764,202.666 14.73,202.286 
				-24.77,162.483 -25.728,165.484 			"/>
			<polygon id="triangle36_182_" fill="none" stroke="#FFFFFF" stroke-width="0.5" stroke-miterlimit="10" points="231.883,-25.042 
				231.89,16.093 205.851,10.306 			"/>
			<polygon id="triangle36_181_" fill="none" stroke="#FFFFFF" stroke-width="0.5" stroke-miterlimit="10" points="231.89,16.093 
				205.851,10.306 205.417,43.55 			"/>
			<polygon id="triangle36_180_" fill="none" stroke="#FFFFFF" stroke-width="0.5" stroke-miterlimit="10" points="134.629,-37.247 
				109.58,13.995 146.583,27.901 			"/>
			<polygon fill="none" stroke="#FFFFFF" stroke-width="0.5" stroke-miterlimit="10" points="130.191,-57.856 134.629,-37.247 
				161.298,-58.608 			"/>
			<polygon id="triangle36_179_" fill="none" stroke="#FFFFFF" stroke-width="0.5" stroke-miterlimit="10" points="-12.031,132.405 
				14.73,202.286 36.408,139.942 			"/>
			<polygon id="triangle36_178_" fill="none" stroke="#FFFFFF" stroke-width="0.5" stroke-miterlimit="10" points="146.583,27.901 
				109.58,13.995 111.958,71.154 			"/>
			<polygon id="triangle36_177_" fill="none" stroke="#FFFFFF" stroke-width="0.5" stroke-miterlimit="10" points="109.58,13.995 
				66.711,36.379 111.958,71.154 			"/>
			<polygon id="triangle36_176_" fill="none" stroke="#FFFFFF" stroke-width="0.5" stroke-miterlimit="10" points="66.711,36.379 
				52.988,76.672 111.958,71.154 			"/>
			<polygon id="triangle36_175_" fill="none" stroke="#FFFFFF" stroke-width="0.5" stroke-miterlimit="10" points="154.076,90.146 
				112.444,124.563 111.958,71.154 			"/>
			<polygon fill="none" stroke="#FFFFFF" stroke-width="0.5" stroke-miterlimit="10" points="-25.728,165.484 -24.77,162.483 
				-25.788,163.131 			"/>
			<polygon fill="none" stroke="#FFFFFF" stroke-width="0.5" stroke-miterlimit="10" points="239.664,-60.507 178.711,-25.453 
				231.883,-25.042 243.363,-60.598 			"/>
			<polygon fill="none" stroke="#FFFFFF" stroke-width="0.5" stroke-miterlimit="10" points="170.272,-58.826 178.711,-25.453 
				239.664,-60.507 			"/>
			<polygon id="triangle36_174_" fill="none" stroke="#FFFFFF" stroke-width="0.5" stroke-miterlimit="10" points="231.883,-25.042 
				205.851,10.306 178.711,-25.453 			"/>
			<polygon fill="none" stroke="#FFFFFF" stroke-width="0.5" stroke-miterlimit="10" points="161.298,-58.608 134.629,-37.247 
				178.711,-25.453 170.272,-58.826 			"/>
			<polygon id="triangle36_173_" fill="none" stroke="#FFFFFF" stroke-width="0.5" stroke-miterlimit="10" points="134.629,-37.247 
				146.583,27.901 178.711,-25.453 			"/>
			<polygon fill="none" stroke="#FFFFFF" stroke-width="0.5" stroke-miterlimit="10" points="306.938,-62.138 358.247,-9.318 
				348.704,-63.15 			"/>
			<polygon fill="none" stroke="#FFFFFF" stroke-width="0.5" stroke-miterlimit="10" points="297.842,-61.917 284.229,-35.993 
				358.247,-9.318 306.938,-62.138 			"/>
			<polygon fill="none" stroke="#FFFFFF" stroke-width="0.5" stroke-miterlimit="10" points="-23.198,263.164 -23.108,263.537 
				14.73,202.286 -24.764,202.666 			"/>
			<polygon id="triangle36_172_" fill="none" stroke="#FFFFFF" stroke-width="0.5" stroke-miterlimit="10" points="284.229,-35.993 
				231.883,-25.042 273.846,20.125 			"/>
			<polygon id="triangle36_171_" fill="none" stroke="#FFFFFF" stroke-width="0.5" stroke-miterlimit="10" points="231.883,-25.042 
				231.89,16.093 273.846,20.125 			"/>
			<polygon id="triangle36_170_" fill="none" stroke="#FFFFFF" stroke-width="0.5" stroke-miterlimit="10" points="178.711,-25.453 
				205.851,10.306 167.824,53.224 			"/>
			<polygon id="triangle36_169_" fill="none" stroke="#FFFFFF" stroke-width="0.5" stroke-miterlimit="10" points="178.711,-25.453 
				146.583,27.901 167.824,53.224 			"/>
			<polygon id="triangle36_168_" fill="none" stroke="#FFFFFF" stroke-width="0.5" stroke-miterlimit="10" points="205.851,10.306 
				205.417,43.55 167.824,53.224 			"/>
			<polygon id="triangle36_167_" fill="none" stroke="#FFFFFF" stroke-width="0.5" stroke-miterlimit="10" points="205.417,43.55 
				215.316,68.136 167.824,53.224 			"/>
			<polygon id="triangle36_166_" fill="none" stroke="#FFFFFF" stroke-width="0.5" stroke-miterlimit="10" points="215.316,68.136 
				154.076,90.146 167.824,53.224 			"/>
			<polygon id="triangle36_165_" fill="none" stroke="#FFFFFF" stroke-width="0.5" stroke-miterlimit="10" points="146.583,27.901 
				111.958,71.154 167.824,53.224 			"/>
			<polygon id="triangle36_164_" fill="none" stroke="#FFFFFF" stroke-width="0.5" stroke-miterlimit="10" points="154.076,90.146 
				111.958,71.154 167.824,53.224 			"/>
			<polygon id="triangle36_163_" fill="none" stroke="#FFFFFF" stroke-width="0.5" stroke-miterlimit="10" points="111.958,71.154 
				52.988,76.672 70.043,107.476 			"/>
			<polygon id="triangle36_162_" fill="none" stroke="#FFFFFF" stroke-width="0.5" stroke-miterlimit="10" points="111.958,71.154 
				112.444,124.563 70.043,107.476 			"/>
			<polygon id="triangle36_161_" fill="none" stroke="#FFFFFF" stroke-width="0.5" stroke-miterlimit="10" points="52.988,76.672 
				36.408,139.942 70.043,107.476 			"/>
			<polygon id="triangle36_160_" fill="none" stroke="#FFFFFF" stroke-width="0.5" stroke-miterlimit="10" points="284.229,-35.993 
				273.846,20.125 336.663,35.264 			"/>
			<polygon id="triangle36_159_" fill="none" stroke="#FFFFFF" stroke-width="0.5" stroke-miterlimit="10" points="358.247,-9.318 
				284.229,-35.993 336.663,35.264 			"/>
			<polygon id="triangle36_158_" fill="none" stroke="#FFFFFF" stroke-width="0.5" stroke-miterlimit="10" points="95.107,274.952 
				14.73,202.286 23.264,266.355 			"/>
			<polygon id="triangle36_157_" fill="none" stroke="#FFFFFF" stroke-width="0.5" stroke-miterlimit="10" points="14.73,202.286 
				-23.108,263.537 23.264,266.355 			"/>
			<polygon id="triangle36_156_" fill="none" stroke="#FFFFFF" stroke-width="0.5" stroke-miterlimit="10" points="-23.108,263.537 
				25.593,316.265 23.264,266.355 			"/>
			<polygon id="triangle36_155_" fill="none" stroke="#FFFFFF" stroke-width="0.5" stroke-miterlimit="10" points="25.593,316.265 
				95.107,274.952 23.264,266.355 			"/>
			<polygon fill="none" stroke="#FFFFFF" stroke-width="0.5" stroke-miterlimit="10" points="-22.018,308.707 25.593,316.265 
				-23.108,263.537 -23.186,263.598 			"/>
			<polygon id="triangle36_154_" fill="none" stroke="#FFFFFF" stroke-width="0.5" stroke-miterlimit="10" points="112.444,124.563 
				70.043,107.476 48.528,190.14 			"/>
			<polygon id="triangle36_153_" fill="none" stroke="#FFFFFF" stroke-width="0.5" stroke-miterlimit="10" points="112.444,124.563 
				115.686,175.607 48.528,190.14 			"/>
			<polygon id="triangle36_152_" fill="none" stroke="#FFFFFF" stroke-width="0.5" stroke-miterlimit="10" points="70.043,107.476 
				36.408,139.942 48.528,190.14 			"/>
			<polygon id="triangle36_151_" fill="none" stroke="#FFFFFF" stroke-width="0.5" stroke-miterlimit="10" points="94.731,274.615 
				14.73,202.286 48.528,190.14 			"/>
			<polygon id="triangle36_150_" fill="none" stroke="#FFFFFF" stroke-width="0.5" stroke-miterlimit="10" points="36.408,139.942 
				14.73,202.286 48.528,190.14 			"/>
			<polygon fill="none" stroke="#FFFFFF" stroke-width="0.5" stroke-miterlimit="10" points="-21.35,334.5 23.255,364.828 
				25.593,316.265 -22.018,308.707 			"/>
			<polygon fill="none" stroke="#FFFFFF" stroke-width="0.5" stroke-miterlimit="10" points="-31.411,-53.94 -31.094,-41.701 
				-28.817,-37.176 5.357,-54.831 			"/>
			<polygon fill="none" stroke="#FFFFFF" stroke-width="0.5" stroke-miterlimit="10" points="5.357,-54.831 -28.817,-37.176 
				17.263,-9.656 14.577,-55.054 			"/>
			<polygon fill="none" stroke="#FFFFFF" stroke-width="0.5" stroke-miterlimit="10" points="-30.976,-37.098 -28.817,-37.176 
				-31.094,-41.701 			"/>
			<polygon fill="none" stroke="#FFFFFF" stroke-width="0.5" stroke-miterlimit="10" points="-30.938,-35.68 -28.817,-37.176 
				-30.976,-37.098 			"/>
			<polygon id="triangle36_149_" fill="none" stroke="#FFFFFF" stroke-width="0.5" stroke-miterlimit="10" points="17.263,-9.656 
				-28.817,-37.176 -15.785,61.161 			"/>
			<polygon id="triangle36_148_" fill="none" stroke="#FFFFFF" stroke-width="0.5" stroke-miterlimit="10" points="17.263,-9.656 
				52.988,76.672 -15.785,61.161 			"/>
			<polygon fill="none" stroke="#FFFFFF" stroke-width="0.5" stroke-miterlimit="10" points="-28.831,45.699 -15.785,61.161 
				-28.817,-37.176 -30.938,-35.68 			"/>
			<polygon id="triangle36_147_" fill="none" stroke="#FFFFFF" stroke-width="0.5" stroke-miterlimit="10" points="52.988,76.672 
				36.408,139.942 -15.785,61.161 			"/>
			<polygon fill="none" stroke="#FFFFFF" stroke-width="0.5" stroke-miterlimit="10" points="-28.606,54.365 -15.785,61.161 
				-28.831,45.699 			"/>
			<polygon fill="none" stroke="#FFFFFF" stroke-width="0.5" stroke-miterlimit="10" points="-28.35,64.265 -15.785,61.161 
				-28.606,54.365 			"/>
			<polygon id="triangle36_146_" fill="none" stroke="#FFFFFF" stroke-width="0.5" stroke-miterlimit="10" points="36.408,139.942 
				-12.031,132.405 -15.785,61.161 			"/>
			<polygon id="triangle36_145_" fill="none" stroke="#FFFFFF" stroke-width="0.5" stroke-miterlimit="10" points="-12.031,132.405 
				-24.77,162.483 -15.785,61.161 			"/>
			<polygon fill="none" stroke="#FFFFFF" stroke-width="0.5" stroke-miterlimit="10" points="-25.845,160.954 -24.77,162.483 
				-15.785,61.161 -28.35,64.265 			"/>
			<polygon fill="none" stroke="#FFFFFF" stroke-width="0.5" stroke-miterlimit="10" points="73.976,-56.494 62.434,-52.798 
				134.629,-37.247 130.191,-57.856 			"/>
			<polygon fill="none" stroke="#FFFFFF" stroke-width="0.5" stroke-miterlimit="10" points="62.885,-56.225 62.434,-52.798 
				73.976,-56.494 			"/>
			<polygon id="triangle36_110_" fill="none" stroke="#FFFFFF" stroke-width="0.5" stroke-miterlimit="10" points="134.629,-37.247 
				89.324,-25.115 62.434,-52.798 			"/>
			<polygon fill="none" stroke="#FFFFFF" stroke-width="0.5" stroke-miterlimit="10" points="41.432,-55.706 62.434,-52.798 
				62.885,-56.225 			"/>
			<polygon id="triangle36_109_" fill="none" stroke="#FFFFFF" stroke-width="0.5" stroke-miterlimit="10" points="89.324,-25.115 
				60.082,-10.184 62.434,-52.798 			"/>
			<polygon id="triangle36_102_" fill="none" stroke="#FFFFFF" stroke-width="0.5" stroke-miterlimit="10" points="60.082,-10.184 
				17.263,-9.656 62.434,-52.798 			"/>
			<polygon fill="none" stroke="#FFFFFF" stroke-width="0.5" stroke-miterlimit="10" points="14.577,-55.054 17.263,-9.656 
				62.434,-52.798 41.432,-55.706 			"/>
			<polygon fill="none" stroke="#FFFFFF" stroke-width="0.5" stroke-miterlimit="10" points="374.657,-63.778 420.346,-47.902 
				404.342,-64.497 			"/>
			<polyline fill="none" stroke="#FFFFFF" stroke-width="0.5" stroke-miterlimit="10" points="358.247,-9.318 420.346,-47.902 
				435.05,-4.416 472.578,-45.622 420.346,-47.902 			"/>
			
				<line fill="none" stroke="#FFFFFF" stroke-width="0.5" stroke-miterlimit="10" x1="435.05" y1="-4.416" x2="462.608" y2="35.171"/>
		</g>
		<circle fill="none" stroke="#FFFFFF" stroke-width="0.5" stroke-miterlimit="10" cx="114.65" cy="174.436" r="2.091"/>
		<path fill="none" stroke="#FFFFFF" stroke-width="0.5" stroke-miterlimit="10" d="M150.193,90.852
			c-0.03-1.154,0.882-2.113,2.035-2.144c1.155-0.026,2.117,0.887,2.148,2.042c0.028,1.156-0.884,2.117-2.039,2.145
			C151.184,92.923,150.223,92.009,150.193,90.852z"/>
		<circle fill="none" stroke="#FFFFFF" stroke-width="0.5" stroke-miterlimit="10" cx="67.648" cy="36.095" r="2.091"/>
		<path fill="none" stroke="#FFFFFF" stroke-width="0.5" stroke-miterlimit="10" d="M203.575,9.858
			c-0.031-1.156,0.881-2.117,2.035-2.144c1.156-0.029,2.117,0.887,2.145,2.041c0.032,1.157-0.881,2.118-2.035,2.146
			C204.565,11.93,203.604,11.014,203.575,9.858z"/>
		<path fill="none" stroke="#FFFFFF" stroke-width="0.5" stroke-miterlimit="10" d="M355.035-9.51
			c-0.029-1.155,0.882-2.115,2.036-2.144c1.155-0.028,2.116,0.888,2.145,2.042c0.032,1.157-0.88,2.117-2.035,2.146
			C356.026-7.44,355.065-8.354,355.035-9.51z"/>
		<path fill="none" stroke="#FFFFFF" stroke-width="0.5" stroke-miterlimit="10" d="M431.744-4.727
			c-0.028-1.154,0.882-2.115,2.036-2.144c1.155-0.027,2.115,0.886,2.146,2.043c0.03,1.154-0.882,2.118-2.039,2.143
			C432.735-2.655,431.775-3.57,431.744-4.727z"/>
		<path fill="none" stroke="#FFFFFF" stroke-width="0.5" stroke-miterlimit="10" d="M146.763,144.676
			c-0.03-1.155,0.882-2.116,2.035-2.145c1.155-0.027,2.116,0.887,2.146,2.043c0.03,1.156-0.882,2.116-2.038,2.144
			C147.754,146.746,146.792,145.831,146.763,144.676z"/>
		<path fill="none" stroke="#FFFFFF" stroke-width="0.5" stroke-miterlimit="10" d="M333.863,34.476
			c-0.029-1.154,0.881-2.115,2.036-2.142c1.154-0.03,2.116,0.885,2.145,2.041c0.029,1.157-0.882,2.118-2.036,2.146
			C334.854,36.548,333.893,35.633,333.863,34.476z"/>
		<path fill="none" stroke="#FFFFFF" stroke-width="0.5" stroke-miterlimit="10" d="M356.414,160.126
			c-0.029-1.155,0.883-2.115,2.036-2.145c1.155-0.027,2.116,0.888,2.145,2.043c0.03,1.156-0.881,2.116-2.036,2.145
			C357.406,162.197,356.443,161.282,356.414,160.126z"/>
		<path fill="none" stroke="#FFFFFF" stroke-width="0.5" stroke-miterlimit="10" d="M396.146,64.366
			c-0.03-1.156,0.882-2.116,2.037-2.143c1.154-0.03,2.114,0.885,2.145,2.042c0.03,1.155-0.881,2.116-2.036,2.144
			C397.136,66.438,396.176,65.522,396.146,64.366z"/>
		<path fill="none" stroke="#FFFFFF" stroke-width="0.5" stroke-miterlimit="10" d="M316.306,78.375
			c-0.031-1.156,0.882-2.113,2.037-2.143c1.155-0.029,2.115,0.886,2.145,2.042c0.03,1.157-0.881,2.118-2.037,2.146
			C317.297,80.447,316.336,79.532,316.306,78.375z"/>
		<path fill="none" stroke="#FFFFFF" stroke-width="0.5" stroke-miterlimit="10" d="M252.457,81.131
			c-0.03-1.156,0.883-2.117,2.036-2.145c1.155-0.029,2.115,0.886,2.145,2.042c0.03,1.158-0.881,2.118-2.035,2.146
			C253.447,83.203,252.486,82.286,252.457,81.131z"/>
		<path fill="none" stroke="#FFFFFF" stroke-width="0.5" stroke-miterlimit="10" d="M283.009,143.186
			c-0.03-1.155,0.881-2.114,2.036-2.144c1.154-0.028,2.116,0.886,2.145,2.042c0.03,1.157-0.882,2.117-2.036,2.145
			C284,145.257,283.039,144.341,283.009,143.186z"/>
		<circle fill="none" stroke="#FFFFFF" stroke-width="0.5" stroke-miterlimit="10" cx="204.753" cy="114.287" r="2.091"/>
		<path fill="none" stroke="#FFFFFF" stroke-width="0.5" stroke-miterlimit="10" d="M167.698,184.623
			c-0.032-1.155,0.882-2.114,2.035-2.144c1.155-0.028,2.115,0.887,2.145,2.043c0.033,1.155-0.881,2.116-2.036,2.144
			C168.689,186.693,167.729,185.778,167.698,184.623z"/>
		<path fill="none" stroke="#FFFFFF" stroke-width="0.5" stroke-miterlimit="10" d="M91.16,274.25
			c-0.029-1.155,0.882-2.116,2.035-2.145c1.155-0.027,2.116,0.887,2.147,2.043c0.028,1.155-0.883,2.116-2.039,2.144
			C92.149,276.321,91.188,275.405,91.16,274.25z"/>
		<circle fill="none" stroke="#FFFFFF" stroke-width="0.5" stroke-miterlimit="10" cx="48.131" cy="190.539" r="2.091"/>
		<path fill="none" stroke="#FFFFFF" stroke-width="0.5" stroke-miterlimit="10" d="M11.971,202.283
			c-0.031-1.156,0.881-2.117,2.036-2.144c1.154-0.028,2.115,0.886,2.146,2.042c0.029,1.156-0.883,2.116-2.04,2.144
			C12.961,204.353,12,203.439,11.971,202.283z"/>
		<path fill="none" stroke="#FFFFFF" stroke-width="0.5" stroke-miterlimit="10" d="M121.605,244.309
			c-0.031-1.157,0.882-2.119,2.035-2.145c1.156-0.027,2.117,0.887,2.146,2.043c0.028,1.156-0.884,2.116-2.038,2.145
			S121.633,245.465,121.605,244.309z"/>
		<path fill="none" stroke="#FFFFFF" stroke-width="0.5" stroke-miterlimit="10" d="M110.057,124.431
			c-0.03-1.157,0.882-2.115,2.037-2.143c1.153-0.03,2.115,0.886,2.144,2.042c0.031,1.158-0.882,2.116-2.036,2.145
			C111.048,126.503,110.087,125.587,110.057,124.431z"/>
		<path fill="none" stroke="#FFFFFF" stroke-width="0.5" stroke-miterlimit="10" d="M212.925,68.201
			c-0.03-1.157,0.88-2.116,2.035-2.144c1.155-0.029,2.115,0.885,2.146,2.042c0.03,1.156-0.882,2.116-2.036,2.144
			C213.916,70.272,212.955,69.357,212.925,68.201z"/>
		<circle fill="none" stroke="#FFFFFF" stroke-width="0.5" stroke-miterlimit="10" cx="146.44" cy="28.149" r="2.091"/>
		<path fill="none" stroke="#FFFFFF" stroke-width="0.5" stroke-miterlimit="10" d="M34.483,140.149
			c-0.03-1.154,0.881-2.116,2.036-2.143c1.153-0.028,2.114,0.886,2.144,2.042c0.031,1.155-0.88,2.117-2.035,2.145
			C35.472,142.221,34.512,141.305,34.483,140.149z"/>
		<path fill="none" stroke="#FFFFFF" stroke-width="0.5" stroke-miterlimit="10" d="M21.478,266.66
			c-0.03-1.155,0.883-2.115,2.036-2.145c1.157-0.026,2.116,0.887,2.146,2.044c0.029,1.156-0.882,2.116-2.038,2.143
			C22.468,268.731,21.506,267.816,21.478,266.66z"/>
		<path fill="none" stroke="#FFFFFF" stroke-width="0.5" stroke-miterlimit="10" d="M281.983-36.12
			c-0.029-1.156,0.883-2.116,2.037-2.144c1.154-0.029,2.115,0.886,2.146,2.042c0.029,1.157-0.883,2.116-2.038,2.145
			C282.974-34.048,282.013-34.964,281.983-36.12z"/>
		<path fill="none" stroke="#FFFFFF" stroke-width="0.5" stroke-miterlimit="10" d="M-17.616,61.106
			c-0.03-1.155,0.881-2.117,2.036-2.146c1.156-0.026,2.116,0.888,2.146,2.044c0.031,1.155-0.881,2.117-2.038,2.145
			C-16.626,63.177-17.585,62.261-17.616,61.106z"/>
		<polyline fill="none" stroke="#FFFFFF" stroke-width="0.5" stroke-miterlimit="10" points="152.698,90.798 149.128,144.605 
			204.749,114.109 169.95,184.54 		"/>
		<polyline fill="none" stroke="#FFFFFF" stroke-width="0.5" stroke-miterlimit="10" points="335.53,34.122 318.791,78.003 
			254.129,80.474 204.741,113.807 284.783,142.727 254.933,80.455 		"/>
		<polyline fill="none" stroke="#FFFFFF" stroke-width="0.5" stroke-miterlimit="10" points="273.442,19.065 254.933,80.455 
			214.578,67.818 204.749,114.109 		"/>
		<polyline opacity="0.7" fill="none" stroke="#FFFFFF" stroke-width="0.5" stroke-miterlimit="10" points="149.128,144.605 
			114.65,174.437 123.696,244.259 48.132,190.54 		"/>
		<polyline fill="none" stroke="#FFFFFF" stroke-width="0.5" stroke-miterlimit="10" points="357.585,-9.645 433.649,-4.181 
			335.953,34.427 		"/>
		<polygon fill="none" stroke="#FFFFFF" stroke-width="0.5" stroke-miterlimit="10" points="398.264,65.311 318.813,78.908 
			358.504,160.063 		"/>
		
			<line fill="none" stroke="#FFFFFF" stroke-width="0.5" stroke-miterlimit="10" x1="169.36" y1="183.565" x2="149.128" y2="144.605"/>
	</g>
	<g clip-path="url(#SVGID_2_)">
		<g>
			<polygon id="triangle36_282_" fill="none" stroke="#FFFFFF" stroke-width="0.5" stroke-miterlimit="10" points="1033.807,25.679 
				1028.736,70.288 1074.68,25.028 			"/>
			<polygon id="triangle36_281_" fill="none" stroke="#FFFFFF" stroke-width="0.5" stroke-miterlimit="10" points="1028.736,70.288 
				1042.918,108.365 1074.68,25.028 			"/>
			<polygon fill="none" stroke="#FFFFFF" stroke-width="0.5" stroke-miterlimit="10" points="853.406,-17.469 819.23,7.093 
				805.542,-17.277 			"/>
			<polygon fill="none" stroke="#FFFFFF" stroke-width="0.5" stroke-miterlimit="10" points="857.561,-17.486 869.474,16.13 
				819.23,7.093 853.406,-17.469 			"/>
			<polygon id="triangle36_280_" fill="none" stroke="#FFFFFF" stroke-width="0.5" stroke-miterlimit="10" points="961.945,1.865 
				987.228,50.084 1005.502,12.219 			"/>
			<polygon id="triangle36_279_" fill="none" stroke="#FFFFFF" stroke-width="0.5" stroke-miterlimit="10" points="1033.807,25.679 
				1028.736,70.288 1005.502,12.219 			"/>
			<polygon id="triangle36_278_" fill="none" stroke="#FFFFFF" stroke-width="0.5" stroke-miterlimit="10" points="987.228,50.084 
				1028.736,70.288 1005.502,12.219 			"/>
			<polygon id="triangle36_277_" fill="none" stroke="#FFFFFF" stroke-width="0.5" stroke-miterlimit="10" points="1106.46,159.794 
				1082.808,227.195 1119.426,188.151 			"/>
			<polygon fill="none" stroke="#FFFFFF" stroke-width="0.5" stroke-miterlimit="10" points="1120.504,226.493 1082.808,227.195 
				1119.426,188.151 1120.421,190.989 			"/>
			<polygon id="triangle36_276_" fill="none" stroke="#FFFFFF" stroke-width="0.5" stroke-miterlimit="10" points="869.474,16.13 
				870.576,55.382 895.267,49.158 			"/>
			<polygon id="triangle36_275_" fill="none" stroke="#FFFFFF" stroke-width="0.5" stroke-miterlimit="10" points="870.576,55.382 
				895.267,49.158 896.576,80.868 			"/>
			<polygon id="triangle36_274_" fill="none" stroke="#FFFFFF" stroke-width="0.5" stroke-miterlimit="10" points="961.945,1.865 
				987.228,50.084 952.295,64.35 			"/>
			<polygon fill="none" stroke="#FFFFFF" stroke-width="0.5" stroke-miterlimit="10" points="965.624,-17.921 961.945,1.865 
				935.922,-17.8 			"/>
			<polygon id="triangle36_273_" fill="none" stroke="#FFFFFF" stroke-width="0.5" stroke-miterlimit="10" points="1106.46,159.794 
				1082.808,227.195 1060.443,168.291 			"/>
			<polygon id="triangle36_272_" fill="none" stroke="#FFFFFF" stroke-width="0.5" stroke-miterlimit="10" points="952.295,64.35 
				987.228,50.084 986.5,104.69 			"/>
			<polygon id="triangle36_271_" fill="none" stroke="#FFFFFF" stroke-width="0.5" stroke-miterlimit="10" points="987.228,50.084 
				1028.736,70.288 986.5,104.69 			"/>
			<polygon id="triangle36_270_" fill="none" stroke="#FFFFFF" stroke-width="0.5" stroke-miterlimit="10" points="1028.736,70.288 
				1042.918,108.365 986.5,104.69 			"/>
			<polygon id="triangle36_269_" fill="none" stroke="#FFFFFF" stroke-width="0.5" stroke-miterlimit="10" points="946.821,123.946 
				987.475,155.666 986.5,104.69 			"/>
			<polygon fill="none" stroke="#FFFFFF" stroke-width="0.5" stroke-miterlimit="10" points="1120.421,190.989 1119.426,188.151 
				1120.415,188.742 			"/>
			<polygon fill="none" stroke="#FFFFFF" stroke-width="0.5" stroke-miterlimit="10" points="861.094,-17.5 920.199,14.307 
				869.474,16.13 857.561,-17.486 			"/>
			<polygon fill="none" stroke="#FFFFFF" stroke-width="0.5" stroke-miterlimit="10" points="927.354,-17.766 920.199,14.307 
				861.094,-17.5 			"/>
			<polygon id="triangle36_268_" fill="none" stroke="#FFFFFF" stroke-width="0.5" stroke-miterlimit="10" points="869.474,16.13 
				895.267,49.158 920.199,14.307 			"/>
			<polygon fill="none" stroke="#FFFFFF" stroke-width="0.5" stroke-miterlimit="10" points="935.922,-17.8 961.945,1.865 
				920.199,14.307 927.354,-17.766 			"/>
			<polygon id="triangle36_267_" fill="none" stroke="#FFFFFF" stroke-width="0.5" stroke-miterlimit="10" points="961.945,1.865 
				952.295,64.35 920.199,14.307 			"/>
			<polygon fill="none" stroke="#FFFFFF" stroke-width="0.5" stroke-miterlimit="10" points="796.856,-17.242 749.322,34.541 
				756.978,-17.083 			"/>
			<polygon fill="none" stroke="#FFFFFF" stroke-width="0.5" stroke-miterlimit="10" points="805.542,-17.277 819.23,7.093 
				749.322,34.541 796.856,-17.242 			"/>
			<polygon fill="none" stroke="#FFFFFF" stroke-width="0.5" stroke-miterlimit="10" points="1120.64,284.263 1120.564,284.622 
				1082.808,227.195 1120.504,226.493 			"/>
			<polygon id="triangle36_266_" fill="none" stroke="#FFFFFF" stroke-width="0.5" stroke-miterlimit="10" points="819.23,7.093 
				869.474,16.13 830.649,60.36 			"/>
			<polygon id="triangle36_265_" fill="none" stroke="#FFFFFF" stroke-width="0.5" stroke-miterlimit="10" points="869.474,16.13 
				870.576,55.382 830.649,60.36 			"/>
			<polygon id="triangle36_264_" fill="none" stroke="#FFFFFF" stroke-width="0.5" stroke-miterlimit="10" points="920.199,14.307 
				895.267,49.158 932.709,89.086 			"/>
			<polygon id="triangle36_263_" fill="none" stroke="#FFFFFF" stroke-width="0.5" stroke-miterlimit="10" points="920.199,14.307 
				952.295,64.35 932.709,89.086 			"/>
			<polygon id="triangle36_262_" fill="none" stroke="#FFFFFF" stroke-width="0.5" stroke-miterlimit="10" points="895.267,49.158 
				896.576,80.868 932.709,89.086 			"/>
			<polygon id="triangle36_261_" fill="none" stroke="#FFFFFF" stroke-width="0.5" stroke-miterlimit="10" points="896.576,80.868 
				887.794,104.596 932.709,89.086 			"/>
			<polygon id="triangle36_260_" fill="none" stroke="#FFFFFF" stroke-width="0.5" stroke-miterlimit="10" points="887.794,104.596 
				946.821,123.946 932.709,89.086 			"/>
			<polygon id="triangle36_259_" fill="none" stroke="#FFFFFF" stroke-width="0.5" stroke-miterlimit="10" points="952.295,64.35 
				986.5,104.69 932.709,89.086 			"/>
			<polygon id="triangle36_258_" fill="none" stroke="#FFFFFF" stroke-width="0.5" stroke-miterlimit="10" points="946.821,123.946 
				986.5,104.69 932.709,89.086 			"/>
			<polygon id="triangle36_257_" fill="none" stroke="#FFFFFF" stroke-width="0.5" stroke-miterlimit="10" points="986.5,104.69 
				1042.918,108.365 1027.474,138.218 			"/>
			<polygon id="triangle36_256_" fill="none" stroke="#FFFFFF" stroke-width="0.5" stroke-miterlimit="10" points="986.5,104.69 
				987.475,155.666 1027.474,138.218 			"/>
			<polygon id="triangle36_255_" fill="none" stroke="#FFFFFF" stroke-width="0.5" stroke-miterlimit="10" points="
				1042.918,108.365 1060.443,168.291 1027.474,138.218 			"/>
			<polygon id="triangle36_254_" fill="none" stroke="#FFFFFF" stroke-width="0.5" stroke-miterlimit="10" points="819.23,7.093 
				830.649,60.36 771.118,76.499 			"/>
			<polygon id="triangle36_253_" fill="none" stroke="#FFFFFF" stroke-width="0.5" stroke-miterlimit="10" points="749.322,34.541 
				819.23,7.093 771.118,76.499 			"/>
			<polygon id="triangle36_252_" fill="none" stroke="#FFFFFF" stroke-width="0.5" stroke-miterlimit="10" points="1008.07,298.7 
				1082.808,227.195 1076.394,288.56 			"/>
			<polygon id="triangle36_251_" fill="none" stroke="#FFFFFF" stroke-width="0.5" stroke-miterlimit="10" points="
				1082.808,227.195 1120.564,284.622 1076.394,288.56 			"/>
			<polygon id="triangle36_250_" fill="none" stroke="#FFFFFF" stroke-width="0.5" stroke-miterlimit="10" points="
				1120.564,284.622 1075.516,336.247 1076.394,288.56 			"/>
			<polygon id="triangle36_249_" fill="none" stroke="#FFFFFF" stroke-width="0.5" stroke-miterlimit="10" points="
				1075.516,336.247 1008.07,298.7 1076.394,288.56 			"/>
			<polygon fill="none" stroke="#FFFFFF" stroke-width="0.5" stroke-miterlimit="10" points="1120.742,327.752 1075.516,336.247 
				1120.564,284.622 1120.64,284.676 			"/>
			<polygon id="triangle36_248_" fill="none" stroke="#FFFFFF" stroke-width="0.5" stroke-miterlimit="10" points="987.475,155.666 
				1027.474,138.218 1050.231,216.517 			"/>
			<polygon id="triangle36_247_" fill="none" stroke="#FFFFFF" stroke-width="0.5" stroke-miterlimit="10" points="987.475,155.666 
				985.758,204.459 1050.231,216.517 			"/>
			<polygon id="triangle36_246_" fill="none" stroke="#FFFFFF" stroke-width="0.5" stroke-miterlimit="10" points="
				1027.474,138.218 1060.443,168.291 1050.231,216.517 			"/>
			<polygon id="triangle36_245_" fill="none" stroke="#FFFFFF" stroke-width="0.5" stroke-miterlimit="10" points="
				1008.422,298.367 1082.808,227.195 1050.231,216.517 			"/>
			<polygon id="triangle36_244_" fill="none" stroke="#FFFFFF" stroke-width="0.5" stroke-miterlimit="10" points="
				1060.443,168.291 1082.808,227.195 1050.231,216.517 			"/>
			<polygon fill="none" stroke="#FFFFFF" stroke-width="0.5" stroke-miterlimit="10" points="1120.8,352.382 1079.054,382.522 
				1075.516,336.247 1120.742,327.752 			"/>
			<polygon fill="none" stroke="#FFFFFF" stroke-width="0.5" stroke-miterlimit="10" points="1119.931,-18.54 1119.957,-6.852 
				1117.906,-2.474 1084.82,-18.398 			"/>
			<polygon fill="none" stroke="#FFFFFF" stroke-width="0.5" stroke-miterlimit="10" points="1084.82,-18.398 1117.906,-2.474 
				1074.68,25.028 1076.019,-18.364 			"/>
			<polygon fill="none" stroke="#FFFFFF" stroke-width="0.5" stroke-miterlimit="10" points="1119.969,-2.457 1117.906,-2.474 
				1119.957,-6.852 			"/>
			<polygon fill="none" stroke="#FFFFFF" stroke-width="0.5" stroke-miterlimit="10" points="1119.971,-1.103 1117.906,-2.474 
				1119.969,-2.457 			"/>
			<polygon id="triangle36_243_" fill="none" stroke="#FFFFFF" stroke-width="0.5" stroke-miterlimit="10" points="1074.68,25.028 
				1117.906,-2.474 1108.122,91.711 			"/>
			<polygon id="triangle36_242_" fill="none" stroke="#FFFFFF" stroke-width="0.5" stroke-miterlimit="10" points="1074.68,25.028 
				1042.918,108.365 1108.122,91.711 			"/>
			<polygon fill="none" stroke="#FFFFFF" stroke-width="0.5" stroke-miterlimit="10" points="1120.153,76.606 1108.122,91.711 
				1117.906,-2.474 1119.971,-1.103 			"/>
			<polygon id="triangle36_241_" fill="none" stroke="#FFFFFF" stroke-width="0.5" stroke-miterlimit="10" points="
				1042.918,108.365 1060.443,168.291 1108.122,91.711 			"/>
			<polygon fill="none" stroke="#FFFFFF" stroke-width="0.5" stroke-miterlimit="10" points="1120.173,84.88 1108.122,91.711 
				1120.153,76.606 			"/>
			<polygon fill="none" stroke="#FFFFFF" stroke-width="0.5" stroke-miterlimit="10" points="1120.195,94.334 1108.122,91.711 
				1120.173,84.88 			"/>
			<polygon id="triangle36_240_" fill="none" stroke="#FFFFFF" stroke-width="0.5" stroke-miterlimit="10" points="
				1060.443,168.291 1106.46,159.794 1108.122,91.711 			"/>
			<polygon id="triangle36_239_" fill="none" stroke="#FFFFFF" stroke-width="0.5" stroke-miterlimit="10" points="1106.46,159.794 
				1119.426,188.151 1108.122,91.711 			"/>
			<polygon fill="none" stroke="#FFFFFF" stroke-width="0.5" stroke-miterlimit="10" points="1120.411,186.664 1119.426,188.151 
				1108.122,91.711 1120.195,94.334 			"/>
			<polygon fill="none" stroke="#FFFFFF" stroke-width="0.5" stroke-miterlimit="10" points="1019.301,-18.136 1030.414,-14.921 
				961.945,1.865 965.624,-17.921 			"/>
			<polygon fill="none" stroke="#FFFFFF" stroke-width="0.5" stroke-miterlimit="10" points="1029.893,-18.178 1030.414,-14.921 
				1019.301,-18.136 			"/>
			<polygon id="triangle36_238_" fill="none" stroke="#FFFFFF" stroke-width="0.5" stroke-miterlimit="10" points="961.945,1.865 
				1005.502,12.219 1030.414,-14.921 			"/>
			<polygon fill="none" stroke="#FFFFFF" stroke-width="0.5" stroke-miterlimit="10" points="1050.377,-18.261 1030.414,-14.921 
				1029.893,-18.178 			"/>
			<polygon id="triangle36_237_" fill="none" stroke="#FFFFFF" stroke-width="0.5" stroke-miterlimit="10" points="1005.502,12.219 
				1033.807,25.679 1030.414,-14.921 			"/>
			<polygon id="triangle36_236_" fill="none" stroke="#FFFFFF" stroke-width="0.5" stroke-miterlimit="10" points="1033.807,25.679 
				1074.68,25.028 1030.414,-14.921 			"/>
			<polygon fill="none" stroke="#FFFFFF" stroke-width="0.5" stroke-miterlimit="10" points="1076.019,-18.364 1074.68,25.028 
				1030.414,-14.921 1050.377,-18.261 			"/>
			<polygon fill="none" stroke="#FFFFFF" stroke-width="0.5" stroke-miterlimit="10" points="732.195,-16.982 689.027,-0.602 
				703.851,-16.868 			"/>
			<polyline fill="none" stroke="#FFFFFF" stroke-width="0.5" stroke-miterlimit="10" points="749.322,34.541 689.027,-0.602 
				676.168,41.289 639.249,2.981 689.027,-0.602 			"/>
			
				<line fill="none" stroke="#FFFFFF" stroke-width="0.5" stroke-miterlimit="10" x1="676.168" y1="41.289" x2="650.939" y2="79.806"/>
		</g>
		<circle fill="none" stroke="#FFFFFF" stroke-width="0.5" stroke-miterlimit="10" cx="986.714" cy="203.314" r="1.996"/>
		<path fill="none" stroke="#FFFFFF" stroke-width="0.5" stroke-miterlimit="10" d="M950.546,124.517
			c-0.002-1.103-0.898-1.994-1.999-1.991c-1.103,0.005-1.996,0.904-1.995,2.007c0.004,1.104,0.9,1.997,2.003,1.992
			C949.656,126.519,950.548,125.621,950.546,124.517z"/>
		<circle fill="none" stroke="#FFFFFF" stroke-width="0.5" stroke-miterlimit="10" cx="1027.834" cy="70.042" r="1.996"/>
		<path fill="none" stroke="#FFFFFF" stroke-width="0.5" stroke-miterlimit="10" d="M897.426,48.67c0-1.104-0.897-1.996-2-1.991
			c-1.103,0.004-1.994,0.903-1.991,2.006c0.002,1.105,0.899,1.997,2,1.993C896.538,50.674,897.43,49.774,897.426,48.67z"/>
		<path fill="none" stroke="#FFFFFF" stroke-width="0.5" stroke-miterlimit="10" d="M752.381,34.271
			c-0.003-1.103-0.899-1.994-2.001-1.991c-1.102,0.005-1.995,0.905-1.991,2.006c0.001,1.105,0.897,1.996,2,1.993
			C751.491,36.273,752.384,35.375,752.381,34.271z"/>
		<path fill="none" stroke="#FFFFFF" stroke-width="0.5" stroke-miterlimit="10" d="M679.314,40.903
			c-0.005-1.102-0.898-1.996-2.001-1.991c-1.102,0.005-1.994,0.903-1.992,2.008c0.002,1.103,0.899,1.996,2.003,1.99
			C678.425,42.907,679.315,42.007,679.314,40.903z"/>
		<path fill="none" stroke="#FFFFFF" stroke-width="0.5" stroke-miterlimit="10" d="M955.27,175.782
			c-0.001-1.103-0.898-1.995-2-1.991c-1.103,0.004-1.996,0.903-1.992,2.007c0.002,1.104,0.898,1.995,2.002,1.991
			C954.379,177.784,955.272,176.885,955.27,175.782z"/>
		<path fill="none" stroke="#FFFFFF" stroke-width="0.5" stroke-miterlimit="10" d="M773.769,75.672
			c-0.003-1.103-0.898-1.995-2-1.99c-1.103,0.003-1.996,0.902-1.993,2.005c0.004,1.105,0.9,1.997,2.003,1.993
			C772.879,77.675,773.771,76.777,773.769,75.672z"/>
		<path fill="none" stroke="#FFFFFF" stroke-width="0.5" stroke-miterlimit="10" d="M755.637,196.175
			c-0.002-1.104-0.897-1.995-2-1.991c-1.102,0.004-1.995,0.903-1.991,2.006c0.002,1.104,0.897,1.995,1.999,1.991
			C754.747,198.179,755.641,197.278,755.637,196.175z"/>
		<path fill="none" stroke="#FFFFFF" stroke-width="0.5" stroke-miterlimit="10" d="M715.145,105.872
			c-0.002-1.104-0.899-1.996-2.002-1.99c-1.102,0.003-1.993,0.902-1.991,2.006s0.897,1.996,2.001,1.992
			C714.255,107.875,715.146,106.976,715.145,105.872z"/>
		<path fill="none" stroke="#FFFFFF" stroke-width="0.5" stroke-miterlimit="10" d="M791.704,117.088c0-1.104-0.897-1.994-2-1.99
			c-1.103,0.002-1.994,0.902-1.991,2.006c0.002,1.104,0.897,1.996,2.001,1.992C790.815,119.091,791.708,118.192,791.704,117.088z"/>
		<path fill="none" stroke="#FFFFFF" stroke-width="0.5" stroke-miterlimit="10" d="M852.704,117.996
			c-0.002-1.103-0.899-1.996-2-1.992c-1.103,0.004-1.995,0.903-1.991,2.008c0.002,1.104,0.896,1.995,2,1.991
			C851.815,120,852.707,119.099,852.704,117.996z"/>
		<path fill="none" stroke="#FFFFFF" stroke-width="0.5" stroke-miterlimit="10" d="M825.224,178.032
			c-0.003-1.103-0.898-1.994-2-1.99c-1.104,0.005-1.996,0.903-1.993,2.007c0.003,1.104,0.898,1.996,2.001,1.991
			S825.227,179.136,825.224,178.032z"/>
		<path fill="none" stroke="#FFFFFF" stroke-width="0.5" stroke-miterlimit="10" d="M901.112,148.341
			c-0.003-1.104-0.897-1.995-2-1.992c-1.103,0.004-1.994,0.904-1.992,2.005c0.003,1.106,0.898,1.998,2.002,1.994
			C900.223,150.343,901.115,149.444,901.112,148.341z"/>
		<path fill="none" stroke="#FFFFFF" stroke-width="0.5" stroke-miterlimit="10" d="M936.369,214.464
			c0-1.103-0.898-1.994-1.999-1.991c-1.104,0.005-1.994,0.904-1.991,2.007c0,1.104,0.898,1.996,2.001,1.992
			C935.48,216.466,936.373,215.567,936.369,214.464z"/>
		<path fill="none" stroke="#FFFFFF" stroke-width="0.5" stroke-miterlimit="10" d="M1011.818,297.924
			c-0.003-1.104-0.898-1.996-1.999-1.992c-1.104,0.006-1.995,0.904-1.993,2.008c0.003,1.103,0.899,1.995,2.002,1.991
			C1010.932,299.925,1011.822,299.027,1011.818,297.924z"/>
		<circle fill="none" stroke="#FFFFFF" stroke-width="0.5" stroke-miterlimit="10" cx="1050.621" cy="216.886" r="1.997"/>
		<path fill="none" stroke="#FFFFFF" stroke-width="0.5" stroke-miterlimit="10" d="M1085.441,227.118
			c-0.002-1.104-0.898-1.996-2.001-1.99c-1.103,0.003-1.993,0.902-1.992,2.006c0.003,1.104,0.899,1.995,2.003,1.991
			C1084.551,229.12,1085.443,228.222,1085.441,227.118z"/>
		<path fill="none" stroke="#FFFFFF" stroke-width="0.5" stroke-miterlimit="10" d="M981.96,270.174
			c0-1.104-0.897-1.997-1.999-1.991c-1.104,0.004-1.996,0.902-1.993,2.007c0.005,1.104,0.9,1.995,2.002,1.991
			C981.07,272.177,981.965,271.278,981.96,270.174z"/>
		<path fill="none" stroke="#FFFFFF" stroke-width="0.5" stroke-miterlimit="10" d="M989.75,155.476
			c-0.004-1.104-0.9-1.994-2.002-1.99c-1.102,0.003-1.995,0.902-1.991,2.006c0.001,1.105,0.898,1.996,2,1.991
			C988.859,157.479,989.752,156.579,989.75,155.476z"/>
		<path fill="none" stroke="#FFFFFF" stroke-width="0.5" stroke-miterlimit="10" d="M890.076,104.592
			c-0.002-1.104-0.896-1.995-2-1.99c-1.104,0.004-1.994,0.902-1.992,2.006c0.003,1.104,0.899,1.996,2.001,1.991
			C889.188,106.596,890.08,105.697,890.076,104.592z"/>
		<path fill="none" stroke="#FFFFFF" stroke-width="0.5" stroke-miterlimit="10" d="M954.434,64.575
			c-0.002-1.105-0.899-1.995-2.001-1.99c-1.101,0.001-1.994,0.901-1.992,2.006c0.002,1.104,0.9,1.994,2.001,1.989
			C953.545,66.577,954.437,65.68,954.434,64.575z"/>
		<path fill="none" stroke="#FFFFFF" stroke-width="0.5" stroke-miterlimit="10" d="M1062.285,168.437
			c-0.002-1.103-0.897-1.995-2-1.99c-1.102,0.004-1.994,0.903-1.99,2.007c0.002,1.104,0.896,1.996,1.999,1.991
			C1061.397,170.44,1062.289,169.541,1062.285,168.437z"/>
		<path fill="none" stroke="#FFFFFF" stroke-width="0.5" stroke-miterlimit="10" d="M1078.104,288.802
			c-0.002-1.102-0.899-1.994-2-1.99c-1.104,0.005-1.994,0.903-1.992,2.008c0.004,1.103,0.899,1.994,2.003,1.989
			C1077.216,290.806,1078.107,289.906,1078.104,288.802z"/>
		<path fill="none" stroke="#FFFFFF" stroke-width="0.5" stroke-miterlimit="10" d="M821.37,6.912c-0.003-1.104-0.9-1.995-2-1.99
			c-1.104,0.003-1.995,0.901-1.993,2.006c0.004,1.105,0.9,1.996,2.001,1.991C820.48,8.915,821.373,8.015,821.37,6.912z"/>
		<path fill="none" stroke="#FFFFFF" stroke-width="0.5" stroke-miterlimit="10" d="M1109.868,91.609
			c-0.003-1.103-0.898-1.997-2-1.992c-1.103,0.006-1.994,0.904-1.991,2.008c0.002,1.103,0.896,1.995,2.001,1.99
			C1108.979,93.612,1109.87,92.713,1109.868,91.609z"/>
		<polyline fill="none" stroke="#FFFFFF" stroke-width="0.5" stroke-miterlimit="10" points="948.154,124.532 953.012,175.779 
			899.116,148.178 934.22,214.445 		"/>
		<polyline fill="none" stroke="#FFFFFF" stroke-width="0.5" stroke-miterlimit="10" points="772.168,75.38 789.324,116.799 
			851.091,117.414 899.116,147.889 823.518,177.642 850.322,117.418 		"/>
		<polyline fill="none" stroke="#FFFFFF" stroke-width="0.5" stroke-miterlimit="10" points="831.008,59.339 850.322,117.418 
			888.489,104.272 899.116,148.178 		"/>
		<polyline opacity="0.7" fill="none" stroke="#FFFFFF" stroke-width="0.5" stroke-miterlimit="10" points="953.012,175.779 
			986.715,203.314 979.965,270.183 1050.619,216.887 		"/>
		<polyline fill="none" stroke="#FFFFFF" stroke-width="0.5" stroke-miterlimit="10" points="749.944,34.211 677.512,41.475 
			771.773,75.681 		"/>
		<polygon fill="none" stroke="#FFFFFF" stroke-width="0.5" stroke-miterlimit="10" points="713.149,106.83 789.327,117.664 
			753.641,196.171 		"/>
		
			<line fill="none" stroke="#FFFFFF" stroke-width="0.5" stroke-miterlimit="10" x1="934.756" y1="213.5" x2="953.012" y2="175.779"/>
	</g>
</g>
</svg>
