<?xml version="1.0" encoding="utf-8"?>
<!-- Generator: Adobe Illustrator 16.0.0, SVG Export Plug-In . SVG Version: 6.00 Build 0)  -->
<!DOCTYPE svg PUBLIC "-//W3C//DTD SVG 1.1//EN" "http://www.w3.org/Graphics/SVG/1.1/DTD/svg11.dtd">
<svg version="1.1" id="Layer_1" xmlns="http://www.w3.org/2000/svg" xmlns:xlink="http://www.w3.org/1999/xlink" x="0px" y="0px"
	 width="209.787px" height="79.649px" viewBox="0 0 209.787 79.649" enable-background="new 0 0 209.787 79.649"
	 xml:space="preserve">
<g>
	<path d="M137.725,47.765c-1.227,0-2.154,0.441-2.782,1.325c-0.629,0.884-0.943,2.353-0.943,4.405c0,1.957,0.286,3.401,0.86,4.332
		c0.574,0.932,1.451,1.397,2.63,1.397c1.241,0,2.188-0.458,2.841-1.373s0.979-2.407,0.979-4.478c0-1.94-0.299-3.36-0.896-4.26
		C139.816,48.215,138.921,47.765,137.725,47.765 M71.791,47.885h-1.934v4.894h1.344c0.928,0,1.65-0.219,2.169-0.656
		s0.778-1.053,0.778-1.851c0-0.716-0.212-1.292-0.637-1.731C73.087,48.104,72.513,47.885,71.791,47.885 M88.336,54.927h3.629
		l-1.767-5.657L88.336,54.927z M167.371,40.035h-43.976V37.34l-18.368-5.279L86.568,37.34v2.695H42.869l4.636,14.144l-4.636,14.193
		h44.567c0.003,0.004,0.007,0.009,0.01,0.013c0.443,0.64,1.037,1.288,1.738,1.937l0.076,0.07c0.16,0.145,0.324,0.291,0.494,0.436
		c0.031,0.027,0.062,0.055,0.094,0.08c0.173,0.147,0.349,0.293,0.531,0.438l0.076,0.062c1.231,0.98,2.652,1.94,4.119,2.84
		l0.018,0.013c0.24,0.146,0.479,0.291,0.721,0.435l0.044,0.026c1.733,1.03,3.481,1.965,5.008,2.737
		c0.015,0.007,0.028,0.014,0.042,0.021c0.202,0.102,0.399,0.201,0.594,0.299c0.026,0.012,0.053,0.024,0.08,0.039
		c0.188,0.092,0.373,0.184,0.551,0.271c0.016,0.007,0.029,0.014,0.041,0.021c0.761,0.371,1.427,0.685,1.957,0.93
		c0.018,0.008,0.035,0.016,0.052,0.023c0.114,0.053,0.22,0.1,0.321,0.147c0.025,0.012,0.051,0.024,0.078,0.034
		c0.086,0.039,0.162,0.076,0.236,0.109c0.045,0.02,0.086,0.038,0.127,0.057c0.051,0.022,0.098,0.043,0.143,0.063
		c0.043,0.019,0.082,0.037,0.119,0.054c0.039,0.017,0.073,0.032,0.104,0.045c0.041,0.019,0.07,0.031,0.096,0.043
		c0.01,0.004,0.018,0.008,0.023,0.011c0.033,0.014,0.051,0.022,0.051,0.022s0.044-0.02,0.107-0.047
		c0.023-0.01,0.045-0.02,0.076-0.031c0.02-0.01,0.043-0.02,0.065-0.029c0.048-0.021,0.101-0.043,0.159-0.07
		c0.033-0.014,0.066-0.027,0.101-0.043c0.06-0.025,0.124-0.055,0.193-0.085c0.052-0.022,0.103-0.045,0.157-0.069
		c0.065-0.029,0.135-0.061,0.207-0.092c0.065-0.029,0.129-0.059,0.201-0.091c0.071-0.032,0.147-0.065,0.223-0.101
		c0.084-0.039,0.166-0.076,0.256-0.117c0.055-0.024,0.115-0.053,0.173-0.079c0.223-0.103,0.46-0.214,0.712-0.331
		c0.056-0.026,0.107-0.051,0.165-0.077c0.119-0.058,0.245-0.116,0.371-0.177c0.084-0.04,0.167-0.079,0.253-0.121
		c0.127-0.061,0.256-0.123,0.387-0.186c0.09-0.045,0.179-0.088,0.271-0.133c0.133-0.066,0.269-0.132,0.406-0.199
		c0.096-0.049,0.193-0.097,0.292-0.146c0.143-0.071,0.285-0.144,0.432-0.218c0.094-0.047,0.188-0.096,0.283-0.143
		c0.153-0.08,0.307-0.158,0.464-0.24c0.084-0.043,0.169-0.086,0.254-0.131c0.593-0.31,1.202-0.637,1.821-0.979
		c0.064-0.035,0.129-0.07,0.193-0.106c0.178-0.099,0.353-0.199,0.529-0.299c0.09-0.051,0.179-0.102,0.269-0.154
		c0.168-0.096,0.338-0.194,0.505-0.293c0.1-0.058,0.198-0.117,0.298-0.175c0.167-0.1,0.333-0.198,0.498-0.3
		c0.098-0.059,0.195-0.118,0.292-0.18c0.167-0.1,0.333-0.204,0.497-0.307c0.095-0.061,0.188-0.121,0.281-0.181
		c0.168-0.106,0.335-0.213,0.5-0.321c0.078-0.052,0.154-0.104,0.232-0.156c0.587-0.391,1.155-0.791,1.697-1.194
		c0.069-0.054,0.141-0.104,0.21-0.157c0.146-0.111,0.287-0.224,0.429-0.335c0.083-0.067,0.167-0.132,0.249-0.198
		c0.133-0.109,0.262-0.217,0.39-0.326c0.084-0.07,0.167-0.142,0.248-0.213c0.123-0.107,0.242-0.213,0.359-0.322
		c0.079-0.072,0.156-0.145,0.232-0.217c0.113-0.108,0.225-0.215,0.332-0.324c0.07-0.071,0.137-0.143,0.205-0.215
		c0.104-0.108,0.209-0.219,0.307-0.328c0.058-0.065,0.109-0.131,0.164-0.195c0.24-0.282,0.461-0.564,0.646-0.846h44.799
		l-4.637-14.193L167.371,40.035z M79.29,61.899h-4.364l-1.98-4.418c-0.425-0.955-0.759-1.56-1.002-1.814
		c-0.244-0.254-0.665-0.383-1.262-0.383h-0.825v3.94l1.697,0.597v2.078h-7.121v-2.078l1.769-0.597v-11.34l-1.769-0.716v-1.981
		l5.424-0.12h1.792c1.965,0,3.478,0.41,4.539,1.229c1.062,0.819,1.592,2.032,1.592,3.641c0,2.117-0.889,3.621-2.665,4.513
		c0.392,0.461,0.723,0.979,0.991,1.551l1.579,3.271l1.604,0.55V61.899z M99.042,61.899h-7.498v-2.078l1.768-0.55l-0.566-1.79H87.51
		l-0.59,1.766l1.838,0.574v2.078h-7.121v-2.078l1.723-0.55l5.188-14.133l3.773-0.071l5.069,14.204l1.651,0.55V61.899z
		 M114.894,59.581c-1.415,1.545-3.325,2.318-5.73,2.318h-7.31v-2.078l1.77-0.597v-11.34l-1.77-0.716v-1.981l5.424-0.12h2.239
		c2.39,0,4.237,0.701,5.542,2.102s1.957,3.43,1.957,6.087C117.016,55.93,116.309,58.038,114.894,59.581 M127.163,47.169
		l-1.769,0.716v11.34l1.769,0.597v2.078h-7.192v-2.078l1.77-0.597v-11.34l-1.77-0.716v-1.981l7.192-0.12V47.169z M143.09,59.749
		c-1.455,1.64-3.361,2.459-5.719,2.459s-4.166-0.731-5.424-2.196c-1.257-1.464-1.887-3.597-1.887-6.397
		c0-2.737,0.696-4.895,2.088-6.47c1.391-1.575,3.289-2.364,5.695-2.364c2.357,0,4.185,0.746,5.481,2.233
		c1.298,1.487,1.945,3.567,1.945,6.242C145.271,55.946,144.543,58.11,143.09,59.749 M109.4,47.885h-2.122v11.22h1.957
		c1.226,0,2.169-0.441,2.829-1.324c0.661-0.884,0.99-2.352,0.99-4.406c0-1.94-0.31-3.342-0.931-4.2S110.594,47.885,109.4,47.885"/>
	<path d="M14.974,18.834l1.332-1.371l-0.844-1.902l-6.605,3.066l0.797,1.795l1.972-0.101l2.898,6.53
		c0.601,1.355,0.845,2.406,0.729,3.158c-0.116,0.75-0.72,1.367-1.815,1.854c-1.036,0.461-1.881,0.521-2.531,0.181
		c-0.652-0.34-1.255-1.138-1.812-2.392l-3.042-6.854l1.398-1.397l-0.845-1.903L0,22.565l0.797,1.795l1.909-0.071l3.041,6.854
		c0.934,2.105,2.093,3.436,3.479,3.992c1.386,0.559,3.144,0.363,5.275-0.586c2.247-0.998,3.61-2.238,4.09-3.719
		c0.481-1.483,0.241-3.306-0.718-5.468L14.974,18.834z M39.122,22.654l-2.471-2.628c-0.424-0.463-0.892-0.854-1.402-1.175
		c1.439-1.371,1.85-3.059,1.23-5.063c-0.471-1.521-1.334-2.513-2.59-2.975c-1.256-0.461-2.825-0.398-4.706,0.184l-1.717,0.531
		l-5.158,1.723l0.58,1.875l1.904,0.153l3.319,10.735l-1.519,1.09l0.609,1.967l6.818-2.113l-0.607-1.965l-1.801-0.063l-1.153-3.729
		l0.79-0.244c0.572-0.179,1.012-0.183,1.32-0.014c0.307,0.169,0.805,0.641,1.491,1.42l3.189,3.594l4.177-1.293l-0.608-1.968
		L39.122,22.654z M32.896,17.166c-0.368,0.567-0.997,0.99-1.885,1.265l-1.287,0.399l-1.432-4.634l1.851-0.573
		c0.692-0.216,1.306-0.179,1.84,0.11c0.535,0.288,0.907,0.771,1.117,1.449C33.333,15.937,33.265,16.598,32.896,17.166
		 M54.212,12.924c1.727-0.978,2.382-2.447,1.967-4.407c-0.28-1.326-0.95-2.228-2.01-2.705C53.11,5.336,51.802,5.26,50.246,5.59
		l-2.429,0.517l-5.224,1.228L43,9.256l1.88,0.326l2.327,10.996c-0.719,0.409-1.256,0.725-1.612,0.945l0.426,2.014l7.284-1.543
		c4.008-0.852,5.674-2.873,4.998-6.068C57.915,14.09,56.551,13.09,54.212,12.924 M48.395,8.836l1.966-0.416
		c0.586-0.123,1.092-0.073,1.517,0.15c0.426,0.225,0.702,0.63,0.826,1.217c0.303,1.435-0.409,2.336-2.135,2.701l-1.341,0.283
		L48.395,8.836z M54.337,18.363c-0.345,0.461-0.92,0.776-1.72,0.945l-1.92,0.406l-0.955-4.512l1.342-0.285
		c1.047-0.222,1.86-0.188,2.436,0.1c0.577,0.289,0.953,0.852,1.13,1.684C54.787,17.35,54.682,17.903,54.337,18.363 M79.417,15.32
		L72.64,1.978l-3.744,0.536l-3.435,14.541l-1.645,0.753l0.253,2.043l7.084-0.882l-0.254-2.043L69,16.592l0.371-1.811l5.207-0.648
		l0.782,1.691l-1.693,0.76l0.253,2.041l7.459-0.927l-0.254-2.043L79.417,15.32z M69.879,12.168l1.163-5.797l2.45,5.346
		L69.879,12.168z M102.43,0l-6.727,0.383l0.078,1.963l1.752,0.641l0.32,8.133L91.045,0.448l-5.662,0.343l0.076,1.961l1.799,0.64
		l0.443,11.229l-1.748,0.662l0.082,2.057l6.848-0.271l-0.08-2.058l-1.865-0.518l-0.316-8.062l6.75,10.459l3.944-0.156l-0.547-13.876
		l1.744-0.779L102.43,0z M123.068,3.758c0.454-0.284,1.082-0.398,1.884-0.344c0.676,0.047,1.359,0.213,2.051,0.498l0.451,2.047
		l2.169,0.148l0.414-4.288l-0.691-0.284c-0.461-0.189-1.118-0.393-1.972-0.611c-0.854-0.215-1.674-0.352-2.46-0.406
		c-1.776-0.121-3.247,0.216-4.417,1.013c-1.168,0.798-1.807,1.989-1.916,3.579c-0.063,0.913,0.079,1.717,0.426,2.413
		c0.347,0.694,0.805,1.231,1.37,1.61c0.566,0.381,1.185,0.74,1.857,1.078c0.671,0.338,1.296,0.615,1.873,0.83
		c0.578,0.213,1.053,0.49,1.424,0.832s0.543,0.725,0.513,1.149c-0.041,0.599-0.349,1.048-0.921,1.349
		c-0.574,0.299-1.262,0.422-2.063,0.367c-0.912-0.063-1.671-0.281-2.276-0.654l-0.218-2.008l-2.405-0.166l-0.312,4.532l0.694,0.263
		c0.475,0.189,1.148,0.389,2.019,0.601c0.87,0.209,1.697,0.342,2.484,0.397c1.871,0.129,3.432-0.25,4.686-1.137
		s1.939-2.188,2.057-3.902c0.061-0.865-0.084-1.634-0.433-2.306c-0.35-0.673-0.807-1.194-1.373-1.565
		c-0.567-0.371-1.183-0.722-1.848-1.052c-0.664-0.331-1.284-0.608-1.861-0.827c-0.577-0.223-1.052-0.505-1.423-0.846
		c-0.372-0.343-0.543-0.727-0.513-1.15C122.37,4.43,122.614,4.043,123.068,3.758 M145.088,2.963l-2.225-0.313l-5.398-0.643
		l-0.273,1.945l1.656,0.95l-1.566,11.129l-1.838,0.337l-0.287,2.038l7.139,1.009l0.288-2.039l-1.675-0.834l0.438-3.117l1.241,0.177
		c2.153,0.304,3.873,0.044,5.157-0.778c1.286-0.822,2.065-2.201,2.338-4.138c0.215-1.531-0.119-2.806-1.003-3.821
		C148.198,3.85,146.867,3.215,145.088,2.963 M146.389,8.643c-0.121,0.859-0.475,1.479-1.061,1.857
		c-0.587,0.379-1.37,0.5-2.355,0.361l-1.24-0.175l0.742-5.271l1.873,0.262c0.779,0.111,1.343,0.438,1.688,0.98
		C146.381,7.2,146.499,7.862,146.389,8.643 M166.863,7.116l-3.703-0.778l-8.195,12.49l-1.804,0.144l-0.46,2.006l6.958,1.598
		l0.459-2.007l-1.67-0.966l0.969-1.574l5.111,1.175l0.158,1.855l-1.85,0.135l-0.461,2.006l7.326,1.682l0.461-2.006l-1.492-0.9
		L166.863,7.116z M160.787,15.746l3.072-5.048l0.477,5.862L160.787,15.746z M188.986,13.572c-0.811-0.461-1.619-0.824-2.426-1.095
		c-2.318-0.771-4.406-0.634-6.264,0.409c-1.857,1.045-3.221,2.877-4.092,5.496c-0.859,2.59-0.891,4.769-0.092,6.539
		s2.346,3.037,4.631,3.797c0.658,0.219,1.342,0.347,2.053,0.384c0.709,0.036,1.316,0.022,1.82-0.043c0.502-0.065,1-0.175,1.49-0.327
		s0.814-0.266,0.971-0.337c0.158-0.073,0.275-0.129,0.355-0.169l-0.563-2.432l-0.688,0.196c-0.479,0.138-1.117,0.222-1.914,0.248
		c-0.797,0.025-1.523-0.071-2.182-0.29c-2.543-0.846-3.242-2.988-2.1-6.433c1.219-3.667,3.061-5.091,5.527-4.269
		c0.973,0.322,1.77,0.721,2.393,1.194l-0.199,2.327l2.199,0.73l1.527-4.229l-0.627-0.508
		C190.402,14.43,189.797,14.033,188.986,13.572 M203.771,19.564l-4.992-2.16l-0.818,1.784l1.316,1.386L194.6,30.791l-1.857-0.203
		l-0.857,1.871l11.217,5.146l1.969-4.303l-1.977-0.906l-1.311,1.559l-3.805-1.744l1.902-4.152l4.34,1.992l1.082-2.365l-4.34-1.992
		l1.646-3.592l3.48,1.597l-0.201,1.86l1.996,0.917l1.902-4.151L203.771,19.564z"/>
</g>
</svg>
