<?xml version="1.0" encoding="utf-8"?>
<!-- Generator: Adobe Illustrator 16.0.0, SVG Export Plug-In . SVG Version: 6.00 Build 0)  -->
<!DOCTYPE svg PUBLIC "-//W3C//DTD SVG 1.1//EN" "http://www.w3.org/Graphics/SVG/1.1/DTD/svg11.dtd">
<svg version="1.1" id="_x3C_Layer_x3E_" xmlns="http://www.w3.org/2000/svg" xmlns:xlink="http://www.w3.org/1999/xlink" x="0px"
	 y="0px" width="268.974px" height="279.916px" viewBox="0 0 268.974 279.916" enable-background="new 0 0 268.974 279.916"
	 xml:space="preserve">
<linearGradient id="SVGID_1_" gradientUnits="userSpaceOnUse" x1="133.8354" y1="54.8994" x2="133.8354" y2="319.6294">
	<stop  offset="0" style="stop-color:#5FA4CD"/>
	<stop  offset="1" style="stop-color:#E6FFFF"/>
</linearGradient>
<path fill="url(#SVGID_1_)" d="M264.67,136.774c0,72.262-58.577,130.835-130.835,130.835C61.577,267.609,3,209.036,3,136.774
	C3,64.517,61.577,5.941,133.835,5.941C206.093,5.941,264.67,64.517,264.67,136.774z"/>
<linearGradient id="SVGID_2_" gradientUnits="userSpaceOnUse" x1="136.7476" y1="87.6152" x2="136.7476" y2="252.4675">
	<stop  offset="0" style="stop-color:#5FA4CD"/>
	<stop  offset="1" style="stop-color:#E6FFFF"/>
</linearGradient>
<polygon fill="url(#SVGID_2_)" points="255.804,214.881 255.804,214.078 255.804,211.638 254.412,211.638 254.412,57.128 
	19.083,57.128 19.083,211.638 17.29,211.638 17.29,214.078 17.29,214.881 16.091,214.881 16.091,220.073 257.405,220.073 
	257.405,214.881 "/>
<linearGradient id="SVGID_3_" gradientUnits="userSpaceOnUse" x1="136.7495" y1="93.2109" x2="136.7495" y2="255.9178">
	<stop  offset="0" style="stop-color:#FFC65F"/>
	<stop  offset="1" style="stop-color:#DCA425"/>
</linearGradient>
<rect x="25.055" y="63.248" fill="url(#SVGID_3_)" width="223.39" height="146.017"/>
<polyline opacity="0.52" fill="#B69D25" points="238.009,76.902 241.234,69.695 248.445,63.248 241.803,73.111 "/>
<polyline opacity="0.52" fill="#B69D25" points="35.867,71.972 25.055,63.248 35.488,76.145 "/>
<rect x="31.128" y="67.799" opacity="0.52" fill="#B69D25" width="211.625" height="141.465"/>
<rect x="32.264" y="68.559" opacity="0.52" fill="#B69D25" width="210.108" height="140.327"/>
<linearGradient id="SVGID_4_" gradientUnits="userSpaceOnUse" x1="136.939" y1="108.063" x2="136.939" y2="191.2047">
	<stop  offset="0" style="stop-color:#44925D"/>
	<stop  offset="1" style="stop-color:#0F5B2F"/>
</linearGradient>
<rect x="32.643" y="69.695" fill="url(#SVGID_4_)" width="208.591" height="139.569"/>
<linearGradient id="SVGID_5_" gradientUnits="userSpaceOnUse" x1="136.5581" y1="208.3623" x2="136.5581" y2="212.4876">
	<stop  offset="0" style="stop-color:#FFC65F"/>
	<stop  offset="1" style="stop-color:#DCA425"/>
</linearGradient>
<rect x="23.349" y="207.603" fill="url(#SVGID_5_)" width="226.418" height="3.702"/>
<linearGradient id="SVGID_6_" gradientUnits="userSpaceOnUse" x1="136.5581" y1="210.6377" x2="136.5581" y2="214.7587">
	<stop  offset="0" style="stop-color:#FFC65F"/>
	<stop  offset="1" style="stop-color:#DCA425"/>
</linearGradient>
<rect x="23.349" y="209.879" fill="url(#SVGID_6_)" width="226.418" height="3.698"/>
<linearGradient id="SVGID_7_" gradientUnits="userSpaceOnUse" x1="136.7505" y1="211.625" x2="136.7505" y2="217.0354">
	<stop  offset="0" style="stop-color:#FFE19B"/>
	<stop  offset="1" style="stop-color:#DCA425"/>
</linearGradient>
<rect x="22.214" y="210.629" fill="url(#SVGID_7_)" width="229.071" height="4.855"/>
<linearGradient id="SVGID_8_" gradientUnits="userSpaceOnUse" x1="33.022" y1="107.8164" x2="33.022" y2="189.6012">
	<stop  offset="0" style="stop-color:#44925D"/>
	<stop  offset="1" style="stop-color:#0F5B2F"/>
</linearGradient>
<rect x="32.452" y="70.075" opacity="0.51" fill="url(#SVGID_8_)" width="1.141" height="137.292"/>
<linearGradient id="SVGID_9_" gradientUnits="userSpaceOnUse" x1="240.478" y1="107.8164" x2="240.478" y2="189.6012">
	<stop  offset="0" style="stop-color:#44925D"/>
	<stop  offset="1" style="stop-color:#0F5B2F"/>
</linearGradient>
<rect x="239.908" y="70.075" opacity="0.51" fill="url(#SVGID_9_)" width="1.14" height="137.292"/>
<linearGradient id="SVGID_10_" gradientUnits="userSpaceOnUse" x1="136.7495" y1="70.0083" x2="136.7495" y2="70.6866">
	<stop  offset="0" style="stop-color:#44925D"/>
	<stop  offset="1" style="stop-color:#0F5B2F"/>
</linearGradient>
<rect x="32.452" y="69.695" opacity="0.51" fill="url(#SVGID_10_)" width="208.596" height="1.139"/>
<g>
	<linearGradient id="SVGID_11_" gradientUnits="userSpaceOnUse" x1="137.1304" y1="158.4277" x2="137.1304" y2="198.6659">
		<stop  offset="0" style="stop-color:#44925D"/>
		<stop  offset="1" style="stop-color:#0F5B2F"/>
	</linearGradient>
	<path opacity="0.16" fill="url(#SVGID_11_)" d="M227.013,162.617c-13.271,3.788-37.166-9.104-51.579-1.142
		c-14.414,7.968-16.31,21.241-29.205,18.206c-12.893-3.033-51.577-30.722-63.715-22.755c-12.135,7.963-14.41,22.378-21.236,21.236
		c-6.828-1.136-28.064-13.653-28.064-36.029v11.38c0,22.373,21.236,34.894,28.064,36.029c6.827,1.142,9.101-13.273,21.236-21.239
		c12.138-7.964,50.822,19.72,63.715,22.758c12.896,3.03,14.791-10.243,29.205-18.205c14.413-7.967,38.308,4.928,51.579,1.136
		c13.274-3.791,14.034-22.751,14.034-22.751v-11.385C241.047,139.856,240.288,158.821,227.013,162.617z"/>
	<linearGradient id="SVGID_12_" gradientUnits="userSpaceOnUse" x1="137.1304" y1="158.4248" x2="137.1304" y2="198.6328">
		<stop  offset="0" style="stop-color:#44925D"/>
		<stop  offset="1" style="stop-color:#0F5B2F"/>
	</linearGradient>
	<path opacity="0.16" fill="url(#SVGID_12_)" d="M227.013,173.992c-13.271,3.792-37.166-9.103-51.579-1.136
		c-14.414,7.962-16.31,21.235-29.205,18.205c-12.893-3.038-51.577-30.722-63.715-22.758c-12.135,7.966-14.41,22.381-21.236,21.239
		c-6.828-1.136-28.064-13.656-28.064-36.029v53.853h207.833v-56.125C241.047,151.241,240.288,170.201,227.013,173.992z"/>
	<linearGradient id="SVGID_13_" gradientUnits="userSpaceOnUse" x1="137.1304" y1="169.8018" x2="137.1304" y2="210.0097">
		<stop  offset="0" style="stop-color:#44925D"/>
		<stop  offset="1" style="stop-color:#0F5B2F"/>
	</linearGradient>
	<path opacity="0.16" fill="url(#SVGID_13_)" d="M227.013,173.992c-13.271,3.792-37.166-9.103-51.579-1.136
		c-14.414,7.962-16.31,21.235-29.205,18.205c-12.893-3.038-51.577-30.722-63.715-22.758c-12.135,7.966-14.41,22.381-21.236,21.239
		c-6.828-1.136-28.064-13.656-28.064-36.029v53.853h207.833v-56.125C241.047,151.241,240.288,170.201,227.013,173.992z"/>
</g>
<linearGradient id="SVGID_14_" gradientUnits="userSpaceOnUse" x1="164.8823" y1="170.5928" x2="176.4172" y2="203.2751">
	<stop  offset="0" style="stop-color:#3F3068"/>
	<stop  offset="1" style="stop-color:#FFFFFF"/>
</linearGradient>
<path opacity="0.56" fill="url(#SVGID_14_)" d="M156.473,156.927c0,0-6.592-5.482-7.586-3.792
	c-0.998,1.687,21.237,53.474,21.237,53.474l10.42-20.572L156.473,156.927z"/>
<g>
	<g>
		<g>
			<path opacity="0.39" fill="#5B7CCF" d="M149.016,140.859c-3.628,3.176-7.723,5.848-11.86,8.398
				c2.134-1.251,4.192-2.505,6.284-3.796C146.075,143.697,147.266,142.501,149.016,140.859z"/>
			<path opacity="0.39" fill="#5B7CCF" d="M125.519,156.418c-0.733,0.477-1.464,0.973-2.175,1.458
				c-0.621,0.456-1.229,0.888-1.796,1.295C122.875,158.26,124.187,157.313,125.519,156.418z"/>
			<path opacity="0.39" fill="#5B7CCF" d="M117.383,160.519c-1.702,1.458-3.254,2.99-4.67,4.579l-0.519,0.603l-0.261,0.301
				l-0.126,0.151l-0.067,0.072l-0.029,0.038l-0.006,0.013l-0.006,0.003c-1.769-2.744-0.491-0.761-0.883-1.372l0.002-0.004
				l0.024-0.009l1.458-0.489c0.972-0.321,1.898-0.798,2.821-1.229c-0.819,0.374-1.674,0.75-2.578,1.087l-1.395,0.452l-0.182,0.061
				l-0.089,0.03l-0.047,0.012l-0.017,0.008l-0.014,0.005h-0.006c1.922,2.992,0.536,0.831,0.961,1.494h0.006l0.252-0.293l0.515-0.595
				C113.925,163.834,115.53,162.181,117.383,160.519z"/>
			<path opacity="0.39" fill="#5B7CCF" d="M121.405,159.632c-1.373,0.781-2.026,1.083,0.071-0.408c0,0,0.047-0.033,0.072-0.053
				c-2.071,1.426-4.173,2.859-6.427,4.004C117.538,162.027,119.58,160.715,121.405,159.632z"/>
			<path opacity="0.39" fill="#5B7CCF" d="M121.405,159.632c1.334-0.774,3.356-2.061,4.105-2.48
				C124.286,157.853,122.937,158.687,121.405,159.632z"/>
			<path opacity="0.39" fill="#FFFFFF" d="M117.107,165.162c-1.14,0.676-1.702,0.717-2.537,0.924
				c-0.419,0.102-0.902,0.262-1.632,0.438c-0.364,0.098-0.78,0.214-1.262,0.37l-0.182,0.062l-0.097,0.027l-0.027,0.009h-0.001
				c-2.685-4.167-0.742-1.157-1.34-2.085l0.006-0.004l0.006-0.013l0.034-0.037l0.267-0.313c0.181-0.221,0.376-0.457,0.586-0.71
				c8.231-9.311,17.475-14.455,26.201-21.118c4-3.196,10.806-7.498,14.409-11.009c2.207-1.988,5.052-4.957,7.741-8.183l1.942-2.472
				l0.121-0.155l0.057-0.077l0.035-0.041l0.019-0.017l0.002-0.008c1.038,1.124-2.309-2.534,2.329,2.517l-0.305,0.241l-0.611,0.464
				l-1.199,0.92c-1.58,1.215-2.985,2.53-4.217,3.679c-4.813,4.789-6.851,7.14-0.423,1.006c1.197-1.152,2.453-2.139,3.656-3.148
				c0.59-0.526,1.239-0.929,1.843-1.385l0.922-0.668l0.455-0.334l0.23-0.163l0.026-0.021c2.914,3.16-3.952-4.321-3.253-3.539
				l-0.011,0.008l-0.044,0.057l-0.09,0.11c-1.896,2.362-3.825,4.57-5.829,6.603c-4.009,4.069-8.18,7.563-12.399,10.919
				c-8.285,6.994-17.333,12.036-26.957,20.203c-1.902,1.692-3.707,3.519-5.365,5.485l-0.619,0.741l-0.039,0.045l-0.01,0.013
				c-1.782-2.758,2.415,3.768,1.989,3.095l0.031-0.012l0.116-0.04l0.24-0.082l0.477-0.163c0.624-0.231,1.292-0.4,1.874-0.692
				c1.214-0.517,2.373-1.097,3.478-1.739c4.442-2.554,8.187-5.637,12.271-8.188c4.071-2.63,8.301-5.147,12.431-7.974
				c2.07-1.401,4.112-2.896,6.069-4.529c0.963-0.835,1.986-1.608,2.879-2.546l1.386-1.353l0.348-0.342l0.176-0.167l0.089-0.086
				l0.007-0.007c1.443,1.555-1.954-2.14-1.611-1.752l-0.019,0.016l-0.045,0.037l-0.73,0.598c-4.367,3.589-8.66,6.746-12.896,10.046
				c2.776-2.127,5.621-4.237,8.516-6.444c1.467-1.091,2.906-2.24,4.402-3.394l0.565-0.439l0.28-0.22l0.035-0.023l0.015-0.018
				l0.011-0.003c-1.19-1.3,1.628,1.759,1.335,1.449l-0.004,0.005l-0.067,0.061l-0.133,0.122l-1.079,1.002
				c-0.735,0.655-1.421,1.389-2.229,1.991c-4.069,3.381-8.878,6.672-14.332,10.228c-2.724,1.783-5.604,3.642-8.541,5.707
				C123.951,160.712,120.875,163.127,117.107,165.162z"/>
			<path opacity="0.39" fill="#5B7CCF" d="M139.226,156.764c1.88-1.751,5.671-5.16,5.678-5.16c2.274-1.723,4.582-3.454,6.921-5.177
				l1.783-1.263l0.895-0.631l0.447-0.317l0.218-0.159l0.03-0.024l0.019-0.009l0.005-0.004c0.71,0.848-0.964-1.161-0.794-0.953
				l-0.05,0.049l-0.106,0.095c-1.049,0.997-2.125,1.97-3.268,2.887c-4.562,3.687-9.758,6.688-14.951,9.661
				c1.616-0.762,3.193-1.491,4.819-2.289c5.903-3.526,6.413-4.175,1.155-1.116c3.054-1.666,6.001-3.441,8.714-5.49
				c1.348-1.03,2.644-2.121,3.87-3.283l0.117-0.105c0.085,0.065-0.104-0.224,0.202,0.131l-0.064,0.044l-0.258,0.188l-0.521,0.367
				l-1.025,0.729c-0.687,0.493-1.386,0.962-2.052,1.482c-5.384,4.029-10.416,8.428-15.474,12.882
				C136.291,158.895,136.291,159.184,139.226,156.764z"/>
			<path opacity="0.39" fill="#5B7CCF" d="M129.557,164.527c2.013-1.744,4.038-3.52,5.98-5.231
				c-0.049,0.018-0.159,0.088-0.271,0.153c-1.983,1.779-3.964,3.53-5.917,5.236C129.403,164.646,129.504,164.567,129.557,164.527z"
				/>
			<path opacity="0.39" fill="#FFFFFF" d="M159.362,126.217c0.74-0.766,1.424-1.584,2.097-2.407l1.021-1.226l0.507-0.611
				c-0.717-0.558-0.57,0.11-0.896,0.11c-1.755,1.197-3.421,2.488-5.018,3.861c-3.185,2.749-6.149,5.689-9.07,8.626
				c-5.755,5.95-11.963,11.29-18.684,15.783c-3.406,2.102-6.701,4.613-10.195,6.333c-0.267,0.261-1.319,0.073-0.951,0.433
				c0.182-0.453,0.333-0.913,0.587-1.333c0.437-0.875,1.062-1.641,1.692-2.387c1.332-1.454,2.886-2.684,4.48-3.853
				c6.822-4.171,12.003-10.354,17.514-15.819c1.588-1.801,2.69-3.128,5.088-5.263c1.881-1.592,3.783-3.115,5.748-4.582
				c1.793-1.405,3.674-2.672,5.613-3.825l0.73-0.423l0.366-0.208l0.182-0.106l0.091-0.053l0.021-0.013l0.02-0.008l0.004-0.004l0,0
				c-0.902-1.063-0.252-0.293-0.456-0.529l-0.029,0.041l-1.095,1.258c-0.78,0.798-1.608,1.548-2.475,2.26
				c-1.212,0.99-2.503,1.964-3.843,2.917l-0.071,0.061c-2.065,1.536-1.405,1.206-0.05,0.387c1.502-0.964,2.876-1.832,4.021-2.639
				c-0.721,0.521-2.683,1.841-4.021,2.639c-1.791,1.129-3.812,2.519-6.107,4.099c-3.378,2.472-6.866,4.985-10.62,7.56
				c4.094-2.962,7.597-5.467,10.62-7.56c2.13-1.548,4.159-3.076,6.229-4.546c0.612-0.452,1.175-0.872,1.794-1.36
				c-8.521,6.044-16.982,11.994-25.53,17.995c-1.916,1.4-3.765,2.748-5.25,3.84c-3.01,2.24-6.001,4.517-8.75,6.521l-0.513,0.375
				l-0.252,0.184l-0.126,0.094l-0.064,0.045l-0.034,0.02c-0.45-0.379,0.619,0.525,0.509,0.432v-0.004l0.006-0.012l0.013-0.017
				l0.576-1.055c0.372-0.705,0.823-1.323,1.204-1.942c0.833-1.21,1.671-2.245,2.448-3.097c1.13-1.413,2.37-2.793,3.653-4.133
				c-0.273,0.253-0.524,0.504-0.766,0.728c0.56-0.586,1.039-1.042,1.456-1.429c5.511-5.462,11.582-10.626,16.865-16.524
				c3.4-3.853,6.762-7.856,10.361-11.685c-0.002-0.004,2.67-2.359,4.024-3.47c1.429-1.563,3.608-3.735,6.366-5.955
				c-3.438,2.411-6.475,4.904-9.134,7.327c-4.058,3.507-7.627,9.058-12.38,13.217c4.753-4.159,8.322-9.71,12.38-13.217
				c2.659-2.423,5.695-4.916,9.134-7.327c1.46-1.157,3.07-2.338,4.806-3.462l1.334-0.819l0.676-0.407
				c-0.047-0.22,0.587,0.208-0.02-0.549l-0.257,0.289c-0.662,0.791-1.516,1.446-2.371,2.082c-3.602,2.354-6.92,5.29-9.952,7.641
				c3.438-3.242,6.993-6.239,10.349-8.484c0.404-0.301,0.771-0.615,1.124-0.938c0.188-0.154,0.335-0.325,0.493-0.496l0.233-0.249
				l0.055-0.065l0.017-0.016l0.012-0.009v-0.004c1.67,1.878,0.461,0.521,0.831,0.945l-0.04,0.021l-0.162,0.094
				c-0.848,0.489-1.693,0.953-2.511,1.441c-1.628,0.978-3.156,1.984-4.616,2.986c-2.758,2.219-4.938,4.391-6.366,5.955
				c-1.354,1.111-4.026,3.466-4.024,3.47c-3.6,3.828-6.961,7.832-10.361,11.685c5.271-5.624,10.402-11.432,16.174-16.609
				c2.884-2.586,5.93-5.005,9.183-7.127c0.809-0.542,1.652-1.022,2.48-1.532l0.309-0.192l0.021-0.012l0.009-0.008
				c-0.485-0.546,1.107,1.23-1.087-1.234l-0.026,0.033l-0.058,0.061l-0.107,0.122c-0.148,0.158-0.277,0.334-0.44,0.489
				c-0.342,0.313-0.662,0.636-1.044,0.929c-1.477,1.209-3.153,2.235-4.768,3.547c-9.729,8.375-19.43,16.41-29.411,24.088
				c-9.93,7.706-19.829,15.326-30.553,21.488l-0.996,0.587l-0.501,0.29l-0.248,0.146c-0.373-0.306,2.912,2.9,1.542,1.516
				l0.036-0.058l0.069-0.109c0.35-0.591,0.78-1.17,1.256-1.727c0.951-1.12,2.057-2.172,3.176-3.26
				c2.274-2.243,4.349-4.459,6.533-6.691c4.295-4.468,8.661-8.862,13.038-13.245c8.784-8.74,17.343-17.713,26.609-25.863
				c2.289-2.07,4.695-3.992,7.078-5.955l3.684-2.798l0.918-0.696l0.118-0.09c-0.444-1.04,1.073,2.272-0.978-2.343l-0.091,0.022
				l-0.344,0.097c-0.229,0.071-0.476,0.116-0.681,0.216c-0.879,0.34-1.623,0.808-2.318,1.284
				c-4.922,3.849-10.149,7.111-15.392,10.578c-10.461,6.973-20.811,14.043-31.131,21.542c-5.233,3.557-10.097,8.179-15.009,11.735
				l-0.478,0.317l-0.116,0.081l-0.057,0.04c-1.874-1.576,2.477,2.195,2.049,1.771l0.124-0.265l0.506-1.063
				c0.33-0.708,0.669-1.418,1.044-2.105c0.717-1.401,1.515-2.758,2.319-4.114c1.652-2.692,3.482-5.29,5.429-7.812
				c7.812-10.125,17.652-18.793,27.096-28.148c5.146-5.006,10.282-9.937,15.689-14.456l2.036-1.686l0.252-0.212
				c0.46,0.56-3.849-5.008-2.042-2.64l-0.036,0.026l-0.065,0.051l-0.138,0.1l-0.543,0.401l-1.089,0.805
				c-1.47,1.055-2.848,2.197-4.262,3.301c-2.777,2.258-5.479,4.58-8.138,6.918c-10.559,9.293-21.23,18.543-31.097,28.375
				c-4.975,4.875-9.859,9.815-14.634,14.821c-4.998,4.978-8.847,10.956-13.993,14.401l-0.96,0.582l-0.488,0.245l-0.242,0.122
				l-0.122,0.062l-0.061,0.032c6.246,3.36,1.733,0.921,3.126,1.666l0.002-0.025c-0.012-0.443,0.002-1.005,0.214-1.657
				c0.369-1.287,1.098-2.691,1.92-4.044c1.698-2.721,3.788-5.315,5.955-7.914c4.423-5.449,8.389-10.626,12.893-15.676
				c2.248-2.469,4.511-4.917,6.806-7.312l3.521-3.511l1.76-1.751l0.218-0.22l0.056-0.053c-6.681-8.012-1.889-2.195-3.398-3.972
				l-0.131,0.098l-0.515,0.396l-1.041,0.786c-5.547,4.199-10.265,9.079-14.925,13.787c-4.601,4.717-9.333,9.247-14.079,13.783
				c-2.382,2.236-4.755,4.473-7.172,6.643c-2.434,2.144-4.851,4.637-7.038,5.85l-0.416,0.249l-0.11,0.061l-0.051,0.032
				c8.087,5.942,2.247,1.617,4.059,2.925l0.049-0.241c0.071-0.317,0.108-0.639,0.2-0.96c0.177-0.651,0.384-1.308,0.657-1.964
				c0.54-1.312,1.222-2.627,2.018-3.91c1.601-2.565,3.543-5.034,5.598-7.465c4.242-4.863,8.405-9.931,12.787-14.419
				c2.226-2.216,4.495-4.383,6.92-6.235c0.584-0.51,1.231-0.884,1.843-1.336l0.926-0.651l0.114-0.081l0.062-0.041
				c0.75,1.026-6.243-9.152-3.315-4.818l-0.242,0.182l-0.5,0.363l-3.934,2.9c-5.214,3.926-10.372,7.962-15.341,12.247
				c-5.109,4.354-9.423,9.237-14.298,12.81l-0.222,0.171l-0.059,0.041c-4.248-2.509,5.721,3.486,4.702,2.839l0.024-0.11l0.082-0.436
				c0.039-0.289,0.149-0.591,0.236-0.893c0.182-0.603,0.426-1.217,0.735-1.836c0.599-1.238,1.384-2.473,2.26-3.69
				c1.778-2.439,3.904-4.77,6.085-7.237c4.35-5.059,8.345-10.024,12.775-14.679c2.187-2.317,4.437-4.57,6.813-6.626
				c1.152-1.088,2.417-1.983,3.623-2.985l0.228-0.183c0.994,0.985-8.354-8.81-4.423-4.636l-0.049,0.053l-0.096,0.106l-0.391,0.423
				l-0.774,0.847c-0.503,0.574-1.059,1.12-1.625,1.662c-4.448,4.391-9.751,8.223-14.938,12.585
				c-5.134,4.37-10.023,8.724-15.165,12.923c-1.27,1.063-2.55,2.114-3.851,3.128l-1.943,1.54l-0.974,0.77l-0.485,0.383l-0.063,0.049
				c-5.331-3.238,7.185,4.477,5.912,3.653l0.03-0.109l0.063-0.216c0.572-2.33,2.256-4.794,4.256-7.104
				c2.022-2.326,4.417-4.545,6.904-6.863c2.588-2.346,5.044-4.969,7.362-7.197c3.674-3.559,7.834-7.405,12.565-11.037
				c1.175-0.917,2.389-1.817,3.647-2.685l0.465-0.337l0.234-0.163l0.118-0.085l0.027-0.021c4.172,6.623-5.641-9.049-4.647-7.422
				l-0.069,0.041l-1.104,0.642c-0.733,0.433-1.486,0.853-2.217,1.311c-2.943,1.805-5.824,3.807-8.688,5.905
				c-5.7,4.22-11.242,8.891-16.889,13.384c-2.823,2.244-5.671,4.452-8.6,6.5c-1.462,1.027-2.937,2.032-4.438,2.969l-1.128,0.705
				l-0.562,0.354l-0.069,0.045l-0.036,0.024c13.275,10.415,3.688,2.868,6.652,5.186l0.039-0.11l0.085-0.224
				c0.189-0.591,0.503-1.218,0.852-1.85c2.865-5.026,9.091-10.377,13.938-15.086c5.165-4.614,10.999-8.811,16.275-13.677l1.945-1.86
				l0.247-0.232l0.118-0.116l0.059-0.057l0.031-0.033c-3.902-14.822-1.128-4.118-2.024-7.431c-0.455-0.105-0.917-0.186-1.379-0.245
				c-0.894-0.055-1.757-0.001-2.493,0.159c-2.955,0.68-4.592,1.971-6.119,3.048c-3.075,2.495-4.527,3.69-7.242,5.189
				c-4.979,2.872-10.276,5.345-14.835,8.477c-0.753,0.533-1.475,1.136-2.183,1.682l-0.523,0.415l-0.128,0.102
				c-1.304-1.332,11.153,11.734,5.893,6.191l0.025-0.029l0.051-0.056l0.191-0.221l0.762-0.872c1.007-1.145,1.957-2.236,2.861-3.275
				c1.802-2.077,3.398-3.942,4.812-5.62c2.862-3.323,5.057-5.813,6.601-7.747c3.104-3.84,3.792-5.256,3.267-5.378
				c-1.043-0.254-6.945,4.67-7.908,5.538c-3.161,2.732-6.103,5.522-8.987,8.356l-4.317,4.256l-1.069,1.075l-0.271,0.269l-0.067,0.07
				c3.168,3.335,0.886,0.916,1.6,1.658l0.021-0.013l0.039-0.027l0.151-0.102l0.605-0.42c0.806-0.562,1.599-1.14,2.468-1.637
				c6.627-4.188,15.281-7.042,22.538-13.43c0.904-0.611,1.854-1.134,2.708-1.36c0.43-0.114,0.809-0.148,1.12-0.082l0.114,0.019
				l0.065,0.01l0.027,0.004h0.014c-1.568-5.926-0.445-1.631-0.802-2.949l-0.338,0.315l-0.672,0.631
				c-1.786,1.719-3.745,3.385-5.828,5.078c-4.144,3.409-8.853,6.826-13.557,11.188c-4.411,4.448-9.876,8.477-13.976,15.474
				c-0.491,0.888-0.905,1.853-1.265,2.872l-0.017,0.049c-2.983-2.317,4.047,3.217,3.34,2.631l0.078-0.045l0.15-0.094l0.305-0.188
				l0.615-0.367l1.234-0.745c1.639-1.022,3.293-2.081,4.928-3.221c3.295-2.257,6.604-4.729,9.985-7.332
				c-9.205,7.132-12.592,8.875-11.209,7.783c1.358-1.103,7.067-5.449,14.65-11.774c3.819-3.128,8.15-6.701,12.991-10.159
				c2.413-1.744,4.965-3.434,7.635-5.001l1.002-0.587l0.509-0.289l0.256-0.15l0.122-0.074l0.063-0.036l0.032-0.017
				c-3.851-6.132-1.085-1.687-1.951-3.051l-1.996,1.413c-1.344,0.933-2.623,1.96-3.938,2.954
				c-5.154,4.082-10.04,8.558-14.537,13.034c-4.289,4.402-9.098,8.072-12.95,12.5c-1.384,1.592-2.727,3.352-3.827,5.437
				c-0.548,1.027-1.041,2.155-1.372,3.381l-0.128,0.456l-0.065,0.232l-0.035,0.109c2.245,1.394-5.042-3.025,5.028,3.133l0.035-0.028
				l0.625-0.474l1.249-0.944c3.36-2.517,6.696-5.201,10.06-7.971c6.784-5.71,13.28-11.233,20.727-17.103
				c1.825-1.523,3.67-3.099,5.448-4.859c0.904-0.847,1.782-1.764,2.637-2.725l0.646-0.712l0.323-0.355
				c-11.2-11.821-3.132-3.259-5.643-5.886l-0.046,0.038l-0.092,0.074l-0.183,0.145l-1.474,1.182
				c-3.929,3.169-7.491,6.705-10.869,10.378c-3.383,3.673-6.554,7.506-9.716,11.306c-2.961,3.646-6.655,7.234-9.727,12.012
				c-0.773,1.185-1.473,2.509-2.093,3.922c-0.292,0.733-0.584,1.462-0.796,2.272c-0.124,0.391-0.229,0.795-0.297,1.23l-0.118,0.636
				l-0.053,0.317l-0.012,0.081c12.973,7.726,3.625,2.118,6.537,3.833l0.102-0.078c2.234-1.648,4.231-3.433,6.152-5.213
				c3.863-3.649,7.109-7.005,11.054-10.194c3.794-3.259,7.761-6.362,11.759-9.437l3.039-2.269l1.521-1.137l0.756-0.563l0.096-0.073
				c-8.853-12.948-2.485-3.568-4.475-6.447l-0.053,0.036l-0.212,0.147l-0.425,0.305c-2.304,1.572-4.452,3.283-6.414,5.107
				c-3.974,3.617-7.469,7.519-10.817,11.4c-3.26,3.897-6.659,7.519-9.875,11.848c-1.583,2.146-3.096,4.42-4.326,7.014
				c-0.621,1.287-1.163,2.672-1.56,4.159c-0.12,0.357-0.183,0.753-0.262,1.14l-0.114,0.587l-0.053,0.285l-0.012,0.078
				c2.472,1.82-5.558-3.976,5.546,4.101l0.128-0.073l2.056-1.192c2.546-1.769,4.273-3.52,6.086-5.112
				c1.839-1.666,3.702-3.304,5.488-4.985c7.171-6.582,14.468-13.844,21.701-21.273c1.821-1.82,3.688-3.588,5.608-5.315
				c0.98-0.823,1.953-1.678,2.955-2.485l1.527-1.173l0.769-0.59l0.19-0.147l0.01-0.008c-2.333-2.794,5.246,6.232-5.233-6.264
				l-0.022,0.028l-0.045,0.044l-0.093,0.09l-0.369,0.375c-4.009,3.942-7.972,8.122-11.927,12.549
				c-5.067,5.629-9.867,12.056-14.419,17.53c-2.413,3.026-4.881,6.048-6.853,10.113c-0.482,1.034-0.92,2.195-1.25,3.502
				c-0.106,0.763-0.275,1.405-0.261,2.289c0.009,0.437,0.029,0.872,0.063,1.304l0.015,0.163c12.229,6.55,3.448,1.787,6.205,3.238
				l0.2-0.106l0.401-0.199c2.143-1.101,3.898-2.465,5.464-3.865c3.114-2.818,5.543-5.849,7.91-8.603
				c2.228-2.639,4.871-5.246,7.395-7.917c5.091-5.296,10.266-10.468,15.518-15.547c10.396-10.06,21.615-19.831,32.496-29.307
				c1.37-1.165,2.765-2.261,4.156-3.365c0.7-0.545,1.411-1.059,2.118-1.588l0.523-0.397l0.268-0.197l0.133-0.1
				c1.212,1.499-10.217-13.314-5.412-7.014l-0.07,0.058l-1.084,0.912c-2.92,2.407-5.695,4.932-8.437,7.472
				c-5.474,5.093-10.651,10.356-15.893,15.456c-10.511,10.251-21.667,21.094-28.857,35.325c-0.448,0.884-0.849,1.792-1.275,2.688
				l-0.155,0.338c-5.495-4.709,7.423,6.521,6.136,5.331l0.082-0.057l0.163-0.109l0.662-0.445c0.452-0.293,0.87-0.599,1.277-0.907
				c1.651-1.226,3.158-2.509,4.569-3.731c2.736-2.456,5.526-4.484,8.573-6.762c5.92-4.438,12.077-8.691,18.275-12.996
				c6.253-4.371,12.367-8.467,18.822-12.716c3.133-2.114,6.562-4.354,9.536-6.74c0.626-0.469,1.173-0.803,1.48-0.909l0.188-0.053
				l0.02-0.008c-1.429-3.25,3.231,7.253-3.193-7.29l-0.15,0.113l-0.298,0.225l-1.179,0.9c-1.566,1.208-3.179,2.374-4.68,3.657
				c-12.302,10.023-23.02,21.517-34.253,32.668c-5.926,5.919-11.63,11.971-17.01,17.615c-1.255,1.296-2.815,2.718-4.302,4.489
				c-0.373,0.416-0.745,0.962-1.105,1.442c-0.184,0.264-0.354,0.557-0.534,0.843l-0.255,0.428l-0.032,0.053l-0.018,0.029
				c10.628,10.543,2.959,2.916,5.335,5.262l0.082-0.045l0.157-0.103l2.56-1.539c3.405-2.044,6.658-4.216,9.792-6.439
				c12.542-8.993,23.543-18.21,34.513-27.357c3.987-3.324,7.994-6.762,11.984-10.182c2.103-1.862,3.652-3.104,5.975-4.685
				c1.107-0.826,2.276-1.669,3.481-3.066l0.222-0.261l0.056-0.065l0.031-0.033c-1.809-2.04,4.053,4.542-4.045-4.573l-0.013,0.008
				l-0.112,0.065l-0.432,0.261l-0.869,0.525c-0.575,0.35-1.161,0.685-1.709,1.072c-9.013,5.89-15.841,13.306-21.556,19.448
				c-4.487,4.876-8.675,9.551-13.09,13.669c-4.429,4.211-9.06,8.354-12.862,13.347c-0.937,1.251-1.849,2.529-2.64,3.897
				c-0.42,0.664-0.784,1.369-1.15,2.07l-0.139,0.26l-0.069,0.131l-0.037,0.065l-0.014,0.032c-4.074-3.422,5.541,4.68,4.557,3.838
				l0.013-0.009l0.43-0.322l0.857-0.647c2.285-1.711,4.545-3.413,6.783-5.095c4.5-3.324,8.891-6.61,13.323-9.788
				c-4.98,3.511-9.525,6.867-13.967,10.122c-2.203,1.645-4.382,3.267-6.545,4.879l-0.813,0.604l-0.104,0.076l-0.051,0.041
				l-0.026,0.017c-8.633-7.267-2.385-2.021-4.313-3.646l0.008-0.017l0.13-0.248l0.257-0.489c0.338-0.655,0.701-1.299,1.085-1.917
				c0.75-1.259,1.589-2.452,2.458-3.614c3.5-4.631,7.711-8.5,11.95-12.507c4.267-3.927,8.322-8.346,12.909-13.392
				c12.101-13.458-7.426,10.227-16.414,18.068c-1.818,1.856-4.335,4.105-6.648,6.658c-1.169,1.264-2.265,2.619-3.226,3.967
				c-0.475,0.678-0.904,1.37-1.308,2.025l-0.535,0.998l-0.253,0.484l-0.061,0.117l-0.016,0.029l-0.008,0.017
				c-0.815-0.689,7.125,5.995,3.762,3.164h0.005l0.005-0.008l0.055-0.036l0.185-0.147c8.977-6.65,17.083-12.829,26.797-19.876
				c4.072-3.107,3.998-2.187,6.039-3.739c3.315-2.477,6.337-4.524,9.348-7.041c0.723-0.656,1.453-1.275,2.108-1.997
				c0.333-0.358,0.676-0.684,0.974-1.075l0.46-0.57l0.227-0.285l0.113-0.139l0.053-0.073l0.019-0.017l0.003-0.008
				c-5.265-6.183-1.468-1.711-2.64-3.092l-0.039,0.024c-1.544,0.929-2.99,1.89-4.345,2.888c-5.394,4.02-9.418,8.263-13.193,11.905
				c-5.848,5.544-10.276,11.038-16.083,14.553c-1.827,1.263-3.698,2.57-5.468,4.221c-0.883,0.834-1.748,1.746-2.482,2.847
				c-0.389,0.525-0.692,1.148-1.014,1.746l-0.383,0.986l-0.091,0.245l-0.023,0.064l-0.003,0.008
				c-1.624-2.285,2.216,3.116,1.824,2.558h0.007h0.02l0.042-0.004l0.188-0.016l0.73-0.082c3.979-1.275,5.513-3.295,8.262-4.842
				c-2.164,1.106-2.883,1.274-3.747,1.543c3.541-2.27,8.936-5.421,12.357-8.15c-3.421,2.729-8.816,5.881-12.357,8.15
				c0.863-0.269,1.583-0.437,3.747-1.543c4.562-2.994,9.093-6.399,13.442-10.212c4.367-3.865,8.301-8.215,12.438-12.354
				c2.055-2.081,4.179-4.089,6.417-5.941c1.083-0.986,2.295-1.769,3.445-2.656l0.443-0.326l0.054-0.036l0.026-0.02l0.014-0.014
				c-0.588-0.644,1.336,1.434-1.318-1.45l-0.084,0.11l-0.17,0.211l-0.687,0.848l-1.374,1.707
				c-3.755,4.471-8.037,8.455-12.428,12.148l0.295-0.163c5.156-4.279,9.981-8.838,14.219-13.99l0.406-0.476l0.099-0.118l0.024-0.029
				l0.004-0.009c1.617,1.756,0.448,0.489,0.808,0.883l-0.018,0.009l-0.066,0.046l-0.255,0.183l-1.021,0.717
				c-0.679,0.484-1.381,0.933-2.042,1.446c-1.294,1.063-2.651,2.061-3.906,3.205c-2.576,2.195-5.039,4.603-7.592,6.98
				c4.384-4.162,3.993-3.486-0.871,1.427c-1.313,1.156-2.695,2.325-4.051,3.457c4.313-4.215,8.317-8.695,12.74-12.642
				c1.08-1.003,2.262-1.895,3.388-2.831c0.99-0.835,2.81-1.801,3.159-2.428c-1.864,2.236-3.828,4.337-5.899,6.272
				c0.017,0.016-3.545,3.71-5.435,5.441c-2.96,2.387-2.952,2.097-3.691,2.455c-2.047,1.691-4.085,3.328-6.205,4.985
				c2.336-1.583,7.062-4.993,10.975-8.312C156.326,129.468,159.369,126.221,159.362,126.217z"/>
			<path opacity="0.39" fill="#5B7CCF" d="M145.918,129.899c1.511-1.104,3.315-2.424,5.272-3.834
				c-7.119,5.071-14.26,10.069-21.415,15.07C133.716,138.733,139.839,134.396,145.918,129.899z"/>
		</g>
	</g>
	<g>
		<g>
			<path opacity="0.39" fill="#5B7CCF" d="M154.522,140.126c-3.63,3.176-7.723,5.85-11.856,8.395c2.13-1.25,4.194-2.501,6.284-3.792
				C151.581,142.961,152.77,141.768,154.522,140.126z"/>
			<path opacity="0.39" fill="#5B7CCF" d="M131.027,155.685c-0.734,0.477-1.466,0.974-2.174,1.458
				c-0.624,0.452-1.23,0.888-1.795,1.295C128.384,157.526,129.691,156.576,131.027,155.685z"/>
			<path opacity="0.39" fill="#5B7CCF" d="M122.892,159.785c-1.703,1.459-3.254,2.991-4.669,4.579l-0.52,0.604l-0.258,0.296
				l-0.132,0.155l-0.063,0.073l-0.031,0.037l-0.012,0.013l-0.002,0.003c-1.763-2.744-0.489-0.761-0.884-1.376h0.007l0.021-0.009
				l1.464-0.488c0.969-0.321,1.892-0.799,2.814-1.23c-0.821,0.375-1.674,0.749-2.576,1.087l-1.399,0.453l-0.173,0.06l-0.09,0.025
				l-0.049,0.017l-0.022,0.009l-0.01,0.004h-0.006c1.927,2.988,0.534,0.831,0.968,1.494l0.001-0.004l0.253-0.292l0.517-0.595
				C119.436,163.103,121.036,161.448,122.892,159.785z"/>
			<path opacity="0.39" fill="#5B7CCF" d="M126.91,158.895c-1.372,0.785-2.028,1.087,0.071-0.404c0,0,0.054-0.036,0.077-0.053
				c-2.077,1.422-4.174,2.855-6.431,4.004C123.042,161.289,125.091,159.981,126.91,158.895z"/>
			<path opacity="0.39" fill="#5B7CCF" d="M126.91,158.895c1.334-0.773,3.362-2.057,4.106-2.473
				C129.797,157.113,128.448,157.953,126.91,158.895z"/>
			<path opacity="0.39" fill="#FFFFFF" d="M122.617,164.429c-1.136,0.672-1.707,0.718-2.536,0.926
				c-0.419,0.097-0.904,0.26-1.637,0.436c-0.363,0.099-0.774,0.217-1.262,0.37L117,166.218l-0.096,0.032l-0.024,0.008h-0.002
				c-2.68-4.17-0.741-1.157-1.338-2.089l0.002-0.005l0.01-0.008l0.029-0.037l0.266-0.313c0.184-0.22,0.379-0.452,0.593-0.709
				c8.225-9.311,17.473-14.454,26.198-21.117c3.997-3.194,10.805-7.499,14.409-11.01c2.207-1.988,5.051-4.957,7.738-8.179
				l1.943-2.48l0.124-0.154l0.059-0.073l0.028-0.041l0.013-0.017l0.013-0.012c1.038,1.128-2.313-2.534,2.33,2.525l-0.304,0.232
				l-0.615,0.464l-1.199,0.92c-1.583,1.219-2.981,2.534-4.216,3.679c-4.813,4.79-6.847,7.144-0.428,1.01
				c1.205-1.152,2.456-2.134,3.659-3.148c0.59-0.525,1.236-0.929,1.847-1.389l0.92-0.664l0.456-0.334l0.228-0.163l0.03-0.024
				c2.907,3.165-3.954-4.317-3.254-3.539l-0.013,0.012l-0.046,0.058l-0.091,0.109c-1.894,2.362-3.82,4.566-5.825,6.599
				c-4.009,4.068-8.184,7.567-12.405,10.923c-8.274,6.99-17.33,12.032-26.95,20.199c-1.902,1.702-3.71,3.522-5.366,5.489
				l-0.619,0.737l-0.037,0.05l-0.01,0.012c-1.784-2.759,2.414,3.767,1.988,3.091l0.032-0.008l0.116-0.04l0.238-0.082l0.48-0.163
				c0.622-0.231,1.289-0.4,1.868-0.692c1.215-0.517,2.375-1.101,3.475-1.739c4.453-2.558,8.192-5.638,12.277-8.187
				c4.069-2.635,8.294-5.152,12.431-7.975c2.07-1.404,4.111-2.9,6.072-4.529c0.963-0.844,1.98-1.613,2.881-2.545l1.383-1.353
				l0.347-0.338l0.172-0.172l0.089-0.085l0.013-0.012c1.439,1.559-1.958-2.14-1.612-1.753l-0.023,0.021l-0.045,0.037l-0.729,0.599
				c-4.36,3.588-8.658,6.749-12.895,10.04c2.777-2.122,5.619-4.231,8.514-6.439c1.47-1.091,2.911-2.244,4.408-3.396l0.558-0.436
				l0.281-0.221l0.036-0.027l0.019-0.014l0.008-0.008c-1.189-1.294,1.628,1.764,1.334,1.454l0,0l-0.068,0.065l-0.136,0.122
				l-1.078,1.002c-0.735,0.656-1.422,1.389-2.23,1.992c-4.068,3.376-8.877,6.671-14.33,10.227c-2.728,1.779-5.601,3.642-8.54,5.707
				C129.455,159.973,126.384,162.39,122.617,164.429z"/>
			<path opacity="0.39" fill="#FFFFFF" d="M144.733,156.026c1.882-1.751,5.676-5.156,5.68-5.156
				c2.271-1.727,4.578-3.453,6.922-5.181l1.782-1.259l0.894-0.635l0.446-0.317l0.226-0.159l0.027-0.021l0.014-0.013l0.004-0.004
				c0.715,0.847-0.963-1.156-0.794-0.944l-0.049,0.045l-0.098,0.089c-1.056,1.002-2.134,1.976-3.274,2.892
				c-4.562,3.687-9.754,6.692-14.952,9.661c1.615-0.762,3.19-1.491,4.818-2.289c5.908-3.531,6.417-4.17,1.153-1.116
				c3.058-1.665,6.002-3.441,8.717-5.494c1.351-1.03,2.645-2.121,3.87-3.278l0.116-0.11c0.082,0.07-0.104-0.22,0.2,0.134
				l-0.059,0.045l-0.262,0.184l-0.519,0.366l-1.028,0.73c-0.688,0.492-1.387,0.965-2.05,1.485
				c-5.385,4.029-10.415,8.428-15.472,12.879C141.8,158.157,141.8,158.446,144.733,156.026z"/>
			<path opacity="0.39" fill="#5B7CCF" d="M135.068,163.79c2.006-1.739,4.031-3.516,5.979-5.23
				c-0.049,0.017-0.163,0.091-0.275,0.159c-1.98,1.775-3.961,3.522-5.91,5.229C134.912,163.912,135.009,163.83,135.068,163.79z"/>
			<path opacity="0.12" fill="#FFFFFF" d="M164.87,125.483c0.739-0.77,1.426-1.584,2.096-2.406l1.018-1.227l0.508-0.611
				c-0.713-0.554-0.564,0.11-0.896,0.105c-1.753,1.199-3.42,2.493-5.014,3.866c-3.188,2.749-6.152,5.689-9.073,8.622
				c-5.757,5.954-11.96,11.295-18.684,15.787c-3.401,2.098-6.701,4.615-10.193,6.329c-0.269,0.265-1.319,0.077-0.949,0.436
				c0.182-0.452,0.333-0.917,0.587-1.331c0.436-0.876,1.059-1.646,1.69-2.388c1.328-1.453,2.881-2.688,4.476-3.853
				c6.827-4.171,12.009-10.354,17.518-15.819c1.588-1.8,2.686-3.128,5.085-5.263c1.886-1.592,3.783-3.119,5.75-4.586
				c1.794-1.405,3.673-2.672,5.607-3.824l0.735-0.419l0.366-0.208l0.179-0.105l0.097-0.053l0.022-0.017l0.007-0.003l0.011-0.005
				h0.002c-0.905-1.063-0.25-0.294-0.457-0.53l-0.029,0.041l-1.093,1.254c-0.78,0.798-1.609,1.547-2.479,2.265
				c-1.205,0.989-2.499,1.959-3.838,2.917l-0.076,0.056c-2.056,1.54-1.396,1.211-0.048,0.393c1.502-0.967,2.88-1.834,4.023-2.641
				c-0.723,0.521-2.68,1.833-4.023,2.641c-1.791,1.127-3.808,2.512-6.108,4.092c-3.371,2.477-6.865,4.994-10.619,7.564
				c4.097-2.962,7.6-5.467,10.619-7.564c2.134-1.543,4.165-3.07,6.232-4.54c0.604-0.457,1.173-0.872,1.791-1.36
				c-8.518,6.044-16.979,11.998-25.528,17.994c-1.917,1.397-3.769,2.744-5.246,3.84c-3.019,2.24-6.003,4.521-8.755,6.521
				l-0.511,0.374l-0.254,0.184l-0.127,0.09l-0.063,0.044l-0.03,0.025c-0.454-0.383,0.611,0.525,0.501,0.427l0.008-0.003l0.004-0.004
				l0.01-0.021l0.58-1.056c0.363-0.704,0.819-1.327,1.204-1.947c0.832-1.201,1.668-2.24,2.444-3.095
				c1.134-1.41,2.37-2.79,3.653-4.134c-0.27,0.257-0.521,0.501-0.766,0.729c0.562-0.583,1.041-1.038,1.456-1.43
				c5.51-5.458,11.582-10.622,16.864-16.52c3.399-3.853,6.762-7.857,10.368-11.686c-0.007-0.009,2.666-2.358,4.019-3.47
				c1.438-1.569,3.612-3.739,6.365-5.959c-3.44,2.407-6.472,4.908-9.134,7.331c-4.052,3.507-7.625,9.058-12.382,13.217
				c4.757-4.159,8.33-9.709,12.382-13.217c2.662-2.423,5.693-4.924,9.134-7.331c1.462-1.153,3.076-2.334,4.81-3.458l1.337-0.819
				l0.674-0.407c-0.053-0.224,0.584,0.203-0.027-0.55l-0.252,0.289c-0.662,0.787-1.513,1.446-2.367,2.082
				c-3.606,2.351-6.922,5.291-9.959,7.641c3.444-3.246,6.997-6.24,10.349-8.484c0.404-0.301,0.775-0.615,1.125-0.936
				c0.193-0.155,0.34-0.331,0.495-0.498l0.229-0.253l0.061-0.065l0.013-0.012l0.013-0.009v-0.003
				c1.668,1.877,0.459,0.521,0.83,0.941l-0.038,0.024l-0.159,0.094c-0.849,0.493-1.698,0.953-2.511,1.434
				c-1.625,0.985-3.154,1.991-4.621,2.989c-2.753,2.22-4.928,4.39-6.365,5.959c-1.353,1.112-4.025,3.461-4.019,3.47
				c-3.606,3.829-6.969,7.833-10.368,11.686c5.273-5.629,10.405-11.433,16.177-16.614c2.883-2.586,5.928-5.006,9.184-7.127
				c0.805-0.538,1.651-1.019,2.477-1.531l0.31-0.188l0.022-0.012l0.011-0.008c-0.485-0.55,1.101,1.226-1.087-1.234l-0.03,0.029
				l-0.053,0.061l-0.11,0.123c-0.15,0.167-0.279,0.334-0.441,0.496c-0.341,0.31-0.662,0.631-1.042,0.921
				c-1.476,1.21-3.156,2.241-4.77,3.552c-9.725,8.37-19.428,16.41-29.41,24.087c-9.927,7.702-19.826,15.326-30.552,21.484
				l-0.996,0.592l-0.499,0.289l-0.255,0.146c-0.367-0.306,2.917,2.9,1.544,1.512l0.037-0.054l0.071-0.109
				c0.348-0.591,0.778-1.168,1.257-1.727c0.949-1.12,2.055-2.171,3.174-3.26c2.277-2.243,4.35-4.459,6.534-6.69
				c4.292-4.468,8.659-8.863,13.031-13.249c8.792-8.741,17.346-17.714,26.613-25.864c2.294-2.065,4.702-3.991,7.077-5.955
				l3.684-2.794l0.922-0.696l0.116-0.089c-0.443-1.042,1.073,2.272-0.979-2.345l-0.087,0.022l-0.345,0.098
				c-0.228,0.071-0.477,0.116-0.68,0.216c-0.878,0.339-1.625,0.806-2.316,1.287c-4.927,3.846-10.153,7.108-15.397,10.575
				c-10.459,6.973-20.807,14.043-31.131,21.541c-5.232,3.557-10.097,8.179-14.999,11.734l-0.481,0.318l-0.116,0.077l-0.06,0.041
				c-1.877-1.573,2.477,2.199,2.045,1.774l0.126-0.264l0.505-1.063c0.328-0.709,0.667-1.418,1.049-2.106
				c0.708-1.401,1.511-2.757,2.315-4.114c1.646-2.691,3.48-5.29,5.43-7.815c7.808-10.125,17.647-18.792,27.09-28.144
				c5.148-5.006,10.289-9.935,15.696-14.458l2.031-1.686l0.253-0.21c0.461,0.558-3.846-5.01-2.042-2.639l-0.034,0.026l-0.068,0.047
				l-0.137,0.102l-0.543,0.403l-1.09,0.805c-1.464,1.052-2.847,2.195-4.26,3.299c-2.774,2.262-5.48,4.581-8.14,6.918
				c-10.56,9.295-21.229,18.545-31.096,28.377c-4.978,4.876-9.858,9.816-14.634,14.822c-5,4.978-8.847,10.956-13.991,14.397
				l-0.959,0.583l-0.491,0.244l-0.243,0.127l-0.122,0.061l-0.057,0.033c6.244,3.359,1.729,0.92,3.124,1.66v-0.02
				c-0.01-0.439,0.008-1.006,0.218-1.657c0.367-1.288,1.092-2.697,1.92-4.045c1.694-2.721,3.784-5.315,5.951-7.913
				c4.421-5.45,8.388-10.631,12.895-15.682c2.25-2.464,4.511-4.912,6.804-7.307l3.521-3.511l1.757-1.755l0.224-0.216l0.053-0.056
				c-6.679-8.012-1.888-2.192-3.398-3.968l-0.126,0.098l-0.521,0.396l-1.038,0.782c-5.544,4.199-10.264,9.083-14.925,13.787
				c-4.597,4.716-9.336,9.25-14.075,13.787c-2.38,2.236-4.761,4.472-7.176,6.639c-2.434,2.146-4.851,4.64-7.039,5.854l-0.417,0.248
				l-0.107,0.061l-0.054,0.032c8.09,5.943,2.252,1.613,4.059,2.925l0.049-0.24c0.073-0.321,0.112-0.644,0.201-0.965
				c0.179-0.647,0.385-1.304,0.656-1.964c0.546-1.311,1.224-2.618,2.02-3.906c1.6-2.569,3.544-5.033,5.599-7.465
				c4.244-4.863,8.405-9.93,12.785-14.423c2.23-2.211,4.497-4.378,6.924-6.231c0.588-0.509,1.23-0.888,1.845-1.336l0.927-0.652
				l0.114-0.082l0.058-0.041c0.754,1.027-6.243-9.152-3.316-4.818l-0.244,0.179l-0.488,0.363l-3.941,2.904
				c-5.215,3.93-10.37,7.958-15.343,12.247c-5.109,4.354-9.42,9.237-14.293,12.809l-0.228,0.172l-0.053,0.044
				c-4.252-2.517,5.716,3.479,4.7,2.835l0.025-0.114l0.085-0.432c0.031-0.289,0.141-0.595,0.23-0.896
				c0.181-0.599,0.427-1.218,0.737-1.833c0.599-1.238,1.385-2.477,2.265-3.69c1.771-2.439,3.897-4.773,6.081-7.241
				c4.348-5.055,8.343-10.024,12.767-14.675c2.195-2.322,4.445-4.574,6.82-6.626c1.153-1.092,2.417-1.988,3.623-2.985l0.23-0.184
				c0.996,0.986-8.352-8.813-4.425-4.638l-0.045,0.055l-0.098,0.108l-0.391,0.422l-0.778,0.848c-0.501,0.574-1.052,1.12-1.621,1.662
				c-4.45,4.386-9.753,8.223-14.939,12.585c-5.132,4.371-10.024,8.724-15.164,12.928c-1.272,1.059-2.553,2.105-3.851,3.12
				l-1.944,1.539l-0.976,0.773l-0.482,0.384l-0.063,0.045c-5.334-3.234,7.185,4.479,5.912,3.652l0.031-0.109l0.067-0.216
				c0.572-2.326,2.252-4.794,4.252-7.099c2.024-2.33,4.417-4.546,6.905-6.867c2.584-2.346,5.041-4.965,7.364-7.197
				c3.672-3.56,7.827-7.4,12.56-11.033c1.179-0.92,2.393-1.817,3.649-2.688l0.464-0.33l0.236-0.171l0.117-0.077l0.029-0.024
				c4.172,6.623-5.64-9.049-4.648-7.426l-0.071,0.041l-1.104,0.644c-0.727,0.434-1.489,0.851-2.22,1.312
				c-2.935,1.806-5.818,3.809-8.684,5.903c-5.704,4.219-11.246,8.895-16.889,13.383c-2.826,2.249-5.676,4.456-8.6,6.501
				c-1.464,1.03-2.937,2.032-4.441,2.973l-1.121,0.701l-0.563,0.354l-0.071,0.045l-0.038,0.021
				c13.276,10.422,3.687,2.872,6.651,5.193l0.045-0.11l0.08-0.224c0.192-0.591,0.505-1.218,0.851-1.85
				c2.866-5.03,9.091-10.377,13.94-15.09c5.165-4.615,10.997-8.805,16.275-13.673l1.949-1.866l0.238-0.23l0.122-0.112l0.059-0.06
				l0.029-0.026c-3.898-14.832-1.131-4.126-2.021-7.438c-0.453-0.104-0.92-0.184-1.384-0.24c-0.892-0.058-1.751-0.005-2.492,0.157
				c-2.954,0.678-4.59,1.969-6.118,3.048c-3.071,2.495-4.525,3.692-7.24,5.185c-4.978,2.873-10.28,5.353-14.833,8.481
				c-0.756,0.534-1.479,1.132-2.186,1.683l-0.525,0.416l-0.129,0.102c-1.301-1.332,11.157,11.734,5.898,6.187l0.024-0.029
				l0.045-0.053l0.197-0.225l0.762-0.867c1.004-1.145,1.956-2.236,2.857-3.275c1.8-2.077,3.401-3.946,4.816-5.62
				c2.855-3.324,5.055-5.815,6.597-7.746c3.108-3.841,3.794-5.256,3.271-5.378c-1.041-0.257-6.946,4.667-7.91,5.533
				c-3.16,2.736-6.107,5.526-8.991,8.361l-4.314,4.256l-1.075,1.075l-0.267,0.269l-0.069,0.065c3.171,3.344,0.89,0.921,1.601,1.662
				l0.022-0.012l0.037-0.028l0.153-0.102l0.609-0.423c0.802-0.563,1.596-1.137,2.468-1.633c6.631-4.188,15.282-7.042,22.535-13.43
				c0.902-0.611,1.854-1.134,2.711-1.36c0.424-0.114,0.809-0.148,1.116-0.085l0.116,0.024l0.06,0.008l0.032,0.003h0.014
				c-1.566-5.925-0.448-1.632-0.805-2.948l-0.337,0.314l-0.672,0.633c-1.78,1.715-3.743,3.383-5.829,5.075
				c-4.142,3.408-8.85,6.829-13.554,11.191c-4.413,4.448-9.877,8.476-13.979,15.473c-0.484,0.884-0.904,1.849-1.265,2.872
				l-0.012,0.049c-2.989-2.322,4.044,3.213,3.34,2.631l0.075-0.045l0.153-0.094l0.301-0.188l0.615-0.366l1.236-0.746
				c1.635-1.022,3.295-2.082,4.93-3.226c3.295-2.256,6.604-4.724,9.983-7.327c-9.205,7.128-12.598,8.871-11.205,7.78
				c1.352-1.1,7.065-5.445,14.644-11.771c3.816-3.132,8.154-6.7,12.995-10.162c2.409-1.74,4.957-3.43,7.635-5.002l1.004-0.586
				l0.505-0.289l0.252-0.147l0.129-0.074l0.059-0.039l0.034-0.017c-3.849-6.127-1.087-1.686-1.953-3.048l-1.994,1.413
				c-1.348,0.934-2.625,1.957-3.94,2.951c-5.153,4.084-10.04,8.557-14.535,13.034c-4.293,4.407-9.101,8.077-12.95,12.499
				c-1.387,1.597-2.729,3.353-3.826,5.438c-0.55,1.031-1.039,2.159-1.371,3.385l-0.134,0.457l-0.065,0.228l-0.029,0.118
				c2.238,1.389-5.053-3.034,5.022,3.128l0.041-0.028l0.62-0.473l1.249-0.948c3.36-2.518,6.694-5.198,10.06-7.968
				c6.783-5.714,13.286-11.237,20.729-17.106c1.821-1.524,3.67-3.096,5.446-4.859c0.91-0.844,1.78-1.764,2.637-2.726l0.647-0.708
				l0.322-0.358c-11.201-11.819-3.132-3.254-5.641-5.884l-0.047,0.036l-0.089,0.076l-0.185,0.146l-1.479,1.182
				c-3.925,3.169-7.49,6.705-10.865,10.374c-3.382,3.678-6.551,7.506-9.717,11.311c-2.958,3.649-6.654,7.234-9.727,12.012
				c-0.774,1.182-1.473,2.509-2.098,3.918c-0.287,0.732-0.58,1.462-0.788,2.276c-0.122,0.392-0.228,0.795-0.299,1.23l-0.115,0.636
				l-0.059,0.313l-0.013,0.081c12.975,7.731,3.631,2.122,6.538,3.837l0.1-0.081c2.24-1.646,4.236-3.43,6.154-5.21
				c3.861-3.649,7.116-7.005,11.054-10.194c3.796-3.259,7.767-6.362,11.765-9.437l3.032-2.272l1.52-1.133l0.762-0.566l0.093-0.069
				c-8.851-12.948-2.487-3.567-4.477-6.447l-0.053,0.036l-0.213,0.151l-0.426,0.297c-2.302,1.577-4.448,3.283-6.412,5.111
				c-3.975,3.613-7.465,7.52-10.817,11.401c-3.26,3.898-6.66,7.518-9.876,11.848c-1.581,2.146-3.094,4.415-4.326,7.01
				c-0.618,1.291-1.155,2.672-1.557,4.162c-0.118,0.357-0.187,0.753-0.266,1.141l-0.11,0.582l-0.055,0.294l-0.015,0.069
				c2.478,1.824-5.556-3.972,5.547,4.101l0.128-0.069l2.062-1.192c2.542-1.769,4.265-3.523,6.082-5.112
				c1.845-1.666,3.702-3.307,5.49-4.985c7.17-6.581,14.463-13.848,21.699-21.273c1.82-1.82,3.694-3.588,5.611-5.319
				c0.979-0.819,1.948-1.678,2.953-2.484l1.531-1.173l0.763-0.587l0.192-0.146l0.012-0.008c-2.335-2.794,5.244,6.231-5.235-6.264
				l-0.022,0.024l-0.047,0.045l-0.09,0.097l-0.373,0.371c-4.008,3.938-7.973,8.121-11.923,12.545
				c-5.067,5.632-9.867,12.059-14.421,17.53c-2.411,3.03-4.875,6.053-6.849,10.117c-0.484,1.029-0.92,2.195-1.248,3.502
				c-0.112,0.763-0.279,1.405-0.267,2.285c0.006,0.437,0.031,0.876,0.065,1.308l0.012,0.159c12.233,6.554,3.448,1.788,6.203,3.238
				l0.205-0.099l0.402-0.203c2.137-1.1,3.896-2.468,5.46-3.869c3.113-2.819,5.543-5.845,7.912-8.602
				c2.231-2.636,4.869-5.243,7.394-7.919c5.09-5.291,10.268-10.467,15.52-15.538c10.392-10.064,21.613-19.835,32.496-29.314
				c1.367-1.163,2.767-2.259,4.153-3.364c0.7-0.544,1.411-1.057,2.115-1.591l0.529-0.396l0.267-0.197l0.135-0.1
				c1.214,1.499-10.221-13.314-5.421-7.012l-0.063,0.058l-1.088,0.91c-2.92,2.407-5.693,4.932-8.434,7.474
				c-5.478,5.094-10.65,10.354-15.895,15.457c-10.507,10.247-21.667,21.089-28.858,35.32c-0.445,0.884-0.847,1.792-1.27,2.688
				l-0.159,0.342c-5.493-4.709,7.427,6.517,6.134,5.328l0.082-0.054l0.167-0.114l0.666-0.439c0.444-0.298,0.861-0.6,1.27-0.908
				c1.654-1.226,3.155-2.514,4.575-3.731c2.731-2.456,5.525-4.488,8.569-6.765c5.918-4.436,12.075-8.692,18.274-12.993
				c6.253-4.371,12.37-8.468,18.826-12.716c3.131-2.113,6.563-4.354,9.534-6.745c0.63-0.468,1.176-0.798,1.48-0.904l0.183-0.056
				l0.027-0.009c-1.431-3.25,3.229,7.258-3.201-7.283l-0.146,0.112l-0.295,0.222l-1.181,0.9c-1.563,1.212-3.179,2.373-4.681,3.655
				c-12.305,10.027-23.022,21.521-34.25,32.673c-5.934,5.914-11.63,11.971-17.017,17.616c-1.252,1.295-2.814,2.715-4.299,4.487
				c-0.37,0.416-0.741,0.957-1.108,1.438c-0.179,0.265-0.352,0.563-0.527,0.844l-0.256,0.432l-0.035,0.049l-0.017,0.028
				c10.628,10.549,2.96,2.916,5.337,5.271l0.08-0.053l0.158-0.093l2.556-1.545c3.409-2.044,6.659-4.219,9.792-6.442
				c12.543-8.99,23.539-18.207,34.517-27.354c3.986-3.329,7.997-6.762,11.98-10.183c2.105-1.861,3.655-3.104,5.975-4.688
				c1.108-0.822,2.279-1.669,3.48-3.067l0.224-0.257l0.056-0.065l0.026-0.032c-1.803-2.041,4.06,4.537-4.041-4.578l-0.014,0.008
				l-0.104,0.065l-0.438,0.265l-0.864,0.521c-0.576,0.358-1.165,0.688-1.714,1.071c-9.013,5.893-15.841,13.311-21.551,19.452
				c-4.492,4.875-8.681,9.547-13.095,13.669c-4.43,4.21-9.06,8.354-12.856,13.343c-0.943,1.254-1.849,2.529-2.646,3.897
				c-0.417,0.664-0.784,1.372-1.15,2.069l-0.135,0.261l-0.07,0.135l-0.03,0.061l-0.021,0.037c-4.073-3.422,5.542,4.676,4.554,3.84
				l0.018-0.016l0.428-0.322l0.86-0.64c2.282-1.718,4.541-3.417,6.781-5.099c4.502-3.328,8.896-6.61,13.323-9.788
				c-4.982,3.511-9.527,6.867-13.964,10.122c-2.212,1.642-4.387,3.263-6.552,4.879l-0.809,0.604l-0.102,0.076l-0.051,0.038
				l-0.026,0.02c-8.639-7.267-2.391-2.024-4.313-3.648l0.004-0.018l0.128-0.244l0.261-0.488c0.337-0.656,0.696-1.299,1.085-1.918
				c0.748-1.263,1.587-2.452,2.456-3.613c3.502-4.635,7.714-8.505,11.95-12.509c4.264-3.93,8.323-8.345,12.911-13.391
				c12.104-13.457-7.426,10.223-16.416,18.068c-1.821,1.856-4.333,4.101-6.647,6.654c-1.165,1.264-2.267,2.62-3.228,3.972
				c-0.477,0.677-0.904,1.364-1.301,2.024l-0.542,0.998l-0.253,0.48l-0.059,0.122l-0.014,0.028l-0.01,0.013
				c-0.821-0.685,7.127,5.999,3.763,3.164h0.002l0.01-0.004l0.041-0.041l0.196-0.146c8.976-6.646,17.083-12.83,26.791-19.876
				c4.079-3.104,4.001-2.183,6.044-3.739c3.311-2.476,6.328-4.524,9.347-7.041c0.728-0.652,1.452-1.271,2.111-1.996
				c0.328-0.354,0.675-0.68,0.977-1.076l0.452-0.57l0.232-0.277l0.107-0.146l0.059-0.069l0.015-0.016l0.005-0.008
				c-5.269-6.183-1.465-1.715-2.643-3.092l-0.034,0.024c-1.545,0.929-2.996,1.886-4.347,2.888c-5.396,4.02-9.421,8.26-13.195,11.901
				c-5.842,5.544-10.272,11.038-16.082,14.554c-1.823,1.266-3.698,2.569-5.473,4.224c-0.873,0.83-1.741,1.746-2.476,2.847
				c-0.389,0.521-0.693,1.145-1.014,1.751l-0.385,0.979l-0.09,0.251l-0.024,0.058l-0.002,0.009
				c-1.625-2.281,2.214,3.115,1.821,2.563l0.005-0.006h0.025l0.044-0.004l0.182-0.011l0.733-0.082
				c3.977-1.279,5.513-3.296,8.264-4.843c-2.164,1.107-2.881,1.271-3.749,1.539c3.543-2.264,8.937-5.417,12.362-8.149
				c-3.426,2.732-8.819,5.886-12.362,8.149c0.868-0.269,1.585-0.432,3.749-1.539c4.558-2.994,9.093-6.399,13.443-10.216
				c4.37-3.86,8.303-8.215,12.437-12.353c2.055-2.082,4.175-4.086,6.42-5.942c1.079-0.979,2.296-1.768,3.449-2.652l0.436-0.326
				l0.052-0.041l0.031-0.02l0.008-0.008c-0.586-0.643,1.336,1.43-1.311-1.45l-0.091,0.105l-0.17,0.212l-0.687,0.856l-1.372,1.698
				c-3.754,4.472-8.039,8.459-12.43,12.149l0.299-0.154c5.152-4.29,9.979-8.847,14.217-13.996l0.401-0.477l0.104-0.118l0.023-0.032
				l0.011-0.005c1.609,1.752,0.44,0.489,0.798,0.884l-0.017,0.008l-0.064,0.044l-0.252,0.179l-1.025,0.718
				c-0.673,0.484-1.378,0.936-2.037,1.449c-1.3,1.059-2.657,2.057-3.906,3.201c-2.582,2.199-5.044,4.606-7.592,6.984
				c4.386-4.166,3.987-3.485-0.875,1.422c-1.312,1.156-2.691,2.33-4.049,3.463c4.304-4.216,8.312-8.696,12.736-12.644
				c1.089-1.006,2.266-1.897,3.394-2.834c0.986-0.831,2.808-1.801,3.158-2.424c-1.865,2.237-3.826,4.338-5.907,6.273
				c0.021,0.012-3.542,3.707-5.432,5.441c-2.96,2.383-2.947,2.099-3.687,2.461c-2.048,1.686-4.09,3.318-6.21,4.98
				c2.334-1.584,7.068-4.993,10.98-8.313C161.837,128.734,164.875,125.483,164.87,125.483z"/>
			<path opacity="0.39" fill="#5B7CCF" d="M151.427,129.161c1.508-1.1,3.314-2.423,5.274-3.828
				c-7.125,5.07-14.26,10.073-21.416,15.07C139.224,138,145.352,133.662,151.427,129.161z"/>
		</g>
	</g>
</g>
<linearGradient id="SVGID_15_" gradientUnits="userSpaceOnUse" x1="184.1362" y1="193.6211" x2="194.442" y2="222.821">
	<stop  offset="0" style="stop-color:#3F3068"/>
	<stop  offset="1" style="stop-color:#FFFFFF"/>
</linearGradient>
<path opacity="0.56" fill="url(#SVGID_15_)" d="M208.049,197.885c0,0-5.687-4.55-6.824-3.029
	c-1.143,1.514-4.934,10.237-4.934,10.237l-78.503,2.653l123.259-0.38v-54.61l-2.275,40.579c0,0-33.755-2.273-35.654-0.758
	c-1.893,1.515-3.413,9.482-3.413,9.482"/>
<g>
	<g>
		<linearGradient id="SVGID_16_" gradientUnits="userSpaceOnUse" x1="200.4438" y1="207.7168" x2="239.3992" y2="207.7168">
			<stop  offset="0" style="stop-color:#8D6868"/>
			<stop  offset="1" style="stop-color:#867942"/>
		</linearGradient>
		<path fill="url(#SVGID_16_)" d="M235.557,205.347c-2.032,0.253-27.098-0.254-30.486-0.505c-3.298-0.249-3.812-0.259-4.674-0.726
			c0.063,2.423,0.584,5.421,2.642,6.284c3.255,1.368,26.601,1.092,32.9-0.078C236.831,207.81,237.081,205.154,235.557,205.347z"/>
		<linearGradient id="SVGID_17_" gradientUnits="userSpaceOnUse" x1="200.4409" y1="199.1113" x2="239.3967" y2="199.1113">
			<stop  offset="0" style="stop-color:#8D6868"/>
			<stop  offset="1" style="stop-color:#867942"/>
		</linearGradient>
		<path fill="url(#SVGID_17_)" d="M239.261,198.919c-2.337-3.449-32.833,0.105-32.833,0.105l-5.874,1.772
			c0,0-0.001,0.003-0.001,0.013c6.508-1.084,34.328-1.28,34.328-1.28L239.261,198.919z"/>
		<linearGradient id="SVGID_18_" gradientUnits="userSpaceOnUse" x1="199.2007" y1="202.4629" x2="253.3684" y2="202.4629">
			<stop  offset="0" style="stop-color:#8D6868"/>
			<stop  offset="1" style="stop-color:#867942"/>
		</linearGradient>
		<path opacity="0.4" fill="url(#SVGID_18_)" d="M200.553,200.81c-0.883,0.146-1.379,0.309-1.352,0.488
			c0.223,1.519,0.223,2.276,1.128,2.781c0.023,0.018,0.046,0.024,0.067,0.037C200.349,202.369,200.539,200.928,200.553,200.81z"/>
		<linearGradient id="SVGID_19_" gradientUnits="userSpaceOnUse" x1="200.436" y1="204.6211" x2="239.5892" y2="204.6211">
			<stop  offset="0" style="stop-color:#8D6868"/>
			<stop  offset="1" style="stop-color:#867942"/>
		</linearGradient>
		<path fill="url(#SVGID_19_)" d="M239.398,199.278c-0.015-0.132-0.061-0.249-0.137-0.359l-4.38,0.61c0,0-27.82,0.196-34.328,1.28
			c-0.015,0.118-0.204,1.56-0.156,3.307c0.862,0.467,1.376,0.477,4.674,0.726c3.389,0.251,28.454,0.758,30.486,0.505
			c1.523-0.192,1.273,2.463,0.382,4.976c0.707-0.133,1.197-0.275,1.423-0.427C239.622,208.377,239.85,203.322,239.398,199.278z"/>
		<linearGradient id="SVGID_20_" gradientUnits="userSpaceOnUse" x1="199.186" y1="204.6211" x2="253.6625" y2="204.6211">
			<stop  offset="0" style="stop-color:#8D6868"/>
			<stop  offset="1" style="stop-color:#867942"/>
		</linearGradient>
		<path opacity="0.4" fill="url(#SVGID_20_)" d="M239.398,199.278c-0.015-0.132-0.061-0.249-0.137-0.359l-4.38,0.61
			c0,0-27.82,0.196-34.328,1.28c-0.015,0.118-0.204,1.56-0.156,3.307c0.862,0.467,1.376,0.477,4.674,0.726
			c3.389,0.251,28.454,0.758,30.486,0.505c1.523-0.192,1.273,2.463,0.382,4.976c0.707-0.133,1.197-0.275,1.423-0.427
			C239.622,208.377,239.85,203.322,239.398,199.278z"/>
	</g>
	<linearGradient id="SVGID_21_" gradientUnits="userSpaceOnUse" x1="205.9751" y1="206.1035" x2="213.2006" y2="206.1035">
		<stop  offset="0" style="stop-color:#8D6868"/>
		<stop  offset="1" style="stop-color:#867942"/>
	</linearGradient>
	<path opacity="0.4" fill="url(#SVGID_21_)" d="M210.714,201.049c0,0,0,8.341,2.486,10.109c0,0-1.578-5.308-0.676-9.86"/>
	<linearGradient id="SVGID_22_" gradientUnits="userSpaceOnUse" x1="209.3804" y1="206.1035" x2="216.5889" y2="206.1035">
		<stop  offset="0" style="stop-color:#8D6868"/>
		<stop  offset="1" style="stop-color:#867942"/>
	</linearGradient>
	<path opacity="0.4" fill="url(#SVGID_22_)" d="M214.108,201.049c0,0,0,8.341,2.48,10.109c0,0-1.58-5.308-0.677-9.86"/>
	<linearGradient id="SVGID_23_" gradientUnits="userSpaceOnUse" x1="212.7563" y1="206.1035" x2="219.979" y2="206.1035">
		<stop  offset="0" style="stop-color:#8D6868"/>
		<stop  offset="1" style="stop-color:#867942"/>
	</linearGradient>
	<path opacity="0.4" fill="url(#SVGID_23_)" d="M217.494,201.049c0,0,0,8.341,2.485,10.109c0,0-1.582-5.308-0.681-9.86"/>
	
		<linearGradient id="SVGID_24_" gradientUnits="userSpaceOnUse" x1="1884.9478" y1="206.1035" x2="1892.1591" y2="206.1035" gradientTransform="matrix(-1 0 0 1 2116.6533 0)">
		<stop  offset="0" style="stop-color:#8D6868"/>
		<stop  offset="1" style="stop-color:#867942"/>
	</linearGradient>
	<path opacity="0.4" fill="url(#SVGID_24_)" d="M226.976,201.049c0,0,0,8.341-2.481,10.109c0,0,1.579-5.308,0.676-9.86"/>
	
		<linearGradient id="SVGID_25_" gradientUnits="userSpaceOnUse" x1="1888.1118" y1="206.1035" x2="1895.3175" y2="206.1035" gradientTransform="matrix(-1 0 0 1 2116.6533 0)">
		<stop  offset="0" style="stop-color:#8D6868"/>
		<stop  offset="1" style="stop-color:#867942"/>
	</linearGradient>
	<path opacity="0.4" fill="url(#SVGID_25_)" d="M223.815,201.049c0,0-0.001,8.341-2.479,10.109c0,0,1.576-5.308,0.675-9.86"/>
	<linearGradient id="SVGID_26_" gradientUnits="userSpaceOnUse" x1="196.1724" y1="205.0918" x2="205.7506" y2="205.0918">
		<stop  offset="0" style="stop-color:#8D6868"/>
		<stop  offset="1" style="stop-color:#867942"/>
	</linearGradient>
	<path opacity="0.4" fill="url(#SVGID_26_)" d="M202.589,200.035c0,0-1.132,9.86,3.161,10.871c0,0-3.388-2.021-1.809-11.628"/>
	<linearGradient id="SVGID_27_" gradientUnits="userSpaceOnUse" x1="198.436" y1="205.0918" x2="208.0086" y2="205.0918">
		<stop  offset="0" style="stop-color:#8D6868"/>
		<stop  offset="1" style="stop-color:#867942"/>
	</linearGradient>
	<path opacity="0.4" fill="url(#SVGID_27_)" d="M204.849,200.035c0,0-1.131,9.86,3.159,10.871c0,0-3.389-2.021-1.809-11.628"/>
	<linearGradient id="SVGID_28_" gradientUnits="userSpaceOnUse" x1="201.3667" y1="205.0918" x2="210.9449" y2="205.0918">
		<stop  offset="0" style="stop-color:#8D6868"/>
		<stop  offset="1" style="stop-color:#867942"/>
	</linearGradient>
	<path opacity="0.4" fill="url(#SVGID_28_)" d="M207.784,200.035c0,0-1.13,9.86,3.161,10.871c0,0-3.389-2.021-1.809-11.628"/>
	
		<linearGradient id="SVGID_29_" gradientUnits="userSpaceOnUse" x1="1941.9702" y1="205.0918" x2="1951.5455" y2="205.0918" gradientTransform="matrix(-1 0 0 1 2183.2373 0)">
		<stop  offset="0" style="stop-color:#8D6868"/>
		<stop  offset="1" style="stop-color:#867942"/>
	</linearGradient>
	<path opacity="0.4" fill="url(#SVGID_29_)" d="M234.853,200.035c0,0,1.128,9.86-3.161,10.871c0,0,3.388-2.021,1.809-11.628"/>
	
		<linearGradient id="SVGID_30_" gradientUnits="userSpaceOnUse" x1="1944.2329" y1="205.0918" x2="1953.8054" y2="205.0918" gradientTransform="matrix(-1 0 0 1 2183.2373 0)">
		<stop  offset="0" style="stop-color:#8D6868"/>
		<stop  offset="1" style="stop-color:#867942"/>
	</linearGradient>
	<path opacity="0.4" fill="url(#SVGID_30_)" d="M232.591,200.035c0,0,1.131,9.86-3.159,10.871c0,0,3.389-2.021,1.806-11.628"/>
	
		<linearGradient id="SVGID_31_" gradientUnits="userSpaceOnUse" x1="1947.1577" y1="205.0918" x2="1956.7416" y2="205.0918" gradientTransform="matrix(-1 0 0 1 2183.2373 0)">
		<stop  offset="0" style="stop-color:#8D6868"/>
		<stop  offset="1" style="stop-color:#867942"/>
	</linearGradient>
	<path opacity="0.4" fill="url(#SVGID_31_)" d="M229.66,200.035c0,0,1.129,9.86-3.164,10.871c0,0,3.392-2.021,1.809-11.628"/>
	<linearGradient id="SVGID_32_" gradientUnits="userSpaceOnUse" x1="163.0718" y1="202.9463" x2="219.9791" y2="202.9463">
		<stop  offset="0" style="stop-color:#8D6868"/>
		<stop  offset="1" style="stop-color:#867942"/>
	</linearGradient>
	<path opacity="0.4" fill="url(#SVGID_32_)" d="M204.62,200.541l-4.223,3.575c0,0,12.354,3.25,19.582-0.794"/>
	<linearGradient id="SVGID_33_" gradientUnits="userSpaceOnUse" x1="181.5952" y1="202.9463" x2="238.494" y2="202.9463">
		<stop  offset="0" style="stop-color:#8D6868"/>
		<stop  offset="1" style="stop-color:#867942"/>
	</linearGradient>
	<path opacity="0.4" fill="url(#SVGID_33_)" d="M223.139,200.541l-4.225,3.575c0,0,12.35,3.25,19.579-0.794"/>
	<linearGradient id="SVGID_34_" gradientUnits="userSpaceOnUse" x1="199.4243" y1="199.3408" x2="240.4155" y2="199.3408">
		<stop  offset="0" style="stop-color:#B36868"/>
		<stop  offset="1" style="stop-color:#D78942"/>
	</linearGradient>
	<path fill="url(#SVGID_34_)" d="M240.416,199.339c0,2.757-1.802,4.997-4.021,4.997H203.45c-2.224,0-4.025-2.24-4.025-4.997l0,0
		c0-2.757,1.802-4.993,4.025-4.993h32.944C238.614,194.346,240.416,196.582,240.416,199.339L240.416,199.339z"/>
	<linearGradient id="SVGID_35_" gradientUnits="userSpaceOnUse" x1="200.105" y1="199.0859" x2="239.7368" y2="199.0859">
		<stop  offset="0" style="stop-color:#B36868"/>
		<stop  offset="1" style="stop-color:#D78942"/>
	</linearGradient>
	<path opacity="0.6" fill="url(#SVGID_35_)" d="M239.737,199.085c0,2.621-1.742,4.742-3.888,4.742h-31.856
		c-2.146,0-3.888-2.121-3.888-4.742l0,0c0-2.613,1.741-4.739,3.888-4.739h31.856C237.995,194.346,239.737,196.472,239.737,199.085
		L239.737,199.085z"/>
	<linearGradient id="SVGID_36_" gradientUnits="userSpaceOnUse" x1="200.5542" y1="198.709" x2="239.2847" y2="198.709">
		<stop  offset="0" style="stop-color:#C79090"/>
		<stop  offset="1" style="stop-color:#FFA26A"/>
	</linearGradient>
	<path fill="url(#SVGID_36_)" d="M239.285,198.707c0,2.269-1.701,4.109-3.801,4.109h-31.13c-2.099,0-3.8-1.841-3.8-4.109l0,0
		c0-2.269,1.701-4.105,3.8-4.105h31.13C237.583,194.602,239.285,196.438,239.285,198.707L239.285,198.707z"/>
	<linearGradient id="SVGID_37_" gradientUnits="userSpaceOnUse" x1="192.1606" y1="198.5176" x2="224.2697" y2="198.5176">
		<stop  offset="0" style="stop-color:#8D6868"/>
		<stop  offset="1" style="stop-color:#867942"/>
	</linearGradient>
	<path opacity="0.88" fill="url(#SVGID_37_)" d="M214.557,194.219c0,0-2.256,8.598-0.904,8.598c1.355,0,10.617,0,10.617,0
		s-2.26-8.598-3.393-8.598C219.75,194.219,214.557,194.219,214.557,194.219z"/>
</g>
<linearGradient id="SVGID_38_" gradientUnits="userSpaceOnUse" x1="158.7026" y1="162.6221" x2="165.338" y2="181.4223">
	<stop  offset="0" style="stop-color:#3F3068"/>
	<stop  offset="1" style="stop-color:#FFFFFF"/>
</linearGradient>
<path opacity="0.56" fill="url(#SVGID_38_)" d="M159.125,157.685c0,0-8.343-7.584-9.482-4.929
	c-1.134,2.651,11.001,27.685,18.587,28.063C175.813,181.198,159.125,157.685,159.125,157.685z"/>
<linearGradient id="SVGID_39_" gradientUnits="userSpaceOnUse" x1="168.6421" y1="176.5537" x2="174.0451" y2="191.8622">
	<stop  offset="0" style="stop-color:#3F3068"/>
	<stop  offset="1" style="stop-color:#FFFFFF"/>
</linearGradient>
<path opacity="0.56" fill="url(#SVGID_39_)" d="M163.298,167.546l0.377,10.238c0,0,5.69,14.793,7.968,15.173
	c2.275,0.378,5.686-3.793,6.447-4.934"/>
<g>
	<g>
		<linearGradient id="SVGID_40_" gradientUnits="userSpaceOnUse" x1="164.7085" y1="152.127" x2="138.6645" y2="168.6659">
			<stop  offset="0" style="stop-color:#FFFFFF"/>
			<stop  offset="1" style="stop-color:#D2E3D4"/>
		</linearGradient>
		<path fill="url(#SVGID_40_)" d="M152.678,153.701c2.085,3.412,6.259,10.809,6.826,10.618c0.519-0.171,1.825-1.915,6.212-2.367
			l-7.692-12.003c-0.885-1.38-2.759-1.812-4.514-1.177C153.208,149.29,150.918,150.821,152.678,153.701z"/>
		<linearGradient id="SVGID_41_" gradientUnits="userSpaceOnUse" x1="182.3628" y1="179.9512" x2="156.3853" y2="196.4479">
			<stop  offset="0" style="stop-color:#FFFFFF"/>
			<stop  offset="1" style="stop-color:#D2E3D4"/>
		</linearGradient>
		<path fill="url(#SVGID_41_)" d="M180.108,184.403l-2.681-4.187c-0.771,1.107-3.979,0.496-5.976,2.309l4.095,5.894
			c0.167-0.131,0.339-0.253,0.521-0.37l0.907-0.58C178.972,186.191,181.17,186.056,180.108,184.403z"/>
		<linearGradient id="SVGID_42_" gradientUnits="userSpaceOnUse" x1="172.1431" y1="163.8506" x2="146.1566" y2="180.353">
			<stop  offset="0" style="stop-color:#FFFFFF"/>
			<stop  offset="1" style="stop-color:#D2E3D4"/>
		</linearGradient>
		<path fill="url(#SVGID_42_)" d="M177.427,180.217l-11.711-18.265c-4.387,0.452-5.693,2.196-6.212,2.367
			c-0.567,0.19-4.741-7.206-6.826-10.618c-1.76-2.88,0.529-4.411,0.832-4.929c-0.349,0.127-0.693,0.29-1.022,0.501l-0.903,0.579
			c-1.998,1.279-2.757,3.657-1.695,5.315l22.086,34.447c0.963,1.504,1.91,0.042,3.571-1.196l-4.095-5.894
			C173.448,180.713,176.656,181.324,177.427,180.217z"/>
		<linearGradient id="SVGID_43_" gradientUnits="userSpaceOnUse" x1="167.0659" y1="166.6738" x2="153.9776" y2="176.1581">
			<stop  offset="0" style="stop-color:#FFFFFF"/>
			<stop  offset="1" style="stop-color:#84B389"/>
		</linearGradient>
		<path fill="url(#SVGID_43_)" d="M177.427,180.217l-11.711-18.265c-4.387,0.452-5.693,2.196-6.212,2.367
			c-0.567,0.19-4.741-7.206-6.826-10.618c-1.76-2.88,0.529-4.411,0.832-4.929c-0.349,0.127-0.693,0.29-1.022,0.501l-0.903,0.579
			c-1.998,1.279-2.757,3.657-1.695,5.315l22.086,34.447c0.963,1.504,1.91,0.042,3.571-1.196l-4.095-5.894
			C173.448,180.713,176.656,181.324,177.427,180.217z"/>
	</g>
	<g>
		
			<linearGradient id="SVGID_44_" gradientUnits="userSpaceOnUse" x1="1614.4487" y1="-103.0527" x2="1620.3611" y2="-107.1174" gradientTransform="matrix(-0.6799 0.365 0.4729 0.8811 1324.9766 -313.2286)">
			<stop  offset="0" style="stop-color:#FFFFFF"/>
			<stop  offset="1" style="stop-color:#A1C5A5"/>
		</linearGradient>
		<path fill="url(#SVGID_44_)" d="M180.454,185.376c0.091,0.196,0.123,0.416,0.091,0.66c-0.034-0.229-0.063-0.448-0.094-0.663
			C180.451,185.376,180.454,185.376,180.454,185.376z"/>
		
			<linearGradient id="SVGID_45_" gradientUnits="userSpaceOnUse" x1="1615.4937" y1="-101.0635" x2="1620.7113" y2="-104.6506" gradientTransform="matrix(-0.6799 0.365 0.4729 0.8811 1324.9766 -313.2286)">
			<stop  offset="0" style="stop-color:#FFFFFF"/>
			<stop  offset="1" style="stop-color:#A1C5A5"/>
		</linearGradient>
		<path fill="url(#SVGID_45_)" d="M174.846,188.076c0.377-1.653,2.35-2.468,3.579-3.311c0.958-0.144,1.703,0.037,1.994,0.557
			C179.738,186.896,174.058,191.514,174.846,188.076z"/>
		
			<linearGradient id="SVGID_46_" gradientUnits="userSpaceOnUse" x1="964.8667" y1="-273.3481" x2="978.155" y2="-282.4839" gradientTransform="matrix(-0.4917 0.8708 0.8708 0.4917 888.2454 -518.1986)">
			<stop  offset="0" style="stop-color:#DCE1CA"/>
			<stop  offset="1" style="stop-color:#81B187"/>
		</linearGradient>
		<path fill="url(#SVGID_46_)" d="M180.439,185.279c0.005,0.033,0.008,0.063,0.012,0.094c-0.007-0.018-0.019-0.033-0.031-0.051
			C180.426,185.313,180.432,185.295,180.439,185.279z"/>
		
			<linearGradient id="SVGID_47_" gradientUnits="userSpaceOnUse" x1="1616.1792" y1="-100.0605" x2="1621.3844" y2="-103.6391" gradientTransform="matrix(-0.6799 0.365 0.4729 0.8811 1324.9766 -313.2286)">
			<stop  offset="0" style="stop-color:#FFFFFF"/>
			<stop  offset="1" style="stop-color:#A1C5A5"/>
		</linearGradient>
		<path fill="url(#SVGID_47_)" d="M177.325,189.711c-2.238,1.335-4.459,1.567-4.968,0.512c-0.506-1.055,0.896-2.989,3.134-4.329
			c1.037-0.623,2.072-1.003,2.935-1.128c-1.229,0.843-3.202,1.657-3.579,3.311c-0.788,3.438,4.892-1.181,5.573-2.754
			c0.013,0.018,0.024,0.033,0.031,0.051c0.03,0.215,0.06,0.435,0.094,0.663C180.418,187.119,179.152,188.614,177.325,189.711z"/>
		
			<linearGradient id="SVGID_48_" gradientUnits="userSpaceOnUse" x1="965.0024" y1="-272.8926" x2="977.9084" y2="-281.7654" gradientTransform="matrix(-0.4917 0.8708 0.8708 0.4917 888.2454 -518.1986)">
			<stop  offset="0" style="stop-color:#DCE1CA"/>
			<stop  offset="1" style="stop-color:#81B187"/>
		</linearGradient>
		<path opacity="0.74" fill="url(#SVGID_48_)" d="M177.325,189.711c-2.238,1.335-4.459,1.567-4.968,0.512
			c-0.506-1.055,0.896-2.989,3.134-4.329c1.037-0.623,2.072-1.003,2.935-1.128c-1.229,0.843-3.202,1.657-3.579,3.311
			c-0.788,3.438,4.892-1.181,5.573-2.754c0.013,0.018,0.024,0.033,0.031,0.051c0.03,0.215,0.06,0.435,0.094,0.663
			C180.418,187.119,179.152,188.614,177.325,189.711z"/>
	</g>
	<path opacity="0.74" fill="#81B187" d="M169.174,180.248l-0.563,4.361c0,0,6.635-5.118,7.96-5.497
		c1.328-0.379-8.342-0.949-8.342-0.949"/>
	<path opacity="0.74" fill="#81B187" d="M161.213,167.166l-3.602,0.191c0,0,2.462-6.068,8.149-4.554
		c5.69,1.516-3.413,7.019-3.413,7.019L161.213,167.166z"/>
	<path opacity="0.74" fill="#81B187" d="M179.417,184.423c0,0-5.881,1.324-7.21,5.308
		C172.207,189.73,174.105,186.508,179.417,184.423z"/>
	<g>
		<linearGradient id="SVGID_49_" gradientUnits="userSpaceOnUse" x1="164.4536" y1="174.96" x2="170.009" y2="171.1406">
			<stop  offset="0" style="stop-color:#FFCF65"/>
			<stop  offset="1" style="stop-color:#FFB55F"/>
		</linearGradient>
		<path fill="url(#SVGID_49_)" d="M161.213,168.494c1.516,2.656,7.775,12.895,8.531,13.082c0.758,0.191,3.224-0.758,3.224-0.758
			s-0.007,0.021-0.008,0.054c2.059-0.981,3.989-1.381,3.989-1.381l-10.87-17.128c-1.941,0.184-3.591,0.901-4.911,1.732
			C160.766,164.791,160.058,166.479,161.213,168.494z"/>
		<linearGradient id="SVGID_50_" gradientUnits="userSpaceOnUse" x1="164.394" y1="174.6885" x2="169.8787" y2="170.9178">
			<stop  offset="0" style="stop-color:#FFCF65"/>
			<stop  offset="1" style="stop-color:#FFB55F"/>
		</linearGradient>
		<path fill="url(#SVGID_50_)" d="M157.612,167.357l10.999,17.252c0.853-1.713,2.643-2.928,4.35-3.737
			c0.001-0.033,0.008-0.054,0.008-0.054s-2.466,0.949-3.224,0.758c-0.756-0.188-7.016-10.426-8.531-13.082
			c-1.155-2.016-0.447-3.703-0.045-4.398C158.883,165.549,157.612,167.357,157.612,167.357z"/>
	</g>
	<g>
		<linearGradient id="SVGID_51_" gradientUnits="userSpaceOnUse" x1="160.0562" y1="177.3564" x2="165.8338" y2="173.3843">
			<stop  offset="0" style="stop-color:#FFCF65"/>
			<stop  offset="1" style="stop-color:#FFB55F"/>
		</linearGradient>
		<path opacity="0.79" fill="url(#SVGID_51_)" d="M172.96,180.872c0.001-0.033,0.008-0.054,0.008-0.054s-2.466,0.949-3.224,0.758
			c-0.756-0.188-7.016-10.426-8.531-13.082c-1.155-2.016-0.447-3.703-0.045-4.398c-1.354,0.863-2.351,1.845-2.941,2.505
			l11.151,16.854C170.328,182.334,171.67,181.487,172.96,180.872z"/>
		<linearGradient id="SVGID_52_" gradientUnits="userSpaceOnUse" x1="160.3276" y1="177.7295" x2="166.089" y2="173.7686">
			<stop  offset="0" style="stop-color:#FFCF65"/>
			<stop  offset="1" style="stop-color:#FFB55F"/>
		</linearGradient>
		<path opacity="0.79" fill="url(#SVGID_52_)" d="M157.612,167.357l10.999,17.252c0.207-0.41,0.468-0.798,0.768-1.155
			l-11.151-16.854C157.821,167.053,157.612,167.357,157.612,167.357z"/>
		<linearGradient id="SVGID_53_" gradientUnits="userSpaceOnUse" x1="152.1821" y1="183.3301" x2="161.7032" y2="176.7843">
			<stop  offset="0" style="stop-color:#FFCF65"/>
			<stop  offset="1" style="stop-color:#FFB55F"/>
		</linearGradient>
		<path opacity="0.79" fill="url(#SVGID_53_)" d="M157.612,167.357l10.999,17.252c0.207-0.41,0.468-0.798,0.768-1.155
			l-11.151-16.854C157.821,167.053,157.612,167.357,157.612,167.357z"/>
	</g>
	<path opacity="0.65" fill="#FFFFFF" d="M166.861,163.378c-6.838,1.52-8.594,4.888-8.664,5.031
		c-0.046,0.094-0.009,0.206,0.085,0.251c0.096,0.05,0.207,0.01,0.252-0.081c0.022-0.032,1.769-3.356,8.406-4.83
		c0.103-0.024,0.168-0.127,0.148-0.228C167.062,163.419,166.963,163.354,166.861,163.378z"/>
	<path opacity="0.65" fill="#FFFFFF" d="M167.241,164.136c-6.836,1.519-8.595,4.892-8.664,5.034
		c-0.047,0.091-0.009,0.203,0.083,0.248c0.097,0.05,0.21,0.013,0.26-0.081c0.016-0.032,1.763-3.352,8.4-4.831
		c0.102-0.023,0.173-0.126,0.144-0.224C167.443,164.181,167.341,164.111,167.241,164.136z"/>
	<path opacity="0.65" fill="#FFFFFF" d="M176.531,178.359c-6.837,1.519-8.59,4.887-8.662,5.03c-0.047,0.093-0.008,0.208,0.086,0.256
		c0.096,0.046,0.208,0.008,0.252-0.086c0.021-0.031,1.767-3.355,8.408-4.83c0.1-0.02,0.166-0.122,0.144-0.228
		C176.734,178.399,176.632,178.336,176.531,178.359z"/>
</g>
<g>
	<path fill="#FFFFFF" d="M130.391,91.701l0.485-0.128c0.203-0.061,0.415-0.085,0.614-0.085c0.356,0,0.91,0.04,1.673,0.125
		c0.938,0.123,1.482,0.284,1.624,0.49c0.089,0.115-0.009,0.408-0.302,0.878l-0.267,0.435c-0.117,0.178-0.205,0.373-0.269,0.58
		c-0.639,1.838-1.401,3.854-2.282,6.023c-0.875,2.11-1.514,3.519-1.893,4.225l3.963-0.177c0.442-0.057,0.792-0.147,1.049-0.259
		c0.181-0.062,0.37-0.152,0.575-0.27c0.296-0.174,0.599-0.293,0.924-0.352c0.498-0.087,1.307-0.087,2.421,0
		c0.885,0.059,1.568,0.232,2.069,0.526c0.411,0.234,0.616,0.532,0.616,0.887c0,0.323-0.174,0.582-0.532,0.788
		c-0.38,0.234-0.849,0.354-1.404,0.354c-2.703-0.146-5.84-0.223-9.417-0.223c-3.195,0-5.574,0.043-7.126,0.135
		c0,2.401-0.059,4.369-0.174,5.892c-0.088,1.526-0.264,2.755-0.528,3.695l5.276-0.177l1.149-0.176
		c0.377-0.087,0.699-0.129,0.966-0.129c0.438-0.032,1.016-0.018,1.713,0.042c0.855,0.061,1.338,0.231,1.456,0.529
		c0.056,0.146-0.05,0.408-0.308,0.793l-0.181,0.308l-0.085,0.307l-0.091,6.95c-0.027,1.053-0.1,1.959-0.217,2.724
		c-0.149,0.827-0.341,1.559-0.575,2.198c-0.521,1.116-0.979,1.616-1.365,1.502c-0.348-0.091-0.526-0.676-0.526-1.761v-12.141
		c-1.377,0-3.62,0.059-6.727,0.175c-3.523,0.18-6.412,0.369-8.665,0.573c-0.354,0.031-0.674,0.087-0.974,0.173
		c-0.172,0.063-0.393,0.146-0.658,0.27c-0.528,0.233-1.024,0.306-1.497,0.217c-0.669-0.177-1.86-0.748-3.563-1.712
		c-0.582-0.415-0.817-0.692-0.697-0.842c0.082-0.176,0.508-0.176,1.271,0c1.555,0.292,3.651,0.439,6.29,0.439
		c1.994,0,3.933-0.07,5.808-0.215v-9.502c-2.462,0.057-4.678,0.146-6.641,0.262c-2.259,0.118-3.635,0.246-4.137,0.398
		c-0.263,0.025-0.509,0.083-0.744,0.169c-0.12,0.064-0.298,0.132-0.534,0.228c-0.554,0.23-1.13,0.293-1.714,0.174
		c-0.822-0.174-2.313-0.778-4.488-1.803c-0.554-0.352-0.819-0.633-0.789-0.836c0-0.235,0.48-0.281,1.451-0.132
		c3.05,0.467,7.329,0.657,12.845,0.57c3.109-0.056,7.255-0.235,12.45-0.529h0.751c0.467-1.146,0.923-2.622,1.358-4.438
		c0.528-2.173,0.925-4.447,1.187-6.82c-1.293-0.03-3.823,0-7.612,0.091c-3.805,0.111-6.905,0.246-9.279,0.391
		c-0.356,0.029-0.673,0.085-0.97,0.176c-0.175,0.061-0.395,0.146-0.661,0.264c-0.614,0.203-1.14,0.261-1.583,0.174
		c-0.642-0.174-1.771-0.707-3.384-1.58c-0.555-0.325-0.852-0.591-0.875-0.795c-0.065-0.236,0.362-0.281,1.271-0.134
		c0.882,0.212,2.438,0.354,4.662,0.443c2.731,0.146,5.854,0.161,9.372,0.046l7.609-0.271
		C129.881,91.809,130.154,91.764,130.391,91.701z"/>
	<path fill="#FFFFFF" d="M69.231,120.433c-0.467-0.239-1.303-0.534-2.507-0.88c-0.613-0.179-0.892-0.37-0.838-0.576
		c0.028-0.259,0.516-0.471,1.451-0.614c0.94,0,1.88,0.029,2.818,0.086c0.793,0.057,1.437,0.135,1.933,0.219
		c0.502,0.12,0.809,0.295,0.926,0.531c0.086,0.15,0.086,0.423,0,0.84l-0.042,0.651l0.042,5.551c0,0.497,0.162,0.862,0.486,1.092
		c0.319,0.206,0.88,0.338,1.673,0.399l8.181-0.088c0.643-0.061,1.17-0.165,1.583-0.312c0.259-0.061,0.541-0.169,0.831-0.349
		c0.444-0.263,0.855-0.425,1.235-0.482c0.676-0.147,1.701-0.192,3.079-0.135c0.68,0.032,1.232,0.175,1.675,0.44
		c0.377,0.237,0.616,0.526,0.702,0.887c0.059,0.289-0.014,0.557-0.22,0.784c-0.236,0.242-0.561,0.372-0.969,0.396H75.038
		c-1.617-0.025-2.787-0.267-3.518-0.707c-0.821-0.465-1.261-1.228-1.32-2.282l-0.091-4.402
		C70.083,121.08,69.789,120.725,69.231,120.433z"/>
	<path fill="#FFFFFF" d="M66.24,94.608c-0.527-0.322-1.097-0.737-1.714-1.235c-0.415-0.377-0.59-0.641-0.529-0.79
		c0.056-0.176,0.542-0.16,1.455,0.044c0.933,0.12,1.829,0.189,2.681,0.22c1.2,0.059,3.018,0.074,5.455,0.045
		c0.616,0.029,1.1,0.16,1.451,0.395c0.318,0.208,0.471,0.458,0.442,0.745c-0.028,0.273-0.253,0.501-0.663,0.71
		c-0.437,0.204-1.039,0.32-1.804,0.346l-5.282,0.135C67.356,95.163,66.855,94.957,66.24,94.608z"/>
	<path fill="#FFFFFF" d="M84.363,91.31c-0.645-0.468-1.582-0.955-2.813-1.458c-0.794-0.29-1.146-0.558-1.06-0.789
		c0.057-0.264,0.606-0.409,1.63-0.438c0.821,0.029,1.68,0.161,2.592,0.397c0.529,0.15,1.306,0.379,2.334,0.702l0.088,0.048
		c0.585,0.179,0.955,0.397,1.099,0.663c0.088,0.142,0.088,0.438,0,0.875l-0.041,0.792l-0.048,15.925l2.332-0.134
		c0.355-0.061,0.643-0.15,0.882-0.265c0.142-0.062,0.336-0.172,0.571-0.354c0.32-0.203,0.647-0.346,0.966-0.433
		c0.561-0.152,1.349-0.189,2.378-0.136c0.555,0.032,1.011,0.162,1.364,0.397c0.323,0.204,0.498,0.454,0.527,0.749
		c0.027,0.29-0.077,0.54-0.305,0.746c-0.269,0.263-0.621,0.423-1.063,0.484l-7.691,0.131c-0.034,2.875-0.122,5.057-0.27,6.553
		c-0.118,1.208-0.294,2.17-0.524,2.902c-0.439,0.97-0.855,1.486-1.234,1.541c-0.471,0.063-0.707-0.609-0.707-2.026V92.68
		C85.373,92.265,85.037,91.813,84.363,91.31z"/>
	<path fill="#FFFFFF" d="M152.501,138.185c0.229-0.092,0.451-0.14,0.654-0.14c0.351-0.021,0.883,0.023,1.601,0.14
		c0.742,0.089,1.124,0.27,1.146,0.522c0.024,0.167-0.151,0.446-0.52,0.866l-0.207,0.281c-0.607,3.338-1.186,6.105-1.738,8.308
		c-0.603,2.34-1.264,4.355-1.983,6.043c-0.348,0.563-0.634,0.821-0.866,0.802c-0.237-0.046-0.237-0.436,0-1.186
		c0.393-1.689,0.799-3.822,1.216-6.395c0.485-3.076,0.808-5.811,0.973-8.195l-4.342,0.157c-2.827,0.128-4.924,0.218-6.294,0.26
		c-2.362,0.114-4.111,0.221-5.251,0.31c-0.251,0.024-0.494,0.069-0.723,0.137c-0.119,0.049-0.269,0.109-0.458,0.178
		c-0.393,0.161-0.763,0.205-1.107,0.136c-0.515-0.116-1.415-0.505-2.713-1.178c-0.508-0.325-0.765-0.558-0.765-0.699
		c-0.022-0.206,0.35-0.257,1.109-0.133c1.627,0.257,4.242,0.38,7.854,0.38c3.317,0,6.518-0.086,9.596-0.247l2.225-0.206
		L152.501,138.185z"/>
	<path fill="#FFFFFF" d="M144.296,147.984c-0.23-0.205-0.639-0.439-1.214-0.694c-0.675-0.213-0.975-0.418-0.907-0.625
		c0.074-0.185,0.465-0.29,1.185-0.313c1.737,0.23,2.839,0.475,3.302,0.726c0.3,0.163,0.403,0.433,0.309,0.809l-0.033,0.413
		l-0.244,10.394c0.65,0,1.472-0.036,2.469-0.105c0.993-0.048,2.029-0.108,3.092-0.176c0.3-0.021,0.566-0.065,0.801-0.141
		c0.141-0.045,0.314-0.11,0.52-0.207c0.348-0.16,0.677-0.255,0.979-0.28c0.503-0.043,1.284,0.019,2.324,0.174
		c0.742,0.097,1.322,0.258,1.733,0.483c0.354,0.216,0.523,0.438,0.523,0.668c0,0.226-0.141,0.415-0.415,0.557
		c-0.323,0.134-0.721,0.186-1.181,0.134c-2.69-0.275-6.449-0.382-11.297-0.305c-3.865,0.036-7.727,0.189-11.572,0.444
		c-0.3,0.05-0.566,0.122-0.801,0.214c-0.16,0.066-0.334,0.151-0.517,0.237c-0.396,0.21-0.799,0.269-1.217,0.174
		c-0.56-0.115-1.778-0.551-3.647-1.32c-0.537-0.302-0.814-0.551-0.839-0.765c0-0.208,0.386-0.217,1.146-0.038
		c1.205,0.146,2.421,0.252,3.646,0.317c0.745,0.023,1.761,0.034,3.061,0.034l1.532,0.038l-0.041-8.727
		c0-0.302-0.217-0.606-0.659-0.938c-0.324-0.208-0.782-0.451-1.388-0.729c-0.462-0.208-0.656-0.397-0.584-0.551
		c0.043-0.187,0.399-0.287,1.069-0.287c1.715,0.17,2.816,0.386,3.306,0.666c0.298,0.162,0.416,0.46,0.348,0.9v0.492l-0.145,9.135
		l5.839-0.067l-0.032-9.835C144.725,148.518,144.574,148.213,144.296,147.984z"/>
	<path fill="#FFFFFF" d="M99.917,137.107c-0.395-0.259-0.844-0.578-1.354-0.972c-0.324-0.305-0.465-0.503-0.413-0.623
		c0.04-0.168,0.425-0.152,1.144,0.035c0.737,0.087,1.445,0.15,2.117,0.172c0.955,0.043,2.382,0.057,4.313,0.034
		c0.483,0.023,0.867,0.129,1.146,0.313c0.253,0.164,0.37,0.347,0.348,0.554c-0.024,0.228-0.196,0.42-0.524,0.553
		c-0.349,0.169-0.819,0.269-1.424,0.321l-4.172,0.065C100.802,137.537,100.404,137.386,99.917,137.107z"/>
	<path fill="#FFFFFF" d="M103.744,156.919c-0.351,0.016-0.645,0.077-0.873,0.174c-0.162,0.043-0.336,0.126-0.519,0.241
		c-0.325,0.167-0.651,0.21-0.974,0.138c-0.462-0.115-1.356-0.487-2.68-1.112c-0.459-0.3-0.695-0.535-0.695-0.688
		c-0.021-0.191,0.28-0.224,0.903-0.112c1.327,0.189,3.165,0.266,5.532,0.246c1.362,0,3.483-0.057,6.359-0.172l2.741-0.074
		c0.161-0.022,0.318-0.046,0.456-0.068l0.311-0.099c0.188-0.075,0.355-0.129,0.525-0.181c0.273-0.041,0.646-0.065,1.104-0.065
		c0.932,0,1.489,0.099,1.667,0.315c0.12,0.136,0.075,0.418-0.138,0.831l-0.205,0.586l-0.036,1.601
		c-0.022,1.763-0.057,2.965-0.102,3.619c-0.068,0.973-0.221,2.014-0.454,3.126c-0.277,1.04-0.614,1.622-1.01,1.74
		c-0.391,0.112-0.61-0.373-0.661-1.458V156.4L103.744,156.919z"/>
	<path fill="#FFFFFF" d="M114.445,135.753c-0.486-0.394-1.159-0.776-2.016-1.146c-0.605-0.237-0.865-0.442-0.8-0.627
		c0.07-0.208,0.51-0.323,1.322-0.345c0.391,0.022,0.817,0.092,1.284,0.205c0.3,0.068,0.715,0.188,1.25,0.348l0.765,0.213
		c0.65,0.207,1.041,0.412,1.185,0.624c0.113,0.136,0.122,0.382,0.029,0.729l-0.067,0.587v10.397l0.593-0.039l0.799-0.033
		c0.253-0.068,0.488-0.151,0.693-0.245c0.118-0.045,0.267-0.124,0.449-0.241c0.302-0.206,0.603-0.354,0.909-0.418
		c0.485-0.113,1.228-0.148,2.221-0.104c0.442,0.023,0.774,0.123,1.009,0.315c0.235,0.183,0.345,0.391,0.345,0.624
		c0,0.229-0.095,0.438-0.275,0.627c-0.189,0.179-0.426,0.286-0.727,0.309l-6.106,0.142c-0.032,1.272-0.106,2.342-0.221,3.197
		c-0.09,0.813-0.228,1.482-0.406,2.018c-0.318,0.758-0.625,1.171-0.923,1.216c-0.34,0.065-0.513-0.458-0.513-1.572v-15.702
		C115.223,136.507,114.951,136.146,114.445,135.753z"/>
	<path fill="#FFFFFF" d="M180.374,90.516c-0.119-0.176-0.444-0.38-0.97-0.614c-0.56-0.206-1.307-0.44-2.241-0.709
		c-1.145-0.318-2.202-0.583-3.171-0.789c-1.117,0.058-1.641,0.25-1.579,0.572c0.026,0.265,0.419,0.53,1.18,0.79
		c0.973,0.474,1.81,0.971,2.515,1.494c0.875,0.651,1.331,1.194,1.362,1.631v13.153c-1.347,0.142-3.051,0.236-5.106,0.26
		c-2.018,0.06-3.471,0.044-4.355-0.045c-0.145-2.049-0.862-3.753-2.153-5.098c-1.41-1.467-3.43-2.492-6.072-3.083l0.44-0.616
		c0.358-0.35,0.484-0.628,0.401-0.837c-0.151-0.316-0.768-0.771-1.853-1.358c-0.819-0.207-1.275-0.207-1.365,0
		c-0.082,0.145,0.061,0.421,0.444,0.833c0.262,0.445,0.334,0.839,0.217,1.19c-0.145,0.381-0.526,0.646-1.143,0.789l-0.395,0.089
		c-2.961,0.38-5.22,1.513-6.772,3.387c-1.408,1.67-2.011,3.593-1.803,5.763c0.194,2.172,1.185,3.99,2.945,5.457
		c1.902,1.644,4.4,2.463,7.482,2.463c2.81,0,5.066-0.732,6.766-2.194c1.587-1.352,2.525-3.156,2.818-5.416
		c0.964,0.412,1.656,0.644,2.069,0.705c0.287,0.028,0.583-0.031,0.871-0.178l0.404-0.173c0.174-0.063,0.393-0.105,0.659-0.131
		l5.499-0.312v20.414c0,1.64,0.174,2.651,0.521,3.035c0.303,0.291,0.668,0.078,1.108-0.659c0.436-0.822,0.742-2.04,0.92-3.649
		c0.147-1.588,0.235-4.459,0.265-8.628l0.045-26.086l0.091-0.792C180.473,90.888,180.461,90.663,180.374,90.516z M157.625,112.289
		c-3.554,0-6.435-2.481-6.435-5.542c0-3.061,2.881-5.542,6.435-5.542s6.435,2.481,6.435,5.542
		C164.06,109.808,161.179,112.289,157.625,112.289z"/>
	<path fill="#FFFFFF" d="M112.049,139.229c-0.325-0.208-0.774-0.315-1.354-0.315c-0.765,0-1.347,0.05-1.74,0.138
		c-0.232,0.069-0.484,0.196-0.761,0.387c-0.207,0.113-0.386,0.208-0.527,0.275c-0.25,0.097-0.568,0.189-0.935,0.278l-0.552,0.034
		c-2.97,0.212-5.37,0.314-7.199,0.314c-1.753-0.022-3.423-0.143-5.005-0.349c-0.738-0.14-1.135-0.128-1.177,0.034
		c-0.046,0.163,0.203,0.408,0.761,0.734c1.087,0.619,1.844,0.981,2.261,1.073c0.273,0.096,0.554,0.062,0.828-0.101l0.35-0.144
		c0.142-0.046,0.305-0.082,0.492-0.104c0.758-0.116,1.548-0.194,2.361-0.246c0.484-0.016,1.124-0.044,1.908-0.067h0.176
		c0.325,0.305,0.5,0.605,0.519,0.907c0.028,0.348-0.146,0.632-0.519,0.868c-2.084,0.251-3.659,0.958-4.727,2.112
		c-0.949,1.024-1.343,2.211-1.183,3.547c0.142,1.325,0.79,2.436,1.947,3.34c1.275,1.002,2.883,1.494,4.834,1.494
		c1.898,0,3.463-0.492,4.686-1.494c1.114-0.88,1.728-1.981,1.845-3.299c0.135-1.324-0.264-2.502-1.219-3.548
		c-1.042-1.135-2.542-1.829-4.516-2.084l0.177-0.348c0.159-0.252,0.24-0.465,0.24-0.623c0-0.283-0.164-0.615-0.486-1.011
		c0.812-0.076,1.899-0.129,3.267-0.168c1.318-0.053,2.758-0.086,4.308-0.105c0.46,0,0.826-0.097,1.077-0.286
		c0.257-0.179,0.371-0.391,0.347-0.622C112.512,139.599,112.353,139.39,112.049,139.229z M106.744,148.291
		c0,1.786-1.847,3.233-4.125,3.233s-4.125-1.447-4.125-3.233c0-1.785,1.847-3.232,4.125-3.232S106.744,146.506,106.744,148.291z"/>
	<path fill="#FFFFFF" d="M81.946,98.04c-0.44-0.264-1.012-0.399-1.717-0.399c-0.994,0-1.746,0.065-2.243,0.178
		c-0.323,0.086-0.644,0.242-0.966,0.438c-0.265,0.146-0.482,0.271-0.663,0.354c-0.324,0.122-0.72,0.237-1.183,0.353
		c-4.436,0.295-7.731,0.44-9.905,0.44c-2.283,0-4.372-0.145-6.246-0.44c-0.938-0.174-1.446-0.161-1.537,0.048
		c-0.089,0.199,0.25,0.523,1.013,0.963c1.405,0.789,2.36,1.261,2.859,1.408c0.351,0.089,0.718,0.044,1.102-0.135l0.396-0.215
		c0.17-0.061,0.375-0.105,0.615-0.133c1.146-0.147,2.168-0.249,3.076-0.309c0.91-0.086,1.763-0.129,2.552-0.129
		c0.386,0.375,0.603,0.774,0.66,1.187c0.06,0.442-0.09,0.807-0.441,1.095c-2.61,0.327-4.586,1.203-5.937,2.643
		c-1.203,1.292-1.703,2.756-1.498,4.396c0.206,1.671,1.025,3.069,2.465,4.178c1.612,1.24,3.654,1.853,6.113,1.853
		c2.379,0,4.345-0.613,5.895-1.853c1.439-1.14,2.245-2.536,2.417-4.178c0.18-1.668-0.317-3.15-1.492-4.44
		c-1.317-1.408-3.224-2.271-5.72-2.599l0.086-0.484c0.117-0.234,0.131-0.436,0.045-0.61c-0.086-0.265-0.377-0.69-0.876-1.272
		c1.085-0.118,2.549-0.208,4.397-0.268c1.208-0.06,3.025-0.107,5.451-0.133c0.593,0,1.062-0.116,1.417-0.355
		c0.319-0.232,0.464-0.494,0.436-0.788C82.487,98.506,82.297,98.245,81.946,98.04z M76.077,109.095c0,2.447-2.665,4.43-5.951,4.43
		s-5.951-1.983-5.951-4.43s2.665-4.43,5.951-4.43S76.077,106.648,76.077,109.095z"/>
</g>
</svg>
