<?xml version="1.0" encoding="utf-8"?>
<!-- Generator: Adobe Illustrator 16.0.0, SVG Export Plug-In . SVG Version: 6.00 Build 0)  -->
<!DOCTYPE svg PUBLIC "-//W3C//DTD SVG 1.1//EN" "http://www.w3.org/Graphics/SVG/1.1/DTD/svg11.dtd">
<svg version="1.1" id="_x3C_Layer_x3E_" xmlns="http://www.w3.org/2000/svg" xmlns:xlink="http://www.w3.org/1999/xlink" x="0px"
	 y="0px" width="284.508px" height="275.143px" viewBox="0 0 284.508 275.143" enable-background="new 0 0 284.508 275.143"
	 xml:space="preserve">
<g>
	<linearGradient id="SVGID_1_" gradientUnits="userSpaceOnUse" x1="140.5684" y1="162.4175" x2="140.5683" y2="-68.7848">
		<stop  offset="0" style="stop-color:#FFFFFF"/>
		<stop  offset="1" style="stop-color:#8DC920"/>
	</linearGradient>
	<circle fill="url(#SVGID_1_)" cx="140.568" cy="137.574" r="137.568"/>
	<g>
		<g>
			<path fill="#FFFFFF" d="M264.912,221.772c0,2.914-55.678,5.277-124.344,5.277c-68.677,0-124.344-2.363-124.344-5.277
				c0-2.906,55.667-5.27,124.344-5.27C209.234,216.502,264.912,218.866,264.912,221.772z"/>
			<path fill="#FEFEFE" d="M264.284,221.721c0,2.914-55.338,5.275-123.584,5.275c-68.257,0-123.584-2.361-123.584-5.275
				c0-2.908,55.327-5.27,123.584-5.27C208.946,216.452,264.284,218.813,264.284,221.721z"/>
			<path fill="#FDFDFD" d="M263.656,221.668c0,2.914-54.998,5.277-122.824,5.277c-67.838,0-122.825-2.363-122.825-5.277
				c0-2.906,54.987-5.27,122.825-5.27C208.658,216.399,263.656,218.762,263.656,221.668z"/>
			<path fill="#FCFCFC" d="M263.028,221.618c0,2.914-54.657,5.275-122.064,5.275c-67.419,0-122.065-2.361-122.065-5.275
				c0-2.908,54.646-5.27,122.065-5.27C208.371,216.348,263.028,218.709,263.028,221.618z"/>
			<path fill="#FBFCFC" d="M262.4,221.566c0,2.914-54.317,5.275-121.305,5.275c-66.999,0-121.307-2.361-121.307-5.275
				c0-2.907,54.308-5.271,121.307-5.271C208.083,216.295,262.4,218.659,262.4,221.566z"/>
			<path fill="#FBFBFB" d="M261.772,221.514c0,2.914-53.978,5.275-120.545,5.275c-66.58,0-120.547-2.361-120.547-5.275
				c0-2.908,53.967-5.27,120.547-5.27C207.795,216.245,261.772,218.606,261.772,221.514z"/>
			<path fill="#FAFAFA" d="M261.145,221.462c0,2.914-53.637,5.276-119.785,5.276c-66.16,0-119.788-2.362-119.788-5.276
				c0-2.907,53.627-5.271,119.788-5.271C207.508,216.192,261.145,218.555,261.145,221.462z"/>
			<path fill="#F9F9F9" d="M260.516,221.411c0,2.914-53.297,5.275-119.024,5.275c-65.741,0-119.028-2.361-119.028-5.275
				c0-2.908,53.287-5.27,119.028-5.27C207.219,216.141,260.516,218.502,260.516,221.411z"/>
			<path fill="#F8F8F8" d="M259.889,221.36c0,2.913-52.957,5.275-118.266,5.275c-65.321,0-118.269-2.362-118.269-5.275
				c0-2.908,52.947-5.271,118.269-5.271C206.932,216.089,259.889,218.452,259.889,221.36z"/>
			<path fill="#F7F7F7" d="M259.261,221.307c0,2.914-52.616,5.275-117.507,5.275c-64.901,0-117.508-2.361-117.508-5.275
				c0-2.908,52.607-5.27,117.508-5.27C206.645,216.038,259.261,218.399,259.261,221.307z"/>
			<path fill="#F6F6F7" d="M258.633,221.256c0,2.914-52.277,5.274-116.746,5.274c-64.483,0-116.75-2.36-116.75-5.274
				c0-2.908,52.267-5.271,116.75-5.271C206.355,215.985,258.633,218.348,258.633,221.256z"/>
			<path fill="#F5F5F6" d="M258.005,221.204c0,2.914-51.937,5.275-115.987,5.275c-64.063,0-115.99-2.361-115.99-5.275
				c0-2.908,51.928-5.27,115.99-5.27C206.068,215.934,258.005,218.295,258.005,221.204z"/>
			<path fill="#F4F5F5" d="M257.377,221.153c0,2.914-51.597,5.274-115.228,5.274c-63.644,0-115.23-2.36-115.23-5.274
				c0-2.908,51.587-5.271,115.23-5.271C205.78,215.882,257.377,218.245,257.377,221.153z"/>
			<path fill="#F3F4F4" d="M256.748,221.1c0,2.914-51.256,5.275-114.467,5.275c-63.224,0-114.471-2.361-114.471-5.275
				c0-2.908,51.248-5.27,114.471-5.27C205.492,215.831,256.748,218.192,256.748,221.1z"/>
			<path fill="#F2F3F3" d="M256.121,221.049c0,2.914-50.916,5.275-113.708,5.275c-62.805,0-113.712-2.361-113.712-5.275
				c0-2.908,50.907-5.271,113.712-5.271C205.205,215.778,256.121,218.141,256.121,221.049z"/>
			<path fill="#F2F2F2" d="M255.493,220.999c0,2.912-50.576,5.273-112.948,5.273c-62.385,0-112.952-2.361-112.952-5.273
				c0-2.909,50.567-5.271,112.952-5.271C204.917,215.727,255.493,218.089,255.493,220.999z"/>
			<path fill="#F1F1F2" d="M254.865,220.946c0,2.914-50.236,5.273-112.188,5.273c-61.966,0-112.192-2.359-112.192-5.273
				c0-2.908,50.227-5.271,112.192-5.271C204.629,215.674,254.865,218.038,254.865,220.946z"/>
			<path fill="#F0F0F1" d="M254.237,220.895c0,2.914-49.896,5.273-111.429,5.273c-61.547,0-111.434-2.359-111.434-5.273
				c0-2.909,49.887-5.271,111.434-5.271C204.341,215.624,254.237,217.986,254.237,220.895z"/>
			<path fill="#EFEFF0" d="M253.609,220.842c0,2.914-49.557,5.274-110.669,5.274c-61.127,0-110.674-2.36-110.674-5.274
				c0-2.908,49.547-5.271,110.674-5.271C204.053,215.572,253.609,217.934,253.609,220.842z"/>
			<path fill="#EEEEEF" d="M252.98,220.792c0,2.914-49.215,5.273-109.908,5.273c-60.708,0-109.915-2.359-109.915-5.273
				c0-2.909,49.207-5.271,109.915-5.271C203.766,215.52,252.98,217.882,252.98,220.792z"/>
			<path fill="#EDEEEE" d="M252.354,220.739c0,2.914-48.876,5.273-109.149,5.273c-60.288,0-109.155-2.359-109.155-5.273
				c0-2.908,48.867-5.271,109.155-5.271C203.478,215.467,252.354,217.831,252.354,220.739z"/>
			<path fill="#ECEDED" d="M251.725,220.688c0,2.914-48.535,5.273-108.389,5.273c-59.869,0-108.396-2.359-108.396-5.273
				c0-2.91,48.527-5.271,108.396-5.271C203.189,215.417,251.725,217.778,251.725,220.688z"/>
			<path fill="#EBECED" d="M251.098,220.636c0,2.913-48.195,5.272-107.63,5.272c-59.449,0-107.637-2.359-107.637-5.272
				c0-2.909,48.188-5.271,107.637-5.271C202.902,215.365,251.098,217.727,251.098,220.636z"/>
			<path fill="#EAEBEC" d="M250.47,220.584c0,2.914-47.855,5.273-106.87,5.273c-59.03,0-106.878-2.359-106.878-5.273
				c0-2.91,47.848-5.271,106.878-5.271C202.614,215.313,250.47,217.674,250.47,220.584z"/>
			<path fill="#E9EAEB" d="M249.842,220.533c0,2.913-47.516,5.272-106.111,5.272c-58.61,0-106.117-2.359-106.117-5.272
				c0-2.909,47.507-5.271,106.117-5.271C202.326,215.262,249.842,217.624,249.842,220.533z"/>
			<path fill="#E9E9EA" d="M249.213,220.481c0,2.914-47.174,5.273-105.35,5.273c-58.191,0-105.358-2.359-105.358-5.273
				c0-2.91,47.167-5.271,105.358-5.271C202.039,215.209,249.213,217.571,249.213,220.481z"/>
			<path fill="#E8E8E9" d="M248.586,220.43c0,2.913-46.836,5.271-104.592,5.271c-57.771,0-104.599-2.358-104.599-5.271
				c0-2.91,46.827-5.272,104.599-5.272C201.75,215.158,248.586,217.52,248.586,220.43z"/>
			<path fill="#E7E8E8" d="M247.957,220.377c0,2.914-46.494,5.273-103.83,5.273c-57.353,0-103.84-2.359-103.84-5.273
				c0-2.909,46.487-5.271,103.84-5.271C201.463,215.106,247.957,217.468,247.957,220.377z"/>
			<path fill="#E6E7E8" d="M247.33,220.327c0,2.913-46.155,5.271-103.072,5.271c-56.933,0-103.08-2.358-103.08-5.271
				c0-2.91,46.147-5.272,103.08-5.272C201.175,215.054,247.33,217.417,247.33,220.327z"/>
			<path fill="#E5E6E7" d="M246.701,220.274c0,2.914-45.814,5.273-102.312,5.273c-56.514,0-102.32-2.359-102.32-5.273
				c0-2.909,45.807-5.271,102.32-5.271C200.887,215.002,246.701,217.365,246.701,220.274z"/>
			<path fill="#E4E5E6" d="M246.074,220.223c0,2.914-45.475,5.271-101.553,5.271c-56.094,0-101.561-2.357-101.561-5.271
				c0-2.91,45.467-5.271,101.561-5.271C200.6,214.952,246.074,217.313,246.074,220.223z"/>
			<path fill="#E3E4E5" d="M245.445,220.17c0,2.914-45.134,5.273-100.792,5.273c-55.675,0-100.802-2.359-100.802-5.273
				c0-2.909,45.127-5.271,100.802-5.271C200.312,214.899,245.445,217.261,245.445,220.17z"/>
			<path fill="#E2E3E4" d="M244.817,220.12c0,2.914-44.794,5.271-100.032,5.271c-55.255,0-100.042-2.357-100.042-5.271
				c0-2.91,44.787-5.272,100.042-5.272C200.023,214.847,244.817,217.209,244.817,220.12z"/>
			<path fill="#E1E2E3" d="M244.189,220.067c0,2.914-44.453,5.272-99.272,5.272c-54.836,0-99.283-2.358-99.283-5.272
				c0-2.909,44.447-5.271,99.283-5.271C199.736,214.795,244.189,217.158,244.189,220.067z"/>
			<path fill="#E0E1E3" d="M243.562,220.016c0,2.914-44.114,5.271-98.513,5.271c-54.416,0-98.523-2.357-98.523-5.271
				c0-2.91,44.107-5.271,98.523-5.271C199.447,214.745,243.562,217.106,243.562,220.016z"/>
			<path fill="#E0E1E2" d="M242.934,219.963c0,2.915-43.773,5.272-97.753,5.272c-53.997,0-97.764-2.357-97.764-5.272
				c0-2.908,43.767-5.271,97.764-5.271C199.16,214.692,242.934,217.055,242.934,219.963z"/>
			<path fill="#DFE0E1" d="M242.307,219.913c0,2.914-43.435,5.271-96.994,5.271c-53.577,0-97.005-2.357-97.005-5.271
				c0-2.91,43.428-5.271,97.005-5.271C198.872,214.641,242.307,217.002,242.307,219.913z"/>
			<path fill="#DEDFE0" d="M241.678,219.861c0,2.915-43.094,5.272-96.233,5.272c-53.158,0-96.246-2.357-96.246-5.272
				c0-2.909,43.087-5.272,96.246-5.272C198.584,214.588,241.678,216.952,241.678,219.861z"/>
			<path fill="#DDDEDF" d="M241.051,219.809c0,2.914-42.754,5.271-95.475,5.271c-52.739,0-95.486-2.357-95.486-5.271
				c0-2.91,42.747-5.271,95.486-5.271C198.297,214.538,241.051,216.899,241.051,219.809z"/>
			<path fill="#DCDDDE" d="M240.422,219.758c0,2.914-42.413,5.271-94.715,5.271c-52.318,0-94.726-2.356-94.726-5.271
				c0-2.91,42.407-5.273,94.726-5.273C198.009,214.485,240.422,216.848,240.422,219.758z"/>
			<path fill="#DBDCDD" d="M239.794,219.706c0,2.914-42.073,5.271-93.954,5.271c-51.9,0-93.967-2.357-93.967-5.271
				c0-2.91,42.067-5.271,93.967-5.271C197.721,214.434,239.794,216.795,239.794,219.706z"/>
			<path fill="#DADBDD" d="M239.166,219.655c0,2.914-41.732,5.271-93.195,5.271c-51.479,0-93.207-2.356-93.207-5.271
				c0-2.91,41.728-5.273,93.207-5.273C197.434,214.381,239.166,216.745,239.166,219.655z"/>
			<path fill="#D9DADC" d="M238.538,219.603c0,2.913-41.393,5.271-92.435,5.271c-51.062,0-92.448-2.357-92.448-5.271
				c0-2.911,41.387-5.273,92.448-5.273C197.146,214.33,238.538,216.692,238.538,219.603z"/>
			<path fill="#D8DADB" d="M237.91,219.551c0,2.914-41.053,5.27-91.676,5.27c-50.641,0-91.688-2.355-91.688-5.27
				c0-2.91,41.048-5.273,91.688-5.273C196.857,214.278,237.91,216.641,237.91,219.551z"/>
			<path fill="#D7D9DA" d="M237.283,219.5c0,2.913-40.713,5.271-90.916,5.271c-50.223,0-90.93-2.357-90.93-5.271
				c0-2.911,40.707-5.272,90.93-5.272C196.57,214.227,237.283,216.588,237.283,219.5z"/>
			<path fill="#D7D8D9" d="M236.654,219.448c0,2.914-40.373,5.27-90.156,5.27c-49.803,0-90.169-2.355-90.169-5.27
				c0-2.911,40.367-5.273,90.169-5.273C196.281,214.174,236.654,216.537,236.654,219.448z"/>
			<path fill="#D6D7D8" d="M236.026,219.397c0,2.913-40.032,5.27-89.396,5.27c-49.384,0-89.411-2.356-89.411-5.27
				c0-2.912,40.027-5.274,89.411-5.274C195.994,214.123,236.026,216.485,236.026,219.397z"/>
			<path fill="#D5D6D8" d="M235.398,219.344c0,2.914-39.692,5.271-88.637,5.271c-48.964,0-88.65-2.356-88.65-5.271
				c0-2.91,39.687-5.273,88.65-5.273C195.706,214.071,235.398,216.434,235.398,219.344z"/>
			<path fill="#D4D5D7" d="M234.771,219.293c0,2.913-39.353,5.27-87.877,5.27c-48.544,0-87.892-2.356-87.892-5.27
				c0-2.912,39.348-5.273,87.892-5.273C195.418,214.02,234.771,216.381,234.771,219.293z"/>
			<path fill="#D3D4D6" d="M234.143,219.241c0,2.914-39.012,5.27-87.117,5.27c-48.125,0-87.132-2.355-87.132-5.27
				c0-2.91,39.007-5.273,87.132-5.273C195.131,213.967,234.143,216.331,234.143,219.241z"/>
			<path fill="#D2D4D5" d="M233.515,219.19c0,2.913-38.672,5.27-86.357,5.27c-47.705,0-86.373-2.356-86.373-5.27
				c0-2.912,38.667-5.273,86.373-5.273C194.843,213.917,233.515,216.278,233.515,219.19z"/>
			<path fill="#CCCCCC" d="M232.887,219.137c0,2.914-38.332,5.27-85.598,5.27c-47.286,0-85.613-2.355-85.613-5.27
				c0-2.91,38.327-5.273,85.613-5.273C194.555,213.864,232.887,216.227,232.887,219.137z"/>
		</g>
		<linearGradient id="SVGID_2_" gradientUnits="userSpaceOnUse" x1="80.0396" y1="52.5435" x2="77.3365" y2="216.8533">
			<stop  offset="0" style="stop-color:#87835C"/>
			<stop  offset="0.5" style="stop-color:#54531F"/>
			<stop  offset="1" style="stop-color:#464012"/>
		</linearGradient>
		<path fill="url(#SVGID_2_)" d="M17.004,215.526c40.287-5.918,82.933-1.428,123.337,0.816c0-26.936,0-53.871,0.398-79.845
			c0-5.103,0-10.21,0-15.234c0-35.18,0-66.451,0-66.451s-45.756-2.245-61.003-2.245c-15.683,0-62.733,2.245-62.733,2.245
			s0,22.975,0,51.69c0,4.785,0,9.728,0,14.753c-0.116,23.259-0.116,47.949,0,69.404C17.004,205.485,17.004,215.526,17.004,215.526z"
			/>
		<radialGradient id="SVGID_3_" cx="127.5674" cy="137.0742" r="106.8491" gradientUnits="userSpaceOnUse">
			<stop  offset="0" style="stop-color:#E6E6E6"/>
			<stop  offset="1" style="stop-color:#CCCCCC"/>
		</radialGradient>
		<rect x="27.409" y="61.994" fill="url(#SVGID_3_)" width="113.371" height="149.692"/>
		
			<radialGradient id="SVGID_4_" cx="190.3545" cy="134.3516" r="107.7446" gradientTransform="matrix(-1 0 0 1 230.9346 0)" gradientUnits="userSpaceOnUse">
			<stop  offset="0" style="stop-color:#E6E6E6"/>
			<stop  offset="1" style="stop-color:#F2F2F2"/>
		</radialGradient>
		<path fill="url(#SVGID_4_)" d="M27.365,207.415c38.901-0.051,74.815-2.295,112.977,2.193c0-24.689,0-49.381,0.398-73.895
			c0-9.354,0-18.711,0-27.48c0-26.314,0-47.361,0-47.361s-42.384-2.247-56.516-2.247c-14.212,0-56.859,2.247-56.859,2.247
			s0,21.047,0,47.361c0,8.767,0,18.088,0,27.229c0.744,15.785,0.744,33.742,0,49.412C27.365,198.329,27.365,207.415,27.365,207.415z
			"/>
		<rect x="140.412" y="60.871" fill="#231F20" width="0.594" height="149.559"/>
		
			<linearGradient id="SVGID_5_" gradientUnits="userSpaceOnUse" x1="1643.1719" y1="52.543" x2="1640.4688" y2="216.8533" gradientTransform="matrix(-1 0 0 1 1842.8262 0)">
			<stop  offset="0" style="stop-color:#87835C"/>
			<stop  offset="0.5" style="stop-color:#54531F"/>
			<stop  offset="1" style="stop-color:#464012"/>
		</linearGradient>
		<path fill="url(#SVGID_5_)" d="M262.688,215.526c-40.283-5.918-82.932-1.428-123.334,0.816c0-26.936,0-53.871-0.398-79.845
			c0-5.103,0-10.21,0-15.234c0-35.18,0-66.451,0-66.451s45.75-2.245,61.003-2.245c15.683,0,62.729,2.245,62.729,2.245
			s0,22.975,0,51.69c0,4.785,0,9.728,0,14.753c0.12,23.259,0.12,47.949,0,69.404C262.688,205.485,262.688,215.526,262.688,215.526z"
			/>
		
			<radialGradient id="SVGID_6_" cx="1690.6982" cy="137.0742" r="106.8496" gradientTransform="matrix(-1 0 0 1 1842.8262 0)" gradientUnits="userSpaceOnUse">
			<stop  offset="0" style="stop-color:#E6E6E6"/>
			<stop  offset="1" style="stop-color:#CCCCCC"/>
		</radialGradient>
		<rect x="138.913" y="61.994" fill="url(#SVGID_6_)" width="113.367" height="149.692"/>
		
			<radialGradient id="SVGID_7_" cx="-1372.7783" cy="134.3516" r="107.7442" gradientTransform="matrix(1 0 0 1 1611.8916 0)" gradientUnits="userSpaceOnUse">
			<stop  offset="0" style="stop-color:#E6E6E6"/>
			<stop  offset="1" style="stop-color:#F2F2F2"/>
		</radialGradient>
		<path fill="url(#SVGID_7_)" d="M252.326,207.415c-38.899-0.051-74.814-2.295-112.973,2.193c0-24.689,0-49.381-0.398-73.895
			c0-9.354,0-18.711,0-27.48c0-26.314,0-47.361,0-47.361s42.384-2.247,56.516-2.247c14.213,0,56.855,2.247,56.855,2.247
			s0,21.047,0,47.361c0,8.767,0,18.088,0,27.229c-0.74,15.785-0.74,33.742,0,49.412
			C252.326,198.329,252.326,207.415,252.326,207.415z"/>
		<rect x="138.687" y="60.871" fill="#231F20" width="0.594" height="149.559"/>
		<path fill="#EC1C24" d="M66.084,92.125c-0.998,0.158-2.182,0.356-3.544,0.599c-1.885,0.362-3.177,0.479-3.886,0.362
			c-0.758-0.082-2.384-0.626-4.862-1.628c-2.715-1.196-3.709-2.157-3.01-2.876c0.648-0.567,2.064-0.781,4.247-0.667
			c5.488,0.084,9.4,0.1,11.752,0.066c3.605-0.125,6.787-0.462,9.562-1.027c0.824-0.198,1.647-0.378,2.473-0.533
			c0.526-0.127,1.181-0.285,1.943-0.489c1.825-0.472,3.188-0.698,4.073-0.659c1.122,0.089,2.77,0.628,4.95,1.621
			c1.352,0.923,1.649,1.861,0.886,2.824c-0.83,0.963-2.392,1.406-4.688,1.325c-1.241-0.161-3.038-0.204-5.396-0.121
			c-1.473,0.044-3.741,0.143-6.813,0.301l-1.412,0.115l-0.528,0.062C69.767,91.603,67.854,91.845,66.084,92.125z M62.811,96.505
			c-2.589,1.646-3.886,3.466-3.886,5.465c0,2.446,1.709,4.666,5.121,6.672c3.242,1.923,6.638,2.886,10.177,2.886
			c3.477,0,6.626-0.908,9.456-2.709c2.829-1.758,4.24-3.684,4.24-5.767c0-2.839-1.527-5.103-4.594-6.784
			c-2.828-1.6-6.307-2.407-10.433-2.407C69.001,93.86,65.645,94.744,62.811,96.505z M66.084,83.651
			c-1.296-0.56-3.006-1.66-5.128-3.303c-1.181-1.16-1.51-1.922-0.97-2.28c0.531-0.401,1.764-0.383,3.714,0.056
			c1.466,0.287,3.18,0.46,5.132,0.544c2.115,0.076,4.588,0.076,7.423,0c1.418,0.037,2.588,0.279,3.533,0.72
			c0.829,0.362,1.385,0.818,1.682,1.379c0.237,0.522,0.208,1.043-0.088,1.563c-0.356,0.486-0.974,0.861-1.858,1.147
			c-1.296,0.319-2.593,0.576-3.889,0.774c-1.358,0.203-2.682,0.322-3.978,0.363h-0.535C69.413,84.771,67.732,84.454,66.084,83.651z
			 M78.64,99.744c1.473,0.89,2.209,1.908,2.209,3.072c0,1.121-0.615,1.962-1.851,2.521c-1.188,0.601-3.007,0.897-5.49,0.897
			c-1.826,0-3.445-0.436-4.863-1.318c-1.411-0.842-2.121-1.766-2.121-2.759c0-0.963,0.683-1.825,2.034-2.583
			c1.416-0.758,3.192-1.148,5.307-1.148C75.635,98.427,77.222,98.872,78.64,99.744z M72.447,114.646
			c0.77-0.756,2.861-0.982,6.285-0.657c3.77,0.521,6.155,1.18,7.153,1.982c0.654,0.479,0.945,1.419,0.89,2.819
			c0,0.44,0,0.763,0,0.961c0,0.4,0.029,0.781,0.084,1.138c0.177,1.051,0.444,1.929,0.797,2.647c0.235,0.518,0.592,0.986,1.06,1.38
			c2.891,0.204,5.667,0.159,8.314-0.121c1.479-0.152,3.301-0.499,5.483-1.017c1.831-0.4,3.094-0.604,3.802-0.604
			c1.116,0,2.148,0.401,3.099,1.202c0.995,1.364,0.853,2.541-0.443,3.547c-1.539,1.157-4.512,2.021-8.928,2.582
			c-3.013,0.242-5.37,0.198-7.085-0.121c-1.824-0.324-3.823-1.082-6-2.286c-1.187-0.714-2.185-1.499-3.011-2.336
			c-0.473-0.483-1.127-1.225-1.945-2.226c-0.944-1.082-1.708-1.922-2.302-2.521c-1.061-0.967-2.296-1.862-3.709-2.704l-0.182-0.116
			C72.744,116.593,71.629,115.41,72.447,114.646z M99.947,77.282c-0.879-0.763-2.499-1.922-4.862-3.478l-0.264-0.124
			c-0.771-0.518-0.885-0.974-0.352-1.381c0.526-0.439,1.528-0.659,3.007-0.659c1.643-0.039,3.472,0.22,5.478,0.775
			c2.418,0.69,4.895,1.708,7.428,3.065c1.001,0.565,1.621,1.104,1.858,1.624c0.119,0.36,0.119,0.921,0,1.684
			c-0.117,0.356-0.21,0.642-0.271,0.84c0,0.401,0,0.781,0,1.138v18.677c1.356-0.071,2.512-0.232,3.452-0.474
			c0.527-0.119,1.181-0.316,1.95-0.604c0.703-0.28,1.323-0.457,1.851-0.537c0.824-0.118,1.919-0.1,3.271,0.059
			c2.422,0.28,4.104,0.786,5.043,1.5c0.76,0.604,1.027,1.407,0.792,2.407c-0.352,1.28-1.12,2.022-2.292,2.22
			c-0.769,0.121-2.477-0.021-5.132-0.417c-1.647-0.198-2.978-0.362-3.979-0.483c-1.715-0.198-3.389-0.319-5.038-0.358
			c0,2.122-0.449,4.144-1.33,6.063c-0.468,1.125-1.295,2.548-2.472,4.269l-1.148,1.922c-1.528,2.242-2.424,3.221-2.66,2.946
			c-0.229-0.242,0.033-1.406,0.797-3.483c0.177-0.766,0.177-1.664,0-2.703c-0.116-0.688-0.406-1.791-0.884-3.307
			c-0.582-2.084-1.001-3.766-1.236-5.047c-0.412-2.278-0.622-4.587-0.622-6.91l-0.17-15.792
			C102.102,79.629,101.365,78.486,99.947,77.282z"/>
		<path fill="#EC1C24" d="M181.187,98.79c-3.308,0.399-6.488,0.945-9.549,1.614c-1.831,0.402-3.188,0.567-4.067,0.49
			c-0.95-0.088-2.807-0.562-5.575-1.451c-2.413-0.759-4.358-1.511-5.831-2.275c-1.302-0.682-2.148-1.323-2.566-1.923
			c-0.411-0.522-0.411-0.939,0-1.264c0.468-0.319,1.243-0.434,2.297-0.362l3.979,0.192c5.307,0.27,9.786,0.434,13.446,0.473
			c6.307,0.038,13.819-0.153,22.544-0.6c1.593-1.324,3.329-3.045,5.22-5.165c2.054-2.325,3.506-4.269,4.325-5.831
			c0.424-0.917,0.032-1.938-1.145-3.06c-1.176-1.202-2.505-1.68-3.983-1.438c-2.527,0.636-4.713,1.317-6.533,2.037
			c-1.012,0.401-2.099,0.924-3.279,1.563c-1.001,0.483-1.766,0.784-2.297,0.898c-0.713,0.127-1.771,0.084-3.183-0.114
			c-4.955-0.847-7.933-1.779-8.934-2.824c-1-1.045,0.444-1.978,4.335-2.824l3.978-1.027c4.127-1.037,7.281-1.797,9.467-2.273
			c3.764-0.886,6.475-1.38,8.13-1.507c2.118-0.235,4.834,0.76,8.134,3.012c2.891,1.999,4.777,3.817,5.662,5.46
			c0.818,1.364,1.087,2.341,0.795,2.946c-0.24,0.402-1.032,0.901-2.396,1.501c-0.701,0.324-1.264,0.575-1.676,0.779
			c-0.702,0.319-1.351,0.676-1.943,1.077c-1.183,1.043-2.682,2.004-4.506,2.89c-1.061,0.556-2.594,1.215-4.605,1.979
			c-1.176,0.44-1.973,0.759-2.384,0.962c-0.655,0.323-1.001,0.626-1.057,0.896c4.417-0.435,8.1-0.934,11.046-1.494
			c1.708-0.325,3.479-0.765,5.313-1.324c1.353-0.402,2.406-0.623,3.184-0.666c1.112-0.114,2.738-0.01,4.862,0.309
			c3.295,0.438,5.654,1.114,7.07,2.038c1.238,0.84,1.594,1.824,1.054,2.945c-0.581,1.038-1.466,1.643-2.646,1.798
			c-0.825,0.125-2.534,0.064-5.133-0.177c-2.231-0.242-4.065-0.397-5.479-0.484c-2.477-0.114-4.983-0.13-7.518-0.059
			c2.951,0.923,4.722,1.763,5.309,2.526c0.352,0.4,0.229,0.979-0.351,1.742l-0.446,0.724c-0.175,0.358-0.297,0.797-0.346,1.319
			c-0.066,0.235-0.127,0.66-0.188,1.259c-0.116,1.565-0.434,2.743-0.972,3.543c-0.769,1.327-2.208,2.545-4.33,3.667
			c4.065,0.878,6.483,1.779,7.254,2.703c0.468,0.599,0.289,1.422-0.533,2.462c-0.356,0.444-0.589,0.74-0.71,0.901
			c-0.176,0.318-0.27,0.62-0.27,0.899c0,2.688-0.34,4.786-1.061,6.302c-0.406,0.931-1.256,2.008-2.559,3.249l-0.527,0.599
			c-2.012,1.923-3.215,2.906-3.625,2.944c-0.245,0-0.211-0.521,0.085-1.559c0.116-0.402,0.183-0.706,0.183-0.902
			c0.11-0.356,0.171-0.644,0.171-0.847c0.059-0.401,0.032-0.917-0.082-1.555c-0.068-0.401-0.244-1.088-0.541-2.044
			c-0.401-1.479-0.701-2.698-0.878-3.664c-0.296-1.639-0.446-3.308-0.446-4.991c-5.423,0.409-9.9,0.945-13.434,1.628
			c-2.072,0.395-4.129,0.9-6.193,1.5c-1.412,0.443-2.479,0.642-3.181,0.604c-1.006-0.043-2.625-0.38-4.862-1.022
			c-1.891-0.521-3.572-1.126-5.04-1.802c-1.41-0.6-2.449-1.181-3.092-1.742c-0.654-0.604-0.836-1.081-0.54-1.446
			c0.356-0.356,1.237-0.516,2.655-0.477l1.154,0.061c5.418,0.362,9.906,0.477,13.437,0.362c5.839-0.164,12.678-0.863,20.514-2.104
			c0.236-0.521,0.324-1.143,0.269-1.863c-0.065-0.445-0.269-1.285-0.631-2.518c-0.463-1.563-0.846-2.889-1.141-3.971
			c-0.409-1.885-0.712-3.88-0.882-6.005l-0.531,0.12C194.419,97.51,187.022,98.069,181.187,98.79z"/>
		<path fill="#EC1C24" d="M70.129,152.807c4.422,0,8.429,1.137,12.021,3.418c3.714,2.412,5.567,5.254,5.567,8.537
			c0,3.162-1.618,5.803-4.853,7.926c-3.362,2.201-7.813,3.303-13.362,3.303c-4.644,0-8.896-1.182-12.729-3.541
			c-3.772-2.361-5.663-4.932-5.663-7.688c0-3.568,1.506-6.41,4.517-8.537C58.984,153.944,63.82,152.807,70.129,152.807z
			 M69.503,158.274c-3.183,0-5.831,0.781-7.951,2.34c-1.71,1.32-2.567,2.645-2.567,3.965c0,1.203,1.007,2.443,3.008,3.723
			c2.241,1.441,4.745,2.164,7.511,2.164c2.944,0,5.488-0.662,7.615-1.986c1.88-1.191,2.823-2.496,2.823-3.9
			c0-1.398-1.032-2.779-3.092-4.145C74.601,158.997,72.161,158.274,69.503,158.274z M102.756,150.34l0.264,13.039
			c-1.709,0.357-3.774,0.598-6.188,0.719c-1.771,0.037-3.627,0.037-5.571,0c-2.126-0.242-3.248,0.105-3.363,1.023
			c-0.18,0.955,1.006,2.037,3.54,3.242c2.005,1.004,3.532,1.537,4.598,1.619c0.71,0.084,1.621-0.115,2.742-0.6
			c0.705-0.277,1.291-0.48,1.765-0.604c0.769-0.236,1.626-0.416,2.57-0.531c0,5.438,0.259,10.203,0.792,14.289
			c0.296,2.365,0.764,4.963,1.412,7.809c0.356,1.648,0.561,2.779,0.621,3.426c0.115,0.998,0.055,1.977-0.17,2.943
			c-0.656,2.121-0.747,3.242-0.269,3.361c0.53,0.123,1.383-0.885,2.559-3.004l0.445-0.961c1.413-2.682,2.418-5.184,3.005-7.508
			c0.946-3.881,1.419-9.164,1.419-15.85v-22.529c-0.065-0.363-0.065-0.699,0-1.021c0.056-0.205,0.114-0.479,0.177-0.844
			c0.173-0.881,0.114-1.518-0.177-1.922c-0.356-0.641-1.296-1.338-2.831-2.104c-2.538-1.238-5.016-2.158-7.427-2.764
			c-2.127-0.477-3.979-0.676-5.577-0.594c-1.469,0.039-2.445,0.275-2.914,0.715c-0.471,0.445-0.263,0.922,0.62,1.445
			c2.71,1.68,4.595,2.984,5.654,3.906C101.986,148.28,102.756,149.379,102.756,150.34z"/>
	</g>
</g>
</svg>
