<?xml version="1.0" standalone="no"?>
<!DOCTYPE svg PUBLIC "-//W3C//DTD SVG 1.1//EN" "http://www.w3.org/Graphics/SVG/1.1/DTD/svg11.dtd" >
<svg xmlns="http://www.w3.org/2000/svg" xmlns:xlink="http://www.w3.org/1999/xlink" version="1.1">
<metadata>
Created by FontForge 20170924 at Fri May  7 10:31:48 2010
 By www-data
Copyright (c) The Font Bureau, Inc., 2006. All rights reserved.
</metadata>
<defs>
<font id="FordAntenna-Bold" horiz-adv-x="750" >
  <font-face 
    font-family="Ford Antenna Regular"
    font-weight="700"
    font-stretch="normal"
    units-per-em="1000"
    panose-1="2 0 8 3 0 0 0 2 0 4"
    ascent="800"
    descent="-200"
    x-height="566"
    cap-height="741"
    bbox="-95 -330 1725 1267"
    underline-thickness="50"
    underline-position="-100"
    unicode-range="U+0020-FB02"
  />
<missing-glyph horiz-adv-x="500" 
d="M0 0v700h500v-700h-500zM50 650v-600h400v600h-400z" />
    <glyph glyph-name="fi" unicode="fi" horiz-adv-x="717" 
d="M25 432v134h107v27c0 129 47 201 214 201c37 0 57 -1 75 -2v-128h-54c-64 0 -79 -25 -79 -70v-28h133v-134h-133v-432h-156v432h-107zM492 0v566h157v-566h-157zM491 618v143h159v-143h-159z" />
    <glyph glyph-name="fl" unicode="fl" horiz-adv-x="764" 
d="M25 432v134h107v27c0 129 47 201 214 201c37 0 57 -1 75 -2v-128h-54c-64 0 -79 -25 -79 -70v-28h133v-134h-133v-432h-156v432h-107zM647 -2c-102 0 -155 39 -155 173v605h157v-586c0 -46 8 -59 55 -59h19v-129c-13 -2 -44 -4 -76 -4z" />
    <glyph glyph-name="f_f" unicode="ff" horiz-adv-x="804" 
d="M492 0v432h-204v-432h-156v432h-107v134h107v27c0 129 47 201 214 201c37 0 57 -1 75 -2v-128h-54c-64 0 -79 -25 -79 -70v-28h204v27c0 129 47 201 214 201c37 0 57 -1 75 -2v-128h-54c-64 0 -78 -25 -78 -70v-28h132v-134h-132v-432h-157z" />
    <glyph glyph-name="f_f_i" unicode="ffi" horiz-adv-x="1077" 
d="M492 0v432h-204v-432h-156v432h-107v134h107v27c0 129 47 201 214 201c37 0 57 -1 75 -2v-128h-54c-64 0 -79 -25 -79 -70v-28h204v27c0 129 47 201 214 201c37 0 57 -1 75 -2v-128h-54c-64 0 -78 -25 -78 -70v-28h132v-134h-132v-432h-157zM852 0v566h157v-566h-157z
M851 618v143h159v-143h-159z" />
    <glyph glyph-name="f_f_l" unicode="ffl" horiz-adv-x="1125" 
d="M492 0v432h-204v-432h-156v432h-107v134h107v27c0 129 47 201 214 201c37 0 57 -1 75 -2v-128h-54c-64 0 -79 -25 -79 -70v-28h204v27c0 129 47 201 214 201c37 0 57 -1 75 -2v-128h-54c-64 0 -78 -25 -78 -70v-28h132v-134h-132v-432h-157zM1007 -2
c-102 0 -155 39 -155 173v605h157v-586c0 -46 8 -59 55 -59h19v-129c-12 -2 -44 -4 -76 -4z" />
    <glyph glyph-name="f_j" unicode="fj" horiz-adv-x="717" 
d="M25 432v134h107v27c0 129 47 201 214 201c37 0 57 -1 75 -2v-128h-54c-64 0 -79 -25 -79 -70v-28h133v-134h-133v-432h-156v432h-107zM427 -169v119h13c47 0 52 14 52 73v543h157v-542c0 -153 -40 -193 -193 -193h-29zM491 618v143h159v-143h-159z" />
    <glyph glyph-name="f_t" unicode="ft" horiz-adv-x="823" 
d="M685 -2c-153 0 -197 52 -197 178v256h-200v-432h-156v432h-107v134h107v27c0 129 47 201 214 201c37 0 57 -1 75 -2v-128h-54c-64 0 -79 -25 -79 -70v-28h207l27 138l122 25v-163h134v-134h-134v-233c0 -44 6 -68 74 -68h60v-131c-23 -2 -65 -2 -93 -2z" />
    <glyph glyph-name=".notdef" horiz-adv-x="500" 
d="M0 0v700h500v-700h-500zM50 650v-600h400v600h-400z" />
    <glyph glyph-name="space" unicode=" " horiz-adv-x="215" 
 />
    <glyph glyph-name="Eth" unicode="&#xd0;" horiz-adv-x="786" 
d="M0 310v129h74v302h266c292 0 413 -76 413 -370c0 -289 -135 -371 -417 -371h-262v310h-74zM238 143h107c202 0 243 61 243 228s-34 223 -246 223h-104v-155h138v-129h-138v-167z" />
    <glyph glyph-name="eth" unicode="&#xf0;" horiz-adv-x="663" 
d="M278 573v102l62 12c-15 20 -31 40 -49 61l151 49c23 -22 44 -47 64 -76l130 27v-102l-78 -16c43 -93 69 -205 69 -324c0 -228 -99 -317 -297 -317c-214 0 -295 111 -295 275c0 152 59 272 248 272c77 0 130 -9 159 -40c-7 29 -20 63 -42 102zM330 123
c105 0 139 56 139 145c0 90 -34 141 -139 141c-102 0 -137 -51 -137 -141c0 -89 35 -145 137 -145z" />
    <glyph glyph-name="Lslash" unicode="&#x141;" horiz-adv-x="617" 
d="M0 259v132l74 40v310h164v-220l137 76v-132l-137 -76v-247h364v-142h-528v299z" />
    <glyph glyph-name="lslash" unicode="&#x142;" horiz-adv-x="405" 
d="M24 323v132l88 50v271h156v-181l92 53v-132l-92 -53v-273c0 -46 9 -59 55 -59h20v-129c-13 -2 -44 -4 -76 -4c-103 0 -155 39 -155 173v202z" />
    <glyph glyph-name="Scaron" unicode="&#x160;" horiz-adv-x="741" 
d="M289 781l-155 183h147l91 -86l90 86h144l-155 -183h-162zM375 -11c-147 0 -269 35 -353 97l82 118c79 -53 171 -79 266 -79c145 0 172 28 172 90c0 61 -62 73 -176 89c-198 28 -301 64 -301 225c0 165 100 224 309 224c151 0 243 -35 300 -73l-88 -127
c-47 31 -134 57 -214 57c-116 0 -144 -23 -144 -77c0 -60 61 -71 179 -88c178 -26 297 -55 297 -222c0 -150 -82 -234 -329 -234z" />
    <glyph glyph-name="scaron" unicode="&#x161;" horiz-adv-x="573" 
d="M206 620l-155 183h147l91 -86l90 86h144l-155 -183h-162zM280 -9c-97 0 -194 20 -270 71l80 115c59 -38 136 -59 200 -59c79 0 102 8 102 47c0 33 -23 40 -100 50c-140 19 -247 39 -247 187c0 115 68 177 247 177c91 0 179 -18 239 -52l-75 -122c-40 21 -102 37 -159 37
c-80 0 -96 -14 -96 -41c0 -32 20 -39 93 -49c144 -20 251 -37 251 -178c0 -130 -70 -183 -265 -183z" />
    <glyph glyph-name="Yacute" unicode="&#xdd;" horiz-adv-x="760" 
d="M298 0v260l-295 481h176l204 -334l204 334h169l-295 -481v-260h-163zM276 781l141 183h189l-191 -183h-139z" />
    <glyph glyph-name="yacute" unicode="&#xfd;" horiz-adv-x="584" 
d="M134 -170c-12 0 -39 1 -56 2v118h42c63 0 78 9 88 42l7 21l-216 553h169l131 -360l127 360h159l-227 -591c-39 -105 -87 -145 -224 -145zM190 620l141 183h189l-191 -183h-139z" />
    <glyph glyph-name="Thorn" unicode="&#xde;" horiz-adv-x="760" 
d="M74 0v741h160v-99h196c242 0 296 -98 296 -250s-50 -265 -304 -265h-188v-127h-160zM234 268h195c100 0 133 32 133 118c0 89 -31 116 -135 116h-193v-234z" />
    <glyph glyph-name="thorn" unicode="&#xfe;" horiz-adv-x="681" 
d="M62 -165v941h156v-251c31 36 89 54 186 54c194 0 242 -132 242 -295s-51 -294 -251 -294c-102 0 -150 20 -176 53v-208h-157zM364 124c101 0 123 64 123 154c0 91 -20 158 -123 158c-108 0 -145 -49 -145 -158c0 -108 31 -154 145 -154z" />
    <glyph glyph-name="Zcaron" unicode="&#x17d;" horiz-adv-x="692" 
d="M265 781l-155 183h147l91 -86l90 86h144l-155 -183h-162zM32 0v122l407 471h-390v148h597v-134l-401 -465h412v-142h-625z" />
    <glyph glyph-name="zcaron" unicode="&#x17e;" horiz-adv-x="540" 
d="M190 620l-155 183h147l91 -86l90 86h144l-155 -183h-162zM20 0v105l281 327h-265v134h476v-107l-283 -333h294v-126h-503z" />
    <glyph glyph-name="onehalf" unicode="&#xbd;" horiz-adv-x="1094" 
d="M660 0v85l154 132c82 70 98 83 98 122c0 32 -16 51 -81 51c-47 0 -96 -14 -125 -30l-55 91c53 27 103 41 196 41c119 0 183 -38 183 -139c0 -75 -37 -114 -121 -185l-79 -71h203v-97h-373zM122 255v381h-84v105h211v-486h-127zM211 0l415 741h137l-414 -741h-138z" />
    <glyph glyph-name="onequarter" unicode="&#xbc;" horiz-adv-x="1043" 
d="M823 0v90h-245v87l217 309h133l-211 -300h108l23 102h91v-102h74v-96h-74v-90h-116zM122 255v381h-84v105h211v-486h-127zM211 0l415 741h137l-414 -741h-138z" />
    <glyph glyph-name="onesuperior" unicode="&#xb9;" horiz-adv-x="375" 
d="M144 254v382h-84v105h207v-487h-123z" />
    <glyph glyph-name="threequarters" unicode="&#xbe;" horiz-adv-x="1177" 
d="M249 251c-98 0 -154 18 -213 54l61 87c44 -26 85 -40 139 -40c67 0 91 10 91 61c0 44 -21 57 -97 57h-86v95h84c64 0 86 5 86 43c0 35 -22 41 -80 41c-56 0 -103 -15 -134 -33l-55 90c48 30 123 47 207 47c133 0 183 -41 183 -118c0 -59 -25 -92 -67 -108
c49 -15 81 -51 81 -127c0 -105 -66 -149 -200 -149zM957 0v90h-245v87l217 309h134l-212 -300h109l23 102h91v-102h73v-96h-73v-90h-117zM347 0l414 741h137l-414 -741h-137z" />
    <glyph glyph-name="threesuperior" unicode="&#xb3;" horiz-adv-x="525" 
d="M255 248c-97 0 -154 18 -212 55l60 86c44 -26 85 -40 140 -40c67 0 91 11 91 62c0 44 -21 56 -98 56h-86v95h84c64 0 86 4 86 42c0 35 -21 42 -80 42c-55 0 -103 -15 -133 -33l-56 90c48 30 124 47 207 47c134 0 184 -41 184 -118c0 -59 -20 -92 -62 -108
c50 -15 75 -51 75 -127c0 -105 -66 -149 -200 -149z" />
    <glyph glyph-name="twosuperior" unicode="&#xb2;" horiz-adv-x="513" 
d="M62 254v84l155 133c82 70 97 85 97 125c0 32 -16 51 -81 51c-46 0 -96 -14 -125 -30l-54 91c52 27 102 41 195 41c119 0 184 -38 184 -139c0 -76 -38 -117 -121 -188l-79 -71h204v-97h-375z" />
    <glyph glyph-name="brokenbar" unicode="&#xa6;" horiz-adv-x="378" 
d="M109 -165v392h159v-392h-159zM109 384v392h159v-392h-159z" />
    <glyph glyph-name="minus" unicode="&#x2212;" horiz-adv-x="722" 
d="M93 282v141h536v-141h-536z" />
    <glyph glyph-name="multiply" unicode="&#xd7;" horiz-adv-x="722" 
d="M211 104l-95 99l149 149l-149 149l97 99l149 -149l148 149l96 -99l-149 -149l149 -148l-96 -99l-148 149z" />
    <glyph glyph-name="exclam" unicode="!" horiz-adv-x="402" 
d="M109 0v176h182v-176h-182zM130 233l-15 508h172l-17 -508h-140z" />
    <glyph glyph-name="quotedbl" unicode="&#x22;" horiz-adv-x="578" 
d="M95 398l-10 343h163l-9 -343h-144zM339 398l-10 343h164l-10 -343h-144z" />
    <glyph glyph-name="numbersign" unicode="#" horiz-adv-x="802" 
d="M131 0l34 178h-109v136h135l16 88h-151v137h178l39 202h150l-40 -202h99l39 202h149l-38 -202h115v-137h-141l-16 -88h157v-136h-184l-34 -178h-150l34 178h-98l-34 -178h-150zM327 306h123l20 105h-123z" />
    <glyph glyph-name="dollar" unicode="$" horiz-adv-x="686" 
d="M273 -94v96c-86 8 -173 31 -240 77l66 109c78 -48 153 -64 235 -64c121 0 152 34 152 92c0 68 -46 81 -160 97c-128 19 -259 42 -259 211c0 134 70 199 206 214v74h144v-73c85 -8 142 -32 184 -56l-67 -116c-43 27 -123 45 -189 45c-104 0 -127 -30 -127 -79
c0 -68 56 -77 168 -95c128 -20 249 -47 249 -210c0 -124 -63 -204 -218 -224v-98h-144z" />
    <glyph glyph-name="percent" unicode="%" horiz-adv-x="1247" 
d="M270 263c-155 0 -238 89 -238 245c0 153 83 245 238 245c151 0 235 -91 235 -245c0 -156 -84 -245 -235 -245zM270 380c71 0 95 50 95 128c0 76 -25 124 -95 124c-71 0 -98 -47 -98 -124c0 -78 26 -128 98 -128zM978 -9c-153 0 -236 90 -236 246c0 153 83 245 236 245
c152 0 236 -92 236 -245c0 -156 -84 -246 -236 -246zM978 108c72 0 96 50 96 129c0 75 -25 123 -96 123c-70 0 -96 -47 -96 -123c0 -79 25 -129 96 -129zM343 0l414 742h146l-415 -742h-145z" />
    <glyph glyph-name="ampersand" unicode="&#x26;" horiz-adv-x="848" 
d="M323 -9c-191 0 -287 54 -287 217c0 112 70 171 151 211c-21 47 -33 95 -33 141c0 131 82 193 209 193s195 -58 195 -193c0 -106 -79 -159 -164 -198c24 -30 50 -58 76 -82c22 -21 43 -39 63 -54c33 54 58 129 85 224l132 -31c-29 -109 -60 -196 -102 -263
c50 -20 89 -22 125 -22h7v-134h-13c-84 0 -151 8 -224 46c-57 -37 -128 -55 -220 -55zM323 114c38 0 71 5 99 15c-23 20 -48 41 -74 67c-35 33 -68 71 -96 111c-37 -24 -63 -54 -63 -97c0 -53 12 -96 134 -96zM302 560c0 -29 10 -62 27 -97c54 25 93 53 93 97
c0 42 -14 64 -59 64c-46 0 -61 -22 -61 -64z" />
    <glyph glyph-name="quotesingle" unicode="'" horiz-adv-x="335" 
d="M95 398l-10 344h163l-9 -344h-144z" />
    <glyph glyph-name="parenleft" unicode="(" horiz-adv-x="521" 
d="M308 -192c-94 80 -208 250 -208 495c0 223 114 417 208 497l114 -73c-76 -83 -161 -207 -161 -423c0 -218 94 -355 161 -423z" />
    <glyph glyph-name="parenright" unicode=")" horiz-adv-x="521" 
d="M212 -192l-112 73c75 83 160 205 160 422s-94 357 -160 424l112 73c94 -80 209 -251 209 -496c0 -224 -115 -416 -209 -496z" />
    <glyph glyph-name="asterisk" unicode="*" horiz-adv-x="609" 
d="M243 236l14 163l-139 -93l-62 112l152 70l-152 72l61 111l140 -94l-14 165h122l-14 -167l140 96l62 -110l-153 -73l153 -71l-61 -110l-141 94l13 -165h-121z" />
    <glyph glyph-name="plus" unicode="+" horiz-adv-x="722" 
d="M283 92v190h-190v141h190v189h156v-189h190v-141h-190v-190h-156z" />
    <glyph glyph-name="comma" unicode="," horiz-adv-x="293" 
d="M98 -156l-38 76c68 33 81 42 81 80h-86v180h182v-128c0 -120 -17 -156 -139 -208z" />
    <glyph glyph-name="hyphen" unicode="-" horiz-adv-x="425" 
d="M38 258v140h347v-140h-347z" />
    <glyph glyph-name="period" unicode="." horiz-adv-x="293" 
d="M55 0v180h182v-180h-182z" />
    <glyph glyph-name="slash" unicode="/" horiz-adv-x="574" 
d="M0 0l414 741h160l-414 -741h-160z" />
    <glyph glyph-name="zero" unicode="0" horiz-adv-x="772" 
d="M387 -11c-238 0 -325 133 -325 382c0 250 87 382 325 382c234 0 323 -132 323 -382c0 -249 -89 -382 -323 -382zM387 125c129 0 161 90 161 246c0 157 -32 239 -161 239c-130 0 -163 -82 -163 -239c0 -156 33 -246 163 -246z" />
    <glyph glyph-name="one" unicode="1" horiz-adv-x="415" 
d="M157 0v600h-126v141h280v-741h-154z" />
    <glyph glyph-name="two" unicode="2" horiz-adv-x="645" 
d="M33 0v123l242 209c112 97 151 134 151 198c0 59 -26 86 -127 86c-72 0 -156 -21 -201 -46l-71 121c79 41 148 62 288 62c177 0 267 -58 267 -208c0 -113 -55 -181 -174 -283l-153 -132h335v-130h-557z" />
    <glyph glyph-name="three" unicode="3" horiz-adv-x="650" 
d="M314 -12c-138 0 -222 26 -310 80l73 118c76 -43 146 -67 229 -67c101 0 142 22 142 108c0 75 -32 102 -152 102h-130v132h128c100 0 133 18 133 82c0 59 -28 76 -124 76c-70 0 -153 -21 -201 -51l-80 115c74 46 183 70 296 70c171 0 263 -45 263 -178
c0 -103 -27 -148 -88 -170c75 -20 108 -67 108 -190c0 -181 -119 -227 -287 -227z" />
    <glyph glyph-name="four" unicode="4" horiz-adv-x="700" 
d="M34 152v117l325 472h168l-321 -463h208l32 211h110v-211h118v-126h-118v-152h-144v152h-378z" />
    <glyph glyph-name="five" unicode="5" horiz-adv-x="672" 
d="M333 -11c-140 0 -232 38 -298 80l73 118c60 -33 131 -68 221 -68c84 0 153 14 153 123c0 107 -65 124 -148 124c-59 0 -99 -8 -137 -26l-131 39l19 362h496v-134h-363l-8 -139c33 16 92 27 163 27c141 0 266 -31 266 -248c0 -220 -128 -258 -306 -258z" />
    <glyph glyph-name="six" unicode="6" horiz-adv-x="729" 
d="M383 -11c-233 0 -325 111 -325 331c0 304 87 421 456 421h69v-134h-74c-275 0 -287 -86 -295 -173c34 46 103 68 221 68c191 0 249 -92 249 -249c0 -166 -78 -264 -301 -264zM384 117c123 0 147 51 147 130c0 80 -31 131 -146 131c-107 0 -164 -40 -164 -123
c0 -100 54 -138 163 -138z" />
    <glyph glyph-name="seven" unicode="7" horiz-adv-x="589" 
d="M130 0l262 607h-381v134h553v-114l-269 -627h-165z" />
    <glyph glyph-name="eight" unicode="8" horiz-adv-x="739" 
d="M369 -16c-242 0 -319 102 -319 225c0 88 27 167 119 197c-78 31 -94 89 -94 157c0 100 56 190 294 190c240 0 295 -91 295 -190c0 -68 -18 -129 -95 -157c94 -30 121 -109 121 -197c0 -123 -78 -225 -321 -225zM369 110c119 0 162 43 162 112c0 71 -43 113 -162 113
s-160 -42 -160 -113c0 -69 41 -112 160 -112zM369 454c110 0 142 34 142 88c0 53 -32 86 -142 86s-141 -33 -141 -86c0 -54 31 -88 141 -88z" />
    <glyph glyph-name="nine" unicode="9" horiz-adv-x="729" 
d="M154 0v130h75c279 0 288 88 295 174c-34 -46 -103 -67 -221 -67c-191 0 -249 99 -249 249c0 166 78 267 301 267c233 0 325 -111 325 -331c0 -304 -86 -422 -456 -422h-70zM353 358c107 0 164 39 164 122c0 100 -54 138 -162 138c-124 0 -148 -50 -148 -130
s32 -130 146 -130z" />
    <glyph glyph-name="colon" unicode=":" horiz-adv-x="313" 
d="M65 0v174h182v-174h-182zM65 392v174h182v-174h-182z" />
    <glyph glyph-name="semicolon" unicode=";" horiz-adv-x="313" 
d="M108 -156l-38 76c68 33 81 42 81 80h-86v174h182v-122c0 -106 -17 -156 -139 -208zM65 392v174h182v-174h-182z" />
    <glyph glyph-name="less" unicode="&#x3c;" horiz-adv-x="722" 
d="M572 63l-461 230v107l461 228v-141l-297 -140l297 -141v-143z" />
    <glyph glyph-name="equal" unicode="=" horiz-adv-x="722" 
d="M99 161v140h525v-140h-525zM99 404v139h525v-139h-525z" />
    <glyph glyph-name="greater" unicode="&#x3e;" horiz-adv-x="722" 
d="M150 63v143l298 139l-298 141v142l462 -229v-108z" />
    <glyph glyph-name="question" unicode="?" horiz-adv-x="702" 
d="M254 215c-20 136 9 178 122 227c85 38 101 53 101 100c0 45 -17 71 -127 71c-82 0 -153 -20 -212 -49l-66 130c72 36 184 59 290 59c188 0 277 -55 277 -197c0 -110 -50 -153 -138 -192c-95 -42 -101 -56 -94 -149h-153zM239 0v157h182v-157h-182z" />
    <glyph glyph-name="at" unicode="@" horiz-adv-x="1063" 
d="M548 -165c-308 0 -479 121 -479 456c0 341 192 463 461 463c276 0 465 -122 465 -463c0 -203 -43 -262 -195 -262c-112 0 -140 38 -150 76c-29 -42 -70 -69 -178 -69c-169 0 -215 116 -215 261c0 144 51 259 223 259c101 0 136 -20 161 -61l35 53l92 -8v-360
c1 -42 9 -73 65 -73c71 0 76 45 76 184c0 284 -143 381 -379 381c-224 0 -375 -97 -375 -381c0 -275 145 -374 392 -374c95 0 196 22 263 55l36 -73c-80 -40 -184 -64 -298 -64zM507 153c88 0 123 46 123 144c0 96 -30 134 -123 134c-86 0 -110 -54 -110 -134
c0 -81 24 -144 110 -144z" />
    <glyph glyph-name="A" unicode="A" horiz-adv-x="790" 
d="M14 0l297 746h166l299 -746h-170l-48 122h-336l-48 -122h-160zM274 257h232l-116 295z" />
    <glyph glyph-name="B" unicode="B" horiz-adv-x="755" 
d="M74 0v741h344c197 0 281 -55 281 -191c0 -86 -31 -140 -99 -164c87 -21 119 -77 119 -182c0 -161 -104 -204 -303 -204h-342zM235 136h200c84 0 118 23 118 84s-33 83 -118 83h-200v-167zM235 445h189c87 0 109 29 109 81s-26 76 -109 76h-189v-157z" />
    <glyph glyph-name="C" unicode="C" horiz-adv-x="759" 
d="M415 -11c-277 0 -381 137 -381 382c0 266 145 382 391 382c135 0 221 -36 291 -107l-113 -113c-45 44 -98 70 -179 70c-158 0 -225 -80 -225 -234c0 -149 56 -234 226 -234c96 0 142 32 188 75l108 -106c-59 -61 -138 -115 -306 -115z" />
    <glyph glyph-name="D" unicode="D" horiz-adv-x="786" 
d="M74 0v741h266c292 0 413 -76 413 -370c0 -289 -125 -371 -417 -371h-262zM238 143h107c202 0 243 61 243 228s-34 223 -246 223h-104v-451z" />
    <glyph glyph-name="E" unicode="E" horiz-adv-x="687" 
d="M74 0v741h557v-148h-393v-144h383v-143h-383v-164h397v-142h-561z" />
    <glyph glyph-name="F" unicode="F" horiz-adv-x="652" 
d="M74 0v741h539v-148h-375v-159h365v-146h-365v-288h-164z" />
    <glyph glyph-name="G" unicode="G" horiz-adv-x="799" 
d="M413 -11c-296 0 -379 136 -379 382c0 268 140 382 390 382c150 0 241 -44 300 -105l-112 -113c-38 36 -87 68 -189 68c-162 0 -225 -80 -225 -234c0 -162 44 -242 223 -242c144 0 186 48 186 152v16h-207v136h369v-121c0 -211 -84 -321 -356 -321z" />
    <glyph glyph-name="H" unicode="H" horiz-adv-x="815" 
d="M74 0v741h164v-284h339v284h164v-741h-164v304h-339v-304h-164z" />
    <glyph glyph-name="I" unicode="I" horiz-adv-x="333" 
d="M85 0v741h163v-741h-163z" />
    <glyph glyph-name="J" unicode="J" horiz-adv-x="455" 
d="M131 -2c-64 0 -75 0 -109 2v142h89c85 0 111 28 111 98v501h163v-507c0 -187 -105 -236 -254 -236z" />
    <glyph glyph-name="K" unicode="K" horiz-adv-x="760" 
d="M549 0l-208 323l-105 -124v-199h-162v741h162v-335l281 335h181l-251 -293l287 -448h-185z" />
    <glyph glyph-name="L" unicode="L" horiz-adv-x="617" 
d="M74 0v741h164v-599h364v-142h-528z" />
    <glyph glyph-name="M" unicode="M" horiz-adv-x="978" 
d="M74 0v741h214l201 -506l201 506h213v-741h-160v495l-199 -495h-124l-198 492v-492h-148z" />
    <glyph glyph-name="N" unicode="N" horiz-adv-x="823" 
d="M74 0v741h177l341 -467v467h156v-741h-150l-367 500v-500h-157z" />
    <glyph glyph-name="O" unicode="O" horiz-adv-x="853" 
d="M426 -12c-236 0 -392 104 -392 383c0 278 156 382 392 382s393 -104 393 -382c0 -279 -157 -383 -393 -383zM426 132c170 0 227 91 227 236s-57 235 -227 235s-227 -90 -227 -235s57 -236 227 -236z" />
    <glyph glyph-name="P" unicode="P" horiz-adv-x="760" 
d="M74 0v741h356c228 0 296 -96 296 -248s-64 -266 -304 -266h-188v-227h-160zM234 367h195c93 0 133 32 133 118c0 89 -38 116 -135 116h-193v-234z" />
    <glyph glyph-name="Q" unicode="Q" horiz-adv-x="853" 
d="M548 -198c-200 0 -246 57 -239 204c-171 29 -275 134 -275 365c0 278 153 382 392 382s393 -104 393 -382c0 -264 -138 -363 -354 -373c-2 -53 13 -63 82 -63h95v-131c-20 -1 -49 -2 -94 -2zM426 132c173 0 227 91 227 236s-54 235 -227 235s-227 -90 -227 -235
s54 -236 227 -236z" />
    <glyph glyph-name="R" unicode="R" horiz-adv-x="772" 
d="M537 0l-137 246h-166v-246h-160v741h358c233 0 289 -100 289 -242c0 -102 -33 -196 -156 -235l147 -264h-175zM234 387h193c89 0 129 22 129 106c0 86 -38 108 -131 108h-191v-214z" />
    <glyph glyph-name="S" unicode="S" horiz-adv-x="741" 
d="M375 -11c-147 0 -269 35 -353 97l82 118c79 -53 171 -79 266 -79c145 0 172 28 172 90c0 61 -62 73 -176 89c-198 28 -301 64 -301 225c0 165 100 224 309 224c151 0 243 -35 300 -73l-88 -127c-47 31 -134 57 -214 57c-116 0 -144 -23 -144 -77c0 -60 61 -71 179 -88
c178 -26 297 -55 297 -222c0 -150 -82 -234 -329 -234z" />
    <glyph glyph-name="T" unicode="T" horiz-adv-x="706" 
d="M271 0v593h-257v148h678v-148h-256v-593h-165z" />
    <glyph glyph-name="U" unicode="U" horiz-adv-x="816" 
d="M408 -14c-313 0 -339 155 -339 297v458h164v-437c0 -110 27 -173 177 -173c149 0 178 59 178 173v437h159v-458c0 -142 -27 -297 -339 -297z" />
    <glyph glyph-name="V" unicode="V" horiz-adv-x="781" 
d="M308 -5l-293 746h172l207 -542l206 542h169l-295 -746h-166z" />
    <glyph glyph-name="W" unicode="W" horiz-adv-x="1082" 
d="M245 -5l-226 746h171l138 -476l144 476h148l145 -476l138 476h160l-225 -746h-145l-152 498l-152 -498h-144z" />
    <glyph glyph-name="X" unicode="X" horiz-adv-x="781" 
d="M569 0l-186 267l-176 -267h-181l272 389l-244 352h184l159 -228l150 228h181l-247 -349l274 -392h-186z" />
    <glyph glyph-name="Y" unicode="Y" horiz-adv-x="760" 
d="M298 0v260l-295 481h176l204 -334l204 334h169l-295 -481v-260h-163z" />
    <glyph glyph-name="Z" unicode="Z" horiz-adv-x="692" 
d="M32 0v122l407 471h-390v148h597v-134l-401 -465h412v-142h-625z" />
    <glyph glyph-name="bracketleft" unicode="[" horiz-adv-x="516" 
d="M109 -165v941h320v-135h-161v-675h164v-131h-323z" />
    <glyph glyph-name="backslash" unicode="\" horiz-adv-x="574" 
d="M414 0l-414 741h160l414 -741h-160z" />
    <glyph glyph-name="bracketright" unicode="]" horiz-adv-x="516" 
d="M84 -165v131h163v675h-161v135h320v-941h-322z" />
    <glyph glyph-name="asciicircum" unicode="^" horiz-adv-x="590" 
d="M59 552l155 183h162l155 -183h-147l-91 86l-90 -86h-144z" />
    <glyph glyph-name="underscore" unicode="_" horiz-adv-x="453" 
d="M-37 -157v117h527v-117h-527z" />
    <glyph glyph-name="grave" unicode="`" horiz-adv-x="590" 
d="M259 620l-191 183h189l141 -183h-139z" />
    <glyph glyph-name="a" unicode="a" horiz-adv-x="645" 
d="M238 -9c-175 0 -213 76 -213 175c0 160 112 198 363 198h23c-1 51 -14 77 -112 77c-69 0 -130 -25 -164 -46l-78 115c40 27 140 69 259 69c204 0 246 -65 246 -225v-172c0 -45 3 -52 49 -52v-128c-11 -3 -31 -4 -66 -4c-60 0 -86 12 -108 56c-29 -39 -92 -63 -199 -63z
M269 117c99 0 142 35 142 118v21h-13c-200 0 -224 -16 -224 -77c0 -42 23 -62 95 -62z" />
    <glyph glyph-name="b" unicode="b" horiz-adv-x="681" 
d="M394 -9c-108 0 -166 22 -196 58l-31 -55l-105 11v771h156v-251c31 36 91 54 185 54c195 0 243 -132 243 -295s-52 -293 -252 -293zM364 123c101 0 123 65 123 155c0 91 -20 158 -123 158c-108 0 -145 -50 -145 -158s31 -155 145 -155z" />
    <glyph glyph-name="c" unicode="c" horiz-adv-x="587" 
d="M325 -9c-234 0 -290 127 -290 293c0 164 53 295 297 295c102 0 178 -34 230 -92l-110 -104c-24 25 -56 52 -120 52c-112 0 -139 -61 -139 -155s25 -157 140 -157c53 0 88 17 128 55l100 -96c-66 -61 -122 -91 -236 -91z" />
    <glyph glyph-name="d" unicode="d" horiz-adv-x="681" 
d="M281 -11c-195 0 -246 134 -246 297c0 162 53 293 251 293c103 0 152 -23 176 -53v250h157v-770l-120 -11l-16 57c-34 -40 -93 -63 -202 -63zM318 124c108 0 144 53 144 162c0 107 -30 152 -144 152c-103 0 -124 -62 -124 -152c0 -91 21 -162 124 -162z" />
    <glyph glyph-name="e" unicode="e" horiz-adv-x="619" 
d="M330 -11c-245 0 -295 134 -295 295c0 158 52 295 294 295c249 0 257 -166 252 -355h-394c9 -68 42 -108 143 -108c87 0 136 21 178 52l79 -102c-73 -55 -145 -77 -257 -77zM324 448c-97 0 -129 -43 -137 -112h251c-4 65 -17 112 -114 112z" />
    <glyph glyph-name="f" unicode="f" horiz-adv-x="444" 
d="M25 432v134h107v27c0 129 47 201 214 201c37 0 57 -1 75 -2v-128h-54c-64 0 -79 -25 -79 -70v-28h133v-134h-133v-432h-156v432h-107z" />
    <glyph glyph-name="g" unicode="g" horiz-adv-x="652" 
d="M313 208c-27 0 -52 1 -75 3c-3 -6 -5 -13 -5 -20c0 -27 17 -31 93 -31c234 0 293 -35 293 -155c0 -136 -99 -184 -308 -184c-216 0 -294 24 -294 138c0 64 34 110 111 127c-30 21 -34 50 -34 80c0 32 9 58 28 79c-50 29 -73 76 -73 142c0 124 77 192 264 192
c10 0 20 0 31 -1l252 50v-119h-81c39 -21 63 -56 63 -122c0 -124 -80 -179 -265 -179zM317 -71c115 0 142 23 142 65c0 41 -32 52 -142 52c-126 0 -142 -21 -142 -59c0 -41 27 -58 142 -58zM313 312c86 0 111 25 111 73c0 49 -28 73 -111 73c-85 0 -111 -24 -111 -73
c0 -48 26 -73 111 -73z" />
    <glyph glyph-name="h" unicode="h" horiz-adv-x="664" 
d="M62 0v776h156v-248c23 25 77 51 184 51c171 0 203 -95 203 -236v-343h-156v312c0 69 -8 119 -103 119c-109 0 -127 -51 -127 -126v-305h-157z" />
    <glyph glyph-name="i" unicode="i" horiz-adv-x="293" 
d="M68 0v566h156v-566h-156zM67 618v143h158v-143h-158z" />
    <glyph glyph-name="j" unicode="j" horiz-adv-x="293" 
d="M3 -169v119h12c48 0 53 14 53 73v543h156v-542c0 -153 -39 -193 -192 -193h-29zM67 618v143h158v-143h-158z" />
    <glyph glyph-name="k" unicode="k" horiz-adv-x="605" 
d="M62 0v776h155v-444l193 234h171l-190 -231l207 -335h-174l-139 218l-68 -81v-137h-155z" />
    <glyph glyph-name="l" unicode="l" horiz-adv-x="341" 
d="M223 -2c-102 0 -155 39 -155 173v605h156v-586c0 -46 9 -59 56 -59h19v-129c-13 -2 -44 -4 -76 -4z" />
    <glyph glyph-name="m" unicode="m" horiz-adv-x="1027" 
d="M62 0v557l122 9l13 -49c25 34 85 62 199 62c124 0 147 -28 165 -64c29 37 91 64 210 64c171 0 198 -95 198 -236v-343h-158v312c0 69 -1 119 -96 119c-109 0 -121 -51 -121 -126v-305h-157v312c0 69 -2 119 -97 119c-109 0 -121 -51 -121 -126v-305h-157z" />
    <glyph glyph-name="n" unicode="n" horiz-adv-x="664" 
d="M62 0v557l122 9l13 -49c30 33 85 62 205 62c171 0 203 -95 203 -236v-343h-156v312c0 69 -8 119 -103 119c-109 0 -127 -51 -127 -126v-305h-157z" />
    <glyph glyph-name="o" unicode="o" horiz-adv-x="661" 
d="M331 -11c-213 0 -296 105 -296 295s83 295 296 295s295 -105 295 -295s-82 -295 -295 -295zM331 123c108 0 138 61 138 157s-30 156 -138 156c-109 0 -138 -60 -138 -156s29 -157 138 -157z" />
    <glyph glyph-name="p" unicode="p" horiz-adv-x="681" 
d="M62 -165v722l122 9l13 -50c30 36 87 63 207 63c194 0 242 -132 242 -295s-51 -293 -251 -293c-102 0 -150 20 -176 53v-209h-157zM364 124c101 0 123 64 123 154c0 91 -20 158 -123 158c-108 0 -145 -49 -145 -158c0 -108 31 -154 145 -154z" />
    <glyph glyph-name="q" unicode="q" horiz-adv-x="681" 
d="M462 -165v205c-36 -37 -89 -51 -181 -51c-195 0 -246 133 -246 296s53 294 251 294c109 0 166 -22 197 -58l31 48l105 -9v-725h-157zM318 124c108 0 144 53 144 161s-30 153 -144 153c-103 0 -124 -62 -124 -153c0 -90 21 -161 124 -161z" />
    <glyph glyph-name="r" unicode="r" horiz-adv-x="404" 
d="M62 0v557l122 9l16 -62c24 36 93 65 181 68v-150c-133 -1 -162 -53 -162 -142v-280h-157z" />
    <glyph glyph-name="s" unicode="s" horiz-adv-x="573" 
d="M280 -9c-97 0 -194 20 -270 71l80 115c59 -38 136 -59 200 -59c79 0 102 8 102 47c0 33 -23 40 -100 50c-140 19 -247 39 -247 187c0 115 68 177 247 177c91 0 179 -18 239 -52l-75 -122c-40 21 -102 37 -159 37c-80 0 -96 -14 -96 -41c0 -32 20 -39 93 -49
c144 -20 251 -37 251 -178c0 -130 -70 -183 -265 -183z" />
    <glyph glyph-name="t" unicode="t" horiz-adv-x="453" 
d="M25 432v134h100l27 138l122 25v-163h134v-134h-134v-233c0 -44 6 -68 73 -68h61v-131c-23 -2 -65 -2 -93 -2c-153 0 -197 52 -197 178v256h-93z" />
    <glyph glyph-name="u" unicode="u" horiz-adv-x="656" 
d="M329 -9c-216 0 -270 79 -270 273v302h157v-305c0 -79 2 -134 114 -134c111 0 113 56 113 135v304h154v-301c0 -194 -52 -274 -268 -274z" />
    <glyph glyph-name="v" unicode="v" horiz-adv-x="613" 
d="M224 -6l-225 572h169l143 -384l143 384h159l-225 -572h-164z" />
    <glyph glyph-name="w" unicode="w" horiz-adv-x="920" 
d="M194 -6l-185 572h165l104 -345l108 345h155l108 -344l104 344h158l-184 -572h-150l-117 364l-117 -364h-149z" />
    <glyph glyph-name="x" unicode="x" horiz-adv-x="599" 
d="M418 0l-127 182l-121 -182h-165l207 296l-188 270h175l109 -157l103 157h165l-188 -271l206 -295h-176z" />
    <glyph glyph-name="y" unicode="y" horiz-adv-x="584" 
d="M134 -170c-12 0 -39 1 -56 2v118h42c63 0 78 9 88 42l7 21l-216 553h169l131 -360l127 360h159l-227 -591c-39 -105 -87 -145 -224 -145z" />
    <glyph glyph-name="z" unicode="z" horiz-adv-x="540" 
d="M20 0v105l281 327h-265v134h476v-107l-283 -333h294v-126h-503z" />
    <glyph glyph-name="braceleft" unicode="{" horiz-adv-x="553" 
d="M342 -165c-137 0 -196 47 -196 141c0 62 50 174 50 219c0 41 -30 46 -128 46v128c96 0 128 4 128 47c0 45 -50 157 -50 219c0 94 59 141 196 141h127v-135h-89c-55 0 -72 -12 -72 -50c0 -32 45 -143 45 -203c0 -36 -17 -68 -67 -82c51 -15 67 -47 67 -83
c0 -60 -45 -174 -45 -207c0 -38 17 -50 72 -50h89v-131h-127z" />
    <glyph glyph-name="bar" unicode="|" horiz-adv-x="378" 
d="M109 -165v941h159v-941h-159z" />
    <glyph glyph-name="braceright" unicode="}" horiz-adv-x="553" 
d="M84 -165v131h90c55 0 72 12 72 50c0 33 -46 147 -46 207c0 36 17 68 67 83c-50 14 -67 46 -67 82c0 60 46 171 46 203c0 38 -17 50 -72 50h-90v135h127c138 0 197 -47 197 -141c0 -62 -51 -174 -51 -219c0 -41 30 -46 128 -46v-128c-96 0 -128 -4 -128 -47
c0 -45 51 -157 51 -219c0 -94 -59 -141 -197 -141h-127z" />
    <glyph glyph-name="asciitilde" unicode="~" horiz-adv-x="590" 
d="M142 368l-87 71c54 67 112 108 168 108c70 0 92 -54 138 -54c23 0 50 18 84 59l87 -71c-54 -67 -112 -110 -168 -110c-67 0 -91 54 -138 54c-22 0 -51 -16 -84 -57z" />
    <glyph glyph-name="Adieresis" unicode="&#xc4;" horiz-adv-x="789" 
d="M14 0l297 746h166l299 -746h-170l-48 122h-336l-48 -122h-160zM274 257h232l-116 295zM209 786v136h142v-136h-142zM436 786v136h141v-136h-141z" />
    <glyph glyph-name="Aring" unicode="&#xc5;" horiz-adv-x="789" 
d="M14 0l277 696c-28 26 -40 65 -40 110c0 82 41 147 143 147c97 0 142 -65 142 -147c0 -44 -13 -82 -40 -109l280 -697h-170l-48 122h-336l-48 -122h-160zM274 257h232l-116 295zM394 738c47 0 64 30 64 68c0 39 -17 69 -64 69c-48 0 -65 -30 -65 -69c0 -38 17 -68 65 -68z
" />
    <glyph glyph-name="Ccedilla" unicode="&#xc7;" horiz-adv-x="759" 
d="M379 -249c-55 0 -98 13 -134 33l39 73c30 -15 62 -24 89 -24c48 0 63 12 63 41c0 35 -36 39 -88 35l-30 19l14 66c-215 25 -298 158 -298 377c0 266 145 382 391 382c135 0 221 -36 291 -107l-113 -113c-45 44 -98 70 -179 70c-158 0 -225 -80 -225 -234
c0 -149 56 -234 226 -234c96 0 142 32 188 75l108 -106c-59 -61 -137 -114 -302 -115l-5 -31c62 2 125 -4 125 -95c0 -85 -63 -112 -160 -112z" />
    <glyph glyph-name="Eacute" unicode="&#xc9;" horiz-adv-x="687" 
d="M240 781l141 183h189l-191 -183h-139zM74 0v741h557v-148h-393v-144h383v-143h-383v-164h397v-142h-561z" />
    <glyph glyph-name="Ntilde" unicode="&#xd1;" horiz-adv-x="823" 
d="M74 0v741h177l341 -467v467h156v-741h-150l-367 500v-500h-157zM257 777l-87 71c54 67 112 108 168 108c70 0 92 -54 138 -54c23 0 50 18 84 59l87 -71c-54 -67 -112 -110 -168 -110c-67 0 -91 54 -138 54c-22 0 -51 -16 -84 -57z" />
    <glyph glyph-name="Odieresis" unicode="&#xd6;" horiz-adv-x="853" 
d="M242 786v136h142v-136h-142zM469 786v136h141v-136h-141zM426 -12c-236 0 -392 104 -392 383c0 278 156 382 392 382s393 -104 393 -382c0 -279 -157 -383 -393 -383zM426 132c170 0 227 91 227 236s-57 235 -227 235s-227 -90 -227 -235s57 -236 227 -236z" />
    <glyph glyph-name="Udieresis" unicode="&#xdc;" horiz-adv-x="816" 
d="M223 786v136h142v-136h-142zM450 786v136h141v-136h-141zM408 -14c-313 0 -339 155 -339 297v458h164v-437c0 -110 27 -173 177 -173c149 0 178 59 178 173v437h159v-458c0 -142 -27 -297 -339 -297z" />
    <glyph glyph-name="aacute" unicode="&#xe1;" horiz-adv-x="645" 
d="M238 -9c-175 0 -213 76 -213 175c0 160 112 198 363 198h23c-1 51 -14 77 -112 77c-69 0 -130 -25 -164 -46l-78 115c40 27 140 69 259 69c204 0 246 -65 246 -225v-172c0 -45 3 -52 49 -52v-128c-11 -3 -31 -4 -66 -4c-60 0 -86 12 -108 56c-29 -39 -92 -63 -199 -63z
M220 620l141 183h189l-191 -183h-139zM269 117c99 0 142 35 142 118v21h-13c-200 0 -224 -16 -224 -77c0 -42 23 -62 95 -62z" />
    <glyph glyph-name="agrave" unicode="&#xe0;" horiz-adv-x="645" 
d="M238 -9c-175 0 -213 76 -213 175c0 160 112 198 363 198h23c-1 51 -14 77 -112 77c-69 0 -130 -25 -164 -46l-78 115c40 27 140 69 259 69c204 0 246 -65 246 -225v-172c0 -45 3 -52 49 -52v-128c-11 -3 -31 -4 -66 -4c-60 0 -86 12 -108 56c-29 -39 -92 -63 -199 -63z
M287 620l-191 183h189l141 -183h-139zM269 117c99 0 142 35 142 118v21h-13c-200 0 -224 -16 -224 -77c0 -42 23 -62 95 -62z" />
    <glyph glyph-name="acircumflex" unicode="&#xe2;" horiz-adv-x="645" 
d="M238 -9c-175 0 -213 76 -213 175c0 160 112 198 363 198h23c-1 51 -14 77 -112 77c-69 0 -130 -25 -164 -46l-78 115c40 27 140 69 259 69c204 0 246 -65 246 -225v-172c0 -45 3 -52 49 -52v-128c-11 -3 -31 -4 -66 -4c-60 0 -86 12 -108 56c-29 -39 -92 -63 -199 -63z
M87 620l155 183h162l155 -183h-147l-91 86l-90 -86h-144zM269 117c99 0 142 35 142 118v21h-13c-200 0 -224 -16 -224 -77c0 -42 23 -62 95 -62z" />
    <glyph glyph-name="adieresis" unicode="&#xe4;" horiz-adv-x="645" 
d="M238 -9c-175 0 -213 76 -213 175c0 160 112 198 363 198h23c-1 51 -14 77 -112 77c-69 0 -130 -25 -164 -46l-78 115c40 27 140 69 259 69c204 0 246 -65 246 -225v-172c0 -45 3 -52 49 -52v-128c-11 -3 -31 -4 -66 -4c-60 0 -86 12 -108 56c-29 -39 -92 -63 -199 -63z
M269 117c99 0 142 35 142 118v21h-13c-200 0 -224 -16 -224 -77c0 -42 23 -62 95 -62zM139 625v136h142v-136h-142zM366 625v136h141v-136h-141z" />
    <glyph glyph-name="atilde" unicode="&#xe3;" horiz-adv-x="645" 
d="M238 -9c-175 0 -213 76 -213 175c0 160 112 198 363 198h23c-1 51 -14 77 -112 77c-69 0 -130 -25 -164 -46l-78 115c40 27 140 69 259 69c204 0 246 -65 246 -225v-172c0 -45 3 -52 49 -52v-128c-11 -3 -31 -4 -66 -4c-60 0 -86 12 -108 56c-29 -39 -92 -63 -199 -63z
M170 616l-87 71c54 67 112 108 168 108c70 0 92 -54 138 -54c23 0 50 18 84 59l87 -71c-54 -67 -112 -110 -168 -110c-67 0 -91 54 -138 54c-22 0 -51 -16 -84 -57zM269 117c99 0 142 35 142 118v21h-13c-200 0 -224 -16 -224 -77c0 -42 23 -62 95 -62z" />
    <glyph glyph-name="aring" unicode="&#xe5;" horiz-adv-x="645" 
d="M238 -9c-175 0 -213 76 -213 175c0 160 112 198 363 198h23c-1 51 -14 77 -112 77c-69 0 -130 -25 -164 -46l-78 115c40 27 140 69 259 69c204 0 246 -65 246 -225v-172c0 -45 3 -52 49 -52v-128c-11 -3 -31 -4 -66 -4c-60 0 -86 12 -108 56c-29 -39 -92 -63 -199 -63z
M323 604c-102 0 -143 63 -143 145s41 147 143 147c97 0 142 -65 142 -147s-45 -145 -142 -145zM269 117c99 0 142 35 142 118v21h-13c-200 0 -224 -16 -224 -77c0 -42 23 -62 95 -62zM323 681c47 0 64 30 64 68c0 39 -17 69 -64 69c-48 0 -65 -30 -65 -69
c0 -38 17 -68 65 -68z" />
    <glyph glyph-name="ccedilla" unicode="&#xe7;" horiz-adv-x="587" 
d="M293 -249c-55 0 -98 13 -134 33l39 73c30 -15 62 -24 89 -24c48 0 63 12 63 41c0 35 -36 39 -88 35l-30 19l15 69c-169 26 -212 141 -212 287c0 164 53 295 297 295c102 0 178 -34 230 -92l-110 -104c-24 25 -56 52 -120 52c-112 0 -139 -61 -139 -155s25 -157 140 -157
c53 0 88 17 128 55l100 -96c-64 -60 -119 -89 -227 -91l-6 -33c62 2 125 -4 125 -95c0 -85 -63 -112 -160 -112z" />
    <glyph glyph-name="eacute" unicode="&#xe9;" horiz-adv-x="619" 
d="M330 -11c-245 0 -295 134 -295 295c0 158 52 295 294 295c249 0 257 -166 252 -355h-394c9 -68 42 -108 143 -108c87 0 136 21 178 52l79 -102c-73 -55 -145 -77 -257 -77zM206 620l141 183h189l-191 -183h-139zM324 448c-97 0 -129 -43 -137 -112h251
c-4 65 -17 112 -114 112z" />
    <glyph glyph-name="egrave" unicode="&#xe8;" horiz-adv-x="619" 
d="M330 -11c-245 0 -295 134 -295 295c0 158 52 295 294 295c249 0 257 -166 252 -355h-394c9 -68 42 -108 143 -108c87 0 136 21 178 52l79 -102c-73 -55 -145 -77 -257 -77zM273 620l-191 183h189l141 -183h-139zM324 448c-97 0 -129 -43 -137 -112h251
c-4 65 -17 112 -114 112z" />
    <glyph glyph-name="ecircumflex" unicode="&#xea;" horiz-adv-x="619" 
d="M330 -11c-245 0 -295 134 -295 295c0 158 52 295 294 295c249 0 257 -166 252 -355h-394c9 -68 42 -108 143 -108c87 0 136 21 178 52l79 -102c-73 -55 -145 -77 -257 -77zM73 620l155 183h162l155 -183h-147l-91 86l-90 -86h-144zM324 448c-97 0 -129 -43 -137 -112h251
c-4 65 -17 112 -114 112z" />
    <glyph glyph-name="edieresis" unicode="&#xeb;" horiz-adv-x="619" 
d="M330 -11c-245 0 -295 134 -295 295c0 158 52 295 294 295c249 0 257 -166 252 -355h-394c9 -68 42 -108 143 -108c87 0 136 21 178 52l79 -102c-73 -55 -145 -77 -257 -77zM324 448c-97 0 -129 -43 -137 -112h251c-4 65 -17 112 -114 112zM125 625v136h142v-136h-142z
M352 625v136h141v-136h-141z" />
    <glyph glyph-name="iacute" unicode="&#xed;" horiz-adv-x="293" 
d="M70 620l92 183h192l-142 -183h-142zM68 0v566h156v-566h-156z" />
    <glyph glyph-name="igrave" unicode="&#xec;" horiz-adv-x="293" 
d="M81 620l-142 183h191l93 -183h-142zM68 0v566h156v-566h-156z" />
    <glyph glyph-name="icircumflex" unicode="&#xee;" horiz-adv-x="293" 
d="M-61 620l130 183h154l130 -183h-143l-66 86l-66 -86h-139zM68 0v566h156v-566h-156z" />
    <glyph glyph-name="idieresis" unicode="&#xef;" horiz-adv-x="293" 
d="M-16 625v136h126v-136h-126zM183 625v136h126v-136h-126zM68 0v566h156v-566h-156z" />
    <glyph glyph-name="ntilde" unicode="&#xf1;" horiz-adv-x="664" 
d="M62 0v557l122 9l13 -49c30 33 85 62 205 62c171 0 203 -95 203 -236v-343h-156v312c0 69 -8 119 -103 119c-109 0 -127 -51 -127 -126v-305h-157zM178 616l-87 71c54 67 112 108 168 108c70 0 92 -54 138 -54c23 0 50 18 84 59l87 -71c-54 -67 -112 -110 -168 -110
c-67 0 -91 54 -138 54c-22 0 -51 -16 -84 -57z" />
    <glyph glyph-name="oacute" unicode="&#xf3;" horiz-adv-x="661" 
d="M227 620l141 183h189l-191 -183h-139zM331 -11c-213 0 -296 105 -296 295s83 295 296 295s295 -105 295 -295s-82 -295 -295 -295zM331 123c108 0 138 61 138 157s-30 156 -138 156c-109 0 -138 -60 -138 -156s29 -157 138 -157z" />
    <glyph glyph-name="ograve" unicode="&#xf2;" horiz-adv-x="661" 
d="M331 -11c-213 0 -296 105 -296 295s83 295 296 295s295 -105 295 -295s-82 -295 -295 -295zM331 123c108 0 138 61 138 157s-30 156 -138 156c-109 0 -138 -60 -138 -156s29 -157 138 -157zM294 620l-191 183h189l141 -183h-139z" />
    <glyph glyph-name="ocircumflex" unicode="&#xf4;" horiz-adv-x="661" 
d="M94 620l155 183h162l155 -183h-147l-91 86l-90 -86h-144zM331 -11c-213 0 -296 105 -296 295s83 295 296 295s295 -105 295 -295s-82 -295 -295 -295zM331 123c108 0 138 61 138 157s-30 156 -138 156c-109 0 -138 -60 -138 -156s29 -157 138 -157z" />
    <glyph glyph-name="odieresis" unicode="&#xf6;" horiz-adv-x="661" 
d="M146 625v136h142v-136h-142zM373 625v136h141v-136h-141zM331 -11c-213 0 -296 105 -296 295s83 295 296 295s295 -105 295 -295s-82 -295 -295 -295zM331 123c108 0 138 61 138 157s-30 156 -138 156c-109 0 -138 -60 -138 -156s29 -157 138 -157z" />
    <glyph glyph-name="otilde" unicode="&#xf5;" horiz-adv-x="661" 
d="M331 -11c-213 0 -296 105 -296 295s83 295 296 295s295 -105 295 -295s-82 -295 -295 -295zM331 123c108 0 138 61 138 157s-30 156 -138 156c-109 0 -138 -60 -138 -156s29 -157 138 -157zM177 616l-87 71c54 67 112 108 168 108c70 0 92 -54 138 -54c23 0 50 18 84 59
l87 -71c-54 -67 -112 -110 -168 -110c-67 0 -91 54 -138 54c-22 0 -51 -16 -84 -57z" />
    <glyph glyph-name="uacute" unicode="&#xfa;" horiz-adv-x="656" 
d="M225 620l141 183h189l-191 -183h-139zM329 -9c-216 0 -270 79 -270 273v302h157v-305c0 -79 2 -134 114 -134c111 0 113 56 113 135v304h154v-301c0 -194 -52 -274 -268 -274z" />
    <glyph glyph-name="ugrave" unicode="&#xf9;" horiz-adv-x="656" 
d="M329 -9c-216 0 -270 79 -270 273v302h157v-305c0 -79 2 -134 114 -134c111 0 113 56 113 135v304h154v-301c0 -194 -52 -274 -268 -274zM292 620l-191 183h189l141 -183h-139z" />
    <glyph glyph-name="ucircumflex" unicode="&#xfb;" horiz-adv-x="656" 
d="M92 620l155 183h162l155 -183h-147l-91 86l-90 -86h-144zM329 -9c-216 0 -270 79 -270 273v302h157v-305c0 -79 2 -134 114 -134c111 0 113 56 113 135v304h154v-301c0 -194 -52 -274 -268 -274z" />
    <glyph glyph-name="udieresis" unicode="&#xfc;" horiz-adv-x="656" 
d="M144 625v136h142v-136h-142zM371 625v136h141v-136h-141zM329 -9c-216 0 -270 79 -270 273v302h157v-305c0 -79 2 -134 114 -134c111 0 113 56 113 135v304h154v-301c0 -194 -52 -274 -268 -274z" />
    <glyph glyph-name="dagger" unicode="&#x2020;" horiz-adv-x="598" 
d="M221 -166v573h-174v141h174v228h155v-228h175v-141h-175v-573h-155z" />
    <glyph glyph-name="degree" unicode="&#xb0;" horiz-adv-x="569" 
d="M284 267c-168 0 -240 110 -240 243s72 243 240 243s241 -110 241 -243s-73 -243 -241 -243zM284 381c87 0 116 55 116 125s-29 125 -116 125s-115 -55 -115 -125s28 -125 115 -125z" />
    <glyph glyph-name="cent" unicode="&#xa2;" horiz-adv-x="590" 
d="M249 -94v93c-169 25 -211 140 -211 285c0 141 40 258 211 285v69h149v-68c67 -11 120 -40 159 -83l-105 -100c-24 25 -57 51 -120 51c-111 0 -142 -62 -142 -158c0 -95 30 -160 143 -160c52 0 88 15 128 53l95 -91c-49 -44 -92 -72 -158 -82v-94h-149z" />
    <glyph glyph-name="sterling" unicode="&#xa3;" horiz-adv-x="672" 
d="M429 -7c-71 0 -140 22 -194 52c-44 -29 -110 -45 -207 -45v127c134 0 139 26 139 89c0 26 -9 62 -20 102h-122v120h88c-9 38 -16 75 -16 108c0 122 60 208 260 208c88 0 157 -13 225 -40l-60 -130c-49 22 -120 30 -169 30c-84 0 -101 -35 -101 -90c0 -23 5 -53 13 -86
h186v-120h-157c8 -36 14 -70 14 -98c0 -25 -2 -49 -7 -70c37 -15 79 -26 124 -26c70 0 81 25 81 89v29h136v-35c0 -160 -63 -214 -213 -214z" />
    <glyph glyph-name="section" unicode="&#xa7;" horiz-adv-x="606" 
d="M166 -5c-41 0 -56 1 -75 2v122h55c71 0 78 25 78 70v19c-110 15 -162 66 -162 159c0 91 50 144 157 161v16c0 114 29 201 215 201c41 0 56 -1 75 -2v-128h-55c-71 0 -79 -25 -79 -70v-16c114 -15 169 -68 169 -162c0 -92 -53 -144 -163 -159v-12
c0 -114 -29 -201 -215 -201zM302 302c85 0 116 19 116 61c0 43 -31 61 -116 61c-84 0 -114 -18 -114 -61c0 -42 30 -61 114 -61z" />
    <glyph glyph-name="bullet" unicode="&#x2022;" horiz-adv-x="388" 
d="M89 190v228h211v-228h-211z" />
    <glyph glyph-name="paragraph" unicode="&#xb6;" horiz-adv-x="679" 
d="M225 0v249c-148 30 -181 121 -181 244c0 152 54 248 296 248h261v-741h-147v239h-82v-239h-147zM335 364h119v241h-117c-103 0 -135 -28 -135 -120c0 -89 34 -121 133 -121z" />
    <glyph glyph-name="germandbls" unicode="&#xdf;" horiz-adv-x="695" 
d="M62 0v519c0 134 46 265 283 265c176 0 259 -72 259 -202c0 -106 -25 -150 -86 -176c92 -18 145 -62 145 -187c0 -153 -53 -219 -313 -219h-60v133h55c142 0 163 37 163 97c0 70 -35 91 -195 91v123c109 0 136 28 136 96c0 59 -26 92 -107 92c-90 0 -125 -39 -125 -119
v-513h-155z" />
    <glyph glyph-name="registered" unicode="&#xae;" horiz-adv-x="809" 
d="M404 -12c-248 0 -371 167 -371 383s123 383 371 383s372 -167 372 -383s-124 -383 -372 -383zM404 45c223 0 311 144 311 326s-88 326 -311 326c-224 0 -311 -144 -311 -326s87 -326 311 -326zM506 142l-86 157h-105v-157h-95v455h217c149 0 175 -60 175 -147
c0 -64 -16 -120 -95 -142l92 -166h-103zM315 381h119c60 0 80 14 80 66s-20 66 -81 66h-118v-132z" />
    <glyph glyph-name="copyright" unicode="&#xa9;" horiz-adv-x="809" 
d="M412 133c-168 0 -242 87 -242 243c0 169 99 243 248 243c82 0 140 -23 184 -68l-71 -71c-28 28 -64 44 -114 44c-96 0 -143 -51 -143 -149c0 -95 42 -150 144 -150c59 0 90 20 119 47l68 -66c-38 -39 -90 -73 -193 -73zM404 -12c-248 0 -371 167 -371 383
s123 383 371 383s372 -167 372 -383s-124 -383 -372 -383zM404 45c223 0 311 144 311 326s-88 326 -311 326c-224 0 -311 -144 -311 -326s87 -326 311 -326z" />
    <glyph glyph-name="trademark" unicode="&#x2122;" horiz-adv-x="1113" 
d="M501 281v460h133l120 -310l121 310h133v-460h-115v267l-102 -267h-77l-102 267v-267h-111zM197 281v356h-149v104h415v-104h-149v-356h-117z" />
    <glyph glyph-name="acute" unicode="&#xb4;" horiz-adv-x="590" 
d="M192 620l141 183h189l-191 -183h-139z" />
    <glyph glyph-name="dieresis" unicode="&#xa8;" horiz-adv-x="590" 
d="M111 625v136h142v-136h-142zM338 625v136h141v-136h-141z" />
    <glyph glyph-name="notequal" unicode="&#x2260;" horiz-adv-x="722" 
d="M160 57l48 104h-109v136h175l51 111h-226v135h285l49 105h129l-50 -105h112v-135h-177l-51 -111h228v-136h-287l-48 -104h-129z" />
    <glyph glyph-name="AE" unicode="&#xc6;" horiz-adv-x="1148" 
d="M3 0l465 741h624v-148h-393v-144h383v-143h-383v-164h397v-142h-554v127h-295l-85 -127h-159zM325 260h217v338z" />
    <glyph glyph-name="Oslash" unicode="&#xd8;" horiz-adv-x="853" 
d="M426 -12c-52 0 -99 5 -142 15l-26 -44h-153l58 97c-83 59 -129 160 -129 315c0 278 153 382 392 382c50 0 96 -5 138 -15l27 45h152l-58 -96c85 -59 134 -160 134 -316c0 -279 -154 -383 -393 -383zM426 126c178 0 233 94 233 242c0 80 -16 144 -59 186l-247 -422
c22 -4 46 -6 73 -6zM193 368c0 -78 15 -140 55 -182l243 418c-19 3 -41 5 -65 5c-178 0 -233 -93 -233 -241z" />
    <glyph glyph-name="infinity" unicode="&#x221e;" horiz-adv-x="896" 
d="M256 165c-133 0 -200 67 -200 179c0 113 69 180 200 180c81 0 142 -46 194 -98c53 52 113 98 191 98c113 0 199 -49 199 -180c0 -129 -88 -179 -199 -179c-81 0 -142 45 -194 97c-53 -52 -114 -97 -191 -97zM260 279c38 0 73 28 110 64c-36 38 -71 67 -110 67
c-53 0 -81 -23 -81 -66c0 -42 26 -65 81 -65zM638 410c-39 0 -74 -28 -111 -65c36 -37 72 -66 111 -66c45 0 79 15 79 65c0 52 -34 66 -79 66z" />
    <glyph glyph-name="plusminus" unicode="&#xb1;" horiz-adv-x="722" 
d="M93 6v140h190v136h-190v141h190v189h156v-189h190v-141h-190v-136h190v-140h-536z" />
    <glyph glyph-name="lessequal" unicode="&#x2264;" horiz-adv-x="722" 
d="M111 6v135h350l-350 168v100l461 220v-142l-297 -132l297 -131v-218h-461z" />
    <glyph glyph-name="greaterequal" unicode="&#x2265;" horiz-adv-x="722" 
d="M150 6v218l297 131l-297 132v142l461 -220v-100l-351 -168h351v-135h-461z" />
    <glyph glyph-name="yen" unicode="&#xa5;" horiz-adv-x="683" 
d="M74 229v110h183l-248 402h167l165 -282l166 282h166l-248 -402h182v-110h-189v-58h189v-110h-189v-61h-155v61h-189v110h189v58h-189z" />
    <glyph glyph-name="mu" unicode="&#xb5;" horiz-adv-x="666" 
d="M268 -11c-23 0 -44 2 -62 5v-159h-144v731h157v-317c0 -74 12 -122 102 -122c109 0 124 52 124 128v311h158v-560l-120 -11l-15 57c-36 -42 -108 -63 -200 -63z" />
    <glyph glyph-name="partialdiff" unicode="&#x2202;" horiz-adv-x="663" 
d="M330 -11c-214 0 -295 111 -295 275c0 152 59 272 248 272c77 0 130 -9 159 -40c-14 63 -63 150 -151 252l151 49c109 -103 185 -287 185 -491c0 -228 -99 -317 -297 -317zM330 123c105 0 139 56 139 145c0 90 -34 141 -139 141c-102 0 -137 -51 -137 -141
c0 -89 35 -145 137 -145z" />
    <glyph glyph-name="summation" unicode="&#x2211;" horiz-adv-x="662" 
d="M32 -165v122l227 333l-216 317v134h567v-148h-370l203 -303l-208 -313h392v-142h-595z" />
    <glyph glyph-name="product" unicode="&#x220f;" horiz-adv-x="790" 
d="M74 -173v914h641v-914h-164v768h-315v-768h-162z" />
    <glyph glyph-name="pi" unicode="&#x3c0;" horiz-adv-x="669" 
d="M62 0v566h545v-566h-157v435h-233v-435h-155z" />
    <glyph glyph-name="integral" unicode="&#x222b;" horiz-adv-x="444" 
d="M-1 -167v129h55c64 0 78 25 78 70v561c0 129 47 201 214 201c37 0 57 -1 75 -2v-128h-54c-64 0 -79 -25 -79 -70v-562c0 -129 -47 -201 -214 -201c-37 0 -56 1 -75 2z" />
    <glyph glyph-name="ordfeminine" unicode="&#xaa;" horiz-adv-x="617" 
d="M221 276c-129 0 -163 63 -163 142c0 130 94 163 295 163h17c-2 40 -13 59 -89 59c-55 0 -105 -20 -132 -37l-64 94c33 22 114 55 210 55c165 0 198 -52 198 -182v-137c0 -37 4 -43 41 -43v-106c-10 -1 -25 -3 -53 -3c-53 0 -84 10 -96 53c-24 -39 -58 -58 -164 -58z
M102 116v111h391v-111h-391zM255 379c77 0 115 28 115 95v19h-9c-157 0 -181 -15 -181 -64c0 -34 18 -50 75 -50z" />
    <glyph glyph-name="ordmasculine" unicode="&#xba;" horiz-adv-x="611" 
d="M306 276c-170 0 -240 85 -240 239s70 238 240 238c168 0 239 -84 239 -238s-71 -239 -239 -239zM306 386c82 0 110 48 110 125s-28 125 -110 125s-110 -48 -110 -125s28 -125 110 -125zM95 114v112h421v-112h-421z" />
    <glyph glyph-name="Omega" unicode="&#x2126;" horiz-adv-x="887" 
d="M444 753c271 0 393 -151 393 -330c0 -146 -70 -236 -212 -263v-26h223v-134h-340v215c122 23 163 85 163 182c0 126 -76 206 -227 206c-152 0 -228 -80 -228 -206c0 -97 41 -159 163 -182v-215h-340v134h223v26c-141 27 -211 117 -211 263c0 179 121 330 393 330z" />
    <glyph glyph-name="ae" unicode="&#xe6;" horiz-adv-x="989" 
d="M700 -11c-123 0 -192 32 -231 83c-49 -75 -124 -81 -231 -81c-173 0 -213 71 -213 175c0 160 108 198 363 198h23c-1 51 -14 77 -112 77c-69 0 -130 -25 -164 -46l-78 115c40 27 140 69 259 69c96 0 151 -20 182 -55c42 34 105 55 201 55c250 0 258 -166 252 -355h-394
c9 -68 42 -108 143 -108c87 0 137 21 178 52l79 -102c-72 -55 -140 -77 -257 -77zM268 117c101 0 143 35 143 118v21h-13c-201 0 -224 -16 -224 -77c0 -42 18 -62 94 -62zM695 448c-98 0 -130 -43 -138 -112h251c-3 65 -9 112 -113 112z" />
    <glyph glyph-name="oslash" unicode="&#xf8;" horiz-adv-x="661" 
d="M331 -11c-42 0 -78 4 -110 11l-27 -43h-140l60 94c-57 50 -79 129 -79 233c0 190 75 295 296 295c41 0 77 -4 108 -11l28 43h141l-61 -95c56 -50 79 -128 79 -232c0 -190 -74 -295 -295 -295zM331 119c112 0 141 64 141 161c0 40 -5 74 -19 100l-161 -258
c11 -2 24 -3 39 -3zM190 280c0 -38 4 -71 16 -97l158 254c-10 2 -21 3 -33 3c-113 0 -141 -63 -141 -160z" />
    <glyph glyph-name="questiondown" unicode="&#xbf;" horiz-adv-x="702" 
d="M340 -12c-189 0 -277 55 -277 197c0 110 49 153 138 192c94 41 101 56 93 149h153c20 -136 -11 -178 -122 -226c-84 -38 -101 -54 -101 -101c0 -45 18 -72 128 -72c82 1 153 21 212 50l66 -130c-73 -36 -184 -59 -290 -59zM280 584v157h183v-157h-183z" />
    <glyph glyph-name="exclamdown" unicode="&#xa1;" horiz-adv-x="402" 
d="M115 0l16 508h140l16 -508h-172zM110 565v176h182v-176h-182z" />
    <glyph glyph-name="logicalnot" unicode="&#xac;" horiz-adv-x="722" 
d="M93 423h536v-331h-156v190h-380v141z" />
    <glyph glyph-name="radical" unicode="&#x221a;" horiz-adv-x="691" 
d="M209 -6l-177 452h165l99 -263l209 558h155l-287 -747h-164z" />
    <glyph glyph-name="florin" unicode="&#x192;" horiz-adv-x="615" 
d="M84 327v135h136l24 110c20 100 54 169 231 169h56v-140h-47c-70 0 -84 -29 -93 -76l-14 -63h154v-135h-183l-105 -493h-157l105 493h-107z" />
    <glyph glyph-name="approxequal" unicode="&#x2248;" horiz-adv-x="722" 
d="M181 380l-87 71c56 69 117 113 176 113c75 0 130 -57 181 -57c25 0 54 20 90 63l86 -72c-55 -67 -115 -113 -174 -113c-72 0 -125 58 -180 58c-26 0 -57 -19 -92 -63zM181 134l-87 71c56 69 117 112 176 112c75 0 130 -57 181 -57c25 0 54 20 90 63l86 -71
c-55 -68 -115 -114 -174 -114c-72 0 -125 58 -180 58c-26 0 -57 -19 -92 -62z" />
    <glyph glyph-name="Delta" unicode="&#x2206;" horiz-adv-x="789" 
d="M14 0l297 746h166l298 -746h-761zM226 135h327l-164 417z" />
    <glyph glyph-name="guillemotleft" unicode="&#xab;" horiz-adv-x="767" 
d="M251 0l-151 282l151 284h137l-139 -284l139 -282h-137zM501 0l-151 282l151 284h138l-139 -284l139 -282h-138z" />
    <glyph glyph-name="guillemotright" unicode="&#xbb;" horiz-adv-x="767" 
d="M129 0l139 283l-139 283h137l151 -283l-151 -283h-137zM378 0l139 283l-139 283h138l151 -283l-151 -283h-138z" />
    <glyph glyph-name="ellipsis" unicode="&#x2026;" horiz-adv-x="843" 
d="M55 0v180h182v-180h-182zM330 0v180h182v-180h-182zM605 0v180h182v-180h-182z" />
    <glyph glyph-name="Agrave" unicode="&#xc0;" horiz-adv-x="789" 
d="M14 0l297 746h166l299 -746h-170l-48 122h-336l-48 -122h-160zM274 257h232l-116 295zM357 781l-191 183h189l141 -183h-139z" />
    <glyph glyph-name="Atilde" unicode="&#xc3;" horiz-adv-x="789" 
d="M14 0l297 746h166l299 -746h-170l-48 122h-336l-48 -122h-160zM274 257h232l-116 295zM240 777l-87 71c54 67 112 108 168 108c70 0 92 -54 138 -54c23 0 50 18 84 59l87 -71c-54 -67 -112 -110 -168 -110c-67 0 -91 54 -138 54c-22 0 -51 -16 -84 -57z" />
    <glyph glyph-name="Otilde" unicode="&#xd5;" horiz-adv-x="853" 
d="M426 -12c-236 0 -392 104 -392 383c0 278 156 382 392 382s393 -104 393 -382c0 -279 -157 -383 -393 -383zM426 132c170 0 227 91 227 236s-57 235 -227 235s-227 -90 -227 -235s57 -236 227 -236zM273 777l-87 71c54 67 112 108 168 108c70 0 92 -54 138 -54
c23 0 50 18 84 59l87 -71c-54 -67 -112 -110 -168 -110c-67 0 -91 54 -138 54c-22 0 -51 -16 -84 -57z" />
    <glyph glyph-name="OE" unicode="&#x152;" horiz-adv-x="1262" 
d="M665 0v57c-58 -46 -137 -69 -239 -69c-239 0 -392 104 -392 383c0 278 153 382 392 382c102 0 181 -23 239 -69v57h540v-148h-392v-144h382v-143h-382v-164h396v-142h-544zM426 132c173 0 227 91 227 236s-54 235 -227 235s-227 -90 -227 -235s54 -236 227 -236z" />
    <glyph glyph-name="oe" unicode="&#x153;" horiz-adv-x="1053" 
d="M765 -11c-112 0 -179 27 -220 70c-43 -45 -111 -70 -214 -70c-221 0 -296 105 -296 295s75 295 296 295c104 0 172 -25 215 -71c41 44 108 71 218 71c249 0 257 -166 252 -355h-395c9 -68 42 -108 144 -108c87 0 136 21 178 52l79 -102c-73 -55 -141 -77 -257 -77z
M331 123c108 0 138 61 138 157s-30 156 -138 156c-109 0 -138 -60 -138 -156s29 -157 138 -157zM759 448c-97 0 -129 -43 -138 -112h252c-4 65 -10 112 -114 112z" />
    <glyph glyph-name="endash" unicode="&#x2013;" horiz-adv-x="747" 
d="M38 258v140h671v-140h-671z" />
    <glyph glyph-name="emdash" unicode="&#x2014;" horiz-adv-x="962" 
d="M38 258v140h886v-140h-886z" />
    <glyph glyph-name="quotedblleft" unicode="&#x201c;" horiz-adv-x="531" 
d="M55 402v125c0 121 18 162 137 214l36 -75c-67 -31 -79 -45 -79 -88h84v-176h-178zM299 402v125c0 121 17 162 135 214l37 -75c-67 -31 -79 -45 -79 -88h83v-176h-176z" />
    <glyph glyph-name="quotedblright" unicode="&#x201d;" horiz-adv-x="531" 
d="M96 402l-36 74c67 33 79 46 79 90h-84v175h178v-125c0 -121 -17 -162 -137 -214zM340 402l-38 74c67 33 80 46 80 90h-83v175h176v-125c0 -121 -17 -162 -135 -214z" />
    <glyph glyph-name="quoteleft" unicode="&#x2018;" horiz-adv-x="293" 
d="M55 395v128c0 125 19 166 140 220l38 -77c-69 -33 -81 -47 -81 -91h85v-180h-182z" />
    <glyph glyph-name="quoteright" unicode="&#x2019;" horiz-adv-x="293" 
d="M98 393l-38 77c69 32 81 46 81 90h-86v181h182v-128c0 -126 -17 -167 -139 -220z" />
    <glyph glyph-name="divide" unicode="&#xf7;" horiz-adv-x="722" 
d="M282 79v135h158v-135h-158zM93 282v141h536v-141h-536zM282 491v135h158v-135h-158z" />
    <glyph glyph-name="lozenge" unicode="&#x25ca;" horiz-adv-x="641" 
d="M239 0l-224 371l225 370h153l225 -370l-226 -371h-153zM317 121l143 247l-145 252l-144 -248z" />
    <glyph glyph-name="ydieresis" unicode="&#xff;" horiz-adv-x="584" 
d="M134 -170c-12 0 -39 1 -56 2v118h42c63 0 78 9 88 42l7 21l-216 553h169l131 -360l127 360h159l-227 -591c-39 -105 -87 -145 -224 -145zM109 625v136h142v-136h-142zM336 625v136h141v-136h-141z" />
    <glyph glyph-name="Ydieresis" unicode="&#x178;" horiz-adv-x="760" 
d="M298 0v260l-295 481h176l204 -334l204 334h169l-295 -481v-260h-163zM195 786v136h142v-136h-142zM422 786v136h141v-136h-141z" />
    <glyph glyph-name="fraction" unicode="&#x2044;" horiz-adv-x="553" 
d="M0 0l415 741h139l-416 -741h-138z" />
    <glyph glyph-name="Euro" unicode="&#x20ac;" horiz-adv-x="718" 
d="M29 394v109h124c29 167 123 250 298 250c114 0 162 -16 216 -43l-69 -129c-36 19 -85 32 -143 32c-92 0 -133 -41 -150 -110h212v-109h-223v-19v-39h223v-110h-206c20 -66 62 -104 142 -104c48 0 99 9 146 38l73 -118c-59 -36 -122 -54 -227 -54c-171 0 -259 89 -289 238
h-127v110h114v36v22h-114z" />
    <glyph glyph-name="guilsinglleft" unicode="&#x2039;" horiz-adv-x="486" 
d="M234 0l-151 282l151 284h141l-139 -284l139 -282h-141z" />
    <glyph glyph-name="guilsinglright" unicode="&#x203a;" horiz-adv-x="486" 
d="M111 0l139 283l-139 283h141l151 -283l-151 -283h-141z" />
    <glyph glyph-name="daggerdbl" unicode="&#x2021;" horiz-adv-x="598" 
d="M221 -166v237h-174v141h174v195h-174v141h174v228h155v-228h175v-141h-175v-195h175v-141h-175v-237h-155z" />
    <glyph glyph-name="periodcentered" unicode="&#xb7;" horiz-adv-x="293" 
d="M55 274v184h182v-184h-182z" />
    <glyph glyph-name="quotesinglbase" unicode="&#x201a;" horiz-adv-x="293" 
d="M98 -162l-38 77c69 32 81 47 81 91h-86v180h182v-129c0 -113 -17 -166 -139 -219z" />
    <glyph glyph-name="quotedblbase" unicode="&#x201e;" horiz-adv-x="531" 
d="M96 -157l-36 74c67 31 79 45 79 89h-84v175h178v-124c0 -111 -17 -163 -137 -214zM340 -157l-38 74c67 31 80 45 80 89h-83v175h176v-124c0 -111 -17 -163 -135 -214z" />
    <glyph glyph-name="perthousand" unicode="&#x2030;" horiz-adv-x="1757" 
d="M270 263c-155 0 -238 89 -238 245c0 153 83 245 238 245c151 0 235 -91 235 -245c0 -156 -84 -245 -235 -245zM270 380c71 0 95 50 95 128c0 76 -25 124 -95 124c-71 0 -98 -47 -98 -124c0 -78 26 -128 98 -128zM978 -9c-153 0 -236 90 -236 246c0 153 83 245 236 245
c152 0 236 -92 236 -245c0 -156 -84 -246 -236 -246zM978 108c72 0 96 50 96 129c0 75 -25 123 -96 123c-70 0 -96 -47 -96 -123c0 -79 25 -129 96 -129zM1489 -9c-153 0 -236 90 -236 246c0 153 83 245 236 245c152 0 236 -92 236 -245c0 -156 -84 -246 -236 -246z
M1489 108c71 0 96 50 96 129c0 75 -26 123 -96 123s-96 -47 -96 -123c0 -79 25 -129 96 -129zM343 0l414 742h146l-415 -742h-145z" />
    <glyph glyph-name="Acircumflex" unicode="&#xc2;" horiz-adv-x="789" 
d="M14 0l297 746h166l299 -746h-170l-48 122h-336l-48 -122h-160zM274 257h232l-116 295zM157 781l155 183h162l155 -183h-147l-91 86l-90 -86h-144z" />
    <glyph glyph-name="Ecircumflex" unicode="&#xca;" horiz-adv-x="687" 
d="M107 781l155 183h162l155 -183h-147l-91 86l-90 -86h-144zM74 0v741h557v-148h-393v-144h383v-143h-383v-164h397v-142h-561z" />
    <glyph glyph-name="Aacute" unicode="&#xc1;" horiz-adv-x="789" 
d="M14 0l297 746h166l299 -746h-170l-48 122h-336l-48 -122h-160zM274 257h232l-116 295zM290 781l141 183h189l-191 -183h-139z" />
    <glyph glyph-name="Edieresis" unicode="&#xcb;" horiz-adv-x="687" 
d="M159 786v136h142v-136h-142zM386 786v136h141v-136h-141zM74 0v741h557v-148h-393v-144h383v-143h-383v-164h397v-142h-561z" />
    <glyph glyph-name="Egrave" unicode="&#xc8;" horiz-adv-x="687" 
d="M74 0v741h557v-148h-393v-144h383v-143h-383v-164h397v-142h-561zM307 781l-191 183h189l141 -183h-139z" />
    <glyph glyph-name="Iacute" unicode="&#xcd;" horiz-adv-x="333" 
d="M85 781l135 184h196l-185 -184h-146zM85 0v741h163v-741h-163z" />
    <glyph glyph-name="Icircumflex" unicode="&#xce;" horiz-adv-x="333" 
d="M-55 781l140 184h162l140 -184h-147l-76 86l-75 -86h-144zM85 0v741h163v-741h-163z" />
    <glyph glyph-name="Idieresis" unicode="&#xcf;" horiz-adv-x="333" 
d="M85 0v741h163v-741h-163zM-17 786v136h142v-136h-142zM210 786v136h141v-136h-141z" />
    <glyph glyph-name="Igrave" unicode="&#xcc;" horiz-adv-x="333" 
d="M102 781l-186 184h196l136 -184h-146zM85 0v741h163v-741h-163z" />
    <glyph glyph-name="Oacute" unicode="&#xd3;" horiz-adv-x="853" 
d="M323 781l141 183h189l-191 -183h-139zM426 -12c-236 0 -392 104 -392 383c0 278 156 382 392 382s393 -104 393 -382c0 -279 -157 -383 -393 -383zM426 132c170 0 227 91 227 236s-57 235 -227 235s-227 -90 -227 -235s57 -236 227 -236z" />
    <glyph glyph-name="Ocircumflex" unicode="&#xd4;" horiz-adv-x="853" 
d="M190 781l155 183h162l155 -183h-147l-91 86l-90 -86h-144zM426 -12c-236 0 -392 104 -392 383c0 278 156 382 392 382s393 -104 393 -382c0 -279 -157 -383 -393 -383zM426 132c170 0 227 91 227 236s-57 235 -227 235s-227 -90 -227 -235s57 -236 227 -236z" />
    <glyph glyph-name="apple" unicode="&#xf8ff;" horiz-adv-x="832" 
d="M172 654l-7 8c67 61 155 97 251 97s185 -37 252 -97l-7 -8c-65 59 -151 95 -245 95s-179 -36 -244 -95zM416 -17c-96 0 -185 37 -252 97l7 8c65 -59 151 -95 245 -95s179 36 244 94c0 1 7 -7 7 -7c-67 -61 -155 -97 -251 -97zM706 120c0 0 -3 3 -8 7c55 66 88 151 88 244
s-33 178 -88 244l8 7c56 -67 90 -155 90 -251c0 -95 -34 -183 -90 -251zM126 120c-56 67 -90 155 -90 251c0 95 34 183 90 250c0 0 3 -2 7 -6c-54 -66 -87 -151 -87 -244s33 -178 88 -244c-5 -4 -8 -7 -8 -7zM416 60c-78 0 -148 29 -201 77c0 0 7 8 7 7
c52 -46 120 -74 194 -74s142 28 193 74l7 -8c-53 -47 -123 -76 -200 -76zM610 597c-51 47 -119 75 -194 75c-74 0 -142 -28 -194 -74l-7 7c54 48 124 77 201 77s147 -29 201 -77zM183 170c-45 55 -72 124 -72 201c0 76 27 146 71 200l8 -7c-43 -52 -69 -120 -69 -193
c0 -74 26 -142 69 -194zM649 171l-7 6c43 53 69 120 69 194s-26 141 -70 193l8 7c45 -54 72 -124 72 -200s-27 -146 -72 -200zM416 121c-62 0 -118 23 -161 61l7 8c41 -37 95 -59 154 -59s113 22 153 59l7 -8c-42 -38 -98 -61 -160 -61zM604 211c0 0 -3 2 -8 7
c35 42 55 95 55 153s-20 112 -55 153l8 7c36 -43 57 -99 57 -160s-21 -117 -57 -160zM570 552c-41 37 -95 59 -154 59s-112 -22 -153 -58l-7 7c43 38 99 61 160 61c62 0 118 -23 161 -61zM228 211c-35 43 -57 99 -57 160s21 116 56 160l8 -7c-33 -41 -54 -95 -54 -153
s20 -112 54 -153c-2 -3 -5 -5 -7 -7zM295 516l-7 8c34 30 79 48 128 48s94 -18 128 -49c1 0 -6 -7 -6 -7c-33 29 -76 46 -122 46s-89 -17 -121 -46zM568 243l-8 7c27 33 43 75 43 121s-16 88 -43 121l8 7c28 -35 45 -79 45 -128s-17 -93 -45 -128zM264 243
c-28 35 -45 79 -45 128c0 48 17 93 45 128l8 -7c-27 -33 -43 -75 -43 -121s16 -88 43 -121zM416 170c-49 0 -94 19 -129 49l7 7c33 -29 75 -46 122 -46c46 0 89 17 121 46l7 -8c-34 -30 -79 -48 -128 -48zM540 269l-8 7c20 26 33 59 33 95s-13 69 -34 95l8 7
c23 -28 36 -63 36 -102s-13 -74 -35 -102zM416 209c-39 0 -75 15 -103 38l7 8c26 -22 60 -36 96 -36s70 14 96 36l6 -8c-27 -23 -63 -38 -102 -38zM292 269c-22 28 -35 64 -35 102c0 39 13 74 36 102l7 -7c-20 -26 -33 -59 -33 -95s13 -69 33 -95zM320 487l-7 8
c28 24 64 38 103 38s75 -15 102 -39l-6 -7c-26 23 -59 36 -96 36c-36 0 -70 -14 -96 -36zM416 240c-32 0 -61 11 -83 30l7 8c21 -17 48 -28 76 -28c29 0 55 11 75 28l7 -7c-22 -19 -50 -31 -82 -31zM316 289c-18 23 -28 51 -28 82s10 59 28 81c2 -2 5 -4 7 -7
c-15 -20 -25 -46 -25 -74s10 -54 26 -75zM516 290l-7 7c15 20 25 46 25 74s-10 54 -26 75l8 7c18 -23 28 -51 28 -82s-10 -59 -28 -81zM341 464l-7 7c22 19 51 31 82 31s60 -11 82 -30l-7 -8c-20 17 -46 28 -75 28c-28 0 -54 -10 -75 -28zM358 445c-4 3 -7 7 -8 8
c18 15 41 24 66 24s48 -9 66 -24l-8 -8c-16 14 -36 22 -58 22s-42 -8 -58 -22zM416 265c-25 0 -48 9 -66 24l7 8c16 -14 37 -22 59 -22s42 8 58 22l7 -8c-18 -15 -40 -24 -65 -24zM334 306c-13 18 -21 40 -21 65c0 24 8 47 21 65l8 -7c-12 -16 -19 -36 -19 -58
c0 -21 7 -41 19 -57zM498 306l-8 7c12 16 19 36 19 58s-7 42 -19 58l7 7c14 -18 22 -41 22 -65s-8 -46 -21 -65zM416 285c-20 0 -38 7 -53 19l7 8c13 -10 29 -17 46 -17s32 6 45 17l7 -8c-14 -12 -32 -19 -52 -19zM371 430l-7 8c14 12 33 19 52 19c20 0 38 -7 52 -19
c-4 -4 -7 -8 -7 -8c-12 11 -28 17 -45 17s-33 -6 -45 -17zM349 320c-10 14 -16 32 -16 51s6 37 16 51l8 -7c-9 -13 -14 -28 -14 -44s5 -31 14 -44zM482 319c-2 3 -4 5 -7 7c9 13 14 29 14 45c0 17 -5 32 -14 44c0 0 8 7 7 7c11 -14 17 -32 17 -51s-6 -37 -17 -52zM468 333
l-8 7c6 9 10 20 10 31s-4 22 -10 31l8 7c8 -11 12 -24 12 -38s-4 -27 -12 -38zM416 305c-15 0 -28 5 -40 14l7 7c10 -7 21 -12 33 -12s23 5 32 12l7 -7c-11 -9 -25 -14 -39 -14zM364 333c-8 11 -12 24 -12 38s4 27 12 38c2 -3 5 -5 7 -7c-5 -9 -9 -20 -9 -31s4 -22 9 -31z
M384 416l-7 7c11 9 24 14 39 14c14 0 27 -5 38 -14l-6 -7c-9 8 -20 12 -32 12s-23 -5 -32 -12zM416 324c-10 0 -19 3 -27 9c2 1 6 6 6 6c6 -4 13 -7 21 -7s15 2 21 7c0 0 2 -2 5 -6c-7 -6 -16 -9 -26 -9zM395 403l-5 6c7 6 16 9 26 9s19 -3 26 -9c-3 -3 -5 -6 -5 -6
c-6 4 -13 7 -21 7s-15 -2 -21 -7zM378 346c-4 7 -7 16 -7 25s3 18 7 25c4 -3 6 -5 6 -5c-3 -6 -5 -13 -5 -20s2 -14 5 -20c0 0 -2 -2 -6 -5zM454 346c-4 3 -6 5 -6 5c3 6 5 13 5 20s-2 14 -5 20l6 5c4 -7 7 -16 7 -25s-3 -18 -7 -25z" />
    <glyph glyph-name="Ograve" unicode="&#xd2;" horiz-adv-x="853" 
d="M426 -12c-236 0 -392 104 -392 383c0 278 156 382 392 382s393 -104 393 -382c0 -279 -157 -383 -393 -383zM426 132c170 0 227 91 227 236s-57 235 -227 235s-227 -90 -227 -235s57 -236 227 -236zM390 781l-191 183h189l141 -183h-139z" />
    <glyph glyph-name="Uacute" unicode="&#xda;" horiz-adv-x="816" 
d="M304 781l141 183h189l-191 -183h-139zM408 -14c-313 0 -339 155 -339 297v458h164v-437c0 -110 27 -173 177 -173c149 0 178 59 178 173v437h159v-458c0 -142 -27 -297 -339 -297z" />
    <glyph glyph-name="Ucircumflex" unicode="&#xdb;" horiz-adv-x="816" 
d="M171 781l155 183h162l155 -183h-147l-91 86l-90 -86h-144zM408 -14c-313 0 -339 155 -339 297v458h164v-437c0 -110 27 -173 177 -173c149 0 178 59 178 173v437h159v-458c0 -142 -27 -297 -339 -297z" />
    <glyph glyph-name="Ugrave" unicode="&#xd9;" horiz-adv-x="816" 
d="M408 -14c-313 0 -339 155 -339 297v458h164v-437c0 -110 27 -173 177 -173c149 0 178 59 178 173v437h159v-458c0 -142 -27 -297 -339 -297zM371 781l-191 183h189l141 -183h-139z" />
    <glyph glyph-name="dotlessi" unicode="&#x131;" horiz-adv-x="293" 
d="M68 0v566h156v-566h-156z" />
    <glyph glyph-name="circumflex" unicode="&#x2c6;" horiz-adv-x="590" 
d="M59 620l155 183h162l155 -183h-147l-91 86l-90 -86h-144z" />
    <glyph glyph-name="tilde" unicode="&#x2dc;" horiz-adv-x="590" 
d="M142 616l-87 71c54 67 112 108 168 108c70 0 92 -54 138 -54c23 0 50 18 84 59l87 -71c-54 -67 -112 -110 -168 -110c-67 0 -91 54 -138 54c-22 0 -51 -16 -84 -57z" />
    <glyph glyph-name="macron" unicode="&#xaf;" horiz-adv-x="590" 
d="M85 610v125h420v-125h-420z" />
    <glyph glyph-name="breve" unicode="&#x2d8;" horiz-adv-x="590" 
d="M295 605c-148 0 -192 78 -215 196l113 21c15 -68 34 -97 102 -97s87 29 102 97l114 -20c-25 -119 -69 -197 -216 -197z" />
    <glyph glyph-name="dotaccent" unicode="&#x2d9;" horiz-adv-x="590" 
d="M215 618v139h159v-139h-159z" />
    <glyph glyph-name="ring" unicode="&#x2da;" horiz-adv-x="590" 
d="M295 604c-102 0 -143 63 -143 145s41 147 143 147c97 0 142 -65 142 -147s-45 -145 -142 -145zM295 681c47 0 64 30 64 68c0 39 -17 69 -64 69c-48 0 -65 -30 -65 -69c0 -38 17 -68 65 -68z" />
    <glyph glyph-name="cedilla" unicode="&#xb8;" horiz-adv-x="590" 
d="M295 -249c-55 0 -98 13 -134 33l39 73c30 -15 62 -24 89 -24c48 0 63 12 63 41c0 35 -36 39 -88 35l-30 19l17 79h88l-9 -49c62 2 125 -4 125 -95c0 -85 -63 -112 -160 -112z" />
    <glyph glyph-name="hungarumlaut" unicode="&#x2dd;" horiz-adv-x="590" 
d="M55 620l126 183h181l-176 -183h-131zM325 620l126 183h181l-176 -183h-131z" />
    <glyph glyph-name="ogonek" unicode="&#x2db;" horiz-adv-x="590" 
d="M314 -238c-114 0 -150 41 -150 106c0 73 58 121 94 141h125c-71 -43 -99 -84 -99 -110c0 -24 8 -38 51 -38c28 0 67 8 87 15l29 -85c-37 -17 -92 -29 -137 -29z" />
    <glyph glyph-name="caron" unicode="&#x2c7;" horiz-adv-x="590" 
d="M214 620l-155 183h147l91 -86l90 86h144l-155 -183h-162z" />
    <glyph glyph-name="a.alt" horiz-adv-x="676" 
d="M281 -9c-194 0 -246 132 -246 295c0 162 53 292 251 292c103 0 161 -21 191 -58l31 49l106 -9v-554l-121 -11l-16 57c-34 -40 -87 -61 -196 -61zM318 124c105 0 138 53 138 162c0 107 -27 152 -138 152c-103 0 -124 -62 -124 -152c0 -91 21 -162 124 -162z" />
    <glyph glyph-name="g.alt" horiz-adv-x="681" 
d="M325 -179c-108 0 -192 14 -255 39l49 125c56 -21 123 -34 185 -34c144 0 158 33 158 99v13c-48 -45 -103 -55 -184 -55c-170 0 -243 121 -243 284s60 287 251 287c101 0 161 -19 196 -58l32 48l105 -9v-468c0 -166 -21 -271 -294 -271zM318 139c105 0 144 52 144 152
c0 101 -34 147 -144 147c-100 0 -124 -61 -124 -147c0 -84 23 -152 124 -152z" />
    <glyph glyph-name="l.alt" horiz-adv-x="292" 
d="M68 0v776h156v-776h-156z" />
    <glyph glyph-name="u.alt" horiz-adv-x="663" 
d="M265 -11c-164 0 -206 91 -206 233v344h157v-317c0 -74 12 -122 102 -122c109 0 124 52 124 128v311h158v-560l-120 -11l-15 57c-36 -42 -108 -63 -200 -63z" />
    <glyph glyph-name="aacute.alt" horiz-adv-x="676" 
d="M234 620l141 183h189l-191 -183h-139zM281 -9c-194 0 -246 132 -246 295c0 162 53 292 251 292c103 0 161 -21 191 -58l31 49l106 -9v-554l-121 -11l-16 57c-34 -40 -87 -61 -196 -61zM318 124c105 0 138 53 138 162c0 107 -27 152 -138 152c-103 0 -124 -62 -124 -152
c0 -91 21 -162 124 -162z" />
    <glyph glyph-name="abreve.alt" horiz-adv-x="676" 
d="M281 -9c-194 0 -246 132 -246 295c0 162 53 292 251 292c103 0 161 -21 191 -58l31 49l106 -9v-554l-121 -11l-16 57c-34 -40 -87 -61 -196 -61zM318 124c105 0 138 53 138 162c0 107 -27 152 -138 152c-103 0 -124 -62 -124 -152c0 -91 21 -162 124 -162zM337 605
c-148 0 -192 78 -215 196l113 21c15 -68 34 -97 102 -97s87 29 102 97l114 -20c-25 -119 -69 -197 -216 -197z" />
    <glyph glyph-name="acircumflex.alt" horiz-adv-x="676" 
d="M101 620l155 183h162l155 -183h-147l-91 86l-90 -86h-144zM281 -9c-194 0 -246 132 -246 295c0 162 53 292 251 292c103 0 161 -21 191 -58l31 49l106 -9v-554l-121 -11l-16 57c-34 -40 -87 -61 -196 -61zM318 124c105 0 138 53 138 162c0 107 -27 152 -138 152
c-103 0 -124 -62 -124 -152c0 -91 21 -162 124 -162z" />
    <glyph glyph-name="adieresis.alt" horiz-adv-x="676" 
d="M153 625v136h142v-136h-142zM380 625v136h141v-136h-141zM281 -9c-194 0 -246 132 -246 295c0 162 53 292 251 292c103 0 161 -21 191 -58l31 49l106 -9v-554l-121 -11l-16 57c-34 -40 -87 -61 -196 -61zM318 124c105 0 138 53 138 162c0 107 -27 152 -138 152
c-103 0 -124 -62 -124 -152c0 -91 21 -162 124 -162z" />
    <glyph glyph-name="agrave.alt" horiz-adv-x="676" 
d="M281 -9c-194 0 -246 132 -246 295c0 162 53 292 251 292c103 0 161 -21 191 -58l31 49l106 -9v-554l-121 -11l-16 57c-34 -40 -87 -61 -196 -61zM318 124c105 0 138 53 138 162c0 107 -27 152 -138 152c-103 0 -124 -62 -124 -152c0 -91 21 -162 124 -162zM301 620
l-191 183h189l141 -183h-139z" />
    <glyph glyph-name="amacron.alt" horiz-adv-x="676" 
d="M281 -9c-194 0 -246 132 -246 295c0 162 53 292 251 292c103 0 161 -21 191 -58l31 49l106 -9v-554l-121 -11l-16 57c-34 -40 -87 -61 -196 -61zM318 124c105 0 138 53 138 162c0 107 -27 152 -138 152c-103 0 -124 -62 -124 -152c0 -91 21 -162 124 -162zM127 610v125
h420v-125h-420z" />
    <glyph glyph-name="aogonek.alt" horiz-adv-x="676" 
d="M281 -9c-194 0 -246 132 -246 295c0 162 53 292 251 292c103 0 161 -21 191 -58l31 49l106 -9v-554c-71 -43 -99 -81 -99 -107c0 -24 8 -38 51 -38c28 0 57 7 77 14l29 -85c-37 -17 -82 -28 -127 -28c-114 0 -150 41 -150 106c0 69 57 121 93 143l-11 41
c-34 -40 -87 -61 -196 -61zM318 124c105 0 138 53 138 162c0 107 -27 152 -138 152c-103 0 -124 -62 -124 -152c0 -91 21 -162 124 -162z" />
    <glyph glyph-name="aring.alt" horiz-adv-x="676" 
d="M337 604c-102 0 -143 63 -143 145s41 147 143 147c97 0 142 -65 142 -147s-45 -145 -142 -145zM337 681c47 0 64 30 64 68c0 39 -17 69 -64 69c-48 0 -65 -30 -65 -69c0 -38 17 -68 65 -68zM281 -9c-194 0 -246 132 -246 295c0 162 53 292 251 292c103 0 161 -21 191 -58
l31 49l106 -9v-554l-121 -11l-16 57c-34 -40 -87 -61 -196 -61zM318 124c105 0 138 53 138 162c0 107 -27 152 -138 152c-103 0 -124 -62 -124 -152c0 -91 21 -162 124 -162z" />
    <glyph glyph-name="atilde.alt" horiz-adv-x="676" 
d="M281 -9c-194 0 -246 132 -246 295c0 162 53 292 251 292c103 0 161 -21 191 -58l31 49l106 -9v-554l-121 -11l-16 57c-34 -40 -87 -61 -196 -61zM318 124c105 0 138 53 138 162c0 107 -27 152 -138 152c-103 0 -124 -62 -124 -152c0 -91 21 -162 124 -162zM184 616
l-87 71c54 67 112 108 168 108c70 0 92 -54 138 -54c23 0 50 18 84 59l87 -71c-54 -67 -112 -110 -168 -110c-67 0 -91 54 -138 54c-22 0 -51 -16 -84 -57z" />
    <glyph glyph-name="gbreve.alt" horiz-adv-x="681" 
d="M325 -179c-108 0 -192 14 -255 39l49 125c56 -21 123 -34 185 -34c144 0 158 33 158 99v13c-48 -45 -103 -55 -184 -55c-170 0 -243 121 -243 284s60 287 251 287c101 0 161 -19 196 -58l32 48l105 -9v-468c0 -166 -21 -271 -294 -271zM318 139c105 0 144 52 144 152
c0 101 -34 147 -144 147c-100 0 -124 -61 -124 -147c0 -84 23 -152 124 -152zM340 605c-148 0 -192 78 -215 196l113 21c15 -68 34 -97 102 -97s87 29 102 97l114 -20c-25 -119 -69 -197 -216 -197z" />
    <glyph glyph-name="gcommaaccent.alt" horiz-adv-x="681" 
d="M261 619v96c0 105 16 136 122 182l32 -66c-59 -29 -69 -38 -69 -71h73v-141h-158zM325 -179c-108 0 -192 14 -255 39l49 125c56 -21 123 -34 185 -34c144 0 158 33 158 99v13c-48 -45 -103 -55 -184 -55c-170 0 -243 121 -243 284s60 287 251 287c101 0 161 -19 196 -58
l32 48l105 -9v-468c0 -166 -21 -271 -294 -271zM318 139c105 0 144 52 144 152c0 101 -34 147 -144 147c-100 0 -124 -61 -124 -147c0 -84 23 -152 124 -152z" />
    <glyph glyph-name="lacute.alt" horiz-adv-x="292" 
d="M73 816l141 183h189l-191 -183h-139zM68 0v776h156v-776h-156z" />
    <glyph glyph-name="lcommaaccent.alt" horiz-adv-x="292" 
d="M105 -330l-34 66c60 29 70 38 70 71h-74v155h158v-110c0 -106 -15 -137 -120 -182zM68 0v776h156v-776h-156z" />
    <glyph glyph-name="lslash.alt" horiz-adv-x="332" 
d="M0 323v132l88 50v271h156v-181l88 51v-132l-88 -51v-463h-156v373z" />
    <glyph glyph-name="lcaron.alt" horiz-adv-x="442" 
d="M320 484l-33 67c59 28 69 37 69 70h-66v155h151v-110c0 -105 -16 -136 -121 -182zM68 0v776h156v-776h-156z" />
    <glyph glyph-name="uacute.alt" horiz-adv-x="663" 
d="M227 620l141 183h189l-191 -183h-139zM265 -11c-164 0 -206 91 -206 233v344h157v-317c0 -74 12 -122 102 -122c109 0 124 52 124 128v311h158v-560l-120 -11l-15 57c-36 -42 -108 -63 -200 -63z" />
    <glyph glyph-name="ucircumflex.alt" horiz-adv-x="663" 
d="M94 620l155 183h162l155 -183h-147l-91 86l-90 -86h-144zM265 -11c-164 0 -206 91 -206 233v344h157v-317c0 -74 12 -122 102 -122c109 0 124 52 124 128v311h158v-560l-120 -11l-15 57c-36 -42 -108 -63 -200 -63z" />
    <glyph glyph-name="udieresis.alt" horiz-adv-x="663" 
d="M146 625v136h142v-136h-142zM373 625v136h141v-136h-141zM265 -11c-164 0 -206 91 -206 233v344h157v-317c0 -74 12 -122 102 -122c109 0 124 52 124 128v311h158v-560l-120 -11l-15 57c-36 -42 -108 -63 -200 -63z" />
    <glyph glyph-name="ugrave.alt" horiz-adv-x="663" 
d="M294 620l-191 183h189l141 -183h-139zM265 -11c-164 0 -206 91 -206 233v344h157v-317c0 -74 12 -122 102 -122c109 0 124 52 124 128v311h158v-560l-120 -11l-15 57c-36 -42 -108 -63 -200 -63z" />
    <glyph glyph-name="uhungarumlaut.alt" horiz-adv-x="663" 
d="M90 620l126 183h181l-176 -183h-131zM360 620l126 183h181l-176 -183h-131zM265 -11c-164 0 -206 91 -206 233v344h157v-317c0 -74 12 -122 102 -122c109 0 124 52 124 128v311h158v-560l-120 -11l-15 57c-36 -42 -108 -63 -200 -63z" />
    <glyph glyph-name="umacron.alt" horiz-adv-x="663" 
d="M120 610v125h420v-125h-420zM265 -11c-164 0 -206 91 -206 233v344h157v-317c0 -74 12 -122 102 -122c109 0 124 52 124 128v311h158v-560l-120 -11l-15 57c-36 -42 -108 -63 -200 -63z" />
    <glyph glyph-name="uogonek.alt" horiz-adv-x="663" 
d="M265 -11c-164 0 -206 91 -206 233v344h157v-317c0 -74 12 -122 102 -122c109 0 124 52 124 128v311h158v-560c-71 -43 -99 -81 -99 -107c0 -24 8 -38 51 -38c28 0 57 7 77 14l29 -85c-37 -17 -82 -28 -127 -28c-114 0 -150 41 -150 106c0 70 58 122 94 144l-10 40
c-36 -42 -108 -63 -200 -63z" />
    <glyph glyph-name="uring.alt" horiz-adv-x="663" 
d="M330 604c-102 0 -143 63 -143 145s41 147 143 147c97 0 142 -65 142 -147s-45 -145 -142 -145zM330 681c47 0 64 30 64 68c0 39 -17 69 -64 69c-48 0 -65 -30 -65 -69c0 -38 17 -68 65 -68zM265 -11c-164 0 -206 91 -206 233v344h157v-317c0 -74 12 -122 102 -122
c109 0 124 52 124 128v311h158v-560l-120 -11l-15 57c-36 -42 -108 -63 -200 -63z" />
    <glyph glyph-name="fl.alt" horiz-adv-x="717" 
d="M25 432v134h107v27c0 129 47 201 214 201c37 0 57 -1 75 -2v-128h-54c-64 0 -79 -25 -79 -70v-28h133v-134h-133v-432h-156v432h-107zM492 0v776h157v-776h-157z" />
    <glyph glyph-name="f_f_l.alt" horiz-adv-x="1077" 
d="M492 0v432h-204v-432h-156v432h-107v134h107v27c0 129 47 201 214 201c37 0 57 -1 75 -2v-128h-54c-64 0 -79 -25 -79 -70v-28h204v27c0 129 47 201 214 201c37 0 57 -1 75 -2v-128h-54c-64 0 -78 -25 -78 -70v-28h132v-134h-132v-432h-157zM852 0v776h157v-776h-157z
" />
    <glyph glyph-name="commaaccent" unicode="&#xf6c3;" horiz-adv-x="293" 
d="M105 -330l-34 66c60 29 70 38 70 71h-74v155h158v-110c0 -106 -15 -137 -120 -182z" />
    <glyph glyph-name="commaaccent.2" horiz-adv-x="293" 
d="M67 619v96c0 105 16 136 122 182l32 -66c-59 -29 -69 -38 -69 -71h73v-141h-158z" />
    <glyph glyph-name="Abreve" unicode="&#x102;" horiz-adv-x="789" 
d="M14 0l297 746h166l299 -746h-170l-48 122h-336l-48 -122h-160zM274 257h232l-116 295zM393 766c-148 0 -192 78 -215 196l113 21c15 -68 34 -97 102 -97s87 29 102 97l114 -20c-25 -119 -69 -197 -216 -197z" />
    <glyph glyph-name="Amacron" unicode="&#x100;" horiz-adv-x="789" 
d="M14 0l297 746h166l299 -746h-170l-48 122h-336l-48 -122h-160zM274 257h232l-116 295zM183 771v125h420v-125h-420z" />
    <glyph glyph-name="Aogonek" unicode="&#x104;" horiz-adv-x="789" 
d="M14 0l297 746h166l299 -746h-48c-64 -40 -89 -76 -89 -101c0 -24 8 -38 51 -38c28 0 57 7 77 14l29 -85c-37 -17 -82 -28 -127 -28c-114 0 -150 41 -150 106c0 64 48 113 84 137l-45 117h-336l-48 -122h-160zM274 257h232l-116 295z" />
    <glyph glyph-name="Cacute" unicode="&#x106;" horiz-adv-x="759" 
d="M276 781l141 183h189l-191 -183h-139zM415 -11c-277 0 -381 137 -381 382c0 266 145 382 391 382c135 0 221 -36 291 -107l-113 -113c-45 44 -98 70 -179 70c-158 0 -225 -80 -225 -234c0 -149 56 -234 226 -234c96 0 142 32 188 75l108 -106
c-59 -61 -138 -115 -306 -115z" />
    <glyph glyph-name="Ccaron" unicode="&#x10c;" horiz-adv-x="759" 
d="M298 781l-155 183h147l91 -86l90 86h144l-155 -183h-162zM415 -11c-277 0 -381 137 -381 382c0 266 145 382 391 382c135 0 221 -36 291 -107l-113 -113c-45 44 -98 70 -179 70c-158 0 -225 -80 -225 -234c0 -149 56 -234 226 -234c96 0 142 32 188 75l108 -106
c-59 -61 -138 -115 -306 -115z" />
    <glyph glyph-name="Dcaron" unicode="&#x10e;" horiz-adv-x="786" 
d="M311 781l-155 183h147l91 -86l90 86h144l-155 -183h-162zM74 0v741h266c292 0 413 -76 413 -370c0 -289 -125 -371 -417 -371h-262zM238 143h107c202 0 243 61 243 228s-34 223 -246 223h-104v-451z" />
    <glyph glyph-name="Dcroat" unicode="&#x110;" horiz-adv-x="786" 
d="M0 310v129h74v302h266c292 0 413 -76 413 -370c0 -289 -135 -371 -417 -371h-262v310h-74zM238 143h107c202 0 243 61 243 228s-34 223 -246 223h-104v-155h138v-129h-138v-167z" />
    <glyph glyph-name="Emacron" unicode="&#x112;" horiz-adv-x="687" 
d="M74 0v741h557v-148h-393v-144h383v-143h-383v-164h397v-142h-561zM133 771v125h420v-125h-420z" />
    <glyph glyph-name="Edotaccent" unicode="&#x116;" horiz-adv-x="687" 
d="M74 0v741h557v-148h-393v-144h383v-143h-383v-164h397v-142h-561zM263 779v139h159v-139h-159z" />
    <glyph glyph-name="Eogonek" unicode="&#x118;" horiz-adv-x="687" 
d="M74 0v741h557v-148h-393v-144h383v-143h-383v-164h397v-142h-82c-60 -39 -84 -77 -84 -101s8 -38 51 -38c28 0 67 8 87 15l29 -85c-37 -17 -92 -29 -137 -29c-114 0 -150 41 -150 106c0 64 44 109 79 132h-354z" />
    <glyph glyph-name="Ecaron" unicode="&#x11a;" horiz-adv-x="687" 
d="M262 781l-155 183h147l91 -86l90 86h144l-155 -183h-162zM74 0v741h557v-148h-393v-144h383v-143h-383v-164h397v-142h-561z" />
    <glyph glyph-name="Gbreve" unicode="&#x11e;" horiz-adv-x="799" 
d="M413 -11c-296 0 -379 136 -379 382c0 268 140 382 390 382c150 0 241 -44 300 -105l-112 -113c-38 36 -87 68 -189 68c-162 0 -225 -80 -225 -234c0 -162 44 -242 223 -242c144 0 186 48 186 152v16h-207v136h369v-121c0 -211 -84 -321 -356 -321zM399 766
c-148 0 -192 78 -215 196l113 21c15 -68 34 -97 102 -97s87 29 102 97l114 -20c-25 -119 -69 -197 -216 -197z" />
    <glyph glyph-name="Gcommaaccent" unicode="&#x122;" horiz-adv-x="799" 
d="M358 -330l-34 66c60 29 70 38 70 71h-74v155h158v-110c0 -106 -15 -137 -120 -182zM413 -11c-296 0 -379 136 -379 382c0 268 140 382 390 382c150 0 241 -44 300 -105l-112 -113c-38 36 -87 68 -189 68c-162 0 -225 -80 -225 -234c0 -162 44 -242 223 -242
c144 0 186 48 186 152v16h-207v136h369v-121c0 -211 -84 -321 -356 -321z" />
    <glyph glyph-name="uni0130" horiz-adv-x="333" 
d="M85 0v741h163v-741h-163zM87 779v139h159v-139h-159z" />
    <glyph glyph-name="Imacron" unicode="&#x12a;" horiz-adv-x="333" 
d="M85 0v741h163v-741h-163zM-43 771v125h420v-125h-420z" />
    <glyph glyph-name="Iogonek" unicode="&#x12e;" horiz-adv-x="333" 
d="M85 0v741h163v-741c-71 -43 -99 -75 -99 -101c0 -24 8 -38 51 -38c28 0 57 7 77 14l29 -85c-37 -17 -82 -28 -127 -28c-114 0 -150 41 -150 106c0 67 47 110 83 132h-27z" />
    <glyph glyph-name="Kcommaaccent" unicode="&#x136;" horiz-adv-x="760" 
d="M549 0l-208 323l-105 -124v-199h-162v741h162v-335l281 335h181l-251 -293l287 -448h-185zM338 -330l-34 66c60 29 70 38 70 71h-74v155h158v-110c0 -106 -15 -137 -120 -182z" />
    <glyph glyph-name="Lacute" unicode="&#x139;" horiz-adv-x="617" 
d="M87 781l141 183h189l-191 -183h-139zM74 0v741h164v-599h364v-142h-528z" />
    <glyph glyph-name="Lcommaaccent" unicode="&#x13b;" horiz-adv-x="617" 
d="M267 -330l-34 66c60 29 70 38 70 71h-74v155h158v-110c0 -106 -15 -137 -120 -182zM74 0v741h164v-599h364v-142h-528z" />
    <glyph glyph-name="Lcaron" unicode="&#x13d;" horiz-adv-x="617" 
d="M341 484l-34 67c60 28 70 37 70 70h-66v155h150v-110c0 -105 -15 -136 -120 -182zM74 0v741h164v-599h364v-142h-528z" />
    <glyph glyph-name="Nacute" unicode="&#x143;" horiz-adv-x="823" 
d="M307 781l141 183h189l-191 -183h-139zM74 0v741h177l341 -467v467h156v-741h-150l-367 500v-500h-157z" />
    <glyph glyph-name="Ncommaaccent" unicode="&#x145;" horiz-adv-x="823" 
d="M369 -330l-34 66c60 29 70 38 70 71h-74v155h158v-110c0 -106 -15 -137 -120 -182zM74 0v741h177l341 -467v467h156v-741h-150l-367 500v-500h-157z" />
    <glyph glyph-name="Ncaron" unicode="&#x147;" horiz-adv-x="823" 
d="M329 781l-155 183h147l91 -86l90 86h144l-155 -183h-162zM74 0v741h177l341 -467v467h156v-741h-150l-367 500v-500h-157z" />
    <glyph glyph-name="Omacron" unicode="&#x14c;" horiz-adv-x="853" 
d="M216 771v125h420v-125h-420zM426 -12c-236 0 -392 104 -392 383c0 278 156 382 392 382s393 -104 393 -382c0 -279 -157 -383 -393 -383zM426 132c170 0 227 91 227 236s-57 235 -227 235s-227 -90 -227 -235s57 -236 227 -236z" />
    <glyph glyph-name="Ohungarumlaut" unicode="&#x150;" horiz-adv-x="853" 
d="M186 781l126 183h181l-176 -183h-131zM456 781l126 183h181l-176 -183h-131zM426 -12c-236 0 -392 104 -392 383c0 278 156 382 392 382s393 -104 393 -382c0 -279 -157 -383 -393 -383zM426 132c170 0 227 91 227 236s-57 235 -227 235s-227 -90 -227 -235
s57 -236 227 -236z" />
    <glyph glyph-name="Racute" unicode="&#x154;" horiz-adv-x="772" 
d="M537 0l-137 246h-166v-246h-160v741h358c233 0 289 -100 289 -242c0 -102 -33 -196 -156 -235l147 -264h-175zM234 387h193c89 0 129 22 129 106c0 86 -38 108 -131 108h-191v-214zM282 781l141 183h189l-191 -183h-139z" />
    <glyph glyph-name="Rcommaaccent" unicode="&#x156;" horiz-adv-x="772" 
d="M537 0l-137 246h-166v-246h-160v741h358c233 0 289 -100 289 -242c0 -102 -33 -196 -156 -235l147 -264h-175zM234 387h193c89 0 129 22 129 106c0 86 -38 108 -131 108h-191v-214zM344 -330l-34 66c60 29 70 38 70 71h-74v155h158v-110c0 -106 -15 -137 -120 -182z" />
    <glyph glyph-name="Rcaron" unicode="&#x158;" horiz-adv-x="772" 
d="M537 0l-137 246h-166v-246h-160v741h358c233 0 289 -100 289 -242c0 -102 -33 -196 -156 -235l147 -264h-175zM234 387h193c89 0 129 22 129 106c0 86 -38 108 -131 108h-191v-214zM304 781l-155 183h147l91 -86l90 86h144l-155 -183h-162z" />
    <glyph glyph-name="Sacute" unicode="&#x15a;" horiz-adv-x="741" 
d="M267 781l141 183h189l-191 -183h-139zM375 -11c-147 0 -269 35 -353 97l82 118c79 -53 171 -79 266 -79c145 0 172 28 172 90c0 61 -62 73 -176 89c-198 28 -301 64 -301 225c0 165 100 224 309 224c151 0 243 -35 300 -73l-88 -127c-47 31 -134 57 -214 57
c-116 0 -144 -23 -144 -77c0 -60 61 -71 179 -88c178 -26 297 -55 297 -222c0 -150 -82 -234 -329 -234z" />
    <glyph glyph-name="Scedilla" unicode="&#x15e;" horiz-adv-x="741" 
d="M370 -249c-55 0 -98 13 -134 33l39 73c30 -15 62 -24 89 -24c48 0 63 12 63 41c0 35 -36 39 -88 35l-30 19l13 63c-123 7 -226 40 -300 95l82 118c79 -53 171 -79 266 -79c145 0 172 28 172 90c0 61 -62 73 -176 89c-198 28 -301 64 -301 225c0 165 100 224 309 224
c151 0 243 -35 300 -73l-88 -127c-47 31 -134 57 -214 57c-116 0 -144 -23 -144 -77c0 -60 61 -71 179 -88c178 -26 297 -55 297 -222c0 -143 -74 -225 -293 -233l-6 -32c62 2 125 -4 125 -95c0 -85 -63 -112 -160 -112z" />
    <glyph glyph-name="Scommaaccent" unicode="&#x218;" horiz-adv-x="741" 
d="M328 -330l-34 66c60 29 70 38 70 71h-74v155h158v-110c0 -106 -15 -137 -120 -182zM375 -11c-147 0 -269 35 -353 97l82 118c79 -53 171 -79 266 -79c145 0 172 28 172 90c0 61 -62 73 -176 89c-198 28 -301 64 -301 225c0 165 100 224 309 224c151 0 243 -35 300 -73
l-88 -127c-47 31 -134 57 -214 57c-116 0 -144 -23 -144 -77c0 -60 61 -71 179 -88c178 -26 297 -55 297 -222c0 -150 -82 -234 -329 -234z" />
    <glyph glyph-name="Tcommaaccent" unicode="&#x162;" horiz-adv-x="706" 
d="M311 -330l-34 66c60 29 70 38 70 71h-74v155h158v-110c0 -106 -15 -137 -120 -182zM271 0v593h-257v148h678v-148h-256v-593h-165z" />
    <glyph glyph-name="Tcaron" unicode="&#x164;" horiz-adv-x="706" 
d="M271 781l-155 183h147l91 -86l90 86h144l-155 -183h-162zM271 0v593h-257v148h678v-148h-256v-593h-165z" />
    <glyph glyph-name="Umacron" unicode="&#x16a;" horiz-adv-x="816" 
d="M408 -14c-313 0 -339 155 -339 297v458h164v-437c0 -110 27 -173 177 -173c149 0 178 59 178 173v437h159v-458c0 -142 -27 -297 -339 -297zM197 771v125h420v-125h-420z" />
    <glyph glyph-name="Uring" unicode="&#x16e;" horiz-adv-x="816" 
d="M407 765c-102 0 -143 63 -143 145s41 147 143 147c97 0 142 -65 142 -147s-45 -145 -142 -145zM407 842c47 0 64 30 64 68c0 39 -17 69 -64 69c-48 0 -65 -30 -65 -69c0 -38 17 -68 65 -68zM408 -14c-313 0 -339 155 -339 297v458h164v-437c0 -110 27 -173 177 -173
c149 0 178 59 178 173v437h159v-458c0 -142 -27 -297 -339 -297z" />
    <glyph glyph-name="Uhungarumlaut" unicode="&#x170;" horiz-adv-x="816" 
d="M408 -14c-313 0 -339 155 -339 297v458h164v-437c0 -110 27 -173 177 -173c149 0 178 59 178 173v437h159v-458c0 -142 -27 -297 -339 -297zM167 781l126 183h181l-176 -183h-131zM437 781l126 183h181l-176 -183h-131z" />
    <glyph glyph-name="Uogonek" unicode="&#x172;" horiz-adv-x="816" 
d="M516 -238c-114 0 -140 41 -140 106c0 54 42 96 80 120c-15 -1 -31 -2 -48 -2c-313 0 -339 155 -339 297v458h164v-437c0 -110 27 -173 177 -173s178 59 178 173v437h159v-458c0 -111 -18 -209 -136 -265c-91 -45 -128 -94 -128 -132c0 -24 11 -38 59 -38c31 0 66 9 95 21
l25 -72c-48 -22 -99 -35 -146 -35z" />
    <glyph glyph-name="Zacute" unicode="&#x179;" horiz-adv-x="692" 
d="M243 781l141 183h189l-191 -183h-139zM32 0v122l407 471h-390v148h597v-134l-401 -465h412v-142h-625z" />
    <glyph glyph-name="Zdotaccent" unicode="&#x17b;" horiz-adv-x="692" 
d="M32 0v122l407 471h-390v148h597v-134l-401 -465h412v-142h-625zM266 779v139h159v-139h-159z" />
    <glyph glyph-name="abreve" unicode="&#x103;" horiz-adv-x="645" 
d="M238 -9c-175 0 -213 76 -213 175c0 160 112 198 363 198h23c-1 51 -14 77 -112 77c-69 0 -130 -25 -164 -46l-78 115c40 27 140 69 259 69c204 0 246 -65 246 -225v-172c0 -45 3 -52 49 -52v-128c-11 -3 -31 -4 -66 -4c-60 0 -86 12 -108 56c-29 -39 -92 -63 -199 -63z
M323 605c-148 0 -192 78 -215 196l113 21c15 -68 34 -97 102 -97s87 29 102 97l114 -20c-25 -119 -69 -197 -216 -197zM269 117c99 0 142 35 142 118v21h-13c-200 0 -224 -16 -224 -77c0 -42 23 -62 95 -62z" />
    <glyph glyph-name="amacron" unicode="&#x101;" horiz-adv-x="645" 
d="M238 -9c-175 0 -213 76 -213 175c0 160 112 198 363 198h23c-1 51 -14 77 -112 77c-69 0 -130 -25 -164 -46l-78 115c40 27 140 69 259 69c204 0 246 -65 246 -225v-172c0 -45 3 -52 49 -52v-128c-11 -3 -31 -4 -66 -4c-60 0 -86 12 -108 56c-29 -39 -92 -63 -199 -63z
M113 610v125h420v-125h-420zM269 117c99 0 142 35 142 118v21h-13c-200 0 -224 -16 -224 -77c0 -42 23 -62 95 -62z" />
    <glyph glyph-name="aogonek" unicode="&#x105;" horiz-adv-x="645" 
d="M238 -9c-175 0 -213 76 -213 175c0 160 112 198 363 198h23c-1 51 -14 77 -112 77c-69 0 -130 -25 -164 -46l-78 115c40 27 140 69 259 69c204 0 246 -65 246 -225v-172c0 -45 3 -52 49 -52v-128c-71 -43 -99 -77 -99 -103c0 -24 8 -38 51 -38c28 0 57 7 77 14l29 -85
c-37 -17 -82 -28 -127 -28c-114 0 -150 41 -150 106c0 73 57 118 93 138c-10 4 -19 9 -26 16c-9 8 -16 19 -22 32c-29 -39 -92 -63 -199 -63zM269 117c99 0 142 35 142 118v21h-13c-200 0 -224 -16 -224 -77c0 -42 23 -62 95 -62z" />
    <glyph glyph-name="cacute" unicode="&#x107;" horiz-adv-x="587" 
d="M190 620l141 183h189l-191 -183h-139zM325 -9c-234 0 -290 127 -290 293c0 164 53 295 297 295c102 0 178 -34 230 -92l-110 -104c-24 25 -56 52 -120 52c-112 0 -139 -61 -139 -155s25 -157 140 -157c53 0 88 17 128 55l100 -96c-66 -61 -122 -91 -236 -91z" />
    <glyph glyph-name="ccaron" unicode="&#x10d;" horiz-adv-x="587" 
d="M212 620l-155 183h147l91 -86l90 86h144l-155 -183h-162zM325 -9c-234 0 -290 127 -290 293c0 164 53 295 297 295c102 0 178 -34 230 -92l-110 -104c-24 25 -56 52 -120 52c-112 0 -139 -61 -139 -155s25 -157 140 -157c53 0 88 17 128 55l100 -96
c-66 -61 -122 -91 -236 -91z" />
    <glyph glyph-name="dcaron" unicode="&#x10f;" horiz-adv-x="837" 
d="M715 484l-34 67c60 28 70 37 70 70h-66v155h150v-110c0 -105 -15 -136 -120 -182zM281 -11c-195 0 -246 134 -246 297c0 162 53 293 251 293c103 0 152 -23 176 -53v250h157v-770l-120 -11l-16 57c-34 -40 -93 -63 -202 -63zM318 124c108 0 144 53 144 162
c0 107 -30 152 -144 152c-103 0 -124 -62 -124 -152c0 -91 21 -162 124 -162z" />
    <glyph glyph-name="dcroat" unicode="&#x111;" horiz-adv-x="681" 
d="M347 603v123h115v50h157v-50h62v-123h-62v-597l-120 -11l-16 57c-34 -40 -93 -63 -202 -63c-195 0 -246 134 -246 297c0 162 53 293 251 293c103 0 152 -23 176 -53v77h-115zM318 124c108 0 144 53 144 162c0 107 -30 152 -144 152c-103 0 -124 -62 -124 -152
c0 -91 21 -162 124 -162z" />
    <glyph glyph-name="emacron" unicode="&#x113;" horiz-adv-x="619" 
d="M330 -11c-245 0 -295 134 -295 295c0 158 52 295 294 295c249 0 257 -166 252 -355h-394c9 -68 42 -108 143 -108c87 0 136 21 178 52l79 -102c-73 -55 -145 -77 -257 -77zM99 610v125h420v-125h-420zM324 448c-97 0 -129 -43 -137 -112h251c-4 65 -17 112 -114 112z" />
    <glyph glyph-name="edotaccent" unicode="&#x117;" horiz-adv-x="619" 
d="M330 -11c-245 0 -295 134 -295 295c0 158 52 295 294 295c249 0 257 -166 252 -355h-394c9 -68 42 -108 143 -108c87 0 136 21 178 52l79 -102c-73 -55 -145 -77 -257 -77zM324 448c-97 0 -129 -43 -137 -112h251c-4 65 -17 112 -114 112zM229 618v139h159v-139h-159z
" />
    <glyph glyph-name="eogonek" unicode="&#x119;" horiz-adv-x="619" 
d="M411 -238c-114 0 -150 41 -150 106c0 55 32 96 64 121c-241 2 -290 135 -290 295c0 158 52 295 294 295c249 0 257 -166 252 -355h-394c9 -68 42 -108 143 -108c87 0 136 21 178 52l79 -102c-35 -26 -69 -45 -108 -57h1c-71 -43 -99 -84 -99 -110c0 -24 8 -38 51 -38
c28 0 67 8 87 15l29 -85c-37 -17 -92 -29 -137 -29zM324 448c-97 0 -129 -43 -137 -112h251c-4 65 -17 112 -114 112z" />
    <glyph glyph-name="ecaron" unicode="&#x11b;" horiz-adv-x="619" 
d="M330 -11c-245 0 -295 134 -295 295c0 158 52 295 294 295c249 0 257 -166 252 -355h-394c9 -68 42 -108 143 -108c87 0 136 21 178 52l79 -102c-73 -55 -145 -77 -257 -77zM228 620l-155 183h147l91 -86l90 86h144l-155 -183h-162zM324 448c-97 0 -129 -43 -137 -112h251
c-4 65 -17 112 -114 112z" />
    <glyph glyph-name="gbreve" unicode="&#x11f;" horiz-adv-x="652" 
d="M313 208c-27 0 -52 1 -75 3c-3 -6 -5 -13 -5 -20c0 -27 17 -31 93 -31c234 0 293 -35 293 -155c0 -136 -99 -184 -308 -184c-216 0 -294 24 -294 138c0 64 34 110 111 127c-30 21 -34 50 -34 80c0 32 9 58 28 79c-50 29 -73 76 -73 142c0 124 77 192 264 192
c10 0 20 0 31 -1l252 50v-119h-81c39 -21 63 -56 63 -122c0 -124 -80 -179 -265 -179zM325 605c-148 0 -192 78 -215 196l113 21c15 -68 34 -97 102 -97s87 29 102 97l114 -20c-25 -119 -69 -197 -216 -197zM317 -71c115 0 142 23 142 65c0 41 -32 52 -142 52
c-126 0 -142 -21 -142 -59c0 -41 27 -58 142 -58zM313 312c86 0 111 25 111 73c0 49 -28 73 -111 73c-85 0 -111 -24 -111 -73c0 -48 26 -73 111 -73z" />
    <glyph glyph-name="gcommaaccent" unicode="&#x123;" horiz-adv-x="652" 
d="M313 208c-27 0 -52 1 -75 3c-3 -6 -5 -13 -5 -20c0 -27 17 -31 93 -31c234 0 293 -35 293 -155c0 -136 -99 -184 -308 -184c-216 0 -294 24 -294 138c0 64 34 110 111 127c-30 21 -34 50 -34 80c0 32 9 58 28 79c-50 29 -73 76 -73 142c0 124 77 192 264 192
c10 0 20 0 31 -1l252 50v-119h-81c39 -21 63 -56 63 -122c0 -124 -80 -179 -265 -179zM246 619v96c0 105 16 136 122 182l32 -66c-59 -29 -69 -38 -69 -71h73v-141h-158zM317 -71c115 0 142 23 142 65c0 41 -32 52 -142 52c-126 0 -142 -21 -142 -59c0 -41 27 -58 142 -58z
M313 312c86 0 111 25 111 73c0 49 -28 73 -111 73c-85 0 -111 -24 -111 -73c0 -48 26 -73 111 -73z" />
    <glyph glyph-name="imacron" unicode="&#x12b;" horiz-adv-x="293" 
d="M68 0v566h156v-566h-156zM-63 610v125h420v-125h-420z" />
    <glyph glyph-name="iogonek" unicode="&#x12f;" horiz-adv-x="293" 
d="M68 0v566h156v-566c-71 -43 -99 -75 -99 -101c0 -24 8 -38 51 -38c28 0 57 7 77 14l29 -85c-37 -17 -82 -28 -127 -28c-114 0 -150 41 -150 106c0 67 47 110 83 132h-20zM67 618v143h158v-143h-158z" />
    <glyph glyph-name="kcommaaccent" unicode="&#x137;" horiz-adv-x="605" 
d="M62 0v776h155v-444l193 234h171l-190 -231l207 -335h-174l-139 218l-68 -81v-137h-155zM260 -330l-34 66c60 29 70 38 70 71h-74v155h158v-110c0 -106 -15 -137 -120 -182z" />
    <glyph glyph-name="lacute" unicode="&#x13a;" horiz-adv-x="341" 
d="M223 -2c-102 0 -155 39 -155 173v605h156v-586c0 -46 9 -59 56 -59h19v-129c-13 -2 -44 -4 -76 -4zM72 816l141 183h189l-191 -183h-139z" />
    <glyph glyph-name="lcommaaccent" unicode="&#x13c;" horiz-adv-x="341" 
d="M223 -2c-102 0 -155 39 -155 173v605h156v-586c0 -46 9 -59 56 -59h19v-129c-13 -2 -44 -4 -76 -4zM129 -330l-34 66c60 29 70 38 70 71h-74v155h158v-110c0 -106 -15 -137 -120 -182z" />
    <glyph glyph-name="lcaron" unicode="&#x13e;" horiz-adv-x="443" 
d="M223 -2c-102 0 -155 39 -155 173v605h156v-586c0 -46 9 -59 56 -59h19v-129c-13 -2 -44 -4 -76 -4zM322 484l-34 67c60 28 70 37 70 70h-66v155h150v-110c0 -105 -15 -136 -120 -182z" />
    <glyph glyph-name="nacute" unicode="&#x144;" horiz-adv-x="664" 
d="M228 620l141 183h189l-191 -183h-139zM62 0v557l122 9l13 -49c30 33 85 62 205 62c171 0 203 -95 203 -236v-343h-156v312c0 69 -8 119 -103 119c-109 0 -127 -51 -127 -126v-305h-157z" />
    <glyph glyph-name="ncommaaccent" unicode="&#x146;" horiz-adv-x="664" 
d="M290 -330l-34 66c60 29 70 38 70 71h-74v155h158v-110c0 -106 -15 -137 -120 -182zM62 0v557l122 9l13 -49c30 33 85 62 205 62c171 0 203 -95 203 -236v-343h-156v312c0 69 -8 119 -103 119c-109 0 -127 -51 -127 -126v-305h-157z" />
    <glyph glyph-name="ncaron" unicode="&#x148;" horiz-adv-x="664" 
d="M250 620l-155 183h147l91 -86l90 86h144l-155 -183h-162zM62 0v557l122 9l13 -49c30 33 85 62 205 62c171 0 203 -95 203 -236v-343h-156v312c0 69 -8 119 -103 119c-109 0 -127 -51 -127 -126v-305h-157z" />
    <glyph glyph-name="omacron" unicode="&#x14d;" horiz-adv-x="661" 
d="M120 610v125h420v-125h-420zM331 -11c-213 0 -296 105 -296 295s83 295 296 295s295 -105 295 -295s-82 -295 -295 -295zM331 123c108 0 138 61 138 157s-30 156 -138 156c-109 0 -138 -60 -138 -156s29 -157 138 -157z" />
    <glyph glyph-name="ohungarumlaut" unicode="&#x151;" horiz-adv-x="661" 
d="M90 620l126 183h181l-176 -183h-131zM360 620l126 183h181l-176 -183h-131zM331 -11c-213 0 -296 105 -296 295s83 295 296 295s295 -105 295 -295s-82 -295 -295 -295zM331 123c108 0 138 61 138 157s-30 156 -138 156c-109 0 -138 -60 -138 -156s29 -157 138 -157z" />
    <glyph glyph-name="racute" unicode="&#x155;" horiz-adv-x="404" 
d="M101 620l141 183h189l-191 -183h-139zM62 0v557l122 9l16 -62c24 36 93 65 181 68v-150c-133 -1 -162 -53 -162 -142v-280h-157z" />
    <glyph glyph-name="rcommaaccent" unicode="&#x157;" horiz-adv-x="404" 
d="M99 -330l-34 66c60 29 70 38 70 71h-74v155h158v-110c0 -106 -15 -137 -120 -182zM62 0v557l122 9l16 -62c24 36 93 65 181 68v-150c-133 -1 -162 -53 -162 -142v-280h-157z" />
    <glyph glyph-name="rcaron" unicode="&#x159;" horiz-adv-x="397" 
d="M118 620l-155 183h147l91 -86l90 86h144l-155 -183h-162zM62 0v557l122 9l16 -62c24 36 93 65 181 68v-150c-133 -1 -162 -53 -162 -142v-280h-157z" />
    <glyph glyph-name="sacute" unicode="&#x15b;" horiz-adv-x="573" 
d="M184 620l141 183h189l-191 -183h-139zM280 -9c-97 0 -194 20 -270 71l80 115c59 -38 136 -59 200 -59c79 0 102 8 102 47c0 33 -23 40 -100 50c-140 19 -247 39 -247 187c0 115 68 177 247 177c91 0 179 -18 239 -52l-75 -122c-40 21 -102 37 -159 37
c-80 0 -96 -14 -96 -41c0 -32 20 -39 93 -49c144 -20 251 -37 251 -178c0 -130 -70 -183 -265 -183z" />
    <glyph glyph-name="scedilla" unicode="&#x15f;" horiz-adv-x="573" 
d="M287 -249c-55 0 -98 13 -134 33l39 73c30 -15 62 -24 89 -24c48 0 63 12 63 41c0 35 -36 39 -88 35l-30 19l14 65c-84 5 -165 25 -230 69l80 115c59 -38 136 -59 200 -59c79 0 102 8 102 47c0 33 -23 40 -100 50c-140 19 -247 39 -247 187c0 115 68 177 247 177
c91 0 179 -18 239 -52l-75 -122c-40 21 -102 37 -159 37c-80 0 -96 -14 -96 -41c0 -32 20 -39 93 -49c144 -20 251 -37 251 -178c0 -119 -58 -174 -217 -182l-6 -34c62 2 125 -4 125 -95c0 -85 -63 -112 -160 -112z" />
    <glyph glyph-name="scommaaccent" unicode="&#x219;" horiz-adv-x="573" 
d="M244 -330l-34 66c60 29 70 38 70 71h-74v155h158v-110c0 -106 -15 -137 -120 -182zM280 -9c-97 0 -194 20 -270 71l80 115c59 -38 136 -59 200 -59c79 0 102 8 102 47c0 33 -23 40 -100 50c-140 19 -247 39 -247 187c0 115 68 177 247 177c91 0 179 -18 239 -52l-75 -122
c-40 21 -102 37 -159 37c-80 0 -96 -14 -96 -41c0 -32 20 -39 93 -49c144 -20 251 -37 251 -178c0 -130 -70 -183 -265 -183z" />
    <glyph glyph-name="tcommaaccent" unicode="&#x163;" horiz-adv-x="453" 
d="M25 432v134h100l27 138l122 25v-163h134v-134h-134v-233c0 -44 6 -68 73 -68h61v-131c-23 -2 -65 -2 -93 -2c-153 0 -197 52 -197 178v256h-93zM160 -330l-34 66c60 29 70 38 70 71h-74v155h158v-110c0 -106 -15 -137 -120 -182z" />
    <glyph glyph-name="tcaron" unicode="&#x165;" horiz-adv-x="453" 
d="M25 432v134h100l27 138l122 25v-163h134v-134h-134v-233c0 -44 6 -68 73 -68h61v-131c-23 -2 -65 -2 -93 -2c-153 0 -197 52 -197 178v256h-93zM360 634l-32 63c56 28 67 36 67 69h-63v147h142v-105c0 -101 -14 -130 -114 -174z" />
    <glyph glyph-name="umacron" unicode="&#x16b;" horiz-adv-x="656" 
d="M329 -9c-216 0 -270 79 -270 273v302h157v-305c0 -79 2 -134 114 -134c111 0 113 56 113 135v304h154v-301c0 -194 -52 -274 -268 -274zM118 610v125h420v-125h-420z" />
    <glyph glyph-name="uring" unicode="&#x16f;" horiz-adv-x="656" 
d="M328 604c-102 0 -143 63 -143 145s41 147 143 147c97 0 142 -65 142 -147s-45 -145 -142 -145zM328 681c47 0 64 30 64 68c0 39 -17 69 -64 69c-48 0 -65 -30 -65 -69c0 -38 17 -68 65 -68zM329 -9c-216 0 -270 79 -270 273v302h157v-305c0 -79 2 -134 114 -134
c111 0 113 56 113 135v304h154v-301c0 -194 -52 -274 -268 -274z" />
    <glyph glyph-name="uhungarumlaut" unicode="&#x171;" horiz-adv-x="656" 
d="M329 -9c-216 0 -270 79 -270 273v302h157v-305c0 -79 2 -134 114 -134c111 0 113 56 113 135v304h154v-301c0 -194 -52 -274 -268 -274zM88 620l126 183h181l-176 -183h-131zM358 620l126 183h181l-176 -183h-131z" />
    <glyph glyph-name="uogonek" unicode="&#x173;" horiz-adv-x="656" 
d="M410 -238c-114 0 -140 41 -140 106c0 56 44 97 83 122c-5 -1 -19 -1 -25 -1c-216 0 -269 81 -269 275v302h157v-305c0 -79 2 -134 114 -134c111 0 113 56 113 135v304h154v-301c0 -143 -27 -212 -116 -258c-65 -34 -104 -83 -104 -121c0 -24 11 -38 59 -38
c31 0 66 9 95 21l25 -72c-48 -22 -99 -35 -146 -35z" />
    <glyph glyph-name="zacute" unicode="&#x17a;" horiz-adv-x="540" 
d="M168 620l141 183h189l-191 -183h-139zM20 0v105l281 327h-265v134h476v-107l-283 -333h294v-126h-503z" />
    <glyph glyph-name="zdotaccent" unicode="&#x17c;" horiz-adv-x="540" 
d="M20 0v105l281 327h-265v134h476v-107l-283 -333h294v-126h-503zM191 618v139h159v-139h-159z" />
    <glyph glyph-name="space.lftab" horiz-adv-x="375" 
 />
    <glyph glyph-name="comma.lftab" horiz-adv-x="375" 
d="M139 -156l-38 76c69 33 81 42 81 80h-85v180h182v-128c0 -120 -18 -156 -140 -208z" />
    <glyph glyph-name="period.lftab" horiz-adv-x="375" 
d="M97 0v180h182v-180h-182z" />
    <glyph glyph-name="minus.lftab" 
d="M107 282v141h536v-141h-536z" />
    <glyph glyph-name="multiply.lftab" 
d="M225 104l-95 99l149 149l-149 149l97 99l149 -149l148 149l96 -99l-149 -149l149 -148l-96 -99l-148 149z" />
    <glyph glyph-name="quotedbl.lftab" 
d="M181 398l-10 343h163l-9 -343h-144zM425 398l-10 343h164l-10 -343h-144z" />
    <glyph glyph-name="numbersign.lftab" 
d="M105 0l34 178h-109v136h135l16 88h-151v137h178l39 202h150l-40 -202h99l39 202h149l-38 -202h115v-137h-141l-16 -88h157v-136h-184l-34 -178h-150l34 178h-98l-34 -178h-150zM301 306h123l20 105h-123z" />
    <glyph glyph-name="dollar.lftab" 
d="M305 -94v96c-86 8 -173 31 -240 77l66 109c78 -48 153 -64 235 -64c121 0 152 34 152 92c0 68 -46 81 -160 97c-128 19 -259 42 -259 211c0 134 70 199 206 214v74h144v-73c85 -8 142 -32 184 -56l-67 -116c-43 27 -123 45 -189 45c-104 0 -127 -30 -127 -79
c0 -68 56 -77 168 -95c128 -20 249 -47 249 -210c0 -124 -63 -204 -218 -224v-98h-144z" />
    <glyph glyph-name="percent.lftab" horiz-adv-x="1160" 
d="M255 258c-143 0 -212 74 -212 246c0 171 69 245 212 245c142 0 213 -74 213 -245c0 -172 -71 -246 -213 -246zM255 370c60 0 79 38 79 129s-19 130 -79 130c-59 0 -77 -39 -77 -130s18 -129 77 -129zM904 -8c-143 0 -212 74 -212 246c0 171 69 245 212 245
c142 0 213 -74 213 -245c0 -172 -71 -246 -213 -246zM904 104c60 0 79 39 79 129c0 91 -19 130 -79 130c-59 0 -77 -39 -77 -130c0 -90 18 -129 77 -129zM327 0l367 741h140l-366 -741h-141z" />
    <glyph glyph-name="quotesingle.lftab" 
d="M302 398l-10 344h163l-9 -344h-144z" />
    <glyph glyph-name="plus.lftab" 
d="M297 92v190h-190v141h190v189h156v-189h190v-141h-190v-190h-156z" />
    <glyph glyph-name="zero.lftab" 
d="M376 -11c-238 0 -325 133 -325 382c0 250 87 382 325 382c234 0 323 -132 323 -382c0 -249 -89 -382 -323 -382zM376 125c129 0 161 90 161 246c0 157 -32 239 -161 239c-130 0 -163 -82 -163 -239c0 -156 33 -246 163 -246z" />
    <glyph glyph-name="one.lftab" 
d="M160 0v130h168v470h-168v141h323v-611h158v-130h-481z" />
    <glyph glyph-name="two.lftab" 
d="M85 0v123l242 209c112 97 151 134 151 198c0 59 -26 86 -127 86c-72 0 -156 -21 -201 -46l-71 121c79 41 148 62 288 62c177 0 267 -58 267 -208c0 -113 -55 -181 -174 -283l-153 -132h335v-130h-557z" />
    <glyph glyph-name="three.lftab" 
d="M364 -12c-138 0 -222 26 -310 80l73 118c76 -43 146 -67 229 -67c101 0 142 22 142 108c0 75 -32 102 -152 102h-130v132h128c100 0 133 18 133 82c0 59 -28 76 -124 76c-70 0 -153 -21 -201 -51l-80 115c74 46 183 70 296 70c171 0 263 -45 263 -178
c0 -103 -27 -148 -88 -170c75 -20 108 -67 108 -190c0 -181 -119 -227 -287 -227z" />
    <glyph glyph-name="four.lftab" 
d="M59 152v117l325 472h168l-321 -463h208l32 211h110v-211h118v-126h-118v-152h-144v152h-378z" />
    <glyph glyph-name="five.lftab" 
d="M372 -11c-140 0 -232 38 -298 80l73 118c60 -33 131 -68 221 -68c84 0 153 14 153 123c0 107 -65 124 -148 124c-59 0 -99 -8 -137 -26l-131 39l19 362h496v-134h-363l-8 -139c33 16 92 27 163 27c141 0 266 -31 266 -248c0 -220 -128 -258 -306 -258z" />
    <glyph glyph-name="six.lftab" 
d="M393 -11c-233 0 -325 111 -325 331c0 304 87 421 456 421h69v-134h-74c-275 0 -287 -86 -295 -173c34 46 103 68 221 68c191 0 249 -92 249 -249c0 -166 -78 -264 -301 -264zM394 117c123 0 147 51 147 130c0 80 -31 131 -146 131c-107 0 -164 -40 -164 -123
c0 -100 54 -138 163 -138z" />
    <glyph glyph-name="seven.lftab" 
d="M210 0l262 607h-381v134h553v-114l-269 -627h-165z" />
    <glyph glyph-name="eight.lftab" 
d="M374 -16c-242 0 -319 102 -319 225c0 88 27 167 119 197c-78 31 -94 89 -94 157c0 100 56 190 294 190c240 0 295 -91 295 -190c0 -68 -18 -129 -95 -157c94 -30 121 -109 121 -197c0 -123 -78 -225 -321 -225zM374 110c119 0 162 43 162 112c0 71 -43 113 -162 113
s-160 -42 -160 -113c0 -69 41 -112 160 -112zM374 454c110 0 142 34 142 88c0 53 -32 86 -142 86s-141 -33 -141 -86c0 -54 31 -88 141 -88z" />
    <glyph glyph-name="nine.lftab" 
d="M164 0v130h75c279 0 288 88 295 174c-34 -46 -103 -67 -221 -67c-191 0 -249 99 -249 249c0 166 78 267 301 267c233 0 325 -111 325 -331c0 -304 -86 -422 -456 -422h-70zM363 358c107 0 164 39 164 122c0 100 -54 138 -162 138c-124 0 -148 -50 -148 -130
s32 -130 146 -130z" />
    <glyph glyph-name="less.lftab" 
d="M586 63l-461 230v107l461 228v-141l-297 -140l297 -141v-143z" />
    <glyph glyph-name="equal.lftab" 
d="M113 161v140h525v-140h-525zM113 404v139h525v-139h-525z" />
    <glyph glyph-name="greater.lftab" 
d="M164 63v143l298 139l-298 141v142l462 -229v-108z" />
    <glyph glyph-name="degree.lftab" 
d="M374 267c-168 0 -240 110 -240 243s72 243 240 243s241 -110 241 -243s-73 -243 -241 -243zM374 381c87 0 116 55 116 125s-29 125 -116 125s-115 -55 -115 -125s28 -125 115 -125z" />
    <glyph glyph-name="cent.lftab" 
d="M329 -94v93c-169 25 -211 140 -211 285c0 141 40 258 211 285v69h149v-68c67 -11 120 -40 159 -83l-105 -100c-24 25 -57 51 -120 51c-111 0 -142 -62 -142 -158c0 -95 30 -160 143 -160c52 0 88 15 128 53l95 -91c-49 -44 -92 -72 -158 -82v-94h-149z" />
    <glyph glyph-name="sterling.lftab" 
d="M468 -7c-71 0 -140 22 -194 52c-44 -29 -110 -45 -207 -45v127c134 0 139 26 139 89c0 26 -9 62 -20 102h-122v120h88c-9 38 -16 75 -16 108c0 122 60 208 260 208c88 0 157 -13 225 -40l-60 -130c-49 22 -120 30 -169 30c-84 0 -101 -35 -101 -90c0 -23 5 -53 13 -86
h186v-120h-157c8 -36 14 -70 14 -98c0 -25 -2 -49 -7 -70c37 -15 79 -26 124 -26c70 0 81 25 81 89v29h136v-35c0 -160 -63 -214 -213 -214z" />
    <glyph glyph-name="section.lftab" 
d="M238 -5c-41 0 -56 1 -75 2v122h55c71 0 78 25 78 70v19c-110 15 -162 66 -162 159c0 91 50 144 157 161v16c0 114 29 201 215 201c41 0 56 -1 75 -2v-128h-55c-71 0 -79 -25 -79 -70v-16c114 -15 169 -68 169 -162c0 -92 -53 -144 -163 -159v-12
c0 -114 -29 -201 -215 -201zM374 302c85 0 116 19 116 61c0 43 -31 61 -116 61c-84 0 -114 -18 -114 -61c0 -42 30 -61 114 -61z" />
    <glyph glyph-name="yen.lftab" 
d="M107 229v110h183l-248 402h167l165 -282l166 282h166l-248 -402h182v-110h-189v-58h189v-110h-189v-61h-155v61h-189v110h189v58h-189z" />
    <glyph glyph-name="ordfeminine.lftab" 
d="M287 276c-129 0 -163 63 -163 142c0 130 94 163 295 163h17c-2 40 -13 59 -89 59c-55 0 -105 -20 -132 -37l-64 94c33 22 114 55 210 55c165 0 198 -52 198 -182v-137c0 -37 4 -43 41 -43v-106c-10 -1 -25 -3 -53 -3c-53 0 -84 10 -96 53c-24 -39 -58 -58 -164 -58z
M168 116v111h391v-111h-391zM321 379c77 0 115 28 115 95v19h-9c-157 0 -181 -15 -181 -64c0 -34 18 -50 75 -50z" />
    <glyph glyph-name="ordmasculine.lftab" 
d="M375 276c-170 0 -240 85 -240 239s70 238 240 238c168 0 239 -84 239 -238s-71 -239 -239 -239zM375 386c82 0 110 48 110 125s-28 125 -110 125s-110 -48 -110 -125s28 -125 110 -125zM164 114v112h421v-112h-421z" />
    <glyph glyph-name="florin.lftab" 
d="M151 327v135h136l24 110c20 100 54 169 231 169h56v-140h-47c-70 0 -84 -29 -93 -76l-14 -63h154v-135h-183l-105 -493h-157l105 493h-107z" />
    <glyph glyph-name="divide.lftab" 
d="M296 79v135h158v-135h-158zM107 282v141h536v-141h-536zM296 491v135h158v-135h-158z" />
    <glyph glyph-name="fraction.lftab" 
d="M98 0l415 741h139l-416 -741h-138z" />
    <glyph glyph-name="Euro.lftab" 
d="M45 394v109h124c29 167 123 250 298 250c114 0 162 -16 216 -43l-69 -129c-36 19 -85 32 -143 32c-92 0 -133 -41 -150 -110h212v-109h-223v-19v-39h223v-110h-206c20 -66 62 -104 142 -104c48 0 99 9 146 38l73 -118c-59 -36 -122 -54 -227 -54c-171 0 -259 89 -289 238
h-127v110h114v36v22h-114z" />
    <glyph glyph-name="perthousand.lftab" horiz-adv-x="1640" 
d="M265 258c-142 0 -211 74 -211 246c0 171 69 245 211 245c143 0 214 -74 214 -245c0 -172 -71 -246 -214 -246zM266 370c60 0 79 38 79 129s-19 130 -79 130c-59 0 -77 -39 -77 -130s18 -129 77 -129zM915 -8c-143 0 -212 74 -212 246c0 171 69 245 212 245
c142 0 213 -74 213 -245c0 -172 -71 -246 -213 -246zM915 104c60 0 79 39 79 129c0 91 -19 130 -79 130c-59 0 -77 -39 -77 -130c0 -90 18 -129 77 -129zM1375 -8c-143 0 -211 74 -211 246c0 171 68 245 211 245s213 -74 213 -245c0 -172 -70 -246 -213 -246zM1376 104
c60 0 78 39 78 129c0 91 -18 130 -78 130s-78 -39 -78 -130c0 -90 18 -129 78 -129zM338 0l367 741h140l-367 -741h-140z" />
    <glyph glyph-name="zero.superior" horiz-adv-x="598" 
d="M299 248c-156 0 -218 86 -218 252c0 165 62 250 218 250c154 0 218 -85 218 -250c0 -166 -64 -252 -218 -252zM299 350c82 0 98 51 98 150c0 97 -16 144 -98 144c-81 0 -98 -47 -98 -144c0 -99 17 -150 98 -150z" />
    <glyph glyph-name="one.superior" horiz-adv-x="375" 
d="M144 254v382h-84v105h207v-487h-123z" />
    <glyph glyph-name="two.superior" horiz-adv-x="513" 
d="M62 254v84l155 133c82 70 97 85 97 125c0 32 -16 51 -81 51c-46 0 -96 -14 -125 -30l-54 91c52 27 102 41 195 41c119 0 184 -38 184 -139c0 -76 -38 -117 -121 -188l-79 -71h204v-97h-375z" />
    <glyph glyph-name="three.superior" horiz-adv-x="525" 
d="M255 248c-97 0 -154 18 -212 55l60 86c44 -26 85 -40 140 -40c67 0 91 11 91 62c0 44 -21 56 -98 56h-86v95h84c64 0 86 4 86 42c0 35 -21 42 -80 42c-55 0 -103 -15 -133 -33l-56 90c48 30 124 47 207 47c134 0 184 -41 184 -118c0 -59 -20 -92 -62 -108
c50 -15 75 -51 75 -127c0 -105 -66 -149 -200 -149z" />
    <glyph glyph-name="four.superior" horiz-adv-x="554" 
d="M62 342v90l212 309h129l-210 -304h115l22 123h92v-123h75v-95h-75v-88h-115v88h-245z" />
    <glyph glyph-name="five.superior" horiz-adv-x="539" 
d="M270 248c-95 0 -164 26 -208 53l63 91c38 -21 82 -42 136 -42c69 0 98 9 98 69c0 58 -28 69 -96 69c-36 0 -57 -4 -81 -15l-91 26l13 242h334v-101h-234l-5 -71c25 9 59 14 97 14c94 0 182 -18 182 -164c0 -147 -82 -171 -208 -171z" />
    <glyph glyph-name="six.superior" horiz-adv-x="572" 
d="M299 248c-155 0 -221 73 -221 219c0 197 71 274 298 274h48v-101h-51c-148 0 -172 -41 -179 -97c23 29 65 42 140 42c127 0 170 -59 170 -163c0 -109 -57 -174 -205 -174zM299 340c76 0 87 30 87 79c0 47 -15 78 -86 78c-66 0 -97 -23 -97 -74c0 -60 29 -83 96 -83z" />
    <glyph glyph-name="seven.superior" horiz-adv-x="477" 
d="M126 254l165 382h-245v105h374v-103l-164 -384h-130z" />
    <glyph glyph-name="eight.superior" horiz-adv-x="582" 
d="M290 247c-164 0 -217 68 -217 149c0 57 15 106 77 128c-52 23 -61 59 -61 103c0 66 39 125 201 125c163 0 202 -60 202 -125c0 -44 -8 -82 -62 -104c65 -21 79 -71 79 -127c0 -81 -54 -149 -219 -149zM290 338c73 0 98 26 98 68c0 43 -25 69 -98 69
c-72 0 -96 -26 -96 -69c0 -42 24 -68 96 -68zM290 556c68 0 85 20 85 54c0 32 -17 51 -85 51s-83 -19 -83 -51c0 -34 15 -54 83 -54z" />
    <glyph glyph-name="nine.superior" horiz-adv-x="572" 
d="M155 254v99h51c148 0 172 46 179 102c-23 -29 -65 -42 -140 -42c-127 0 -170 59 -170 163c0 109 57 174 205 174c155 0 221 -73 221 -219c0 -198 -71 -277 -298 -277h-48zM279 496c66 0 97 22 97 73c0 61 -29 84 -96 84c-76 0 -87 -31 -87 -79s15 -78 86 -78z" />
    <glyph glyph-name="zero.inferior" horiz-adv-x="598" 
d="M299 -6c-156 0 -218 86 -218 252c0 165 62 250 218 250c154 0 218 -85 218 -250c0 -166 -64 -252 -218 -252zM299 96c82 0 98 51 98 150c0 97 -16 144 -98 144c-81 0 -98 -47 -98 -144c0 -99 17 -150 98 -150z" />
    <glyph glyph-name="one.inferior" horiz-adv-x="375" 
d="M144 0v382h-84v105h207v-487h-123z" />
    <glyph glyph-name="two.inferior" horiz-adv-x="513" 
d="M62 0v84l155 133c82 70 97 85 97 125c0 32 -16 51 -81 51c-46 0 -96 -14 -125 -30l-54 91c52 27 102 41 195 41c119 0 184 -38 184 -139c0 -76 -38 -117 -121 -188l-79 -71h204v-97h-375z" />
    <glyph glyph-name="three.inferior" horiz-adv-x="525" 
d="M255 -6c-97 0 -154 18 -212 55l60 86c44 -26 85 -40 140 -40c67 0 91 11 91 62c0 44 -21 56 -98 56h-86v95h84c64 0 86 4 86 42c0 35 -21 42 -80 42c-55 0 -103 -15 -133 -33l-56 90c48 30 124 47 207 47c134 0 184 -41 184 -118c0 -59 -20 -92 -62 -108
c50 -15 75 -51 75 -127c0 -105 -66 -149 -200 -149z" />
    <glyph glyph-name="four.inferior" horiz-adv-x="554" 
d="M62 88v90l212 309h129l-210 -304h115l22 123h92v-123h75v-95h-75v-88h-115v88h-245z" />
    <glyph glyph-name="five.inferior" horiz-adv-x="539" 
d="M270 -6c-95 0 -164 26 -208 53l63 91c38 -21 82 -42 136 -42c69 0 98 9 98 69c0 58 -28 69 -96 69c-36 0 -57 -4 -81 -15l-91 26l13 242h334v-101h-234l-5 -71c25 9 59 14 97 14c94 0 182 -18 182 -164c0 -147 -82 -171 -208 -171z" />
    <glyph glyph-name="six.inferior" horiz-adv-x="572" 
d="M299 -6c-155 0 -221 73 -221 219c0 197 71 274 298 274h48v-101h-51c-148 0 -172 -41 -179 -97c23 29 65 42 140 42c127 0 170 -59 170 -163c0 -109 -57 -174 -205 -174zM299 86c76 0 87 30 87 79c0 47 -15 78 -86 78c-66 0 -97 -23 -97 -74c0 -60 29 -83 96 -83z" />
    <glyph glyph-name="seven.inferior" horiz-adv-x="477" 
d="M126 0l165 382h-245v105h374v-103l-164 -384h-130z" />
    <glyph glyph-name="eight.inferior" horiz-adv-x="582" 
d="M290 -7c-164 0 -217 68 -217 149c0 57 15 106 77 128c-52 23 -61 59 -61 103c0 66 39 125 201 125c163 0 202 -60 202 -125c0 -44 -8 -82 -62 -104c65 -21 79 -71 79 -127c0 -81 -54 -149 -219 -149zM290 84c73 0 98 26 98 68c0 43 -25 69 -98 69c-72 0 -96 -26 -96 -69
c0 -42 24 -68 96 -68zM290 302c68 0 85 20 85 54c0 32 -17 51 -85 51s-83 -19 -83 -51c0 -34 15 -54 83 -54z" />
    <glyph glyph-name="nine.inferior" horiz-adv-x="572" 
d="M155 0v99h51c148 0 172 46 179 102c-23 -29 -65 -42 -140 -42c-127 0 -170 59 -170 163c0 109 57 174 205 174c155 0 221 -73 221 -219c0 -198 -71 -277 -298 -277h-48zM279 242c66 0 97 22 97 73c0 61 -29 84 -96 84c-76 0 -87 -31 -87 -79s15 -78 86 -78z" />
    <glyph glyph-name="zero.numerator" horiz-adv-x="538" 
d="M269 248c-156 0 -218 86 -218 252c0 165 62 250 218 250c154 0 218 -85 218 -250c0 -166 -64 -252 -218 -252zM269 350c82 0 98 51 98 150c0 97 -16 144 -98 144c-81 0 -98 -47 -98 -144c0 -99 17 -150 98 -150z" />
    <glyph glyph-name="one.numerator" horiz-adv-x="315" 
d="M114 254v382h-84v105h207v-487h-123z" />
    <glyph glyph-name="two.numerator" horiz-adv-x="453" 
d="M32 254v84l155 133c82 70 97 85 97 125c0 32 -16 51 -81 51c-46 0 -96 -14 -125 -30l-54 91c52 27 102 41 195 41c119 0 184 -38 184 -139c0 -76 -38 -117 -121 -188l-79 -71h204v-97h-375z" />
    <glyph glyph-name="three.numerator" horiz-adv-x="465" 
d="M225 248c-97 0 -154 18 -212 55l60 86c44 -26 85 -40 140 -40c67 0 91 11 91 62c0 44 -21 56 -98 56h-86v95h84c64 0 86 4 86 42c0 35 -21 42 -80 42c-55 0 -103 -15 -133 -33l-56 90c48 30 124 47 207 47c134 0 184 -41 184 -118c0 -59 -20 -92 -62 -108
c50 -15 75 -51 75 -127c0 -105 -66 -149 -200 -149z" />
    <glyph glyph-name="four.numerator" horiz-adv-x="494" 
d="M32 342v90l212 309h129l-210 -304h115l22 123h92v-123h75v-95h-75v-88h-115v88h-245z" />
    <glyph glyph-name="five.numerator" horiz-adv-x="479" 
d="M240 248c-95 0 -164 26 -208 53l63 91c38 -21 82 -42 136 -42c69 0 98 9 98 69c0 58 -28 69 -96 69c-36 0 -57 -4 -81 -15l-91 26l13 242h334v-101h-234l-5 -71c25 9 59 14 97 14c94 0 182 -18 182 -164c0 -147 -82 -171 -208 -171z" />
    <glyph glyph-name="six.numerator" horiz-adv-x="512" 
d="M269 248c-155 0 -221 73 -221 219c0 197 71 274 298 274h48v-101h-51c-148 0 -172 -41 -179 -97c23 29 65 42 140 42c127 0 170 -59 170 -163c0 -109 -57 -174 -205 -174zM269 340c76 0 87 30 87 79c0 47 -15 78 -86 78c-66 0 -97 -23 -97 -74c0 -60 29 -83 96 -83z" />
    <glyph glyph-name="seven.numerator" horiz-adv-x="417" 
d="M96 254l165 382h-245v105h374v-103l-164 -384h-130z" />
    <glyph glyph-name="eight.numerator" horiz-adv-x="522" 
d="M260 247c-164 0 -217 68 -217 149c0 57 15 106 77 128c-52 23 -61 59 -61 103c0 66 39 125 201 125c163 0 202 -60 202 -125c0 -44 -8 -82 -62 -104c65 -21 79 -71 79 -127c0 -81 -54 -149 -219 -149zM260 338c73 0 98 26 98 68c0 43 -25 69 -98 69
c-72 0 -96 -26 -96 -69c0 -42 24 -68 96 -68zM260 556c68 0 85 20 85 54c0 32 -17 51 -85 51s-83 -19 -83 -51c0 -34 15 -54 83 -54z" />
    <glyph glyph-name="nine.numerator" horiz-adv-x="512" 
d="M125 254v99h51c148 0 172 46 179 102c-23 -29 -65 -42 -140 -42c-127 0 -170 59 -170 163c0 109 57 174 205 174c155 0 221 -73 221 -219c0 -198 -71 -277 -298 -277h-48zM249 496c66 0 97 22 97 73c0 61 -29 84 -96 84c-76 0 -87 -31 -87 -79s15 -78 86 -78z" />
    <glyph glyph-name="zero.denominator" horiz-adv-x="538" 
d="M269 -6c-156 0 -218 86 -218 252c0 165 62 250 218 250c154 0 218 -85 218 -250c0 -166 -64 -252 -218 -252zM269 96c82 0 98 51 98 150c0 97 -16 144 -98 144c-81 0 -98 -47 -98 -144c0 -99 17 -150 98 -150z" />
    <glyph glyph-name="one.denominator" horiz-adv-x="315" 
d="M114 0v382h-84v105h207v-487h-123z" />
    <glyph glyph-name="two.denominator" horiz-adv-x="453" 
d="M32 0v84l155 133c82 70 97 85 97 125c0 32 -16 51 -81 51c-46 0 -96 -14 -125 -30l-54 91c52 27 102 41 195 41c119 0 184 -38 184 -139c0 -76 -38 -117 -121 -188l-79 -71h204v-97h-375z" />
    <glyph glyph-name="three.denominator" horiz-adv-x="465" 
d="M225 -6c-97 0 -154 18 -212 55l60 86c44 -26 85 -40 140 -40c67 0 91 11 91 62c0 44 -21 56 -98 56h-86v95h84c64 0 86 4 86 42c0 35 -21 42 -80 42c-55 0 -103 -15 -133 -33l-56 90c48 30 124 47 207 47c134 0 184 -41 184 -118c0 -59 -20 -92 -62 -108
c50 -15 75 -51 75 -127c0 -105 -66 -149 -200 -149z" />
    <glyph glyph-name="four.denominator" horiz-adv-x="494" 
d="M32 88v90l212 309h129l-210 -304h115l22 123h92v-123h75v-95h-75v-88h-115v88h-245z" />
    <glyph glyph-name="five.denominator" horiz-adv-x="479" 
d="M240 -6c-95 0 -164 26 -208 53l63 91c38 -21 82 -42 136 -42c69 0 98 9 98 69c0 58 -28 69 -96 69c-36 0 -57 -4 -81 -15l-91 26l13 242h334v-101h-234l-5 -71c25 9 59 14 97 14c94 0 182 -18 182 -164c0 -147 -82 -171 -208 -171z" />
    <glyph glyph-name="six.denominator" horiz-adv-x="512" 
d="M269 -6c-155 0 -221 73 -221 219c0 197 71 274 298 274h48v-101h-51c-148 0 -172 -41 -179 -97c23 29 65 42 140 42c127 0 170 -59 170 -163c0 -109 -57 -174 -205 -174zM269 86c76 0 87 30 87 79c0 47 -15 78 -86 78c-66 0 -97 -23 -97 -74c0 -60 29 -83 96 -83z" />
    <glyph glyph-name="seven.denominator" horiz-adv-x="417" 
d="M96 0l165 382h-245v105h374v-103l-164 -384h-130z" />
    <glyph glyph-name="eight.denominator" horiz-adv-x="522" 
d="M260 -7c-164 0 -217 68 -217 149c0 57 15 106 77 128c-52 23 -61 59 -61 103c0 66 39 125 201 125c163 0 202 -60 202 -125c0 -44 -8 -82 -62 -104c65 -21 79 -71 79 -127c0 -81 -54 -149 -219 -149zM260 84c73 0 98 26 98 68c0 43 -25 69 -98 69c-72 0 -96 -26 -96 -69
c0 -42 24 -68 96 -68zM260 302c68 0 85 20 85 54c0 32 -17 51 -85 51s-83 -19 -83 -51c0 -34 15 -54 83 -54z" />
    <glyph glyph-name="nine.denominator" horiz-adv-x="512" 
d="M125 0v99h51c148 0 172 46 179 102c-23 -29 -65 -42 -140 -42c-127 0 -170 59 -170 163c0 109 57 174 205 174c155 0 221 -73 221 -219c0 -198 -71 -277 -298 -277h-48zM249 242c66 0 97 22 97 73c0 61 -29 84 -96 84c-76 0 -87 -31 -87 -79s15 -78 86 -78z" />
    <glyph glyph-name="uni00A0" unicode="&#xa0;" horiz-adv-x="215" 
 />
    <glyph glyph-name="afii10017" unicode="&#x410;" horiz-adv-x="789" 
d="M14 0l297 746h166l299 -746h-170l-48 122h-336l-48 -122h-160zM274 257h232l-116 295z" />
    <glyph glyph-name="afii10018" unicode="&#x411;" horiz-adv-x="761" 
d="M74 0v741h560v-148h-404v-111h200c228 0 296 -81 296 -233s-64 -249 -304 -249h-348zM230 135h199c93 0 133 19 133 105c0 89 -38 104 -135 104h-197v-209z" />
    <glyph glyph-name="afii10019" unicode="&#x412;" horiz-adv-x="755" 
d="M74 0v741h344c197 0 281 -55 281 -191c0 -86 -31 -140 -99 -164c87 -21 119 -77 119 -182c0 -161 -104 -204 -303 -204h-342zM235 136h200c84 0 118 23 118 84s-33 83 -118 83h-200v-167zM235 445h189c87 0 109 29 109 81s-26 76 -109 76h-189v-157z" />
    <glyph glyph-name="afii10020" unicode="&#x413;" horiz-adv-x="618" 
d="M74 0v741h529v-148h-365v-593h-164z" />
    <glyph glyph-name="afii10021" unicode="&#x414;" horiz-adv-x="897" 
d="M42 -166v308h22c47 0 57 13 57 58v541h661v-599h73v-308h-165v166h-484v-166h-164zM266 138h351v457h-335v-401c0 -23 0 -44 -16 -56z" />
    <glyph glyph-name="afii10022" unicode="&#x415;" horiz-adv-x="687" 
d="M74 0v741h557v-148h-393v-144h383v-143h-383v-164h397v-142h-561z" />
    <glyph glyph-name="afii10024" unicode="&#x416;" horiz-adv-x="1218" 
d="M1000 0l-236 327h-77v-327h-156v327h-77l-236 -327h-193l301 411l-265 330h188l213 -276h69v276h156v-276h69l213 276h188l-265 -330l301 -411h-193z" />
    <glyph glyph-name="afii10025" unicode="&#x417;" horiz-adv-x="713" 
d="M351 -12c-143 0 -251 26 -338 80l79 128c76 -43 164 -67 252 -67c120 0 169 9 169 96c0 67 -36 90 -180 90h-178v139h176c108 0 161 15 161 83c0 62 -48 73 -152 73c-73 0 -175 -21 -224 -51l-85 124c74 45 209 70 324 70c178 0 302 -44 302 -178
c0 -104 -25 -145 -90 -170c77 -28 110 -67 110 -190c0 -181 -150 -227 -326 -227z" />
    <glyph glyph-name="afii10026" unicode="&#x418;" horiz-adv-x="823" 
d="M74 0v741h157v-467l341 467h176v-741h-156v500l-367 -500h-151z" />
    <glyph glyph-name="afii10027" unicode="&#x419;" horiz-adv-x="823" 
d="M74 0v741h157v-467l341 467h176v-741h-156v500l-367 -500h-151zM410 766c-148 0 -192 78 -215 196l113 21c15 -68 34 -97 102 -97s87 29 102 97l114 -20c-25 -119 -69 -197 -216 -197z" />
    <glyph glyph-name="afii10028" unicode="&#x41a;" horiz-adv-x="767" 
d="M549 0l-237 328h-76v-328h-161v741h161v-276h68l214 276h187l-265 -330l301 -411h-192z" />
    <glyph glyph-name="afii10029" unicode="&#x41b;" horiz-adv-x="856" 
d="M42 2v140h20c46 0 55 13 55 58v541h665v-741h-165v595h-337v-424c0 -134 -60 -173 -162 -173c-28 0 -64 2 -76 4z" />
    <glyph glyph-name="afii10030" unicode="&#x41c;" horiz-adv-x="978" 
d="M74 0v741h214l201 -506l201 506h213v-741h-160v495l-199 -495h-124l-198 492v-492h-148z" />
    <glyph glyph-name="afii10031" unicode="&#x41d;" horiz-adv-x="815" 
d="M74 0v741h164v-284h339v284h164v-741h-164v304h-339v-304h-164z" />
    <glyph glyph-name="afii10032" unicode="&#x41e;" horiz-adv-x="853" 
d="M426 -12c-236 0 -392 104 -392 383c0 278 156 382 392 382s393 -104 393 -382c0 -279 -157 -383 -393 -383zM426 132c170 0 227 91 227 236s-57 235 -227 235s-227 -90 -227 -235s57 -236 227 -236z" />
    <glyph glyph-name="afii10033" unicode="&#x41f;" horiz-adv-x="812" 
d="M74 0v741h663v-741h-164v595h-337v-595h-162z" />
    <glyph glyph-name="afii10034" unicode="&#x420;" horiz-adv-x="760" 
d="M74 0v741h356c228 0 296 -96 296 -248s-64 -266 -304 -266h-188v-227h-160zM234 367h195c93 0 133 32 133 118c0 89 -38 116 -135 116h-193v-234z" />
    <glyph glyph-name="afii10035" unicode="&#x421;" horiz-adv-x="759" 
d="M415 -11c-277 0 -381 137 -381 382c0 266 145 382 391 382c135 0 221 -36 291 -107l-113 -113c-45 44 -98 70 -179 70c-158 0 -225 -80 -225 -234c0 -149 56 -234 226 -234c96 0 142 32 188 75l108 -106c-59 -61 -138 -115 -306 -115z" />
    <glyph glyph-name="afii10036" unicode="&#x422;" horiz-adv-x="706" 
d="M271 0v593h-257v148h678v-148h-256v-593h-165z" />
    <glyph glyph-name="afii10037" unicode="&#x423;" horiz-adv-x="719" 
d="M221 -2c-27 0 -68 1 -86 2v137h58c62 0 74 5 88 42l5 13l-275 549h176l192 -393l173 393h166l-279 -598c-52 -111 -87 -145 -218 -145z" />
    <glyph glyph-name="afii10038" unicode="&#x424;" horiz-adv-x="939" 
d="M388 0v47c-216 17 -354 114 -354 324c0 209 138 305 354 323v47h163v-47c215 -18 354 -115 354 -323c0 -210 -139 -306 -354 -324v-47h-163zM199 368c0 -90 47 -157 189 -175v350c-142 -18 -189 -85 -189 -175zM739 368c0 90 -48 157 -188 175v-350
c140 18 188 85 188 175z" />
    <glyph glyph-name="afii10039" unicode="&#x425;" horiz-adv-x="781" 
d="M569 0l-186 267l-176 -267h-181l272 389l-244 352h184l159 -228l150 228h181l-247 -349l274 -392h-186z" />
    <glyph glyph-name="afii10040" unicode="&#x426;" horiz-adv-x="855" 
d="M648 -166v166h-574v741h164v-602h337v602h162v-599h76v-308h-165z" />
    <glyph glyph-name="afii10041" unicode="&#x427;" horiz-adv-x="782" 
d="M544 0v251c-23 -25 -94 -53 -232 -53c-208 0 -257 102 -257 244v299h163v-265c0 -80 21 -128 150 -128c150 0 176 59 176 135v258h163v-741h-163z" />
    <glyph glyph-name="afii10042" unicode="&#x428;" horiz-adv-x="1210" 
d="M74 0v750h164v-611h285v611h165v-611h285v611h162v-750h-1061z" />
    <glyph glyph-name="afii10043" unicode="&#x429;" horiz-adv-x="1252" 
d="M1046 -166v166h-972v750h164v-611h285v611h165v-611h285v611h162v-608h75v-308h-164z" />
    <glyph glyph-name="afii10044" unicode="&#x42a;" horiz-adv-x="799" 
d="M113 0v593h-74v148h234v-235h196c228 0 296 -94 296 -246s-64 -260 -304 -260h-348zM273 136h195c93 0 133 30 133 116c0 88 -38 115 -135 115h-193v-231z" />
    <glyph glyph-name="afii10045" unicode="&#x42b;" horiz-adv-x="1024" 
d="M74 0v741h160v-235h196c228 0 296 -94 296 -246s-64 -260 -304 -260h-348zM234 136h195c93 0 133 30 133 116c0 88 -38 115 -135 115h-193v-231zM786 0v741h164v-741h-164z" />
    <glyph glyph-name="afii10046" unicode="&#x42c;" horiz-adv-x="760" 
d="M74 0v741h160v-235h196c228 0 296 -94 296 -246s-64 -260 -304 -260h-348zM234 136h195c93 0 133 30 133 116c0 88 -38 115 -135 115h-193v-231z" />
    <glyph glyph-name="afii10047" unicode="&#x42d;" horiz-adv-x="757" 
d="M344 -11c-167 0 -247 54 -306 115l108 106c46 -43 93 -75 198 -75c133 0 198 61 214 171h-366v142h363c-23 102 -94 155 -220 155c-80 0 -134 -26 -179 -70l-113 113c70 71 163 107 301 107c234 0 379 -116 379 -382c0 -245 -104 -382 -379 -382z" />
    <glyph glyph-name="afii10048" unicode="&#x42e;" horiz-adv-x="1171" 
d="M74 0v741h164v-289h127c27 217 167 301 379 301c236 0 393 -104 393 -382c0 -279 -157 -383 -393 -383c-217 0 -359 87 -381 318h-125v-306h-164zM744 132c170 0 227 91 227 236s-57 235 -227 235s-227 -90 -227 -235s57 -236 227 -236z" />
    <glyph glyph-name="afii10049" unicode="&#x42f;" horiz-adv-x="772" 
d="M59 0l148 264c-124 39 -157 133 -157 235c0 142 56 242 290 242h357v-741h-160v246h-166l-136 -246h-176zM344 387h193v214h-191c-92 0 -131 -22 -131 -108c0 -84 41 -106 129 -106z" />
    <glyph glyph-name="afii10050" unicode="&#x490;" horiz-adv-x="618" 
d="M74 0v741h365v166h164v-314h-365v-593h-164z" />
    <glyph glyph-name="afii10055" unicode="&#x406;" horiz-adv-x="333" 
d="M85 0v741h163v-741h-163z" />
    <glyph glyph-name="afii10051" unicode="&#x402;" horiz-adv-x="886" 
d="M592 -169v119h13c47 0 52 14 52 73v213c0 69 -4 119 -99 119c-108 0 -122 -50 -122 -124v-231h-165v593h-257v148h678v-148h-256v-141c23 25 72 51 178 51c171 0 208 -95 208 -236v-243c0 -153 -48 -193 -201 -193h-29z" />
    <glyph glyph-name="afii10099" unicode="&#x452;" horiz-adv-x="667" 
d="M-2 585v134h67v57h156v-57h118v-134h-118v-80c23 25 77 51 184 51c170 0 203 -95 203 -236v-331c0 -123 -52 -158 -192 -158h-30v119h13c43 0 51 13 52 58v281c0 69 -8 120 -103 120c-109 0 -127 -52 -127 -127v-282h-156v585h-67z" />
    <glyph glyph-name="afii10052" unicode="&#x403;" horiz-adv-x="618" 
d="M205 781l141 183h189l-191 -183h-139zM74 0v741h529v-148h-365v-593h-164z" />
    <glyph glyph-name="afii10100" unicode="&#x453;" horiz-adv-x="542" 
d="M169 620l141 183h189l-191 -183h-139zM62 0v566h458v-134h-301v-432h-157z" />
    <glyph glyph-name="afii10103" unicode="&#x456;" horiz-adv-x="293" 
d="M68 0v566h156v-566h-156zM67 618v143h158v-143h-158z" />
    <glyph glyph-name="afii10098" unicode="&#x491;" horiz-adv-x="542" 
d="M62 0v566h311v167h147v-301h-301v-432h-157z" />
    <glyph glyph-name="afii10057" unicode="&#x408;" horiz-adv-x="455" 
d="M131 -2c-64 0 -75 0 -109 2v142h89c85 0 111 28 111 98v501h163v-507c0 -187 -105 -236 -254 -236z" />
    <glyph glyph-name="afii10053" unicode="&#x404;" horiz-adv-x="757" 
d="M413 -11c-274 0 -379 137 -379 382c0 266 146 382 379 382c138 0 232 -36 301 -107l-112 -113c-45 44 -99 70 -180 70c-126 0 -198 -53 -220 -155h363v-142h-367c17 -110 82 -171 215 -171c105 0 153 32 199 75l107 -106c-59 -61 -139 -115 -306 -115z" />
    <glyph glyph-name="afii10101" unicode="&#x454;" horiz-adv-x="587" 
d="M325 -9c-234 0 -290 125 -290 293c0 166 53 295 297 295c102 0 179 -34 230 -92l-107 -103c-23 26 -59 59 -123 59c-90 0 -127 -33 -138 -103h245v-119h-245c11 -69 47 -98 139 -98c53 0 91 14 131 52l97 -93c-66 -61 -122 -91 -236 -91z" />
    <glyph glyph-name="afii10056" unicode="&#x407;" horiz-adv-x="333" 
d="M85 0v741h163v-741h-163zM-17 786v136h142v-136h-142zM210 786v136h141v-136h-141z" />
    <glyph glyph-name="afii10104" unicode="&#x457;" horiz-adv-x="293" 
d="M-16 625v136h126v-136h-126zM183 625v136h126v-136h-126zM68 0v566h156v-566h-156z" />
    <glyph glyph-name="afii10058" unicode="&#x409;" horiz-adv-x="1301" 
d="M41 2v140h19c47 0 55 13 55 58v541h660v-235h196c228 0 296 -94 296 -246s-64 -260 -304 -260h-347v595h-337v-424c0 -134 -60 -173 -162 -173c-28 0 -65 2 -76 4zM775 136h195c93 0 133 30 133 116c0 88 -38 115 -135 115h-193v-231z" />
    <glyph glyph-name="afii10106" unicode="&#x459;" horiz-adv-x="1083" 
d="M41 2v129h19c47 0 58 13 58 59v376h538v-138h159c175 0 228 -88 228 -208c0 -119 -51 -220 -235 -220h-304v435h-232v-264c0 -134 -53 -173 -155 -173c-28 0 -65 2 -76 4zM656 121h127c70 0 101 27 101 93c0 68 -29 92 -102 92h-126v-185z" />
    <glyph glyph-name="afii10059" unicode="&#x40a;" horiz-adv-x="1262" 
d="M74 0v741h164v-284h339v284h159v-235h196c228 0 296 -94 296 -246s-64 -260 -304 -260h-347v304h-339v-304h-164zM736 136h195c93 0 133 30 133 116c0 88 -38 115 -135 115h-193v-231z" />
    <glyph glyph-name="afii10107" unicode="&#x45a;" horiz-adv-x="1030" 
d="M62 0v566h157v-203h232v203h152v-138h159c174 0 227 -88 227 -208c0 -119 -50 -220 -234 -220h-304v222h-232v-222h-157zM603 121h127c70 0 100 27 100 93c0 68 -28 92 -101 92h-126v-185z" />
    <glyph glyph-name="afii10105" unicode="&#x458;" horiz-adv-x="293" 
d="M3 -169v119h12c48 0 53 14 53 73v543h156v-542c0 -153 -39 -193 -192 -193h-29zM67 618v143h158v-143h-158z" />
    <glyph glyph-name="afii10054" unicode="&#x405;" horiz-adv-x="741" 
d="M375 -11c-147 0 -269 35 -353 97l82 118c79 -53 171 -79 266 -79c145 0 172 28 172 90c0 61 -62 73 -176 89c-198 28 -301 64 -301 225c0 165 100 224 309 224c151 0 243 -35 300 -73l-88 -127c-47 31 -134 57 -214 57c-116 0 -144 -23 -144 -77c0 -60 61 -71 179 -88
c178 -26 297 -55 297 -222c0 -150 -82 -234 -329 -234z" />
    <glyph glyph-name="afii10060" unicode="&#x40b;" horiz-adv-x="886" 
d="M271 0v593h-257v148h678v-148h-256v-141c23 25 72 51 178 51c171 0 208 -95 208 -236v-267h-165v236c0 69 -4 119 -99 119c-108 0 -122 -50 -122 -124v-231h-165z" />
    <glyph glyph-name="afii10108" unicode="&#x45b;" horiz-adv-x="667" 
d="M-2 585v134h67v57h156v-57h118v-134h-118v-80c23 25 77 51 184 51c170 0 203 -95 203 -236v-320h-157v289c0 69 -8 120 -103 120c-109 0 -127 -52 -127 -127v-282h-156v585h-67z" />
    <glyph glyph-name="afii10061" unicode="&#x40c;" horiz-adv-x="760" 
d="M549 0l-237 328h-76v-328h-161v741h161v-276h68l214 276h187l-265 -330l301 -411h-192zM276 781l141 183h189l-191 -183h-139z" />
    <glyph glyph-name="afii10109" unicode="&#x45c;" horiz-adv-x="614" 
d="M217 566v-198h49l144 198h180l-201 -259l218 -307h-183l-156 234h-51v-234h-155v566h155zM219 620l141 183h189l-191 -183h-139z" />
    <glyph glyph-name="afii10102" unicode="&#x455;" horiz-adv-x="573" 
d="M280 -9c-97 0 -194 20 -270 71l80 115c59 -38 136 -59 200 -59c79 0 102 8 102 47c0 33 -23 40 -100 50c-140 19 -247 39 -247 187c0 115 68 177 247 177c91 0 179 -18 239 -52l-75 -122c-40 21 -102 37 -159 37c-80 0 -96 -14 -96 -41c0 -32 20 -39 93 -49
c144 -20 251 -37 251 -178c0 -130 -70 -183 -265 -183z" />
    <glyph glyph-name="afii10062" unicode="&#x40e;" horiz-adv-x="719" 
d="M221 -2c-27 0 -68 1 -86 2v137h58c62 0 74 5 88 42l5 13l-275 549h176l192 -393l173 393h166l-279 -598c-52 -111 -87 -145 -218 -145zM359 766c-148 0 -192 78 -215 196l113 21c15 -68 34 -97 102 -97s87 29 102 97l114 -20c-25 -119 -69 -197 -216 -197z" />
    <glyph glyph-name="afii10110" unicode="&#x45e;" horiz-adv-x="584" 
d="M134 -170c-12 0 -39 1 -56 2v118h42c63 0 78 9 88 42l7 21l-216 553h169l131 -360l127 360h159l-227 -591c-39 -105 -87 -145 -224 -145zM293 605c-148 0 -192 78 -215 196l113 21c15 -68 34 -97 102 -97s87 29 102 97l114 -20c-25 -119 -69 -197 -216 -197z" />
    <glyph glyph-name="afii10145" unicode="&#x40f;" horiz-adv-x="811" 
d="M324 -166v166h-250v741h164v-602h337v602h162v-741h-249v-166h-164z" />
    <glyph glyph-name="afii10193" unicode="&#x45f;" horiz-adv-x="669" 
d="M261 -166v166h-199v566h157v-439h233v439h155v-566h-199v-166h-147z" />
    <glyph glyph-name="afii61352" unicode="&#x2116;" horiz-adv-x="1432" 
d="M74 0v741h177l341 -467v467h156v-741h-150l-367 500v-500h-157zM1077 276c-170 0 -239 85 -239 239s69 238 239 238c169 0 239 -84 239 -238s-70 -239 -239 -239zM1077 386c82 0 110 48 110 125s-28 125 -110 125s-110 -48 -110 -125s28 -125 110 -125zM867 114v112h420
v-112h-420z" />
    <glyph glyph-name="afii10023" unicode="&#x401;" horiz-adv-x="687" 
d="M159 786v136h142v-136h-142zM386 786v136h141v-136h-141zM74 0v741h557v-148h-393v-144h383v-143h-383v-164h397v-142h-561z" />
    <glyph glyph-name="afii10071" unicode="&#x451;" horiz-adv-x="619" 
d="M330 -11c-245 0 -295 134 -295 295c0 158 52 295 294 295c249 0 257 -166 252 -355h-394c9 -68 42 -108 143 -108c87 0 136 21 178 52l79 -102c-73 -55 -145 -77 -257 -77zM324 448c-97 0 -129 -43 -137 -112h251c-4 65 -17 112 -114 112zM125 625v136h142v-136h-142z
M352 625v136h141v-136h-141z" />
    <glyph glyph-name="afii10097" unicode="&#x44f;" horiz-adv-x="667" 
d="M55 0l102 184c-76 30 -109 92 -109 182c0 132 71 200 238 200h319v-566h-156v163h-136l-90 -163h-168zM292 289h157v147h-155c-58 0 -86 -16 -86 -74s28 -73 84 -73z" />
    <glyph glyph-name="afii10065" unicode="&#x430;" horiz-adv-x="645" 
d="M238 -9c-175 0 -213 76 -213 175c0 160 112 198 363 198h23c-1 51 -14 77 -112 77c-69 0 -130 -25 -164 -46l-78 115c40 27 140 69 259 69c204 0 246 -65 246 -225v-172c0 -45 3 -52 49 -52v-128c-11 -3 -31 -4 -66 -4c-60 0 -86 12 -108 56c-29 -39 -92 -63 -199 -63z
M269 117c99 0 142 35 142 118v21h-13c-200 0 -224 -16 -224 -77c0 -42 23 -62 95 -62z" />
    <glyph glyph-name="afii10066" unicode="&#x431;" horiz-adv-x="662" 
d="M332 -11c-198 0 -297 89 -297 317v88c0 294 96 382 332 382h102v-139h-94c-123 0 -182 -40 -182 -154c26 41 86 65 186 65c212 0 248 -132 248 -284c0 -164 -80 -275 -295 -275zM332 123c102 0 137 56 137 145c0 90 -35 141 -137 141c-104 0 -139 -51 -139 -141
c0 -89 35 -145 139 -145z" />
    <glyph glyph-name="afii10067" unicode="&#x432;" horiz-adv-x="651" 
d="M62 0v566h290c162 0 240 -31 240 -139c0 -67 -22 -114 -75 -132c67 -16 90 -58 90 -139c0 -127 -85 -156 -257 -156h-288zM210 118h156c63 0 88 11 88 57c0 43 -25 55 -89 55h-155v-112zM210 342h146c67 0 84 16 84 52c0 38 -20 49 -84 49h-146v-101z" />
    <glyph glyph-name="afii10068" unicode="&#x433;" horiz-adv-x="542" 
d="M62 0v566h458v-134h-301v-432h-157z" />
    <glyph glyph-name="afii10069" unicode="&#x434;" horiz-adv-x="775" 
d="M41 -166v297h19c47 0 55 13 55 59v376h545v-435h74v-297h-146v166h-400v-166h-147zM256 123h250v312h-234v-256c0 -30 -4 -45 -16 -56z" />
    <glyph glyph-name="afii10070" unicode="&#x435;" horiz-adv-x="619" 
d="M330 -11c-245 0 -295 134 -295 295c0 158 52 295 294 295c249 0 257 -166 252 -355h-394c9 -68 42 -108 143 -108c87 0 136 21 178 52l79 -102c-73 -55 -145 -77 -257 -77zM324 448c-97 0 -129 -43 -137 -112h251c-4 65 -17 112 -114 112z" />
    <glyph glyph-name="afii10073" unicode="&#x437;" horiz-adv-x="608" 
d="M292 -12c-112 0 -212 20 -280 62l67 113c58 -32 123 -49 192 -49c102 0 133 5 133 63c0 49 -23 57 -141 57h-128v121h126c99 0 126 2 126 50c0 43 -31 47 -119 47c-58 0 -131 -16 -168 -37l-75 109c59 35 179 55 270 55c162 0 253 -33 253 -138c0 -80 -24 -113 -74 -131
c62 -16 89 -53 89 -147c0 -141 -108 -175 -271 -175z" />
    <glyph glyph-name="afii10074" unicode="&#x438;" horiz-adv-x="674" 
d="M62 0v566h153v-318l229 318h168v-566h-153v353l-255 -353h-142z" />
    <glyph glyph-name="afii10075" unicode="&#x439;" horiz-adv-x="674" 
d="M62 0v566h153v-318l229 318h168v-566h-153v353l-255 -353h-142zM336 605c-148 0 -192 78 -215 196l113 21c15 -68 34 -97 102 -97s87 29 102 97l114 -20c-25 -119 -69 -197 -216 -197z" />
    <glyph glyph-name="afii10077" unicode="&#x43b;" horiz-adv-x="724" 
d="M41 2v129h19c47 0 58 13 58 59v376h544v-566h-156v435h-234v-264c0 -134 -53 -173 -155 -173c-28 0 -65 2 -76 4z" />
    <glyph glyph-name="afii10078" unicode="&#x43c;" horiz-adv-x="822" 
d="M62 0v566h198l154 -369l154 369h196v-566h-156v338l-136 -338h-128l-135 339v-339h-147z" />
    <glyph glyph-name="afii10079" unicode="&#x43d;" horiz-adv-x="671" 
d="M62 0v566h157v-203h233v203h157v-566h-157v222h-233v-222h-157z" />
    <glyph glyph-name="afii10080" unicode="&#x43e;" horiz-adv-x="661" 
d="M331 -11c-213 0 -296 105 -296 295s83 295 296 295s295 -105 295 -295s-82 -295 -295 -295zM331 123c108 0 138 61 138 157s-30 156 -138 156c-109 0 -138 -60 -138 -156s29 -157 138 -157z" />
    <glyph glyph-name="afii10081" unicode="&#x43f;" horiz-adv-x="669" 
d="M62 0v566h545v-566h-157v435h-233v-435h-155z" />
    <glyph glyph-name="afii10082" unicode="&#x440;" horiz-adv-x="681" 
d="M62 -165v722l122 9l13 -50c30 36 87 63 207 63c194 0 242 -132 242 -295s-51 -293 -251 -293c-102 0 -150 20 -176 53v-209h-157zM364 124c101 0 123 64 123 154c0 91 -20 158 -123 158c-108 0 -145 -49 -145 -158c0 -108 31 -154 145 -154z" />
    <glyph glyph-name="afii10083" unicode="&#x441;" horiz-adv-x="587" 
d="M325 -9c-234 0 -290 127 -290 293c0 164 53 295 297 295c102 0 178 -34 230 -92l-110 -104c-24 25 -56 52 -120 52c-112 0 -139 -61 -139 -155s25 -157 140 -157c53 0 88 17 128 55l100 -96c-66 -61 -122 -91 -236 -91z" />
    <glyph glyph-name="afii10084" unicode="&#x442;" horiz-adv-x="595" 
d="M219 0v432h-196v134h549v-134h-196v-432h-157z" />
    <glyph glyph-name="afii10085" unicode="&#x443;" horiz-adv-x="584" 
d="M134 -170c-12 0 -39 1 -56 2v118h42c63 0 78 9 88 42l7 21l-216 553h169l131 -360l127 360h159l-227 -591c-39 -105 -87 -145 -224 -145z" />
    <glyph glyph-name="afii10086" unicode="&#x444;" horiz-adv-x="1073" 
d="M462 -165v210c-35 -36 -90 -55 -181 -55c-195 0 -246 133 -246 296c0 162 53 293 251 293c103 0 152 -23 176 -53v250h148v-251c31 36 89 54 186 54c194 0 242 -132 242 -295s-51 -293 -251 -293c-102 0 -150 20 -176 53v-209h-149zM318 124c108 0 144 53 144 162
c0 107 -30 152 -144 152c-103 0 -124 -62 -124 -152c0 -91 21 -162 124 -162zM756 124c101 0 123 64 123 154c0 91 -20 158 -123 158c-108 0 -145 -49 -145 -158c0 -108 31 -154 145 -154z" />
    <glyph glyph-name="afii10087" unicode="&#x445;" horiz-adv-x="599" 
d="M418 0l-127 182l-121 -182h-165l207 296l-188 270h175l109 -157l103 157h165l-188 -271l206 -295h-176z" />
    <glyph glyph-name="afii10088" unicode="&#x446;" horiz-adv-x="722" 
d="M534 -166v166h-472v566h157v-439h233v439h155v-435h74v-297h-147z" />
    <glyph glyph-name="afii10089" unicode="&#x447;" horiz-adv-x="656" 
d="M438 0v187c-23 -30 -80 -60 -187 -60c-170 0 -205 95 -205 236v203h157v-172c0 -69 10 -119 105 -119c109 0 129 51 129 126v165h157v-566h-156z" />
    <glyph glyph-name="afii10090" unicode="&#x448;" horiz-adv-x="1028" 
d="M62 0v566h157v-439h218v439h157v-439h217v439h154v-566h-903z" />
    <glyph glyph-name="afii10091" unicode="&#x449;" horiz-adv-x="1081" 
d="M893 -166v166h-831v566h157v-439h218v439h157v-439h217v439h154v-435h75v-297h-147z" />
    <glyph glyph-name="afii10092" unicode="&#x44a;" horiz-adv-x="698" 
d="M115 0v432h-74v134h230v-138h159c175 0 228 -88 228 -208c0 -119 -51 -220 -235 -220h-308zM271 121h127c71 0 101 27 101 93c0 68 -28 92 -101 92h-127v-185z" />
    <glyph glyph-name="afii10093" unicode="&#x44b;" horiz-adv-x="866" 
d="M62 0v566h155v-138h160c175 0 228 -88 228 -208c0 -119 -51 -220 -235 -220h-308zM217 121h128c71 0 101 27 101 93c0 68 -29 92 -102 92h-127v-185zM647 0v566h157v-566h-157z" />
    <glyph glyph-name="afii10094" unicode="&#x44c;" horiz-adv-x="645" 
d="M62 0v566h155v-138h160c175 0 228 -88 228 -208c0 -119 -51 -220 -235 -220h-308zM217 121h128c71 0 101 27 101 93c0 68 -29 92 -102 92h-127v-185z" />
    <glyph glyph-name="afii10095" unicode="&#x44d;" horiz-adv-x="587" 
d="M262 -9c-114 0 -172 30 -238 91l97 93c40 -38 80 -52 135 -52c90 0 126 29 137 98h-245v119h245c-12 70 -49 103 -138 103c-61 0 -99 -33 -123 -59l-106 103c51 58 127 92 232 92c241 0 294 -129 294 -295c0 -168 -56 -293 -290 -293z" />
    <glyph glyph-name="afii10096" unicode="&#x44e;" horiz-adv-x="905" 
d="M62 0v566h157v-207h71c19 143 101 220 284 220c213 0 296 -104 296 -295s-83 -295 -296 -295c-190 0 -270 83 -285 236h-70v-225h-157zM574 123c109 0 138 59 138 157s-29 156 -138 156c-108 0 -137 -58 -137 -156s29 -157 137 -157z" />
    <glyph glyph-name="registered.superior" horiz-adv-x="669" 
d="M335 184c-183 0 -277 124 -277 285s94 286 277 286c182 0 276 -125 276 -286s-94 -285 -276 -285zM335 229c163 0 230 107 230 240c0 134 -67 241 -230 241s-230 -107 -230 -241c0 -133 67 -240 230 -240zM397 309l-60 109h-61v-109h-79v327h157c107 0 132 -44 132 -107
c0 -46 -15 -86 -70 -103l65 -117h-84zM276 479h72c42 0 57 10 57 47c0 38 -14 47 -58 47h-71v-94z" />
    <glyph glyph-name="AEacute" unicode="&#x1fc;" horiz-adv-x="1148" 
d="M447 781l141 183h189l-191 -183h-139zM3 0l465 741h624v-148h-393v-144h383v-143h-383v-164h397v-142h-554v127h-295l-85 -127h-159zM325 260h217v338z" />
    <glyph glyph-name="Aringacute" unicode="&#x1fa;" horiz-adv-x="789" 
d="M290 972l141 183h189l-191 -183h-139zM14 0l277 696c-28 26 -40 65 -40 110c0 82 41 147 143 147c97 0 142 -65 142 -147c0 -44 -13 -82 -40 -109l280 -697h-170l-48 122h-336l-48 -122h-160zM274 257h232l-116 295zM394 738c47 0 64 30 64 68c0 39 -17 69 -64 69
c-48 0 -65 -30 -65 -69c0 -38 17 -68 65 -68z" />
    <glyph glyph-name="Ccircumflex" unicode="&#x108;" horiz-adv-x="759" 
d="M153 781l155 183h162l155 -183h-147l-91 86l-90 -86h-144zM415 -11c-277 0 -381 137 -381 382c0 266 145 382 391 382c135 0 221 -36 291 -107l-113 -113c-45 44 -98 70 -179 70c-158 0 -225 -80 -225 -234c0 -149 56 -234 226 -234c96 0 142 32 188 75l108 -106
c-59 -61 -138 -115 -306 -115z" />
    <glyph glyph-name="Cdotaccent" unicode="&#x10a;" horiz-adv-x="759" 
d="M415 -11c-277 0 -381 137 -381 382c0 266 145 382 391 382c135 0 221 -36 291 -107l-113 -113c-45 44 -98 70 -179 70c-158 0 -225 -80 -225 -234c0 -149 56 -234 226 -234c96 0 142 32 188 75l108 -106c-59 -61 -138 -115 -306 -115zM313 779v139h159v-139h-159z" />
    <glyph glyph-name="Ebreve" unicode="&#x114;" horiz-adv-x="687" 
d="M74 0v741h557v-148h-393v-144h383v-143h-383v-164h397v-142h-561zM344 766c-148 0 -192 78 -215 196l113 21c15 -68 34 -97 102 -97s87 29 102 97l114 -20c-25 -119 -69 -197 -216 -197z" />
    <glyph glyph-name="Eng" unicode="&#x14a;" horiz-adv-x="823" 
d="M494 -192c-60 0 -81 1 -109 3v141h89c70 0 100 21 108 68l-351 480v-500h-157v741h177l341 -467v467h156v-697c0 -187 -105 -236 -254 -236z" />
    <glyph glyph-name="Gcircumflex" unicode="&#x11c;" horiz-adv-x="799" 
d="M165 781l155 183h162l155 -183h-147l-91 86l-90 -86h-144zM413 -11c-296 0 -379 136 -379 382c0 268 140 382 390 382c150 0 241 -44 300 -105l-112 -113c-38 36 -87 68 -189 68c-162 0 -225 -80 -225 -234c0 -162 44 -242 223 -242c144 0 186 48 186 152v16h-207v136
h369v-121c0 -211 -84 -321 -356 -321z" />
    <glyph glyph-name="Gdotaccent" unicode="&#x120;" horiz-adv-x="799" 
d="M413 -11c-296 0 -379 136 -379 382c0 268 140 382 390 382c150 0 241 -44 300 -105l-112 -113c-38 36 -87 68 -189 68c-162 0 -225 -80 -225 -234c0 -162 44 -242 223 -242c144 0 186 48 186 152v16h-207v136h369v-121c0 -211 -84 -321 -356 -321zM324 779v139h159v-139
h-159z" />
    <glyph glyph-name="Hbar" unicode="&#x126;" horiz-adv-x="815" 
d="M28 534v125h46v82h164v-82h339v82h164v-82h45v-125h-45v-534h-164v304h-339v-304h-164v534h-46zM238 457h339v77h-339v-77z" />
    <glyph glyph-name="Hcircumflex" unicode="&#x124;" horiz-adv-x="815" 
d="M171 781l155 183h162l155 -183h-147l-91 86l-90 -86h-144zM74 0v741h164v-284h339v284h164v-741h-164v304h-339v-304h-164z" />
    <glyph glyph-name="Ibreve" unicode="&#x12c;" horiz-adv-x="333" 
d="M85 0v741h163v-741h-163zM167 766c-148 0 -192 78 -215 196l113 21c15 -68 34 -97 102 -97s87 29 102 97l114 -20c-25 -119 -69 -197 -216 -197z" />
    <glyph glyph-name="Itilde" unicode="&#x128;" horiz-adv-x="333" 
d="M85 0v741h163v-741h-163zM13 777l-87 71c54 67 112 108 168 108c70 0 92 -54 138 -54c23 0 50 18 84 59l87 -71c-54 -67 -112 -110 -168 -110c-67 0 -91 54 -138 54c-22 0 -51 -16 -84 -57z" />
    <glyph glyph-name="Idotaccent" unicode="&#x130;" horiz-adv-x="333" 
d="M85 0v741h163v-741h-163zM87 779v139h159v-139h-159z" />
    <glyph glyph-name="IJ" unicode="&#x132;" horiz-adv-x="788" 
d="M85 0v741h163v-741h-163zM464 -2c-64 0 -75 0 -109 2v142h89c85 0 111 28 111 98v501h163v-507c0 -187 -105 -236 -254 -236z" />
    <glyph glyph-name="Jcircumflex" unicode="&#x134;" horiz-adv-x="455" 
d="M66 781l155 183h162l155 -183h-147l-91 86l-90 -86h-144zM131 -2c-64 0 -75 0 -109 2v142h89c85 0 111 28 111 98v501h163v-507c0 -187 -105 -236 -254 -236z" />
    <glyph glyph-name="Ldot" unicode="&#x13f;" horiz-adv-x="701" 
d="M74 0v741h164v-599h364v-142h-528zM424 290v184h182v-184h-182z" />
    <glyph glyph-name="Obreve" unicode="&#x14e;" horiz-adv-x="853" 
d="M426 -12c-236 0 -392 104 -392 383c0 278 156 382 392 382s393 -104 393 -382c0 -279 -157 -383 -393 -383zM426 132c170 0 227 91 227 236s-57 235 -227 235s-227 -90 -227 -235s57 -236 227 -236zM426 766c-148 0 -192 78 -215 196l113 21c15 -68 34 -97 102 -97
s87 29 102 97l114 -20c-25 -119 -69 -197 -216 -197z" />
    <glyph glyph-name="Oslashacute" unicode="&#x1fe;" horiz-adv-x="853" 
d="M426 -12c-52 0 -99 5 -142 15l-26 -44h-153l58 97c-83 59 -129 160 -129 315c0 278 153 382 392 382c50 0 96 -5 138 -15l27 45h152l-58 -96c85 -59 134 -160 134 -316c0 -279 -154 -383 -393 -383zM426 126c178 0 233 94 233 242c0 80 -16 144 -59 186l-247 -422
c22 -4 46 -6 73 -6zM193 368c0 -78 15 -140 55 -182l243 418c-19 3 -41 5 -65 5c-178 0 -233 -93 -233 -241zM323 781l141 183h189l-191 -183h-139z" />
    <glyph glyph-name="Scircumflex" unicode="&#x15c;" horiz-adv-x="741" 
d="M123 781l155 183h162l155 -183h-147l-91 86l-90 -86h-144zM375 -11c-147 0 -269 35 -353 97l82 118c79 -53 171 -79 266 -79c145 0 172 28 172 90c0 61 -62 73 -176 89c-198 28 -301 64 -301 225c0 165 100 224 309 224c151 0 243 -35 300 -73l-88 -127
c-47 31 -134 57 -214 57c-116 0 -144 -23 -144 -77c0 -60 61 -71 179 -88c178 -26 297 -55 297 -222c0 -150 -82 -234 -329 -234z" />
    <glyph glyph-name="Tbar" unicode="&#x166;" horiz-adv-x="706" 
d="M135 256v132h136v205h-257v148h678v-148h-256v-205h134v-132h-134v-256h-165v256h-136z" />
    <glyph glyph-name="Ubreve" unicode="&#x16c;" horiz-adv-x="816" 
d="M408 -14c-313 0 -339 155 -339 297v458h164v-437c0 -110 27 -173 177 -173c149 0 178 59 178 173v437h159v-458c0 -142 -27 -297 -339 -297zM408 766c-148 0 -192 78 -215 196l113 21c15 -68 34 -97 102 -97s87 29 102 97l114 -20c-25 -119 -69 -197 -216 -197z" />
    <glyph glyph-name="Utilde" unicode="&#x168;" horiz-adv-x="816" 
d="M408 -14c-313 0 -339 155 -339 297v458h164v-437c0 -110 27 -173 177 -173c149 0 178 59 178 173v437h159v-458c0 -142 -27 -297 -339 -297zM263 777l-87 71c54 67 112 108 168 108c70 0 92 -54 138 -54c23 0 50 18 84 59l87 -71c-54 -67 -112 -110 -168 -110
c-67 0 -91 54 -138 54c-22 0 -51 -16 -84 -57z" />
    <glyph glyph-name="Wacute" unicode="&#x1e82;" horiz-adv-x="1082" 
d="M442 781l141 183h189l-191 -183h-139zM245 -5l-226 746h171l138 -476l144 476h148l145 -476l138 476h160l-225 -746h-145l-152 498l-152 -498h-144z" />
    <glyph glyph-name="Wcircumflex" unicode="&#x174;" horiz-adv-x="1082" 
d="M306 781l155 183h162l155 -183h-147l-91 86l-90 -86h-144zM245 -5l-226 746h171l138 -476l144 476h148l145 -476l138 476h160l-225 -746h-145l-152 498l-152 -498h-144z" />
    <glyph glyph-name="Wdieresis" unicode="&#x1e84;" horiz-adv-x="1082" 
d="M357 786v136h142v-136h-142zM584 786v136h141v-136h-141zM245 -5l-226 746h171l138 -476l144 476h148l145 -476l138 476h160l-225 -746h-145l-152 498l-152 -498h-144z" />
    <glyph glyph-name="Wgrave" unicode="&#x1e80;" horiz-adv-x="1082" 
d="M245 -5l-226 746h171l138 -476l144 476h148l145 -476l138 476h160l-225 -746h-145l-152 498l-152 -498h-144zM509 781l-191 183h189l141 -183h-139z" />
    <glyph glyph-name="Ycircumflex" unicode="&#x176;" horiz-adv-x="760" 
d="M298 0v260l-295 481h176l204 -334l204 334h169l-295 -481v-260h-163zM143 781l155 183h162l155 -183h-147l-91 86l-90 -86h-144z" />
    <glyph glyph-name="Ygrave" unicode="&#x1ef2;" horiz-adv-x="760" 
d="M298 0v260l-295 481h176l204 -334l204 334h169l-295 -481v-260h-163zM350 781l-191 183h189l141 -183h-139z" />
    <glyph glyph-name="aeacute" unicode="&#x1fd;" horiz-adv-x="989" 
d="M700 -11c-123 0 -192 32 -231 83c-49 -75 -124 -81 -231 -81c-173 0 -213 71 -213 175c0 160 108 198 363 198h23c-1 51 -14 77 -112 77c-69 0 -130 -25 -164 -46l-78 115c40 27 140 69 259 69c96 0 151 -20 182 -55c42 34 105 55 201 55c250 0 258 -166 252 -355h-394
c9 -68 42 -108 143 -108c87 0 137 21 178 52l79 -102c-72 -55 -140 -77 -257 -77zM359 620l141 183h189l-191 -183h-139zM268 117c101 0 143 35 143 118v21h-13c-201 0 -224 -16 -224 -77c0 -42 18 -62 94 -62zM695 448c-98 0 -130 -43 -138 -112h251c-3 65 -9 112 -113 112
z" />
    <glyph glyph-name="aringacute" unicode="&#x1fb;" horiz-adv-x="645" 
d="M238 -9c-175 0 -213 76 -213 175c0 160 112 198 363 198h23c-1 51 -14 77 -112 77c-69 0 -130 -25 -164 -46l-78 115c40 27 140 69 259 69c204 0 246 -65 246 -225v-172c0 -45 3 -52 49 -52v-128c-11 -3 -31 -4 -66 -4c-60 0 -86 12 -108 56c-29 -39 -92 -63 -199 -63z
M323 604c-102 0 -143 63 -143 145s41 147 143 147c97 0 142 -65 142 -147s-45 -145 -142 -145zM220 937l141 183h189l-191 -183h-139zM269 117c99 0 142 35 142 118v21h-13c-200 0 -224 -16 -224 -77c0 -42 23 -62 95 -62zM323 681c47 0 64 30 64 68c0 39 -17 69 -64 69
c-48 0 -65 -30 -65 -69c0 -38 17 -68 65 -68z" />
    <glyph glyph-name="ccircumflex" unicode="&#x109;" horiz-adv-x="587" 
d="M66 620l155 183h162l155 -183h-147l-91 86l-90 -86h-144zM325 -9c-234 0 -290 127 -290 293c0 164 53 295 297 295c102 0 178 -34 230 -92l-110 -104c-24 25 -56 52 -120 52c-112 0 -139 -61 -139 -155s25 -157 140 -157c53 0 88 17 128 55l100 -96
c-66 -61 -122 -91 -236 -91z" />
    <glyph glyph-name="cdotaccent" unicode="&#x10b;" horiz-adv-x="587" 
d="M325 -9c-234 0 -290 127 -290 293c0 164 53 295 297 295c102 0 178 -34 230 -92l-110 -104c-24 25 -56 52 -120 52c-112 0 -139 -61 -139 -155s25 -157 140 -157c53 0 88 17 128 55l100 -96c-66 -61 -122 -91 -236 -91zM230 618v139h159v-139h-159z" />
    <glyph glyph-name="ebreve" unicode="&#x115;" horiz-adv-x="619" 
d="M330 -11c-245 0 -295 134 -295 295c0 158 52 295 294 295c249 0 257 -166 252 -355h-394c9 -68 42 -108 143 -108c87 0 136 21 178 52l79 -102c-73 -55 -145 -77 -257 -77zM310 605c-148 0 -192 78 -215 196l113 21c15 -68 34 -97 102 -97s87 29 102 97l114 -20
c-25 -119 -69 -197 -216 -197zM324 448c-97 0 -129 -43 -137 -112h251c-4 65 -17 112 -114 112z" />
    <glyph glyph-name="eng" unicode="&#x14b;" horiz-adv-x="664" 
d="M384 -169v119h12c48 0 53 14 53 73v289c0 69 -8 119 -103 119c-109 0 -127 -51 -127 -126v-305h-157v557l122 9l13 -61c30 39 85 74 205 74c171 0 203 -95 203 -236v-329c0 -144 -43 -183 -192 -183h-29z" />
    <glyph glyph-name="gcircumflex" unicode="&#x11d;" horiz-adv-x="652" 
d="M313 208c-27 0 -52 1 -75 3c-3 -6 -5 -13 -5 -20c0 -27 17 -31 93 -31c234 0 293 -35 293 -155c0 -136 -99 -184 -308 -184c-216 0 -294 24 -294 138c0 64 34 110 111 127c-30 21 -34 50 -34 80c0 32 9 58 28 79c-50 29 -73 76 -73 142c0 124 77 192 264 192
c10 0 20 0 31 -1l252 50v-119h-81c39 -21 63 -56 63 -122c0 -124 -80 -179 -265 -179zM81 646l155 183h162l155 -183h-147l-91 86l-90 -86h-144zM317 -71c115 0 142 23 142 65c0 41 -32 52 -142 52c-126 0 -142 -21 -142 -59c0 -41 27 -58 142 -58zM313 312
c86 0 111 25 111 73c0 49 -28 73 -111 73c-85 0 -111 -24 -111 -73c0 -48 26 -73 111 -73z" />
    <glyph glyph-name="gdotaccent" unicode="&#x121;" horiz-adv-x="652" 
d="M313 208c-27 0 -52 1 -75 3c-3 -6 -5 -13 -5 -20c0 -27 17 -31 93 -31c234 0 293 -35 293 -155c0 -136 -99 -184 -308 -184c-216 0 -294 24 -294 138c0 64 34 110 111 127c-30 21 -34 50 -34 80c0 32 9 58 28 79c-50 29 -73 76 -73 142c0 124 77 192 264 192
c10 0 20 0 31 -1l252 50v-119h-81c39 -21 63 -56 63 -122c0 -124 -80 -179 -265 -179zM317 -71c115 0 142 23 142 65c0 41 -32 52 -142 52c-126 0 -142 -21 -142 -59c0 -41 27 -58 142 -58zM313 312c86 0 111 25 111 73c0 49 -28 73 -111 73c-85 0 -111 -24 -111 -73
c0 -48 26 -73 111 -73zM246 618v139h159v-139h-159z" />
    <glyph glyph-name="hbar" unicode="&#x127;" horiz-adv-x="664" 
d="M62 0v613h-62v103h62v60h156v-60h116v-103h-116v-85c23 25 77 51 184 51c171 0 203 -95 203 -236v-343h-156v312c0 69 -8 119 -103 119c-109 0 -127 -51 -127 -126v-305h-157z" />
    <glyph glyph-name="hcircumflex" unicode="&#x125;" horiz-adv-x="664" 
d="M-95 796l155 183h162l155 -183h-147l-91 86l-90 -86h-144zM62 0v776h156v-248c23 25 77 51 184 51c171 0 203 -95 203 -236v-343h-156v312c0 69 -8 119 -103 119c-109 0 -127 -51 -127 -126v-305h-157z" />
    <glyph glyph-name="ibreve" unicode="&#x12d;" horiz-adv-x="293" 
d="M68 0v566h156v-566h-156zM147 605c-148 0 -192 78 -215 196l113 21c15 -68 34 -97 102 -97s87 29 102 97l114 -20c-25 -119 -69 -197 -216 -197z" />
    <glyph glyph-name="ij" unicode="&#x133;" horiz-adv-x="586" 
d="M68 0v566h156v-566h-156zM67 618v143h158v-143h-158zM295 -169v119h12c48 0 53 14 53 73v543h156v-542c0 -153 -39 -193 -192 -193h-29zM359 618v143h158v-143h-158z" />
    <glyph glyph-name="itilde" unicode="&#x129;" horiz-adv-x="293" 
d="M68 0v566h156v-566h-156zM-7 616l-87 71c54 67 112 108 168 108c70 0 92 -54 138 -54c23 0 50 18 84 59l87 -71c-54 -67 -112 -110 -168 -110c-67 0 -91 54 -138 54c-22 0 -51 -16 -84 -57z" />
    <glyph glyph-name="jcircumflex" unicode="&#x135;" horiz-adv-x="293" 
d="M3 -169v119h12c48 0 53 14 53 73v543h156v-542c0 -153 -39 -193 -192 -193h-29zM-89 620l155 183h162l155 -183h-147l-91 86l-90 -86h-144z" />
    <glyph glyph-name="kgreenlandic" unicode="&#x138;" horiz-adv-x="605" 
d="M62 0v566h155v-234l193 234h171l-190 -231l207 -335h-174l-139 218l-68 -81v-137h-155z" />
    <glyph glyph-name="ldot" unicode="&#x140;" horiz-adv-x="605" 
d="M223 -2c-102 0 -155 39 -155 173v605h156v-586c0 -46 9 -59 56 -59h19v-129c-13 -2 -44 -4 -76 -4zM361 274v184h182v-184h-182z" />
    <glyph glyph-name="napostrophe" unicode="&#x149;" horiz-adv-x="914" 
d="M98 393l-38 77c69 32 81 46 81 90h-86v181h182v-128c0 -126 -17 -167 -139 -220zM312 0v557l122 9l13 -49c30 33 85 62 205 62c171 0 203 -95 203 -236v-343h-156v312c0 69 -8 119 -103 119c-109 0 -127 -51 -127 -126v-305h-157z" />
    <glyph glyph-name="obreve" unicode="&#x14f;" horiz-adv-x="661" 
d="M331 -11c-213 0 -296 105 -296 295s83 295 296 295s295 -105 295 -295s-82 -295 -295 -295zM331 123c108 0 138 61 138 157s-30 156 -138 156c-109 0 -138 -60 -138 -156s29 -157 138 -157zM330 605c-148 0 -192 78 -215 196l113 21c15 -68 34 -97 102 -97s87 29 102 97
l114 -20c-25 -119 -69 -197 -216 -197z" />
    <glyph glyph-name="oslashacute" unicode="&#x1ff;" horiz-adv-x="661" 
d="M331 -11c-42 0 -78 4 -110 11l-27 -43h-140l60 94c-57 50 -79 129 -79 233c0 190 75 295 296 295c41 0 77 -4 108 -11l28 43h141l-61 -95c56 -50 79 -128 79 -232c0 -190 -74 -295 -295 -295zM227 620l141 183h189l-191 -183h-139zM331 119c112 0 141 64 141 161
c0 40 -5 74 -19 100l-161 -258c11 -2 24 -3 39 -3zM190 280c0 -38 4 -71 16 -97l158 254c-10 2 -21 3 -33 3c-113 0 -141 -63 -141 -160z" />
    <glyph glyph-name="scircumflex" unicode="&#x15d;" horiz-adv-x="573" 
d="M49 620l155 183h162l155 -183h-147l-91 86l-90 -86h-144zM280 -9c-97 0 -194 20 -270 71l80 115c59 -38 136 -59 200 -59c79 0 102 8 102 47c0 33 -23 40 -100 50c-140 19 -247 39 -247 187c0 115 68 177 247 177c91 0 179 -18 239 -52l-75 -122c-40 21 -102 37 -159 37
c-80 0 -96 -14 -96 -41c0 -32 20 -39 93 -49c144 -20 251 -37 251 -178c0 -130 -70 -183 -265 -183z" />
    <glyph glyph-name="tbar" unicode="&#x167;" horiz-adv-x="453" 
d="M25 432v134h100l27 138l122 25v-163h134v-134h-134v-78h134v-124h-134v-31c0 -44 6 -68 73 -68h61v-131c-23 -2 -65 -2 -93 -2c-153 0 -197 52 -197 178v54h-93v124h93v78h-93z" />
    <glyph glyph-name="ubreve" unicode="&#x16d;" horiz-adv-x="656" 
d="M329 -9c-216 0 -270 79 -270 273v302h157v-305c0 -79 2 -134 114 -134c111 0 113 56 113 135v304h154v-301c0 -194 -52 -274 -268 -274zM328 605c-148 0 -192 78 -215 196l113 21c15 -68 34 -97 102 -97s87 29 102 97l114 -20c-25 -119 -69 -197 -216 -197z" />
    <glyph glyph-name="utilde" unicode="&#x169;" horiz-adv-x="656" 
d="M329 -9c-216 0 -270 79 -270 273v302h157v-305c0 -79 2 -134 114 -134c111 0 113 56 113 135v304h154v-301c0 -194 -52 -274 -268 -274zM179 616l-87 71c54 67 112 108 168 108c70 0 92 -54 138 -54c23 0 50 18 84 59l87 -71c-54 -67 -112 -110 -168 -110
c-67 0 -91 54 -138 54c-22 0 -51 -16 -84 -57z" />
    <glyph glyph-name="wacute" unicode="&#x1e83;" horiz-adv-x="920" 
d="M356 620l141 183h189l-191 -183h-139zM194 -6l-185 572h165l104 -345l108 345h155l108 -344l104 344h158l-184 -572h-150l-117 364l-117 -364h-149z" />
    <glyph glyph-name="wcircumflex" unicode="&#x175;" horiz-adv-x="920" 
d="M223 620l155 183h162l155 -183h-147l-91 86l-90 -86h-144zM194 -6l-185 572h165l104 -345l108 345h155l108 -344l104 344h158l-184 -572h-150l-117 364l-117 -364h-149z" />
    <glyph glyph-name="wdieresis" unicode="&#x1e85;" horiz-adv-x="920" 
d="M275 625v136h142v-136h-142zM502 625v136h141v-136h-141zM194 -6l-185 572h165l104 -345l108 345h155l108 -344l104 344h158l-184 -572h-150l-117 364l-117 -364h-149z" />
    <glyph glyph-name="wgrave" unicode="&#x1e81;" horiz-adv-x="920" 
d="M194 -6l-185 572h165l104 -345l108 345h155l108 -344l104 344h158l-184 -572h-150l-117 364l-117 -364h-149zM423 620l-191 183h189l141 -183h-139z" />
    <glyph glyph-name="ycircumflex" unicode="&#x177;" horiz-adv-x="584" 
d="M134 -170c-12 0 -39 1 -56 2v118h42c63 0 78 9 88 42l7 21l-216 553h169l131 -360l127 360h159l-227 -591c-39 -105 -87 -145 -224 -145zM61 620l155 183h162l155 -183h-147l-91 86l-90 -86h-144z" />
    <glyph glyph-name="ygrave" unicode="&#x1ef3;" horiz-adv-x="584" 
d="M134 -170c-12 0 -39 1 -56 2v118h42c63 0 78 9 88 42l7 21l-216 553h169l131 -360l127 360h159l-227 -591c-39 -105 -87 -145 -224 -145zM267 620l-191 183h189l141 -183h-139z" />
    <glyph glyph-name="aringacute.alt" horiz-adv-x="676" 
d="M234 937l141 183h189l-191 -183h-139zM337 604c-102 0 -143 63 -143 145s41 147 143 147c97 0 142 -65 142 -147s-45 -145 -142 -145zM337 681c47 0 64 30 64 68c0 39 -17 69 -64 69c-48 0 -65 -30 -65 -69c0 -38 17 -68 65 -68zM281 -9c-194 0 -246 132 -246 295
c0 162 53 292 251 292c103 0 161 -21 191 -58l31 49l106 -9v-554l-121 -11l-16 57c-34 -40 -87 -61 -196 -61zM318 124c105 0 138 53 138 162c0 107 -27 152 -138 152c-103 0 -124 -62 -124 -152c0 -91 21 -162 124 -162z" />
    <glyph glyph-name="gcircumflex.alt" horiz-adv-x="681" 
d="M105 620l155 183h162l155 -183h-147l-91 86l-90 -86h-144zM325 -179c-108 0 -192 14 -255 39l49 125c56 -21 123 -34 185 -34c144 0 158 33 158 99v13c-48 -45 -103 -55 -184 -55c-170 0 -243 121 -243 284s60 287 251 287c101 0 161 -19 196 -58l32 48l105 -9v-468
c0 -166 -21 -271 -294 -271zM318 139c105 0 144 52 144 152c0 101 -34 147 -144 147c-100 0 -124 -61 -124 -147c0 -84 23 -152 124 -152z" />
    <glyph glyph-name="gdotaccent.alt" horiz-adv-x="681" 
d="M325 -179c-108 0 -192 14 -255 39l49 125c56 -21 123 -34 185 -34c144 0 158 33 158 99v13c-48 -45 -103 -55 -184 -55c-170 0 -243 121 -243 284s60 287 251 287c101 0 161 -19 196 -58l32 48l105 -9v-468c0 -166 -21 -271 -294 -271zM318 139c105 0 144 52 144 152
c0 101 -34 147 -144 147c-100 0 -124 -61 -124 -147c0 -84 23 -152 124 -152zM256 618v139h159v-139h-159z" />
    <glyph glyph-name="ldot.alt" horiz-adv-x="606" 
d="M68 0v776h156v-776h-156zM357 274v184h182v-184h-182z" />
    <glyph glyph-name="ubreve.alt" horiz-adv-x="663" 
d="M265 -11c-164 0 -206 91 -206 233v344h157v-317c0 -74 12 -122 102 -122c109 0 124 52 124 128v311h158v-560l-120 -11l-15 57c-36 -42 -108 -63 -200 -63zM327 605c-148 0 -192 78 -215 196l113 21c15 -68 34 -97 102 -97s87 29 102 97l114 -20
c-25 -119 -69 -197 -216 -197z" />
    <glyph glyph-name="utilde.alt" horiz-adv-x="663" 
d="M265 -11c-164 0 -206 91 -206 233v344h157v-317c0 -74 12 -122 102 -122c109 0 124 52 124 128v311h158v-560l-120 -11l-15 57c-36 -42 -108 -63 -200 -63zM178 616l-87 71c54 67 112 108 168 108c70 0 92 -54 138 -54c23 0 50 18 84 59l87 -71
c-54 -67 -112 -110 -168 -110c-67 0 -91 54 -138 54c-22 0 -51 -16 -84 -57z" />
    <glyph glyph-name="tonos" unicode="&#x384;" horiz-adv-x="590" 
d="M232 620l79 183h145l-106 -183h-118z" />
    <glyph glyph-name="dieresistonos" unicode="&#x385;" horiz-adv-x="590" 
d="M62 620v136h111v-136h-111zM418 620v136h111v-136h-111zM204 620l71 183h137l-98 -183h-110z" />
    <glyph glyph-name="Alphatonos" unicode="&#x386;" horiz-adv-x="804" 
d="M21 562l79 183h145l-106 -183h-118zM29 0l297 746h166l299 -746h-170l-48 122h-336l-48 -122h-160zM289 257h232l-116 295z" />
    <glyph glyph-name="Epsilontonos" unicode="&#x388;" horiz-adv-x="899" 
d="M21 558l79 183h145l-106 -183h-118zM285 0v741h557v-148h-393v-144h383v-143h-383v-164h397v-142h-561z" />
    <glyph glyph-name="Etatonos" unicode="&#x389;" horiz-adv-x="1027" 
d="M21 558l79 183h145l-106 -183h-118zM285 0v741h164v-284h339v284h164v-741h-164v304h-339v-304h-164z" />
    <glyph glyph-name="Iotatonos" unicode="&#x38a;" horiz-adv-x="544" 
d="M21 558l79 183h145l-106 -183h-118zM294 0v741h163v-741h-163z" />
    <glyph glyph-name="Omicrontonos" unicode="&#x38c;" horiz-adv-x="1014" 
d="M21 558l79 183h145l-106 -183h-118zM587 -12c-236 0 -392 104 -392 383c0 278 156 382 392 382s393 -104 393 -382c0 -279 -157 -383 -393 -383zM587 132c170 0 227 91 227 236s-57 235 -227 235s-227 -90 -227 -235s57 -236 227 -236z" />
    <glyph glyph-name="Upsilontonos" unicode="&#x38e;" horiz-adv-x="1031" 
d="M569 0v260l-295 481h176l204 -334l204 334h169l-295 -481v-260h-163zM21 558l79 183h145l-106 -183h-118z" />
    <glyph glyph-name="Omegatonos" unicode="&#x38f;" horiz-adv-x="1040" 
d="M596 753c271 0 393 -151 393 -330c0 -146 -70 -236 -212 -263v-26h223v-134h-340v215c122 23 163 85 163 182c0 126 -76 206 -227 206c-152 0 -228 -80 -228 -206c0 -97 41 -159 163 -182v-215h-340v134h223v26c-141 27 -211 117 -211 263c0 179 121 330 393 330zM21 558
l79 183h145l-106 -183h-118z" />
    <glyph glyph-name="Alpha" unicode="&#x391;" horiz-adv-x="789" 
d="M14 0l297 746h166l299 -746h-170l-48 122h-336l-48 -122h-160zM274 257h232l-116 295z" />
    <glyph glyph-name="Beta" unicode="&#x392;" horiz-adv-x="755" 
d="M74 0v741h344c197 0 281 -55 281 -191c0 -86 -31 -140 -99 -164c87 -21 119 -77 119 -182c0 -161 -104 -204 -303 -204h-342zM235 136h200c84 0 118 23 118 84s-33 83 -118 83h-200v-167zM235 445h189c87 0 109 29 109 81s-26 76 -109 76h-189v-157z" />
    <glyph glyph-name="Gamma" unicode="&#x393;" horiz-adv-x="652" 
d="M238 593v-593h-164v741h539v-148h-375z" />
    <glyph glyph-name="uni0394" unicode="&#x394;" horiz-adv-x="789" 
d="M14 0l297 746h166l298 -746h-761zM226 135h327l-164 417z" />
    <glyph glyph-name="Epsilon" unicode="&#x395;" horiz-adv-x="687" 
d="M74 0v741h557v-148h-393v-144h383v-143h-383v-164h397v-142h-561z" />
    <glyph glyph-name="Zeta" unicode="&#x396;" horiz-adv-x="692" 
d="M32 0v122l407 471h-390v148h597v-134l-401 -465h412v-142h-625z" />
    <glyph glyph-name="Eta" unicode="&#x397;" horiz-adv-x="815" 
d="M74 0v741h164v-284h339v284h164v-741h-164v304h-339v-304h-164z" />
    <glyph glyph-name="Theta" unicode="&#x398;" horiz-adv-x="853" 
d="M280 298v143h292v-143h-292zM426 -12c-236 0 -392 104 -392 383c0 278 156 382 392 382s393 -104 393 -382c0 -279 -157 -383 -393 -383zM426 132c170 0 227 91 227 236s-57 235 -227 235s-227 -90 -227 -235s57 -236 227 -236z" />
    <glyph glyph-name="Iota" unicode="&#x399;" horiz-adv-x="333" 
d="M85 0v741h163v-741h-163z" />
    <glyph glyph-name="Kappa" unicode="&#x39a;" horiz-adv-x="760" 
d="M549 0l-208 323l-105 -124v-199h-162v741h162v-335l281 335h181l-251 -293l287 -448h-185z" />
    <glyph glyph-name="Lambda" unicode="&#x39b;" horiz-adv-x="781" 
d="M308 -5l-293 746h172l207 -542l206 542h169l-295 -746h-166z" />
    <glyph glyph-name="Mu" unicode="&#x39c;" horiz-adv-x="978" 
d="M74 0v741h214l201 -506l201 506h213v-741h-160v495l-199 -495h-124l-198 492v-492h-148z" />
    <glyph glyph-name="Nu" unicode="&#x39d;" horiz-adv-x="823" 
d="M74 0v741h177l341 -467v467h156v-741h-150l-367 500v-500h-157z" />
    <glyph glyph-name="Xi" unicode="&#x39e;" horiz-adv-x="683" 
d="M55 593v148h571v-148h-571zM111 308v143h462v-143h-462zM51 0v142h581v-142h-581z" />
    <glyph glyph-name="Omicron" unicode="&#x39f;" horiz-adv-x="853" 
d="M426 -12c-236 0 -392 104 -392 383c0 278 156 382 392 382s393 -104 393 -382c0 -279 -157 -383 -393 -383zM426 132c170 0 227 91 227 236s-57 235 -227 235s-227 -90 -227 -235s57 -236 227 -236z" />
    <glyph glyph-name="Pi" unicode="&#x3a0;" horiz-adv-x="790" 
d="M74 0v741h641v-741h-164v595h-315v-595h-162z" />
    <glyph glyph-name="Rho" unicode="&#x3a1;" horiz-adv-x="760" 
d="M74 0v741h356c228 0 296 -96 296 -248s-64 -266 -304 -266h-188v-227h-160zM234 367h195c93 0 133 32 133 118c0 89 -38 116 -135 116h-193v-234z" />
    <glyph glyph-name="Sigma" unicode="&#x3a3;" horiz-adv-x="662" 
d="M32 0v122l227 248l-216 237v134h567v-148h-359l203 -223l-209 -228h382v-142h-595z" />
    <glyph glyph-name="Tau" unicode="&#x3a4;" horiz-adv-x="706" 
d="M271 0v593h-257v148h678v-148h-256v-593h-165z" />
    <glyph glyph-name="Upsilon" unicode="&#x3a5;" horiz-adv-x="760" 
d="M298 0v260l-295 481h176l204 -334l204 334h169l-295 -481v-260h-163z" />
    <glyph glyph-name="Phi" unicode="&#x3a6;" horiz-adv-x="914" 
d="M376 0v47c-216 17 -354 114 -354 324c0 209 138 305 354 323v47h163v-47c215 -18 354 -115 354 -323c0 -210 -139 -306 -354 -324v-47h-163zM187 368c0 -90 47 -157 189 -175v350c-142 -18 -189 -85 -189 -175zM727 368c0 90 -48 157 -188 175v-350
c140 18 188 85 188 175z" />
    <glyph glyph-name="Chi" unicode="&#x3a7;" horiz-adv-x="781" 
d="M569 0l-186 267l-176 -267h-181l272 389l-244 352h184l159 -228l150 228h181l-247 -349l274 -392h-186z" />
    <glyph glyph-name="Psi" unicode="&#x3a8;" horiz-adv-x="813" 
d="M325 0v247c-210 16 -269 99 -269 272v222h156v-225c0 -65 6 -114 113 -129v354h164v-354c108 15 113 64 113 130v224h155v-221c0 -173 -64 -257 -268 -273v-247h-164z" />
    <glyph glyph-name="uni03A9" unicode="&#x3a9;" horiz-adv-x="887" 
d="M444 753c271 0 393 -151 393 -330c0 -146 -70 -236 -212 -263v-26h223v-134h-340v215c122 23 163 85 163 182c0 126 -76 206 -227 206c-152 0 -228 -80 -228 -206c0 -97 41 -159 163 -182v-215h-340v134h223v26c-141 27 -211 117 -211 263c0 179 121 330 393 330z" />
    <glyph glyph-name="Iotadieresis" unicode="&#x3aa;" horiz-adv-x="333" 
d="M-17 789v136h142v-136h-142zM210 789v136h141v-136h-141zM85 0v741h163v-741h-163z" />
    <glyph glyph-name="Upsilondieresis" unicode="&#x3ab;" horiz-adv-x="760" 
d="M298 0v260l-295 481h176l204 -334l204 334h169l-295 -481v-260h-163zM195 789v136h142v-136h-142zM422 789v136h141v-136h-141z" />
    <glyph glyph-name="alphatonos" unicode="&#x3ac;" horiz-adv-x="697" 
d="M261 620l79 183h145l-106 -183h-118zM318 124c105 0 138 53 138 162c0 107 -27 152 -138 152c-103 0 -124 -62 -124 -152c0 -91 21 -162 124 -162zM486 61c-37 -49 -96 -70 -205 -70c-194 0 -246 132 -246 295c0 162 53 292 251 292c103 0 161 -21 191 -58l31 49l106 -9
v-378c0 -45 3 -52 49 -52v-128c-11 -3 -31 -4 -66 -4c-60 0 -92 13 -111 63z" />
    <glyph glyph-name="epsilontonos" unicode="&#x3ad;" horiz-adv-x="522" 
d="M212 620l79 183h145l-106 -183h-118zM270 -13c-177 0 -237 64 -237 176c0 80 30 118 88 133c-49 18 -72 53 -72 123c0 112 82 161 215 161c107 0 192 -28 248 -71l-80 -98c-37 23 -79 37 -145 37c-61 0 -83 -21 -83 -50c0 -31 11 -49 88 -49h86v-112h-80
c-100 0 -112 -23 -112 -57c0 -41 24 -64 99 -64c69 0 108 16 153 47l85 -96c-67 -58 -146 -80 -253 -80z" />
    <glyph glyph-name="etatonos" unicode="&#x3ae;" horiz-adv-x="664" 
d="M276 620l79 183h145l-106 -183h-118zM62 0v557l122 9l13 -49c30 33 85 62 205 62c171 0 203 -95 203 -236v-508h-156v477c0 69 -8 119 -103 119c-109 0 -127 -51 -127 -126v-305h-157z" />
    <glyph glyph-name="iotatonos" unicode="&#x3af;" horiz-adv-x="293" 
d="M85 620l79 183h145l-106 -183h-118zM68 0v566h156v-566h-156z" />
    <glyph glyph-name="upsilontonos" unicode="&#x3cd;" horiz-adv-x="656" 
d="M268 620l79 183h145l-106 -183h-118zM329 -9c-216 0 -270 79 -270 273v302h157v-305c0 -79 2 -134 114 -134c111 0 113 56 113 135v304h154v-301c0 -194 -52 -274 -268 -274z" />
    <glyph glyph-name="alpha" unicode="&#x3b1;" horiz-adv-x="697" 
d="M318 124c105 0 138 53 138 162c0 107 -27 152 -138 152c-103 0 -124 -62 -124 -152c0 -91 21 -162 124 -162zM486 61c-37 -49 -96 -70 -205 -70c-194 0 -246 132 -246 295c0 162 53 292 251 292c103 0 161 -21 191 -58l31 49l106 -9v-378c0 -45 3 -52 49 -52v-128
c-11 -3 -31 -4 -66 -4c-60 0 -92 13 -111 63z" />
    <glyph glyph-name="beta" unicode="&#x3b2;" horiz-adv-x="695" 
d="M62 -165v684c0 134 46 265 283 265c176 0 259 -72 259 -202c0 -106 -25 -150 -86 -176c92 -18 145 -62 145 -187c0 -153 -53 -219 -313 -219h-60v133h55c142 0 163 37 163 97c0 70 -35 91 -195 91v123c109 0 136 28 136 96c0 59 -26 92 -107 92c-90 0 -125 -39 -125 -119
v-678h-155z" />
    <glyph glyph-name="gamma" unicode="&#x3b3;" horiz-adv-x="613" 
d="M224 -166v160l-225 572h169l143 -384l143 384h159l-225 -572v-160h-164z" />
    <glyph glyph-name="delta" unicode="&#x3b4;" horiz-adv-x="661" 
d="M331 -11c-213 0 -296 112 -296 265c0 140 70 246 248 262l-185 154v106h464v-133h-237l210 -178c64 -46 91 -120 91 -211c0 -153 -82 -265 -295 -265zM331 123c108 0 138 59 138 126c0 75 -30 134 -138 134c-109 0 -138 -59 -138 -134c0 -67 29 -126 138 -126z" />
    <glyph glyph-name="epsilon" unicode="&#x3b5;" horiz-adv-x="534" 
d="M270 -13c-177 0 -237 64 -237 176c0 80 30 118 88 133c-49 18 -72 53 -72 123c0 112 82 161 215 161c107 0 192 -28 248 -71l-80 -98c-37 23 -79 37 -145 37c-61 0 -83 -21 -83 -50c0 -31 11 -49 88 -49h86v-112h-80c-100 0 -112 -23 -112 -57c0 -41 24 -64 99 -64
c69 0 108 16 153 47l85 -96c-67 -58 -146 -80 -253 -80z" />
    <glyph glyph-name="zeta" unicode="&#x3b6;" horiz-adv-x="540" 
d="M334 -161c-55 0 -97 14 -133 34l38 73c31 -16 63 -25 89 -25c48 0 63 13 63 38c0 26 -23 34 -76 37c-224 4 -280 123 -280 242c0 155 92 254 266 405h-265v133h476v-107c-253 -200 -319 -307 -319 -415c0 -64 27 -119 134 -131c128 -13 170 -54 170 -140
c0 -96 -50 -144 -163 -144z" />
    <glyph glyph-name="eta" unicode="&#x3b7;" horiz-adv-x="664" 
d="M62 0v557l122 9l13 -49c30 33 85 62 205 62c171 0 203 -95 203 -236v-508h-156v477c0 69 -8 119 -103 119c-109 0 -127 -51 -127 -126v-305h-157z" />
    <glyph glyph-name="theta" unicode="&#x3b8;" horiz-adv-x="772" 
d="M387 -11c-238 0 -325 149 -325 398c0 250 87 398 325 398c234 0 323 -148 323 -398c0 -249 -89 -398 -323 -398zM387 643c-115 0 -154 -78 -162 -204h321c-7 126 -45 204 -159 204zM387 125c112 0 150 80 159 203h-320c8 -123 48 -203 161 -203z" />
    <glyph glyph-name="iota" unicode="&#x3b9;" horiz-adv-x="293" 
d="M68 0v566h156v-566h-156z" />
    <glyph glyph-name="kappa" unicode="&#x3ba;" horiz-adv-x="605" 
d="M62 0v566h155v-234l193 234h171l-190 -231l207 -335h-174l-139 218l-68 -81v-137h-155z" />
    <glyph glyph-name="lambda" unicode="&#x3bb;" horiz-adv-x="611" 
d="M134 777c137 0 197 -40 237 -145l241 -632h-169l-140 391l-145 -391h-159l227 574l-16 41c-13 32 -27 42 -90 42h-42v118c17 1 44 2 56 2z" />
    <glyph glyph-name="uni03BC" unicode="&#x3bc;" horiz-adv-x="666" 
d="M268 -11c-23 0 -44 2 -62 5v-159h-144v731h157v-317c0 -74 12 -122 102 -122c109 0 124 52 124 128v311h158v-560l-120 -11l-15 57c-36 -42 -108 -63 -200 -63z" />
    <glyph glyph-name="nu" unicode="&#x3bd;" horiz-adv-x="613" 
d="M224 -6l-225 572h169l143 -384l143 384h159l-225 -572h-164z" />
    <glyph glyph-name="xi" unicode="&#x3be;" horiz-adv-x="540" 
d="M334 -161c-55 0 -97 14 -133 34l38 73c31 -16 63 -25 89 -25c48 0 63 13 63 38c0 26 -24 34 -76 37c-222 3 -280 91 -280 210s67 178 168 195c-81 14 -113 58 -113 128c0 58 31 99 73 114h-127v133h476v-133h-126c-106 0 -146 -30 -146 -94c0 -61 26 -95 161 -97v-108
c-4 0 -32 0 -36 -1c-147 -2 -175 -45 -175 -106c0 -72 33 -103 137 -114c129 -12 170 -54 170 -140c0 -96 -50 -144 -163 -144z" />
    <glyph glyph-name="omicron" unicode="&#x3bf;" horiz-adv-x="661" 
d="M331 -11c-213 0 -296 105 -296 295s83 295 296 295s295 -105 295 -295s-82 -295 -295 -295zM331 123c108 0 138 61 138 157s-30 156 -138 156c-109 0 -138 -60 -138 -156s29 -157 138 -157z" />
    <glyph glyph-name="rho" unicode="&#x3c1;" horiz-adv-x="681" 
d="M62 -165l-1 449c0 191 82 295 297 295c235 0 288 -132 288 -295s-51 -293 -251 -293c-102 0 -147 18 -176 53v-209h-157zM364 124c101 0 123 64 123 154c0 91 -20 158 -123 158c-108 0 -145 -53 -145 -158c0 -108 31 -154 145 -154z" />
    <glyph glyph-name="sigma1" unicode="&#x3c2;" horiz-adv-x="587" 
d="M344 -161c-55 0 -97 14 -134 34l39 73c30 -16 63 -25 89 -25c48 0 63 13 63 38c0 28 -25 34 -76 34c-234 0 -290 123 -290 291c0 166 53 295 297 295c102 0 179 -34 230 -92l-110 -104c-24 25 -56 52 -120 52c-112 0 -139 -59 -139 -155s25 -150 142 -159
c119 -12 172 -43 172 -139c0 -95 -49 -143 -163 -143z" />
    <glyph glyph-name="sigma" unicode="&#x3c3;" horiz-adv-x="693" 
d="M331 -11c-213 0 -296 105 -296 295s83 295 296 295c65 0 118 -10 160 -29h200v-134h-83c12 -38 18 -82 18 -132c0 -190 -82 -295 -295 -295zM331 123c108 0 138 61 138 157s-30 156 -138 156c-109 0 -138 -60 -138 -156s29 -157 138 -157z" />
    <glyph glyph-name="tau" unicode="&#x3c4;" horiz-adv-x="593" 
d="M10 432v134h573v-134h-208v-432h-157v432h-208z" />
    <glyph glyph-name="upsilon" unicode="&#x3c5;" horiz-adv-x="656" 
d="M329 -9c-216 0 -270 79 -270 273v302h157v-305c0 -79 2 -134 114 -134c111 0 113 56 113 135v304h154v-301c0 -194 -52 -274 -268 -274z" />
    <glyph glyph-name="phi" unicode="&#x3c6;" horiz-adv-x="797" 
d="M35 284c0 137 44 225 144 264l56 -140c-31 -24 -42 -67 -42 -128c0 -91 25 -148 121 -156v455h164c205 -6 283 -110 283 -295c0 -186 -78 -289 -283 -295v-154h-164v155c-202 7 -279 110 -279 294zM604 280c0 92 -26 149 -126 155v-312c100 6 126 64 126 157z" />
    <glyph glyph-name="chi" unicode="&#x3c7;" horiz-adv-x="599" 
d="M418 0l-127 182l-121 -182h-165l207 296l-188 270h175l109 -157l103 157h165l-188 -271l206 -295h-176z" />
    <glyph glyph-name="psi" unicode="&#x3c8;" horiz-adv-x="806" 
d="M323 -165v154c-213 4 -264 85 -264 275v302h157v-305c0 -76 1 -129 107 -134v439h163v-439c105 5 107 59 107 135v304h154v-301c0 -189 -51 -272 -261 -276v-154h-163z" />
    <glyph glyph-name="omega" unicode="&#x3c9;" horiz-adv-x="903" 
d="M529 482v-238c3 -92 35 -120 89 -120c60 0 87 33 87 130c0 59 -19 141 -79 242l127 78c77 -125 107 -226 107 -342c0 -176 -102 -243 -222 -243c-110 0 -164 44 -187 141c-22 -97 -76 -141 -186 -141c-120 0 -222 67 -222 243c0 116 30 217 107 342l127 -78
c-60 -101 -78 -183 -78 -242c0 -97 27 -130 86 -130c54 0 89 28 89 120v238h155z" />
    <glyph glyph-name="iotadieresis" unicode="&#x3ca;" horiz-adv-x="293" 
d="M-16 625v136h126v-136h-126zM183 625v136h126v-136h-126zM68 0v566h156v-566h-156z" />
    <glyph glyph-name="iotadieresistonos" unicode="&#x390;" horiz-adv-x="293" 
d="M-86 620v136h111v-136h-111zM270 620v136h111v-136h-111zM56 620l71 183h137l-98 -183h-110zM68 0v566h156v-566h-156z" />
    <glyph glyph-name="upsilondieresis" unicode="&#x3cb;" horiz-adv-x="656" 
d="M144 625v136h142v-136h-142zM371 625v136h141v-136h-141zM329 -9c-216 0 -270 79 -270 273v302h157v-305c0 -79 2 -134 114 -134c111 0 113 56 113 135v304h154v-301c0 -194 -52 -274 -268 -274z" />
    <glyph glyph-name="upsilondieresistonos" unicode="&#x3b0;" horiz-adv-x="656" 
d="M95 620v136h111v-136h-111zM451 620v136h111v-136h-111zM237 620l71 183h137l-98 -183h-110zM329 -9c-216 0 -270 79 -270 273v302h157v-305c0 -79 2 -134 114 -134c111 0 113 56 113 135v304h154v-301c0 -194 -52 -274 -268 -274z" />
    <glyph glyph-name="omegatonos" unicode="&#x3ce;" horiz-adv-x="923" 
d="M407 620l79 183h145l-106 -183h-118zM542 482v-238c3 -92 35 -120 89 -120c60 0 87 33 87 130c0 59 -19 141 -79 242l127 78c77 -125 107 -226 107 -342c0 -176 -102 -243 -222 -243c-110 0 -164 44 -187 141c-22 -97 -76 -141 -186 -141c-120 0 -222 67 -222 243
c0 116 30 217 107 342l127 -78c-60 -101 -78 -183 -78 -242c0 -97 27 -130 86 -130c54 0 89 28 89 120v238h155z" />
    <glyph glyph-name="omicrontonos" unicode="&#x3cc;" horiz-adv-x="661" 
d="M262 620l79 183h145l-106 -183h-118zM331 -11c-213 0 -296 105 -296 295s83 295 296 295s295 -105 295 -295s-82 -295 -295 -295zM331 123c108 0 138 61 138 157s-30 156 -138 156c-109 0 -138 -60 -138 -156s29 -157 138 -157z" />
    <glyph glyph-name="longs" unicode="&#x17f;" horiz-adv-x="444" 
d="M132 0v593c0 129 47 201 214 201c37 0 57 -1 75 -2v-128h-54c-64 0 -79 -25 -79 -70v-594h-156z" />
    <glyph glyph-name="litre" unicode="&#x2113;" horiz-adv-x="538" 
d="M294 338v-138c0 -56 21 -72 56 -72c36 0 54 19 68 35l57 -75c-26 -33 -81 -93 -180 -93s-158 38 -158 182v34l-43 -35l-48 92l91 72v220c0 112 57 204 179 204c105 0 150 -71 150 -151c0 -111 -63 -184 -152 -258zM366 606c0 39 -10 55 -33 55c-26 0 -39 -23 -39 -101
v-94c51 48 72 89 72 140z" />
    <glyph glyph-name="estimated" unicode="&#x212e;" horiz-adv-x="656" 
d="M621 289h-441c0 -97 0 -143 21 -178c29 -48 84 -78 158 -78c92 0 164 39 205 94h12l26 -31c-55 -68 -147 -108 -247 -108c-196 0 -298 128 -298 305c0 170 105 301 291 301c187 0 273 -159 273 -268v-37zM180 328h308c-5 153 2 227 -154 227c-138 0 -160 -56 -154 -227z
" />
    <glyph glyph-name="afii10072" unicode="&#x436;" horiz-adv-x="939" 
d="M750 0l-156 234h-51v-234h-147v234h-51l-156 -234h-182l217 308l-200 258h179l145 -198h48v198h147v-198h48l145 198h179l-201 -259l218 -307h-182z" />
    <glyph glyph-name="afii10076" unicode="&#x43a;" horiz-adv-x="613" 
d="M217 566v-198h49l144 198h180l-201 -259l218 -307h-183l-156 234h-51v-234h-155v566h155z" />
    <glyph glyph-name="uni1EA0" unicode="&#x1ea0;" horiz-adv-x="789" 
d="M14 0l297 746h166l299 -746h-170l-48 122h-336l-48 -122h-160zM274 257h232l-116 295zM314 -197v139h159v-139h-159z" />
    <glyph glyph-name="uni1EA1" unicode="&#x1ea1;" horiz-adv-x="645" 
d="M238 -9c-175 0 -213 76 -213 175c0 160 112 198 363 198h23c-1 51 -14 77 -112 77c-69 0 -130 -25 -164 -46l-78 115c40 27 140 69 259 69c204 0 246 -65 246 -225v-172c0 -45 3 -52 49 -52v-128c-11 -3 -31 -4 -66 -4c-60 0 -86 12 -108 56c-29 -39 -92 -63 -199 -63z
M269 117c99 0 142 35 142 118v21h-13c-200 0 -224 -16 -224 -77c0 -42 23 -62 95 -62zM241 -197v139h159v-139h-159z" />
    <glyph glyph-name="uni1EA2" unicode="&#x1ea2;" horiz-adv-x="789" 
d="M14 0l297 746h166l299 -746h-170l-48 122h-336l-48 -122h-160zM274 257h232l-116 295zM343 774c-9 47 1 81 53 111c34 20 42 26 42 41s-13 26 -48 26c-34 0 -65 -7 -92 -20l-44 89c36 18 87 27 143 27c103 0 159 -43 159 -102c0 -56 -24 -81 -62 -103
c-37 -22 -47 -37 -47 -69h-104z" />
    <glyph glyph-name="uni1EA3" unicode="&#x1ea3;" horiz-adv-x="645" 
d="M238 -9c-175 0 -213 76 -213 175c0 160 112 198 363 198h23c-1 51 -14 77 -112 77c-69 0 -130 -25 -164 -46l-78 115c40 27 140 69 259 69c204 0 246 -65 246 -225v-172c0 -45 3 -52 49 -52v-128c-11 -3 -31 -4 -66 -4c-60 0 -86 12 -108 56c-29 -39 -92 -63 -199 -63z
M265 616c-9 47 1 81 53 111c34 20 42 26 42 41s-13 26 -48 26c-34 0 -65 -7 -92 -20l-44 89c36 18 87 27 143 27c103 0 159 -43 159 -102c0 -56 -24 -81 -62 -103c-37 -22 -47 -37 -47 -69h-104zM269 117c99 0 142 35 142 118v21h-13c-200 0 -224 -16 -224 -77
c0 -42 23 -62 95 -62z" />
    <glyph glyph-name="uni1EA4" unicode="&#x1ea4;" horiz-adv-x="789" 
d="M14 0l297 746h166l299 -746h-170l-48 122h-336l-48 -122h-160zM274 257h232l-116 295zM27 883l141 184h189l-191 -184h-139zM157 781l155 183h162l155 -183h-147l-90 86l-91 -86h-144z" />
    <glyph glyph-name="uni1EA5" unicode="&#x1ea5;" horiz-adv-x="645" 
d="M238 -9c-175 0 -213 76 -213 175c0 160 112 198 363 198h23c-1 51 -14 77 -112 77c-69 0 -130 -25 -164 -46l-78 115c40 27 140 69 259 69c204 0 246 -65 246 -225v-172c0 -45 3 -52 49 -52v-128c-11 -3 -31 -4 -66 -4c-60 0 -86 12 -108 56c-29 -39 -92 -63 -199 -63z
M86 620l155 183h162l155 -183h-147l-90 86l-91 -86h-144zM-44 722l141 184h189l-191 -184h-139zM269 117c99 0 142 35 142 118v21h-13c-200 0 -224 -16 -224 -77c0 -42 23 -62 95 -62z" />
    <glyph glyph-name="uni1EA6" unicode="&#x1ea6;" horiz-adv-x="789" 
d="M14 0l297 746h166l299 -746h-170l-48 122h-336l-48 -122h-160zM274 257h232l-116 295zM621 883l-190 184h188l141 -184h-139zM157 781l155 183h162l155 -183h-147l-91 86l-90 -86h-144z" />
    <glyph glyph-name="uni1EA7" unicode="&#x1ea7;" horiz-adv-x="645" 
d="M238 -9c-175 0 -213 76 -213 175c0 160 112 198 363 198h23c-1 51 -14 77 -112 77c-69 0 -130 -25 -164 -46l-78 115c40 27 140 69 259 69c204 0 246 -65 246 -225v-172c0 -45 3 -52 49 -52v-128c-11 -3 -31 -4 -66 -4c-60 0 -86 12 -108 56c-29 -39 -92 -63 -199 -63z
M87 620l155 183h162l155 -183h-147l-91 86l-90 -86h-144zM551 722l-190 184h188l141 -184h-139zM269 117c99 0 142 35 142 118v21h-13c-200 0 -224 -16 -224 -77c0 -42 23 -62 95 -62z" />
    <glyph glyph-name="uni1EA8" unicode="&#x1ea8;" horiz-adv-x="789" 
d="M14 0l297 746h166l299 -746h-170l-48 122h-336l-48 -122h-160zM274 257h232l-116 295zM342 992c-8 47 2 81 54 111c34 21 41 26 41 41s-13 27 -48 27c-33 0 -65 -8 -91 -21l-45 90c37 17 88 27 144 27c103 0 159 -43 159 -103c0 -56 -24 -80 -63 -102
c-37 -22 -47 -38 -46 -70h-105zM157 781l155 183h162l155 -183h-147l-91 86l-90 -86h-144z" />
    <glyph glyph-name="uni1EA9" unicode="&#x1ea9;" horiz-adv-x="645" 
d="M238 -9c-175 0 -213 76 -213 175c0 160 112 198 363 198h23c-1 51 -14 77 -112 77c-69 0 -130 -25 -164 -46l-78 115c40 27 140 69 259 69c204 0 246 -65 246 -225v-172c0 -45 3 -52 49 -52v-128c-11 -3 -31 -4 -66 -4c-60 0 -86 12 -108 56c-29 -39 -92 -63 -199 -63z
M86 620l155 183h162l155 -183h-147l-91 86l-90 -86h-144zM271 831c-8 47 2 81 54 111c34 21 41 26 41 41s-13 27 -48 27c-33 0 -65 -8 -91 -21l-45 90c37 17 88 27 144 27c103 0 159 -43 159 -103c0 -56 -24 -80 -63 -102c-37 -22 -47 -38 -46 -70h-105zM269 117
c99 0 142 35 142 118v21h-13c-200 0 -224 -16 -224 -77c0 -42 23 -62 95 -62z" />
    <glyph glyph-name="uni1EAA" unicode="&#x1eaa;" horiz-adv-x="789" 
d="M14 0l297 746h166l299 -746h-170l-48 122h-336l-48 -122h-160zM274 257h232l-116 295zM244 987l-88 71c54 67 113 108 169 108c69 0 92 -53 138 -53c23 0 50 18 84 59l87 -72c-54 -66 -112 -109 -169 -109c-66 0 -90 54 -137 54c-22 0 -51 -16 -84 -58zM157 781l155 183
h162l155 -183h-147l-91 86l-90 -86h-144z" />
    <glyph glyph-name="uni1EAB" unicode="&#x1eab;" horiz-adv-x="645" 
d="M238 -9c-175 0 -213 76 -213 175c0 160 112 198 363 198h23c-1 51 -14 77 -112 77c-69 0 -130 -25 -164 -46l-78 115c40 27 140 69 259 69c204 0 246 -65 246 -225v-172c0 -45 3 -52 49 -52v-128c-11 -3 -31 -4 -66 -4c-60 0 -86 12 -108 56c-29 -39 -92 -63 -199 -63z
M174 826l-88 71c54 67 113 108 169 108c69 0 92 -53 138 -53c23 0 50 18 84 59l87 -72c-54 -66 -112 -109 -169 -109c-66 0 -90 54 -137 54c-22 0 -51 -16 -84 -58zM87 620l155 183h162l155 -183h-147l-91 86l-90 -86h-144zM269 117c99 0 142 35 142 118v21h-13
c-200 0 -224 -16 -224 -77c0 -42 23 -62 95 -62z" />
    <glyph glyph-name="uni1EAC" unicode="&#x1eac;" horiz-adv-x="789" 
d="M14 0l297 746h166l299 -746h-170l-48 122h-336l-48 -122h-160zM274 257h232l-116 295zM157 781l155 183h162l155 -183h-147l-91 86l-90 -86h-144zM314 -197v139h159v-139h-159z" />
    <glyph glyph-name="uni1EAD" unicode="&#x1ead;" horiz-adv-x="645" 
d="M238 -9c-175 0 -213 76 -213 175c0 160 112 198 363 198h23c-1 51 -14 77 -112 77c-69 0 -130 -25 -164 -46l-78 115c40 27 140 69 259 69c204 0 246 -65 246 -225v-172c0 -45 3 -52 49 -52v-128c-11 -3 -31 -4 -66 -4c-60 0 -86 12 -108 56c-29 -39 -92 -63 -199 -63z
M87 620l155 183h162l155 -183h-147l-91 86l-90 -86h-144zM269 117c99 0 142 35 142 118v21h-13c-200 0 -224 -16 -224 -77c0 -42 23 -62 95 -62zM242 -197v139h159v-139h-159z" />
    <glyph glyph-name="uni1EAE" unicode="&#x1eae;" horiz-adv-x="789" 
d="M14 0l297 746h166l299 -746h-170l-48 122h-336l-48 -122h-160zM274 257h232l-116 295zM320 1014l141 183h188l-190 -183h-139zM393 771c-148 0 -192 79 -215 197l113 21c15 -69 34 -97 102 -97s87 28 102 97l114 -20c-25 -119 -69 -198 -216 -198z" />
    <glyph glyph-name="uni1EAF" unicode="&#x1eaf;" horiz-adv-x="645" 
d="M238 -9c-175 0 -213 76 -213 175c0 160 112 198 363 198h23c-1 51 -14 77 -112 77c-69 0 -130 -25 -164 -46l-78 115c40 27 140 69 259 69c204 0 246 -65 246 -225v-172c0 -45 3 -52 49 -52v-128c-11 -3 -31 -4 -66 -4c-60 0 -86 12 -108 56c-29 -39 -92 -63 -199 -63z
M323 610c-148 0 -192 79 -215 197l113 21c15 -69 34 -97 102 -97s87 28 102 97l114 -20c-25 -119 -69 -198 -216 -198zM250 853l141 183h188l-190 -183h-139zM269 117c99 0 142 35 142 118v21h-13c-200 0 -224 -16 -224 -77c0 -42 23 -62 95 -62z" />
    <glyph glyph-name="uni1EB0" unicode="&#x1eb0;" horiz-adv-x="789" 
d="M14 0l297 746h166l299 -746h-170l-48 122h-336l-48 -122h-160zM274 257h232l-116 295zM328 1014l-190 183h188l141 -183h-139zM393 771c-148 0 -192 79 -215 197l113 21c15 -69 34 -97 102 -97s87 28 102 97l114 -20c-25 -119 -69 -198 -216 -198z" />
    <glyph glyph-name="uni1EB1" unicode="&#x1eb1;" horiz-adv-x="645" 
d="M238 -9c-175 0 -213 76 -213 175c0 160 112 198 363 198h23c-1 51 -14 77 -112 77c-69 0 -130 -25 -164 -46l-78 115c40 27 140 69 259 69c204 0 246 -65 246 -225v-172c0 -45 3 -52 49 -52v-128c-11 -3 -31 -4 -66 -4c-60 0 -86 12 -108 56c-29 -39 -92 -63 -199 -63z
M323 610c-148 0 -192 79 -215 197l113 21c15 -69 34 -97 102 -97s87 28 102 97l114 -20c-25 -119 -69 -198 -216 -198zM258 853l-190 183h188l141 -183h-139zM269 117c99 0 142 35 142 118v21h-13c-200 0 -224 -16 -224 -77c0 -42 23 -62 95 -62z" />
    <glyph glyph-name="uni1EB2" unicode="&#x1eb2;" horiz-adv-x="789" 
d="M14 0l297 746h166l299 -746h-170l-48 122h-336l-48 -122h-160zM274 257h232l-116 295zM340 988c-8 47 2 81 54 111c34 20 41 26 41 41s-13 26 -48 26c-33 0 -65 -7 -91 -20l-44 89c36 18 87 27 143 27c103 0 159 -43 159 -102c0 -56 -24 -81 -62 -103
c-37 -22 -48 -37 -47 -69h-105zM392 771c-148 0 -192 79 -215 197l113 21c15 -69 34 -97 102 -97s87 28 102 97l115 -20c-26 -119 -70 -198 -217 -198z" />
    <glyph glyph-name="uni1EB3" unicode="&#x1eb3;" horiz-adv-x="645" 
d="M238 -9c-175 0 -213 76 -213 175c0 160 112 198 363 198h23c-1 51 -14 77 -112 77c-69 0 -130 -25 -164 -46l-78 115c40 27 140 69 259 69c204 0 246 -65 246 -225v-172c0 -45 3 -52 49 -52v-128c-11 -3 -31 -4 -66 -4c-60 0 -86 12 -108 56c-29 -39 -92 -63 -199 -63z
M322 610c-148 0 -192 79 -215 197l113 21c15 -69 34 -97 102 -97s87 28 102 97l115 -20c-26 -119 -70 -198 -217 -198zM270 827c-8 47 2 81 54 111c34 20 41 26 41 41s-13 26 -48 26c-33 0 -65 -7 -91 -20l-44 89c36 18 87 27 143 27c103 0 159 -43 159 -102
c0 -56 -24 -81 -62 -103c-37 -22 -48 -37 -47 -69h-105zM269 117c99 0 142 35 142 118v21h-13c-200 0 -224 -16 -224 -77c0 -42 23 -62 95 -62z" />
    <glyph glyph-name="uni1EB4" unicode="&#x1eb4;" horiz-adv-x="789" 
d="M14 0l297 746h166l299 -746h-170l-48 122h-336l-48 -122h-160zM274 257h232l-116 295zM243 1016l-87 71c54 67 113 108 169 108c69 0 92 -53 138 -53c22 0 50 17 84 58l86 -71c-53 -66 -111 -109 -168 -109c-67 0 -91 54 -137 54c-23 0 -51 -16 -85 -58zM392 771
c-148 0 -192 79 -215 197l113 21c15 -69 34 -97 102 -97s87 28 102 97l115 -20c-26 -119 -70 -198 -217 -198z" />
    <glyph glyph-name="uni1EB5" unicode="&#x1eb5;" horiz-adv-x="645" 
d="M238 -9c-175 0 -213 76 -213 175c0 160 112 198 363 198h23c-1 51 -14 77 -112 77c-69 0 -130 -25 -164 -46l-78 115c40 27 140 69 259 69c204 0 246 -65 246 -225v-172c0 -45 3 -52 49 -52v-128c-11 -3 -31 -4 -66 -4c-60 0 -86 12 -108 56c-29 -39 -92 -63 -199 -63z
M322 610c-148 0 -192 79 -215 197l113 21c15 -69 34 -97 102 -97s87 28 102 97l115 -20c-26 -119 -70 -198 -217 -198zM173 855l-87 71c54 67 113 108 169 108c69 0 92 -53 138 -53c22 0 50 17 84 58l86 -71c-53 -66 -111 -109 -168 -109c-67 0 -91 54 -137 54
c-23 0 -51 -16 -85 -58zM269 117c99 0 142 35 142 118v21h-13c-200 0 -224 -16 -224 -77c0 -42 23 -62 95 -62z" />
    <glyph glyph-name="uni1EB6" unicode="&#x1eb6;" horiz-adv-x="789" 
d="M14 0l297 746h166l299 -746h-170l-48 122h-336l-48 -122h-160zM274 257h232l-116 295zM314 -197v139h159v-139h-159zM393 766c-148 0 -192 78 -215 196l113 21c15 -68 34 -97 102 -97s87 29 102 97l114 -20c-25 -119 -69 -197 -216 -197z" />
    <glyph glyph-name="uni1EB7" unicode="&#x1eb7;" horiz-adv-x="645" 
d="M238 -9c-175 0 -213 76 -213 175c0 160 112 198 363 198h23c-1 51 -14 77 -112 77c-69 0 -130 -25 -164 -46l-78 115c40 27 140 69 259 69c204 0 246 -65 246 -225v-172c0 -45 3 -52 49 -52v-128c-11 -3 -31 -4 -66 -4c-60 0 -86 12 -108 56c-29 -39 -92 -63 -199 -63z
M323 605c-148 0 -192 78 -215 196l113 21c15 -68 34 -97 102 -97s87 29 102 97l114 -20c-25 -119 -69 -197 -216 -197zM269 117c99 0 142 35 142 118v21h-13c-200 0 -224 -16 -224 -77c0 -42 23 -62 95 -62zM241 -197v139h159v-139h-159z" />
    <glyph glyph-name="uni1EB8" unicode="&#x1eb8;" horiz-adv-x="687" 
d="M74 0v741h557v-148h-393v-144h383v-143h-383v-164h397v-142h-561zM281 -197v139h159v-139h-159z" />
    <glyph glyph-name="uni1EB9" unicode="&#x1eb9;" horiz-adv-x="619" 
d="M330 -11c-245 0 -295 134 -295 295c0 158 52 295 294 295c249 0 257 -166 252 -355h-394c9 -68 42 -108 143 -108c87 0 136 21 178 52l79 -102c-73 -55 -145 -77 -257 -77zM324 448c-97 0 -129 -43 -137 -112h251c-4 65 -17 112 -114 112zM239 -197v139h159v-139h-159z
" />
    <glyph glyph-name="uni1EBA" unicode="&#x1eba;" horiz-adv-x="687" 
d="M74 0v741h557v-148h-393v-144h383v-143h-383v-164h397v-142h-561zM310 774c-9 47 1 81 53 111c34 20 42 26 42 41s-13 26 -48 26c-34 0 -65 -7 -92 -20l-44 89c36 18 87 27 143 27c103 0 159 -43 159 -102c0 -56 -24 -81 -62 -103c-37 -22 -47 -37 -47 -69h-104z" />
    <glyph glyph-name="uni1EBB" unicode="&#x1ebb;" horiz-adv-x="619" 
d="M330 -11c-245 0 -295 134 -295 295c0 158 52 295 294 295c249 0 257 -166 252 -355h-394c9 -68 42 -108 143 -108c87 0 136 21 178 52l79 -102c-73 -55 -145 -77 -257 -77zM264 615c-9 47 1 81 53 111c34 20 42 26 42 41s-13 26 -48 26c-34 0 -65 -7 -92 -20l-44 89
c36 18 87 27 143 27c103 0 159 -43 159 -102c0 -56 -24 -81 -62 -103c-37 -22 -47 -37 -47 -69h-104zM324 448c-97 0 -129 -43 -137 -112h251c-4 65 -17 112 -114 112z" />
    <glyph glyph-name="uni1EBC" unicode="&#x1ebc;" horiz-adv-x="687" 
d="M74 0v741h557v-148h-393v-144h383v-143h-383v-164h397v-142h-561zM196 797l-87 71c54 67 112 108 168 108c70 0 92 -54 138 -54c23 0 50 18 84 59l87 -71c-54 -67 -112 -110 -168 -110c-67 0 -91 54 -138 54c-22 0 -51 -16 -84 -57z" />
    <glyph glyph-name="uni1EBD" unicode="&#x1ebd;" horiz-adv-x="619" 
d="M330 -11c-245 0 -295 134 -295 295c0 158 52 295 294 295c249 0 257 -166 252 -355h-394c9 -68 42 -108 143 -108c87 0 136 21 178 52l79 -102c-73 -55 -145 -77 -257 -77zM156 617l-87 71c54 67 112 108 168 108c70 0 92 -54 138 -54c23 0 50 18 84 59l87 -71
c-54 -67 -112 -110 -168 -110c-67 0 -91 54 -138 54c-22 0 -51 -16 -84 -57zM324 448c-97 0 -129 -43 -137 -112h251c-4 65 -17 112 -114 112z" />
    <glyph glyph-name="uni1EBE" unicode="&#x1ebe;" horiz-adv-x="687" 
d="M-23 883l141 184h189l-191 -184h-139zM107 781l155 183h162l155 -183h-147l-90 86l-91 -86h-144zM74 0v741h557v-148h-393v-144h383v-143h-383v-164h397v-142h-561z" />
    <glyph glyph-name="uni1EBF" unicode="&#x1ebf;" horiz-adv-x="619" 
d="M330 -11c-245 0 -295 134 -295 295c0 158 52 295 294 295c249 0 257 -166 252 -355h-394c9 -68 42 -108 143 -108c87 0 136 21 178 52l79 -102c-73 -55 -145 -77 -257 -77zM72 620l155 183h162l155 -183h-147l-90 86l-91 -86h-144zM-58 722l141 184h189l-191 -184h-139z
M324 448c-97 0 -129 -43 -137 -112h251c-4 65 -17 112 -114 112z" />
    <glyph glyph-name="uni1EC0" unicode="&#x1ec0;" horiz-adv-x="687" 
d="M571 883l-190 184h188l141 -184h-139zM107 781l155 183h162l155 -183h-147l-91 86l-90 -86h-144zM74 0v741h557v-148h-393v-144h383v-143h-383v-164h397v-142h-561z" />
    <glyph glyph-name="uni1EC1" unicode="&#x1ec1;" horiz-adv-x="619" 
d="M330 -11c-245 0 -295 134 -295 295c0 158 52 295 294 295c249 0 257 -166 252 -355h-394c9 -68 42 -108 143 -108c87 0 136 21 178 52l79 -102c-73 -55 -145 -77 -257 -77zM73 620l155 183h162l155 -183h-147l-91 86l-90 -86h-144zM537 722l-190 184h188l141 -184h-139z
M324 448c-97 0 -129 -43 -137 -112h251c-4 65 -17 112 -114 112z" />
    <glyph glyph-name="uni1EC2" unicode="&#x1ec2;" horiz-adv-x="687" 
d="M74 0v741h557v-148h-393v-144h383v-143h-383v-164h397v-142h-561zM293 992c-8 47 2 81 54 111c34 21 41 26 41 41s-13 27 -48 27c-33 0 -65 -8 -91 -21l-45 90c37 17 88 27 144 27c103 0 159 -43 159 -103c0 -56 -24 -80 -63 -102c-37 -22 -47 -38 -46 -70h-105zM108 781
l155 183h162l155 -183h-147l-91 86l-90 -86h-144z" />
    <glyph glyph-name="uni1EC3" unicode="&#x1ec3;" horiz-adv-x="619" 
d="M330 -11c-245 0 -295 134 -295 295c0 158 52 295 294 295c249 0 257 -166 252 -355h-394c9 -68 42 -108 143 -108c87 0 136 21 178 52l79 -102c-73 -55 -145 -77 -257 -77zM73 620l155 183h162l155 -183h-147l-91 86l-90 -86h-144zM258 831c-8 47 2 81 54 111
c34 21 41 26 41 41s-13 27 -48 27c-33 0 -65 -8 -91 -21l-45 90c37 17 88 27 144 27c103 0 159 -43 159 -103c0 -56 -24 -80 -63 -102c-37 -22 -47 -38 -46 -70h-105zM324 448c-97 0 -129 -43 -137 -112h251c-4 65 -17 112 -114 112z" />
    <glyph glyph-name="uni1EC4" unicode="&#x1ec4;" horiz-adv-x="687" 
d="M74 0v741h557v-148h-393v-144h383v-143h-383v-164h397v-142h-561zM194 987l-88 71c54 67 113 108 169 108c69 0 92 -53 138 -53c23 0 50 18 84 59l87 -72c-54 -66 -112 -109 -169 -109c-66 0 -90 54 -137 54c-22 0 -51 -16 -84 -58zM107 781l155 183h162l155 -183h-147
l-91 86l-90 -86h-144z" />
    <glyph glyph-name="uni1EC5" unicode="&#x1ec5;" horiz-adv-x="619" 
d="M330 -11c-245 0 -295 134 -295 295c0 158 52 295 294 295c249 0 257 -166 252 -355h-394c9 -68 42 -108 143 -108c87 0 136 21 178 52l79 -102c-73 -55 -145 -77 -257 -77zM160 826l-88 71c54 67 113 108 169 108c69 0 92 -53 138 -53c23 0 50 18 84 59l87 -72
c-54 -66 -112 -109 -169 -109c-66 0 -90 54 -137 54c-22 0 -51 -16 -84 -58zM73 620l155 183h162l155 -183h-147l-91 86l-90 -86h-144zM324 448c-97 0 -129 -43 -137 -112h251c-4 65 -17 112 -114 112z" />
    <glyph glyph-name="uni1EC6" unicode="&#x1ec6;" horiz-adv-x="687" 
d="M107 781l155 183h162l155 -183h-147l-91 86l-90 -86h-144zM74 0v741h557v-148h-393v-144h383v-143h-383v-164h397v-142h-561zM281 -197v139h159v-139h-159z" />
    <glyph glyph-name="uni1EC7" unicode="&#x1ec7;" horiz-adv-x="619" 
d="M330 -11c-245 0 -295 134 -295 295c0 158 52 295 294 295c249 0 257 -166 252 -355h-394c9 -68 42 -108 143 -108c87 0 136 21 178 52l79 -102c-73 -55 -145 -77 -257 -77zM73 620l155 183h162l155 -183h-147l-91 86l-90 -86h-144zM324 448c-97 0 -129 -43 -137 -112h251
c-4 65 -17 112 -114 112zM239 -197v139h159v-139h-159z" />
    <glyph glyph-name="uni1EC8" unicode="&#x1ec8;" horiz-adv-x="333" 
d="M85 0v741h163v-741h-163zM116 774c-9 47 1 81 53 111c34 20 42 26 42 41s-13 26 -48 26c-34 0 -65 -7 -92 -20l-44 89c36 18 87 27 143 27c103 0 159 -43 159 -102c0 -56 -24 -81 -62 -103c-37 -22 -47 -37 -47 -69h-104z" />
    <glyph glyph-name="uni1EC9" unicode="&#x1ec9;" horiz-adv-x="293" 
d="M68 0v566h156v-566h-156zM96 615c-9 47 1 81 53 111c34 20 42 26 42 41s-13 26 -48 26c-34 0 -65 -7 -92 -20l-44 89c36 18 87 27 143 27c103 0 159 -43 159 -102c0 -56 -24 -81 -62 -103c-37 -22 -47 -37 -47 -69h-104z" />
    <glyph glyph-name="uni1ECA" unicode="&#x1eca;" horiz-adv-x="333" 
d="M85 0v741h163v-741h-163zM87 -197v139h159v-139h-159z" />
    <glyph glyph-name="uni1ECB" unicode="&#x1ecb;" horiz-adv-x="293" 
d="M68 0v566h156v-566h-156zM67 618v143h158v-143h-158zM67 -197v139h159v-139h-159z" />
    <glyph glyph-name="uni1ECC" unicode="&#x1ecc;" horiz-adv-x="853" 
d="M426 -12c-236 0 -392 104 -392 383c0 278 156 382 392 382s393 -104 393 -382c0 -279 -157 -383 -393 -383zM426 132c170 0 227 91 227 236s-57 235 -227 235s-227 -90 -227 -235s57 -236 227 -236zM348 -197v139h159v-139h-159z" />
    <glyph glyph-name="uni1ECD" unicode="&#x1ecd;" horiz-adv-x="661" 
d="M331 -11c-213 0 -296 105 -296 295s83 295 296 295s295 -105 295 -295s-82 -295 -295 -295zM331 123c108 0 138 61 138 157s-30 156 -138 156c-109 0 -138 -60 -138 -156s29 -157 138 -157zM251 -197v139h159v-139h-159z" />
    <glyph glyph-name="uni1ECE" unicode="&#x1ece;" horiz-adv-x="853" 
d="M426 -12c-236 0 -392 104 -392 383c0 278 156 382 392 382s393 -104 393 -382c0 -279 -157 -383 -393 -383zM426 132c170 0 227 91 227 236s-57 235 -227 235s-227 -90 -227 -235s57 -236 227 -236zM373 779c-9 47 1 81 53 111c34 20 42 26 42 41s-13 26 -48 26
c-34 0 -65 -7 -92 -20l-44 89c36 18 87 27 143 27c103 0 159 -43 159 -102c0 -56 -24 -81 -62 -103c-37 -22 -47 -37 -47 -69h-104z" />
    <glyph glyph-name="uni1ECF" unicode="&#x1ecf;" horiz-adv-x="661" 
d="M331 -11c-213 0 -296 105 -296 295s83 295 296 295s295 -105 295 -295s-82 -295 -295 -295zM331 123c108 0 138 61 138 157s-30 156 -138 156c-109 0 -138 -60 -138 -156s29 -157 138 -157zM278 615c-9 47 1 81 53 111c34 20 42 26 42 41s-13 26 -48 26
c-34 0 -65 -7 -92 -20l-44 89c36 18 87 27 143 27c103 0 159 -43 159 -102c0 -56 -24 -81 -62 -103c-37 -22 -47 -37 -47 -69h-104z" />
    <glyph glyph-name="uni1ED0" unicode="&#x1ed0;" horiz-adv-x="853" 
d="M59 883l141 184h189l-191 -184h-139zM189 781l155 183h162l155 -183h-147l-90 86l-91 -86h-144zM426 -12c-236 0 -392 104 -392 383c0 278 156 382 392 382s393 -104 393 -382c0 -279 -157 -383 -393 -383zM426 132c170 0 227 91 227 236s-57 235 -227 235
s-227 -90 -227 -235s57 -236 227 -236z" />
    <glyph glyph-name="uni1ED1" unicode="&#x1ed1;" horiz-adv-x="661" 
d="M-36 722l141 184h189l-191 -184h-139zM94 620l155 183h162l155 -183h-147l-90 86l-91 -86h-144zM331 -11c-213 0 -296 105 -296 295s83 295 296 295s295 -105 295 -295s-82 -295 -295 -295zM331 123c108 0 138 61 138 157s-30 156 -138 156c-109 0 -138 -60 -138 -156
s29 -157 138 -157z" />
    <glyph glyph-name="uni1ED2" unicode="&#x1ed2;" horiz-adv-x="853" 
d="M654 883l-190 184h188l141 -184h-139zM190 781l155 183h162l155 -183h-147l-91 86l-90 -86h-144zM426 -12c-236 0 -392 104 -392 383c0 278 156 382 392 382s393 -104 393 -382c0 -279 -157 -383 -393 -383zM426 132c170 0 227 91 227 236s-57 235 -227 235
s-227 -90 -227 -235s57 -236 227 -236z" />
    <glyph glyph-name="uni1ED3" unicode="&#x1ed3;" horiz-adv-x="661" 
d="M558 722l-190 184h188l141 -184h-139zM94 620l155 183h162l155 -183h-147l-91 86l-90 -86h-144zM331 -11c-213 0 -296 105 -296 295s83 295 296 295s295 -105 295 -295s-82 -295 -295 -295zM331 123c108 0 138 61 138 157s-30 156 -138 156c-109 0 -138 -60 -138 -156
s29 -157 138 -157z" />
    <glyph glyph-name="uni1ED4" unicode="&#x1ed4;" horiz-adv-x="853" 
d="M375 992c-8 47 2 81 54 111c34 21 41 26 41 41s-13 27 -48 27c-33 0 -65 -8 -91 -21l-45 90c37 17 88 27 144 27c103 0 159 -43 159 -103c0 -56 -24 -80 -63 -102c-37 -22 -47 -38 -46 -70h-105zM190 781l155 183h162l155 -183h-147l-91 86l-90 -86h-144zM426 -12
c-236 0 -392 104 -392 383c0 278 156 382 392 382s393 -104 393 -382c0 -279 -157 -383 -393 -383zM426 132c170 0 227 91 227 236s-57 235 -227 235s-227 -90 -227 -235s57 -236 227 -236z" />
    <glyph glyph-name="uni1ED5" unicode="&#x1ed5;" horiz-adv-x="661" 
d="M278 831c-8 47 2 81 54 111c34 21 41 26 41 41s-13 27 -48 27c-33 0 -65 -8 -91 -21l-45 90c37 17 88 27 144 27c103 0 159 -43 159 -103c0 -56 -24 -80 -63 -102c-37 -22 -47 -38 -46 -70h-105zM93 620l155 183h162l155 -183h-147l-91 86l-90 -86h-144zM331 -11
c-213 0 -296 105 -296 295s83 295 296 295s295 -105 295 -295s-82 -295 -295 -295zM331 123c108 0 138 61 138 157s-30 156 -138 156c-109 0 -138 -60 -138 -156s29 -157 138 -157z" />
    <glyph glyph-name="uni1ED6" unicode="&#x1ed6;" horiz-adv-x="853" 
d="M426 -12c-236 0 -392 104 -392 383c0 278 156 382 392 382s393 -104 393 -382c0 -279 -157 -383 -393 -383zM426 132c170 0 227 91 227 236s-57 235 -227 235s-227 -90 -227 -235s57 -236 227 -236zM277 987l-88 71c54 67 113 108 169 108c69 0 92 -53 138 -53
c23 0 50 18 84 59l87 -72c-54 -66 -112 -109 -169 -109c-66 0 -90 54 -137 54c-22 0 -51 -16 -84 -58zM190 781l155 183h162l155 -183h-147l-91 86l-90 -86h-144z" />
    <glyph glyph-name="uni1ED7" unicode="&#x1ed7;" horiz-adv-x="661" 
d="M331 -11c-213 0 -296 105 -296 295s83 295 296 295s295 -105 295 -295s-82 -295 -295 -295zM331 123c108 0 138 61 138 157s-30 156 -138 156c-109 0 -138 -60 -138 -156s29 -157 138 -157zM181 826l-88 71c54 67 113 108 169 108c69 0 92 -53 138 -53c23 0 50 18 84 59
l87 -72c-54 -66 -112 -109 -169 -109c-66 0 -90 54 -137 54c-22 0 -51 -16 -84 -58zM94 620l155 183h162l155 -183h-147l-91 86l-90 -86h-144z" />
    <glyph glyph-name="uni1ED8" unicode="&#x1ed8;" horiz-adv-x="853" 
d="M190 781l155 183h162l155 -183h-147l-91 86l-90 -86h-144zM346 -197v139h159v-139h-159zM426 -12c-236 0 -392 104 -392 383c0 278 156 382 392 382s393 -104 393 -382c0 -279 -157 -383 -393 -383zM426 132c170 0 227 91 227 236s-57 235 -227 235s-227 -90 -227 -235
s57 -236 227 -236z" />
    <glyph glyph-name="uni1ED9" unicode="&#x1ed9;" horiz-adv-x="661" 
d="M94 620l155 183h162l155 -183h-147l-91 86l-90 -86h-144zM251 -197v139h159v-139h-159zM331 -11c-213 0 -296 105 -296 295s83 295 296 295s295 -105 295 -295s-82 -295 -295 -295zM331 123c108 0 138 61 138 157s-30 156 -138 156c-109 0 -138 -60 -138 -156
s29 -157 138 -157z" />
    <glyph glyph-name="uni1EE4" unicode="&#x1ee4;" horiz-adv-x="816" 
d="M408 -14c-313 0 -339 155 -339 297v458h164v-437c0 -110 27 -173 177 -173c149 0 178 59 178 173v437h159v-458c0 -142 -27 -297 -339 -297zM328 -197v139h159v-139h-159z" />
    <glyph glyph-name="uni1EE5" unicode="&#x1ee5;" horiz-adv-x="656" 
d="M329 -9c-216 0 -270 79 -270 273v302h157v-305c0 -79 2 -134 114 -134c111 0 113 56 113 135v304h154v-301c0 -194 -52 -274 -268 -274zM248 -197v139h159v-139h-159z" />
    <glyph glyph-name="uni1EE6" unicode="&#x1ee6;" horiz-adv-x="816" 
d="M408 -14c-313 0 -339 155 -339 297v458h164v-437c0 -110 27 -173 177 -173c149 0 178 59 178 173v437h159v-458c0 -142 -27 -297 -339 -297zM360 759c-9 47 1 81 53 111c34 20 42 26 42 41s-13 26 -48 26c-34 0 -65 -7 -92 -20l-44 89c36 18 87 27 143 27
c103 0 159 -43 159 -102c0 -56 -24 -81 -62 -103c-37 -22 -47 -37 -47 -69h-104z" />
    <glyph glyph-name="uni1EE7" unicode="&#x1ee7;" horiz-adv-x="656" 
d="M329 -9c-216 0 -270 79 -270 273v302h157v-305c0 -79 2 -134 114 -134c111 0 113 56 113 135v304h154v-301c0 -194 -52 -274 -268 -274zM276 615c-9 47 1 81 53 111c34 20 42 26 42 41s-13 26 -48 26c-34 0 -65 -7 -92 -20l-44 89c36 18 87 27 143 27
c103 0 159 -43 159 -102c0 -56 -24 -81 -62 -103c-37 -22 -47 -37 -47 -69h-104z" />
    <glyph glyph-name="uni1EF4" unicode="&#x1ef4;" horiz-adv-x="760" 
d="M298 0v260l-295 481h176l204 -334l204 334h169l-295 -481v-260h-163zM300 -197v139h159v-139h-159z" />
    <glyph glyph-name="uni1EF5" unicode="&#x1ef5;" horiz-adv-x="584" 
d="M134 -170c-12 0 -39 1 -56 2v118h42c63 0 78 9 88 42l7 21l-216 553h169l131 -360l127 360h159l-227 -591c-39 -105 -87 -145 -224 -145zM410 -197v139h159v-139h-159z" />
    <glyph glyph-name="uni1EF6" unicode="&#x1ef6;" horiz-adv-x="760" 
d="M298 0v260l-295 481h176l204 -334l204 334h169l-295 -481v-260h-163zM330 759c-9 47 1 81 53 111c34 20 42 26 42 41s-13 26 -48 26c-34 0 -65 -7 -92 -20l-44 89c36 18 87 27 143 27c103 0 159 -43 159 -102c0 -56 -24 -81 -62 -103c-37 -22 -47 -37 -47 -69h-104z" />
    <glyph glyph-name="uni1EF7" unicode="&#x1ef7;" horiz-adv-x="584" 
d="M134 -170c-12 0 -39 1 -56 2v118h42c63 0 78 9 88 42l7 21l-216 553h169l131 -360l127 360h159l-227 -591c-39 -105 -87 -145 -224 -145zM245 615c-9 47 1 81 53 111c34 20 42 26 42 41s-13 26 -48 26c-34 0 -65 -7 -92 -20l-44 89c36 18 87 27 143 27
c103 0 159 -43 159 -102c0 -56 -24 -81 -62 -103c-37 -22 -47 -37 -47 -69h-104z" />
    <glyph glyph-name="uni1EF8" unicode="&#x1ef8;" horiz-adv-x="760" 
d="M298 0v260l-295 481h176l204 -334l204 334h169l-295 -481v-260h-163zM226 797l-87 71c54 67 112 108 168 108c70 0 92 -54 138 -54c23 0 50 18 84 59l87 -71c-54 -67 -112 -110 -168 -110c-67 0 -91 54 -138 54c-22 0 -51 -16 -84 -57z" />
    <glyph glyph-name="uni1EF9" unicode="&#x1ef9;" horiz-adv-x="584" 
d="M134 -170c-12 0 -39 1 -56 2v118h42c63 0 78 9 88 42l7 21l-216 553h169l131 -360l127 360h159l-227 -591c-39 -105 -87 -145 -224 -145zM143 617l-87 71c54 67 112 108 168 108c70 0 92 -54 138 -54c23 0 50 18 84 59l87 -71c-54 -67 -112 -110 -168 -110
c-67 0 -91 54 -138 54c-22 0 -51 -16 -84 -57z" />
    <glyph glyph-name="dong" unicode="&#x20ab;" horiz-adv-x="681" 
d="M347 603v123h115v50h157v-50h62v-123h-62v-597l-120 -11l-16 57c-34 -40 -93 -63 -202 -63c-195 0 -246 134 -246 297c0 162 53 293 251 293c103 0 152 -23 176 -53v77h-115zM318 124c108 0 144 53 144 162c0 107 -30 152 -144 152c-103 0 -124 -62 -124 -152
c0 -91 21 -162 124 -162zM90 -186v123h530v-123h-530z" />
    <glyph glyph-name="hookabovecomb" unicode="&#x309;" horiz-adv-x="590" 
d="M242 532c-9 47 1 81 53 111c34 20 42 26 42 41s-13 26 -48 26c-34 0 -65 -7 -92 -20l-44 89c36 18 87 27 143 27c103 0 159 -43 159 -102c0 -56 -24 -81 -62 -103c-37 -22 -47 -37 -47 -69h-104z" />
    <glyph glyph-name="circumflexacute" horiz-adv-x="590" 
d="M-61 722l141 184h189l-191 -184h-139zM69 620l155 183h162l155 -183h-147l-90 86l-91 -86h-144z" />
    <glyph glyph-name="circumflexgrave" horiz-adv-x="590" 
d="M512 722l-190 184h188l141 -184h-139zM48 620l155 183h162l155 -183h-147l-91 86l-90 -86h-144z" />
    <glyph glyph-name="circumflexhook" horiz-adv-x="590" 
d="M244 831c-8 47 2 81 54 111c34 21 41 26 41 41s-13 27 -48 27c-33 0 -65 -8 -91 -21l-45 90c37 17 88 27 144 27c103 0 159 -43 159 -103c0 -56 -24 -80 -63 -102c-37 -22 -47 -38 -46 -70h-105zM59 620l155 183h162l155 -183h-147l-91 86l-90 -86h-144z" />
    <glyph glyph-name="circumflextilde" horiz-adv-x="590" 
d="M146 826l-88 71c54 67 113 108 169 108c69 0 92 -53 138 -53c23 0 50 18 84 59l87 -72c-54 -66 -112 -109 -169 -109c-66 0 -90 54 -137 54c-22 0 -51 -16 -84 -58zM59 620l155 183h162l155 -183h-147l-91 86l-90 -86h-144z" />
    <glyph glyph-name="breveacute" horiz-adv-x="590" 
d="M222 853l141 183h188l-190 -183h-139zM295 610c-148 0 -192 79 -215 197l113 21c15 -69 34 -97 102 -97s87 28 102 97l114 -20c-25 -119 -69 -198 -216 -198z" />
    <glyph glyph-name="brevegrave" horiz-adv-x="590" 
d="M230 853l-190 183h188l141 -183h-139zM295 610c-148 0 -192 79 -215 197l113 21c15 -69 34 -97 102 -97s87 28 102 97l114 -20c-25 -119 -69 -198 -216 -198z" />
    <glyph glyph-name="brevehook" horiz-adv-x="590" 
d="M242 827c-8 47 2 81 54 111c34 20 41 26 41 41s-13 26 -48 26c-33 0 -65 -7 -91 -20l-44 89c36 18 87 27 143 27c103 0 159 -43 159 -102c0 -56 -24 -81 -62 -103c-37 -22 -48 -37 -47 -69h-105zM294 610c-148 0 -192 79 -215 197l113 21c15 -69 34 -97 102 -97
s87 28 102 97l115 -20c-26 -119 -70 -198 -217 -198z" />
    </font>
</defs>
</svg>
