<?xml version="1.0" encoding="utf-8"?>
<!-- Generator: Adobe Illustrator 22.0.1, SVG Export Plug-In . SVG Version: 6.00 Build 0)  -->
<svg version="1.1" id="Layer_1" xmlns="http://www.w3.org/2000/svg" xmlns:xlink="http://www.w3.org/1999/xlink" x="0px" y="0px"
	 viewBox="0 0 226.772 226.772" enable-background="new 0 0 226.772 226.772" xml:space="preserve">
<g>
	<path fill="#2A57A3" d="M196.08,167.989c0,15.437-12.512,27.949-27.949,27.949H58.919c-15.435,0-27.949-12.512-27.949-27.949
		V58.778c0-15.437,12.514-27.949,27.949-27.949H168.13c15.437,0,27.949,12.512,27.949,27.949V167.989z"/>
	<g>
		<g>
			<path fill="#FFFFFF" d="M163.899,156.925c-0.348-0.26-0.786-0.391-1.313-0.391c-0.519,0-0.951,0.131-1.309,0.391
				c-0.388,0.263-0.582,0.618-0.582,1.075v2.831H128.13v-2.831c0-0.457-0.223-0.812-0.655-1.075
				c-0.351-0.26-0.786-0.391-1.313-0.391c-0.53,0-0.958,0.131-1.306,0.391c-0.388,0.263-0.592,0.618-0.592,1.075v9.374
				c0,1.046,0.421,1.887,1.236,2.546c0.889,0.68,2.055,1.024,3.533,1.024h30.359c1.653,0,2.94-0.344,3.858-1.024
				c0.867-0.622,1.302-1.441,1.302-2.447v-9.472C164.553,157.543,164.33,157.189,163.899,156.925z M160.695,166.84
				c0,0.582-0.176,0.991-0.523,1.222c-0.351,0.26-1.002,0.388-1.961,0.388h-27.671c-0.867,0-1.499-0.15-1.891-0.439
				c-0.348-0.26-0.519-0.658-0.519-1.221v-3.463h32.565V166.84z"/>
			<path fill="#FFFFFF" d="M171.685,143.053c1.127,0,1.697,0.409,1.697,1.225c0,0.841-0.57,1.265-1.697,1.265h-7.132v6.594
				c0,0.454-0.223,0.819-0.655,1.076c-0.348,0.256-0.786,0.391-1.313,0.391c-0.519,0-0.951-0.135-1.309-0.391
				c-0.388-0.256-0.582-0.622-0.582-1.068V132.6c0-0.874,0.629-1.316,1.891-1.316c1.313,0,1.968,0.443,1.968,1.316v10.453H171.685z"
				/>
			<path fill="#FFFFFF" d="M147.942,144.227c-2.882-1.364-6.689-2.052-11.443-2.052c-4.882,0-8.741,0.688-11.572,2.052
				c-2.578,1.236-3.858,2.772-3.858,4.594c0,1.715,1.28,3.222,3.858,4.495c2.875,1.401,6.733,2.096,11.572,2.096
				c4.754,0,8.562-0.695,11.443-2.096c2.575-1.273,3.859-2.78,3.859-4.495C151.8,147,150.517,145.463,147.942,144.227z
				 M145.06,151.604c-2.085,0.848-4.945,1.269-8.562,1.269c-3.661,0-6.568-0.421-8.697-1.269c-1.92-0.75-2.875-1.679-2.875-2.783
				c0-1.145,0.955-2.117,2.875-2.929c2.176-0.849,5.08-1.273,8.697-1.273c3.573,0,6.437,0.424,8.562,1.273
				c1.924,0.812,2.882,1.785,2.882,2.929C147.942,149.925,146.984,150.854,145.06,151.604z"/>
			<path fill="#FFFFFF" d="M153.238,137.83c0.351,0.26,0.523,0.556,0.523,0.878c0,0.329-0.146,0.622-0.45,0.878
				c-0.358,0.263-0.812,0.391-1.382,0.391H120.68c-1.229,0-1.84-0.421-1.84-1.269c0-0.812,0.611-1.218,1.84-1.218h31.12
				C152.411,137.49,152.894,137.604,153.238,137.83z"/>
			<path fill="#FFFFFF" d="M146.698,133.047c0.051,0.849-0.519,1.265-1.697,1.265h-17.27c-1.215,0-1.829-0.417-1.829-1.265
				c0-0.819,0.614-1.222,1.829-1.222h17.134C146.091,131.825,146.698,132.227,146.698,133.047z"/>
			<path fill="#FFFFFF" d="M63.105,166.2c0,0.882,0.212,1.489,0.649,1.81c0.439,0.289,1.283,0.439,2.551,0.439h35.243
				c1.09,0,1.633,0.406,1.633,1.214c0,0.859-0.543,1.28-1.633,1.28H65.651c-1.957,0-3.511-0.362-4.639-1.075
				c-1.221-0.75-1.838-1.843-1.838-3.273v-6.499c0-0.515,0.203-0.925,0.592-1.218c0.349-0.264,0.805-0.388,1.375-0.388
				c0.523,0,0.958,0.124,1.307,0.388c0.433,0.292,0.657,0.702,0.657,1.218V166.2z"/>
			<path fill="#FFFFFF" d="M100.567,160.681c-0.344,0.267-0.775,0.395-1.298,0.395c-0.569,0-1.033-0.128-1.379-0.395
				c-0.393-0.285-0.589-0.684-0.589-1.167v-9.33H86.315c-0.651,0-1.176-0.132-1.569-0.388c-0.347-0.234-0.525-0.504-0.525-0.837
				c0-0.351,0.161-0.644,0.457-0.878c0.391-0.23,0.92-0.34,1.571-0.34h11.052v-6.4H86.448c-0.698,0-1.267-0.124-1.703-0.388
				c-0.347-0.252-0.547-0.545-0.591-0.881c0-0.318,0.154-0.615,0.463-0.874c0.345-0.227,0.85-0.34,1.501-0.34h11.182v-6.206
				c0-0.424,0.195-0.768,0.589-1.028c0.346-0.227,0.81-0.34,1.379-0.34c0.523,0,0.954,0.113,1.298,0.34
				c0.437,0.234,0.657,0.563,0.657,0.976v26.918C101.223,160.001,101.004,160.396,100.567,160.681z"/>
			<path fill="#FFFFFF" d="M81.152,136.17c-2.748-2.443-6.452-3.661-11.118-3.661c-4.754,0-8.52,1.218-11.31,3.661
				c-2.485,2.183-3.73,4.872-3.73,8.057c0,3.153,1.245,5.841,3.73,8.061c2.79,2.44,6.556,3.657,11.31,3.657
				c4.667,0,8.37-1.218,11.118-3.657c2.48-2.18,3.727-4.868,3.727-8.061C84.879,141.042,83.632,138.354,81.152,136.17z
				 M78.33,150.573c-1.997,1.923-4.765,2.886-8.296,2.886c-3.621,0-6.433-0.962-8.437-2.886c-1.787-1.69-2.681-3.803-2.681-6.346
				c0-2.534,0.894-4.656,2.681-6.345c2.052-1.916,4.858-2.889,8.437-2.889c3.531,0,6.3,0.973,8.296,2.889
				c1.838,1.69,2.752,3.811,2.752,6.345C81.083,146.769,80.169,148.883,78.33,150.573z"/>
		</g>
		<g>
			<path fill="#FFFFFF" d="M142.27,121.439c0,0.541,0.132,0.91,0.398,1.108c0.271,0.183,0.79,0.274,1.573,0.274h21.673
				c0.673,0,1.009,0.249,1.009,0.75c0,0.519-0.336,0.779-1.009,0.779h-22.083c-1.203,0-2.154-0.219-2.853-0.662
				c-0.75-0.457-1.123-1.13-1.123-2.008v-3.997c0-0.318,0.121-0.567,0.362-0.75c0.212-0.161,0.494-0.238,0.842-0.238
				c0.322,0,0.589,0.077,0.808,0.238c0.267,0.183,0.402,0.431,0.402,0.75V121.439z"/>
			<path fill="#FFFFFF" d="M165.314,118.048c-0.219,0.161-0.49,0.238-0.808,0.238c-0.348,0-0.629-0.077-0.841-0.238
				c-0.245-0.183-0.366-0.428-0.366-0.724v-7.384H152.32c-0.428,0-0.764-0.088-1.002-0.245c-0.216-0.161-0.311-0.34-0.282-0.541
				c0-0.201,0.103-0.38,0.322-0.545c0.267-0.132,0.614-0.209,1.038-0.209h10.902v-3.24h-10.573c-0.428,0-0.768-0.077-1.009-0.238
				c-0.242-0.157-0.358-0.344-0.358-0.545c-0.03-0.197,0.051-0.377,0.241-0.537c0.183-0.143,0.468-0.212,0.841-0.212h10.858v-2.732
				c0-0.296,0.121-0.541,0.366-0.724c0.212-0.139,0.494-0.209,0.841-0.209c0.318,0,0.589,0.07,0.808,0.209
				c0.263,0.183,0.399,0.428,0.399,0.724v16.429C165.713,117.62,165.577,117.865,165.314,118.048z"/>
			<path fill="#FFFFFF" d="M138.126,100.983c0.212-0.136,0.483-0.209,0.804-0.209s0.589,0.073,0.801,0.209
				c0.267,0.161,0.406,0.391,0.406,0.691v10.094c0,0.578,0.168,0.995,0.519,1.225c0.351,0.263,1.01,0.395,1.971,0.395
				c3.269,0,6.075-0.073,8.408-0.209c2.648-0.143,4.769-0.362,6.349-0.658c0.41-0.088,0.768-0.066,1.09,0.058
				c0.242,0.117,0.403,0.293,0.483,0.509c0.08,0.219,0.051,0.424-0.081,0.596c-0.161,0.223-0.417,0.366-0.761,0.424
				c-1.719,0.285-4.052,0.494-7,0.633c-2.575,0.117-5.596,0.179-9.048,0.179c-1.507,0-2.63-0.311-3.383-0.929
				c-0.618-0.545-0.925-1.276-0.925-2.198v-10.087C137.76,101.407,137.884,101.162,138.126,100.983z"/>
			<path fill="#FFFFFF" d="M111.806,114.651c0.214-0.143,0.486-0.201,0.807-0.179c0.294,0,0.548,0.084,0.762,0.242
				c0.267,0.157,0.4,0.38,0.4,0.655v6.1h14.439c0.377,0,0.673,0.073,0.885,0.212c0.219,0.161,0.322,0.34,0.322,0.534
				c0,0.209-0.102,0.384-0.322,0.545c-0.212,0.157-0.494,0.238-0.841,0.238H96.685c-0.298,0-0.523-0.081-0.682-0.238
				c-0.163-0.161-0.23-0.336-0.203-0.545c0.027-0.194,0.135-0.373,0.324-0.534c0.212-0.139,0.509-0.212,0.883-0.212h14.435v-6.218
				C111.442,114.991,111.567,114.79,111.806,114.651z"/>
			<path fill="#FFFFFF" d="M111.806,100.504c0.214-0.161,0.486-0.237,0.807-0.237c0.294,0,0.548,0.077,0.762,0.237
				c0.267,0.201,0.4,0.457,0.4,0.783c0,3.083,1.384,5.694,4.145,7.838c2.408,1.862,5.375,3.061,8.882,3.61
				c0.41,0.055,0.713,0.183,0.929,0.384c0.19,0.183,0.245,0.381,0.161,0.603c-0.051,0.223-0.212,0.388-0.483,0.509
				c-0.322,0.117-0.709,0.15-1.163,0.091c-3.113-0.479-5.98-1.624-8.611-3.423c-2.491-1.726-4.169-3.58-5.023-5.588
				c-0.807,2.023-2.483,3.884-5.029,5.588c-2.655,1.818-5.605,2.97-8.847,3.449c-0.402,0.048-0.741,0-1.01-0.117
				c-0.239-0.121-0.384-0.282-0.437-0.479c-0.027-0.227,0.053-0.409,0.242-0.57c0.183-0.201,0.495-0.333,0.924-0.391
				c3.324-0.501,6.219-1.704,8.686-3.602c2.871-2.205,4.301-4.857,4.301-7.966C111.442,100.928,111.567,100.687,111.806,100.504z"/>
			<path fill="#FFFFFF" d="M82.513,117.324c-2.308-0.903-5.656-1.349-10.056-1.349c-4.393,0-7.761,0.446-10.096,1.349
				c-2.088,0.805-3.131,1.891-3.131,3.274c0,1.324,1.043,2.377,3.131,3.182c2.335,0.9,5.703,1.353,10.096,1.353
				c4.4,0,7.748-0.454,10.056-1.353c2.12-0.805,3.178-1.858,3.178-3.182C85.691,119.215,84.632,118.129,82.513,117.324z
				 M80.745,122.73c-1.876,0.582-4.641,0.87-8.288,0.87c-3.672,0-6.446-0.289-8.322-0.87c-1.717-0.519-2.573-1.233-2.573-2.132
				c0-0.944,0.856-1.679,2.573-2.22c1.876-0.563,4.65-0.841,8.322-0.841c3.646,0,6.411,0.278,8.288,0.841
				c1.741,0.541,2.613,1.276,2.613,2.22C83.358,121.497,82.485,122.21,80.745,122.73z"/>
			<path fill="#FFFFFF" d="M85.007,115.25c-0.214,0.161-0.483,0.242-0.803,0.242c-0.351,0-0.631-0.081-0.847-0.242
				c-0.239-0.157-0.364-0.38-0.364-0.662v-4.835h-6.192c-0.431,0-0.766-0.077-1.006-0.238c-0.24-0.161-0.364-0.344-0.364-0.541
				c-0.025-0.201,0.055-0.381,0.243-0.542c0.19-0.139,0.47-0.208,0.846-0.208h6.472v-7.428c0-0.252,0.124-0.461,0.364-0.625
				c0.216-0.139,0.496-0.209,0.847-0.209c0.32,0,0.589,0.07,0.803,0.209c0.267,0.139,0.404,0.336,0.404,0.6v13.817
				C85.411,114.874,85.274,115.093,85.007,115.25z"/>
			<path fill="#FFFFFF" d="M77.85,104.772c0,0.523-0.336,0.775-1.006,0.775h-7.962v0.636c0,1.642,0.762,3.01,2.289,4.111
				c1.555,1.101,3.796,1.873,6.719,2.315c0.373,0.058,0.645,0.197,0.801,0.417c0.165,0.219,0.187,0.443,0.082,0.658
				c-0.082,0.241-0.265,0.424-0.563,0.545c-0.32,0.143-0.684,0.176-1.086,0.117c-2.52-0.479-4.639-1.177-6.353-2.099
				c-1.531-0.823-2.56-1.715-3.098-2.674c-0.561,1.021-1.527,1.942-2.895,2.765c-1.69,1.002-3.901,1.788-6.638,2.374
				c-0.347,0.058-0.656,0.015-0.924-0.124c-0.267-0.117-0.461-0.289-0.561-0.509c-0.11-0.219-0.11-0.428,0-0.633
				c0.101-0.201,0.348-0.329,0.722-0.388c2.922-0.505,5.188-1.361,6.797-2.586c1.554-1.181,2.335-2.604,2.335-4.264v-0.662h-7.966
				c-0.751,0-1.115-0.252-1.088-0.775c0-0.527,0.377-0.783,1.128-0.783h18.259C77.513,103.99,77.85,104.246,77.85,104.772z"/>
			<path fill="#FFFFFF" d="M73.907,101.221c0.027,0.53-0.28,0.786-0.922,0.786H62.527c-0.781,0-1.168-0.256-1.168-0.786
				c0-0.516,0.388-0.771,1.168-0.771h10.292C73.518,100.449,73.88,100.705,73.907,101.221z"/>
		</g>
		<g>
			<path fill="#FFFFFF" d="M163.624,94.1c-0.322,0.241-0.717,0.366-1.163,0.366c-0.497,0-0.914-0.124-1.243-0.366
				c-0.366-0.275-0.56-0.64-0.56-1.064V57.132c0-0.413,0.194-0.731,0.56-0.973c0.329-0.219,0.746-0.325,1.243-0.325
				c0.446,0,0.841,0.106,1.163,0.325c0.417,0.209,0.622,0.523,0.622,0.918v35.959C164.246,93.46,164.042,93.826,163.624,94.1z"/>
			<path fill="#FFFFFF" d="M149.463,56.159c0.329-0.219,0.761-0.325,1.295-0.325c0.497-0.029,0.914,0.062,1.243,0.274
				c0.41,0.216,0.615,0.527,0.615,0.925v36.003c0,0.424-0.205,0.79-0.615,1.064c-0.329,0.241-0.746,0.366-1.243,0.366
				c-0.534,0-0.965-0.124-1.295-0.366c-0.381-0.275-0.552-0.64-0.552-1.064v-18.81h-8.364c-0.614,0-1.09-0.135-1.422-0.421
				c-0.326-0.212-0.494-0.468-0.494-0.786c0-0.337,0.168-0.611,0.494-0.83c0.333-0.242,0.786-0.366,1.364-0.366h8.423V57.132
				C148.911,56.693,149.083,56.368,149.463,56.159z"/>
			<path fill="#FFFFFF" d="M143.4,58.372c-0.044,0.805-0.542,1.207-1.492,1.207h-8.536v8.083c0,4.901,1.24,9.356,3.709,13.356
				c1.938,3.116,4.48,5.716,7.614,7.812c0.457,0.278,0.658,0.618,0.622,1.017c-0.04,0.34-0.256,0.633-0.622,0.878
				c-0.41,0.278-0.838,0.435-1.295,0.461c-0.542,0.033-0.991-0.077-1.368-0.322c-2.388-1.693-4.535-3.84-6.43-6.426
				c-2.066-2.801-3.405-5.592-4.023-8.357c-0.702,2.831-2.088,5.618-4.147,8.357c-1.982,2.655-4.246,4.795-6.81,6.426
				c-0.45,0.245-0.922,0.37-1.419,0.37c-0.455-0.033-0.825-0.172-1.112-0.413c-0.334-0.249-0.475-0.552-0.439-0.922
				c0.046-0.377,0.327-0.728,0.867-1.068c3.014-2.037,5.49-4.626,7.424-7.761c2.516-4.012,3.778-8.456,3.778-13.356v-8.134h-8.412
				c-1.159,0-1.712-0.402-1.671-1.207c0-0.768,0.578-1.152,1.73-1.152h20.54C142.902,57.22,143.4,57.604,143.4,58.372z"/>
			<path fill="#FFFFFF" d="M100.24,83.048c1.075,0.677,1.609,1.657,1.609,2.944v7.007c0,0.461-0.208,0.827-0.625,1.101
				c-0.32,0.241-0.739,0.366-1.233,0.366c-0.534,0-0.965-0.124-1.297-0.366c-0.369-0.275-0.561-0.64-0.561-1.101v-6.905
				c0-0.578-0.183-0.995-0.558-1.236c-0.411-0.282-1.088-0.421-2.035-0.421H61.004c-1.116,0-1.67-0.398-1.67-1.203
				c-0.04-0.768,0.516-1.156,1.67-1.156h34.721C97.7,82.079,99.21,82.411,100.24,83.048z"/>
			<path fill="#FFFFFF" d="M106.306,71.45c0.327,0.252,0.497,0.527,0.497,0.841c0,0.304-0.17,0.578-0.497,0.83
				c-0.331,0.238-0.763,0.366-1.302,0.366H82.729v5.175c0,0.431-0.212,0.786-0.624,1.064c-0.32,0.219-0.715,0.325-1.174,0.325
				c-0.492,0-0.907-0.106-1.238-0.325c-0.366-0.245-0.552-0.585-0.552-1.021v-5.219H56.615c-1.114,0-1.631-0.399-1.552-1.196
				c0.047-0.779,0.666-1.156,1.859-1.156h48.022C105.527,71.136,105.974,71.246,106.306,71.45z"/>
			<path fill="#FFFFFF" d="M99.936,57.681c1.273,0.801,1.913,1.927,1.913,3.375v2.447c0,1.602-0.27,3.087-0.801,4.436
				c-0.455,1.265-1.154,2.516-2.108,3.745h-3.524c1.033-1.412,1.73-2.728,2.099-3.928c0.412-1.203,0.618-2.633,0.618-4.294v-2.176
				c0-0.739-0.351-1.324-1.053-1.756c-0.651-0.398-1.562-0.603-2.717-0.603h-33.42c-1.11,0-1.67-0.399-1.67-1.196
				c0-0.801,0.56-1.203,1.67-1.203h33.98C97.016,56.528,98.694,56.913,99.936,57.681z"/>
		</g>
	</g>
</g>
</svg>
