<?xml version="1.0" encoding="utf-8"?>
<!-- Generator: Adobe Illustrator 16.0.0, SVG Export Plug-In . SVG Version: 6.00 Build 0)  -->
<!DOCTYPE svg PUBLIC "-//W3C//DTD SVG 1.1//EN" "http://www.w3.org/Graphics/SVG/1.1/DTD/svg11.dtd">
<svg version="1.1" id="Layer_1" xmlns="http://www.w3.org/2000/svg" xmlns:xlink="http://www.w3.org/1999/xlink" x="0px" y="0px"
	 width="27.34px" height="27.409px" viewBox="0 0 27.34 27.409" enable-background="new 0 0 27.34 27.409" xml:space="preserve">
<g>
	<path fill="#F2705B" d="M13.705,0C6.135,0,0,6.134,0,13.704c0,7.571,6.135,13.705,13.705,13.705c5.163,0,9.657-2.854,11.995-7.073
		c0.873-1.575,1.445-3.345,1.64-5.229c0.043-0.458,0.07-0.928,0.07-1.402C27.41,6.134,21.274,0,13.705,0z"/>
	<circle fill="#FFFFFF" cx="13.705" cy="13.705" r="10.091"/>
	<circle fill="#F2705B" cx="13.705" cy="13.705" r="6.469"/>
	<circle fill="#FFFFFF" cx="13.705" cy="13.705" r="2.855"/>
	<path opacity="0.2" fill="#334A5E" enable-background="new    " d="M27.34,15.106c-0.194,1.885-0.767,3.654-1.64,5.229
		l-3.621-1.122l-0.389-2.338l-8.077-2.508c-0.329-0.102-0.513-0.453-0.41-0.776c0.102-0.33,0.453-0.514,0.776-0.411l8.078,2.515
		l1.646-1.71L27.34,15.106z"/>
	<g>
		<polygon fill="#55BFE9" points="24.179,3.179 20.104,7.354 19.009,4.182 23.083,0 		"/>
		<polygon fill="#55BFE9" points="23.31,8.368 27.383,4.188 24.179,3.179 20.104,7.354 		"/>
	</g>
	<path fill="#41596B" d="M26.072,2.211L14.374,14.218c-0.264,0.269-0.696,0.274-0.965,0.01l0,0c-0.27-0.264-0.276-0.696-0.011-0.966
		L25.096,1.256c0.264-0.269,0.695-0.274,0.966-0.01l0,0C26.325,1.511,26.331,1.942,26.072,2.211z"/>
</g>
</svg>
