<?xml version="1.0" encoding="utf-8"?>
<!-- Generator: Adobe Illustrator 16.0.0, SVG Export Plug-In . SVG Version: 6.00 Build 0)  -->
<!DOCTYPE svg PUBLIC "-//W3C//DTD SVG 1.1//EN" "http://www.w3.org/Graphics/SVG/1.1/DTD/svg11.dtd">
<svg version="1.1" id="Layer_1" xmlns="http://www.w3.org/2000/svg" xmlns:xlink="http://www.w3.org/1999/xlink" x="0px" y="0px"
	 width="28.75px" height="73.054px" viewBox="0 0 28.75 73.054" enable-background="new 0 0 28.75 73.054" xml:space="preserve">
<g>
	<path fill="#344A5E" d="M20.766,8.562c0,0,4.043,1.064,3.19,2.127c-0.85,1.064-2.127,0.852-2.127,0.852S20.341,9.201,20.766,8.562z
		"/>
	<path fill="#CED6E0" d="M20.979,8.35c0,0,3.617,0.425,2.553,1.702c-1.063,1.064-1.276,0.852-1.276,0.852
		C21.404,10.051,20.979,9.201,20.979,8.35z"/>
	<path fill="#FFD15C" d="M21.19,2.817c0,0,0.425-0.638,0.639-0.852c0.213-0.212,0.852,0,0.852,0v0.214c0,0,0.213-0.214,0.639-0.425
		c0.424-0.213,0.637,0,0.637,0v0.212h0.214c0,0,0.213-0.425,0.426-0.425s0.213,0.213,0.213,0.213c0,0.212,0,0.212,0,0.212
		l-1.065,2.128c0,0,0,0.212,0.214,0l1.063-1.703h0.426c0,0-0.426,1.064-0.638,1.277c-0.213,0.212-0.426,0.638-0.426,0.851
		s0.213,0.638,0.213,1.489s-0.853,1.703-0.853,1.915c-0.212,0.213-0.212,0.213-0.212,0.213l-1.702,3.405l-1.276-1.49V9.626
		c0,0,0.852-1.702,0.852-2.127s-0.213-1.064-0.213-1.49c0-0.212-0.425-1.064-0.425-1.702C20.767,3.669,21.19,2.817,21.19,2.817z"/>
	<g>
		<path fill="#F7B64C" d="M22.681,3.456L22.681,3.456c0.213,0,0.213,0,0.426,0c0,0,0,0,0.213,0.212v0.213v0.213v0.212
			c0,0.213-0.213,0.213-0.213,0.426v0.212v0.213v0.213l0,0l0,0V5.158V4.945V4.733c0-0.213,0.213-0.213,0.213-0.426V4.095V3.881
			c0-0.213,0-0.213-0.213-0.213S22.894,3.456,22.681,3.456L22.681,3.456z"/>
		<path fill="#F7B64C" d="M22.255,4.945L22.255,4.945c0-0.213,0-0.213,0-0.213c0-0.212,0-0.425,0-0.638c0,0,0-0.213,0.213-0.213
			c0,0,0-0.213,0.213-0.213c0,0,0,0,0.213-0.212l0,0c0,0,0,0-0.213,0.212c0,0,0,0.213-0.213,0.213v0.213v0.212V4.52
			C22.255,4.945,22.255,4.945,22.255,4.945z"/>
	</g>
	
		<rect x="17.59" y="3.251" transform="matrix(0.9859 -0.1674 0.1674 0.9859 -0.3845 3.6435)" fill="#CED6E0" width="7.66" height="1.703"/>
	<path fill="#415A6B" d="M24.382,2.604l0.426,1.702c0,0.213,0.213,0.213,0.213,0.213l1.915-0.425c0.213,0,0.213-0.213,0.213-0.213
		l-0.425-1.702c0-0.212-0.213-0.212-0.213-0.212l-1.915,0.425L24.382,2.604z"/>
	<g>
		
			<rect x="13.623" y="4.374" transform="matrix(-0.9859 0.1673 -0.1673 -0.9859 31.9071 7.336)" fill="#E8EAE9" width="4.042" height="1.277"/>
		
			<rect x="10.358" y="5.159" transform="matrix(0.9859 -0.1674 0.1674 0.9859 -0.7825 2.0991)" fill="#E8EAE9" width="3.404" height="1.064"/>
	</g>
	<g>
		<path fill="#344A5E" d="M23.319,69.2c0,0,0.424-0.426,0.424-0.852c0-0.425-0.212-0.851-1.275-0.851s-1.702-0.213-2.127-0.639
			c-0.426-0.426-1.277-1.276-1.277-1.276l-4.894,0.425c0,0-0.638,0.852-0.638,1.702l0.426,0.852c0,0,2.341,0,2.979,0
			C17.573,69.2,22.042,70.263,23.319,69.2z"/>
		<path fill="#344A5E" d="M3.744,69.625v-0.212c0,0,0-0.852,0.213-1.064c0.212-0.425,5.107,0.426,5.107,0.426
			s0.638,0.851,1.276,1.276c0.639,0.426,1.915,1.277,1.703,1.915c-0.213,0.639-0.213,0.639-0.213,0.639S9.702,73.455,8,72.818
			c-1.702-0.64-2.766-1.703-2.978-1.916l-0.213-0.213C4.169,70.476,3.957,70.05,3.744,69.625z"/>
	</g>
	<path fill="#415A6B" d="M4.169,38.774c0,0-0.212,2.767,0.426,5.106c0.426,2.34,0.639,5.32,0.426,5.957
		c-0.213,0.639-0.852,3.83-1.277,5.533c-0.212,1.488-0.212,6.383-0.212,7.659s0,5.318,0,5.318s0.638,1.702,2.34,1.489
		c1.702,0,3.192-1.063,3.192-1.063s-0.638-1.276-0.638-1.914c0-0.639,0.213-0.427-0.213-1.277C7.787,64.945,7.36,60.051,8,58.987
		c0.639-1.063,2.127-8.937,2.127-8.937s0.852,5.957,1.277,7.447c0.425,1.277,2.127,7.872,2.127,7.872v2.128
		c0,0,2.34,0.851,3.618,0.213c1.275-0.426,1.914-1.702,1.914-1.702s-0.639-0.851-0.639-1.915c-0.213-0.85-0.852-1.277-1.064-1.702
		c-0.211-0.426-1.063-3.616-1.063-4.255c-0.214-0.639,0-2.128,0-3.404c0-1.275-0.852-12.766-1.915-16.17
		c-1.064-3.404-1.064-3.404-1.064-3.404L4.169,38.774z"/>
	<path fill="#344A5E" d="M10.127,50.05c0,0,0.426-1.914,0.852-3.617c0-0.425,0.213-0.851,0.213-1.275c0-0.213,0-0.426,0.213-0.639
		c0-0.213,0-0.426,0.211-0.639c0-0.213,0.213-0.424,0.213-0.424c0-0.214,0.213-0.214,0.213-0.427c0-0.212,0.212-0.212,0.212-0.212
		l0,0v0.212c0,0,0,0.213,0,0.427c0,0.211,0,0.211,0,0.424s0,0.426,0,0.639s0,0.426-0.212,0.639c0,0.425-0.213,0.851-0.426,1.275
		c-0.211,0.852-0.425,1.915-0.637,2.555C10.34,49.625,10.127,50.05,10.127,50.05L10.127,50.05z"/>
	<path fill="#FFD15C" d="M21.616,5.158c0,0,0.639,0.213,0.639-0.213c0.213-0.425,0-0.639,0.213-1.064s0.213-0.425,0.213-0.425
		s0.639,0,0.639,0.425s-0.213,0.639-0.426,0.852c-0.213,0.212-0.213,0.425,0,0.638c0,0.213,0.426,0.638,0.213,1.276
		c-0.213,0.426-0.426,0.852-0.426,0.852S21.19,6.009,21.616,5.158z"/>
	<path fill="#E8EAE9" d="M22.681,10.903c0.426-0.425,0.851-1.064,0.851-1.064c-1.702,0.212-2.553-1.702-2.553-1.702
		s-0.426,0.638-0.638,0.851c-0.214,0.213-0.639,1.277-0.639,1.277s-0.214,0.213-0.214,0.425h3.192V10.903z"/>
	<path fill="#415A6B" d="M8.852,12.179c0,0,0.637,0,1.275,0.213c0.426,0.213,0.426,0.426,0.852,0.639
		c0.427,0.426,0.427,0.426,0.638,0.426c0.213,0,2.766,0.638,3.192,0.638s1.915,0,2.128,0s1.063-0.851,1.063-1.064
		c0.213-0.213,0.427-0.852,0.639-1.064c0.213-0.213,0.213-0.638,0.426-0.851c0.213,0,0.639-1.277,0.852-1.702
		c0.212-0.213,0.852-0.852,0.852-0.852s1.063,2.341,3.19,2.128c0,0-1.489,1.489-1.915,2.553c-0.426,1.063-0.851,1.702-1.275,2.127
		c-0.214,0.638-0.426,0.638-0.64,1.064c-0.212,0.425-0.425,0.851-1.063,1.064c-0.638,0.212-5.532,1.276-5.532,1.276l-4.468-4.894
		L8.852,12.179z"/>
	<path fill="#344A5E" d="M13.744,18.775c0,0,1.276-0.213,2.554-0.639l0,0c0-0.212-0.213-0.425-0.213-0.639c0-0.212,0-0.212,0-0.425
		c0,0,0-0.213-0.213-0.213c-0.213-0.213-0.213-0.638-0.213-0.852c-0.213-0.638,0-1.063,0-1.703c-0.426,0-0.639,0-0.852,0
		c-0.212,0-0.851-0.212-1.701-0.425c-0.213,0.214-0.213,0.214-0.213,0.425c-0.213,0.214-0.213,0.639-0.213,1.065
		c-0.212,0.426-0.212,0.851-0.425,1.276v0.213L13.744,18.775z"/>
	<path fill="#FFD15C" d="M14.383,10.689c0,0,0-0.638,0-1.276c0.213-0.639,0.213-1.491,0-2.341c-0.213-0.851-0.639-1.489-0.639-1.489
		s0-0.852,0-1.064c0-0.425-0.213-0.425-0.213-0.425s-0.212,0-0.212,0.212c0,0,0-0.212-0.212-0.212c-0.213,0-0.426,0.212-0.426,0.212
		s0-0.212-0.425,0C11.83,4.52,11.83,4.52,11.83,4.52s-0.213-0.213-0.424-0.213c-0.214,0-0.427,0.213-0.427,0.426
		c0,0.212-0.213,0.212-0.213,0.638c0,0.425,0,1.063,0,1.489c0,0.213,0.426,0.639,0.426,1.064c0.214,0.426,0.638,0.851,0.851,1.277
		c0,0.213,0.426,1.489,0.212,2.128c-0.212,0.638-0.212,0.638-0.212,0.638L14.383,10.689z"/>
	<path fill="#E8EAE9" d="M15.021,11.753c0.214-0.851,0.214-1.276,0.214-1.276s-0.852-0.426-1.703-0.426
		c-0.638,0-1.489,0.426-1.489,0.426s-0.213,1.064-0.213,1.489L15.021,11.753z"/>
	<path fill="#ADB3BA" d="M7.149,12.604L8,12.179l3.83,5.107l-0.424,2.34l-4.682-2.979C6.724,16.647,4.383,13.456,7.149,12.604z"/>
	<path fill="#344A5E" d="M8.639,13.667c0,0,0.85,1.277,1.488,2.554c0.639,1.276,2.979,6.383,3.192,7.66
		c0,0,1.064,10.851,1.064,12.34c0,0,1.063,0.425,1.063-0.213c0.213-0.638-1.702-10-1.702-11.488c0-1.49-0.638-6.596-0.638-6.596
		s-0.852-3.193-2.128-4.256c-1.064-1.276-2.128-1.701-2.128-1.701l-1.49-0.213C7.361,11.966,8.425,13.03,8.639,13.667"/>
	<path fill="#CED6E0" d="M7.149,12.604c0,0,1.063,0.213,1.49,1.063c0,0-0.213-0.637-0.639-1.063s-0.639-0.638-0.639-0.638
		S7.149,12.392,7.149,12.604z"/>
	<path fill="#FFD15C" d="M8.639,2.817c0,0,0.85,1.915,0.85,2.128c0,0.213,0,0.426,0.213,0.639c0.213,0.212,0.851,1.063,0.851,1.276
		s0,0.426-0.213,0.639c-0.213,0.212-0.425,0.212-0.425,0.212v0.426c0,0,0,0.213-0.213,0.213c0,0,0.213,0,0.213,0.425
		c0,0.212-0.213,0.426-0.213,0.639c0,0.425-0.213,0.851-1.063,1.063c-0.852,0.212-1.065,0.212-1.065,0.425s-0.85,2.765-0.85,2.765
		l-4.255-1.063l0.425-3.83C2.681,8.775,5.446,2.179,8.639,2.817z"/>
	<path fill="#E8EAE9" d="M3.319,12.604l5.106,1.49c0,0-0.213-1.277-1.064-1.703c0,0-1.276-0.425-2.978-0.85
		c-1.702-0.426-1.914-0.213-1.914-0.213l-0.426,1.063L3.319,12.604z"/>
	<path fill="#415A6B" d="M9.702,3.881c0,0-0.425,0.639-2.128,0.213c0,0,0.639,1.276,0,2.552c0,0,0.213-0.425,0-0.851
		c0,0-0.213,1.064,0,1.703L7.149,7.711c0,0-0.425-1.277-1.915-1.277S4.595,8.562,4.383,9.201c-0.213,0.638-1.702,1.277-1.702,1.277
		S0.979,8.137,0.34,6.434c-0.426-1.489-0.426-3.191,0.638-4.68c1.063-1.49,3.191-1.916,4.468-1.703
		C6.724,0.264,9.489,1.967,9.702,3.881z"/>
	<path fill="#FFD15C" d="M6.085,7.073c0.639,0.638,0.639,1.489,0.212,1.702c-0.425,0.212-1.276,0-1.915-0.852
		c-0.639-0.85-0.639-1.489-0.213-1.701C4.808,6.009,5.66,6.434,6.085,7.073z"/>
	<path fill="#344A5E" d="M2.469,11.542c0,0,2.126,0.85,2.978,1.276s2.979,1.915,3.618,2.34c0.638,0.639,3.83,5.105,4.042,6.17
		c0.212,1.063,1.701,12.765,1.276,14.254c-0.213,1.277,0.638,2.554-1.915,2.979c-2.554,0.427-7.873,1.915-8.299,1.065
		c-0.638-0.853-0.85-6.384-0.425-9.15c0.425-2.766-0.212-4.468-1.275-6.596c-1.065-2.127-2.979-5.958-2.341-8.51
		C0.766,13.03,2.469,11.542,2.469,11.542z"/>
	<g>
		<path fill="#415A6B" d="M13.319,22.604c0-0.639-0.212-1.063-0.212-1.276c-0.213-1.065-3.618-5.532-4.042-6.17
			c-0.639-0.638-2.553-1.915-3.618-2.34c-1.063-0.639-2.978-1.276-2.978-1.276s-0.64,0.425-1.277,1.276c0,0,0.638,0.213,1.915,0.639
			c1.276,0.424,1.489,0.213,1.489,0.213l0.213,0.212c0,0,1.915,0.638,2.978,1.276C8.852,15.796,11.191,18.349,13.319,22.604
			L13.319,22.604z"/>
		<path fill="#415A6B" d="M5.872,21.328c-1.703,0-3.191-0.639-4.256-1.915c-0.425-0.426-0.638-0.852-0.85-1.49
			c-0.852-2.34,0.212-3.193,1.276-3.618c1.064-0.425,4.043,0.214,4.894,1.703c0,0,0.425,0.213,0.851,0.213
			c0.213,0,0.852,0.425,1.064,0.425c0,0.426,0.638,0.213,1.063,0.426c0.426,0.213,0.639,0,0.639,0s0.426-1.064,0.426-1.276
			c0-0.212,0.213-0.852,0.425-1.278c0.212-0.425,0-1.275,0-1.701s0.425-2.128,0.425-2.128s1.064-0.425,1.915-0.212
			c0.852,0.212,1.915,0.851,1.915,0.851s-0.639,3.617-0.639,4.468c0,0.851,0,1.489-0.425,2.339
			c-0.213,0.853-0.213,1.278-0.426,1.703c0,0.425-0.425,1.277-1.489,1.489c-1.064,0.214-4.468,0-5.531,0
			C6.936,21.328,6.297,21.328,5.872,21.328z"/>
	</g>
	<path fill="#F7B64C" d="M7.574,10.903c0-0.213,0.213-0.213,1.065-0.425c0.213,0,0.213,0,0.425,0c-0.425,0-1.703-0.213-3.405-1.277
		C5.66,9.201,6.085,10.264,7.574,10.903C7.574,11.115,7.574,10.903,7.574,10.903z"/>
	<g>
		<path fill="#415A6B" d="M3.532,69.2c0,0,0,0.425,0.638,0.851c0.639,0.426,1.49,1.064,2.128,1.702
			c0.639,0.639,2.979,1.063,4.255,0.639c1.277-0.426,1.49-0.639,1.49-0.639s0.212,0.213,0.212,0.426
			c-0.212,0.213-1.702,0.851-2.978,0.638C8,72.604,6.724,72.178,6.085,71.541c-0.638-0.639-0.851-0.852-0.851-0.852v0.425
			c0,0-1.277-0.425-1.49-0.638c-0.212-0.213-0.212-0.213-0.212-0.426V69.2L3.532,69.2z"/>
		<path fill="#415A6B" d="M13.531,68.135c0,0,0.213,0.426,0.852,0.426c0.852,0.213,1.915,0,2.767,0.213
			c0.85,0.214,2.553,0.639,3.403,0.639c0.852,0,2.979-0.639,2.979-1.064c0,0,0.425,0.426,0,0.852
			c-0.212,0.213-2.127,1.063-4.255,0.638L16.511,69.2v0.213c0,0-2.34,0.212-2.979-0.213C13.319,69.2,13.531,68.135,13.531,68.135z"
			/>
	</g>
</g>
</svg>
