<?xml version="1.0" encoding="utf-8"?>
<!-- Generator: Adobe Illustrator 22.0.1, SVG Export Plug-In . SVG Version: 6.00 Build 0)  -->
<svg version="1.1" id="Layer_1" xmlns="http://www.w3.org/2000/svg" xmlns:xlink="http://www.w3.org/1999/xlink" x="0px" y="0px"
	 viewBox="0 0 340 340" style="enable-background:new 0 0 340 340;" xml:space="preserve">
<style type="text/css">
	.st0{fill:none;stroke:#DDA803;stroke-width:5;}
	.st1{fill:#DDA803;}
	.st2{fill:none;stroke:#112F73;stroke-width:5;}
	.st3{fill:#112F73;}
	.st4{fill:#FFFFFF;}
</style>
<path class="st0" d="M170,170c-3.1-4.2-5.9-7.8-10.4-11.7c-9.9-9.2-13-27.1-1.8-49.7c10.8-21.2,11.5-49.7,12.2-79.2
	c0.7,29.5,1.4,58,12.2,79.2c11.2,22.6,8.1,40.5-1.8,49.7C175.9,162.2,170,138,170,138S173.1,165.8,170,170z"/>
<path id="left_part_of_trident" class="st0" d="M170,138h-43.5V34.6c21.2,11.6,22.2,45.7,21.8,65.8c-15.1-0.1-15.8,23.3,3.4,23.4
	C162.6,123.7,168.7,128.5,170,138z M125,112h12"/>
<g transform="scale(-1,1) translate(-340,0)">
	<path id="left_part_of_trident_1_" class="st0" d="M170,138h43.5V34.6c-21.2,11.6-22.2,45.7-21.8,65.8c15.1-0.1,15.8,23.3-3.4,23.4
		C177.4,123.7,171.3,128.5,170,138z M215,112h-12"/>
</g>
<ellipse class="st1" cx="170" cy="29.4" rx="2.5" ry="12"/>
<path class="st2" d="M170,244v-25.2c-22.3-73.8-63.2-58.1-64.8-23.9c5.1-64.8-32.2-87-50.2-52C38.8,92.1,55.7,75.1,92.2,54
	c21.4-5.3,28.4,14.8,12.2,14c-5.9-0.3,2.9-12.4,0.4-0.8 M92.2,54c7.4-7.4,11.1-14.1-0.3-17.7c-2.1-0.4-7.6,0.6-7.1,4.7
	c1.1,5.5,9.3,5.9,2.5-3.7 M76,64c13,0.9,20,6.2,18.1,18 M48.8,107.8c29.5-43.7,40.7,16.8,17.9,3C54.3,102,80,97.3,66.1,108
	 M99.2,146.3c0.6-8.8,0.9-17.9,8.7-19.7c12.8-1.5,5.9,14.8,0.8,1.2 M104.3,164.4c-26.1-28.1-38,4.3-32.1,11.3
	c21.8,12.9,21.5-13,14.4-9.9c-10.4,1.5-5.9,11.8-1.4,1.1 M72.1,175.7c4.4,12.4,16.2,29.5-1.6,28c-10.6-0.1,3.8-17.2,0-2.3
	 M138,168.5c-9.3-8.2-14.7-17.9-4.6-20.2c8.8-2.5,7,16.7,0.2,1.7 M154.5,184.1c-14.7-5.4-24.1-4.4-24.4,7.4c0,11.4,17.4-0.5,2.1,0.6
	 M170,224.3c-12.3-25.8-47.3-24.3-47.5,0.1c0.9,24.5,28.8,22,27.7,8.2c-1.7-22.3-25.2,2.7-4.7-0.9c3.9-0.7-0.6-7.9-5-1.9"/>
<g id="triangle">
	<path class="st3" d="M76,80h36l-18,48L76,80z"/>
	<g id="small_triangle">
		<path class="st4" d="M82,96l6-16l6,16H82z"/>
		<ellipse class="st3" cx="88" cy="91" rx="2" ry="4"/>
	</g>
	<g transform="translate(12,0)">
		<g id="small_triangle_1_">
			<path class="st4" d="M94,96l6-16l6,16H94z"/>
			<ellipse class="st3" cx="100" cy="91" rx="2" ry="4"/>
		</g>
	</g>
	<g transform="translate(6,16)">
		<g id="small_triangle_2_">
			<path class="st4" d="M88,112l6-16l6,16H88z"/>
			<ellipse class="st3" cx="94" cy="107" rx="2" ry="4"/>
		</g>
	</g>
</g>
<g>
	<g id="triangle_1_">
		<path class="st3" d="M36,140h36l-18,48L36,140z"/>
		<g id="small_triangle_3_">
			<path class="st4" d="M42,156l6-16l6,16H42z"/>
			<ellipse class="st3" cx="48" cy="151" rx="2" ry="4"/>
		</g>
		<g transform="translate(12,0)">
			<g id="small_triangle_4_">
				<path class="st4" d="M54,156l6-16l6,16H54z"/>
				<ellipse class="st3" cx="60" cy="151" rx="2" ry="4"/>
			</g>
		</g>
		<g transform="translate(-40,60)">
			<g id="small_triangle_5_">
				<path class="st4" d="M48,172l6-16l6,16H48z"/>
				<ellipse class="st3" cx="54" cy="167" rx="2" ry="4"/>
			</g>
		</g>
	</g>
	<g id="left_branch">
		<g id="triangle_2_">
			<path class="st3" d="M86,190h36l-18,48L86,190z"/>
			<g id="small_triangle_6_">
				<path class="st4" d="M92,206l6-16l6,16H92z"/>
				<ellipse class="st3" cx="98" cy="201" rx="2" ry="4"/>
			</g>
			<g transform="translate(12,0)">
				<g id="small_triangle_7_">
					<path class="st4" d="M104,206l6-16l6,16H104z"/>
					<ellipse class="st3" cx="110" cy="201" rx="2" ry="4"/>
				</g>
			</g>
			<g transform="translate(10,110)">
				<g id="small_triangle_8_">
					<path class="st4" d="M98,222l6-16l6,16H98z"/>
					<ellipse class="st3" cx="104" cy="217" rx="2" ry="4"/>
				</g>
			</g>
		</g>
	</g>
	<g>
		<g>
			<path class="st2" d="M170,244v-25.2c22.3-73.8,63.2-58.1,64.8-23.9c-5.1-64.8,32.2-87,50.2-52c16.2-50.8-0.7-67.8-37.2-88.9
				c-21.4-5.3-28.4,14.8-12.2,14c5.9-0.3-2.9-12.4-0.4-0.8 M247.8,54c-7.4-7.4-11.1-14.1,0.3-17.7c2.1-0.4,7.6,0.6,7.1,4.7
				c-1.1,5.5-9.3,5.9-2.5-3.7 M264,64c-13,0.9-20,6.2-18.1,18 M291.2,107.8c-29.5-43.7-40.7,16.8-17.9,3c12.4-8.8-13.3-13.5,0.6-2.8
				 M240.8,146.3c-0.6-8.8-0.9-17.9-8.7-19.7c-12.8-1.5-5.9,14.8-0.8,1.2 M235.7,164.4c26.1-28.1,38,4.3,32.1,11.3
				c-21.8,12.9-21.5-13-14.4-9.9c10.4,1.5,5.9,11.8,1.4,1.1 M267.9,175.7c-4.4,12.4-16.2,29.5,1.6,28c10.6-0.1-3.8-17.2,0-2.3
				 M202,168.5c9.3-8.2,14.7-17.9,4.6-20.2c-8.8-2.5-7,16.7-0.2,1.7 M185.5,184.1c14.7-5.4,24.1-4.4,24.4,7.4
				c0,11.4-17.4-0.5-2.1,0.6 M170,224.3c12.3-25.8,47.3-24.3,47.5,0.1c-0.9,24.5-28.8,22-27.7,8.2c1.7-22.3,25.2,2.7,4.7-0.9
				c-3.9-0.7,0.6-7.9,5-1.9"/>
			<g id="triangle_3_">
				<path class="st3" d="M264,80h-36l18,48L264,80z"/>
				<g id="small_triangle_9_">
					<path class="st4" d="M258,96l-6-16l-6,16H258z"/>
					<ellipse class="st3" cx="252" cy="91" rx="2" ry="4"/>
				</g>
				<g transform="translate(12,0)">
					<g id="small_triangle_10_">
						<path class="st4" d="M246,96l-6-16l-6,16H246z"/>
						<ellipse class="st3" cx="240" cy="91" rx="2" ry="4"/>
					</g>
				</g>
				<g transform="translate(6,16)">
					<g id="small_triangle_11_">
						<path class="st4" d="M252,112l-6-16l-6,16H252z"/>
						<ellipse class="st3" cx="246" cy="107" rx="2" ry="4"/>
					</g>
				</g>
			</g>
			<g>
				<g id="triangle_4_">
					<path class="st3" d="M304,140h-36l18,48L304,140z"/>
					<g id="small_triangle_12_">
						<path class="st4" d="M298,156l-6-16l-6,16H298z"/>
						<ellipse class="st3" cx="292" cy="151" rx="2" ry="4"/>
					</g>
					<g transform="translate(12,0)">
						<g id="small_triangle_13_">
							<path class="st4" d="M286,156l-6-16l-6,16H286z"/>
							<ellipse class="st3" cx="280" cy="151" rx="2" ry="4"/>
						</g>
					</g>
					<g transform="translate(-40,60)">
						<g id="small_triangle_14_">
							<path class="st4" d="M292,172l-6-16l-6,16H292z"/>
							<ellipse class="st3" cx="286" cy="167" rx="2" ry="4"/>
						</g>
					</g>
				</g>
				<g id="left_branch_1_">
					<g id="triangle_5_">
						<path class="st3" d="M254,190h-36l18,48L254,190z"/>
						<g id="small_triangle_15_">
							<path class="st4" d="M248,206l-6-16l-6,16H248z"/>
							<ellipse class="st3" cx="242" cy="201" rx="2" ry="4"/>
						</g>
						<g transform="translate(12,0)">
							<g id="small_triangle_16_">
								<path class="st4" d="M236,206l-6-16l-6,16H236z"/>
								<ellipse class="st3" cx="230" cy="201" rx="2" ry="4"/>
							</g>
						</g>
						<g transform="scale(-1,1) translate(-340,0)">
							<g id="small_triangle_17_">
								<path class="st4" d="M242,222l-6-16l-6,16H242z"/>
								<ellipse class="st3" cx="236" cy="217" rx="2" ry="4"/>
							</g>
						</g>
					</g>
				</g>
				<rect x="166" y="220" class="st3" width="8" height="24"/>
				<path id="m" class="st3" d="M62.2,268.9c-1.3,0-1.7,0.8-1.7,1.8v19.7c0,0.5,0.6,0.6,1.1,0.7c0.3,0,0.6,0.1,1,0.1s0.8,0,1-0.1
					c0.6-0.1,1.1-0.3,1.1-0.7v-18c2.1,5.9,4.2,12,6.2,18c0.1,0.5,0.7,0.6,1.3,0.7c0.3,0,0.6,0.1,1,0.1s0.7,0,1,0
					c0.8-0.1,1.1-0.2,1.3-0.7c2.2-6,4.2-12.1,6.4-18v18c0,0.5,0.6,0.6,1.1,0.7c0.3,0,0.6,0.1,1,0.1s0.8,0,1-0.1
					c0.6-0.1,1.1-0.2,1.1-0.7v-19.7c0-1.2-0.7-1.7-1.8-1.8h-3c-1.7,0.1-2.5,1.3-3,2.6c-1.7,4.3-3.2,8.9-5,13.1l-4.8-13.2
					c-0.7-1.8-1.9-2.5-3.5-2.5L62.2,268.9z"/>
				<path id="i" class="st3" d="M93.3,268.8c-0.4,0-0.8,0-1.1,0.1c-0.7,0.1-1.2,0.2-1.2,0.7v20.9c0,0.4,0.7,0.6,1.2,0.7
					c0.3,0,0.7,0.1,1.1,0.1s0.8,0,1.1-0.1c0.6-0.1,1.2-0.2,1.2-0.7v-20.9c0-0.5-0.7-0.6-1.2-0.7C94.1,268.9,93.8,268.8,93.3,268.8z"
					/>
				<path id="n" class="st3" d="M102.7,268.8c-0.4,0-0.8,0-1.1,0.1c-0.7,0.1-1.2,0.2-1.2,0.7v20.9c0,0.5,0.6,0.6,1.2,0.7
					c0.3,0,0.7,0.1,1.1,0.1s0.8,0,1.1-0.1c0.6-0.1,1.1-0.2,1.1-0.7v-8.9h8.3v8.9c0,0.4,0.6,0.6,1.1,0.7c0.3,0,0.7,0.1,1.1,0.1
					s0.8,0,1.1-0.1c0.7-0.1,1.2-0.3,1.2-0.7v-21c0-0.5-0.7-0.6-1.2-0.7c-0.3,0-0.6-0.1-1.1-0.1c-0.4,0-0.8,0-1.1,0.1
					c-0.7,0.1-1.1,0.2-1.1,0.7v8.1h-8.3v-8c0-0.4-0.7-0.6-1.1-0.7C103.5,268.9,103.2,268.8,102.7,268.8z"/>
				<g transform="translate(31.5,0)">
					<path id="i_1_" class="st3" d="M124.8,268.8c-0.4,0-0.8,0-1.1,0.1c-0.7,0.1-1.2,0.2-1.2,0.7v20.9c0,0.4,0.7,0.6,1.2,0.7
						c0.3,0,0.7,0.1,1.1,0.1s0.8,0,1.1-0.1c0.6-0.1,1.2-0.2,1.2-0.7v-20.9c0-0.5-0.7-0.6-1.2-0.7
						C125.6,268.9,125.3,268.8,124.8,268.8z"/>
				</g>
				<g id="st">
					<path id="s" class="st3" d="M141,268.5c-7.1,0.1-10.2,6-10.3,11.7c0.1,6.3,2.9,11.1,9.9,11.1c2,0,3.6-0.4,5.2-1.2
						c0.4-0.2,0.6-0.4,0.7-0.5c0.4-0.4,0.4-0.8,0.5-1.2c0-0.2,0-0.4,0-0.7c0-0.4,0-0.7,0-1c-0.1-1-0.5-1.1-1.2-0.6
						c-1.3,0.9-3,1.5-4.6,1.5c-3.9,0-5.7-4.1-5.7-7.6c0.2-4.2,1.6-7.5,5.6-7.7c1.9,0,3.2,0.7,4.6,1.6c0.9,0.7,1.2,0.2,1.2-0.7
						c0-0.2,0-0.5,0-0.9c0-0.3,0-0.6,0-0.8c-0.1-0.6-0.2-1-0.5-1.3c-0.1-0.2-0.4-0.3-0.8-0.6c-1.5-0.8-3.2-1.1-4.7-1.1L141,268.5z"
						/>
					<path id="t" class="st3" d="M148.9,268.9c-0.4,0-0.6,0.6-0.6,1c0,0.2,0,0.5,0,0.9c0,0.3,0,0.6,0,0.9c0.1,0.6,0.3,0.9,0.6,1h5.5
						v17.8c0,0.5,0.6,0.6,1.2,0.7c0.3,0,0.7,0.1,1.1,0.1c0.4,0,0.8,0,1.1-0.1c0.7-0.1,1.2-0.2,1.2-0.7v-17.8h5.5
						c0.4,0,0.5-0.6,0.6-1c0-0.2,0.1-0.5,0.1-0.9c0-0.3,0-0.6-0.1-0.9c-0.1-0.6-0.2-1-0.6-1H148.9z"/>
				</g>
				<path id="e" class="st3" d="M169.1,268.9c-1,0-1.3,0.6-1.3,1.4v19.3c0,0.9,0.5,1.4,1.3,1.4h11.1c0.4,0,0.5-0.4,0.6-0.9
					c0-0.2,0.1-0.5,0.1-0.8s0-0.6-0.1-0.8c-0.1-0.6-0.2-0.9-0.6-0.9h-8v-6.2h6.7c0.5,0,0.5-0.5,0.6-0.9c0-0.2,0.1-0.5,0.1-0.8
					s0-0.6-0.1-0.8c-0.1-0.6-0.2-0.9-0.6-0.9h-6.7v-5.4h7.9c0.5,0,0.5-0.5,0.6-0.9c0-0.2,0.1-0.5,0.1-0.8s0-0.6-0.1-0.8
					c-0.1-0.5-0.1-0.9-0.6-0.9L169.1,268.9z"/>
				<path id="r" class="st3" d="M186.4,268.9c-1.1,0-1.5,0.6-1.5,1.6v19.9c0,0.4,0.6,0.6,1.1,0.7c0.3,0,0.7,0.1,1.1,0.1
					c0.4,0,0.8,0,1.1-0.1c0.6-0.1,1.2-0.2,1.2-0.7v-7.1h1.8c1.5,0,2.7-0.2,3.8-0.5s2-0.8,2.7-1.5s1.3-1.5,1.7-2.4
					c0.4-1,0.6-2.1,0.6-3.3c0-0.9-0.1-1.7-0.4-2.4c-0.3-0.7-0.6-1.4-1.1-1.9s-1.1-1-1.7-1.3c-0.7-0.4-1.3-0.6-2-0.7
					s-1.2-0.2-1.7-0.3c-0.5,0-1-0.1-1.5-0.1L186.4,268.9z M189.4,272.3h1.9c0.5,0,0.9,0,1.3,0.1c0.4,0.1,0.9,0.2,1.3,0.4
					c0.4,0.2,0.7,0.6,1,1.1s0.4,1.1,0.4,1.9c0,0.6-0.1,1.1-0.2,1.6c-0.2,0.5-0.4,0.9-0.7,1.2c-0.3,0.3-0.7,0.6-1.2,0.8
					c-0.5,0.2-1.1,0.3-1.8,0.3h-2V272.3z"/>
				<g transform="translate(71.6,0)">
					<g id="st_1_">
						<path id="s_1_" class="st3" d="M212.6,268.5c-7.1,0.1-10.2,6-10.3,11.7c0.1,6.3,2.9,11.1,9.9,11.1c2,0,3.6-0.4,5.2-1.2
							c0.4-0.2,0.6-0.4,0.7-0.5c0.4-0.4,0.4-0.8,0.5-1.2c0-0.2,0-0.4,0-0.7c0-0.4,0-0.7,0-1c-0.1-1-0.5-1.1-1.2-0.6
							c-1.3,0.9-3,1.5-4.6,1.5c-3.9,0-5.7-4.1-5.7-7.6c0.2-4.2,1.6-7.5,5.6-7.7c1.9,0,3.2,0.7,4.6,1.6c0.9,0.7,1.2,0.2,1.2-0.7
							c0-0.2,0-0.5,0-0.9c0-0.3,0-0.6,0-0.8c-0.1-0.6-0.2-1-0.5-1.3c-0.1-0.2-0.4-0.3-0.8-0.6c-1.5-0.8-3.2-1.1-4.7-1.1L212.6,268.5
							z"/>
						<path id="t_1_" class="st3" d="M220.5,268.9c-0.4,0-0.6,0.6-0.6,1c0,0.2,0,0.5,0,0.9c0,0.3,0,0.6,0,0.9c0.1,0.6,0.3,0.9,0.6,1
							h5.5v17.8c0,0.5,0.6,0.6,1.2,0.7c0.3,0,0.7,0.1,1.1,0.1s0.8,0,1.1-0.1c0.7-0.1,1.2-0.2,1.2-0.7v-17.8h5.5c0.4,0,0.5-0.6,0.6-1
							c0-0.2,0.1-0.5,0.1-0.9c0-0.3,0-0.6-0.1-0.9c-0.1-0.6-0.2-1-0.6-1H220.5z"/>
					</g>
				</g>
				<path id="v" class="st3" d="M240.7,268.9c-1,0.1-1.3,0.7-1.3,1.4v19.3c0,0.9,0.5,1.4,1.3,1.4h5.9c0.9,0,1.7-0.1,2.4-0.2
					s1.4-0.3,2.1-0.5c0.6-0.2,1.2-0.5,1.7-0.9s1-0.8,1.4-1.3s0.7-1.1,0.9-1.7s0.3-1.4,0.3-2.1c0-0.8-0.1-1.4-0.3-2s-0.5-1.1-0.9-1.6
					s-0.8-0.8-1.4-1.1c-0.5-0.3-1.1-0.5-1.7-0.6c0.5-0.2,0.9-0.4,1.3-0.7c0.4-0.3,0.7-0.6,1-1s0.5-0.8,0.6-1.3s0.2-1,0.2-1.5
					c0-1-0.2-1.8-0.5-2.5s-0.8-1.3-1.5-1.7c-0.6-0.5-1.4-0.8-2.4-1c-0.9-0.2-2.1-0.3-3.4-0.3L240.7,268.9z M244,272.2h2.3
					c0.7,0,1.2,0.1,1.7,0.2c0.4,0.1,0.8,0.3,1,0.5c0.3,0.2,0.5,0.5,0.6,0.9s0.2,0.8,0.2,1.2c0,0.4-0.1,0.8-0.2,1.1
					c-0.1,0.4-0.3,0.7-0.6,0.9c-0.3,0.3-0.6,0.5-1,0.6s-0.9,0.2-1.6,0.2H244V272.2z M244,281h2.7c0.8,0,1.5,0.1,2,0.2
					s0.9,0.4,1.3,0.6c0.3,0.3,0.6,0.6,0.8,1s0.3,0.9,0.3,1.4s-0.1,0.9-0.3,1.3s-0.4,0.7-0.7,1s-0.7,0.4-1.1,0.6
					c-0.4,0.1-0.9,0.2-1.6,0.2H244V281z"/>
				<path id="o" class="st3" d="M268.6,268.5c-1.8,0-3.3,0.3-4.6,0.8c-1.3,0.5-2.4,1.3-3.3,2.3s-1.6,2.2-2,3.7
					c-0.5,1.4-0.7,3-0.7,4.8c0,1.9,0.2,3.6,0.6,5.1c0.4,1.4,1.1,2.6,1.9,3.5c0.9,0.9,1.9,1.6,3.2,2.1c1.3,0.4,2.8,0.7,4.5,0.7
					s3.3-0.3,4.6-0.8c1.3-0.5,2.4-1.3,3.3-2.3s1.6-2.2,2-3.7c0.5-1.4,0.7-3.1,0.7-4.9c0-1.9-0.2-3.6-0.7-5c-0.4-1.4-1.1-2.6-1.9-3.5
					c-0.9-0.9-1.9-1.6-3.2-2.1C271.7,268.8,270.2,268.5,268.6,268.5z M268.5,272.2c1.1,0,2,0.2,2.7,0.6s1.3,0.9,1.7,1.6
					c0.4,0.7,0.8,1.5,0.9,2.4c0.2,0.9,0.3,2,0.3,3.2c0,1.1-0.1,2.1-0.3,3c-0.2,0.9-0.5,1.8-1,2.5s-1.1,1.3-1.8,1.7
					c-0.7,0.4-1.7,0.6-2.8,0.6c-1.1,0-2-0.2-2.8-0.5c-0.7-0.4-1.3-0.9-1.7-1.6c-0.4-0.7-0.7-1.5-0.9-2.5c-0.2-1-0.3-2.1-0.3-3.3
					c0-1,0.1-2,0.3-2.9c0.2-0.9,0.5-1.7,1-2.4c0.5-0.7,1.1-1.2,1.8-1.7C266.3,272.5,267.3,272.2,268.5,272.2L268.5,272.2z"/>
				<path id="k" class="st3" d="M28.7,304.8c-0.4,0-0.8,0-1.1,0.1c-0.7,0.1-1.2,0.2-1.2,0.7v20.9c0,0.5,0.7,0.6,1.2,0.7
					c0.3,0,0.7,0.1,1.1,0.1s0.8,0,1.1-0.1c0.7-0.1,1.1-0.3,1.1-0.7v-8.8c3-0.1,4.3,1.4,5.2,3.8l1.8,4.9c0.2,0.6,0.8,0.7,1.3,0.8
					c0.3,0,0.7,0.1,1.2,0.1s0.8,0,1.1-0.1c1-0.1,1.3-0.5,1.1-1.1c-0.6-1.8-1.4-3.7-2.1-5.6c-1-2.1-2.4-4.1-4.1-5
					c2.1-1,3-2.8,3.8-4.6c0.6-1.6,1.3-3.2,1.7-4.8c0.2-0.8-0.3-1.1-1-1.2c-0.3,0-0.6-0.1-1.1-0.1s-0.9,0-1.2,0.1
					c-0.7,0-1.1,0.3-1.3,0.8l-1.5,4.4c-0.7,2.4-2.8,3.7-5,3.8v-8.3c0-0.4-0.6-0.6-1.1-0.7C29.4,304.9,29.1,304.8,28.7,304.8
					L28.7,304.8z"/>
				<path id="u" class="st3" d="M46.1,304.8c-0.5,0-1,0-1.3,0.1c-1.1,0.2-0.9,0.9-0.6,1.6l7.3,14.8c-1.1,2.3-2.7,2.4-4.3,1.4
					c-0.5-0.3-0.7-0.1-0.8,0.3c-0.1,0.3-0.1,0.7-0.1,1.4c0,0.4,0,0.7,0,0.9c0,0.5,0.1,0.9,0.4,1.2c0.8,0.6,1.9,0.7,2.9,0.7
					c2.6,0,4.6-1.2,5.6-3.3c2.8-5.6,5-11.9,7.4-18c0.3-0.8,0-1.2-0.7-1.3c-0.3,0-0.7-0.1-1.2-0.1s-0.9,0-1.2,0
					c-0.8,0.1-1.2,0.2-1.4,0.7l-4.2,11.6l-5-11c-0.4-0.7-0.8-1-1.5-1L46.1,304.8L46.1,304.8z"/>
				<path id="l" class="st3" d="M67.7,304.8c-0.4,0-0.7,0.1-0.9,0.4c-0.2,0.2-0.3,0.6-0.4,1.2c-0.3,2.5-0.5,4.6-0.8,6.4
					s-0.5,3.3-0.8,4.6c-0.3,1.2-0.5,2.2-0.8,3c-0.6,1.5-1.4,2.9-2.8,2.8c-0.6,0-0.6,0.6-0.7,1.1c0,0.3,0,0.7,0,1.2
					c0,0.4,0,0.6,0.1,0.9c0.1,0.7,0.3,0.8,0.9,0.9c0.9,0,1.7-0.1,2.5-0.3c0.7-0.2,1.4-0.5,1.9-1.1c2.7-2.8,3.3-7.1,3.8-10.5
					c0.3-1.9,0.7-4.2,1-6.8h4.8v17.8c0,0.5,0.6,0.6,1.1,0.6c0.3,0,0.6,0.1,1.1,0.1c0.4,0,0.8,0,1.1-0.1c0.7-0.1,1.2-0.1,1.2-0.6
					v-20.1c0-0.5-0.1-0.8-0.3-1.1c-0.2-0.2-0.5-0.4-0.9-0.4H67.7z"/>
				<g transform="scale(1,-1) translate(-100,-596)">
					<path id="r_1_" class="st3" d="M86.4,327.1c-1.1,0-1.5-0.6-1.5-1.6v-19.9c0-0.4,0.6-0.6,1.1-0.7c0.3,0,0.7-0.1,1.1-0.1
						c0.4,0,0.8,0,1.1,0.1c0.6,0.1,1.2,0.2,1.2,0.7v7.1h1.8c1.5,0,2.7,0.2,3.8,0.5s2,0.8,2.7,1.5s1.3,1.5,1.7,2.4
						c0.4,1,0.6,2.1,0.6,3.3c0,0.9-0.1,1.7-0.4,2.4c-0.3,0.7-0.6,1.4-1.1,1.9s-1.1,1-1.7,1.3c-0.7,0.4-1.3,0.6-2,0.7
						s-1.2,0.2-1.7,0.3c-0.5,0-1,0.1-1.5,0.1L86.4,327.1z M89.4,323.7h1.9c0.5,0,0.9,0,1.3-0.1c0.4-0.1,0.9-0.2,1.3-0.4
						c0.4-0.2,0.7-0.6,1-1.1s0.4-1.1,0.4-1.9c0-0.6-0.1-1.1-0.2-1.6c-0.2-0.5-0.4-0.9-0.7-1.2c-0.3-0.3-0.7-0.6-1.2-0.8
						c-0.5-0.2-1.1-0.3-1.8-0.3h-2V323.7z"/>
				</g>
				<g transform="translate(-48.8,36)">
					<path id="t_2_" class="st3" d="M100.1,304.9c-0.4,0-0.6,0.6-0.6,1c0,0.2,0,0.5,0,0.9c0,0.3,0,0.6,0,0.9c0.1,0.6,0.3,0.9,0.6,1
						h5.5v17.8c0,0.5,0.6,0.6,1.2,0.7c0.3,0,0.7,0.1,1.1,0.1c0.4,0,0.8,0,1.1-0.1c0.7-0.1,1.2-0.2,1.2-0.7v-17.8h5.5
						c0.4,0,0.5-0.6,0.6-1c0-0.2,0.1-0.5,0.1-0.9c0-0.3,0-0.6-0.1-0.9c-0.1-0.6-0.2-1-0.6-1H100.1z"/>
				</g>
				<g transform="translate(73,0)">
					<path id="u_1_" class="st3" d="M119.1,304.8c-0.5,0-1,0-1.3,0.1c-1.1,0.2-0.9,0.9-0.6,1.6l7.3,14.8c-1.1,2.3-2.7,2.4-4.3,1.4
						c-0.5-0.3-0.7-0.1-0.8,0.3c-0.1,0.3-0.1,0.7-0.1,1.4c0,0.4,0,0.7,0,0.9c0,0.5,0.1,0.9,0.4,1.2c0.8,0.6,1.9,0.7,2.9,0.7
						c2.6,0,4.6-1.2,5.6-3.3c2.8-5.6,5-11.9,7.4-18c0.3-0.8,0-1.2-0.7-1.3c-0.3,0-0.7-0.1-1.2-0.1s-0.9,0-1.2,0
						c-0.8,0.1-1.2,0.2-1.4,0.7l-4.2,11.6l-5-11c-0.4-0.7-0.8-1-1.5-1L119.1,304.8L119.1,304.8z"/>
				</g>
				<g transform="translate(-46.4,36)">
					<path id="r_2_" class="st3" d="M140,304.9c-1.1,0-1.5,0.6-1.5,1.6v19.9c0,0.4,0.6,0.6,1.1,0.7c0.3,0,0.7,0.1,1.1,0.1
						c0.4,0,0.8,0,1.1-0.1c0.6-0.1,1.2-0.2,1.2-0.7v-7.1h1.8c1.5,0,2.7-0.2,3.8-0.5s2-0.8,2.7-1.5c0.7-0.7,1.3-1.5,1.7-2.4
						c0.4-1,0.6-2.1,0.6-3.3c0-0.9-0.1-1.7-0.4-2.4c-0.3-0.7-0.6-1.4-1.1-1.9s-1.1-1-1.7-1.3c-0.7-0.4-1.3-0.6-2-0.7
						c-0.7-0.1-1.2-0.2-1.7-0.3c-0.5,0-1-0.1-1.5-0.1L140,304.9z M143,308.3h1.9c0.5,0,0.9,0,1.3,0.1s0.9,0.2,1.3,0.4
						c0.4,0.2,0.7,0.6,1,1.1c0.3,0.5,0.4,1.1,0.4,1.9c0,0.6-0.1,1.1-0.2,1.6c-0.2,0.5-0.4,0.9-0.7,1.2c-0.3,0.3-0.7,0.6-1.2,0.8
						c-0.5,0.2-1.1,0.3-1.8,0.3h-2V308.3z"/>
				</g>
				<path id="y" class="st3" d="M159.2,304.8c-0.4,0-0.8,0-1.1,0.1c-0.7,0.1-1.2,0.2-1.2,0.6v20.9c0,0.5,0.5,0.6,1,0.7
					c0.3,0,0.6,0.1,1.1,0.1c0.4,0,0.6,0,0.9,0c0.6-0.1,0.9-0.3,1.2-0.6c3-4.7,6.6-9.5,9.3-14.1l0,0c-0.2,4.6-0.1,9.4-0.1,14.1
					c0,0.5,0.6,0.6,1.1,0.6c0.3,0,0.7,0.1,1.1,0.1c0.4,0,0.8,0,1.1-0.1c0.7-0.1,1.2-0.2,1.2-0.6v-20.9c0-0.4-0.6-0.6-1.1-0.7
					c-0.3,0-0.6-0.1-1-0.1s-0.6,0-0.9,0c-0.6,0.1-1,0.3-1.2,0.6c-3.2,5.1-6.6,9.5-9.3,14.1l0,0c0.2-4.6,0.1-9.4,0.1-14.1
					c0-0.5-0.7-0.6-1.1-0.6C160,304.9,159.7,304.8,159.2,304.8z"/>
				<g transform="translate(141.5,0)">
					<path id="u_2_" class="st3" d="M187.6,304.8c-0.5,0-1,0-1.3,0.1c-1.1,0.2-0.9,0.9-0.6,1.6l7.3,14.8c-1.1,2.3-2.7,2.4-4.3,1.4
						c-0.5-0.3-0.7-0.1-0.8,0.3c-0.1,0.3-0.1,0.7-0.1,1.4c0,0.4,0,0.7,0,0.9c0,0.5,0.1,0.9,0.4,1.2c0.8,0.6,1.9,0.7,2.9,0.7
						c2.6,0,4.6-1.2,5.6-3.3c2.8-5.6,5-11.9,7.4-18c0.3-0.8,0-1.2-0.7-1.3c-0.3,0-0.7-0.1-1.2-0.1s-0.9,0-1.2,0
						c-0.8,0.1-1.2,0.2-1.4,0.7l-4.2,11.6l-5-11c-0.4-0.7-0.8-1-1.5-1L187.6,304.8L187.6,304.8z"/>
				</g>
				<g transform="translate(180.4,0)">
					<path id="k_1_" class="st3" d="M209.1,304.8c-0.4,0-0.8,0-1.1,0.1c-0.7,0.1-1.2,0.2-1.2,0.7v20.9c0,0.5,0.7,0.6,1.2,0.7
						c0.3,0,0.7,0.1,1.1,0.1c0.4,0,0.8,0,1.1-0.1c0.7-0.1,1.1-0.3,1.1-0.7v-8.8c3-0.1,4.3,1.4,5.2,3.8l1.8,4.9
						c0.2,0.6,0.8,0.7,1.3,0.8c0.3,0,0.7,0.1,1.2,0.1s0.8,0,1.1-0.1c1-0.1,1.3-0.5,1.1-1.1c-0.6-1.8-1.4-3.7-2.1-5.6
						c-1-2.1-2.4-4.1-4.1-5c2.1-1,3-2.8,3.8-4.6c0.6-1.6,1.3-3.2,1.7-4.8c0.2-0.8-0.3-1.1-1-1.2c-0.3,0-0.6-0.1-1.1-0.1
						s-0.9,0-1.2,0.1c-0.7,0-1.1,0.3-1.3,0.8l-1.5,4.4c-0.7,2.4-2.8,3.7-5,3.8v-8.3c0-0.4-0.6-0.6-1.1-0.7
						C209.8,304.9,209.5,304.8,209.1,304.8L209.1,304.8z"/>
				</g>
				<g transform="translate(41.8,36)">
					<path id="r_3_" class="st3" d="M228.2,304.9c-1.1,0-1.5,0.6-1.5,1.6v19.9c0,0.4,0.6,0.6,1.1,0.7c0.3,0,0.7,0.1,1.1,0.1
						c0.4,0,0.8,0,1.1-0.1c0.6-0.1,1.2-0.2,1.2-0.7v-7.1h1.8c1.5,0,2.7-0.2,3.8-0.5s2-0.8,2.7-1.5s1.3-1.5,1.7-2.4
						c0.4-1,0.6-2.1,0.6-3.3c0-0.9-0.1-1.7-0.4-2.4c-0.3-0.7-0.6-1.4-1.1-1.9s-1.1-1-1.7-1.3c-0.7-0.4-1.3-0.6-2-0.7
						s-1.2-0.2-1.7-0.3c-0.5,0-1-0.1-1.5-0.1L228.2,304.9z M231.2,308.3h1.9c0.5,0,0.9,0,1.3,0.1c0.4,0.1,0.9,0.2,1.3,0.4
						c0.4,0.2,0.7,0.6,1,1.1s0.4,1.1,0.4,1.9c0,0.6-0.1,1.1-0.2,1.6c-0.2,0.5-0.4,0.9-0.7,1.2c-0.3,0.3-0.7,0.6-1.2,0.8
						c-0.5,0.2-1.1,0.3-1.8,0.3h-2V308.3z"/>
				</g>
				<path id="a" class="st3" d="M251.2,304.8c-0.6,0-1,0-1.4,0c-0.8,0.1-1.3,0.3-1.5,0.9l-6.8,19.6c-0.4,1-0.4,1.7,0.5,1.8
					c0.3,0,0.7,0.1,1.2,0.1s0.9,0,1.2,0c0.7-0.1,1.1-0.3,1.2-0.8l1.4-4.3h8.3l1.5,4.4c0.1,0.4,0.7,0.6,1.3,0.7c0.3,0,0.8,0,1.4,0
					s1,0,1.3-0.1c0.8-0.1,0.8-0.8,0.5-1.7l-6.8-19.6c-0.3-0.8-0.9-1-1.7-1H251.2L251.2,304.8z M251.3,309L251.3,309l3.1,9.4h-6.3
					L251.3,309z"/>
				<g id="yi">
					<g transform="translate(173.4,36)">
						<path id="i_2_" class="st3" d="M266.7,304.8c-0.4,0-0.8,0-1.1,0.1c-0.7,0.1-1.2,0.2-1.2,0.7v20.9c0,0.4,0.7,0.6,1.2,0.7
							c0.3,0,0.7,0.1,1.1,0.1c0.4,0,0.8,0,1.1-0.1c0.6-0.1,1.2-0.2,1.2-0.7v-20.9c0-0.5-0.7-0.6-1.2-0.7
							C267.5,304.9,267.2,304.8,266.7,304.8z"/>
					</g>
					<path id="i_dot" class="st3" d="M263,298.7c-0.9,0-1.5,0.2-1.8,0.5s-0.5,0.9-0.5,1.7c0,0.8,0.2,1.3,0.5,1.6
						c0.3,0.3,0.9,0.5,1.8,0.5s1.5-0.2,1.8-0.5s0.5-0.9,0.5-1.7c0-0.8-0.2-1.3-0.5-1.6C264.5,298.9,263.9,298.7,263,298.7z"/>
					<g transform="translate(7.5,0)">
						<path id="i_dot_1_" class="st3" d="M270.5,298.7c-0.9,0-1.5,0.2-1.8,0.5s-0.5,0.9-0.5,1.7c0,0.8,0.2,1.3,0.5,1.6
							c0.3,0.3,0.9,0.5,1.8,0.5s1.5-0.2,1.8-0.5s0.5-0.9,0.5-1.7c0-0.8-0.2-1.3-0.5-1.6C272,298.9,271.4,298.7,270.5,298.7z"/>
					</g>
				</g>
				<g transform="translate(173.5,36)">
					<path id="n_1_" class="st3" d="M276.2,304.8c-0.4,0-0.8,0-1.1,0.1c-0.7,0.1-1.2,0.2-1.2,0.7v20.9c0,0.5,0.6,0.6,1.2,0.7
						c0.3,0,0.7,0.1,1.1,0.1c0.4,0,0.8,0,1.1-0.1c0.6-0.1,1.1-0.2,1.1-0.7v-8.9h8.3v8.9c0,0.4,0.6,0.6,1.1,0.7
						c0.3,0,0.7,0.1,1.1,0.1s0.8,0,1.1-0.1c0.7-0.1,1.2-0.3,1.2-0.7v-21c0-0.5-0.7-0.6-1.2-0.7c-0.3,0-0.6-0.1-1.1-0.1
						c-0.4,0-0.8,0-1.1,0.1c-0.7,0.1-1.1,0.2-1.1,0.7v8.1h-8.3v-8c0-0.4-0.7-0.6-1.1-0.7C277,304.9,276.7,304.8,276.2,304.8z"/>
				</g>
				<g transform="translate(139,0)">
					<path id="y_1_" class="st3" d="M298.2,304.8c-0.4,0-0.8,0-1.1,0.1c-0.7,0.1-1.2,0.2-1.2,0.6v20.9c0,0.5,0.5,0.6,1,0.7
						c0.3,0,0.6,0.1,1.1,0.1c0.4,0,0.6,0,0.9,0c0.6-0.1,0.9-0.3,1.2-0.6c3-4.7,6.6-9.5,9.3-14.1l0,0c-0.2,4.6-0.1,9.4-0.1,14.1
						c0,0.5,0.6,0.6,1.1,0.6c0.3,0,0.7,0.1,1.1,0.1c0.4,0,0.8,0,1.1-0.1c0.7-0.1,1.2-0.2,1.2-0.6v-20.9c0-0.4-0.6-0.6-1.1-0.7
						c-0.3,0-0.6-0.1-1-0.1c-0.4,0-0.6,0-0.9,0c-0.6,0.1-1,0.3-1.2,0.6c-3.2,5.1-6.6,9.5-9.3,14.1l0,0c0.2-4.6,0.1-9.4,0.1-14.1
						c0-0.5-0.7-0.6-1.1-0.6C299,304.9,298.7,304.8,298.2,304.8z"/>
				</g>
			</g>
		</g>
	</g>
</g>
<path class="st0" d="M-225.9,170c-3.1-4.2-5.9-7.8-10.4-11.7c-9.9-9.2-13-27.1-1.8-49.7c10.8-21.2,11.5-49.7,12.2-79.2
	c0.7,29.5,1.4,58,12.2,79.2c11.2,22.6,8.1,40.5-1.8,49.7c-4.5,3.9-10.4-20.3-10.4-20.3S-222.8,165.8-225.9,170z"/>
<path id="left_part_of_trident_3_" class="st0" d="M-225.9,138h-43.5V34.6c21.2,11.6,22.2,45.7,21.8,65.8
	c-15.1-0.1-15.8,23.3,3.4,23.4C-233.3,123.7-227.2,128.5-225.9,138z M-270.9,112h12"/>
<g transform="scale(-1,1) translate(-340,0)">
	<path id="left_part_of_trident_2_" class="st0" d="M-225.9,138h43.5V34.6c-21.2,11.6-22.2,45.7-21.8,65.8
		c15.1-0.1,15.8,23.3-3.4,23.4C-218.5,123.7-224.6,128.5-225.9,138z M-180.9,112h-12"/>
</g>
<ellipse class="st1" cx="-225.9" cy="29.4" rx="2.5" ry="12"/>
<path class="st2" d="M-225.9,244v-25.2c-22.3-73.8-63.2-58.1-64.8-23.9c5.1-64.8-32.2-87-50.2-52c-16.2-50.8,0.7-67.8,37.2-88.9
	c21.4-5.3,28.4,14.8,12.2,14c-5.9-0.3,2.9-12.4,0.4-0.8 M-303.7,54c7.4-7.4,11.1-14.1-0.3-17.7c-2.1-0.4-7.6,0.6-7.1,4.7
	c1.1,5.5,9.3,5.9,2.5-3.7 M-319.9,64c13,0.9,20,6.2,18.1,18 M-347.1,107.8c29.5-43.7,40.7,16.8,17.9,3c-12.4-8.8,13.3-13.5-0.6-2.8
	 M-296.7,146.3c0.6-8.8,0.9-17.9,8.7-19.7c12.8-1.5,5.9,14.8,0.8,1.2 M-291.6,164.4c-26.1-28.1-38,4.3-32.1,11.3
	c21.8,12.9,21.5-13,14.4-9.9c-10.4,1.5-5.9,11.8-1.4,1.1 M-323.8,175.7c4.4,12.4,16.2,29.5-1.6,28c-10.6-0.1,3.8-17.2,0-2.3
	 M-257.9,168.5c-9.3-8.2-14.7-17.9-4.6-20.2c8.8-2.5,7,16.7,0.2,1.7 M-241.4,184.1c-14.7-5.4-24.1-4.4-24.4,7.4
	c0,11.4,17.4-0.5,2.1,0.6 M-225.9,224.3c-12.3-25.8-47.3-24.3-47.5,0.1c0.9,24.5,28.8,22,27.7,8.2c-1.7-22.3-25.2,2.7-4.7-0.9
	c3.9-0.7-0.6-7.9-5-1.9"/>
<g id="triangle_11_">
	<path class="st3" d="M-319.9,80h36l-18,48L-319.9,80z"/>
	<g id="small_triangle_35_">
		<path class="st4" d="M-313.9,96l6-16l6,16H-313.9z"/>
		<ellipse class="st3" cx="-307.9" cy="91" rx="2" ry="4"/>
	</g>
	<g transform="translate(12,0)">
		<g id="small_triangle_34_">
			<path class="st4" d="M-301.9,96l6-16l6,16H-301.9z"/>
			<ellipse class="st3" cx="-295.9" cy="91" rx="2" ry="4"/>
		</g>
	</g>
	<g transform="translate(6,16)">
		<g id="small_triangle_33_">
			<path class="st4" d="M-307.9,112l6-16l6,16H-307.9z"/>
			<ellipse class="st3" cx="-301.9" cy="107" rx="2" ry="4"/>
		</g>
	</g>
</g>
<g id="triangle_10_">
	<path class="st3" d="M-359.9,140h36l-18,48L-359.9,140z"/>
	<g id="small_triangle_32_">
		<path class="st4" d="M-353.9,156l6-16l6,16H-353.9z"/>
		<ellipse class="st3" cx="-347.9" cy="151" rx="2" ry="4"/>
	</g>
	<g transform="translate(12,0)">
		<g id="small_triangle_31_">
			<path class="st4" d="M-341.9,156l6-16l6,16H-341.9z"/>
			<ellipse class="st3" cx="-335.9" cy="151" rx="2" ry="4"/>
		</g>
	</g>
	<g transform="translate(-40,60)">
		<g id="small_triangle_30_">
			<path class="st4" d="M-347.9,172l6-16l6,16H-347.9z"/>
			<ellipse class="st3" cx="-341.9" cy="167" rx="2" ry="4"/>
		</g>
	</g>
</g>
<g id="left_branch_3_">
	<g id="triangle_9_">
		<path class="st3" d="M-309.9,190h36l-18,48L-309.9,190z"/>
		<g id="small_triangle_29_">
			<path class="st4" d="M-303.9,206l6-16l6,16H-303.9z"/>
			<ellipse class="st3" cx="-297.9" cy="201" rx="2" ry="4"/>
		</g>
		<g transform="translate(12,0)">
			<g id="small_triangle_28_">
				<path class="st4" d="M-291.9,206l6-16l6,16H-291.9z"/>
				<ellipse class="st3" cx="-285.9" cy="201" rx="2" ry="4"/>
			</g>
		</g>
		<g transform="translate(10,110)">
			<g id="small_triangle_27_">
				<path class="st4" d="M-297.9,222l6-16l6,16H-297.9z"/>
				<ellipse class="st3" cx="-291.9" cy="217" rx="2" ry="4"/>
			</g>
		</g>
	</g>
</g>
<path class="st2" d="M-225.9,244v-25.2c22.3-73.8,63.2-58.1,64.8-23.9c-5.1-64.8,32.2-87,50.2-52c16.2-50.8-0.7-67.8-37.2-88.9
	c-21.4-5.3-28.4,14.8-12.2,14c5.9-0.3-2.9-12.4-0.4-0.8 M-148.1,54c-7.4-7.4-11.1-14.1,0.3-17.7c2.1-0.4,7.6,0.6,7.1,4.7
	c-1.1,5.5-9.3,5.9-2.5-3.7 M-131.9,64c-13,0.9-20,6.2-18.1,18 M-104.7,107.8c-29.5-43.7-40.7,16.8-17.9,3
	c12.4-8.8-13.3-13.5,0.6-2.8 M-155.1,146.3c-0.6-8.8-0.9-17.9-8.7-19.7c-12.8-1.5-5.9,14.8-0.8,1.2 M-160.2,164.4
	c26.1-28.1,38,4.3,32.1,11.3c-21.8,12.9-21.5-13-14.4-9.9c10.4,1.5,5.9,11.8,1.4,1.1 M-128,175.7c-4.4,12.4-16.2,29.5,1.6,28
	c10.6-0.1-3.8-17.2,0-2.3 M-193.9,168.5c9.3-8.2,14.7-17.9,4.6-20.2c-8.8-2.5-7,16.7-0.2,1.7 M-210.4,184.1
	c14.7-5.4,24.1-4.4,24.4,7.4c0,11.4-17.4-0.5-2.1,0.6 M-225.9,224.3c12.3-25.8,47.3-24.3,47.5,0.1c-0.9,24.5-28.8,22-27.7,8.2
	c1.7-22.3,25.2,2.7,4.7-0.9c-3.9-0.7,0.6-7.9,5-1.9"/>
<g id="triangle_8_">
	<path class="st3" d="M-131.9,80h-36l18,48L-131.9,80z"/>
	<g id="small_triangle_26_">
		<path class="st4" d="M-137.9,96l-6-16l-6,16H-137.9z"/>
		<ellipse class="st3" cx="-143.9" cy="91" rx="2" ry="4"/>
	</g>
	<g transform="translate(12,0)">
		<g id="small_triangle_25_">
			<path class="st4" d="M-149.9,96l-6-16l-6,16H-149.9z"/>
			<ellipse class="st3" cx="-155.9" cy="91" rx="2" ry="4"/>
		</g>
	</g>
	<g transform="translate(6,16)">
		<g id="small_triangle_24_">
			<path class="st4" d="M-143.9,112l-6-16l-6,16H-143.9z"/>
			<ellipse class="st3" cx="-149.9" cy="107" rx="2" ry="4"/>
		</g>
	</g>
</g>
<g id="triangle_7_">
	<path class="st3" d="M-91.9,140h-36l18,48L-91.9,140z"/>
	<g id="small_triangle_23_">
		<path class="st4" d="M-97.9,156l-6-16l-6,16H-97.9z"/>
		<ellipse class="st3" cx="-103.9" cy="151" rx="2" ry="4"/>
	</g>
	<g transform="translate(12,0)">
		<g id="small_triangle_22_">
			<path class="st4" d="M-109.9,156l-6-16l-6,16H-109.9z"/>
			<ellipse class="st3" cx="-115.9" cy="151" rx="2" ry="4"/>
		</g>
	</g>
	<g transform="translate(-40,60)">
		<g id="small_triangle_21_">
			<path class="st4" d="M-103.9,172l-6-16l-6,16H-103.9z"/>
			<ellipse class="st3" cx="-109.9" cy="167" rx="2" ry="4"/>
		</g>
	</g>
</g>
<g id="left_branch_2_">
	<g id="triangle_6_">
		<path class="st3" d="M-141.9,190h-36l18,48L-141.9,190z"/>
		<g id="small_triangle_20_">
			<path class="st4" d="M-147.9,206l-6-16l-6,16H-147.9z"/>
			<ellipse class="st3" cx="-153.9" cy="201" rx="2" ry="4"/>
		</g>
		<g transform="translate(12,0)">
			<g id="small_triangle_19_">
				<path class="st4" d="M-159.9,206l-6-16l-6,16H-159.9z"/>
				<ellipse class="st3" cx="-165.9" cy="201" rx="2" ry="4"/>
			</g>
		</g>
		<g transform="scale(-1,1) translate(-340,0)">
			<g id="small_triangle_18_">
				<path class="st4" d="M-153.9,222l-6-16l-6,16H-153.9z"/>
				<ellipse class="st3" cx="-159.9" cy="217" rx="2" ry="4"/>
			</g>
		</g>
	</g>
</g>
<rect x="-229.9" y="220" class="st3" width="8" height="24"/>
<path id="m_1_" class="st4" d="M-333.7,268.9c-1.3,0-1.7,0.8-1.7,1.8v19.7c0,0.5,0.6,0.6,1.1,0.7c0.3,0,0.6,0.1,1,0.1
	c0.4,0,0.8,0,1-0.1c0.6-0.1,1.1-0.3,1.1-0.7v-18c2.1,5.9,4.2,12,6.2,18c0.1,0.5,0.7,0.6,1.3,0.7c0.3,0,0.6,0.1,1,0.1s0.7,0,1,0
	c0.8-0.1,1.1-0.2,1.3-0.7c2.2-6,4.2-12.1,6.4-18v18c0,0.5,0.6,0.6,1.1,0.7c0.3,0,0.6,0.1,1,0.1c0.4,0,0.8,0,1-0.1
	c0.6-0.1,1.1-0.2,1.1-0.7v-19.7c0-1.2-0.7-1.7-1.8-1.8h-3c-1.7,0.1-2.5,1.3-3,2.6c-1.7,4.3-3.2,8.9-5,13.1l-4.8-13.2
	c-0.7-1.8-1.9-2.5-3.5-2.5L-333.7,268.9z"/>
<path id="i_5_" class="st4" d="M-302.6,268.8c-0.4,0-0.8,0-1.1,0.1c-0.7,0.1-1.2,0.2-1.2,0.7v20.9c0,0.4,0.7,0.6,1.2,0.7
	c0.3,0,0.7,0.1,1.1,0.1s0.8,0,1.1-0.1c0.6-0.1,1.2-0.2,1.2-0.7v-20.9c0-0.5-0.7-0.6-1.2-0.7C-301.8,268.9-302.1,268.8-302.6,268.8z"
	/>
<path id="n_3_" class="st4" d="M-293.2,268.8c-0.4,0-0.8,0-1.1,0.1c-0.7,0.1-1.2,0.2-1.2,0.7v20.9c0,0.5,0.6,0.6,1.2,0.7
	c0.3,0,0.7,0.1,1.1,0.1s0.8,0,1.1-0.1c0.6-0.1,1.1-0.2,1.1-0.7v-8.9h8.3v8.9c0,0.4,0.6,0.6,1.1,0.7c0.3,0,0.7,0.1,1.1,0.1
	c0.4,0,0.8,0,1.1-0.1c0.7-0.1,1.2-0.3,1.2-0.7v-21c0-0.5-0.7-0.6-1.2-0.7c-0.3,0-0.6-0.1-1.1-0.1c-0.4,0-0.8,0-1.1,0.1
	c-0.7,0.1-1.1,0.2-1.1,0.7v8.1h-8.3v-8c0-0.4-0.7-0.6-1.1-0.7C-292.4,268.9-292.7,268.8-293.2,268.8z"/>
<g transform="translate(31.5,0)">
	<path id="i_4_" class="st4" d="M-271.1,268.8c-0.4,0-0.8,0-1.1,0.1c-0.7,0.1-1.2,0.2-1.2,0.7v20.9c0,0.4,0.7,0.6,1.2,0.7
		c0.3,0,0.7,0.1,1.1,0.1s0.8,0,1.1-0.1c0.6-0.1,1.2-0.2,1.2-0.7v-20.9c0-0.5-0.7-0.6-1.2-0.7C-270.3,268.9-270.6,268.8-271.1,268.8z
		"/>
</g>
<g id="st_3_">
	<path id="s_3_" class="st4" d="M-254.9,268.5c-7.1,0.1-10.2,6-10.3,11.7c0.1,6.3,2.9,11.1,9.9,11.1c2,0,3.6-0.4,5.2-1.2
		c0.4-0.2,0.6-0.4,0.7-0.5c0.4-0.4,0.4-0.8,0.5-1.2c0-0.2,0-0.4,0-0.7c0-0.4,0-0.7,0-1c-0.1-1-0.5-1.1-1.2-0.6
		c-1.3,0.9-3,1.5-4.6,1.5c-3.9,0-5.7-4.1-5.7-7.6c0.2-4.2,1.6-7.5,5.6-7.7c1.9,0,3.2,0.7,4.6,1.6c0.9,0.7,1.2,0.2,1.2-0.7
		c0-0.2,0-0.5,0-0.9c0-0.3,0-0.6,0-0.8c-0.1-0.6-0.2-1-0.5-1.3c-0.1-0.2-0.4-0.3-0.8-0.6c-1.5-0.8-3.2-1.1-4.7-1.1L-254.9,268.5z"/>
	<path id="t_5_" class="st4" d="M-247,268.9c-0.4,0-0.6,0.6-0.6,1c0,0.2,0,0.5,0,0.9c0,0.3,0,0.6,0,0.9c0.1,0.6,0.3,0.9,0.6,1h5.5
		v17.8c0,0.5,0.6,0.6,1.2,0.7c0.3,0,0.7,0.1,1.1,0.1c0.4,0,0.8,0,1.1-0.1c0.7-0.1,1.2-0.2,1.2-0.7v-17.8h5.5c0.4,0,0.5-0.6,0.6-1
		c0-0.2,0.1-0.5,0.1-0.9c0-0.3,0-0.6-0.1-0.9c-0.1-0.6-0.2-1-0.6-1H-247z"/>
</g>
<path id="e_1_" class="st4" d="M-226.8,268.9c-1,0-1.3,0.6-1.3,1.4v19.3c0,0.9,0.5,1.4,1.3,1.4h11.1c0.4,0,0.5-0.4,0.6-0.9
	c0-0.2,0.1-0.5,0.1-0.8s0-0.6-0.1-0.8c-0.1-0.6-0.2-0.9-0.6-0.9h-8v-6.2h6.7c0.5,0,0.5-0.5,0.6-0.9c0-0.2,0.1-0.5,0.1-0.8
	s0-0.6-0.1-0.8c-0.1-0.6-0.2-0.9-0.6-0.9h-6.7v-5.4h7.9c0.5,0,0.5-0.5,0.6-0.9c0-0.2,0.1-0.5,0.1-0.8s0-0.6-0.1-0.8
	c-0.1-0.5-0.1-0.9-0.6-0.9L-226.8,268.9z"/>
<path id="r_7_" class="st4" d="M-209.5,268.9c-1.1,0-1.5,0.6-1.5,1.6v19.9c0,0.4,0.6,0.6,1.1,0.7c0.3,0,0.7,0.1,1.1,0.1
	c0.4,0,0.8,0,1.1-0.1c0.6-0.1,1.2-0.2,1.2-0.7v-7.1h1.8c1.5,0,2.7-0.2,3.8-0.5s2-0.8,2.7-1.5s1.3-1.5,1.7-2.4c0.4-1,0.6-2.1,0.6-3.3
	c0-0.9-0.1-1.7-0.4-2.4c-0.3-0.7-0.6-1.4-1.1-1.9s-1.1-1-1.7-1.3c-0.7-0.4-1.3-0.6-2-0.7s-1.2-0.2-1.7-0.3c-0.5,0-1-0.1-1.5-0.1
	L-209.5,268.9z M-206.5,272.3h1.9c0.5,0,0.9,0,1.3,0.1c0.4,0.1,0.9,0.2,1.3,0.4c0.4,0.2,0.7,0.6,1,1.1s0.4,1.1,0.4,1.9
	c0,0.6-0.1,1.1-0.2,1.6c-0.2,0.5-0.4,0.9-0.7,1.2c-0.3,0.3-0.7,0.6-1.2,0.8c-0.5,0.2-1.1,0.3-1.8,0.3h-2V272.3z"/>
<g transform="translate(71.6,0)">
	<g id="st_2_">
		<path id="s_2_" class="st4" d="M-183.3,268.5c-7.1,0.1-10.2,6-10.3,11.7c0.1,6.3,2.9,11.1,9.9,11.1c2,0,3.6-0.4,5.2-1.2
			c0.4-0.2,0.6-0.4,0.7-0.5c0.4-0.4,0.4-0.8,0.5-1.2c0-0.2,0-0.4,0-0.7c0-0.4,0-0.7,0-1c-0.1-1-0.5-1.1-1.2-0.6
			c-1.3,0.9-3,1.5-4.6,1.5c-3.9,0-5.7-4.1-5.7-7.6c0.2-4.2,1.6-7.5,5.6-7.7c1.9,0,3.2,0.7,4.6,1.6c0.9,0.7,1.2,0.2,1.2-0.7
			c0-0.2,0-0.5,0-0.9c0-0.3,0-0.6,0-0.8c-0.1-0.6-0.2-1-0.5-1.3c-0.1-0.2-0.4-0.3-0.8-0.6c-1.5-0.8-3.2-1.1-4.7-1.1L-183.3,268.5z"
			/>
		<path id="t_4_" class="st4" d="M-175.4,268.9c-0.4,0-0.6,0.6-0.6,1c0,0.2,0,0.5,0,0.9c0,0.3,0,0.6,0,0.9c0.1,0.6,0.3,0.9,0.6,1
			h5.5v17.8c0,0.5,0.6,0.6,1.2,0.7c0.3,0,0.7,0.1,1.1,0.1c0.4,0,0.8,0,1.1-0.1c0.7-0.1,1.2-0.2,1.2-0.7v-17.8h5.5
			c0.4,0,0.5-0.6,0.6-1c0-0.2,0.1-0.5,0.1-0.9c0-0.3,0-0.6-0.1-0.9c-0.1-0.6-0.2-1-0.6-1H-175.4z"/>
	</g>
</g>
<path id="v_1_" class="st4" d="M-155.2,268.9c-1,0.1-1.3,0.7-1.3,1.4v19.3c0,0.9,0.5,1.4,1.3,1.4h5.9c0.9,0,1.7-0.1,2.4-0.2
	s1.4-0.3,2.1-0.5c0.6-0.2,1.2-0.5,1.7-0.9s1-0.8,1.4-1.3s0.7-1.1,0.9-1.7s0.3-1.4,0.3-2.1c0-0.8-0.1-1.4-0.3-2s-0.5-1.1-0.9-1.6
	s-0.8-0.8-1.4-1.1c-0.5-0.3-1.1-0.5-1.7-0.6c0.5-0.2,0.9-0.4,1.3-0.7c0.4-0.3,0.7-0.6,1-1s0.5-0.8,0.6-1.3s0.2-1,0.2-1.5
	c0-1-0.2-1.8-0.5-2.5s-0.8-1.3-1.5-1.7c-0.6-0.5-1.4-0.8-2.4-1c-0.9-0.2-2.1-0.3-3.4-0.3L-155.2,268.9z M-151.9,272.2h2.3
	c0.7,0,1.2,0.1,1.7,0.2c0.4,0.1,0.8,0.3,1,0.5c0.3,0.2,0.5,0.5,0.6,0.9s0.2,0.8,0.2,1.2c0,0.4-0.1,0.8-0.2,1.1
	c-0.1,0.4-0.3,0.7-0.6,0.9c-0.3,0.3-0.6,0.5-1,0.6s-0.9,0.2-1.6,0.2h-2.4V272.2z M-151.9,281h2.7c0.8,0,1.5,0.1,2,0.2
	s0.9,0.4,1.3,0.6c0.3,0.3,0.6,0.6,0.8,1s0.3,0.9,0.3,1.4s-0.1,0.9-0.3,1.3s-0.4,0.7-0.7,1s-0.7,0.4-1.1,0.6
	c-0.4,0.1-0.9,0.2-1.6,0.2h-3.4V281z"/>
<path id="o_1_" class="st4" d="M-127.3,268.5c-1.8,0-3.3,0.3-4.6,0.8c-1.3,0.5-2.4,1.3-3.3,2.3s-1.6,2.2-2,3.7
	c-0.5,1.4-0.7,3-0.7,4.8c0,1.9,0.2,3.6,0.6,5.1c0.4,1.4,1.1,2.6,1.9,3.5c0.9,0.9,1.9,1.6,3.2,2.1c1.3,0.4,2.8,0.7,4.5,0.7
	s3.3-0.3,4.6-0.8c1.3-0.5,2.4-1.3,3.3-2.3s1.6-2.2,2-3.7c0.5-1.4,0.7-3.1,0.7-4.9c0-1.9-0.2-3.6-0.7-5c-0.4-1.4-1.1-2.6-1.9-3.5
	c-0.9-0.9-1.9-1.6-3.2-2.1C-124.2,268.8-125.7,268.5-127.3,268.5z M-127.4,272.2c1.1,0,2,0.2,2.7,0.6s1.3,0.9,1.7,1.6
	c0.4,0.7,0.8,1.5,0.9,2.4c0.2,0.9,0.3,2,0.3,3.2c0,1.1-0.1,2.1-0.3,3c-0.2,0.9-0.5,1.8-1,2.5s-1.1,1.3-1.8,1.7
	c-0.7,0.4-1.7,0.6-2.8,0.6c-1.1,0-2-0.2-2.8-0.5c-0.7-0.4-1.3-0.9-1.7-1.6c-0.4-0.7-0.7-1.5-0.9-2.5c-0.2-1-0.3-2.1-0.3-3.3
	c0-1,0.1-2,0.3-2.9c0.2-0.9,0.5-1.7,1-2.4c0.5-0.7,1.1-1.2,1.8-1.7C-129.6,272.5-128.6,272.2-127.4,272.2L-127.4,272.2z"/>
<path id="k_3_" class="st4" d="M-367.2,304.8c-0.4,0-0.8,0-1.1,0.1c-0.7,0.1-1.2,0.2-1.2,0.7v20.9c0,0.5,0.7,0.6,1.2,0.7
	c0.3,0,0.7,0.1,1.1,0.1s0.8,0,1.1-0.1c0.7-0.1,1.1-0.3,1.1-0.7v-8.8c3-0.1,4.3,1.4,5.2,3.8l1.8,4.9c0.2,0.6,0.8,0.7,1.3,0.8
	c0.3,0,0.7,0.1,1.2,0.1s0.8,0,1.1-0.1c1-0.1,1.3-0.5,1.1-1.1c-0.6-1.8-1.4-3.7-2.1-5.6c-1-2.1-2.4-4.1-4.1-5c2.1-1,3-2.8,3.8-4.6
	c0.6-1.6,1.3-3.2,1.7-4.8c0.2-0.8-0.3-1.1-1-1.2c-0.3,0-0.6-0.1-1.1-0.1s-0.9,0-1.2,0.1c-0.7,0-1.1,0.3-1.3,0.8l-1.5,4.4
	c-0.7,2.4-2.8,3.7-5,3.8v-8.3c0-0.4-0.6-0.6-1.1-0.7c-0.3,0-0.6-0.1-1.1-0.1L-367.2,304.8z"/>
<path id="u_5_" class="st4" d="M-349.8,304.8c-0.5,0-1,0-1.3,0.1c-1.1,0.2-0.9,0.9-0.6,1.6l7.3,14.8c-1.1,2.3-2.7,2.4-4.3,1.4
	c-0.5-0.3-0.7-0.1-0.8,0.3c-0.1,0.3-0.1,0.7-0.1,1.4c0,0.4,0,0.7,0,0.9c0,0.5,0.1,0.9,0.4,1.2c0.8,0.6,1.9,0.7,2.9,0.7
	c2.6,0,4.6-1.2,5.6-3.3c2.8-5.6,5-11.9,7.4-18c0.3-0.8,0-1.2-0.7-1.3c-0.3,0-0.7-0.1-1.2-0.1s-0.9,0-1.2,0c-0.8,0.1-1.2,0.2-1.4,0.7
	l-4.2,11.6l-5-11c-0.4-0.7-0.8-1-1.5-1L-349.8,304.8L-349.8,304.8z"/>
<path id="l_1_" class="st4" d="M-328.2,304.8c-0.4,0-0.7,0.1-0.9,0.4c-0.2,0.2-0.3,0.6-0.4,1.2c-0.3,2.5-0.5,4.6-0.8,6.4
	c-0.3,1.8-0.5,3.3-0.8,4.6c-0.3,1.2-0.5,2.2-0.8,3c-0.6,1.5-1.4,2.9-2.8,2.8c-0.6,0-0.6,0.6-0.7,1.1c0,0.3,0,0.7,0,1.2
	c0,0.4,0,0.6,0.1,0.9c0.1,0.7,0.3,0.8,0.9,0.9c0.9,0,1.7-0.1,2.5-0.3c0.7-0.2,1.4-0.5,1.9-1.1c2.7-2.8,3.3-7.1,3.8-10.5
	c0.3-1.9,0.7-4.2,1-6.8h4.8v17.8c0,0.5,0.6,0.6,1.1,0.6c0.3,0,0.6,0.1,1.1,0.1c0.4,0,0.8,0,1.1-0.1c0.7-0.1,1.2-0.1,1.2-0.6v-20.1
	c0-0.5-0.1-0.8-0.3-1.1c-0.2-0.2-0.5-0.4-0.9-0.4H-328.2z"/>
<g transform="scale(1,-1) translate(-100,-596)">
	<path id="r_6_" class="st4" d="M-309.5,327.1c-1.1,0-1.5-0.6-1.5-1.6v-19.9c0-0.4,0.6-0.6,1.1-0.7c0.3,0,0.7-0.1,1.1-0.1
		c0.4,0,0.8,0,1.1,0.1c0.6,0.1,1.2,0.2,1.2,0.7v7.1h1.8c1.5,0,2.7,0.2,3.8,0.5s2,0.8,2.7,1.5c0.7,0.7,1.3,1.5,1.7,2.4
		c0.4,1,0.6,2.1,0.6,3.3c0,0.9-0.1,1.7-0.4,2.4c-0.3,0.7-0.6,1.4-1.1,1.9s-1.1,1-1.7,1.3c-0.7,0.4-1.3,0.6-2,0.7
		c-0.7,0.1-1.2,0.2-1.7,0.3c-0.5,0-1,0.1-1.5,0.1L-309.5,327.1z M-306.5,323.7h1.9c0.5,0,0.9,0,1.3-0.1s0.9-0.2,1.3-0.4
		c0.4-0.2,0.7-0.6,1-1.1c0.3-0.5,0.4-1.1,0.4-1.9c0-0.6-0.1-1.1-0.2-1.6c-0.2-0.5-0.4-0.9-0.7-1.2c-0.3-0.3-0.7-0.6-1.2-0.8
		c-0.5-0.2-1.1-0.3-1.8-0.3h-2V323.7z"/>
</g>
<g transform="translate(-48.8,36)">
	<path id="t_3_" class="st4" d="M-295.8,304.9c-0.4,0-0.6,0.6-0.6,1c0,0.2,0,0.5,0,0.9c0,0.3,0,0.6,0,0.9c0.1,0.6,0.3,0.9,0.6,1h5.5
		v17.8c0,0.5,0.6,0.6,1.2,0.7c0.3,0,0.7,0.1,1.1,0.1c0.4,0,0.8,0,1.1-0.1c0.7-0.1,1.2-0.2,1.2-0.7v-17.8h5.5c0.4,0,0.5-0.6,0.6-1
		c0-0.2,0.1-0.5,0.1-0.9c0-0.3,0-0.6-0.1-0.9c-0.1-0.6-0.2-1-0.6-1H-295.8z"/>
</g>
<g transform="translate(73,0)">
	<path id="u_4_" class="st4" d="M-276.8,304.8c-0.5,0-1,0-1.3,0.1c-1.1,0.2-0.9,0.9-0.6,1.6l7.3,14.8c-1.1,2.3-2.7,2.4-4.3,1.4
		c-0.5-0.3-0.7-0.1-0.8,0.3c-0.1,0.3-0.1,0.7-0.1,1.4c0,0.4,0,0.7,0,0.9c0,0.5,0.1,0.9,0.4,1.2c0.8,0.6,1.9,0.7,2.9,0.7
		c2.6,0,4.6-1.2,5.6-3.3c2.8-5.6,5-11.9,7.4-18c0.3-0.8,0-1.2-0.7-1.3c-0.3,0-0.7-0.1-1.2-0.1s-0.9,0-1.2,0
		c-0.8,0.1-1.2,0.2-1.4,0.7l-4.2,11.6l-5-11c-0.4-0.7-0.8-1-1.5-1L-276.8,304.8L-276.8,304.8z"/>
</g>
<g transform="translate(-46.4,36)">
	<path id="r_5_" class="st4" d="M-255.9,304.9c-1.1,0-1.5,0.6-1.5,1.6v19.9c0,0.4,0.6,0.6,1.1,0.7c0.3,0,0.7,0.1,1.1,0.1
		c0.4,0,0.8,0,1.1-0.1c0.6-0.1,1.2-0.2,1.2-0.7v-7.1h1.8c1.5,0,2.7-0.2,3.8-0.5s2-0.8,2.7-1.5s1.3-1.5,1.7-2.4
		c0.4-1,0.6-2.1,0.6-3.3c0-0.9-0.1-1.7-0.4-2.4c-0.3-0.7-0.6-1.4-1.1-1.9s-1.1-1-1.7-1.3c-0.7-0.4-1.3-0.6-2-0.7s-1.2-0.2-1.7-0.3
		c-0.5,0-1-0.1-1.5-0.1L-255.9,304.9z M-252.9,308.3h1.9c0.5,0,0.9,0,1.3,0.1c0.4,0.1,0.9,0.2,1.3,0.4c0.4,0.2,0.7,0.6,1,1.1
		s0.4,1.1,0.4,1.9c0,0.6-0.1,1.1-0.2,1.6c-0.2,0.5-0.4,0.9-0.7,1.2c-0.3,0.3-0.7,0.6-1.2,0.8c-0.5,0.2-1.1,0.3-1.8,0.3h-2V308.3z"/>
</g>
<path id="y_3_" class="st4" d="M-236.7,304.8c-0.4,0-0.8,0-1.1,0.1c-0.7,0.1-1.2,0.2-1.2,0.6v20.9c0,0.5,0.5,0.6,1,0.7
	c0.3,0,0.6,0.1,1.1,0.1c0.4,0,0.6,0,0.9,0c0.6-0.1,0.9-0.3,1.2-0.6c3-4.7,6.6-9.5,9.3-14.1l0,0c-0.2,4.6-0.1,9.4-0.1,14.1
	c0,0.5,0.6,0.6,1.1,0.6c0.3,0,0.7,0.1,1.1,0.1c0.4,0,0.8,0,1.1-0.1c0.7-0.1,1.2-0.2,1.2-0.6v-20.9c0-0.4-0.6-0.6-1.1-0.7
	c-0.3,0-0.6-0.1-1-0.1s-0.6,0-0.9,0c-0.6,0.1-1,0.3-1.2,0.6c-3.2,5.1-6.6,9.5-9.3,14.1l0,0c0.2-4.6,0.1-9.4,0.1-14.1
	c0-0.5-0.7-0.6-1.1-0.6C-235.9,304.9-236.2,304.8-236.7,304.8z"/>
<g transform="translate(141.5,0)">
	<path id="u_3_" class="st4" d="M-208.3,304.8c-0.5,0-1,0-1.3,0.1c-1.1,0.2-0.9,0.9-0.6,1.6l7.3,14.8c-1.1,2.3-2.7,2.4-4.3,1.4
		c-0.5-0.3-0.7-0.1-0.8,0.3c-0.1,0.3-0.1,0.7-0.1,1.4c0,0.4,0,0.7,0,0.9c0,0.5,0.1,0.9,0.4,1.2c0.8,0.6,1.9,0.7,2.9,0.7
		c2.6,0,4.6-1.2,5.6-3.3c2.8-5.6,5-11.9,7.4-18c0.3-0.8,0-1.2-0.7-1.3c-0.3,0-0.7-0.1-1.2-0.1s-0.9,0-1.2,0
		c-0.8,0.1-1.2,0.2-1.4,0.7l-4.2,11.6l-5-11c-0.4-0.7-0.8-1-1.5-1L-208.3,304.8L-208.3,304.8z"/>
</g>
<g transform="translate(180.4,0)">
	<path id="k_2_" class="st4" d="M-186.8,304.8c-0.4,0-0.8,0-1.1,0.1c-0.7,0.1-1.2,0.2-1.2,0.7v20.9c0,0.5,0.7,0.6,1.2,0.7
		c0.3,0,0.7,0.1,1.1,0.1c0.4,0,0.8,0,1.1-0.1c0.7-0.1,1.1-0.3,1.1-0.7v-8.8c3-0.1,4.3,1.4,5.2,3.8l1.8,4.9c0.2,0.6,0.8,0.7,1.3,0.8
		c0.3,0,0.7,0.1,1.2,0.1s0.8,0,1.1-0.1c1-0.1,1.3-0.5,1.1-1.1c-0.6-1.8-1.4-3.7-2.1-5.6c-1-2.1-2.4-4.1-4.1-5c2.1-1,3-2.8,3.8-4.6
		c0.6-1.6,1.3-3.2,1.7-4.8c0.2-0.8-0.3-1.1-1-1.2c-0.3,0-0.6-0.1-1.1-0.1s-0.9,0-1.2,0.1c-0.7,0-1.1,0.3-1.3,0.8l-1.5,4.4
		c-0.7,2.4-2.8,3.7-5,3.8v-8.3c0-0.4-0.6-0.6-1.1-0.7C-186.1,304.9-186.4,304.8-186.8,304.8L-186.8,304.8z"/>
</g>
<g transform="translate(41.8,36)">
	<path id="r_4_" class="st4" d="M-167.7,304.9c-1.1,0-1.5,0.6-1.5,1.6v19.9c0,0.4,0.6,0.6,1.1,0.7c0.3,0,0.7,0.1,1.1,0.1
		c0.4,0,0.8,0,1.1-0.1c0.6-0.1,1.2-0.2,1.2-0.7v-7.1h1.8c1.5,0,2.7-0.2,3.8-0.5s2-0.8,2.7-1.5s1.3-1.5,1.7-2.4
		c0.4-1,0.6-2.1,0.6-3.3c0-0.9-0.1-1.7-0.4-2.4c-0.3-0.7-0.6-1.4-1.1-1.9s-1.1-1-1.7-1.3c-0.7-0.4-1.3-0.6-2-0.7s-1.2-0.2-1.7-0.3
		c-0.5,0-1-0.1-1.5-0.1L-167.7,304.9z M-164.7,308.3h1.9c0.5,0,0.9,0,1.3,0.1c0.4,0.1,0.9,0.2,1.3,0.4c0.4,0.2,0.7,0.6,1,1.1
		s0.4,1.1,0.4,1.9c0,0.6-0.1,1.1-0.2,1.6c-0.2,0.5-0.4,0.9-0.7,1.2c-0.3,0.3-0.7,0.6-1.2,0.8c-0.5,0.2-1.1,0.3-1.8,0.3h-2V308.3z"/>
</g>
<path id="a_1_" class="st4" d="M-144.7,304.8c-0.6,0-1,0-1.4,0c-0.8,0.1-1.3,0.3-1.5,0.9l-6.8,19.6c-0.4,1-0.4,1.7,0.5,1.8
	c0.3,0,0.7,0.1,1.2,0.1s0.9,0,1.2,0c0.7-0.1,1.1-0.3,1.2-0.8l1.4-4.3h8.3l1.5,4.4c0.1,0.4,0.7,0.6,1.3,0.7c0.3,0,0.8,0,1.4,0
	s1,0,1.3-0.1c0.8-0.1,0.8-0.8,0.5-1.7l-6.8-19.6c-0.3-0.8-0.9-1-1.7-1H-144.7L-144.7,304.8z M-144.6,309L-144.6,309l3.1,9.4h-6.3
	L-144.6,309z"/>
<g id="yi_1_">
	<g transform="translate(173.4,36)">
		<path id="i_3_" class="st4" d="M-129.2,304.8c-0.4,0-0.8,0-1.1,0.1c-0.7,0.1-1.2,0.2-1.2,0.7v20.9c0,0.4,0.7,0.6,1.2,0.7
			c0.3,0,0.7,0.1,1.1,0.1c0.4,0,0.8,0,1.1-0.1c0.6-0.1,1.2-0.2,1.2-0.7v-20.9c0-0.5-0.7-0.6-1.2-0.7
			C-128.4,304.9-128.7,304.8-129.2,304.8z"/>
	</g>
	<path id="i_dot_3_" class="st4" d="M-132.9,298.7c-0.9,0-1.5,0.2-1.8,0.5s-0.5,0.9-0.5,1.7c0,0.8,0.2,1.3,0.5,1.6
		c0.3,0.3,0.9,0.5,1.8,0.5s1.5-0.2,1.8-0.5s0.5-0.9,0.5-1.7c0-0.8-0.2-1.3-0.5-1.6C-131.4,298.9-132,298.7-132.9,298.7z"/>
	<g transform="translate(7.5,0)">
		<path id="i_dot_2_" class="st4" d="M-125.4,298.7c-0.9,0-1.5,0.2-1.8,0.5s-0.5,0.9-0.5,1.7c0,0.8,0.2,1.3,0.5,1.6
			c0.3,0.3,0.9,0.5,1.8,0.5s1.5-0.2,1.8-0.5s0.5-0.9,0.5-1.7c0-0.8-0.2-1.3-0.5-1.6C-123.9,298.9-124.5,298.7-125.4,298.7z"/>
	</g>
</g>
<g transform="translate(173.5,36)">
	<path id="n_2_" class="st4" d="M-119.7,304.8c-0.4,0-0.8,0-1.1,0.1c-0.7,0.1-1.2,0.2-1.2,0.7v20.9c0,0.5,0.6,0.6,1.2,0.7
		c0.3,0,0.7,0.1,1.1,0.1s0.8,0,1.1-0.1c0.6-0.1,1.1-0.2,1.1-0.7v-8.9h8.3v8.9c0,0.4,0.6,0.6,1.1,0.7c0.3,0,0.7,0.1,1.1,0.1
		s0.8,0,1.1-0.1c0.7-0.1,1.2-0.3,1.2-0.7v-21c0-0.5-0.7-0.6-1.2-0.7c-0.3,0-0.6-0.1-1.1-0.1c-0.4,0-0.8,0-1.1,0.1
		c-0.7,0.1-1.1,0.2-1.1,0.7v8.1h-8.3v-8c0-0.4-0.7-0.6-1.1-0.7C-118.9,304.9-119.2,304.8-119.7,304.8z"/>
</g>
<g transform="translate(139,0)">
	<path id="y_2_" class="st4" d="M-97.7,304.8c-0.4,0-0.8,0-1.1,0.1c-0.7,0.1-1.2,0.2-1.2,0.6v20.9c0,0.5,0.5,0.6,1,0.7
		c0.3,0,0.6,0.1,1.1,0.1c0.4,0,0.6,0,0.9,0c0.6-0.1,0.9-0.3,1.2-0.6c3-4.7,6.6-9.5,9.3-14.1l0,0c-0.2,4.6-0.1,9.4-0.1,14.1
		c0,0.5,0.6,0.6,1.1,0.6c0.3,0,0.7,0.1,1.1,0.1c0.4,0,0.8,0,1.1-0.1c0.7-0.1,1.2-0.2,1.2-0.6v-20.9c0-0.4-0.6-0.6-1.1-0.7
		c-0.3,0-0.6-0.1-1-0.1s-0.6,0-0.9,0c-0.6,0.1-1,0.3-1.2,0.6c-3.2,5.1-6.6,9.5-9.3,14.1l0,0c0.2-4.6,0.1-9.4,0.1-14.1
		c0-0.5-0.7-0.6-1.1-0.6C-96.9,304.9-97.2,304.8-97.7,304.8z"/>
</g>
</svg>
