<?xml version="1.0" encoding="utf-8"?>
<!-- Generator: Adobe Illustrator 18.0.0, SVG Export Plug-In . SVG Version: 6.00 Build 0)  -->
<!DOCTYPE svg PUBLIC "-//W3C//DTD SVG 1.1//EN" "http://www.w3.org/Graphics/SVG/1.1/DTD/svg11.dtd">
<svg version="1.1" id="Слой_1" xmlns="http://www.w3.org/2000/svg" xmlns:xlink="http://www.w3.org/1999/xlink" x="0px" y="0px"
	 viewBox="287 152.3 269 284" enable-background="new 287 152.3 269 284" xml:space="preserve">
<g>
	<g>
		<path fill="#FFCE01" d="M466.4,402.5l-34.4,4.6c-0.8,0.5-5.6,3.6-11.3,3.6s-10.5-3.1-11.3-3.6l-34.2-4.6c-2.9-0.4-5.1-1.3-6.6-2.5
			c1,2.7,3.5,6.4,9.8,7.3l27.4,3.6c0.9,0.6,7.3,4.7,14.8,4.7s13.9-4,14.8-4.6l29.5-3.9c5.4-1.3,7.4-4.8,8.3-7.3
			C471.6,401,469.4,402,466.4,402.5z"/>
	</g>
	<path fill="#065EAB" d="M317.2,198.6l-0.1-1.8l2.4-0.1l0.1-16.2l-2.5-0.1l0.1-1.7h5.7l8.3,17.3l8.3-17.3h5.7v1.8l-2.4,0.1l0.1,16.1
		l2.4,0.1l-0.1,1.8h-6.9l-0.1-1.6l2.2-0.1v-14.8h-0.1l-7.9,16.4h-2.5l-7.9-16.4h-0.1v14.8l2.3,0.1l-0.1,1.5L317.2,198.6L317.2,198.6
		z"/>
	<path fill="#065EAB" d="M348.9,198.6l-0.1-1.8l1.8-0.1v-11.5l-1.8-0.1l0.1-1.8h4.2v13.5l1.8,0.1l-0.1,1.7L348.9,198.6L348.9,198.6z
		 M351.8,180.3c-0.4,0-0.8-0.1-1.1-0.4c-0.3-0.2-0.4-0.7-0.4-1.1c0-0.4,0.1-0.8,0.4-1.1c0.3-0.2,0.7-0.4,1.1-0.4
		c0.4,0,0.8,0.1,1.1,0.4c0.3,0.3,0.4,0.7,0.4,1.1c0,0.4-0.2,0.8-0.4,1.1C352.7,180.2,352.2,180.3,351.8,180.3z"/>
	<path fill="#065EAB" d="M358.5,198.6l-0.1-1.8l1.8-0.1v-11.5l-1.8-0.1l0.1-1.8h4.2v6.5h8.2v-4.9l-1.5-0.1v-1.5h5.7v1.8l-1.7,0.1
		v11.6l1.8,0.1l-0.1,1.7h-4.2v-7h-8.2v5.4l1.6,0.1l-0.1,1.5H358.5z"/>
	<path fill="#065EAB" d="M378.9,198.6l-0.1-1.8l1.8-0.1v-11.5l-1.8-0.1l0.1-1.8h4.2v13.5l1.8,0.1l-0.1,1.7L378.9,198.6L378.9,198.6z
		 M381.9,180.3c-0.4,0-0.8-0.1-1.1-0.4c-0.3-0.2-0.4-0.7-0.4-1.1c0-0.4,0.1-0.8,0.4-1.1c0.3-0.2,0.7-0.4,1.1-0.4s0.8,0.1,1.1,0.4
		c0.3,0.3,0.4,0.7,0.4,1.1c0,0.4-0.2,0.8-0.4,1.1C382.7,180.2,382.3,180.3,381.9,180.3z"/>
	<path fill="#065EAB" d="M398.7,187.5l-0.2-1.3c-0.4-0.4-1.5-1.5-3.3-1.5c-3.4,0-4.9,1.7-4.9,6.1c0,4.4,2,6.5,5.3,6.5
		c2.9,0,4.5-1.8,4.5-1.8l1.1,1.3c0,0-1.6,2.4-5.8,2.4c-4.9,0-7.6-2.9-7.6-8.3c0-5.2,2.5-7.9,7.1-7.9c1.6,0,3,0.8,3.8,1.5l0.4-1.3
		h1.6v4.3L398.7,187.5L398.7,187.5z"/>
	<path fill="#065EAB" d="M416.4,187.6l-0.1-2.3h-4.2v11.6l1.8,0.1l-0.1,1.7h-5.9l-0.1-1.8l1.8-0.1v-11.5h-4l-0.2,2.3h-1.7l0.1-4.2
		v-0.1l2,0.1h10.5l2-0.1l-0.1,4.3L416.4,187.6L416.4,187.6z"/>
	<path fill="#065EAB" d="M423.7,191.4c0.2,3.9,2.2,5.8,5.4,5.8c3.1,0,4.6-2,4.6-2l1.2,1.3c0,0-1.7,2.6-5.8,2.6
		c-4.8,0-7.7-2.9-7.7-8.1c0-5.2,2.9-8,7.3-8c4.1,0,6.4,2.2,6.4,6.7c0,1.1-0.4,1.9-0.4,1.9L423.7,191.4L423.7,191.4z M423.7,189.7h9
		c0,0,0.1-0.4,0.1-0.7c0-2.9-1.4-4.3-4.1-4.3C425.6,184.7,424,186.6,423.7,189.7z"/>
	<path fill="#065EAB" d="M437.9,206.3l-0.1-1.8l1.8-0.1v-19.1l-1.8-0.1l0.1-1.8h3.9l0.2,1.7c0.3-0.4,1.8-2.1,5.1-2.1
		c4.2,0,6.9,2.6,6.9,7.4c0,5-2.5,8.8-7.3,8.8c-3.3,0-4.7-1.5-4.7-1.5v6.9l1.8,0.1l-0.1,1.7L437.9,206.3L437.9,206.3z M442.1,186.9
		v8.9c0.2,0.2,1.5,1.4,3.9,1.4c3.9,0,5.5-2.7,5.5-6.9c0-4.1-1.9-5.5-5.2-5.5C443.6,184.8,442.3,186.6,442.1,186.9z"/>
	<path fill="#065EAB" d="M468.1,187.5l-0.2-1.3c-0.4-0.4-1.5-1.5-3.3-1.5c-3.4,0-4.9,1.7-4.9,6.1c0,4.4,2.1,6.5,5.3,6.5
		c2.9,0,4.5-1.8,4.5-1.8l1.1,1.3c0,0-1.6,2.4-5.8,2.4c-4.9,0-7.6-2.9-7.6-8.3c0-5.2,2.5-7.9,7.1-7.9c1.6,0,3,0.8,3.8,1.5l0.4-1.3
		h1.6v4.3L468.1,187.5L468.1,187.5z"/>
	<path fill="#065EAB" d="M485.8,187.6l-0.1-2.3h-4.2v11.6l1.8,0.1l-0.1,1.7h-5.9l-0.1-1.8l1.8-0.1v-11.5h-4l-0.2,2.3h-1.7l0.1-4.2
		v-0.1l2,0.1h10.5l2-0.1l-0.1,4.3L485.8,187.6L485.8,187.6z"/>
	<path fill="#065EAB" d="M490.7,198.6l-0.1-1.8l1.8-0.1v-11.5l-1.8-0.1l0.1-1.8h7.6c4.5,0,5.8,1.4,5.8,3.8c0,1.8-1.4,2.9-2.7,3.5
		c1.8,0.4,3.4,1.4,3.4,3.3c0,2.6-1.5,4.7-6.7,4.7h-7.4V198.6z M498.8,190.1c0,0,3-0.3,3-2.7c0-1.5-0.8-2.4-3.5-2.4h-3.5v5.1
		L498.8,190.1L498.8,190.1z M494.8,191.4v5.5h3.4c3.6,0,4.3-1.7,4.3-3.2c0-1.4-1.1-2.3-3.8-2.3H494.8z"/>
	<path fill="#065EAB" d="M508.2,190.8c0-5,2.6-8,7.6-8c5,0,7.6,3,7.6,8s-2.7,8.2-7.6,8.2C510.8,199.1,508.2,195.8,508.2,190.8z
		 M520.8,190.9c0-3.9-1.5-6.2-5.1-6.2s-5.1,2.3-5.1,6.2c0,3.9,1.5,6.4,5.1,6.4C519.3,197.3,520.8,194.8,520.8,190.9z"/>
	<path fill="#065EAB" d="M306.7,225.3c0-5.1,2.9-8,8.2-8c5.4,0,8.2,3,8.2,8c0,5.1-3.2,8.4-8.2,8.4
		C309.6,233.7,306.7,230.4,306.7,225.3z M318.5,225.4c0-3.2-1-5-3.6-5s-3.6,1.8-3.6,5c0,3.2,1,5.2,3.6,5.2
		C317.5,230.6,318.5,228.5,318.5,225.4z"/>
	<path fill="#065EAB" d="M335.5,222.9l-0.2-1.6c-0.4-0.4-1.1-0.9-2.2-0.9c-2.1,0-3.2,1.1-3.2,4.8c0,3.7,1.5,5.4,4,5.4
		c2.3,0,3.8-1.9,3.8-1.9l1.9,2.1c0,0-1.6,2.9-6.3,2.9c-5.6,0-8.2-3.3-8.2-8.5c0-4.9,2.7-8,7.3-8c1.3,0,2.5,0.7,3.3,1.3l0.5-0.9h2.7
		l-0.1,5.4H335.5z"/>
	<path fill="#065EAB" d="M342.2,233.1l-0.2-3.2l1.7-0.2v-8.6l-1.6-0.2l0.2-3.2h7.9c5.5,0,7,1.5,7,4c0,1.5-1.1,2.6-2.4,3.3
		c1.5,0.5,3,1.5,3,3.3c0,2.9-2.1,4.7-7.6,4.7L342.2,233.1L342.2,233.1z M351.1,224.3c0,0,1.8-0.2,1.8-1.8c0-1.1-0.6-1.7-2.7-1.7H348
		v3.6L351.1,224.3L351.1,224.3z M348.1,226.4v3.8h2.2c2.5,0,3.1-0.9,3.1-2.1c0-1-0.7-1.6-2.7-1.6L348.1,226.4L348.1,226.4z"/>
	<path fill="#065EAB" d="M360.7,233.1l-0.2-3.2l1.7-0.2v-8.6l-1.6-0.2l0.2-3.2h5.9V230l1.7,0.1l-0.2,3L360.7,233.1L360.7,233.1z
		 M364.5,215.6c-1.7,0-2.6-1.1-2.6-2.4c0-1.3,0.9-2.4,2.6-2.4s2.6,1.1,2.6,2.4C367.1,214.5,366.1,215.6,364.5,215.6z"/>
	<path fill="#065EAB" d="M419.7,233.1l-0.2-3.2l1.7-0.2v-8.6l-1.6-0.2l0.2-3.2h5.9V230l1.7,0.1l-0.2,3L419.7,233.1L419.7,233.1z
		 M423.4,215.6c-1.7,0-2.6-1.1-2.6-2.4c0-1.3,0.9-2.4,2.6-2.4c1.7,0,2.6,1.1,2.6,2.4C426,214.5,425.1,215.6,423.4,215.6z"/>
	<path fill="#065EAB" d="M383.2,223.1l-0.1-1.9h-2.6v8.8l1.7,0.1l-0.2,3h-7.5l-0.2-3.2l1.7-0.2v-8.6h-2.5l-0.2,1.9h-3.2l0.1-5.2
		v-0.2l3,0.2h10.2l3.1-0.2l-0.1,5.5L383.2,223.1L383.2,223.1z"/>
	<path fill="#065EAB" d="M390.5,233.1v-12l-1.6-0.2l0.2-3.2h5.9v8.6l6.5-8.6l0.1-0.1h5.7v3.2l-1.6,0.2v8.8l1.7,0.1l-0.2,3h-7.5v-2.6
		l1.5-0.4v-6.5l-7.3,9.5l-0.1,0.2L390.5,233.1L390.5,233.1z"/>
	<path fill="#065EAB" d="M439.6,233.1l-0.2-3.2l1.7-0.2v-8.6l-1.6-0.2l0.2-3.2h5.9v5.9h5.8v-3.2l-1.2-0.2v-2.6h7.1v3.2l-1.4,0.2v8.8
		l1.7,0.1l-0.2,3h-6v-6.3h-5.8v3.6l1.3,0.2l-0.2,2.6L439.6,233.1L439.6,233.1z"/>
	<path fill="#065EAB" d="M461.5,222.9l0.2-5.4h2.7l0.4,0.9c0.9-0.6,2.3-1.3,3.9-1.3c3.4,0,5.8,1.7,5.8,6v6.8l1.7,0.1l-0.2,3h-5.2
		l-0.6-1.5c0,0-1,2.1-4.6,2.1c-3.5,0-5.5-1.8-5.5-4.6c0-4.5,5.8-5,9.9-5.4v-0.3c0-2.2-0.7-2.9-2.4-2.9c-1.2,0-2,0.4-2.4,0.8
		l-0.2,1.8L461.5,222.9L461.5,222.9z M469.9,229v-2.6c-3.2,0.2-5.2,0.5-5.2,2.3c0,1.4,0.8,2,2.3,2
		C469.2,230.7,469.9,229.2,469.9,229z"/>
	<path fill="#065EAB" d="M478.3,237.3c0,0,1.4,0.5,2.5,0.5c1.4,0,2.6-1.5,3.7-4.6l-5-12l-2.2-0.2l0.2-3.2h5.7l3.8,10.5h0.1l2.4-7.1
		l-1.5-0.1v-3.2h7.4v3.2l-2,0.2l-4.7,12.6c-1.9,5-4.3,7.6-7.3,7.6c-3,0-3.4-1-3.4-1L478.3,237.3z"/>
	<path fill="#065EAB" d="M497.9,233.1l-0.2-3.2l1.7-0.2v-8.6l-2-0.2l0.2-3.2h6.3v6.1c0,0,1.1-0.2,2-0.9c1.2-0.9,1.3-2.1,1.3-2.1
		l-0.6-0.1l0.2-3h7v3.2l-3,0.4c0,0-0.8,1.8-2.2,3.1c0.2,0.4,3.2,5.1,3.2,5.1l2.7,0.1l-0.2,3.4h-5l-1.3-1.3c0,0-3-5-3.3-5.3
		c-0.5,0.2-1,0.4-1,0.4v3.3l1.3,0.2l-0.2,2.8L497.9,233.1L497.9,233.1z M520.4,233.1H517l-0.2-3.2l1.7-0.2 M392.6,233.1H389
		l-0.2-3.2l1.7-0.2"/>
	<path fill="#065EAB" d="M518.2,233.1v-12l-1.6-0.2l0.2-3.2h5.9v8.6l6.5-8.6l0.1-0.1h5.7v3.2l-1.6,0.2v8.8l1.7,0.1l-0.2,3h-7.5v-2.6
		l1.5-0.4v-6.5l-7.3,9.5l-0.1,0.2L518.2,233.1L518.2,233.1z"/>
	<path fill="#065EAB" d="M363.9,249.5l6.4,11l4.7-11l-1.8-0.1l0.1-1.8h6.7v1.7l-2.4,0.1l-6,13c-2,4.3-4.1,5.5-7.3,5.5
		c-1.7,0-2.7-0.6-2.7-0.6h-0.1l-0.1-4l1.8-0.1l0.2,2.6c0.4,0.1,0.7,0.1,1.1,0.1c1.5,0,2.8-0.5,4.3-3.2l-7.9-13.3l-2.7-0.1l0.1-1.7
		h7.3v1.7L363.9,249.5z"/>
	<path fill="#065EAB" d="M380.6,267.6l-0.1-1.8l1.8-0.1v-11.4l-2-0.1l0.1-1.8h4.4v6.7c0,0,1.3-0.4,2.3-1c1.8-1.3,2.9-3,3.2-3.9
		c-0.3,0-1-0.1-1-0.1l0.1-1.7h5.7v1.8l-2.7,0.2c0,0-1.5,2.7-3.8,4.6c0.2,0.3,4.9,6.7,4.9,6.7l2.3,0.1l-0.1,2h-3.3l-1.2-1.3
		c0,0-4.2-5.7-4.6-6.1c-0.8,0.4-1.9,0.8-1.9,0.8v5l1.6,0.1l-0.1,1.6h-5.7V267.6z"/>
	<path fill="#065EAB" d="M398.3,275.3l-0.1-1.8l1.8-0.1v-19.1l-1.8-0.1l0.1-1.8h3.9l0.2,1.7c0.3-0.4,1.8-2.1,5.1-2.1
		c4.2,0,6.9,2.6,6.9,7.4c0,5-2.5,8.8-7.3,8.8c-3.3,0-4.7-1.5-4.7-1.5v6.9l1.8,0.1l-0.1,1.7H398.3L398.3,275.3z M402.5,255.9v8.9
		c0.2,0.2,1.5,1.4,3.9,1.4c3.9,0,5.5-2.7,5.5-6.9c0-4.1-1.9-5.5-5.2-5.5C404,253.7,402.7,255.6,402.5,255.9z"/>
	<path fill="#065EAB" d="M418.7,256l0.1-3.9h1.5l0.2,1.1c0.8-0.6,2.2-1.4,4.2-1.4c3.5,0,5.3,1.7,5.3,5.6v8.4l1.8,0.1l-0.1,1.7H428
		l-0.4-2c-0.3,0.5-1.5,2.4-4.9,2.4c-3.5,0-5.4-1.6-5.4-4.4c0-4.5,6.3-4.7,10.2-5.1v-1.1c0-2.7-0.9-3.8-3.5-3.8
		c-1.7,0-2.9,0.8-3.4,1.3l-0.1,1.1H418.7L418.7,256z M427.5,264v-3.9c-3.7,0.3-7.7,0.5-7.7,3.3c0,1.9,1.2,2.9,3.6,2.9
		C426.4,266.3,427.4,264.2,427.5,264z"/>
	<path fill="#065EAB" d="M435.5,249.1c-0.4,0-0.7-0.1-0.9-0.3c-0.3-0.2-0.4-0.6-0.4-0.9c0-0.4,0.1-0.7,0.4-1
		c0.2-0.2,0.5-0.3,0.9-0.3s0.7,0.1,0.9,0.3c0.2,0.2,0.4,0.6,0.4,1c0,0.4-0.2,0.7-0.4,0.9C436.2,249,435.9,249.1,435.5,249.1z
		 M435.4,267.6l-0.1-1.8l1.8-0.1v-11.4l-1.8-0.1l0.1-1.8h4.2v13.5l1.8,0.1l-0.1,1.7H435.4z M440.1,249.1c-0.4,0-0.7-0.1-0.9-0.3
		c-0.3-0.2-0.4-0.6-0.4-0.9c0-0.4,0.1-0.7,0.4-1c0.2-0.2,0.6-0.3,0.9-0.3c0.4,0,0.7,0.1,0.9,0.3c0.2,0.2,0.4,0.6,0.4,1
		c0,0.4-0.2,0.7-0.4,0.9S440.5,249.1,440.1,249.1z"/>
	<path fill="#065EAB" d="M444.6,267.6l-0.1-1.8l1.8-0.1v-11.4l-1.8-0.1l0.1-1.8h4.2v6.5h8.2v-4.9l-1.5-0.1v-1.5h5.7v1.8l-1.7,0.1
		v11.6l1.8,0.1l-0.1,1.7h-4.2v-7h-8.2v5.4l1.6,0.1l-0.1,1.5L444.6,267.6L444.6,267.6z M467.5,267.6h-2.8l-0.1-1.8l1.6-0.1"/>
	<path fill="#065EAB" d="M475.5,267.6V266l1.7-0.2v-10.4l-9.3,12.1h-1.8v-13.4l-1.8-0.1l0.1-1.8h4.2v11.6l8.8-11.6h4.1v1.8l-1.8,0.1
		v11.6l1.8,0.1l-0.1,1.7L475.5,267.6L475.5,267.6z"/>
	<path fill="#FFCE01" d="M474.4,389.7L474.4,389.7v-43l-53.7,7.1l-53.7-7v42.9l0,0c0,0,0,6.8,8,7.9l0,0l37.7,4.9
		c0.2,0.2,3.8,2.6,8,2.6c4.3,0,8-2.6,8-2.6l0,0l39.2-5.2C474.4,395.7,474.4,389.8,474.4,389.7z"/>
	<polygon fill="#065EAB" points="420.7,301.6 367,294.6 367,348.8 420.7,355.9 474.4,348.7 474.4,294.5 	"/>
	<polygon fill="#FFCE01" points="443.2,417.2 437.6,414 432,418.7 432,404.8 443.2,403.2 	"/>
	<path opacity="0.2" fill="#A47E3E" enable-background="new    " d="M474.4,389.7L474.4,389.7v-43v-52.3l-53.7,7.1v52.3v43.8l0,0
		v7.4c4.3,0,8-2.6,8-2.6l0,0l39.2-5.2C474.4,395.7,474.4,389.8,474.4,389.7z"/>
	<path opacity="0.15" fill="#020202" enable-background="new    " d="M474.4,343.1l-24.6-24.6l-9.4,13.5l-19.6-19.6l-0.2,32.4
		l-19.9-19.9l-5.7,1.3l-3.3,50.4l28.9,28.6c0,0,3.8,0.2,8.2-2.6l39.2-5.2c6.5-1.7,6.5-7.6,6.5-7.6l0,0L474.4,343.1L474.4,343.1z"/>
	<g>
		<path id="path7306_2_" fill="#FFFFFF" d="M420.7,312.3c-2.3,2.2-3.6,5-3.6,8.2c0.1,6.8,0.8,14.7,1,21.5c0.2,6.4-1.8,11.4-4.5,17.3
			c-0.9,1.6-1.9,3.2-2.9,4.8l-2.9-0.5c-2.6-0.4-4.3-3.2-3.8-5.4c0.5-2,2.5-3.9,4.7-3.9l1.1,0.1l-2.4-15.7c-0.8-7.5-5.3-14-12-18.3
			c-1.1-0.7-2.4-1.4-3.6-2v58l16.2,1.7c1.2,5.6,4.8,10.4,9.9,13.8c1.2,0.7,3,1.6,3,1.6s1.7-0.9,3-1.6c5.1-3.3,8.7-8.2,9.9-13.8
			l16.2-2.6v-57.1c-1.3,0.6-2.5,1.3-3.6,2c-6.7,4.3-11.2,10.8-12,18.3l-2.4,15.7l1.1-0.1c2.3,0,4.3,2,4.7,3.9
			c0.5,2.2-1.2,4.9-3.8,5.4l-2.9,0.5c-1-1.6-2-3.2-2.9-4.8c-2.7-5.8-4.7-10.9-4.5-17.3c0.1-6.8,0.8-14.7,1-21.5
			C424.3,317.3,423,314.5,420.7,312.3z M396.5,327c3.2,3.2,5.2,7,5.8,11.3l2,12.7c-2.5,1.1-4.3,3.6-5.1,5.9l-2.7-0.4L396.5,327
			L396.5,327z M444.9,327v29.6l-2.7,0.4c-0.7-2.3-2.6-4.8-5.1-5.9l2-12.7C439.7,334.1,441.8,330.2,444.9,327z M420.7,356
			c0.8,2.5,3.1,5.9,5.3,9.1c-2.1,0.5-3.9,1.6-5.3,3c-1.4-1.4-3.2-2.5-5.3-3C417.6,361.9,419.9,358.5,420.7,356z M396.5,360.7
			l2.7,0.4c0.9,2.9,3.5,5.7,6.8,6.4l2.3,0.5c-0.6,1.9-1,3.9-1,6l-10.9-1.1V360.7z M442.2,361.1l2.7-0.4v11.4l-10.9,1.8
			c0-2.1-0.4-4-1-6l2.3-0.5C438.7,366.8,441.3,364,442.2,361.1L442.2,361.1z M413.1,368.9c2.9,0.4,5.2,2.4,5.2,6.3l-6.1-0.8
			C412.3,372.7,412.6,370.5,413.1,368.9z M428.3,368.9c0.5,1.6,0.8,3.8,0.8,5.5l-6.1,1.4C423.1,371.9,425.4,369.3,428.3,368.9z
			 M412.8,378.3l5.5,0.7v7.8C415.6,384.4,413.7,381.6,412.8,378.3z M423.1,380l5.5-1.7c-0.9,3.3-2.9,6.1-5.5,8.5V380z"/>
		<polygon fill="#FFFFFF" points="391.7,376.5 420.3,380.3 420.3,375.4 391.7,371.6 		"/>
		<polygon fill="#FFFFFF" points="449.8,376.5 421.1,380.3 421.1,375.4 449.8,371.6 		"/>
	</g>
</g>
</svg>
