<?xml version="1.0" encoding="utf-8"?>
<!-- Generator: Adobe Illustrator 22.0.1, SVG Export Plug-In . SVG Version: 6.00 Build 0)  -->
<svg version="1.1" xmlns="http://www.w3.org/2000/svg" xmlns:xlink="http://www.w3.org/1999/xlink" x="0px" y="0px"
	 viewBox="0 0 453 378" style="enable-background:new 0 0 453 378;" xml:space="preserve">
<style type="text/css">
	.st0{fill:#3D68AF;}
</style>
<g id="Слой_2">
	<g>
		<g>
			<path class="st0" d="M341.4,266.8v-22.6h2.6v20.2h10v2.4H341.4z"/>
			<path class="st0" d="M373.9,244.3h2.8l-8.1,22.6H366l-8.1-22.6h2.8l5.2,14.6c0.6,1.7,1.1,3.3,1.4,4.9c0.4-1.7,0.9-3.3,1.5-5
				L373.9,244.3z"/>
			<path class="st0" d="M386.1,266.8v-22.6h2.6v22.6H386.1z"/>
			<path class="st0" d="M414.2,244.3h2.8l-8.1,22.6h-2.6l-8.1-22.6h2.8l5.2,14.6c0.6,1.7,1.1,3.3,1.4,4.9c0.4-1.7,0.9-3.3,1.5-5
				L414.2,244.3z"/>
		</g>
		<path class="st0" d="M40.1,202.2c1.2-3.2,2-6.6,3-9.9c0.1-0.3,0-0.7,0.4-0.7c0.4,0,0.3,0.4,0.4,0.7c1,2.9,1.9,5.7,2.9,8.6
			c0.2,0.5,0.2,1,0.6,1.3c1.3,0.3,2.7,0.1,4,0.1c2.6,0,5.1,0,7.7,0c0.3,0,1-0.3,0.8,0.6c-3,2.1-6.1,4.2-9.1,6.2
			c-0.9,0.6-1,1.1-0.7,2c1.2,3.2,2.3,6.4,3.4,9.6c0.1,0.4,0.6,0.9,0,1.2c-0.5,0.3-0.7-0.3-1-0.5c-2.8-2.1-5.5-4.2-8.3-6.3
			c-0.5-0.4-1-0.4-1.5,0.1c-2.6,2.1-5.3,4.1-8,6.1c-0.3,0.2-0.4,0.5-1,0.4c0.6-1.9,1.2-3.7,1.7-5.6c0.6-1.8,1.1-3.7,1.7-5.5
			c0.2-0.5,0-0.9-0.4-1.2c-2.9-2.1-5.9-4.2-8.9-6.3c-0.1,0-0.2,0-0.2,0c0-0.2,0-0.5,0-0.7c0.9-0.3,1.9-0.1,2.8-0.1
			C33.6,202.2,36.9,202.5,40.1,202.2z"/>
		<path class="st0" d="M311.6,203.3c0,5.1,0,10.2,0,15.3c-0.3,1.7,0.1,3.5-0.2,5.2c-0.2,3.7-1,7.2-3.5,10.1
			c-1.9,2.2-4.4,3.4-7.1,4.2c-2.7,0.2-5.4,0-8.1,0.1c-2.2,0.1-4.4-0.1-6.6,0.1c-1.5,0-3-0.1-4.5-0.1c-6.2,0-12.4,0-18.6,0
			c-0.5,0-1,0-1.5,0.1c-0.4-0.2-0.2-0.6-0.2-0.8c0-11.2,0-22.4,0-33.5c0-0.3-0.1-0.6,0.1-0.8l0,0c0.2-0.2,0.5-0.1,0.7-0.1
			c5.5,0,11.1,0,16.6,0c0.2,0,0.5,0,0.7,0.1l0,0c0.2,0.2,0.1,0.5,0.1,0.7c0,5.1,0,10.1,0,15.2c0,0.2,0,0.4-0.1,0.6
			c0.2,0.5,0.6,0.3,1,0.3c3.7,0,7.5,0,11.2,0c0.9,0,1.2-0.3,1.2-1.2c-0.1-1.2-0.1-2.4-0.1-3.6c-2.3-0.3-4.6,0-6.9-0.1
			c-0.5,0-1,0.1-1.4-0.1l0,0c-0.3-0.6-0.1-1.2-0.1-1.8c0-2.9,0-5.9,0-8.8c0-0.4-0.1-0.8,0.1-1.2l0,0c0.3-0.2,0.6-0.1,0.9-0.1
			c8.5,0,16.9,0,25.4,0C310.9,203.1,311.3,202.9,311.6,203.3z"/>
		<path class="st0" d="M365.5,203.3c-0.1,3.9-0.1,7.7,0,11.6c-0.3,0.5-0.8,0.2-1.2,0.2c-9.3,0-18.7,0-28,0c-1.4,0-1.4,0-1.4,1.4
			c0,1.1-0.2,2.3,0.1,3.4c0.5,0,1.1,0.1,1.6,0.1c9.1,0,18.3,0,27.4,0c1.1,0,1.5,0.3,1.5,1.4c-0.1,5.2-0.1,10.3,0,15.5
			c0,1.2-0.4,1.4-1.5,1.4c-15.4,0-30.8,0-46.1,0c-0.6,0-1.1,0-1.7,0.1c-0.4-0.2-0.2-0.7-0.2-1c0-11.1,0-22.1,0-33.2
			c0-0.9,0.3-1.2,1.2-1.2c15.8,0,31.7,0,47.5,0C364.8,203.1,365.3,202.9,365.5,203.3z"/>
		<path class="st0" d="M388.9,219.9c0.5,0,1.1,0.1,1.6,0.1c9.1,0,18.3,0,27.4,0c1.1,0,1.5,0.3,1.5,1.4c-0.1,5.2-0.1,10.3,0,15.5
			c0,1.2-0.4,1.4-1.5,1.4c-15.4,0-30.8,0-46.2,0c-0.6,0-1.1,0-1.7,0.1c-0.4-0.2-0.2-0.7-0.2-1c0-11.1,0-22.1,0-33.2
			c0-0.9,0.2-1.2,1.2-1.2c15.8,0,31.6,0,47.5,0c0.3,0,0.7-0.2,1,0.2c0,3.9,0,7.8,0,11.6c-0.4,0.4-0.8,0.2-1.3,0.2
			c-9.4,0-18.7,0-28.1,0c-1,0-1.4,0.2-1.3,1.3C388.9,217.6,388.6,218.8,388.9,219.9z"/>
		<path class="st0" d="M256.9,181c0,5.2-0.1,10.4,0,15.6c0,1.2-0.3,1.6-1.5,1.6c-15.4,0-30.9,0-46.3,0c-0.5,0-1.1,0-1.6,0
			c-0.3-0.3-0.2-0.7-0.2-1c0-5,0-10.1,0-15.1c0-1,0.3-1.2,1.2-1.2c15.8,0,31.6,0,47.3,0C256.2,180.9,256.6,180.8,256.9,181z"/>
		<path class="st0" d="M189.1,108.7c0.6,2.1,1.2,4.1,1.7,6c0.4,1.4,0.8,2.7,1.1,4.1c0.2,0.9,0.6,1.2,1.5,1.2c3.2,0,6.5,0,9.7,0
			c0.4,0,0.9,0,1.6,0c-1.2,1.3-2.5,2.1-3.7,3.1c-1.7,1.3-3.4,2.6-5.1,3.9c-0.7,0.5-0.8,0.9-0.5,1.7c1,3,1.9,6.1,2.9,9.1
			c0.1,0.4,0.4,0.8,0.2,1.4c-2.1-1.5-4.2-3-6.3-4.4c-0.3-0.2-0.6-0.5-1-0.7c-2.4-1.6-2.4-1.6-4.6,0c-2.2,1.5-4.3,3.1-6.5,4.6
			c-0.4,0.3-0.8,0.6-1.4,0.6c0.9-2.5,1.7-4.9,2.5-7.2c0.4-1.2,0.9-2.4,1.4-3.6c0.3-0.8-0.2-1.2-0.7-1.6c-2.8-2.1-5.7-4.1-8.5-6.2
			c-0.2-0.1-0.3-0.3-0.5-0.4c0.4-0.5,0.9-0.3,1.3-0.3c3.3,0,6.6,0,9.9,0c0.9,0,1.4-0.3,1.7-1.2c0.9-3.1,1.9-6.1,2.8-9.1
			C188.6,109.4,188.6,109,189.1,108.7z"/>
		<path class="st0" d="M91.9,108.9c0.7,2.3,1.5,4.5,2.2,6.8c0.3,1.1,0.7,2.1,1,3.2c0.2,0.9,0.7,1.2,1.6,1.2c3.2,0,6.4,0,9.6,0
			c0.4,0,0.9,0,1.7,0c-1.3,1.4-2.7,2.1-4,3.1c-1.7,1.4-3.5,2.6-5.4,3.9c-0.6,0.4-0.8,0.8-0.5,1.5c1.1,2.9,2.2,5.9,3.2,8.9
			c0.2,0.5,0.8,1.2,0.3,1.6c-0.5,0.4-1.1-0.4-1.6-0.7c-2.5-1.8-5.1-3.5-7.6-5.4c-0.7-0.5-1.1-0.5-1.7,0c-2.8,2.1-5.7,4.1-8.7,6.2
			c-0.1-0.8,0.1-1.3,0.3-1.9c0.9-2.8,1.8-5.6,2.8-8.4c0.3-0.9,0.1-1.5-0.7-2c-2.7-2-5.4-4.1-8-6.2c-0.1-0.1-0.4-0.2-0.3-0.5
			c0.4-0.3,0.9-0.2,1.3-0.2c3.2,0,6.4,0,9.6,0c1,0,1.4-0.3,1.7-1.3c0.9-3.3,1.8-6.6,2.8-9.9C91.6,108.9,91.8,108.9,91.9,108.9z"/>
		<path class="st0" d="M141.9,287.5c0.7,2.3,1.3,4.6,1.9,6.9c0.3,1,0.6,2,0.8,3.1c0.2,1,0.7,1.4,1.8,1.4c3.2-0.1,6.3,0,9.5,0
			c0.4,0,0.9,0,1.4,0c-0.1,0.7-0.7,0.9-1.1,1.2c-2.5,1.9-4.9,3.8-7.4,5.6c-0.7,0.5-0.9,1-0.6,1.9c1.1,3.1,2,6.3,3.1,9.5
			c0.1,0.4,0.3,0.8,0.5,1.5c-1.6-0.9-2.7-2-3.9-2.9c-1.8-1.3-3.6-2.7-5.3-4.1c-0.7-0.6-1.3-0.3-1.8,0.2c-2.5,1.9-5.1,3.9-7.6,5.8
			c-0.3,0.2-0.6,0.5-1.2,0.5c0.9-2.9,1.8-5.8,2.8-8.6c1-3.2,1-3.1-1.7-5c-2.3-1.6-4.6-3.3-6.8-4.9c-0.2-0.1-0.3-0.3-0.5-0.6
			c0.6,0,1-0.1,1.5-0.1c3.2,0,6.5,0,9.7,0c0.9,0,1.3-0.2,1.6-1.1c0.9-3.1,1.9-6.1,2.9-9.1C141.3,288.1,141.4,287.7,141.9,287.5z"/>
		<path class="st0" d="M72.7,251.8c-3,2.2-5.8,4.3-8.7,6.3c-1,0.7-1.3,1.3-0.8,2.6c1.2,3,2.2,6.2,3.3,9.2c0.1,0.3,0.4,0.6,0,0.9
			c-0.3,0.2-0.5-0.2-0.7-0.3c-2.5-1.8-5-3.5-7.5-5.3c-1.8-1.4-1.9-1.4-3.7-0.1c-2.3,1.7-4.6,3.3-6.9,5c-0.3,0.2-0.5,0.5-1.1,0.4
			c0.9-2.6,1.8-5.2,2.8-7.7c1.4-3.6,1.5-3.6-1.7-5.8c-2.3-1.6-4.5-3.2-6.7-4.9c-0.1-0.1-0.1-0.2-0.2-0.3c0.4-0.3,0.9-0.2,1.3-0.2
			c3.2,0,6.5,0,9.7,0c0.9,0,1.4-0.2,1.6-1.2c0.8-3.1,1.7-6.2,2.6-9.3c0.1-0.4,0.1-1,0.6-1c0.5,0,0.5,0.6,0.7,1
			c0.9,3.1,1.8,6.1,2.6,9.2c0.2,1,0.7,1.2,1.6,1.2c3.2,0,6.4,0,9.6,0C71.7,251.5,72.2,251.4,72.7,251.8z"/>
		<path class="st0" d="M207.9,251.5c3.6,0,7,0,10.4,0c2,0,2,0,2.6-2c0.8-2.9,1.6-5.7,2.4-8.6c0.1-0.4,0.2-0.9,0.7-0.9
			c0.5,0,0.4,0.5,0.5,0.8c0.9,3.1,1.8,6.2,2.6,9.3c0.3,1.1,0.8,1.4,1.8,1.3c3.2-0.1,6.3,0,9.5,0c0.4,0,0.9-0.1,1.4,0.2
			c-0.6,0.5-1.2,0.9-1.7,1.3c-2.5,1.8-4.9,3.6-7.4,5.3c-0.7,0.5-0.8,0.9-0.5,1.6c1.2,3.1,2.3,6.3,3.4,9.5c0.1,0.3,0.2,0.5,0.3,1.1
			c-1.8-0.9-3.1-2-4.5-3c-1.5-1-2.9-2.1-4.4-3.1c-0.7-0.5-1.3-0.5-2,0c-2.6,1.9-5.3,3.8-7.9,5.6c-0.3,0.2-0.7,0.8-1.1,0.5
			c-0.4-0.3,0-0.8,0.2-1.1c1.1-3.2,2.2-6.3,3.4-9.5c0.3-0.7,0.2-1.1-0.5-1.6c-3-2.1-6-4.3-8.9-6.4
			C208.1,252,208.1,251.9,207.9,251.5z"/>
		<path class="st0" d="M185.2,285.9c1.2-3.5,2.3-7,3.5-10.5c0.1-0.2,0.1-0.4,0.4-0.6c1.1,3.7,2.2,7.4,3.3,11.1
			c1,0.3,2.1,0.1,3.2,0.1c2.7,0,5.5,0,8.2,0c0.4,0,0.8-0.2,1.1,0.2c-3,2.3-6,4.5-9,6.8c-0.6,0.5-0.6,1-0.4,1.7c1,3.1,2,6.2,3,9.2
			c0.1,0.3,0.4,0.7,0.1,0.9c-0.4,0.3-0.6-0.1-0.9-0.3c-2.6-1.9-5.3-3.8-7.9-5.7c-0.7-0.5-1.2-0.2-1.7,0.2c-2.5,1.8-5,3.6-7.5,5.4
			c-0.5,0.3-0.9,0.8-1.8,0.8c0.6-1.8,1.2-3.6,1.8-5.3c0.6-1.8,1.3-3.6,1.9-5.4c0.2-0.6,0.1-1-0.5-1.4c-3.1-2.2-6.2-4.5-9.2-6.8
			c0.3-0.5,0.8-0.3,1.2-0.3c3.3,0,6.6,0,10,0C184.4,286.1,184.8,286.2,185.2,285.9z"/>
		<path class="st0" d="M107.9,286.4c-3.1,2.2-6.2,4.5-9.3,6.7c-0.6,0.4-0.7,0.9-0.4,1.6c1.2,3.2,2.3,6.4,3.4,9.6
			c0.1,0.4,0.5,0.8,0.1,1.1c-0.4,0.3-0.7-0.2-1-0.4c-2.6-1.9-5.3-3.8-7.9-5.7c-0.8-0.6-1.4-0.7-2.2,0c-2.3,1.8-4.7,3.4-7.1,5.1
			c-0.4,0.3-0.8,0.7-1.5,0.8c0.6-1.9,1.2-3.8,1.7-5.7c0.5-1.7,1.1-3.4,1.6-5c0.2-0.6,0-0.8-0.5-1.2c-2.7-2-5.4-4.1-8.1-6.1
			c-0.3-0.2-0.6-0.6-0.9-0.8c0.3-0.4,0.8-0.2,1.1-0.2c3.4,0,6.8,0,10.2,0c0.4,0,0.8,0.1,1.2-0.1c1-3.7,2.1-7.4,3.1-11.1
			c0.1,0,0.2,0,0.3-0.1c1.2,3.7,2.5,7.4,3.7,11.2c2.5,0.2,5,0,7.5,0.1c1.4,0,2.8,0,4.2,0C107.4,286.1,107.9,285.9,107.9,286.4z"/>
		<path class="st0" d="M156.4,107.4c0.6,0.1,0.6,0.2,0.1,0.6c-1.6,1.2-3.2,2.4-4.8,3.6c-1.3,0.9-2.5,1.9-3.8,2.7
			c-0.8,0.5-0.8,1-0.5,1.8c1.3,3.4,2.4,6.8,3.7,10.3c-1.1-0.2-1.8-0.9-2.5-1.5c-2.1-1.4-4.2-3-6.2-4.5c-0.7-0.6-1.3-0.6-2.1,0
			c-2.6,2-5.2,3.8-7.9,5.6c-0.3,0.2-0.6,0.6-1,0.4c-0.5-0.3-0.1-0.8,0.1-1.1c1.1-3,2.1-6.1,3.3-9.1c0.4-1,0.2-1.5-0.7-2.1
			c-3-2.1-6-4.4-8.9-6.6c0.1-0.2,0.2-0.3,0.5-0.3c3.8,0,7.6-0.1,11.4,0.1c0.8,0,0.8-0.8,0.9-1.3c0.9-3.1,1.7-6.1,2.6-9.2
			c0.1-0.4,0.1-0.9,0.6-0.9c0.5,0,0.5,0.5,0.6,0.9c0.9,3.1,1.8,6.3,2.6,9.4c0.2,0.6,0.2,1.2,1,1.1
			C149,107.2,152.7,107.2,156.4,107.4z"/>
		<path class="st0" d="M239.8,155.4c-3.2,2.3-6.4,4.6-9.6,6.9c-0.6,0.4-0.3,0.9-0.2,1.3c1.1,3.2,2.3,6.3,3.4,9.5
			c0.1,0.3,0.3,0.7,0.2,1.2c-1.9-1.3-3.7-2.6-5.6-3.9c-1.2-0.8-2.4-1.7-3.6-2.6c-0.6-0.5-1,0-1.4,0.3c-2.8,2-5.5,3.9-8.3,5.9
			c-0.3,0.2-0.5,0.5-0.9,0.4c-0.3-0.3,0-0.6,0.1-0.9c1.1-3.2,2.3-6.4,3.5-9.6c0.3-0.9,0.2-1.3-0.6-1.9c-3-2.1-6-4.4-9-6.6
			c0.1-0.7,0.6-0.3,0.9-0.4c3.4,0,6.9,0,10.3,0c0.4,0,0.8,0.1,1.2-0.1c1-3.5,1.9-6.9,2.9-10.4c0.1-0.4,0-1,0.6-1
			c0.5,0,0.5,0.6,0.6,1c1,3.4,2,6.8,2.9,10.1c0.3,0.5,0.8,0.4,1.2,0.4c3.4,0,6.9,0,10.3,0C239.2,155.1,239.8,154.7,239.8,155.4z"/>
		<path class="st0" d="M53.2,154.9c0.8-2.8,1.6-5.6,2.5-8.5c0.2-0.7,0.3-1.4,0.6-2.1c0.1-0.3,0.1-0.8,0.6-0.8c0.4,0,0.4,0.5,0.5,0.8
			c0.9,3.3,1.8,6.5,2.7,9.8c0.1,0.3,0.2,0.5,0.3,0.8c1,0.3,2.1,0.1,3.2,0.1c2.7,0,5.5,0,8.2,0c0.4,0,0.8-0.2,1.2,0.2
			c-3.1,2.2-6.1,4.5-9.2,6.7c-0.7,0.5-0.9,1-0.6,1.8c1.2,3.2,2.3,6.4,3.5,9.6c0.1,0.3,0.4,0.8,0.1,1c-0.3,0.2-0.6-0.2-0.9-0.4
			c-2.8-2-5.6-4-8.4-6c-0.6-0.4-1-0.4-1.6,0c-2.5,1.9-5.1,3.7-7.7,5.5c-0.3,0.2-0.7,0.6-1.3,0.7c1.1-3.1,2.2-6.1,3.3-9.2
			c0.2-0.5,0.3-0.9,0.5-1.4c0.3-0.7,0.1-1.1-0.5-1.6c-3.1-2.2-6.1-4.4-9.2-6.7c0.2-0.6,0.8-0.3,1.2-0.3c3.3,0,6.7,0,10,0
			C52.4,155,52.9,155.2,53.2,154.9z"/>
		<g>
			<polygon class="st0" points="207.4,203.2 207.4,203.2 207.4,203.2 			"/>
			<path class="st0" d="M256.9,215C256.9,215,256.9,215,256.9,215C256.9,215,256.9,215,256.9,215L256.9,215z"/>
			<path class="st0" d="M256.9,203.2C256.9,203.2,256.9,203.2,256.9,203.2C256.9,203.2,256.9,203.2,256.9,203.2L256.9,203.2z"/>
			<path class="st0" d="M257,213.8c0-3.1,0-6.3,0-9.4c0-0.4,0.1-0.8-0.1-1.2c-0.4-0.2-0.8-0.1-1.2-0.1c-15.7,0-31.4,0-47.1,0
				c-0.4,0-0.8-0.1-1.2,0.1c-0.2,0.4-0.1,0.9-0.1,1.3c0,5.4,0,10.8,0,16.2c0,0.4,0.1,0.9-0.1,1.3c0,0.9,0.1,1.7-0.6,2.6
				c-0.8-2.2-1.5-4.3-2.2-6.4c-3.9-11.5-7.9-23-11.7-34.6c-0.6-1.8-1.4-2.7-3.3-2.7c-2.6-0.2-5.2-0.2-7.9,0c-3.4,0-6.8,0.1-10.2,0
				c-0.9,0-1.3,0.3-1.6,1.2c-2.8,8.5-5.7,17-8.6,25.4c-1.4,4-2.6,8-4,12c-2.1,5.8-3.9,11.7-5.9,17.6c-0.4,1-0.1,1.2,0.9,1.2
				c4.4,0,8.9,0,13.3,0c2.3,0,4.6,0.5,7,0.3c0.2,0,0.4,0,0.5,0.2c0.1,0.3-0.2,0.3-0.3,0.4c-1.1,0.7-2.5,0.9-3.4,2
				c-0.1,0.1-0.3,0.1-0.5,0c-1.7-0.6-3.4-0.5-5.2,0c-0.7,0.2-1,0.3-1.1,1c-0.1,0.9-0.9,1.3-1.7,0.9c-0.3-0.2-0.5-0.5-0.9-0.8
				c0,1.1,0.6,1.8,0.8,2.5c0.3,1.9,1,3.4,2.8,4.2c0.2,0.1,0.3,0.4,0.2,0.6c-0.1,0.3-0.4,0.3-0.6,0.3c-1.2,0.1-2,1.2-1.8,2.4
				c0.1,0.7-0.2,1.1-0.6,1.5c-0.5,0.5-0.7,0-1-0.3c-0.3-0.2-0.6-0.2-0.9-0.2c-0.4,0-0.6-0.1-0.6-0.6c0-0.7-0.4-1.1-0.7-1.6
				c-0.5-0.7-0.3-1.2,0.6-1.3c0.6-0.1,1.2-0.1,1.8,0c0.4,0,0.7-0.1,0.8-0.4c0.1-0.3-0.3-0.4-0.5-0.6c-0.2-0.1-0.5-0.2-0.7-0.2
				c-2.1,0.1-3.5-1.2-4.8-2.6c-0.4-0.5-0.9-0.9-1.4-1.2c-0.9-0.6-1.2-1.4-1.2-2.4c-0.1-2-0.9-3.6-2.6-4.8c-1.2-0.8-2.6-1.4-3.5-2.6
				c-0.2-0.3-0.7-0.5-1.1-0.5c-0.8,0-1.3-0.4-1.7-1c-0.7-0.9-0.9-1.9-1.3-2.9c-0.2-0.6-0.5-1.4-1.3-1c-1.2,0.6-1.6,0-2.1-1
				c-0.5-1-1.9-1.1-2.1-0.1c-0.3,1.6-0.6,3.1,0.4,4.7c0.7,1,1.9,1.6,2.3,2.7c0.7,2.1,2.1,3.1,4.2,3.3c0.3,0,0.7,0.2,0.7,0.3
				c0.6,1.6,2.2,1.7,3.3,2.6c0.8,0.6,1.9,0.9,2.1,2.1c-0.7,0.3-1.2,0-1.7-0.2c-0.6-0.2-1.2-0.3-1.7,0.1c-0.6,0.5-0.1,1.1,0.1,1.5
				c0.3,0.9,0.4,1.7-0.1,2.4c-0.5,0.7-1.1,1.3-1.7,1.9c-0.2,0.2-0.4,0.7-0.8,0.4c-0.4-0.2-0.1-0.7,0-1c0.1-0.2,0.1-0.3,0.2-0.5
				c0.6-1.9,0-3.4-1.7-4.3c-0.3-0.1-0.5-0.3-0.7-0.7c-0.6-1.3-1.9-2.3-3-2.7c-2.5-0.9-4.1-2.8-5.8-4.6c-0.7-0.8-1.3-1.7-1.6-2.7
				c-0.6-2.2-2.4-3-4.5-2.2c-1.4,0.6-2.7,1.4-4,2.2c-0.9,0.5-1.6,0.6-2.3,0c-0.3-0.2-0.6-0.4-1-0.5c-2.6-1.3-4.1-0.7-4.8,2.2
				c-0.4,1.5-1.2,2.3-2.7,2.5c-3.1,0.4-4.9,2.4-6.4,4.9c-0.4,0.6-0.1,1.3-0.5,2c-1.2,1.8-3.1,2.6-4.8,3.6c-0.9,0.5-1.8,0.6-2.8,0.4
				c-1.7-0.4-3.4-0.8-5.1-0.5c-0.7,0.1-1.4,0.6-2.1,0.4c-1-0.3-0.6-1.3-0.9-2c-0.8-1.8-2.2-2.4-4-2.6c-1.4-0.1-1.7-0.3-1.3-1.7
				c0.3-1,0.2-2-0.1-3c-0.3-0.8-0.4-1.8,0.3-2.3c1.8-1.5,2.4-3.6,3.1-5.6c0.2-0.6,0-1.3,0.4-1.8c0.6-0.7,0.7-1.4,0.5-2.3
				c-0.2-0.8,0.1-1.1,1-1.4c2.1-0.7,3.9,0.3,5.6,0.9c2.8,1.1,5.8,1.8,8.6,2.8c0.8,0.3,1.4,0,1.8-0.7c0.5-1.1,1-2.1,1.7-3.1
				c0.6-0.9,0.8-1.7,0.5-2.6c-0.2-0.7-0.4-1.5-0.9-2.1c-0.3-0.4-0.6-0.9-0.5-1.3c0.3-1-0.2-1.7-0.8-2.3c-0.6-0.8-1.5-1.3-2.4-1.8
				c-0.6-0.3-0.8-0.9-0.7-1.6c0.2-0.6,0.6-0.8,1.3-0.9c0.9-0.1,1.7,0.2,2.3,0.8c0.5,0.5,1,1,1.8,0.5c0.8-0.5,1.2-1.1,0.9-2
				c-0.3-0.8,0.1-0.8,0.6-0.5c0.3,0.1,0.5,0.4,0.8,0.5c0.9,0.4,1.8,1.3,2.7,0.4c0.5-0.4,1-0.7,1.5-1c0.6-0.4,1.3-0.6,1.5-1.3
				c0.2-0.7,0.6-0.8,1.2-0.9c1.1-0.1,1.9-0.6,2.8-1.1c1-0.6,1.7-1.4,2.2-2.4c0.2-0.4,0.5-1.1,1.2-0.3c0.2,0.3,0,0.9,0.6,0.8
				c0.5-0.1,0.6-0.7,0.7-1.2c0.1-0.4,0-1,0.5-1.2c1.3-0.5,2.6-0.7,4-0.4c1.3,0.3,1.5,0.3,1.7-1.1c0.3-1.8,0.2-3.5-0.2-5.2
				c-0.4-2,0.1-3.6,1.3-4.3c0.8-0.4,1.6-0.7,2.5-1.1c0.3,1.6-0.1,2.8-0.8,4.1c-0.3,0.6-0.7,1.1-0.8,1.9c0,1.5,0.6,2.6,1.3,3.8
				c0.7,1.2,1.3,1.3,2.1,0.6c1-0.9,2-0.7,3,0c0.9,0.7,1.9,0.6,2.9,0.4c0.9-0.2,1.7-0.6,2.4-1.1c1.4-0.9,2.8-2,4.4-0.4
				c0.2,0.2,0.4,0,0.6,0c2.2-0.5,3.7-2.7,3.3-4.9c-0.1-0.8-0.2-1.6-0.1-2.4c0.1-1,0.8-1.7,1.6-2.2c0.7-0.4,1,0.3,1.5,0.6
				c0.3,0.2,0.6,0.4,1,0.5c0.3,0.1,0.7,0,0.7-0.2c0.2-0.9,0.3-1.8,0.3-2.7c0-0.7-0.6-0.6-1-0.8c-0.2-0.1-0.3-0.3-0.4-0.4
				c-0.6-1.2,0.3-3.2,1.6-3.4c1.1-0.2,2.2-0.5,3.4-0.3c0.4,0.1,0.8,0,1.2-0.3c0.7-0.7,1.5-1.3,2.3-1.7c0.5-0.3,0.6-0.7,0-1
				c-1.1-0.6-2.2-1.1-3.5-0.5c-1.5,0.8-3,1.4-4.5,2.1c-1,0.4-2,1.1-2.8-0.3c-0.1-0.2-0.6-0.3-0.9-0.4c-0.9-0.3-1.4-1-1.4-1.9
				c0.1-1.1,0-2.1-0.5-3.1c-0.4-0.9-0.1-1.7,0.3-2.5c1.1-1.9,2.2-3.8,3.5-5.5c0.9-1.2,0.6-2.2-0.8-2.6c-2.3-0.7-3.6,0.2-3.6,2.6
				c0,1.8-0.6,3-1.9,4.2c-0.5,0.5-1,0.9-1.5,1.5c-0.7,0.9-1.7,1.7-1.7,2.9c-0.1,2.1-0.3,4.2,1.6,5.9c1,0.9,0.5,3.1-0.6,3.5
				c-1,0.4-1.4,1.2-1.6,2.1c-0.2,1-0.3,2.1-0.5,3.1c-0.4,1.9-0.7,3.1-3,3.6c-0.6,0.1-0.8,0.5-1,1c-0.2,0.7-0.9,0.7-1.6,0.6
				c-0.6-0.1-0.5-0.6-0.6-1c-0.2-1.2-0.4-2.3-0.6-3.5c-0.4-2-1.8-3.6-2-5.7c0-0.4,0.1-1.1-0.6-1.2c-0.6-0.1-1,0.2-1.4,0.5
				c-1,0.8-1.9,1.8-3.1,2.3c-1.1,0.5-2.9-0.2-3.3-1.3c-0.2-0.8,0.6-1.2,0.7-1.9c0.2-0.5,0.1-1,0.1-1.5c0.1-1.8-0.1-3.7,0.1-5.5
				c-0.1-0.9,0-1.6,0.9-2.2c2.7-1.5,5.1-3.3,7.4-5.7c2.6-2.7,3.4-6.3,5.9-8.9c1.2-1.3,1.9-3.2,3.2-4.6c0.7-0.8,1.2-2.3,2.8-1.7
				c0.1,0,0.3-0.2,0.4-0.3c0.2-1.1,1-1.1,1.8-1.4c0.7-0.2,1-0.6,1.1-1.3c0.2-0.7,0.6-1.5,1.5-0.5c0.3,0.3,0.5,0.2,0.7,0
				c0.5-0.6,1.3-0.7,1.8-1.5c0.2,0.9,0.5,1.2,1.3,0.6c0.4-0.3,0.8,0,1.2,0.4c0.3,0.4,0,0.7-0.3,0.8c-0.3,0.2-0.6,0.3-0.5,0.7
				c0.1,0.3,0.6,0.3,0.8,0.4c0.5,0.1,1.1,0,1.5-0.2c0.3-0.2,0.7-0.3,0.9-0.1c1,1.1,2.1,1.1,3.5,0.9c2.9-0.4,5.5,1.2,8.2,2.2
				c1.6,0.6,1.8,2,0.8,3.5c-1.2,1.8-2.1,2.2-4.2,1.8c-1.6-0.3-3.3-0.5-5-0.7c0.3,1.4,1.5,1.5,2.4,2.1c0.6,0.4,1.1,0.7,1.2,1.5
				c0.3,1.9,2.8,3.9,4.7,3.8c0.4,0,0.7-0.1,0.8-0.5c0.1-0.4-0.1-0.7-0.4-0.8c-0.4-0.2-0.8-0.3-1.2-0.6c-0.3-0.2-0.6-0.4-0.5-0.9
				c0.1-0.4,0.4-0.5,0.8-0.5c0.9,0,1.8-0.2,2.7,0.1c0.6,0.2,1.2,0.2,1.9,0c-0.5-0.9-1.3-1.4-1.9-2.1c-0.8-1,0.3-4.4,1.5-4.7
				c0.2,0,0.4,0,0.6,0c0.4,0.1,0.8,0.4,1.1,0c0.3-0.4,0.2-0.9,0-1.3c-0.3-0.5-0.6-1-1-1.5c-0.3-0.4-0.4-0.8-0.1-1.2
				c0.6-0.7,1.2-1.5,2-1.7c1.3-0.3,2.2-1.1,3.3-1.8c0.5-0.4,0.6-0.6,0.1-1c-0.9-0.7-1.8-1.5-2.8-2.2c-6.1-4-12.8-6.6-19.7-8.6
				c-5.6-1.7-11.4-2.1-17.2-2.5c-2.3-0.2-4.6-0.1-6.9,0c-4.2,0.4-8.4,1-12.6,2c-6.3,1.5-12.3,3.5-18.1,6.5
				c-6,3.2-11.1,7.5-15.9,12.3c-2.2,2.2-4.2,4.5-6,6.9c-3.3,4.3-6,9-8.2,13.9c-1.5,3.3-2.7,6.7-3.6,10.2c-1.3,4.8-2.2,9.7-2.3,14.7
				c-0.2,2.9-0.2,5.7,0,8.6c0.2,1.3,0.1,2.7,0.3,4c0.3,2.5,0.6,5,1.1,7.4c1.7,8.3,4.9,16,9.4,23.2c3.3,5.3,7.1,10.2,11.9,14.3
				c3.3,2.7,6.5,5.4,10.1,7.7c3.9,2.6,8.1,4.6,12.6,6.2c3.7,1.3,7.4,2.4,11.3,3.2c3.4,0.7,6.9,1.1,10.4,1.3c2.8,0.1,5.6,0.1,8.4,0
				c3.1,0,6.1-0.6,9.2-1.1c6.3-1.1,12.4-3,18.1-5.7c4.6-2.2,8.8-5,12.9-8c5-3.7,9.5-7.9,13.4-12.7c1.2-1.5,1.1-1.9-0.5-1.9
				c-1.9-0.1-3-0.7-3.2-2.7c0-0.3-0.3-0.7-0.6-0.5c-1.4,0.9-3.1,1.2-4.4,2.5c-1.5,1.5-2.6,1.7-4.2,0.5c-0.7-0.5-1.6-0.9-2.6-0.6
				c-0.7,0.2-0.8,1.1-1.1,1.6c-0.8,1.4-2.1,1.6-3.3,0.6c-0.4-0.4-0.9-0.4-1.4-0.3c-1.4,0.2-2.4-0.5-3.2-1.5
				c-0.7-0.9-1.5-1.8-2.5-2.3c-0.3-0.2-0.7-0.3-0.3-0.8c0.7-0.9,0.4-2.2-0.6-2.5c-1.4-0.4-0.8-1.1-0.4-1.8c0.5-0.8,1.3-1,2.1-1.2
				c1.4-0.4,2.8-0.9,4-1.7c0.8-0.5,0.5-0.8-0.1-1.1c1.6-0.5,3-0.5,4.5-0.4c1.5-0.2,3-0.1,4.5-0.1c3.3-0.1,6.5,0.1,9.8-0.1
				c0.6,0,1.2-0.1,1.8-0.1c19.9,0,39.9,0,59.8,0c0.6,0,1.2,0.1,1.7-0.2c0.2-0.3,0.1-0.6,0.1-1c0-5.3,0-10.7,0-16
				c0-0.3,0.1-0.7-0.1-1c-0.5-0.4-1-0.2-1.5-0.2c-9.1,0-18.3,0-27.4,0c-0.5,0-1.1,0-1.6-0.1c-0.3-1.1-0.1-2.3-0.1-3.4
				c0-1.3,0-1.3,1.3-1.3c9.3,0,18.7,0,28,0c0.4,0,0.9,0.1,1.3-0.1C257.1,214.6,257,214.2,257,213.8z M199.9,212.7
				c-0.7,0.6-1.5,1.2-2.3,1.7c-2.6,1.8-5.2,3.6-7.6,5.6c-0.7,0.6-0.8,1.1-0.5,2c1.2,3.5,2.6,7,4,10.4c0.3,0.8,0.8,1.6,0.8,2.7
				c-1.1-0.3-1.8-0.9-2.6-1.5c-2.9-2.2-5.9-4.2-9-6.3c-1.3-0.9-2.3-0.9-3.6,0.1c-3.5,2.4-7,4.7-10.2,7.5c-0.2,0.2-0.4,0.3-0.7,0.5
				c-0.2-0.7,0.1-1.2,0.3-1.7c1.3-3.7,2.6-7.3,3.9-11c0.7-2.1,0.6-2.2-1.1-3.5c-2.7-2.2-5.6-4.3-8.5-6.3c-0.4-0.3-0.8-0.4-1-1
				c1.9-0.1,3.7-0.2,5.5-0.3c2.6-0.1,5.2-0.2,7.9-0.2c0.8,0,1.1-0.3,1.4-1c1.3-3.8,2.7-7.5,4-11.2c0.2-0.4,0.3-0.8,0.6-1.4
				c0.6,0.8,0.7,1.5,1,2.2c1.1,3.6,2.3,7.1,3.7,10.6c0.3,0.8,0.7,1.1,1.6,1.1c3.6,0,7.1,0,10.7,0c0.4,0,0.9,0,1.3,0.1
				C200.3,211.8,200.5,212.2,199.9,212.7z"/>
		</g>
		<g>
			<path class="st0" d="M268.6,183.1c-1.2,1-2.4,2-3.3,3.2c-2.5,3.1-3.9,6.7-4.2,10.7c-0.1,1,0.3,1.3,1.3,1.3c16,0,31.9,0,47.9,0
				c1,0,1.3-0.3,1.2-1.3c0-4.8,0-9.5,0-14.3c0-0.3,0-0.7,0-1h-40.7C270.1,182.1,269.3,182.5,268.6,183.1z"/>
			<path class="st0" d="M315.9,182.6c0,4.8,0,9.6,0,14.4c0,0.4-0.2,0.9,0.2,1.3c15.8,0,31.6,0,47.4,0c0.4,0,0.7,0,1.1,0
				c0.6,0,0.9-0.2,0.9-0.9c0-0.5,0-0.9,0-1.4c0-4.8,0-9.5,0.1-14.3h-49.6C315.9,182,315.9,182.3,315.9,182.6z"/>
			<path class="st0" d="M369.8,182.1c0,5,0,10.1,0,15.1c0,0.4-0.1,0.7,0.2,1.1c0.5,0,1.1,0,1.6,0c15.3,0,30.6,0,45.9,0
				c0.4,0,0.7,0,1.1,0c0.6,0,0.8-0.2,0.8-0.8c0-5.2,0-10.4,0-15.6c0,0,0,0,0-0.1h-49.6C369.8,181.9,369.8,182,369.8,182.1z"/>
		</g>
		<path class="st0" d="M375.3,181.5L375.3,181.5c0,0-0.1,0-0.1,0H375.3z"/>
		<g>
			<path class="st0" d="M316.6,169.7c-1.2,2.6-1.9,5.5-5.4,3.4c-1.1-8.3,3-11.9,10.4-8.5c3.2,1.5,5.9,1.1,8.9,0.2
				c4-1.1,8.1-1.8,12-2.7c-1.5-0.2-3.4-0.7-5.4-0.7c-4.3,0.1-6.4-2.7-3.4-5.9c3-3.3,7.4-5.4,11.4-7.4c2.6-1.3,5.2-2.2,5.5-5.2
				c-2.4,1.2-4.8,2.5-7.3,3.7c-2.3,1.1-4.8,1.8-7.1,3.1c-5.8,3.2-6.9,5.7-5.8,12.2c-7.8-1.7-10.6-6.7-9.8-16.7
				c-0.5,1.6-1.1,3.2-1.7,5c-3.2-9.7,4.8-19.1,14.3-17.4c1.5,0.3,3.1-0.6,4.7-0.9c1.3-0.3,2.6-0.6,3.8-0.8c-1.1-3.6,3-8.6-3.2-11.5
				c0.4-0.4,0.7-0.7,1.1-1.1c4.1,0.3,8.2,0.7,11.6,0.9c-2.7-2.6-4.6-2.9-16-1.1c2.1-3.1,3.6-5.3,5-7.4c-2.4,1-5.2,2.1-7.9,3.2
				c0.7,0.1,1.8,0.3,2.9,0.6c0,1.7,0,3.2,0,4.8c1,0.5,2.4,0.7,2.8,1.4c1.1,2.1,2.9,4.8,2.3,6.5c-0.6,1.8-3.6,3.3-5.8,3.8
				c-2.4,0.5-5-0.2-7.2-0.9c-2.4-1.3-4.7-2.5-8.1-4.3c-2-5.5-1.8-6,4.9-9.5c1.3-0.7,2.5-1.7,3.2-2.9c3.8-6.3,14.9-10.4,24.4-8.9
				c7.4,1.2,13.1,6.5,14.7,13.8c-1.5-0.6-2.8-1.1-3-1.1c1.8,3.4,5.1,7.3,5.7,11.6c0.6,4.2-1.7,8.8-2.6,12.6c0.7,0.2,2.4,0.7,4.1,1.2
				c1.9,0.5,3.7,1.3,5.6,1.5c1.8,0.3,3.8,0.1,6.2,0.1c7.9-8.9,20-3.1,28.6,7.8c0.3-0.2,0.6-0.4,0.9-0.6c-2.7-3.4-5.1-7-8-10.3
				c-3.2-3.6-7-6.7-10.2-10.4c-3-3.4-3.8-7.4-1.6-11.8c1.9-3.8,4.2-6.6,9-5.9c2.7,0.3,5.4,0.1,8.3,0.1c0.2,4.1-2.1,5.9-5,6.3
				c-1.8,0.3-3.8-1.1-6.8-2c-3.6,2.1-4.8,7.2-1,11.6c2.8,3.3,6.3,6.1,9.6,9c9.8,8.6,14.3,18.9,11.4,32c-0.6,2.8-1.7,4.1-4.8,4
				c-10.3-0.3-20.6-0.3-30.9-0.3c-2.8,0-4-0.9-3.9-3.9c-0.5,1.3-1,2.6-1.7,4.1c-1.4-0.1-2.9-0.1-4.6-0.2c-0.3-3.9-1.4-8.2,3.2-9.4
				c3.2-0.9,6.9,0.3,10.8,0.5c-1.6-1.8-3.1-3.5-4.8-5.5c0,1.1,0,2,0,2.8c-9.8,0.2-10.9,1.3-11.7,11.1c-3.2,0-7.2,2.5-9.1-1.8
				c-1.3-2.8-0.7-6.5-2-9.8c-0.4,3.8-0.8,7.6-1.3,12.1c-2.3,0-5.4,0-8.6,0c-9.2-0.1-18.5-0.2-27.7-0.1
				C317.9,173.7,316.2,173.2,316.6,169.7z"/>
			<path class="st0" d="M320.9,134.1c-0.4-1.9-0.8-3.7-1.1-5.6c0.3-0.4,0.7-0.7,1-1.1c1.4,0.8,4,1.7,4,2.5c-0.1,1.6-1.5,3.2-2.4,4.7
				C321.9,134.5,321.4,134.3,320.9,134.1z"/>
		</g>
	</g>
</g>
<g id="Слой_4">
</g>
<g id="Слой_3">
</g>
<g id="Слой_5">
</g>
</svg>
