<?xml version="1.0" encoding="utf-8"?>
<!-- Generator: Adobe Illustrator 22.0.1, SVG Export Plug-In . SVG Version: 6.00 Build 0)  -->
<svg version="1.1" id="Layer_1" xmlns="http://www.w3.org/2000/svg" xmlns:xlink="http://www.w3.org/1999/xlink" x="0px" y="0px"
	 viewBox="0 0 382.5 204.6" style="enable-background:new 0 0 382.5 204.6;" xml:space="preserve">
<style type="text/css">
	.st0{fill-rule:evenodd;clip-rule:evenodd;fill:#497CB9;}
	.st1{fill:#497CB9;}
	.st2{fill-rule:evenodd;clip-rule:evenodd;fill:#E5A42F;}
	.st3{fill-rule:evenodd;clip-rule:evenodd;fill:#8CBE4F;}
</style>
<g>
	<path class="st0" d="M214.9,110.3c0,2.5-0.5,4.8-1.5,6.7c-1,1.9-2.4,3.6-4.1,4.8c-2,1.5-4.2,2.6-6.6,3.2c-2.3,0.6-5.4,0.9-9.1,0.9
		H178V74.8h14.4c3.9,0,6.8,0.1,8.7,0.4c1.9,0.2,3.8,0.8,5.6,1.7c1.9,1,3.4,2.3,4.3,3.9c0.9,1.6,1.4,3.5,1.4,5.6c0,2.4-0.7,4.6-2,6.5
		c-1.4,1.9-3.2,3.4-5.6,4.5v0.3c3.2,0.8,5.8,2.3,7.5,4.5C214.1,104.3,214.9,107,214.9,110.3L214.9,110.3z M204.8,87.3
		c0-1.2-0.2-2.3-0.7-3.2c-0.4-0.9-1.1-1.6-2.1-2.1c-1.2-0.6-2.5-1-3.9-1.1c-1.4-0.1-3.4-0.2-6-0.2h-6.9v15h8.2c2.3,0,3.9-0.1,5-0.3
		c1.1-0.2,2.2-0.7,3.3-1.4c1.1-0.7,1.9-1.5,2.3-2.6C204.6,90.2,204.8,88.9,204.8,87.3L204.8,87.3z M207.4,110.6
		c0-1.9-0.3-3.5-0.9-4.8c-0.6-1.3-1.8-2.3-3.5-3.2c-1.1-0.6-2.4-0.9-3.8-1.1c-1.4-0.2-3.3-0.2-5.8-0.2h-8.2v18.9h5.9
		c3.2,0,5.7-0.1,7.5-0.4c1.8-0.3,3.4-0.9,4.8-1.8c1.4-0.9,2.4-1.9,3-3C207.1,113.8,207.4,112.4,207.4,110.6L207.4,110.6z"/>
	<polygon class="st0" points="222.2,126 222.2,74.8 256.3,74.8 256.3,80.9 229.4,80.9 229.4,94.9 254.4,94.9 254.4,100.9 
		229.4,100.9 229.4,119.9 256.3,119.9 256.3,126 222.2,126 	"/>
	<path class="st0" d="M279.4,126.9c-3.9,0-7.3-0.4-10.1-1.2c-2.8-0.8-5.4-1.7-7.8-2.8v-8.5h0.5c2.4,2.1,5.1,3.7,8.1,4.9
		c3,1.2,5.9,1.7,8.7,1.7c4,0,7-0.8,9.1-2.4c2-1.6,3.1-3.6,3.1-6.2c0-2-0.5-3.7-1.6-5c-1.1-1.3-2.8-2.2-5.1-2.9
		c-1.7-0.5-3.2-0.8-4.6-1.1c-1.4-0.3-3.1-0.7-5.2-1.2c-1.9-0.5-3.6-1-5-1.8c-1.5-0.7-2.8-1.6-3.9-2.8c-1.1-1.1-2-2.4-2.6-4
		c-0.6-1.5-0.9-3.3-0.9-5.3c0-4.1,1.7-7.6,5.2-10.4c3.4-2.8,7.8-4.2,13.2-4.2c3,0,5.9,0.3,8.6,0.9c2.7,0.6,5.2,1.4,7.5,2.4v8.2h-0.5
		c-1.7-1.5-3.9-2.8-6.7-3.9c-2.7-1.1-5.5-1.7-8.5-1.7c-3.4,0-6.1,0.7-8.1,2.2c-2.1,1.5-3.1,3.4-3.1,5.8c0,2.2,0.6,3.9,1.8,5.2
		c1.2,1.3,3,2.2,5.3,2.8c1.5,0.4,3.4,0.8,5.6,1.3c2.2,0.5,4.1,0.9,5.5,1.4c3.8,1.1,6.5,2.7,8.2,4.9c1.7,2.2,2.6,4.9,2.6,8
		c0,2-0.4,4-1.3,5.9c-0.9,1.9-2.1,3.6-3.6,4.9c-1.8,1.5-3.7,2.6-5.9,3.4C285.4,126.5,282.7,126.9,279.4,126.9L279.4,126.9z"/>
	<polygon class="st0" points="318.6,126 318.6,80.9 300.3,80.9 300.3,74.8 344.2,74.8 344.2,80.9 325.9,80.9 325.9,126 318.6,126 	
		"/>
	<path class="st1" d="M315,146.6h-8v-13.8h1.8V145h6.1V146.6L315,146.6z M326.4,132.9l-4.7,13.8h-2l-4.7-13.8h2l3.8,11.4l3.8-11.4
		H326.4L326.4,132.9z M332.5,146.6h-5.3v-1.4h1.8v-11h-1.8v-1.4h5.3v1.4h-1.8v11h1.8V146.6L332.5,146.6z M344.8,132.9l-4.7,13.8h-2
		l-4.7-13.8h2l3.8,11.4l3.8-11.4H344.8L344.8,132.9z"/>
	<path class="st0" d="M150.8,126.1l-12-6.9h-31.3l-12,6.9c11.5,19.9,45.8,52.6,83,55.4C165.5,174.2,144.9,148.1,150.8,126.1
		L150.8,126.1z"/>
	<path class="st2" d="M125.2,88.6L125.2,88.6l-0.2-0.4L125.2,88.6L125.2,88.6z M159.3,23.1c0.2,14.9-12.1,45.7-34.2,51.7l0,13.8
		l15.7,27.1l12,6.9C164.3,102.8,175.5,56.7,159.3,23.1L159.3,23.1z"/>
	<path class="st3" d="M105.5,115.7L105.5,115.7l-0.2,0.4L105.5,115.7L105.5,115.7z M121.2,74.8c-23,0-68.4,13.4-89.5,44.1
		c12.8-7.6,45.6-12.4,61.8,3.8l12-6.9l15.7-27.1L121.2,74.8L121.2,74.8z"/>
	<path class="st0" d="M115.8,107.8c0-4.1,3.3-7.3,7.3-7.3c4.1,0,7.3,3.3,7.3,7.3c0,4.1-3.3,7.3-7.3,7.3
		C119.1,115.2,115.8,111.9,115.8,107.8L115.8,107.8z"/>
</g>
</svg>
