<?xml version="1.0" encoding="utf-8"?>
<!-- Generator: Adobe Illustrator 22.0.1, SVG Export Plug-In . SVG Version: 6.00 Build 0)  -->
<svg version="1.1" id="Layer_1" xmlns="http://www.w3.org/2000/svg" xmlns:xlink="http://www.w3.org/1999/xlink" x="0px" y="0px"
	 viewBox="0 0 1559.1 1559.1" style="enable-background:new 0 0 1559.1 1559.1;" xml:space="preserve">
<style type="text/css">
	.st0{fill:#35353C;}
	.st1{fill:#5AA69C;}
</style>
<g>
	<g>
		<path class="st0" d="M288.5,428.7"/>
	</g>
	<g>
		<path class="st0" d="M705.1,410.3c-7,0-13.9-2.7-19.3-8L515.4,231.9L346,401.2c-10.6,10.6-27.9,10.6-38.5,0s-10.6-27.9,0-38.5
			L496.1,174c10.6-10.6,27.9-10.6,38.5,0l189.7,189.7c10.6,10.6,10.6,27.9,0,38.5C719,407.6,712,410.3,705.1,410.3z"/>
	</g>
	<g>
		<path class="st1" d="M705.1,541.9c-7,0-13.9-2.7-19.3-8L515.4,363.6L346,532.9c-10.6,10.6-27.9,10.6-38.5,0s-10.6-27.9,0-38.5
			l188.6-188.6c10.6-10.6,27.9-10.6,38.5,0l189.7,189.7c10.6,10.6,10.6,27.9,0,38.5C719,539.3,712,541.9,705.1,541.9z"/>
	</g>
	<g>
		<path class="st0" d="M705.1,673.6c-7,0-13.9-2.7-19.3-8L515.4,495.2L346,664.6c-10.6,10.6-27.9,10.6-38.5,0
			c-10.6-10.6-10.6-27.9,0-38.5l188.6-188.6c10.6-10.6,27.9-10.6,38.5,0l189.7,189.7c10.6,10.6,10.6,27.9,0,38.5
			C719,671,712,673.6,705.1,673.6z"/>
	</g>
	<g>
		<path class="st0" d="M992.5,643.2c0-7.2-2.9-14.2-8-19.3L825,464.4c-10.6-10.6-27.9-10.6-38.5,0c-10.6,10.6-10.6,27.9,0,38.5
			l140.3,140.3l-411.4,411.4L104,643.2l139.8-139.8c10.6-10.6,10.6-27.9,0-38.5c-10.6-10.6-27.9-10.6-38.5,0L46.2,624
			c-10.6,10.6-10.6,27.9,0,38.5l449.9,449.9c5.3,5.3,12.3,8,19.3,8c7,0,13.9-2.7,19.3-8l449.9-449.9
			C989.7,657.4,992.5,650.5,992.5,643.2z"/>
		<path class="st0" d="M984.4,839.9v64.9c0,2,1.7,3.7,3.7,3.7h6.5c2,0,3.7-1.7,3.7-3.7v-64.9c0-2-1.7-3.7-3.7-3.7h-6.5
			C986.1,836.2,984.4,837.8,984.4,839.9z"/>
		<path class="st0" d="M1029.8,906h6.5c2,0,3.7-1.7,3.7-3.7v-27.6h25.7v27.6c0,2,1.7,3.7,3.7,3.7h6.5c2,0,3.7-1.7,3.7-3.7v-64.9
			c0-2-1.7-3.7-3.7-3.7h-6.5c-2,0-3.7,1.7-3.7,3.7v23.5H1040v-23.5c0-2-1.7-3.7-3.7-3.7h-6.5c-2,0-3.7,1.7-3.7,3.7v64.9
			C1026.1,904.4,1027.7,906,1029.8,906z"/>
		<path class="st0" d="M1114,897.5c7.3,8.4,17.3,12.6,29.7,12.6c6.5,0,12.5-1.3,17.8-3.7c5.3-2.5,9.9-6.1,13.5-10.6
			c0.6-0.8,0.9-1.8,0.8-2.8s-0.6-1.9-1.4-2.5l-5.1-3.9c-1.6-1.2-3.8-1-5,0.5c-5.4,6.3-12,9.4-20,9.4c-7.3,0-13.2-2.3-18-6.9
			c-4.7-4.6-7-10.2-7-17.2c0-4.5,1.1-8.7,3.1-12.3c2.1-3.6,5-6.5,8.9-8.6c3.9-2.2,8-3.3,12.6-3.3c4.2,0,8,0.8,11.4,2.5
			c3.4,1.6,6.4,4.1,8.8,7.3c1.2,1.6,3.6,1.9,5.2,0.7l5.1-3.9c1.6-1.2,1.9-3.5,0.8-5.1c-3.5-4.8-8-8.6-13.4-11.2
			c-5.4-2.6-11.4-4-18.1-4c-11,0-20.3,3.6-27.6,10.8c-7.4,7.2-11.1,16.1-11.1,26.6C1104.8,881.8,1107.9,890.4,1114,897.5L1114,897.5
			z"/>
		<path class="st0" d="M1238,846.2v-6.4c0-2-1.7-3.7-3.7-3.7h-35.6c-2,0-3.7,1.7-3.7,3.7v6.4c0,2,1.7,3.7,3.7,3.7h10.8v54.9
			c0,2,1.7,3.7,3.7,3.7h6.6c2,0,3.7-1.7,3.7-3.7v-54.9h10.8C1236.4,849.9,1238,848.3,1238,846.2z"/>
		<path class="st0" d="M1263.9,908.5h1.5c1.1,0,2.1-0.5,2.8-1.3l36.3-42.2v39.8c0,2,1.7,3.7,3.7,3.7h6.8c2,0,3.7-1.7,3.7-3.7v-64.9
			c0-2-1.7-3.7-3.7-3.7h-1.5c-1.1,0-2.1,0.5-2.8,1.3l-36.6,43v-40.6c0-2-1.7-3.7-3.7-3.7h-6.5c-2,0-3.7,1.7-3.7,3.7v64.9
			C1260.2,906.8,1261.8,908.5,1263.9,908.5z"/>
		<path class="st0" d="M1383.7,846.2v-6.4c0-2-1.7-3.7-3.7-3.7h-35.6c-2,0-3.7,1.7-3.7,3.7v6.4c0,2,1.7,3.7,3.7,3.7h10.8v54.9
			c0,2,1.7,3.7,3.7,3.7h6.6c2,0,3.7-1.7,3.7-3.7v-54.9h10.8C1382,849.9,1383.7,848.3,1383.7,846.2z"/>
		<path class="st0" d="M1456.6,836.2h-7.1c-1.5,0-2.9,0.9-3.4,2.3l-14.7,36.2l-16.1-36.2c-0.6-1.3-1.9-2.2-3.4-2.2h-7.3
			c-1.3,0-2.4,0.6-3.1,1.7c-0.7,1.1-0.8,2.4-0.3,3.5l23,50.7c-1.4,3.1-2.2,3.8-2.3,3.8c-0.6,0.4-1.3,0.7-2.3,0.7
			c-0.6,0-1.2-0.1-1.9-0.4c-0.2-0.1-1.4-0.8-5.4-4.7c-1.4-1.3-3.5-1.4-4.9-0.2l-4.7,3.9c-0.8,0.6-1.3,1.6-1.3,2.6
			c-0.1,1,0.3,2,0.9,2.7c3.6,4,6.6,6.5,9.2,7.7c2.6,1.2,5.3,1.8,8.2,1.8c7.4,0,12.8-3.6,15.6-10.5l24.7-58.3
			c0.5-1.1,0.4-2.5-0.3-3.5C1459,836.8,1457.9,836.2,1456.6,836.2z"/>
		<path class="st0" d="M1517.2,836.2h-35.6c-2,0-3.7,1.7-3.7,3.7v6.4c0,2,1.7,3.7,3.7,3.7h10.8v54.9c0,2,1.7,3.7,3.7,3.7h6.6
			c2,0,3.7-1.7,3.7-3.7v-54.9h10.8c2,0,3.7-1.7,3.7-3.7v-6.4C1520.9,837.8,1519.2,836.2,1517.2,836.2z"/>
		<path class="st0" d="M775.2,960.1c3.9-2.2,8-3.3,12.6-3.3c4.2,0,8,0.8,11.4,2.5c3.4,1.6,6.4,4.1,8.8,7.3c1.2,1.6,3.6,1.9,5.2,0.7
			l5.1-3.9c1.6-1.2,1.9-3.5,0.8-5.1c-3.5-4.8-8-8.6-13.4-11.2c-5.4-2.6-11.4-4-18.1-4c-11,0-20.3,3.6-27.6,10.8
			c-7.4,7.2-11.1,16.1-11.1,26.6c0,9.9,3.1,18.5,9.2,25.6c7.3,8.4,17.3,12.6,29.7,12.6c6.5,0,12.5-1.3,17.8-3.7
			c5.3-2.5,9.9-6.1,13.5-10.6c0.6-0.8,0.9-1.8,0.8-2.8c-0.1-1-0.6-1.9-1.4-2.5l-5.1-3.9c-1.6-1.2-3.8-1-5,0.5
			c-5.4,6.3-12,9.4-20,9.4c-7.3,0-13.2-2.3-18-6.9c-4.7-4.6-7-10.2-7-17.2c0-4.6,1-8.6,3.1-12.3
			C768.5,965.1,771.4,962.2,775.2,960.1z"/>
		<path class="st0" d="M896.4,944.6h-7.1c-1.5,0-2.9,0.9-3.4,2.3l-14.7,36.2L855.1,947c-0.6-1.3-1.9-2.2-3.4-2.2h-7.3
			c-1.3,0-2.4,0.6-3.1,1.7c-0.7,1.1-0.8,2.4-0.3,3.5l23,50.7c-1.4,3.1-2.2,3.8-2.3,3.8c-0.6,0.4-1.3,0.7-2.2,0.7
			c-0.6,0-1.2-0.1-1.9-0.4c-0.2-0.1-1.4-0.8-5.4-4.7c-1.4-1.3-3.5-1.4-4.9-0.2l-4.7,3.9c-0.8,0.6-1.3,1.6-1.3,2.6
			c-0.1,1,0.3,2,0.9,2.7c3.6,4,6.6,6.5,9.2,7.7c2.6,1.2,5.3,1.8,8.2,1.8c7.4,0,12.8-3.6,15.6-10.5l24.7-58.3
			c0.5-1.1,0.4-2.5-0.3-3.5C898.8,945.2,897.7,944.6,896.4,944.6z"/>
		<path class="st0" d="M992,1001.5c-0.1-1-0.6-1.9-1.4-2.5l-5.1-3.9c-1.6-1.2-3.8-1-5,0.5c-5.4,6.3-12,9.4-20,9.4
			c-7.3,0-13.2-2.3-18-6.9c-4.7-4.6-7-10.2-7-17.2c0-4.6,1-8.6,3.1-12.3c2.1-3.6,5-6.5,8.9-8.6c3.9-2.2,8-3.3,12.6-3.3
			c4.2,0,8,0.8,11.4,2.5c3.4,1.6,6.4,4.1,8.8,7.3c1.2,1.6,3.6,1.9,5.2,0.7l5.1-3.9c1.6-1.2,1.9-3.5,0.8-5.1
			c-3.5-4.8-8-8.6-13.4-11.2c-5.4-2.6-11.4-4-18.1-4c-11,0-20.3,3.6-27.6,10.8c-7.4,7.2-11.1,16.1-11.1,26.6
			c0,9.9,3.1,18.5,9.2,25.5c0,0,0,0,0,0c7.3,8.4,17.3,12.6,29.7,12.6c6.5,0,12.5-1.3,17.8-3.7c5.4-2.5,9.9-6.1,13.5-10.6
			C991.9,1003.5,992.1,1002.5,992,1001.5z"/>
		<path class="st0" d="M1067.5,944.6h-46c-2,0-3.7,1.7-3.7,3.7v64.9c0,2,1.7,3.7,3.7,3.7h6.5c2,0,3.7-1.7,3.7-3.7v-55h25.7v55
			c0,2,1.7,3.7,3.7,3.7h6.5c2,0,3.7-1.7,3.7-3.7v-64.9C1071.2,946.3,1069.5,944.6,1067.5,944.6z"/>
		<path class="st0" d="M1109,944.6h-6.5c-2,0-3.7,1.7-3.7,3.7v64.9c0,2,1.7,3.7,3.7,3.7h6.5c2,0,3.7-1.7,3.7-3.7v-64.9
			C1112.7,946.3,1111,944.6,1109,944.6z"/>
		<path class="st0" d="M1200.3,1013.3c0-0.6-0.1-1.1-0.4-1.6l-27.8-64.8c-0.6-1.4-1.9-2.2-3.4-2.2h-1.4c-1.5,0-2.8,0.9-3.4,2.2
			l-28.3,64.9c-0.5,1.1-0.4,2.5,0.3,3.5c0.7,1,1.8,1.7,3.1,1.7h7.1c1.5,0,2.8-0.9,3.4-2.2l18.4-42.3l18.1,42.3
			c0.6,1.4,1.9,2.2,3.4,2.2h7.1l0,0C1198.6,1017,1200.3,1015.3,1200.3,1013.3z"/>
		<path class="st0" d="M1258.7,1015.4c4.2-1.2,7.7-3.6,10.4-7.3c2.7-3.7,4-8.2,4-13.6c0-5.5-1.4-10.1-4.2-13.7
			c-2.8-3.7-6.5-6-11.1-7c-4-0.9-10.3-1.3-19.1-1.3h-1v-24.1c0-2-1.7-3.7-3.7-3.7h-6.5c-2,0-3.7,1.7-3.7,3.7v64.9
			c0,2,1.7,3.7,3.7,3.7h12.9C1249,1017,1254.9,1016.5,1258.7,1015.4z M1241,1003.3h-3.2v-17.1h1.8c8.3,0,12,0.3,13.6,0.6
			c1.7,0.3,3,1.1,4.1,2.4c1.1,1.4,1.6,3.2,1.6,5.6c0,2.2-0.4,3.9-1.3,5.1c-0.8,1.2-1.9,2-3.4,2.4
			C1253.1,1002.7,1250,1003.3,1241,1003.3z"/>
		<path class="st0" d="M1338.3,1013.3c0,2,1.7,3.7,3.7,3.7h6.5c2,0,3.7-1.7,3.7-3.7v-64.9c0-2-1.7-3.7-3.7-3.7h-6.5
			c-2,0-3.7,1.7-3.7,3.7v23.5h-25.7v-23.5c0-2-1.7-3.7-3.7-3.7h-6.5c-2,0-3.7,1.7-3.7,3.7v64.9c0,2,1.7,3.7,3.7,3.7h6.5
			c2,0,3.7-1.7,3.7-3.7v-27.6h25.7V1013.3z"/>
		<path class="st0" d="M1386,1017c1.1,0,2.1-0.5,2.8-1.3l36.3-42.2v39.8c0,2,1.7,3.7,3.7,3.7h6.8c2,0,3.7-1.7,3.7-3.7v-64.9
			c0-2-1.7-3.7-3.7-3.7h-1.5c-1.1,0-2.1,0.5-2.8,1.3l-36.6,43v-40.6c0-2-1.7-3.7-3.7-3.7h-6.5c-2,0-3.7,1.7-3.7,3.7v64.9
			c0,2,1.7,3.7,3.7,3.7L1386,1017L1386,1017z"/>
		<path class="st0" d="M1499.3,979.7l18.2-29.4c0.7-1.1,0.7-2.6,0.1-3.7c-0.7-1.2-1.9-1.9-3.2-1.9h-7.5c-1.3,0-2.5,0.7-3.1,1.8
			l-12.5,20.2l-12.4-20.2c-0.7-1.1-1.9-1.8-3.1-1.8h-7.6c-1.3,0-2.6,0.7-3.2,1.9c-0.7,1.2-0.6,2.6,0.1,3.7l18.1,29.5l-19.5,31.6
			c-0.7,1.1-0.7,2.6-0.1,3.7c0.7,1.2,1.9,1.9,3.2,1.9h7.6c1.3,0,2.5-0.7,3.1-1.8l13.8-22.3l13.7,22.3c0.7,1.1,1.9,1.8,3.1,1.8h7.6
			c1.3,0,2.6-0.7,3.2-1.9c0.7-1.2,0.6-2.6-0.1-3.7L1499.3,979.7z"/>
		<path class="st0" d="M959.7,1053.1h-6.5c-2,0-3.7,1.7-3.7,3.7v64.9c0,2,1.7,3.7,3.7,3.7h6.5c2,0,3.7-1.7,3.7-3.7v-64.9
			C963.4,1054.8,961.7,1053.1,959.7,1053.1z"/>
		<path class="st0" d="M1040.6,1053.1h-6.5c-2,0-3.7,1.7-3.7,3.7v23.5h-25.7v-23.5c0-2-1.7-3.7-3.7-3.7h-6.5c-2,0-3.7,1.7-3.7,3.7
			v64.9c0,2,1.7,3.7,3.7,3.7h6.5c2,0,3.7-1.7,3.7-3.7v-27.6h25.7v27.6c0,2,1.7,3.7,3.7,3.7h6.5c2,0,3.7-1.7,3.7-3.7v-64.9
			C1044.3,1054.8,1042.7,1053.1,1040.6,1053.1z"/>
		<path class="st0" d="M1082.2,1053.1h-6.5c-2,0-3.7,1.7-3.7,3.7v64.9c0,2,1.7,3.7,3.7,3.7h6.5c2,0,3.7-1.7,3.7-3.7v-64.9
			C1085.9,1054.8,1084.2,1053.1,1082.2,1053.1z"/>
		<path class="st0" d="M1171.3,1111.9h-7.4v-55.1c0-2-1.7-3.7-3.7-3.7h-6.5c-2,0-3.7,1.7-3.7,3.7v55.1h-22.7v-55.1
			c0-2-1.7-3.7-3.7-3.7h-6.5c-2,0-3.7,1.7-3.7,3.7v64.9c0,2,1.7,3.7,3.7,3.7h44.4v6c0,2,1.7,3.7,3.7,3.7h6c2,0,3.7-1.7,3.7-3.7
			v-15.8C1175,1113.6,1173.3,1111.9,1171.3,1111.9z"/>
		<path class="st0" d="M1206.9,1053.1h-6.5c-2,0-3.7,1.7-3.7,3.7v64.9c0,2,1.7,3.7,3.7,3.7h6.5c2,0,3.7-1.7,3.7-3.7v-64.9
			C1210.6,1054.8,1208.9,1053.1,1206.9,1053.1z"/>
		<path class="st0" d="M1271.8,1055.2c-0.6-1.3-1.9-2.1-3.3-2.1h-1.6c-1.4,0-2.7,0.8-3.3,2.1l-30.7,64.9c-0.5,1.2-0.5,2.5,0.2,3.6
			c0.7,1.1,1.9,1.7,3.1,1.7h7.2c1.4,0,2.7-0.8,3.3-2.1l9.1-19.2h23.3l9.2,19.3c0.6,1.3,1.9,2.1,3.3,2.1h7l0,0c2,0,3.7-1.7,3.7-3.7
			c0-0.6-0.2-1.2-0.4-1.7L1271.8,1055.2z M1267.6,1079.3l5.2,11.1h-10.5L1267.6,1079.3z"/>
		<path class="st0" d="M1358.1,1053.1h-35.6c-2,0-3.7,1.7-3.7,3.7v6.4c0,2,1.7,3.7,3.7,3.7h10.8v54.9c0,2,1.7,3.7,3.7,3.7h6.6
			c2,0,3.7-1.7,3.7-3.7v-54.9h10.8c2,0,3.7-1.7,3.7-3.7v-6.4C1361.8,1054.8,1360.1,1053.1,1358.1,1053.1z"/>
		<path class="st0" d="M1438.7,1053.1h-1.5c-1.1,0-2.1,0.5-2.8,1.3l-36.6,43v-40.6c0-2-1.7-3.7-3.7-3.7h-6.5c-2,0-3.7,1.7-3.7,3.7
			v64.9c0,2,1.7,3.7,3.7,3.7h1.5c1.1,0,2.1-0.5,2.8-1.3l36.3-42.2v39.8c0,2,1.7,3.7,3.7,3.7h6.8c2,0,3.7-1.7,3.7-3.7v-64.9
			C1442.4,1054.8,1440.7,1053.1,1438.7,1053.1z"/>
		<path class="st0" d="M1510.3,1087.5c-0.9-0.8-1.9-1.4-3-2.1c0.8-0.9,1.6-1.9,2.2-3c1.7-2.9,2.6-6.2,2.6-9.8c0-3.8-1-7.3-3-10.4
			c-2-3.1-4.7-5.5-8.2-7c-3.3-1.4-7.7-2.2-13.4-2.2h-12.8c-2,0-3.7,1.7-3.7,3.7v64.9c0,2,1.7,3.7,3.7,3.7h17.8
			c7.4,0,13.4-2.2,17.9-6.4c4.6-4.3,6.9-9.7,6.9-15.9c0-3.1-0.6-6-1.9-8.7C1514.3,1091.8,1512.6,1089.4,1510.3,1087.5z M1498,1072.7
			c0,1.5-0.4,2.7-1.2,3.9c-0.8,1.2-1.9,2.1-3.3,2.6c-1.2,0.5-3.6,1-8.6,1h0v-13.4h3.8c4.5,0,6.6,0.9,7.6,1.7
			C1497.5,1069.6,1498,1070.8,1498,1072.7z M1484.9,1111.7v-17.5c6.4,0,9.3,0.4,10.6,0.7c2.6,0.6,4.5,1.7,5.9,3.3
			c1.3,1.5,1.9,3.1,1.9,5.1c0,1.6-0.4,3-1.4,4.3c-0.9,1.4-2.2,2.4-3.7,3c-1.2,0.5-3.7,1.1-9,1.1L1484.9,1111.7L1484.9,1111.7z"/>
	</g>
</g>
</svg>
