<?xml version="1.0" encoding="utf-8"?>
<!-- Generator: Adobe Illustrator 22.0.1, SVG Export Plug-In . SVG Version: 6.00 Build 0)  -->
<svg version="1.1" id="Layer_1" xmlns="http://www.w3.org/2000/svg" xmlns:xlink="http://www.w3.org/1999/xlink" x="0px" y="0px"
	 viewBox="0 0 226.8 226.8" style="enable-background:new 0 0 226.8 226.8;" xml:space="preserve">
<style type="text/css">
	.st0{fill:#CB2128;}
</style>
<g>
	<path class="st0" d="M67.2,87.1h9.4v31.5c0,10.5-5.4,15.5-15.2,15.5c-3.4,0-7.2-0.9-9.8-2.3l2.7-7.7c1.7,1,4.2,1.8,6.3,1.8
		c4.1,0,6.6-2.3,6.6-7.7V87.1z"/>
	<path class="st0" d="M89.7,120.4c3,3.2,7.2,5.7,11.5,5.7c4.5,0,7.7-2.2,7.7-5.6c0-3.1-1.9-5.6-9.4-7.2c-9.3-1.9-14.2-6.7-14.2-13.6
		c0-7.8,6.4-13.3,15.4-13.3c6.2,0,11.5,2.2,15.3,5.9l-5.1,6.6c-2.9-2.5-6.1-4.5-9.8-4.5c-3.6,0-6.3,1.9-6.3,4.7
		c0,3.1,2.3,5.3,8.8,6.8c10.3,2.4,14.7,7.2,14.7,14.5c0,8.1-6.4,13.9-17,13.9c-6.7,0-13-2.8-17-7.4L89.7,120.4z"/>
	<path class="st0" d="M123.3,110.2c0-13.5,10.8-23.9,24.8-23.9c6.1,0,11.5,1.9,15.9,5.4l-4.7,7c-3.3-2.3-6.6-4.1-11.1-4.1
		c-8.6,0-15.3,6.8-15.3,15.7c0,8.9,6.7,15.7,15.3,15.7c4.3,0,8.4-1.9,11.5-4.5l5,6.9c-4.4,3.6-10.1,5.7-16.4,5.7
		C134,134.1,123.3,123.7,123.3,110.2z"/>
</g>
</svg>
