<?xml version="1.0" encoding="utf-8"?>
<!-- Generator: Adobe Illustrator 22.0.1, SVG Export Plug-In . SVG Version: 6.00 Build 0)  -->
<svg version="1.1" id="Layer_1" xmlns="http://www.w3.org/2000/svg" xmlns:xlink="http://www.w3.org/1999/xlink" x="0px" y="0px"
	 viewBox="0 0 226.8 226.8" style="enable-background:new 0 0 226.8 226.8;" xml:space="preserve">
<style type="text/css">
	.st0{fill:#808183;}
	.st1{fill-rule:evenodd;clip-rule:evenodd;fill:#808183;}
	.st2{fill-rule:evenodd;clip-rule:evenodd;}
	.st3{fill-rule:evenodd;clip-rule:evenodd;fill:#0D5394;stroke:#000202;stroke-width:0.2835;stroke-miterlimit:22.9256;}
	.st4{fill-rule:evenodd;clip-rule:evenodd;fill:#F5D831;stroke:#000202;stroke-width:0.216;stroke-miterlimit:22.9256;}
</style>
<g>
	<path class="st0" d="M65,185l0.9-0.7c0.2,0.2,0.4,0.3,0.5,0.4c0.1,0.1,0.1,0.3,0.1,0.6l1.1-1c0.4,0.3,0.6,0.5,0.8,0.7
		c0.1,0.1,0.1,0.3,0.1,0.6v2.4c-0.4,0.2-0.8,0.5-1.3,0.9c-0.2-0.1-0.4-0.2-0.7-0.4v0.3c0,0.4,0,0.6,0.1,0.8c0.1,0.2,0.2,0.3,0.4,0.4
		l-0.1,0.1c-0.3-0.1-0.6-0.2-0.7-0.3c-0.1-0.1-0.2-0.2-0.3-0.3c-0.2,0.2-0.4,0.3-0.6,0.4l-0.1-0.1c0.1-0.1,0.2-0.2,0.3-0.4
		c0.1-0.1,0.1-0.3,0.1-0.5v-0.6c-0.2,0-0.3,0-0.5,0c0,0,0,0-0.1,0v-0.4c0.2,0,0.4-0.1,0.6-0.1v-2.2c0-0.2,0-0.4-0.1-0.5
		c-0.1-0.1-0.1-0.1-0.2-0.1c-0.1,0-0.1,0-0.2,0.1L65,185z M66.5,185.6v2.2c0.3,0.1,0.6,0.1,0.7,0.2c0.1,0,0.3,0.1,0.4,0.2v-2.4
		c0-0.1,0-0.2,0-0.2s-0.1-0.1-0.1-0.1c-0.2-0.1-0.3-0.2-0.4-0.3L66.5,185.6z"/>
	<path class="st0" d="M73.9,184.3l0.7,0.8l-0.7,0.6l-0.5-0.7l-0.4,0.4v2.5l0.5,0.4l0.4-0.3l0.1,0.1l-1.1,0.9
		c-0.2-0.2-0.4-0.4-0.6-0.5c-0.2-0.1-0.3-0.2-0.5-0.2v-0.1c0.1-0.1,0.2-0.2,0.2-0.3c0-0.1,0.1-0.3,0.1-0.5v-1.8c0-0.2,0-0.4-0.1-0.4
		s-0.1-0.1-0.2-0.1c-0.1,0-0.2,0.1-0.3,0.2l-0.1-0.1l0.9-0.8c0.2,0.2,0.4,0.4,0.5,0.5c0.1,0.1,0.1,0.2,0.1,0.4L73.9,184.3z"/>
	<path class="st0" d="M78.1,184.3l0.8,0.6l-0.3,0.3v2.4c0,0.2,0,0.4,0.1,0.5c0,0.1,0.1,0.1,0.1,0.1c0,0,0.1,0,0.1,0
		c0,0,0.1-0.1,0.2-0.2l0.1,0.1l-0.9,0.8c-0.2-0.2-0.4-0.3-0.4-0.5c-0.1-0.1-0.1-0.4-0.1-0.8v-2.4l-0.3-0.3L78.1,184.3z M78.4,182.9
		h0.5l-0.6,0.9h-0.2L78.4,182.9z"/>
	<path class="st0" d="M87.7,184.6l0.1,0.1c-0.2,0.1-0.3,0.3-0.3,0.3c-0.1,0.1-0.1,0.2-0.1,0.3c0,0.1,0,0.3,0,0.5v1.8
		c0,0.2,0,0.4,0.1,0.5c0,0.1,0.1,0.1,0.1,0.1c0.1,0,0.2-0.1,0.3-0.2l0.1,0.1l-0.9,0.8c-0.2-0.2-0.4-0.3-0.4-0.4
		c-0.1-0.2-0.1-0.3-0.1-0.5v-2.6L86,185l-0.7,0.6v2.3l0.3,0.3l-0.8,0.6l-0.8-0.6l0.3-0.3v-2.1c0-0.3,0-0.4-0.1-0.5
		c-0.1-0.1-0.2-0.2-0.4-0.4l-0.7,0.6v2.4l0.3,0.3l-0.8,0.6l-0.8-0.6l0.3-0.3v-2.3c0-0.2,0-0.4-0.1-0.5c0-0.1-0.1-0.1-0.1-0.1
		c0,0-0.1,0.1-0.3,0.2l-0.1-0.1l0.9-0.8c0.2,0.1,0.3,0.3,0.4,0.3c0.1,0.1,0.1,0.2,0.1,0.3c0,0.1,0,0.2,0,0.4l1.3-1.1
		c0.3,0.2,0.5,0.4,0.6,0.6c0.1,0.1,0.1,0.3,0.2,0.6l1.2-1.1l0.7,0.7L87.7,184.6z"/>
	<path class="st0" d="M93.7,184.3l0.8,0.6l-0.3,0.3v2.3c0,0.3,0,0.4,0.1,0.6c0,0.1,0.1,0.1,0.2,0.1c0,0,0.1,0,0.2-0.1l0.1,0.1
		l-0.9,0.7c-0.2-0.2-0.4-0.3-0.4-0.4c-0.1-0.1-0.1-0.3-0.1-0.6c-0.4,0.3-0.9,0.6-1.4,1c-0.3-0.2-0.5-0.4-0.5-0.6
		c-0.1-0.2-0.1-0.4-0.1-0.7v-2.1c0-0.1,0-0.2,0-0.3c0-0.1-0.1-0.1-0.2-0.1c-0.1,0-0.2,0-0.3,0.1l-0.1-0.1l1-0.8l0.8,0.6l-0.3,0.3
		v2.3c0,0.2,0,0.3,0.1,0.4c0,0.1,0.1,0.2,0.3,0.3l0.8-0.6v-2.4l-0.3-0.3L93.7,184.3z"/>
	<path class="st0" d="M99.7,185.9l1,0.5v1.8c-0.2,0-0.5,0.1-0.7,0.2c-0.2,0.1-0.4,0.3-0.7,0.5c-0.2-0.1-0.4-0.2-0.6-0.3
		s-0.3-0.1-0.5-0.1c-0.3,0-0.5,0.1-0.7,0.2c-0.1,0.1-0.1,0.1-0.2,0.1c0,0-0.1,0-0.1,0c0,0,0-0.1,0-0.1c0,0,0-0.1,0.1-0.1
		c0,0,0.1-0.1,0.2-0.2L98,188l0.6-0.7l-0.9-0.5v-1.6c0.3-0.1,0.5-0.2,0.7-0.3c0.2-0.1,0.3-0.3,0.5-0.5c0.4,0.2,0.7,0.3,0.9,0.3
		c0.2,0,0.3,0.1,0.5,0.1c0.2,0,0.3,0,0.4-0.1c0.1-0.1,0.1-0.1,0.1-0.2c0-0.1,0-0.1-0.1-0.2c-0.1-0.1-0.2-0.2-0.2-0.3
		c0-0.1,0-0.2,0.1-0.2c0-0.1,0.1-0.1,0.2-0.1c0.1,0,0.2,0,0.2,0.1c0.1,0.1,0.1,0.2,0.1,0.3c0,0.1,0,0.2-0.1,0.4
		c-0.1,0.1-0.2,0.3-0.3,0.5L99.7,185.9z M99.2,186.6l-1,1.4c0.1,0,0.2-0.1,0.4-0.1c0.1,0,0.2,0,0.3,0c0.3,0,0.7,0.1,1,0.3V187
		L99.2,186.6z M98.4,186.2l0.6,0.3l0.9-1.3c-0.2,0.1-0.4,0.1-0.5,0.1c-0.4,0-0.7-0.1-1-0.4V186.2z"/>
	<path class="st0" d="M106.8,184.3l0.8,0.6l-0.3,0.3v2.4c0,0.2,0,0.4,0.1,0.5c0,0.1,0.1,0.1,0.1,0.1c0,0,0.1,0,0.1,0
		c0,0,0.1-0.1,0.2-0.2l0.1,0.1l-0.9,0.8c-0.2-0.2-0.4-0.3-0.4-0.5c-0.1-0.1-0.1-0.4-0.1-0.8v-2.4L106,185L106.8,184.3z M107.1,182.9
		h0.5l-0.6,0.9h-0.2L107.1,182.9z"/>
	<path class="st0" d="M113.4,184.3l0.6,0.6l0.4-0.4l0.1,0.1c-0.2,0.2-0.3,0.3-0.4,0.4c-0.1,0.1-0.1,0.3-0.1,0.5v2.1
		c0,0.2,0,0.3,0.1,0.4c0,0.1,0.1,0.1,0.1,0.1c0,0,0.1-0.1,0.3-0.2l0.1,0.1l-0.9,0.8c-0.2-0.2-0.4-0.3-0.5-0.5s-0.1-0.4-0.1-0.7v-2.4
		l-0.4-0.4l-0.7,0.6v2.4l0.3,0.3l-0.8,0.6l-0.8-0.6l0.3-0.3v-2.2c0-0.3,0-0.5-0.1-0.6c0-0.1-0.1-0.1-0.1-0.1c-0.1,0-0.1,0.1-0.3,0.2
		l-0.1-0.1l0.9-0.8c0.3,0.2,0.4,0.3,0.5,0.4s0.1,0.3,0.1,0.5v0.2L113.4,184.3z"/>
	<path class="st0" d="M117.4,184.8l1.2-1.5h0.1l0,1.2h0.9v0.5h-0.9v2.9l0.5,0.4l0.3-0.2l0.1,0.1l-1,0.8c-0.3-0.3-0.7-0.6-1.1-0.7
		v-0.1c0.1-0.1,0.2-0.2,0.2-0.2c0-0.1,0.1-0.3,0.1-0.5V185h-0.4V184.8z"/>
	<path class="st0" d="M124.1,184.3l1.2,1.4l-1.9,1.4v0.8l1,0.4l0.7-0.5l0.1,0.1l-1.4,1c-0.3-0.2-0.5-0.3-0.7-0.3s-0.4-0.1-0.8-0.2
		v-0.1c0.1-0.1,0.2-0.1,0.2-0.2s0-0.3,0-0.6v-2.5c0.3-0.1,0.5-0.2,0.7-0.3C123.3,184.7,123.6,184.6,124.1,184.3z M123.5,184.8
		L123.5,184.8l-0.1,2l1.1-0.8L123.5,184.8z"/>
	<path class="st0" d="M130.4,184.3l0.7,0.8l-0.7,0.6l-0.5-0.7l-0.4,0.4v2.5l0.5,0.4l0.4-0.3l0.1,0.1l-1.1,0.9
		c-0.2-0.2-0.4-0.4-0.6-0.5c-0.2-0.1-0.3-0.2-0.5-0.2v-0.1c0.1-0.1,0.2-0.2,0.2-0.3c0-0.1,0.1-0.3,0.1-0.5v-1.8c0-0.2,0-0.4-0.1-0.4
		c0-0.1-0.1-0.1-0.2-0.1c-0.1,0-0.2,0.1-0.3,0.2l-0.1-0.1l0.9-0.8c0.2,0.2,0.4,0.4,0.5,0.5c0.1,0.1,0.1,0.2,0.1,0.4L130.4,184.3z"/>
	<path class="st0" d="M135.8,185l0.9-0.7c0.2,0.2,0.4,0.3,0.5,0.4c0.1,0.1,0.1,0.3,0.1,0.6l1.1-1c0.4,0.3,0.6,0.5,0.8,0.7
		c0.1,0.1,0.1,0.3,0.1,0.6v2.4c-0.4,0.2-0.8,0.5-1.3,0.9c-0.2-0.1-0.4-0.2-0.7-0.4v0.3c0,0.4,0,0.6,0.1,0.8c0.1,0.2,0.2,0.3,0.4,0.4
		l-0.1,0.1c-0.3-0.1-0.6-0.2-0.7-0.3c-0.1-0.1-0.2-0.2-0.3-0.3c-0.2,0.2-0.4,0.3-0.6,0.4l-0.1-0.1c0.1-0.1,0.2-0.2,0.3-0.4
		c0-0.1,0.1-0.3,0.1-0.5v-0.6c-0.2,0-0.3,0-0.5,0c0,0,0,0-0.1,0v-0.4c0.2,0,0.4-0.1,0.6-0.1v-2.2c0-0.2,0-0.4-0.1-0.5
		s-0.1-0.1-0.2-0.1c-0.1,0-0.1,0-0.2,0.1L135.8,185z M137.3,185.6v2.2c0.3,0.1,0.6,0.1,0.7,0.2c0.1,0,0.3,0.1,0.4,0.2v-2.4
		c0-0.1,0-0.2,0-0.2s-0.1-0.1-0.1-0.1c-0.2-0.1-0.3-0.2-0.4-0.3L137.3,185.6z"/>
	<path class="st0" d="M145.3,184.5l0.2,0.1c-0.2,0.2-0.3,0.4-0.3,0.6s-0.1,0.3-0.1,0.5v1.8c0,0.3,0,0.5,0.1,0.6
		c0,0.1,0.1,0.1,0.2,0.1c0,0,0.1,0,0.1,0c0,0,0.1-0.1,0.2-0.1l0.1,0.1l-0.9,0.8c-0.2-0.2-0.4-0.3-0.4-0.5c-0.1-0.1-0.1-0.3-0.1-0.6
		l-1.3,1c-0.5-0.4-0.7-0.8-0.7-1.2c0-0.3,0.1-0.5,0.2-0.7c0.1-0.3,0.4-0.7,0.7-1.1l-0.5-1.1l0.1-0.1c0.1,0,0.2,0,0.3,0
		c0.3,0,0.6-0.1,0.9-0.4c0.2,0.1,0.4,0.2,0.7,0.3c0.2,0.1,0.4,0.1,0.6,0.1c0.1,0,0.1,0,0.1,0C145.2,184.7,145.3,184.6,145.3,184.5z
		 M144.2,185.3l-1.5-0.5l0.5,1.1l1,0.4V185.3z M144.2,186.6l-1-0.5c-0.2,0.4-0.2,0.7-0.2,0.9c0,0.5,0.2,0.9,0.6,1.2l0.7-0.5V186.6z"
		/>
	<path class="st0" d="M150.9,184.3l0.7,0.8l-0.7,0.6l-0.5-0.7l-0.4,0.4v2.5l0.5,0.4l0.4-0.3l0.1,0.1l-1.1,0.9
		c-0.2-0.2-0.4-0.4-0.6-0.5c-0.2-0.1-0.3-0.2-0.5-0.2v-0.1c0.1-0.1,0.2-0.2,0.2-0.3c0-0.1,0.1-0.3,0.1-0.5v-1.8c0-0.2,0-0.4-0.1-0.4
		c0-0.1-0.1-0.1-0.2-0.1c-0.1,0-0.2,0.1-0.3,0.2l-0.1-0.1l0.9-0.8c0.2,0.2,0.4,0.4,0.5,0.5c0.1,0.1,0.1,0.2,0.1,0.4L150.9,184.3z"/>
	<path class="st0" d="M156.1,184.3l1.2,1.4l-1.9,1.4v0.8l1,0.4l0.7-0.5l0.1,0.1l-1.4,1c-0.3-0.2-0.5-0.3-0.7-0.3s-0.4-0.1-0.8-0.2
		v-0.1c0.1-0.1,0.2-0.1,0.2-0.2s0-0.3,0-0.6v-2.5c0.3-0.1,0.5-0.2,0.7-0.3C155.3,184.7,155.6,184.6,156.1,184.3z M155.5,184.8
		L155.5,184.8l-0.1,2l1.1-0.8L155.5,184.8z"/>
</g>
<g>
	<path class="st0" d="M162.2,185.9l1,0.5v1.8c-0.2,0-0.5,0.1-0.7,0.2c-0.2,0.1-0.4,0.3-0.7,0.5c-0.2-0.1-0.4-0.2-0.6-0.3
		s-0.3-0.1-0.5-0.1c-0.3,0-0.5,0.1-0.7,0.2c-0.1,0.1-0.1,0.1-0.2,0.1c0,0-0.1,0-0.1,0c0,0,0-0.1,0-0.1c0,0,0-0.1,0.1-0.1
		c0,0,0.1-0.1,0.2-0.2l0.4-0.5l0.6-0.7l-0.9-0.5v-1.6c0.3-0.1,0.5-0.2,0.7-0.3c0.2-0.1,0.3-0.3,0.5-0.5c0.4,0.2,0.7,0.3,0.9,0.3
		c0.2,0,0.3,0.1,0.5,0.1c0.2,0,0.3,0,0.4-0.1c0.1-0.1,0.1-0.1,0.1-0.2c0-0.1,0-0.1-0.1-0.2c-0.1-0.1-0.2-0.2-0.2-0.3
		c0-0.1,0-0.2,0.1-0.2c0-0.1,0.1-0.1,0.2-0.1c0.1,0,0.2,0,0.2,0.1c0.1,0.1,0.1,0.2,0.1,0.3c0,0.1,0,0.2-0.1,0.4
		c-0.1,0.1-0.2,0.3-0.3,0.5L162.2,185.9z M161.7,186.6l-1,1.4c0.1,0,0.2-0.1,0.4-0.1c0.1,0,0.2,0,0.3,0c0.3,0,0.7,0.1,1,0.3V187
		L161.7,186.6z M160.9,186.2l0.6,0.3l0.9-1.3c-0.2,0.1-0.4,0.1-0.5,0.1c-0.4,0-0.7-0.1-1-0.4V186.2z"/>
</g>
<path class="st1" d="M113.3,56.2c0.2,0,0.3,0.1,0.3,0.3c-0.1,0.2,0.1,0.3,0.3,0.3c-0.8,0.5-0.6,0.3-0.8,1.1c-0.6,0-1.3,0-1.9,0
	c0-0.5,0-1.1,0-1.6C111.5,57.5,113.5,56.9,113.3,56.2L113.3,56.2z"/>
<path class="st1" d="M109.1,59.4c0.5,0,0.9,0,1.3,0c-0.2,0.6-0.8,0.8-1.6,0.8C109,60,109.1,59.8,109.1,59.4L109.1,59.4z"/>
<path class="st1" d="M108.8,62.1c0.3,0.5-1.8,1-1.9-0.3c1,0.2,1.7-0.7,2.4,0C109.3,62.1,108.9,62.5,108.8,62.1L108.8,62.1z"/>
<path class="st1" d="M116.1,65.3c0.7,0.5-0.2,1.6-1.1,1.3C114.9,65.8,116.2,66.7,116.1,65.3L116.1,65.3z"/>
<path class="st1" d="M110.7,69.9c0.2,0.2,0.6,0.3,1.1,0.3c0,0.4,0,0.7,0,1.1C111.3,70.9,110.7,70.7,110.7,69.9L110.7,69.9z"/>
<path class="st1" d="M144.1,71.8c0-0.5,0.7-0.3,0.5-1.1c0.4,0.9,2,1.2,1.3,2.4C144.8,72.8,146.1,71.5,144.1,71.8L144.1,71.8z"/>
<path class="st1" d="M71.9,83.1c0.5,0.1,0,0.6,0,0.5C72.1,86.8,71.2,85.9,71.9,83.1L71.9,83.1z"/>
<path class="st1" d="M72.7,86.1c0.6-0.3,0.1,2.7,0.3,3.8C72.4,90.1,72.8,87.1,72.7,86.1L72.7,86.1z"/>
<path class="st1" d="M74.6,86.9c0.6,0.1,0.1,3.6,0.3,5.1C74.3,91.9,74.7,88.4,74.6,86.9L74.6,86.9z"/>
<path class="st1" d="M100.5,93.4c0.1-1,2-0.4,1.9-1.6c1.2,0.4,0.1,1.9-0.8,1.9C102.5,92.3,101.7,93.4,100.5,93.4L100.5,93.4z"/>
<path class="st1" d="M110.2,99c-0.4,0.7-1,1.1-1.9,1.3C108.8,99.8,109.1,99.1,110.2,99L110.2,99z"/>
<path class="st1" d="M154.4,109.8c-0.3-0.5-1.7,0.3-1.9-0.8c1.1,0.2,1.4,0.2,2.4,0C154.7,109.3,154.3,109.3,154.4,109.8L154.4,109.8
	z"/>
<path class="st1" d="M106.7,112c1.3,0.4-0.7,1.9-0.3,3.2C105.6,114.3,106.8,113.1,106.7,112L106.7,112z"/>
<path class="st1" d="M106.9,116.5c-0.8-1.3,0.4-3,0.5-4.3C108.1,113.4,106.7,114.9,106.9,116.5L106.9,116.5z"/>
<path class="st1" d="M137.1,112.2c1.3,0.7-0.3,2.1-0.3,3.2C136,114.5,137.4,113.5,137.1,112.2L137.1,112.2z"/>
<path class="st1" d="M114.2,112.5c-0.1,0.7-0.8,0.8-0.8,1.6C112.8,113.7,113.4,112.4,114.2,112.5L114.2,112.5z"/>
<path class="st1" d="M118.8,114.9c-0.7-0.4,0.5-1.3,0.5-1.9C120,113.5,118.8,114.3,118.8,114.9L118.8,114.9z"/>
<path class="st1" d="M108.5,113.6c0.4,0.4,0.6,1.1,0.5,1.9c-0.3,0.9-0.5-2.1-0.5,0C107.7,115.1,108.8,114.3,108.5,113.6L108.5,113.6
	z"/>
<path class="st1" d="M153,121.4c-0.9,0.8-1.9-0.8-2.7-1.1C151.1,119.8,151.9,121.4,153,121.4L153,121.4z"/>
<path class="st1" d="M153.6,123c-1.6-0.4-2.3-1.7-3.8-2.2C151,120.6,152.7,122.1,153.6,123L153.6,123z"/>
<path class="st1" d="M160,123c-0.5-0.4-1.3-0.7-1.3-1.6C159.2,121.8,159.9,122.1,160,123L160,123z"/>
<path class="st1" d="M130.9,121.7c-0.2,0.7-1.4,1.4-1.9,1.1C129.7,122.4,129.8,121.6,130.9,121.7L130.9,121.7z"/>
<path class="st1" d="M99.7,128.7c0.3,0.2,0.7,0.4,1.3,0.3c0,0.3,0.1,0.5,0.3,0.5C101.1,129.9,99.5,129.5,99.7,128.7L99.7,128.7z"/>
<path class="st1" d="M109.6,136.5c1.2,0.2,0.4,1.7,1.3,1.6c-0.3,0.8-0.6,0.1-1.3,0.5C109.2,137.8,109.7,137.6,109.6,136.5
	L109.6,136.5z"/>
<path class="st1" d="M115.6,143.2c-0.5-0.5-1.9-0.1-1.9-1.1C114.5,142.2,115.4,142.4,115.6,143.2L115.6,143.2z"/>
<path class="st1" d="M98.6,142.4c-0.1,0-2.5,1.1-3.2,0.5C96.1,142.5,97.3,142.4,98.6,142.4L98.6,142.4z"/>
<path class="st1" d="M100.7,143.2c0.5-0.5,1.4,0.8,2.7,0.3c0.1,0.4-0.3,0.5-0.3,0.8c3.3,0.5,7.1,6.1,9.7,1.6c-1.3,5-6.5-0.1-8.9-1.1
	c-0.7-0.3-1.4-0.1-1.6-0.3c-0.2-0.1,0.5-0.4,0.5-0.3C102.6,143.6,100.5,143.7,100.7,143.2L100.7,143.2z"/>
<path class="st1" d="M159.5,143.5c0.6,0.5-0.4,1.6,0.3,2.4C158.8,145.7,159.3,144.1,159.5,143.5L159.5,143.5z"/>
<path class="st1" d="M113.9,145.9c-0.2,0.9-0.1,2-1.1,2.2C113.3,147.4,113.1,146.1,113.9,145.9L113.9,145.9z"/>
<path class="st1" d="M114.2,146.2c1.5,0.3-0.3,1.3,0,2.2C113,148,114.6,147.3,114.2,146.2L114.2,146.2z"/>
<path class="st1" d="M127.7,146.2c-0.5,0.6,0.4,1.4,0.8,1.9C127.9,148.9,125.9,146.1,127.7,146.2L127.7,146.2z"/>
<path class="st1" d="M115,146.5c1.2,0.1,0.3,2.1-0.5,1.9C114.4,147.5,115.3,147.6,115,146.5L115,146.5z"/>
<path class="st1" d="M116.1,146.5c1.2,0.1,0.2,2-0.5,1.9C115.5,147.5,116.4,147.6,116.1,146.5L116.1,146.5z"/>
<path class="st1" d="M116.6,148.3c0.4-0.6,0.2-1.7,1.1-1.9C117.6,147.3,117.5,148.2,116.6,148.3L116.6,148.3z"/>
<path class="st1" d="M109.4,146.7c0.5-0.1,1.3,0.8,1.6,0C111.8,147.4,109.3,147.9,109.4,146.7L109.4,146.7z"/>
<path class="st1" d="M92.9,148.6c0.6,0.1,1.1,0.3,1.6,0.5C94.3,149.7,92.7,149.4,92.9,148.6L92.9,148.6z"/>
<path class="st1" d="M93.5,150.2c0.4-0.5,2.1,0,2.2,0.8C94.8,150.9,94.1,150.6,93.5,150.2L93.5,150.2z"/>
<path class="st1" d="M94.3,151c0.7,0.6,1.9,0.6,2.7,1.1C97,152.9,94.1,152.2,94.3,151L94.3,151z"/>
<path class="st1" d="M95.1,152.4c1.1,0.8,3.4,0.4,3.8,1.9C97.9,153.4,95.4,153.9,95.1,152.4L95.1,152.4z"/>
<path class="st1" d="M99.7,155.3c-1.1-0.2-2.5-0.4-3.8-1.1C96.2,153.6,99.1,154.5,99.7,155.3L99.7,155.3z"/>
<path class="st1" d="M72.4,155.3c1-0.1,0.9,4.2,0.5,2.2C72.9,156.6,72.4,156.3,72.4,155.3L72.4,155.3z"/>
<path class="st1" d="M96.7,155.6c0.8-0.3,3.2,0.2,3.8,1.1C99,156.5,97.6,156.3,96.7,155.6L96.7,155.6z"/>
<path class="st1" d="M158.4,156.7c0.8,0.4-0.6,0.9-0.5,1.3c0.4-0.3,1-0.3,1.1-0.8c0.7,1-0.7,2.4-2.4,2.4c0.4-0.6,1.3-0.7,1.9-1.1
	c0.1-0.8-0.8,0.7-0.8-0.3c-0.2,0.5,0,0.6-1.1,0.3C157.2,158,158,157.5,158.4,156.7L158.4,156.7z"/>
<path class="st1" d="M97.5,157.2c0.9-0.2,3.4,0.2,4,1.1C100.1,158,98.4,158,97.5,157.2L97.5,157.2z"/>
<path class="st1" d="M98.6,158.6c0.7-0.3,3.3-0.3,3.5,0.8C101.1,159.2,99.6,159.3,98.6,158.6L98.6,158.6z"/>
<path class="st1" d="M153.6,158.8c0.4,0.5,1.3,0.5,1.9,0.8C155.3,159.9,153.2,160,153.6,158.8L153.6,158.8z"/>
<path class="st1" d="M99.4,159.4c0.9,0.5,2.1,0.8,3.2,1.1C101.7,161,99.5,160.6,99.4,159.4L99.4,159.4z"/>
<path class="st1" d="M70,160.5c1.5,0.9-0.5,1.1,0.3,1.9c-0.4-0.3-0.7-0.3-0.8,0.3C68.7,162,70.4,161.6,70,160.5L70,160.5z"/>
<path class="st1" d="M155.4,160.5c-0.2,0.2-0.3,0.5,0,0.5c-0.1,0.6-1.2,0.2-1.3,0C154.3,160.6,155,160.6,155.4,160.5L155.4,160.5z"
	/>
<path class="st1" d="M99.9,161c1.3,0.4,3,0.4,3.8,1.3C102.3,162.1,100.4,162.3,99.9,161L99.9,161z"/>
<path class="st1" d="M75.1,162.1c0.4,0.1,0.6,2.2-0.3,1.9C74.7,163.1,75.3,163,75.1,162.1L75.1,162.1z"/>
<path class="st1" d="M101.3,162.4c0.8,0.6,2,0.9,3.2,1.1C104.1,164.3,101.2,163.7,101.3,162.4L101.3,162.4z"/>
<path class="st1" d="M161.6,164.5c-0.7,0.7-1.3-0.8-2.4-0.5C160,163.2,161,164.4,161.6,164.5L161.6,164.5z"/>
<path class="st1" d="M102.1,164c1.3,0.6,2,0.2,3,0.8C104.9,165.5,102.2,165,102.1,164L102.1,164z"/>
<path class="st1" d="M153.3,164.5c0.3-0.3,2.2-0.1,2.2,0.8C154.8,165,153.8,165,153.3,164.5L153.3,164.5z"/>
<path class="st1" d="M103.7,165.9c0.6,0.1,2,0.7,2.2,0.3C106.9,167.2,103.6,166.9,103.7,165.9L103.7,165.9z"/>
<path class="st1" d="M105.6,167.5c0.8,0.1,1.8,0.2,2.4,0.5C107.6,168.5,105.4,168.5,105.6,167.5L105.6,167.5z"/>
<path class="st1" d="M110.2,169.4c-0.4,0.7-1.9,0.1-2.4,0C107.9,168.4,109.3,169.3,110.2,169.4L110.2,169.4z"/>
<path class="st1" d="M150,171c-0.7-0.5,0.5-1-0.8-0.5c0.4-0.5,1-0.8,1.1-1.6c0.3,0.2,0.3,0.6,0.8,0.5
	C151.2,170.3,150.2,170.2,150,171L150,171z"/>
<path class="st1" d="M111,170.4c0.7,0,1.3,0,1.6,0.3C112.6,171.1,110.6,171.3,111,170.4L111,170.4z"/>
<path class="st1" d="M107.7,49.2c1-4-0.1-9.3-1.9-12.1c0.6,0.2,2.5,2,1.3,0.8c2.3,0.5,5.6,5,3.2,8.6c0.8,1.4,0.3,2.3,0.5,4.3
	c2.3,0.2,0.3-7.8,1.3-8.9c0,0,0.6,3.8,0.3,4.9c1.1-1.3,0.2-6.1,0.5-8.1c1.8,2.1,3.7,4.3,3.5,7.3c-0.1,1.5-1.4,2.2-1.9,3.5
	c-0.6,1.7,0.3,3.4-1.1,4.3c2-0.6,3.7-7.1,4.3-9.4c0.3-1.3,0-2,0.3-0.3c-0.5,3.3-1.7,5.8-2.7,8.6c1.9-2.4,4.3-5.7,3.8-9.7
	c1.7,0.4,4.6,5.5,1.3,6.7c0.5,2.3-1.6,3.9-2.2,5.9c1.8-0.9,3.3-4.3,4.3-6.7c0,2.3-2.1,4.9-3.5,6.7c2.1-0.4,3.6-3.7,4.9-5.9
	c0.6,1.8,0.9,7.8-2.4,7.5c-0.3,0.9-1.2,1.2-1.3,2.2c1.8,0.4,2.6-2.4,4.3-3c-1,1.5-2.4,2.7-3.8,3.8c2.3-0.6,3.8-2,5.1-3.5
	c0.2,1.1-0.9,3.1-0.8,4.9c-1.6,0.7-2.8,1.9-5.4,1.6c1.2,0.6,3.5,0.1,5.1,0.3c-0.8,0.9-2.8,0.4-4.3,0.5c1.3,1.5,3.8-0.3,5.1,0.3
	c-1.5,1.9-3.9,3.6-7,2.4c0.2-0.6,1.9-1.4,0.3-1.6c1-1.1,0.9,0.4,2.2,0.3c-0.4-1.1-2.2-0.9-1.9-2.7c1.1,0.4,3.4,0.6,3.2-1.1
	c0.8-0.1,1.6,0.8,1.9-0.3c-0.4-0.4-1.3-0.3-1.6-0.8c0.8,0.8-0.4,1.4-1.3,1.9c0-0.3,0.3-0.2,0.5-0.3c-1-0.4-2.3,0.9-3.2-0.3
	c-0.7,0.2,0.1,1.9-0.5,2.2c-0.8-0.4-0.3-0.9-1.1-1.6c0.6-0.1,0.7,0.2,1.1,0.3c0.2-0.9-1-0.4-0.3-1.1c-0.3-0.8-0.6,0.8-1.3,0.5
	c0.7-1.1,1.7-1,2.4-0.8c0.1-0.6-0.5-0.4-0.5-0.8c-1.1,0.1-1.1,1.4-2.4,1.3c0.2-0.2,0.3-0.5,0-0.5c-0.7,0.9,1.5,1.2,1.1,2.7
	c-0.3-0.7-1-1.3-0.5,0c-0.3-0.3-1.5-1.3,0-1.1c-0.2-1.2-1.6,0.8-0.8-0.8c-1.3,0-0.6,0.8,0.3,1.6c0.2,1-0.7,1-0.8,1.6
	c-0.8-0.4,0.8-1.2,0-1.6c-0.4,0.3-0.2,1.2-0.8,1.3c-0.6-0.2,0.3-0.4-0.3-0.8c-1,1,0.4,1.9,0.5,2.7c-1.7-0.7-2,2.3-4,2.7
	c0.7-0.8-0.4-1.1,0-1.3c0.7-0.8,0.6,0.8,0.3,1.1c0.7-0.5,0.8-1.5,1.1-2.4c0.4,0.1,0.1,0.8,0.5,0.8c0.9-0.3-0.1-1,0.5-1.3
	c-0.5-0.7-1.2-1.1-2.2-1.3c-0.1,1.3,1.2,1,0.5,2.7c-0.3-1.6-1.6-1.3-2.7-1.6c0.3-1.5,1.3,0,2.2-0.3c-0.1-0.2-0.3-0.4-0.3-0.8
	c-0.3-0.4-1.2-0.1-2.2,0c0-1.6,2.7-0.3,3.5-1.1c-0.9,0.6-0.4,1,0.5,0.5c-1.1,0.6,0.2,0.8,0.8,1.1c0.2,0.8-0.4,0.7-0.3,1.3
	c0.9-0.1,0.7-2.3-0.3-2.2c1.4-0.6,0.3-2.7-0.8-3.2c0.3-1.1,0.7-1.3,0-2.2c0.8,0.2,1.1,0.9,1.9,1.1c0.3-1.1-0.7-0.7-1.1-1.1
	c0-0.3,0.5-0.2,0.8-0.3c-0.2-1-0.7,0-1.6-0.3c0.2-1.4,1.7-0.6,2.4-0.3c-1.3,0.5,0.3,1.6-0.3,2.2c1-0.5,0-1.3,0.5-2.4
	c0.3,0,0.2,0.5,0.3,0.8c0.9-0.6-0.1-0.7,1.1-0.8c0-0.6-1-0.1-1.3-0.3c0.1-0.8,0.7-1.1,1.3-1.3c-0.7-0.8-1.1,0.9-2.2,0.5
	c0.3-2.1,1.7-0.2,2.4-2.2c0.4,0.2-0.1,0.7,0.3,1.3c1,0.1,1.2-0.6,1.6-1.1c-0.2,0.2-0.7,0.4-0.8,0c0.4-0.5,0.2-0.9,0.8-0.5
	c-0.2-0.4,0-1.6,0.5-2.7c0.7-0.5-0.3,1.1-0.3,1.6c0.9-0.5,0.7-2.2,1.6-2.7c-0.5,0-0.6,0.3-1.1,0.3c0.7-0.3,0.5-1.6,1.1-0.5
	c0-0.5-0.2-0.7-0.5-0.8c-1.9,0.8-1.6,5-3.8,4.6c0.6-0.8,1.5-1.2,1.6-2.4c-0.9,0.8-1.6,1.8-2.2,3c0.1,0.4,0.5,0,0.5-0.3
	c0.9,0.5-0.5,1-1.3,0.8c-0.1-0.4,0.3-0.5,0.3-0.8c-1.1,0.8-0.9,0.6-0.8,1.9c-0.8-0.2-1.2,0.9-1.9,0.5c-0.4-1.1,1.2-0.1,1.1-0.8
	c-0.5-0.9-1.8,0.7-1.6-0.8c1.1,0,2.1-0.1,2.4-0.8c-0.5-0.9-0.9,0.5-1.6,0.3c1.1-1.1,0.2-2,1.6-2.7c-0.8-0.3-0.1-2.3,0.3-1.6
	c0-1.2-0.7-2.5,0.8-2.2c1.4-2.1,0.9-6.5-0.8-6.7c-0.3-0.1,0.2-1.3-0.5-1.6c0.1,4.7-0.3,9.6-2.7,12.7c2.7-1.8,3.2-8.8,3.2-10.8
	c1.1,2.3-0.1,3.6-0.8,6.7c-0.3,1.5,0.6,3.9-1.3,3.8c0.5,0.8,0.4,0.8,0.3,1.9c-1.1,0.1,0-0.4-0.3-1.1c-0.8-0.2-0.8,0.5-1.6,0.3
	c0-0.5,0.3-0.6,0.3-1.1c-1.3-0.1-1.4,1.1-2.7,1.1c0.8-0.3,0.5-1.1-0.3-1.3c-0.1-0.8,0.8,0.7,0.8-0.3c-1.4-0.9-1.8,1.6-1.9,2.2
	c0.2-0.1,1.4-0.5,0.5-0.8c0.4-0.4,1.4,0.7,1.1,1.9c-1.2,0.8-2.3,0-3,1.3c-0.7-0.4-1.5-0.6-1.6-1.6c0.3,0.2,0.3,0.6,0.8,0.5
	c-1-1.6-0.1-1.4-1.3-3.8c0.2,4.2-0.8,10.1,4.3,11.6c0,0.3,0.1,0.5,0.3,0.5c0.2,2.9-2.1,5.1,0.3,6.7c-0.7,1.6-2.8,3-1.6,5.7
	c-0.5,0-0.6-0.3-1.1-0.3c0.7,1,1.6,2.7,3.2,2.4c-0.7-0.6-2-0.5-2.2-1.6c1.4-0.5,4.6-1.3,4.6-0.3c1,0,0.7-0.4,0.5-1.1
	c0.8,1.4,4.9,0.2,5.9,2.2c-0.3-0.8-0.3-0.9,0.8-0.8c-1,0.9,0.2,0.3,0.8,0c0.7,0.6,1.8,0.9,2.4,1.6c-0.6,0.8-0.3,1,0,2.2
	c2.5-1.9,6.4,0,6.7,2.7c-2.2-0.2-4.5,0.9-5.7,2.4c1.3,1.8,2.7,3.6,3.8,5.7c1.4-2.2,6.6-4.2,7.5-0.3c2.5-0.2,5.4,0.7,6.5,2.7
	c-2.1,0.1-3.1,3-5.1,4c5.8,2.7,14.2,1.3,16.4-3.8c-0.1-1.2,0.1-2.5,0-3.8c-0.6-5.5-6.3-11.5-10-12.7c-1.6-0.5-4.2-0.1-4.6,2.2
	c0.1,1.7,3.9,1.4,3.8-0.3c2.5,1.3,0.8,4.9-1.1,5.7c-8,1.2-7.8-7.6-4.3-11c2-0.5,3.3-1.7,6.2-1.3c-0.6-1.2-1-2.5-0.8-4.6
	c0.6,0.1,1,0.4,1.9,0.3c-2.8-4.5,2-10.4,7.3-10.5c3.9-0.1,5,3.8,8.4,3.5c-2.6,2.3-5.8-3.2-9.2-3c0.8,0.9,2.1,1.3,3.2,1.9
	c0.1,1.1-2.4-1.6-4-1.3c-0.7,0.1,0.3,0.8,0.8,0.5c-0.9,0.8-2.3-0.5-3.2,0.3c5.1,0.8,0.5,0.2-1.6,0.8c1.8,0.7-1,0.5-1.1,1.6
	c1.1-1.1,5.2-1.5,6.5,0.5c0.2,1.5,1.2,2.2,1.9,3.2c0,1.1-0.6,0.6-1.1,0.3c0.5,0.5,0.1,1,0,1.6c1.1,0.2,1.5-1.1,1.3-3
	c0.7,0.6,0.5,1.8,0,2.4c1-0.2,1.1-1.4,1.1-2.7c0.7-0.6,1.2,0.6,2.4,0.3c0.6-0.8,0.4-1,1.9-1.1c0-0.5-0.9-0.2-1.1-0.5
	c0-0.4,1.1,0.3,1.9,0c0.1-0.8-1.5,0.2-1.3-0.5c-0.7-0.2,1.5,0.1,2.2-0.3c0-0.4,0-0.9,0-1.3c1.3,2.4-2.3,5.5-5.4,4.3
	c-0.7,1.6-1.1,3.4-3.5,3.2c1,2.3,2.9,3.8,3.8,6.2c0.5-2.5,4.9-6.2,6.7-2.4c-5.5,4.5,2.9,15.1-2.4,20.5c6.7,2.2,1.8,12.6-3.8,8.9
	c-0.1-1.2-0.3-1.6,0-2.7c0.8-0.7,1,1,2.2,0.8c0.2-0.1,0.4-0.3,0.8-0.3c0.3-1-0.6-0.9-0.8-1.3c-5.2-0.2-5.9,4-9.2,5.7
	c2.1,1,3.7-0.8,4.6-1.9c1.3-0.1,1.3,2.1,0.8,3c1.5-0.1,2.1-0.6,3.2-0.5c6,0.2,7,9.6,2.2,9.4c-1.3,0-3.4-1.2-1.9-3.2
	c1.1,0,2.4,1.7,3,0c0.9,1.1-1.1,1.6-1.6,2.2c-0.9,0,0-0.9-1.1-1.1c-1,1.7,3.4,2.4,3.8,0.5c-0.8-0.3-1-0.1,0-0.8
	c-0.8-2.5-4.2-1.4-6.2-0.8c0.8,1.5,0.7,3.8-0.8,4.3c-0.7-1.6-3.4-1.3-4.3-2.7c3,5.8,11.7,4.8,12.7,12.1c0.1,0.5-0.3,0.8-0.3,1.1
	c0.5,1.6,1.5,2.2,1.9,3.8c1.4,5.2-2.2,8.1-2.2,14c0,2.6,1.2,4.4,3.5,4.3c-0.4,4.8-8.1,3.1-7.8-1.1c-1.2,3.5-4,5.6-6.2,8.1
	c0.5,2.9,8,4.9,7.3-0.5c2.3-0.1,4,2.6,2.4,4.6c4.7,2.6,4.2,13.9-1.3,14.6c-2.2,0.2-5.5-3.1-2.2-5.1c1,2.1,4,1.7,3.8-0.3
	c-0.3-2.6-4.3-0.9-6.7-1.6c1.8,4.2-4.9,8.3-6.5,3.5c0.4-0.8,1.2-0.2,1.9-1.1c1-2.2-1.6-4.4-2.2-7.3c-0.3-1.6,0.5-3.4,0.3-4.9
	c-0.2-1.7-1.7-3.2-1.9-4.9c-0.5-4.3,1.7-6.8,3.5-10.5c-6.8-0.1-6.7-12,0.8-11.3c0,2-1.6,2.7-0.8,4.9c1.5,4.3,8.5-0.6,8.4-3.2
	c-5.8-2.3-11.5-4.6-12.9-11.3c-1,0.2-0.1,1.5,0,2.2c-0.4,2.4-2.4,3.2-3.5,4.9c0.2,0.5,0.5,0.9,1.3,0.8c1.2,0.2,0.8-1.4,1.6-1.6
	c2.7,0.8,0.7,4.3-1.3,4.6c-3.3,0.4-6.4-4.7-4.6-8.4c-2.6-0.4-4.3-1.8-5.1-4c1.6-1.2,0.7-4.2,0.3-6.2c-1.3,0.4-3-0.6-4.6-0.8
	c2.5,5.4,5.2,10.7,8.4,17c3.8,7.5,9.4,13.4,8.4,24.8c-1.1,12.2-13,23.4-28.3,21.6c-20.6-2.5-23-26.3-33.1-39.9
	c8.4-5,17.6-9.2,26.1-14c-2-1-6-1.1-5.7-3.5c-4.6,1.2-4.9,6.6-9.4,7.8c-0.8-1-0.7-1.5-0.8-2.7c-1.6,3.1-2.7,6.7-7.3,6.7
	c0.3-1.1,0.9-1.8,0.8-3.2c-3.2,1-4.6,5.2-4,8.4c-2.1,1.1-4.6-0.1-4.3-3c-1.2,2.5-8.9,4.2-7.5,8.4c0.6,1.7,5.3,2.3,5.7-0.8
	c-0.1-0.4-0.5-0.4-0.5-0.8c-1.3-0.1-1.9,0.4-3,0.5c0.5-5.4,7-3.3,7.5,0.5c0.5,3-1.5,4.2-3.2,5.9c2.4,4,8.1,3.8,11.9,6.5
	c4.1,2.9,6.5,8.5,7,14.3c0.5,5.6-2.1,12-9.4,11.6c-2.2-1.3-4.8-2.2-6.7-3.8c-0.4,0.1-1.4,1-1.9,0.3c1.7-2.5,4.4,0.4,5.9,1.3
	c0.4-0.1-0.3-1.3-0.5-1.6c0.8-0.5,0.8,2,1.9,2.2c0-1-1-1-0.8-2.2c0.9,0.8,0.8,2.8,2.7,2.7c-1.1-1.5-2.7-5.3,0-7
	c-0.2-0.9-1.2-0.9-1.9-1.3c-1.1,0.4-1.8,2.1-1.3,3.2c-0.8-0.5-0.3-1-0.3-1.9c-1,0-0.2,1.8-0.8,2.2c-1.2-1.6-4.9-1.3-4.6,1.6
	c-1.7-2.2,2.7-4.2,4.3-2.4c-0.2-3.4,6-3.9,5.7-0.8c-2.4,0.6-2.4,3.9-1.1,5.7c3.8,0.3,6-2.9,5.7-5.4c-0.5-3.2-5.2-3.1-8.1-5.1
	c-2.4-1.7-2.7-3.6-4.3-4.6c0.1,2.2-0.1,5.4-3.2,5.1c-0.1-1.3-0.1-1.1-0.3-2.2c-0.8,2.5-3.3,7.5-6.7,6.2c-2.1-0.8,2.1-2.9,0-6.5
	c-1.5,0.4-4.4,0.2-4.6-2.2c3.5-0.9,1.1-3.7,0.5-7.8c-0.2-1.2,0.4-2.5,0.3-3.5c-0.3-2.2-2.3-4.6-0.3-6.2c-3.7-8.3,1.1-12.2,4.6-17
	c-1.3,0.6-6.9,2.1-6.5-1.9c2.1,0.1,3.1-0.9,4-1.9c-7.1-0.7-6.8-13.8,1.6-11.9c0.5,0.7,1.1,1.4,0.5,2.4c-1.8-0.2-3.1,0.2-3.8,1.1
	c0.5,3.2,4.6,2.7,8.4,2.7c-1.1-1.5-0.1-3.6,1.1-4.3c2.2,2.6,8.4,2.2,10.8,0c-7.6,2.7-15.9-4.3-20.8-5.4c-1.4-0.3-2.4,0.7-3.5,1.1
	c-1.5-3.3,2-6.4,5.9-5.1c-3.7-2.2-2.4-9.4-7.8-10c-0.3-1.6,0.6-2.1,1.1-3c0.9-0.2,1.3,0.2,1.9,0.3c-1.6-1.6-0.7-5.7-3.2-6.5
	c0.9-3.9,5.1-1.4,5.4,1.3c0.3-1.6-0.5-1.9-0.3-3.8c0.7-5.7,8.9-7.6,8.1-14.3c-3.6,0.1-5.3,2-5.4,5.7c-1.6,0.3-2-0.7-2.4-1.6
	c-1.1,0.9-3.9,3.1-1.9,4.6c1.3,0.4,1.1-0.8,2.2-0.8c1.5,8.1-9.6-1.6-4.6-5.7c-1.6-0.7-2-3.2-0.5-4.3c3.4,1.3,7.5-2.2,11.6-1.3
	c3.1,0.6,5.7,3.6,5.7,7.5c0,4.7-3.3,6.7-3.8,10.5c1.9-3.3,3.9-5.8,7.5-4.6c5.8,1.9,2,12.9-1.9,6.5c0.8-0.1,3,0.1,3.2-1.3
	c-0.5-2.5-3.7,0-4.3-0.3c-0.3,1.1-2.1,2.6-1.9,5.1c4.3-1.5,7.7,2.3,6.5,6.2c-0.9,2.9-5.8,2.1-4-1.6c0.4,1.4,1.9-0.2,1.3,0.8
	c1.8-1.7-2-2.6-3.5-1.9c1.1,6.2,4.2,10.3,11.9,10c2.3-4.3,4.4-8.7,7.5-12.1c-1.2-1.8-3.8-3.8-5.9-3c-0.6-4.4,5-4,7-2.2
	c-0.3-1.7,0.1-3.9,2.2-4.6c-1.1-1-1.5-3.9,0-4.9c-2-1.7-1.6-5-1.1-8.1c-0.2-0.6-0.8-0.8-1.3-1.1c-6.8,3.4-5.7-6.5-8.6-9.4
	c0.2-0.7,0.8,0.4,1.6,0c-1-4.2-3.1-7.3-6.2-9.4c1.7-0.2,3.4-0.4,5.1,0c0.7,4,4.4,4.9,4.6,9.4c0.8-1-0.3-2.4-0.5-3.2
	c0.1-0.4,0.2,0,0.5,0c-0.9-3.2-1.8-6.4-4.3-8.1c1-1.3,3.4,0,4.6,0.3c0.8,3.4,2.8,5.4,3.2,9.2c0.5-2.5-0.7-5.6-1.6-7.5
	c0.3-0.3,1.2,1.5,1.6,3c0.4,1.6,0.5,3.6,0.5,5.9c1.3-3.5,0-8.7-1.3-11.3c6,0.5,3.8,7.3,4.6,11.6c0.8-1.3,0.6-2.9,0-4
	c0.7-0.8,0.4-1.4,0.3-2.4c-0.2-2.7,0.7-1.5,0.5,2.2c1.7-5.9-2.4-10.7-4.6-14.6c3.6,0.9,8.8,2.6,7.3,8.6c0.8,1.2,1.1,2.9,1.1,5.7
	c1.3-2.8-0.3-6.9-0.8-9.7C107,42.6,107.7,46.3,107.7,49.2L107.7,49.2z M118.5,48.9L118.5,48.9c-0.1,1-1.1,1.1-0.5,2.2
	c-1.3-0.2-2.2,2.1-3,3.2C116.7,52.1,118.5,51.7,118.5,48.9L118.5,48.9z M105.3,54.6L105.3,54.6c1.9-0.1,0.7-1.8,0.8-3
	c-0.7-0.1-1.2,0.1-1.1,0.8c0.4,0.7,1-0.3,1.1,0.3c-1.1,0.6,0.1,0.6,0,1.6c-0.3,0-0.5,0-0.8,0c0.3-0.3,0.1-1-0.3-1.3
	c0.2,1-0.3,2.7,0.3,3.2c0.1-0.6,0.4-1.6,1.1-0.5c-0.2-0.6,0.4-1.2,0.3-0.3c0.5,0.1,1.6-0.5,0.8-0.8C106.9,54.8,106,55,105.3,54.6
	L105.3,54.6z M108,77.5L108,77.5c0.5-0.6,2.8,0.6,2.2,1.1c-0.3-0.2-2-1.1-1.3-0.5c0,0.5,0.9,0.2,0.8,0.8c-0.9,0-1.3-0.6-1.3,0.5
	c1.4-0.7,0,0.8,1.6,0.8c0-1.2,1.5-0.1,1.9,0c0.2-0.9-1.1-0.3-0.8-1.3c0.3,0,0.4-0.3,0.8-0.3c-0.8,0.6,0.8,1.7,1.1,1.1
	C112.5,77.5,108.9,76,108,77.5L108,77.5z M152.7,94.4L152.7,94.4c-0.6-0.5,0.9-2.4,0-2.2c0,0.3,0,0.8-0.3,0.8c0-0.7-0.1-1.3,0.5-1.3
	c0.4,0.2,0.7,0.4,0.8,0.8c-0.5,0.9-0.9,2-1.1,3.2c-1.1,0.6-3,3-1.9,2.2c0.4-0.3,0.9-1.4,2.2-2.2c0.1-0.9,0.8-1.2,0.5-2.4
	c0.4,0,0.2-0.5,0.5-0.5c0.3,0.9-0.8,1.7,0,2.2c0.4-0.8,0.6-1.7,1.1-2.4c0.1,0.6,0,1-0.3,1.3c1.3,0.3,0.4-1.6,1.3-1.6
	c0.7,0.8-0.7,1,0,1.6c-0.1-1.1,2-0.5,0.5-1.6c-0.1,0.5,0.4,0.7,0,0.8c-0.2-1.8,0.8-4.7,1.1-7c-1.3-1-1.2-1.3-0.3-1.9
	c-0.8,0.3-1-1.5-1.6-1.3c0.5-1.2,0-2.7,0-3.8c0.7,0,0.8,0.5,1.3,0c-0.7-2.2,0.7-5.1,2.4-6.5c-1.6,0.1-1.2,2.2-2.7,2.4
	c0.3,0.9-0.2,2.6-0.5,3.8c-0.5-0.1,0-1.2-1.1-0.8c-0.2,1.1,0.5,1.3,0.5,2.2c-0.7-0.3-0.2,4,0.5,3.8c-0.9,0.3,0.7,1.6-0.3,1.9
	c0-0.4-0.4-1.5-0.5-0.8c0.7,1.2,1,3.2,0.3,4.3c-0.5-0.3,0-1.6-0.8-1.6c-0.2,0.5,0.8,1.1,0,1.3c0-0.5-0.2-0.9-0.5-1.1
	c-0.1,0.6-0.7,0.5-1.1,0.8c0.4,1.1,0,1.4,0.5,2.2c-0.1,0.3-0.3,0.6-0.5,0.8c0.3-1.7-0.3-0.9-0.8-0.3c-0.2-0.8-0.5-2.6,0.5-2.2
	c-0.1-0.9-1.2-0.8-1.3-1.6c-1.5-3.1,0.1,0.4,0.3,2.7c0.2,1.8-0.2,3.2-0.3,4.3c-0.7,0.8-2.2,3.2-2.2,3c0.8-0.9,2.5-1.7,2.2-3
	C153.1,95.5,151.7,93.5,152.7,94.4L152.7,94.4z M157.6,80.4L157.6,80.4c0.7,5.2,1.9,8.2-0.3,12.1C160.1,91.1,158.8,83.3,157.6,80.4
	L157.6,80.4z M155.2,75.8L155.2,75.8c-0.1,0.2-0.2,0.3-0.5,0.3c0.1,0.5,0.1,1.1,0.5,1.3C155.3,77,155.5,76.3,155.2,75.8L155.2,75.8z
	 M146.5,67.5L146.5,67.5c0.2,0.9,0.4,1.9,0.8,2.7c-0.5-0.1-0.6,0.3-1.1,0.3c-0.5-0.8-1.6-3-2.2-2.2c-0.1-0.9-0.3-1.7-0.8-2.2
	c-0.4,1.2-0.1-2-0.5-0.8c-0.3,2.3,1.1,3,1.6,4.6c-0.8-0.5-1.7-1-3.2-0.8c0,1.5,0.5,4,1.6,3.5c-0.5-0.6-1.8-2.3-0.5-3
	c-0.3,0.8-0.2,1,0.5,1.3c0.1-0.8,2.5-0.6,1.3,0.3c0.3-0.9-0.9-0.2-1.1,0c0.4,0,0.7,0,1.1,0c-0.5,0.5,0.2,0.7,0,1.6
	c-1.7-1.2-0.5-0.5,0,0.8c-1.3,0.1-2.7,0.1-4.3,0c-0.2,1.3,0.9-0.2,0.8,0.5c-0.5,0.1,0.2,0.4-0.3,0.5c-0.3-0.1-1.8-0.5-1.1,0
	c1.6,0.1-1.3,0.6-0.3,0.8c0.3,0,0.4-0.3,0.8-0.3c0,0.3,0.3,0.4,0.3,0.8c-0.3,0-0.6-0.5-0.8,0c2.5,0.9,5.2,3.1,7.5,3.2
	c-0.2,0-0.3-0.2,0-0.3c0.2,0.8,0.6,1.3,1.1,1.9c-0.4-0.1-1.6-1.5-1.1-0.8c1.7,1.3,2.9,4.6,4.3,5.4c-0.8-1.9-3-3.7-3-5.4
	c1.9,2.3,3.5,4.9,4.6,8.1c-0.2-3.6-3.7-6.2-3-8.9c-1.4,0-1.8-1.8-1.9-0.3c-1.7-1.4-1.3-1.4-0.8,0c-0.5-0.5-0.8,0.1-1.3,0.3
	c0-0.5,0.7-0.3,0.5-1.1c-0.7,0.4-0.8-1.1-1.1-0.3c0.5,0.2,1.2,0.9,0.3,1.1c-0.6-1.7-3.6-1.5-5.1-3c1.9,0.5,3.6,0.4,5.1,0.3
	c-0.3-0.1-0.6-0.4-0.3-0.5c0.5,0.5-0.1-0.6-0.8,0c0.2-0.6-1.2-0.9-0.3-1.3c1,0.7,2.1,1.3,2.2,2.2c1.1-0.2,3.9,3.4,5.4,5.4
	c0.1-0.5-0.4-0.7,0-0.8c0.9,1.1,1.1,1.8,1.6,2.7c0.3-0.8,0.4,0.6,0.8,0.5c-0.6-1.9-2-2.9-2.7-5.1c0.5,0.1,1.1,1.4,1.6,0.5
	c-0.5-0.8-1.4-1.3-1.9-2.2c0.5-2.2-2-4.3-0.3-1.6c-1.1,0,0,0.4,0,0.8c-1.7-0.9-0.2-1.8-1.9-2.2c0.2,1.7,2.2,3,2.2,4
	c-1.2-0.6-1.4-3.6-3.2-2.7c0.4,0,0.2,0.7,0.5,0.8c0-0.3,0-0.8,0.3-0.8c0,0.4,0.7,0.2,0.5,0.8c-0.7-0.7-0.4,0.5-1.1,0.5
	c-0.1-1.5-1.4-0.4-0.8-1.9c-1.3,0.1-1.4-1.2-1.9-2.2c1.2,1.2,1.7-1.8,2.4-0.3c0.4-0.8-1-1.1-0.3-1.3c1-0.4,0.1,1.2,1.1,0.8
	c0-0.4-0.1-0.6-0.3-0.8c0.8,0.3,0.7-0.4,1.1-0.5c0,0.4-0.1,0.6-0.3,0.8c0.5,0,0.9,0,1.3,0c-0.6-1.2-1.6-2.2-2.2-3.5
	c0,1.1-0.4-0.1-0.8,0.5C147.3,68.7,146.8,67.1,146.5,67.5L146.5,67.5z M151.1,75.6L151.1,75.6c0.3,1.6,1,1.9,0.5,2.7
	c0.9-0.2,0.4,1,1.1,0.3c0.8,1.1-0.2,2.2,1.1,2.2c-0.6,0.3-0.6,1,0,1.3c-0.2-0.8,0.7-0.5,0.5-1.3c-0.2-0.3-1.3-1.2-0.5-1.6
	c0.4,0.5,0.4,1.4,1.1,1.6c-0.1-1.5-1.2-1.9-0.8-3.8c-1.2,0.3-1.9-0.5-1.9-1.1C152,76.8,151.3,74.7,151.1,75.6L151.1,75.6z M150,72.6
	L150,72.6c0.6-0.1,0.3,0.8,0.8,0.8c0-0.3,0-0.8,0.3-0.8c0.5,1.7,1.7,2.8,2.4,4.3C152.8,75.2,151.7,71.6,150,72.6L150,72.6z
	 M134.4,77.7L134.4,77.7c-0.5,1.2,0,1.5,0.5,2.7c-0.4-0.1-0.5-0.3-0.8,0c0.3-0.6-0.4-1.3-0.5-0.5c0.4,1.2,1.8,2.6,1.9,3.2
	c-1.2-0.5-1.3-2.1-2.2-3c-0.1,3.7,5,6.1,7.5,3.8c-0.5-0.3-0.9,0.8-1.1,0c0.6-0.1,1.2-0.3,1.3-0.8c-0.7-0.2-1.2,1.1-1.6,0.3
	c1.1-0.1,2.4-1.3,1.9-2.2c0,0.6-0.9,1.6-1.1,1.1c0.3-0.1,0.4-0.3,0.5-0.5c-0.7-0.4-0.8,1.1-1.1,0.3c0.5-0.2,1.4-1.2,0.8-1.6
	C138.7,83.1,134,80.8,134.4,77.7L134.4,77.7z M149.5,111.7L149.5,111.7c0.1,2,3.1,1,3.8,2.4c0.1-1.6-2.3-0.7-2.7-1.9
	c1.6-0.1,2.4,0.7,3.2,1.3c1-2.3-1.8-2.5-2.7-3.8c2,0.9,4.9-1,7-0.8c1,0.1,1.9,1.6,2.4,0.8c-0.7-1-4.2-1.1-5.4-1.1
	c1.3-0.6,1.5-0.4,0.5-1.1c0.4,0,0.9,0,1.3,0c2.9-0.1-1.3,0-1.6-0.5c-0.4-0.6,1.4,0.4,1.1-0.8c-1-0.2-2.1,1.9-2.7,0.3
	c0.8,0.4,1.3,0.2,1.6-0.5c-0.7,0.3-3.4,0.2-1.9,1.1c-0.5-0.3-1.6,0-1.9-0.5c0.5-0.5,1.5-0.8,0.5,0c0.9-0.7,2.4-0.8,3.5-1.3
	c-2.4,0-2.6,0.5-4,0.5c0.5-0.7,1.5-1.5,0.8-2.7c-1.2,0.1-1.2,1.5-2.2,1.9c0.5,0,0.9,0.2,1.1,0.5c-2.3,0.6-4.1,0.1-6.2,0
	c0.9,0,1.3,0.5,1.3,1.3c1.4,0.3,1.6,0.2,2.7,0.5c-0.2,0.4-1,0-1.1,0.5c1.2,0.3,2.8-0.4,3.2,0c-1.9,0.4-5.5,0.9-2.4,0.8
	c0.4,0,1.4-0.8,2.2,0c-1,0.2-2,0.3-3,0.5c-0.6,0.1-2.9-0.2-2.2,0.3c1.7,0.2,4.4-0.6,4.6,1.1c-0.7-0.3-0.7-0.1-1.6,0
	c0-0.4,0.1-0.6,0.3-0.8c-0.5,0.3-1.6,0-1.9,0.5c1,0.9-0.3,1.6,1.1,1.6c-0.7,2.5,2.4,4.9,4.3,4.9C151,116.1,146.9,113.3,149.5,111.7
	L149.5,111.7z M144.7,112L144.7,112c1.1,0.7,2.2,2.7,2.4,3.2c-1.9-1.1-3.4-2.5-5.1-3.8c2.5,2.7,6.3,5.3,9.4,6.5
	c0,0.2,1.8,2.3,2.7,1.6c-0.2,0-0.3-0.2,0-0.3c0.5,0.5-0.1,0.5-0.3,1.1c0.4,0.6,0.7-0.3,0.8,0.3c-1.9,0.4-3.1-3-5.7-3
	c1,0.4,0.3,0.9,1.1,1.3c-3.9-1.7-7.2-3.9-10-6.7c1.5,2.5,4.6,3.5,6.2,5.9c-0.4-0.7-0.8,0.5-1.1-0.3c1.2,0.1-0.4-0.9-0.5-0.3
	c-0.6-1.5-3.5-3-4.9-4.6c1,1.8,3.1,2.5,4,4.3c-1.5-0.8-3.1-2.8-4-3.2c0.2,0.7,1.1,0.7,1.1,1.6c-0.4-0.1-1.6-1.5-1.1-0.8
	c0.4,0.8,1.2,1.1,1.3,2.2c-0.7-1.3-1.5,0.4-2.2-1.1c-0.1,0.5,0.3,0.6,0.3,1.1c-0.5,0-0.3-0.7-1.1-0.5c-0.7,0.7,0.6,0.6,0.3,1.6
	c1.5,0.3,2,0.5,2.7,0.8c0.2,1.4,1.1,2.1,0.8,2.7c-1.1,0.2,0-1.8-1.1-1.6c0,0.6-0.2,0.9-0.8,0.8c-0.5-0.5-1-2.4-1.3-2.2
	c0.3,0.5,0.2,1.2,0,1.3c-0.6,0.2,0-2.3-0.5-1.3c-0.2,0.6,0.3,1.8-0.3,1.9c0-0.4-0.7-0.2-0.8-0.5c0.5-0.9-0.8-2-0.3-1.3
	c-0.1,0.4,0.3,1.4-0.3,1.3c0-1.3-0.4,0.3-1.1,0c0.5-1.7,0,0-1.6-0.8c0.3,1.4,1.6,1.8,3,2.2c0.5-0.5-3.2-0.6-1.9-1.9
	c0,1.8,4.1,0.5,2.4,1.9c1,0.2,1.7-1.3,2.2,0c-0.9,0.1-1.4,2-1.1,2.4c1.6-1.8,0.6-1.3,1.1-0.5c-0.1-0.3,0.6-0.5,0.5-0.5
	c0.3,1.5-1.7,2.2-1.1,4.3c0.2-0.9,0.1-2,1.1-2.2c0.2,0.7-1.1,1.4-0.3,1.9c0.6-1.2,0.4-1.8,1.3-2.4c-0.2,1-0.3,1.5-1.1,2.4
	c2.4-1.4,4.7-3.1,3.2-7c0.4-0.5,1.3-0.5,1.9-0.8c-0.2,10,12.9,9,16.7,15.9c-1.3-4-5-5.5-8.6-6.5c0.7-0.3,1.3,0.8,1.6,0
	c-1.4-0.6-3.2-0.7-4.3-1.6c1,0.2,1.7,0.6,2.7,0.8c0.2-1.6-1.2-0.4-1.3-1.3c0.5,0.4,0.3,0,1.1,0c0.4,0.9,1.5,2.6,2.7,1.9
	c-0.3-0.1-0.6-0.3-0.8-0.5c2.1,0.1,3.7,2,4.9,2.2c-1.1-1.2-2.9-1.6-4-2.7c1.6,0,3.5,1.9,4.9,3c-0.5-1.3-2.2-1.4-2.7-2.7
	c1.4,0.6,2.4,1.7,3.5,2.7c-1.5-2.8-6.1-5.4-8.1-5.9c0.4,0.8,1.9,0.4,1.9,1.6c-1.8-0.4-4.1-1.6-4.3-2.7c0.7,0.1,1.3,1.4,1.6,0.3
	c-1.1,0-1.5-1.6-2.4-0.8c0.8-1-1.4-0.8-1.3-1.9c4.3,3.1,10.1,4.8,13.2,9.2c-0.8-2.9-4.9-3.9-5.7-5.9c1.8,1.3,3.9,2.4,5.1,4.3
	c0,0.3,0.3,0.2,0.3-0.3c-1.5-1.5-4.1-3.5-4.9-4.9c1.7,0.9,3.4,3.3,4.6,3.8c-1.4-2.1-3.8-3.2-5.4-5.1c1,0.3,1.4,1.1,2.4,1.3
	c2.3,2.2-0.8-0.7-1.6-1.6c-0.8-0.3-1.5-0.8-1.9-0.8c0.1-0.5-0.4-0.7,0-0.8c1.1,0.5,2.5,2.1,3.2,2.2c-1.4-2.8-7-4.6-9.7-6.7
	c0.1,0,0.3,0.2,0,0.3c-0.1-1.1-0.1-0.6-0.8-1.3c0.9-1.6-0.9-2.2-1.3-2.7c0.4,0,0.2-0.5,0.5-0.5c0.4,0.3,0.5,0.8,0.8,0
	c-1-0.9-1.2,0.5-2.2,0.5c-0.8-0.5-1.7-1-2.4-1.6c0.6,1.4,2.4,1.6,3,3C145.7,112.6,144.1,111.4,144.7,112L144.7,112z M146.3,110.6
	L146.3,110.6c-0.7,0.1-1.5-1.1-2.2-0.3C145.1,110.2,145.9,111.8,146.3,110.6L146.3,110.6z M139.8,111.4L139.8,111.4
	c2.5,2,5.3,5.2,8.1,5.9C144.9,115.8,142,112.8,139.8,111.4L139.8,111.4z M142,112.5L142,112.5c-0.4-0.7-1-1.2-1.6-1.6
	c1.5,1.6,3.7,3.8,5.4,4.3C144.3,114.5,143.4,113.2,142,112.5L142,112.5z M75.9,68.3L75.9,68.3c-0.4,6.5-8.8,8.1-9.2,14
	c-0.1,1.4,1.5,3.1,0.3,4.3c-1.4-0.8-1.6-4.3-3.5-3.8c1.2,0.7,2.4,2.8,2.2,4c-0.7-1.2-1.2-4-2.7-3.5c1.3,0.2,0.2,1.1,1.1,1.6
	c0-0.4-0.1-0.6-0.3-0.8c0.4,0,1.1,1.1,0.5,1.1c-0.1-0.5-0.3,0.1-0.5,0.3c-0.4-0.8-0.6-1.9-1.9-1.9c2,2.4,2.7,6.1,4.9,8.4
	c-0.5,0-0.3,0.7-1.1,0.5c-0.8-0.2-1.4-2-2.4-1.1c0.8,0,2.1,1,1.6,1.3c-0.5-0.8-1.3-1.3-2.4-1.3c0,1.1,1.9,0.3,1.9,1.3
	c-0.6-0.3-2.2-1.3-2.4-0.3c1.1-0.1,1.9,0.1,2.2,0.8c-0.4-0.2-1.6-1-2.2-0.3c4.8-0.1,4.1,6.2,6.7,9.2c1.3,1.5,3.1,0.8,3.5,3
	c-0.3,0-0.3,0.2-0.5,0.3c-2.4-2.8-8.9-2.1-7.8,2.7c0.9-0.4,1.7-0.9,2.7-1.1c6.3,2.4,13,6.9,22.1,5.1c0.5-0.1,1.4-1.6,2.2-0.3
	c-3,1.2-4.4,4.6-8.6,4c2.5-0.1,4-1.2,5.7-2.2c-2.7,1.3-8.7,3-10.2-0.5c-1.1,0.1-1.3,1.2-1.6,2.2c0.4,0.7,0.8,1.5,1.1,2.4
	c-3.3,0.5-5.9,0.1-8.4,0c0.5-0.6-1.4-2.3-1.9-1.9c0.5,0.4,1.8,1.2,1.3,1.6c-0.4-0.6-0.9-1.1-1.6-1.3c0.2,1.3,1.5,1.6,2.4,2.2
	c-1.8,0.3-1.7-1.3-3-1.6c0.7,2.2,3.5,2.2,5.7,3c-2.7,0.1-4-1-5.7-1.9c-0.1,2.9,2.4,3.9,4.9,5.1c-2.3,0-2.9,3-5.1,2.2
	c-0.1,1.9,1.7,1.9,3.2,2.2c0.8-0.8,1.6-1.6,3.2-1.6c0.4,0.4-0.1,1.1-0.3,1.6c0.8,0.1,1.3-1.3,1.9-0.5c-2.4,1-4.7,4.3-4.3,6.5
	c0.6-1.6,1.7-2.7,2.7-3.8c-0.8,1.6-2.9,3.4-2.7,5.1c1.8-3.9,5.4-7.4,8.6-8.9c-3.6,2.6-7.9,5.9-8.6,10.5c0.8-0.8-0.6,1,0.3,1.1
	c0.5-2.4,2.3-4.9,3.8-5.4c-1.8,1.2-3.4,3.9-3.5,5.9c0.8-2.4,2.2-4.3,4-5.7c-1.7,1.8-3.2,3.8-4,6.5c0.9-0.2,0.4,0.9,1.1,0.8
	c-0.2-4,3.9-5,4.8-7c2.2,0.6,2.6-3,4.6-3.5c-0.3,1.1-1.6,3.6-0.3,4.6c0.2-0.6-0.3-1.8,0.3-1.9c0,1-0.2,2.4,0.5,2.7
	c0-1.5,0.6,1.2,1.1,0c-0.3-0.1-0.9-1.2-0.3-1.3c0,1.1,0.1,0.6,0.5,0.3c0.5,1.4-0.2,0-0.3,1.1c0.5,0.4,0.3,0,1.1,0
	c-1.5-4.4,2.3-9.1,5.4-9.7c-0.9,1-0.6,3.2-1.3,4.3c2.3,0.1,2.8-1.7,3.8-3c0,0.3-0.5,0.6,0,0.8c0.9-3.5,3.7-4.5,4.6-6.2
	c-0.8,1.6,0.7-1.3,0-0.8c-0.3,0.4-1.4,1.5-1.6,1.1c0.6-0.9,2.5-1.1,1.9-2.4c-1.7,0-1.5,1.7-3,1.9c0.1-1,2.3-1.3,1.6-2.2
	c-0.8,0.8-1.7,1.5-2.7,2.2c0.7-1.1,2.1-1.5,2.7-2.7c-1.2,0.4-1.7,1.4-2.7,1.9c0.5-1.1,1.9-1.3,2.4-2.4c-1.2,0-2,1.9-2.7,1.6
	c0.5-0.8,3-1.7,1.9-2.4c-0.2,0.6-1.3,1.7-1.6,1.3c1.9-0.6,1.7-3.3,3.2-4.3c3.4-0.8,7.5-4.1,8.9-6.5c-2.7,2-5.9,4.9-8.6,5.9
	c2.7-2,7-4.5,8.4-6.5c-7.2,4-13.3,10.6-19.9,14.3c6.7-4.7,12.6-10.2,19.7-14.6c-6.2,2.4-10.6,8.1-15.9,10.5c5.3-3.5,9.9-7.7,15.4-11
	c-4.7,2.2-8.4,5.4-12.4,8.4c2.3-3,7.8-5.1,8.9-7.5c-4.4,2.2-8.8,5.9-15.4,5.1c3.9-0.1,8.2-1.3,11-3.2c-2.9,0.9-7.1,3-9.7,2.4
	c6.1-1.1,11.4-3.1,15.4-6.2c-4,1.5-7.8,4.6-12.4,4.6c4.5-0.9,8.2-2.6,11.3-4.9c-3.5,1.7-7.6,4-11.9,4c4.3-0.9,8.1-2.3,11.3-4.3
	c-2.4,0.1-5.6,3.2-8.6,2.7c2.9-0.7,5.8-1.4,7.5-3.2c-2.8,1.2-6.2,3.3-9.7,3c3.4-0.5,6.7-1.3,8.6-3.2c-2.6,1-4,2.3-6.7,2.7
	c-9.1,1.3-13.1-6.1-18.3-10c-0.7,0.1-1.3,0.3-1.6,0.8c-0.1-2.9-0.5-3.8,3.5-3.8c-0.2-0.7-0.4-3.5-0.3-4.3c0.4,1.3,0.4,3,0.5,4.6
	c1.3-0.4,0.6,1.2,1.6,1.1c-0.3-5.1,5.6-4.1,7.8-2.7c-0.7-0.4-1.2-1.1-1.9-1.6c1-0.2,1.2,1.7,1.9,0.8c-0.4-1.3-2.1-1.8-2.2-2.7
	c-2.5-0.6-4.1,1.8-5.4,0c-0.3-4.8,4.3-7.7,9.2-6.2c-0.9-0.6-2.4-0.6-3.2-1.3c2.6,0,3.2,1.5,4,2.7c0.1-3.1-3-3.9-5.9-3.8
	c1.2-0.9,3.3,0.4,4,0c-0.9-0.4-1.3-0.7-0.5-0.8c-4.6-2.2-6.6,2.3-8.4,4.6c-0.1-0.4-0.4-0.5-0.5-0.8c0.4-2.9,3.1-5,3-7.5
	c-0.6,1.5-1.4,2.9-2.4,4c1-2,2.3-3.6,3-5.9c-1.6,0.2-0.3,2.3-1.9,3c0.1-0.6,1.2-1.4,0.5-1.9c0.2,0.4-0.5,1.2-0.5,0.5
	c0.5-1.2,1.9-3,1.1-4.6c-1.1,3.1-2.7,5.7-4.9,7.8c1.6-2.8,4.1-4.7,4.3-8.9c-1.2,2.4-2,6.8-4.3,7.3C74.3,74.4,76,71.1,75.9,68.3
	L75.9,68.3z M94.5,122.7L94.5,122.7c0.8,0.3,1-1.3,1.3-0.5c-1.5,0.6-1.3,2.1-0.8,3c1.4,0.3,1.2-1.1,1.6-1.9c-1.1,0-0.8,0.9-1.1,1.1
	c-0.7-0.8,0.9-1.1,1.1-1.9c-0.9-0.2-1.2,1.5-1.6,0.8c0.6-0.3,1-0.8,1.3-1.3c-0.2-0.1-0.3-0.2-0.3-0.5
	C95.3,121.5,95,122.2,94.5,122.7L94.5,122.7z M105,107.9L105,107.9c-1.9,0.3-3.3,2.1-4.9,3.2c-1.6,1.1-3.8,1.7-4.3,3.2
	C99.7,112.4,102.6,110,105,107.9L105,107.9z M99.7,112.5L99.7,112.5c-1,0.6-2,1-2.7,1.9C98.2,114.3,100,112.3,99.7,112.5L99.7,112.5
	z M104,109.5L104,109.5c0.3-0.9,2-0.3,2.2-1.3C105.5,107.7,103.6,109.1,104,109.5L104,109.5z M97.5,107.1L97.5,107.1
	c0.9-0.9,3.6-1.4,3.5-2.4C100.2,105.7,97.5,106.2,97.5,107.1L97.5,107.1z M80.5,93.4L80.5,93.4c0,0.4,0,0.9,0,1.3
	c0.9,0.5,1.5,0.9,2.7,0.5c0.4-1.1-1.2-0.1-1.1-0.8c0.6,0.1,1.9-0.4,1.1-0.8C82.4,94.7,81.4,94,80.5,93.4L80.5,93.4z M86.7,47.3
	L86.7,47.3c3.7,1.7,3.6,7.2,6.5,9.7c-0.1-1.8-0.4-1.2,0.5-1.3c-0.6-0.1-0.2-1.3-1.1-1.1c-0.7-0.2,0.2,1.3-0.5,1.1
	c0.3-1.1-0.9-2.1-0.3-2.7c1.2,3-0.6-2.2-1.1-1.1c0.6-1.1-0.6-1.2-0.8-2.2c2,1.7,3.4,4,4.3,6.7c1.6,1.4-0.5-1,0.3-1.9
	c-1.2-1.7-2.3-3.5-3.5-5.1c-0.4,0-0.9,0-1.3,0C89.3,48.3,87.8,46,86.7,47.3L86.7,47.3z M90.2,49.2L90.2,49.2c0.8-1.2-1-2.8-1.9-2.2
	c0.6,0.4,1,1.1,1.6,1.6C89.5,48.7,89.9,49.1,90.2,49.2L90.2,49.2z M97.2,56.4L97.2,56.4c0.3-0.7,0.1-1.9-0.5-2.4
	c-0.1,0.4,0.3,1.4-0.3,1.3c-0.3-3.7-1.4-6.5-2.7-9.2c0.8,0,0.3,1.5,1.3,1.3c0.3-0.3,0.3-1,0.3-1.6c-1.4-0.6-2.4-1.4-3.8-1.1
	C95.1,47.1,94.3,53.6,97.2,56.4L97.2,56.4z M98,55.4L98,55.4c0.6-3-2.1-6.2-2.7-8.1C95.2,50,96.8,53.2,98,55.4L98,55.4z M104.8,41.9
	L104.8,41.9c-0.3-0.9-0.2-0.6-0.5-1.1c-0.9-1.4-1.9-2.6-4.6-3c2.7,3.6,4.9,9,4.6,14.8c1.2-3.5-0.8-8.3-0.8-9.7
	c-0.1,0.2,0,0.5-0.3,0.5c0.2-2.1-2.6-3.6-0.8-4.3c-0.5,0.6,0.2,1.4,0.5,1.3c-0.6,0.7,0.4,1.4,0.5,2.2c0.6-0.6-0.4-1.2-0.3-2.2
	c0.4,0,0.6-0.1,0.8-0.3c-0.3,0.3,0,2.3,0.5,1.1c-0.5,0.8-0.9,2.5,0.3,3c0.3-1.2-0.5-1.3-0.5-2.2c0.5,0.2,0.6,0.8,1.1,1.1
	c-0.5,1.4-0.9,3.2,0,4.6c0-0.4,1.1-0.8,0.3-1.1C105.1,45.4,105.3,43.5,104.8,41.9L104.8,41.9z M106.4,50.5L106.4,50.5
	c0.2-1.5-0.3-2.2-0.8-3C105.2,48.2,105.3,50.4,106.4,50.5L106.4,50.5z M105.6,50.8L105.6,50.8c0.8,0.2,0.7,1.3,1.6,1.3
	C107,51.5,106.1,50.2,105.6,50.8L105.6,50.8z M107.2,38.7L107.2,38.7c0.7,1.5,1.2,4.8,1.3,6.5c0.3,2.8-0.9,6.1,0.3,6.2
	c0.3-3.4,0.6-6.6,0-10c0.2,1.8,1.5,3.5,1.1,5.1c0.3-0.9,1.4-3,0.3-3c0.7-0.2-0.5-1.2,0.5-0.5C109.7,40.5,109,40.6,107.2,38.7
	L107.2,38.7z M99.7,47.6L99.7,47.6c0.7-0.4-0.5-0.8,0.3-1.1c-0.1,0.6,0.8,0.3,0.8,0.8C100.3,47.3,99.9,47.3,99.7,47.6
	c0.5,1.2-0.2,5.1,0.8,4.9c-0.1-1.1-0.3-3.2-0.3-4.6c0.4,0.7,0.9,1.1,0.8,1.6c0-0.4,0.7-0.2,0.8-0.5c-0.1-1.1-1.6-3.7-3.2-3.8
	C99.5,45.3,99.1,47,99.7,47.6L99.7,47.6z M109.6,52.4L109.6,52.4c1.3-1.1,0.3-3.1,0.8-4.6c-0.3,0-0.5,0-0.8,0
	C110.1,49.6,108.7,52,109.6,52.4L109.6,52.4z M105,65.9L105,65.9c-0.4-0.1-1.4,0.3-1.3-0.3c0-0.8,1.8,0.3,1.3-0.8
	c-1.5,0.6-2.3,0.5-2.2-0.8c-0.9,0.4-2.4,0.3-3.2,0.8c0.5-1.3,4.6-1.6,0.8-1.3c-0.7,0.2-0.6,1.2-1.6,1.1c0.4-0.5,0.6-1.2,1.1-1.6
	c0.6-0.2,1.8,0.3,1.9-0.3c-0.4-0.4-1.4,0.2-2.4,0c-0.2,0.8-0.3,1.6-1.1,1.9c0-0.3,0.4-0.4,0-0.5c-1.7,2.1-4.1,0-4.3-1.1
	c0.5-0.1,1.3,0.3,1.1-0.5c-0.8,0.2-1.3,0.3-1.6,0c0.3-0.1,0.4-0.3,0.5-0.5c-0.4,0-0.6,0.1-0.8,0.3c-0.2-1.2-0.2-0.9,0.5-1.3
	c-0.9,0.2-0.8-0.4-1.1-0.8c1.2-0.3,1.4,0.8,3,0.5c-0.2,0.5-0.7,0.8-0.8,1.3c0.5,0.1,1.3-0.8,1.6,0c-1.3,0.2-0.3,0.3-1.3,0.5
	c0.5,0.4,1.1,0.8,1.6,0.5c-0.4,0-0.3-0.7,0-0.8c0.7,0,1,0.4,1.1,1.1c-1.2,0.4-1.8-0.1-2.2,0c0.8,0.3-0.3,0.7-0.3,1.1
	c1.5,0,2.4,0.6,3.5-1.3c-0.5-0.5-0.8,0.4-1.1-0.5c0.5,0,0.8-0.1,1.1-0.3c3.7-0.5-0.3,0.2-1.3,0C96.7,62,96.1,61,95.6,61
	c1.4,0,4.5,1,5.4-0.3c-1.3,0-4.2,1-4.6-0.5c3.7,0.7,1.6,0.1,3,0c0.4,0,3.1,0,1.6-0.3c-1.9-0.4-1.9-0.2-3.2,0c-1.9,0.3-2.3-0.2-1.3,0
	c-0.5-1.6,2.6-1,1.9-1.9c-0.5-0.1-1.6,0.9-1.6,0c-0.4,0.2,0.1,1.3-0.8,1.1c0.7-0.7-0.4-0.2-0.3-1.1c0.3,0,0.4,0.3,0.8,0.3
	c-0.2-0.5,0.3-1.6-0.3-1.6c0,0.1-0.2,0.3-0.3,0c0.3,0,0.3-0.5,0-0.5c-0.7,0.5-0.2,2.2-1.1,2.4c-0.2-0.6-0.6-2.2-1.3-1.3
	c0.3,0.1-0.2,1.6,0.3,2.2c-0.5-0.1-0.6,0.3-1.1,0.3c0.8-0.9,0.2-0.6-0.3-0.8c0-0.4,0.5-0.2,0.5-0.5c-0.9-0.2-0.7-1.2-1.6-1.9
	c1.2,3.2,1.1,7.7,4,9.2c2.2-0.1,3.2-1.3,4.9,0c0-0.9,1.7-1.5,2.4-0.8c0,0.2,0,0.4,0,0.5c-1-0.1-1.8,0-2.4,0.3c0.4,1,0.8,3.3,0,2.4
	c-0.2,0.7,0.8,1.5,0,1.9c0-0.4,0.1-1-0.3-1.1c0,0.4,0,0.9,0,1.3c0.4,0,0.9,0,0.8,0.5c-0.4,0-0.6-0.1-0.8-0.3c-1,2.8,2.7,2.8,1.3,4.3
	c1.6,0.5,5.3-0.5,1.1-0.3c-0.5-0.9,0.1-1.2,0.8-1.6c-1.2-0.4-0.7-1.9-1.6-2.4c0.3,0,0.4-0.3,0.8-0.3c-0.1,0.5,0.3,0.6,0.3,1.1
	c1.7-0.6,2.5,0.6,3.5-0.8c-0.8,0.3-3.1,1-3.5-0.3c6-0.4,0.3,0,0-0.8c-0.8-0.4-0.7,1.4-1.1,0.5c0.2-0.2,0.9-1.5,0.3-0.8
	c-0.1,0.3-0.3,0.6-0.8,0.5c0.8-0.5-0.1-1.1,0.5-1.6c0.5,0.4,2,2.4,2.7,0.8c-0.8,0.6-2.4-0.3-1.9-0.8c0.8,0.9,0.4,0.3,0.8-0.3
	c-0.1,1.1,1.7,0.3,2.4,0.5c0-0.4,0.1-0.6,0.3-0.8c-1,0.7-2.3,0.6-2.7-0.5c1.2,0.1,2,0.5,3.2-0.5c-1.3,0.6-3,0.2-3.8-0.5
	c1.3,0.8-0.7,2.9-1.6,1.3c0.4,0,0.2-0.5,0.5-0.5c0.3,0.1,1.2,1.4,1.1,0.3c-0.1-0.8-1.6-0.2-1.9-0.8C102,64.6,104,66.7,105,65.9
	L105,65.9z M97,57.8L97,57.8c0.7,0,1.1-0.1,1.3-0.5c-0.8,0.1,0.7-1-0.3-1.1C97.9,56.9,96.9,56.8,97,57.8L97,57.8z M149.5,68
	L149.5,68c1.2-0.9,1.1-4-0.5-4.3C148.6,65.2,148.1,67.3,149.5,68L149.5,68z M102.9,72.1L102.9,72.1c1,0.3,2.9,0.4,2.4-0.5
	C105,72,103.6,71.8,102.9,72.1L102.9,72.1z M154.6,75.8L154.6,75.8c-0.7-0.7,2.1-3.2,1.3-3.5C155.6,73,153.7,74.9,154.6,75.8
	L154.6,75.8z M104.5,73.7L104.5,73.7c-3.3,0.1-0.4,0.7,1.1-0.3C105.1,73.3,104.8,73.7,104.5,73.7L104.5,73.7z M156.2,75.3
	L156.2,75.3c0.1-0.5,0.4,0.2,0.5-0.3c-0.7-0.7,0.2-0.2,0.5-0.5c0-0.5-0.2-0.9-0.5-1.1C157.1,74.4,155.3,74.6,156.2,75.3L156.2,75.3z
	 M100.7,76.9L100.7,76.9c0.1-0.2,0.2-0.3,0.5-0.3c0.4-0.7-0.8-1.1,0-1.3c0,0.3,0.1,0.6,0.5,0.5c0.2-0.7-0.6-0.5-0.8-0.8
	C100.9,75.9,100.5,76.4,100.7,76.9L100.7,76.9z M100.5,77.7L100.5,77.7c1.5-0.8,3-2.1,4.3-2.4c-1.1-0.3-1.6,0.6-2.2,0
	C102.4,76.8,100.6,76.9,100.5,77.7L100.5,77.7z M102.4,76.9L102.4,76.9c0.1,0.6-1.6,0.7-0.8,1.1C102,77.2,105.6,77,102.4,76.9
	L102.4,76.9z M111.8,77.5L111.8,77.5c1.4,0.8,1.3,3.2,3.5,3.2c0.6-1,1.2-1.1,1.6-2.7c-0.4-1.1-2.9-1.6-4-1.1
	c0.8,0.5,1.8,0.7,2.4,1.3c-0.9,0.1-1.6-1.3-2.2-0.5c0.4,0.5,1.4,0.4,1.3,1.3C113.5,78.8,112.6,77,111.8,77.5L111.8,77.5z
	 M136.3,79.4L136.3,79.4c0.4-1.6,1.9-2.1,3.2-2.7C137.6,76.6,136,78.1,136.3,79.4L136.3,79.4z M100.7,78L100.7,78
	c-0.2,0.9,0.7,0.6,0.8,1.1c0.9-0.2,1.4-0.8,1.9-1.3C102.5,78,101.6,79.1,100.7,78L100.7,78z M109.1,80.2L109.1,80.2
	c-1.8-1.3-3.5-3.3-6.2-1.6c-0.2,1.4,1.5,0.8,1.9,1.6c-0.5,0.3-0.9-0.8-1.1,0c0.7,0.6,2.5,1.7,3.8,0.8c-0.4-0.4-1.7,0.1-1.6-0.8
	C106.9,80.6,108.2,80.9,109.1,80.2L109.1,80.2z M116.6,79.6L116.6,79.6c0.8,0.1,1.2,0.6,1.9,0.8c0.2-1-1.2-0.5-1.3-1.1
	c0.4,0,0.2-0.8,0-0.3C117.2,79.4,116.7,79.3,116.6,79.6L116.6,79.6z M119.1,81.2L119.1,81.2c-0.2-1.2-1.5-0.7-2.7-1.3
	c5.4,1.8,1.4,8.4-4,7.3c0.8,0.8,3.3-0.2,3.8,0.3c-0.6,0.2-1.5,0.2-1.6,0.8c7.2,2,7-6.1,13.2-5.1c-0.3-2.6-4.7-3.6-6.5-1.6
	c-0.1-1.5-1.7-2.8-2.7-2.4c0.8,0.4,2.5,1.3,1.6,2.4c-0.2-1-1.4-2.5-2.2-2.2C118.5,79.6,119.7,80.7,119.1,81.2L119.1,81.2z
	 M157.3,83.4L157.3,83.4c0.1-1.5-0.5-2.2-0.3-3.8C156.2,79.8,157.1,82.6,157.3,83.4L157.3,83.4z M99.4,82.6L99.4,82.6
	c0.2-1.9,3.2-1.4,4.3-1.6c0.1,1,0.6,1.6,1.6,1.1c-0.1,0.5,0.4,0.7,0,0.8c-0.9-0.5-2.1,0.5-2.2,1.6c0.4,0,1.4,0.9,1.6,0.3
	c-0.2-0.1-0.5,0-0.5-0.3c0.4,0,0.6-0.1,0.8-0.3c1.1,1.9,3.5-0.2,5.7-0.5c-0.1,0.5,0.3,0.6,0.3,1.1c-0.8,0.3-1.6,0.5-2.4,0.8
	c-1.6,0.4,1.6,0.2,2.4-0.3c0.3,0.7,0.9,1.1,1.6,1.3c0-1.1-1.3-0.8-1.3-1.9c1.4,0.2,2.6-1.8,4-2.4c-0.8,1.4-1.4,1.4-2.7,2.2
	c0.4,1.3,1.5,1.2,0.3,2.2c0.8,0.3,0.7-0.4,1.1-0.5c0,0.3,0.1,0.6,0.5,0.5c-0.2-1.1-1.6-0.9-1.6-2.2c1.3-0.2,2.4,0.1,3.2-1.3
	c0.1,0.6-0.5,0.6-0.3,1.3c0.4,0.1,1.1,1.2,1.3,0.5c-0.5-0.3-1.1-0.6-1.1-1.3c0.5-0.1,0.5,0.4,0.8,0.5c0.4-0.9-1.1-1.2-0.3-1.6
	c0.4,1.2,0.8-0.5,1.3,0.3c-0.4,0-0.6,0.1-0.8,0.3c-0.1,0.6,0.8,1.5,1.1,0.8c-0.5,0-0.7-0.2-0.8-0.5c1.7,0.5,0.5-2.7-0.3-1.3
	c0.9-0.2,0.4,0.5,0,0.5c0.2-1.4-1.8,0-0.5-1.1c-4.8-1.1-7.6,0.4-12.4,0.3C104.6,79.8,98.4,79,99.4,82.6L99.4,82.6z M115.3,86.1
	L115.3,86.1c-0.8,0.2-1.1-1.6-1.6-0.8c0.7,0.2,0.7,1.1,1.6,1.1c0.4-0.3,1.1-0.3,1.3-0.8c-0.4-0.2-1.7-1.6-1.3-0.8
	c0.4,0.2,0.9,0.4,0.8,1.1c-0.7,0.1-1.8-1.6-1.3-0.8C114.7,85.5,116,85.8,115.3,86.1L115.3,86.1z M102.1,81.5L102.1,81.5
	c-1.4-0.1-0.7,2-1.9,2.2c0-0.4,0.9-1.4,0.3-1.6c-1.3,0.7-0.9,2.3-1.6,3c-1.1-1.7-5.8-3.1-6.5,0c2.7,0.2,3.8,2.2,5.7,3.2
	c0-0.4-0.1-0.6-0.3-0.8c0.9,0.7,2.8,1.9,4.3,1.1c-0.7-0.5-2.4-0.1-2.7-1.1c1.3,0.5,3.7,1.3,4.9,0.3c-0.5-0.2-1.6,0.3-1.6-0.3
	c1.1,0,2.2,0,2.7-0.5c-1.4-0.5-2.9-0.8-3-2.7c0.2-1,1.2-1.1,1.3-2.2c-1.5,0.1-1.3,1.8-2.2,2.4c0.1-1.4,0.8-2.1,1.6-2.7
	c-1.5-0.1-1.3,1.4-2.2,1.9C100.9,82.5,102,82.5,102.1,81.5L102.1,81.5z M155.2,87.4L155.2,87.4c-0.1-1.2-0.4-2.1-1.1-2.7
	C154.5,85.6,154.5,86.8,155.2,87.4L155.2,87.4z M107.5,85.5L107.5,85.5c-0.8,0.3-1.1,0.1-1.9-0.3c-0.1,0.2,0,0.5-0.3,0.5
	c0.1-0.6-1.5-0.6-1.6-0.5C104.4,86.2,106.5,86.7,107.5,85.5L107.5,85.5z M108,89.6L108,89.6c1.6-0.5,3.9-1.5,3.8-2.7
	C110.2,87.5,109,88.4,108,89.6L108,89.6z M111.2,86.1L111.2,86.1c-3.4,1.1-6.1,3.7-12.1,3c-1,2.6-3.3,5.4-3,8.4
	c3.8-2.1,8.1-3.7,11.3-6.5c-0.1-0.4-0.3-0.3-0.5-1.1C108.9,87.9,109.3,87.7,111.2,86.1L111.2,86.1z M106.9,95.5L106.9,95.5
	c-0.1,0.5,0.4,0.5,0.5,0.8c-3.2,1.4-6.9,4.1-11,5.4c-1.8,0.1,0.1,0.4,0.5,0.3c1.4-0.3,4.1-2.2,5.4-2.2c0,0.4,0.5,0.2,0.5,0.5
	c-0.7,0.4-1.5,0.7-1.9,1.3c0.9,0,1.7-1.5,2.4-0.8c-1.3,0.7-2.6,1.4-3.8,2.2c1.9,0.2,3-1.8,4.3-1.3c-0.7,0.2-1.3,0.5-1.6,1.1
	c0.8,0.1,1.4-1.4,2.2-0.5c-0.8,0.5-3.2,0.8-2.7,1.6c1-0.5,1.8-1,3-1.3c-0.4,1-2.1,0.7-2.7,1.6c1,0.8,2.1-1.7,3.2-0.8
	c-0.8,0.4-2,0.5-2.4,1.3c1.3,0.2,2.1-1.5,3-0.8c-0.3,0.9-2.1,0.3-2.2,1.3c1.4,0.2,1.6-0.7,2.7-0.8c-0.1,0.9-1.7,0.5-1.9,1.3
	c1,0.3,1.7-1.1,2.2-0.5c-0.5,0.4-1.4,0.4-1.6,1.1c0.6,0.4,1.1,0.9,1.3,1.6c0.7,0,0.9-0.5,1.3-0.8c-0.6-0.4-1,0.7-1.1,0
	c0.4-0.1,0.7-0.4,1.1-0.5c-0.1,0.5,0.3,0.6,0.3,1.1c-0.5,0.1-1.2,0.1-1.1,0.8c0.7,0.2,1.1-1.2,1.6-0.3c-0.5,0.1-1.2,0.1-1.1,0.8
	c0.6,0.9,1-1,1.3-0.3c-1.1,0.4-0.6,0.7-0.3,1.6c0.5,0.3,0.9-0.8,1.1,0c-0.3,0.1-0.6,0.4-0.3,0.5c0.9-0.7-0.2,0.7,1.1,0
	c-0.9,1.2-0.3,0.7,0.3,0.8c-1.3,0.7,0.5,1.7,0,2.2c-1.1-1.7-1.9-3.7-4-4.3c-0.6,2.9-1.8,5.2-1.9,8.6c3.7,2.1,8.3,2.6,13.5,1.6
	c1.9-5.9,4.8-10.7,8.6-14.6c-1.5,0.7-0.4,0.1-1.3-0.3c-1,0.9-1.8,2.2-2.7,3.2c1.2-0.4,1.3-1.9,2.7-2.2c-1.6,1.3-2.9,4.3-4.3,4.9
	c0.6-0.3,1.7-2.6,1.3-2.2c-0.5,0.5-0.8,1.1-1.3,1.6c0.5-2.6,3.5-4.1,3.8-5.9c-1.2,1.2-2,2.8-3.5,3.8c0-0.8,1.6-1.3,0.8-1.9
	c-0.4,0.4-0.9,1.9-1.3,1.3c0.2-0.7,0.8-1,1.1-1.6c-1-0.1-1.2,2-1.9,1.3c0.7-0.6,1.6-2.8,2.4-1.6c-0.2-0.9,0.5-0.8,0-1.3
	c-1.3,0.6-1.7,2.1-3,2.7c0-0.5,0.7-0.3,0.5-1.1c-0.7-0.4-0.8,1.1-1.1,0.3c0.9-1.3,2.3-2.2,3.2-3.5c-1-0.1-2.1,2.1-3.2,2.7
	c-0.1-0.6-0.4-0.3-0.8-0.5c0.4-0.7,2.4-1.7,1.3-2.2c-0.4,0.7-1.5,2.1-2.2,1.6c0.6-1,2-1.3,2.4-2.4c-1.4,0.3-1.5,1.7-3,1.9
	c0.3-0.7,1.1-0.9,1.3-1.6c-0.9,0.1-0.9,1.1-1.9,1.1c0.2-0.5,1.7-1.8,1.1-1.3c-0.6,0.2-0.8,0.8-1.6,0.8c0.2-0.9,1.4-0.8,1.6-1.6
	c-1-0.1-1.6,1.4-2.2,0.8c0.7-0.6,2.6-1.4,2.2-2.2c-0.7,0.8-1.7,1.3-2.7,1.9c0.6-1.4,3.5-1.9,3.2-3.2c-0.9,1-2.9,2.3-3.8,2.4
	c1-1,3.5-1.9,3.2-3.2c-2.1,1.7-4.6,3.1-6.7,4.9c0.1-0.6,0.8-0.6,1.1-1.1c-0.8-0.1-1.1,0.4-1.6,0.5c-0.1-0.5,1.3-0.8,0.5-1.1
	c-0.2,0.2-1,1.1-1.1,0.5c1.8-1.6,4.6-2.3,6.2-4c-2.7,0.8-4.7,2.4-6.7,3.8c1.6-2.6,6.2-3.3,7.3-5.7c-2.1,0.8-3.8,3.4-5.9,3.2
	c2.1-1.1,4.3-2.2,5.7-4c-2.1,0.8-5.4,4.1-7.8,4.6c1.7-1.7,5.7-2.6,6.2-4.6c-2.2,1.2-4.9,3.4-6.7,4c0.6-0.2,1.3-0.4,1.3-1.1
	c-1.1,0.5-2.7,2-3.8,1.6c0.8-0.1,2.4-0.8,1.9-1.3c-0.2,0.3-1.3,1-1.3,0.5c0.4-0.3,1-0.3,1.1-0.8c-0.5-0.3-0.9,0.8-1.1,0
	c3.2-1.9,6.8-3.4,9.2-6.2c-2.4,1.6-4.4,3.5-7.3,4.6c1.7-1.7,4.5-2.4,5.9-4.3C111.5,93.1,109.4,94.5,106.9,95.5L106.9,95.5z
	 M100.2,101.4L100.2,101.4c0.3-0.6,1.5-0.3,1.6-1.1C101,100.3,99.7,101.1,100.2,101.4L100.2,101.4z M120.9,105L120.9,105
	c1.1-0.2,1.3-1.2,2.2-1.6C122.1,103.6,121.4,104.2,120.9,105L120.9,105z M117.2,97.1L117.2,97.1c-1.9,1.3-3.9,2.5-5.9,3.8
	C114,100.4,115.5,98.7,117.2,97.1L117.2,97.1z M109.6,97.1L109.6,97.1c1.3-0.9,4.2-1.5,4-3C112.8,95.4,109.9,96.1,109.6,97.1
	L109.6,97.1z M108,97.1L108,97.1c2.5-0.6,3.7-2.6,6.2-3.2c-0.4-1.1,2.1-1.4,0.5-1.9C113.3,94.5,109.9,95.1,108,97.1L108,97.1z
	 M110.4,92.6L110.4,92.6c1.2-0.8,2.8-1.1,3.2-2.7c-0.9-0.5-2.1,0.6-2.7,1.3c0.8,0.1,1.5-1.1,1.9-0.5c-1.1,0.3-2.3,2-3.2,1.6
	c0.4-0.3,1.1-0.3,1.3-0.8c-0.4-0.7-0.8,0.5-1.1-0.3c1.6-0.6,2.7-1.7,4-2.4c0,0.3-0.2,0.3-0.3,0.5c1.1,0.1,0.9-0.8,0.3-1.1
	c-0.9,0-1.6,1.6-2.2,1.1c0.2-0.7,1.1-0.7,1.1-1.6c-1.5,0.4-2.2,1.5-3.5,2.2c0.6,2.5-0.8,3.3-1.1,4.9c1.7-1.2,3.8-2,5.1-3.5
	C112.3,91.3,111.2,92.9,110.4,92.6L110.4,92.6z M118.5,89.1L118.5,89.1c1.5,1.2,3.1,3.9,4.8,4c-0.2-0.8-1.6-0.4-1.3-1.6
	c0.8,0.5,2.8,2.1,1.6,2.2c0.2,0,0.3,0,0.3,0.3c0.3,0,0.4,0.4,0.5,0c-0.1,0-0.3-0.2,0-0.3c0.3,0,0.4,0.4,0.5,0
	c-0.5-0.4-1.3-0.7-1.3-1.6c0.5,0,0.3,0.7,1.1,0.5c2,2.3,1.1,1.3,0-0.8c0.7-0.9,1.1,2.3,1.3,1.3c0-0.5-0.7-0.3-0.5-1.1
	c0.4-0.1,0.7,1,0.8,0.3c-1.4-1.3-2.6-4.2-4.3-4.3c0.4,0.3,1.6,1.1,1.1,1.3c-0.7-0.2-1.4-1.8-1.9-1.3c0.4,0.9,1.8,0.9,1.9,2.2
	C121.2,92.1,119.4,88.8,118.5,89.1L118.5,89.1z M117.4,90.1L117.4,90.1c-0.5,0.4-1.7,1.3-0.8,1.6c-0.1,0.4-0.3,0.5,0,0.8
	c1.3,0,1.8-0.7,2.7-1.1c-0.5,0.8-1.3,1.3-2.4,1.3c-0.1,0.5,0.4,0.5,0.5,0.8c-0.2,0.1-0.5,0-0.5,0.3c1.3-0.4,1.7-1.3,3-2.2
	c-0.4-0.1-0.5-0.4-0.8-0.5c-0.6,0.3-1.8,1.4-2.4,0.8c1-0.3,1.9-0.6,2.4-1.3c-1.3-0.4-2-2.3-3-1.1c0.8,0.1,1.6,0.2,1.9,0.8
	c-1.4,0.4,0.3,0.4,0.3,0.5c-0.4,0-1.1,1-1.3,0.3C118,91.3,116.7,90.5,117.4,90.1L117.4,90.1z M116.9,94.7L116.9,94.7
	c0.2,0.1,0.5,0,0.5,0.3c-0.4-0.1-0.7,0.4-0.3,0.5c0.1-0.6,1.5,0,1.3-0.8c-1.4,0.3-0.1-0.6-0.8-0.8C117.7,94.4,116.8,94.1,116.9,94.7
	L116.9,94.7z M120.9,94.4L120.9,94.4c-1.5,0.3-2.7,0.9-3.8,1.6c1.1-0.2,0.9,0.9,1.3,1.3c-0.2,0.1-0.5,0-0.5,0.3
	c0.8,0.1,1.4-0.1,1.6-0.5c-1.3,0.1-0.5-0.3-0.3-0.8c-0.4,0-0.6,0.1-0.8,0.3c0.5-0.6-0.1-0.3-0.3-0.8
	C119.3,95.5,120.4,95.3,120.9,94.4L120.9,94.4z M121.5,100.9L121.5,100.9c0,0.3-0.3,0.4-0.3,0.8c0.7,0.3,2.3,0.2,1.9-0.3
	c-0.5-0.3-0.9,0.8-1.1,0c0.4-0.4,1.4-0.2,1.6-0.8c-1.1-0.3-1.2,0.4-1.9,0.5c0.5-1.2-0.3-0.4-0.5-0.8c0.4-1,2.2,1,2.2-0.5
	c-0.9,0.5-1.7-0.3-2.7,0.3c0.7-0.7-0.4-0.3-0.5-0.8c1-0.3-0.1-0.9-0.3-1.3c0.7-0.5,1.7-0.6,2.4-1.1c-1.1-0.7-1.6,1.2-3.2,0.8
	C119.4,98.5,119.6,100.8,121.5,100.9L121.5,100.9z M121.8,99.3L121.8,99.3c0.3,0.1,0.4,0.3,0.5,0.5c0.5,0.1,1.6-0.5,0.8-0.8
	c0,0.4-0.7,0.3-0.8,0c0.2-0.1,0.5,0,0.5-0.3C122.3,98.8,121.9,98.9,121.8,99.3L121.8,99.3z M119.3,96.1L119.3,96.1
	c0.5,0.3,0.9-0.8,1.1,0c-0.2,0-0.4,0-0.5,0c0,0.7,0.4,0.5,0,1.1c1,0,1.5-0.4,1.9-1.1c-0.4-0.2-0.5-0.6-0.5-1.1
	C120.4,95.2,119.7,95.4,119.3,96.1L119.3,96.1z M118.8,94.7L118.8,94.7c0.9-0.1,1.6-0.3,1.9-1.1C119.9,93.8,119.1,94.1,118.8,94.7
	L118.8,94.7z M118.5,94.2L118.5,94.2c0.7-0.2,2.4-0.7,1.6-1.3C120,93.6,118.7,93.4,118.5,94.2L118.5,94.2z M118.2,93.6L118.2,93.6
	c0.8-0.2,1.7-0.5,1.9-1.3C119.3,92.5,118.5,92.8,118.2,93.6L118.2,93.6z M129.8,89.9L129.8,89.9c1.1,0.1,1.6,0.9,2.2,1.6
	c-0.7-0.3-1.5-1.9-2.4-1.1c0.4-0.2,1.2,0.5,0.5,0.5c-0.5-0.3-2.2-1-2.4,0c6,0.4,3.5,7.2-3,4.3c0.3,1.3,2.5,0.7,3.5,1.3
	c-2.5,0,0.1,0.1-0.3,1.1c1.2,0.2,2.8,0.1,3.8,0.5c-1.7,0.3-3.2-0.5-4.3,0c0.5-1.2-3.3-1.4-0.3-0.5c0.9,2.4,7,3.2,10.5,3
	c-0.3-0.8-0.7,0-1.1-0.5c0.2-0.1,0.5,0,0.5-0.3c-0.3,0-0.8,0-0.8-0.3c0.7,0.1,2,0.2,1.3,0.8c1-0.5,2.5-0.2,3.5,0
	c-2.6-1.2-6.2-1.3-8.4-3c4.3,0.9,3.3-3.5,6.7-3.5c-0.7-1.7-3.6-2.8-5.7-1.6c-0.5-1-0.9-2.2-2.2-2.4c-0.3,0.8,1.3,1,0.5,1.3
	C131.8,90.6,130.8,89.1,129.8,89.9L129.8,89.9z M92.1,100.9L92.1,100.9C93.7,97,96.2,94,98,90.4C95.3,94,92,97,90.8,102
	c2.7-0.8,4.9-1,7.8-2.2c2.9-1.1,8-3.9,9.4-6.2c0.5-0.8,1.8-2.9,0-3.8C106.5,97.3,98.3,98.1,92.1,100.9L92.1,100.9z M130.6,94.7
	L130.6,94.7c0.9-2-1.1-3.3-3.5-3C127.8,93.1,129.4,94.8,130.6,94.7L130.6,94.7z M72.7,94.7L72.7,94.7c1,0.3,1.4,1.3,2.4,1.6
	C74.9,95.2,73.7,93.4,72.7,94.7L72.7,94.7z M71.6,95.3L71.6,95.3c4.4,1.1,5.4,5.8,9.2,7.5c0.9-0.6-1.4-0.9-0.5-1.3
	c0.4,0.8,2.1,1.1,0.5,1.6c0.3,0,0.5,0,0.8,0c2.7,1.7,1.6,0.8,0.3-0.3c2.4,1,2.9,0.6,5.9,0.3c-1.1-0.3-1.4,0.1-2.4-0.5
	c1.1-0.3,2,0.7,2.2-0.3c-2.6-0.3-4.4-1.5-5.9-2.2c0.3,0.1,0.5,0.7,0.3,0.5c-1.4-0.8-3.6-3.5-3.8-5.9c0.4,1.8,1.8,4.2,3,4.3
	c-1.9-1.8-3.3-5-4-6.5c-0.1,0.4,0.3,1.4-0.3,1.3c0-0.4,0.1-1-0.3-1.1c-0.2,1.1-0.2,1.1,0,2.2c-0.3,0-0.3,0.2-0.5,0.3
	c-0.5,0-0.3-0.7-1.1-0.5c0.7,1.1,0.8,3.1,1.6,2.2c-0.6,1,1.2,1,0.8,1.9c0.3-0.5,1.2,0.9,1.6,0.5c-0.3-0.1-0.6-0.3-0.5-0.8
	c0.3,0,0.3-0.2,0.5-0.3c0.8,1,2,1.6,2.4,3c-0.9-0.3-0.5,0.1-0.8-0.5c-0.2,0.5-0.9,0.5-1.3,0.8C76.9,99.3,75.3,95.1,71.6,95.3
	L71.6,95.3z M156.2,94.7L156.2,94.7c1.1,0.2,1.4-0.4,1.9-0.8c-0.8-0.1-1.1,0.6-1.6,0C156.5,94.3,156.4,94.5,156.2,94.7L156.2,94.7z
	 M158.7,96.3L158.7,96.3c-0.4,1.3-2.3-0.5-1.1,1.1c-0.4,0-0.6,0.1-0.8,0.3c-5.6-0.4,1.9,1.2,1.6,1.1c-0.3,0.6,0.4,1.3,0.5,0.5
	c-0.4-0.7-0.8-0.6-1.1-0.8c1-0.7,1.2,0.9,1.3-0.5c0.2,0.5,0.7,0.8,0.8,1.3c-0.3,0.4-0.4,0.8-0.8,1.1c-0.1-0.3-0.4-0.6-0.5-0.3
	c0.4,0.6,0.1,1-0.3,1.6c1.3-0.5,1.6-2,2.4-3c0.1-1-1.5-1.7-1.1-2.2c0.7-0.2,0.8,1.7,1.1,1.1c0.2-1-0.8-0.8-0.8-1.6
	c0.3,0,0.3,0.2,0.5,0.3c-0.3-0.8-0.4-1.7-1.6-1.6c-0.7,0.4,0.5,0.8-0.3,1.1c-0.3-0.2-2-0.8-1.3-0.3
	C157.7,95.8,158.4,95.9,158.7,96.3L158.7,96.3z M132.3,103.3L132.3,103.3c-0.5,0.7,3.2,1.8,3.5,3.5c-0.8-0.4-1.1-1.2-1.9-1.6
	c0.2,1.3,1.6,1.4,1.9,2.7c-0.8-0.1-1-2.2-1.9-1.3c0.8,1,1.9,1.9,2.4,3.2c-1.1-0.5-1.1-2-2.2-2.4c-0.1,1.4,1.4,1.3,1.3,2.7
	c-0.7-0.2-0.6-1.2-1.3-1.3c0.1,1.2,2.2,2.2,0.8,3.2c-0.1-0.5-0.7-1.8-1.1-1.1c0.6,0.4,0.8,1.2,1.1,1.9c-0.7-0.3-0.7-1.2-1.3-1.6
	c0.1,1.6,1.9,4.8,0.5,7.3c5,0.1,5.5-6.9,3.8-9.7c1.3,1.1,3.6,0.8,5.9,0.3c-0.3-2.5-3.6-2.1-4.6-4c5.1,1.4,9.4-2.4,11.9-5.4
	c-2.5,2.1-5.5,5-9.4,4.9c2.6-0.6,4.9-1.5,6.7-3c-1.9,0.4-3.7,2.3-5.7,1.6c2.8-0.6,6.2-1.9,7-3.5c-1.8,1.3-4.5,3-7,2.7
	c2-0.5,5.2-1.3,5.7-2.4c-4.2,1.5-9.1,2.1-13.2,1.6c-5.3-0.6-6.6-2.4-10-4c-0.2-0.1-1,0.1-1.1,0c-0.5-0.4-1.4-2.5-2.2-1.6
	c1.6,1.9,4.9,5.6,9.4,7.3c-2.9-0.5-5.1-3-7-3.5C126.1,101.6,129.3,103.4,132.3,103.3L132.3,103.3z M121.8,97.7L121.8,97.7
	c-1.2-0.2-0.6,0.5-0.5,1.1c0.7,0.1,1.2-0.1,1.1-0.8c-0.5-0.1-0.5,0.4-0.8,0.5C121.5,98.1,121.6,97.9,121.8,97.7L121.8,97.7z
	 M158.1,100.6L158.1,100.6c-0.8,0.1,0.7-0.8-0.3-0.8c-0.2,0.8-1.1,0.9-1.9,1.1c-0.3-0.3-1-1.5-1.3-0.8c0.5,0-0.3,0.9,0,1.6
	c0.6,0.2,0.9,0.7,1.9,0.5c0.1-0.9,0.8-0.4,0-1.1C157.5,101.1,157.7,100.7,158.1,100.6L158.1,100.6z M118.2,101.7L118.2,101.7
	c0.3-0.6,1.3-0.4,1.3-1.3C118.9,100.4,117.8,101.5,118.2,101.7L118.2,101.7z M91.3,103.6L91.3,103.6c0.9-0.2,2-0.2,2.4-0.8
	C92.8,103,91.8,103,91.3,103.6L91.3,103.6z M88.6,104.1L88.6,104.1c5.1-0.3-0.9-1-1.9,0C87.5,104.1,88,104.2,88.6,104.1L88.6,104.1z
	 M87.5,104.4L87.5,104.4c-1.4,0.4-2.7-0.7-3.5,0C85.2,104.3,87.2,105.4,87.5,104.4L87.5,104.4z M159.5,106.6L159.5,106.6
	c-1.2-0.5-2.1-1.4-3.5-1.1C157.2,105.6,158.6,107,159.5,106.6L159.5,106.6z M106.1,109L106.1,109c-3.6,1.8-5.9,4.9-9.7,6.5
	c4.3,0.2,5.1-4.6,8.4-4.6c-3.1,1.3-3.9,4.9-8.4,4.9c-0.2-0.9-1-1.2-1.6-1.6c-1.8,2.1,1.2,3.8,2.7,3.5c-0.2,0.3-1.1,1.2-0.3,1.6
	c0-1.1,1-1.5,0.8-2.2c0.6,0.9-0.6,1.8-0.8,2.7c0.9,0.2,1.2-1.5,1.6-0.8c-2.2,1.2,0.5,0.8,0,1.6c1.6-1.5,4.7-3.1,5.1-4.9
	c-1.6,1.4-3,2.9-4.9,4c0.4-0.7,2.4-2.3,1.9-2.2c-0.6,0-1,1.5-1.3,0.8c1.5-1.6,4.1-3.4,4.9-4.9c-1.7,1.3-3,3-4.9,4
	c0.7-0.9,1.5-1.7,2.4-2.4c-0.8-0.4-1.4,1.8-2.7,1.9c1.6-1.8,3.3-3.6,5.4-4.8c0.1,0.5-0.9,1.4-0.3,0.8c0.5-0.5,0.7-1.5,0.8-1.9
	c-1.6,1.5-4.1,3.7-5.4,4.6C101.6,112.6,106.1,111.6,106.1,109L106.1,109z M98,120.3L98,120.3c-0.6,0.8-0.1,1.2-0.8,1.6
	c0.3,0.1,0.2,0.3,0,0.5c1.7,0.1,0.2-1.6,1.6-1.3C98.9,120.5,98.6,120.3,98,120.3L98,120.3z M123.4,110.6L123.4,110.6
	c-0.7,1.7-2,2.8-2.4,4.9c2.4-1.2,5-2.3,7.3-3.8C126.6,111.3,125.2,110.7,123.4,110.6L123.4,110.6z M146,113.6L146,113.6
	c-1.3-0.6-2.7-2.5-3.8-2.4C143.5,111.8,144.9,113.7,146,113.6L146,113.6z M132.8,122.5L132.8,122.5c-0.3-0.6-0.9-1.7-1.1-1.9
	c-0.9-1-0.2,0.6-0.5-0.8c-0.5-2.1-2.5-4.5-3.2-6.5c-1.7,1.7-6.2,1.6-7.8,3.8c-0.4,0.6,0,1.6-0.5,2.4c-2,3.2-10.6,0.4-12.1,4.9
	c-0.7-0.5-3,0.4-2.7,1.1c-0.8-0.3-2.7,0.7-3.2,1.6c0.6,0.4,0.9-0.7,1.3,0.5c-0.4,0-0.5,1.4-0.8,0.5c-0.1-0.4,1-0.7,0.3-0.8
	c-0.1,0.4-0.6,0.3-0.8,0.5c0.1-0.6-0.1-1-0.5-1.1c-0.5,1.4-2.5,0.7-3.8,2.4c2.5,0.1,4.7,1.7,7,1.1c-0.5,0.6,0.1,0.3,0.3,0.8
	c3.7,0.3,6.6,2.5,9.4,1.9c-0.1,0.8,0.7,0.8,1.1,1.1c6.4,1,17.2,5.4,25.3,6.5c-0.1,0.9,1.9,1.2,2.2,0.8
	C139.2,135.4,136,128.5,132.8,122.5L132.8,122.5z M96.2,129.2L96.2,129.2c-3.4,2.2-7.4,3.9-11,5.9c1.6,3.8,3.9,6.9,5.4,10.8
	c17.4,4.6,34.4,9.6,52,14c1.9-4.7,2.4-13.2,0.3-17.5C127.2,138,111.9,133.4,96.2,129.2L96.2,129.2z M103.7,115.5L103.7,115.5
	c-3.7,2.3,0.1,1,0.5-0.8C104.2,115,103.8,115.1,103.7,115.5L103.7,115.5z M148.7,117.1L148.7,117.1c-1-0.2-2-1.8-2.7-1.3
	C147,115.9,147.8,117.7,148.7,117.1L148.7,117.1z M141.2,130L141.2,130c1.6,2.1,5.2-1.5,2.7-2.7c-0.1,1.4-2.4,1.9-3.2,0.8
	c0,0.7,0.5,0.9,0.8,1.3c0.3-0.2,1.6-0.9,1.9-0.3C142.7,129.6,141.3,129.2,141.2,130L141.2,130z M122.3,174.2L122.3,174.2
	c9.5-0.8,16.3-6.7,19.7-13.7c-16.2-4-34.3-9.9-50.9-13.5C97.6,158.8,103.5,175.8,122.3,174.2L122.3,174.2z M82.1,85L82.1,85
	c1.3,1.4,2.6-0.4,2.4-1.1C83.9,84.5,82.5,84.9,82.1,85L82.1,85z M70.3,65.3L70.3,65.3c1.7,0.1,1.4-0.4,0-0.3
	c-2.1,0.2-3.5,1.5-4.9,2.4c0.9,0.3,1.2-0.2,1.6,0.3c-0.7-0.3-1.3,1.3-0.8,0.5C67,68,69,67.6,68.4,67c-0.1,0.3-0.4,0.6-0.5,0.3
	c0.5-0.2,0.8-0.9,1.1,0c-1,1-2.2,1.8-3.2,2.7c0.5-0.6-0.1-0.6-0.5-0.3c0.7-1.1-0.2-0.3-0.5-0.8c0.4-0.5,0.6-1.1,0-1.9
	c-0.8,1.3-1.8-0.6-2.4,0c0.4,0.2,0.9,0.4,0.8,1.1c-0.4-0.1-0.5-0.4-0.8-0.5c-0.2,0.9,1.1,0.3,0.8,1.3c-0.6-0.4-1.2-0.8-1.6-1.3
	c-0.3,1.5,0.9,1.6,1.6,2.2c-0.1,0.4-1.1,1.7-0.5,1.1c0.6,0,1-1.5,1.3-0.8c-0.1,0.7-1.4,1.5-0.8,1.9c-0.1-0.3,0.8-0.9,0.8-0.3
	c-1.1,1.6-1.6,3.7-0.3,5.1c-0.3-1.3,0.3-1.8-0.5-2.4c0.3-0.9,1.7-2.8,0.5-3.5c0.3,0,0.3-0.2,0.5-0.3c0.4,0.6-0.1,1.5,0.3,1.6
	c1.1-0.8,4.1-3.7,1.9-1.1c0.8,0.3,1-1.3,1.3-0.5c-0.7,0.8,0,3.5,1.1,2.4c-0.6-0.5,1-2.4-0.3-2.2c0.1-1.8,1.4-1.3,1.3-2.7
	c0,0.1-0.2,0.3-0.3,0c0.4-0.7,1,0.3,1.1-0.3c-0.9-0.5,0.8-0.6,0.8-1.1c-1-0.3-1.5,1.1-2.2,0.3c0.4-1,2.5-0.4,3-1.3
	c-1.2-0.1-2.9,0.9-3.5,0.5C68.9,65.6,69.8,65.7,70.3,65.3L70.3,65.3z M69.2,70.2L69.2,70.2c1.6-3.3,7.7-3.8,9.2,0
	C77.9,64.9,68.5,67.3,69.2,70.2L69.2,70.2z M64.4,72.9L64.4,72.9c0.6-0.3,1-0.8,1.3-1.3C64.6,71.2,63.9,74.2,64.4,72.9L64.4,72.9z
	 M64.6,76.9L64.6,76.9c0.5,0.2,1.6-0.3,1.6,0.3c-1.1-0.1,0.3,1-1.1,0.8c0-0.3,0.3-0.4,0.3-0.8c-0.4,0-1-0.1-1.1,0.3
	c0.5,0,0.6,0.3,0.5,0.8c1.6,0.5,2.9-1.4,1.6-2.2C66.6,77,63.9,76.4,64.6,76.9L64.6,76.9z M62.2,74.8L62.2,74.8
	c-0.4-0.9,0.7-2.3-0.3-2.2C61.4,73.1,61.8,74.3,62.2,74.8L62.2,74.8z M71.6,105.2L71.6,105.2c0.1-0.8-1.2-1.6-1.6-1.1
	C70.7,104.3,70.7,105.3,71.6,105.2L71.6,105.2z M71.9,127.6L71.9,127.6c-1.5,0.5-2,2-2.7,3.2C70.5,130.1,70.8,128.5,71.9,127.6
	L71.9,127.6z M68.4,112.8L68.4,112.8c-1.6-0.5-0.7,0.2-1.9,1.1c0-0.3,0.4-0.4,0-0.5c-0.8,0.4,0,1.2-1.3,1.3c0-1.6,2.5-2,2.2-3
	c-1.9,1-3.6,4.5-2.4,6.2c0.7-2.8,2.1-4.9,5.9-4.6c0.2-1.8-2-2.3-3-1.3c0.6-0.3,1.3,0.4,0.5,0.5C68.3,112.1,68.1,112.5,68.4,112.8
	L68.4,112.8z M78.9,137.8L78.9,137.8c0.2-2.5-4.3-2.1-4-0.5c0.2-0.7,2-1.2,2.7-0.5c-1.3,0-2,0-0.8,0.5c-0.8,0-1.8-0.2-1.9,0.5
	c2-0.3,2.8,0.6,3.5,1.6c0-0.3,0.3-0.4,0.3-0.8c0-0.2,0-0.3-0.3-0.3c-0.1,0.4-0.4,0-0.5-0.3C78.7,138.2,77.9,137.5,78.9,137.8
	L78.9,137.8z M89.4,176.4L89.4,176.4c2.9-0.4,4.6-0.8,4.9-4c-0.8,0.6-1.5,3.6-1.9,2.2C91.9,175.6,90.4,175.7,89.4,176.4L89.4,176.4z
	 M74.9,157.2L74.9,157.2c0.6,1.8,1,3.3,0.5,4.3c-0.2-1.1-1.3-5.7-1.1-3.8c0.1,1.8,0.3,2.4,0,3.5c-0.6-2.5-0.5-6.1-2.7-6.7
	c0.1,1,0.9,2.7,0.3,3.5c-0.3-1.3-0.4-4.1-1.3-3.8c0.4,0,0.4,1.8,0,1.9c-0.8-0.7,0.3-3.2-0.8-3.5c0,1.1,0.4,1.5,0,2.2
	c-0.6-0.1-0.1-1.3-0.3-1.9c-1.1-0.1,0.3,0.7-0.8,0.8c-0.1-1.3-0.1-2.8-1.1-3.2c0.4,4.3,2.7,8.3-0.3,11.6c0.7,0.6,1.3,1.4,3,1.1
	c1.2-0.5,0.6-3,1.9-3.5c0,0.5,0.7,0.3,0.5,1.1c-0.2,1-1.8,2-0.8,3.2c0-1.7,1.1-2.2,1.3-3.5c0.4,1.7-1.1,1.6-1.1,3
	c0.9,1.6,1.2,3.3,0.8,4.3c1-0.6-0.1-2.5,0.8-2.7c0.3,0.7,0,1.9,0.3,1.3c0.9-0.1-0.7-1,0.3-1.1c0.4,0,0.2,0.5,0.5,0.5
	c0-0.3,0.1-0.6,0.5-0.5c-0.4,1-1.6,3.4-1.6,1.6c0.1,1-1.3,1.9-1.9,1.3c1.3-0.4,0.9-3.5,0-4c0.8,1.9,0,4.1-1.1,5.1
	c5.4,1.4,5.5-5.4,6.2-8.1c0.9,0.7,0.8,2.5,1.9,3c-0.6-1.4-0.9-4-2.7-3.2C76,159.5,75.6,158.2,74.9,157.2L74.9,157.2z M79.7,138.1
	L79.7,138.1c-2.1,7.5-13.3,3.1-11.9-4.6c-1.6,6.7,6,10.9,11,7.8c-1.4,1.5-5.2,2.3-7.3,0.8c0.6,1.5,3.6,0.7,5.1,1.3
	c-0.5,0.1-2.4,0.2-1.9,0.5c1.3-0.2,1.5-0.3,1.9,0.8c-1.9,0.2-3.9-0.6-5.1-1.6c-1-0.8-3.8-4.7-3-3.2c1.7,3.3,3.8,3.3,6.2,6.2
	c-4.1-2.1-7-5.4-8.1-10.5c0.4,6.3,4.9,8.4,8.4,11.6c-3.7-2.1-7.2-4.5-8.4-9.2c-0.3,0.1-0.2,0.3,0,0.5c0.9,4,3.8,5.9,6.2,8.4
	c-1.8-1-3.1-2.5-4.6-3.8c-0.3,0.6-0.3,0.6,0.3,0.3c1.9,2.8,5.9,4.9,8.1,6.5c-0.4,0.1-0.2,0.6,0,0.8c1.8,0.5,3.8,2.3,5.4,3.8
	c-2.4-1.4-5.1-3.9-7.5-4.3c1,1,3.8,1.6,3.8,2.7c-3.1-2.2-7.5-4.5-10-6.5c0.3-0.1,0.9,0.8,0.3,0.8c-0.1-0.3-0.4-0.6-0.5-0.3
	c3,1.6,6.6,4.4,9.7,6.7c-3-1.4-6-4.2-8.4-5.4c2.2,2.5,6.8,4,8.1,6.5c-3-2.3-7.1-4.9-9.4-7c1.9,2.3,4.4,4.1,6.7,5.9
	c-3-1.3-6.6-4.9-7.5-6.5c1.9,4.4,7.7,6.3,9.7,9.7c-0.3,0-0.3,0.2-0.5,0.3c0.7-0.8-2.3-2.5-4.3-4c-1.9-1.4-3.1-3.1-4.3-3.5
	c2.3,2.9,5.6,4.8,8.1,7.5c-1.1-0.5,0.8,2,0.5,3.2c2,0.2,2.1,2.2,3,3.5c-0.3,0.5-1.2,0.4-1.1,1.3c3.8,0.3,1.3-4,2.4-5.4
	c3.8,5.5,15.4,6.2,14,14.3c1.8-4.1-2.7-6.9-4-8.6c1.5,1,2.9,2.1,4,3.5c-0.6-2-3.6-3.1-4-4.3c2,0.5,3.4,3.1,4.6,3.5
	c-1-1.6-2.5-2.6-3.5-4c1.9,1.4,5.3,5,2.7,1.6c-0.9-1.2-2.7-2.1-3.8-3.8c1.6,1.3,3.4,2.5,4.6,4.3c0-2-2.4-2.9-2.4-4
	c1,0.5,1.3,1.5,2.2,2.2c-1.7-3.4-5.1-5.1-7.8-7.5c3.3,1,5.3,4.7,7.8,5.7c-0.9-1-1.9-1.9-2.7-3c0.9,0.2,1.8,1.9,2.4,1.6
	c-0.4-0.2-0.9-0.4-0.8-1.1c0.6,0.9,0.5-0.6,0.5-0.5c-0.4-3.9-5.7-7.7-8.6-9.2c-3.2-1.6-7.7-2-8.6-5.1c0.6-2,4.2-2.5,3.2-5.1
	c-0.3,0.6-0.4,1.4-1.3,1.3c0.3-0.5,1.7-1.3,0.8-2.2c0.2,0.4-0.5,1.2-0.5,0.5C79.5,139.5,80.4,138.5,79.7,138.1L79.7,138.1z
	 M68.4,144.3L68.4,144.3c1.8,2.3,4.3,3.8,6.7,5.4C73.1,147.9,70,145.7,68.4,144.3L68.4,144.3z M67.3,144.6L67.3,144.6
	c1.5,1.4,4.4,4.4,6.7,4.9c-2.8-1-4.8-4.2-6.7-5.1c0.3-0.1,0.9,0.8,0.3,0.8C67.5,144.9,67.6,144.6,67.3,144.6L67.3,144.6z
	 M95.9,172.1L95.9,172.1c0-1-0.5-2.9-1.1-2.4C95.6,170,94.9,171.9,95.9,172.1L95.9,172.1z M147.6,131.1L147.6,131.1
	c0.4,0.9-1,2.3-1.1,3.5c-0.4-1.5,1.1-2.5,0.5-3.2c-0.5,0.8-0.6,2.1-1.3,2.7c0.1-0.5,0.4-0.9,0-1.3c0,1.1-0.8,1.5-1.3,2.2
	c-0.2,3.9,2.5,4.8,5.1,5.9c-0.3,1.6-1.6,2.1-1.9,3.8c1.4-0.7,1.7-2.4,3-3.2c-0.8,2-3.7,3.8-2.7,5.9c0.9-1.7,2-3.2,3.5-4.3
	c-1.2,1.7-3.6,3.6-3.5,5.7c0.7-1.2,1.8-3.4,2.7-3.5c-0.7,1.3-3.4,3.3-2.4,4.6c0.7-1.6,2.1-4,3.2-4.3c-1.1,1.5-3.1,3.5-3.2,5.1
	c1-1.4,1.7-2.9,3-4c-0.6,1.8-2.9,3.3-2.7,4.9c0.9-1.4,1.9-2.8,3-4c-0.7,1.9-2.4,2.8-3,4.9c1.4-0.6,1.5-2.4,2.7-3.2
	c0.1,1.6-1.3,2.9-2.2,4.3c1.2-0.3,1.6-2.7,2.4-2.4c-0.4,1.2-2.3,2.1-1.9,3.2c1.8-2.1,4.9-4.2,5.1-7c-0.3,0.8-0.9,1.3-1.3,1.9
	c-0.1-1.1,1.7-1.7,1.1-2.4c-0.2,0.3-0.9,1.4-1.1,0.8c0.7,0,0.4-1.1,1.1-1.1c0.6,0.5,1-0.2,1.3,0.3c-0.4,0.1-0.5,0.3-0.8,0
	c0.7,3.8-4.8,5.1-4.6,8.4c0-1,0.7-1.3,0.8-2.2c3.5-1,2.9-6,6.7-6.7c-0.7,4.2,3,4.6,4.9,4c-0.3-1-2.2,0.3-2.4-1.3
	c0.6,0.6,1.6,1.2,1.6,0.3c0.3,0.3,1.6,0.9,1.9,0.3c-0.6-0.3-1.7-0.1-1.9-0.8c0.3,0.2,2.3,0.8,2.2-0.3c-5.9,0.1-2.8-7.2-2.7-10.2
	c-0.7,1.7-1.3,3.5-2.7,4.6c1-1.9,3.2-4.5,2.4-6.5c-0.6,1.3-1.1,2.7-2.2,3.5c0.4-1.2,2-2.7,1.6-3.8c-0.3,1.1-0.8,2-1.6,2.7
	c0.5-1.3,1.4-2.2,1.6-3.8c-1.9,2.2-3.2,5.1-5.1,7.3c1.1-2.7,4.2-5,4.3-7.8c-0.9,1.6-2,4.3-3.2,4.6c0.3-0.5,1.5-1.6,2.2-2.7
	c0.4-0.8,1.5-3.2,0.5-2.2c-0.2,1-1,1.3-1.1,2.4c-0.5-0.1-0.8,1.3-1.1,0.5c0.9-0.9,2.3-2.7,1.9-4c-0.8,1.3-1.1,3-2.4,3.8
	c0.6-1.3,2.3-2.9,1.9-4.3c-1.8,2-4.9,6.3-8.4,5.1c-2.8-0.9-2.2-5.4-1.1-7C148.9,130.9,147.8,130.5,147.6,131.1L147.6,131.1z
	 M148.7,152.6L148.7,152.6c0.8-0.6,2.2-2.1,1.9-3C150.1,150.8,149.3,151.6,148.7,152.6L148.7,152.6z M156,118.4L156,118.4
	c-1.2-0.1-1.8-0.9-3-1.1c3.4,1.4,5.3,4.2,7.5,6.7C160.5,121.4,157.7,120.2,156,118.4L156,118.4z M156.2,128.7L156.2,128.7
	c2.4,1.1,4.2,2.8,5.7,4.9C161.3,131,157.6,128.7,156.2,128.7L156.2,128.7z M147.4,152.1L147.4,152.1c-0.4-1.9-0.7-3.3-0.8-4.3
	C146,149.1,146.6,151.2,147.4,152.1L147.4,152.1z M146.5,152.4L146.5,152.4c0.4,2,2.6,3.7,3,4.9c-0.5,0-1.1-1.5-1.1-0.3
	c-0.1,2.1,4.4,3.5,5.1,4.9c-1.8-0.9-3.5-1.9-4.9-3.2c-0.3,0.7,0.2,1-0.5,1.1c0.5,0.3,0.6,1,1.1,1.3c0.3-0.7-1.2-0.9-0.3-1.3
	c1.2,1.7,3,2.8,4.6,4c-2-0.1-3-2.5-4.3-2.4c1.3,1.2,2.9,2.1,3.8,3.8c3.2,1.4,7-0.5,8.9,3c0.4,0.4-0.1,1.7,0.8,1.6
	c-0.6-1.1,0.9-1.7-0.5-2.4c-0.2,0.5,0.8,1.1,0,1.3c-0.1-2.4-2.9-3.2-4.3-3.5c0.2-0.5,1.3,0,1.3-0.5c-0.7,0-1.1-0.1-1.3-0.5
	c2.8,0.1,4.1,1.7,5.1,3.5c0.3-1.7-1.3-1.4-1.3-2.7c0.7,0,0.4,1.1,1.1,1.1c-0.9-1.4-0.9-2-1.9-3.2c1-0.1,0.7,1,1.6,0.8
	c-0.6-1.9-3.6-1.2-4.9-2.4c0.8-0.2,2.6,0.7,2.2,0c-0.7-0.1-1.5-0.1-1.9-0.5c0.4,0,0.9,0,1.3,0c-0.9-1.4,3-4.5-0.5-5.7
	c-1.6,7.2-10.4,1.4-11.3-2.4c0.4,2.3,2.4,3.2,3.2,5.1C148.9,156.2,147.8,154.2,146.5,152.4L146.5,152.4z M152.2,164.2L152.2,164.2
	c-1.6-0.8-2.9-3.2-4-3.5C149.4,161.9,150.6,164.4,152.2,164.2L152.2,164.2z M148.7,171L148.7,171c4.1,3.2,6.2-5,3.2-5.7
	c0.6,0.5,1.2,2.3,0.5,3.2c0.1-1.6-0.2-0.6-0.8-0.3c-0.2-0.6,0.3-1.8-0.3-1.9c-0.3,2.6-0.9-2.8-0.8-1.3c0,0.4,0.1,1-0.3,1.1
	c-0.4-1.6-1-4.4-2.2-4.3C150.1,164.4,150.7,168.2,148.7,171L148.7,171z M159.2,171.2L159.2,171.2c1.1-0.2,1.4-1.2,1.9-1.9
	c-1,1.2-3.6,1.5-4.6,0c-2.2,3.3,4,4.7,4.8,1.6c-1,0-1.5,1.9-2.4,1.1c0.9-0.1,2.2-1.2,1.9-1.6C160.6,170.8,159.6,171.9,159.2,171.2
	L159.2,171.2z M123.1,60.5L123.1,60.5c0.6,0.7,1.2-0.2,1.6,0.3c-0.4-0.9,0.6-1.9,0-2.2C124.2,59.2,123.4,59.6,123.1,60.5L123.1,60.5
	z M120.4,61.6L120.4,61.6c1-0.1,2.7-1.2,2.4-1.3C121.7,60.6,120,61,120.4,61.6L120.4,61.6z M117.2,59.9L117.2,59.9
	c1.7,1.2,3.7-1.2,3.2-2.7c-0.5,0.7-0.6,1.7-1.3,2.2c0.5-1.7-1.2,1-1.3,0.3c0.1-0.4,0.4-0.5,0.5-0.8c-0.6,0.1-1-1.5-1.6-0.5
	c1.4,0-0.5,2-0.8,1.1c0.6,0.2,1.2-0.7,0.5-0.8c-0.1,0.3-0.3,0.6-0.8,0.5c-0.1,1.2,0.5,1.5,0.5,1.9c0.4-0.5,0-0.3,0-1.1
	c0.9,0.1,1.4-1.5,1.9-0.8C117.6,59.3,117.3,59.6,117.2,59.9L117.2,59.9z M114.7,63.7L114.7,63.7c-0.2-1,0-1-0.3-1.6
	c-0.5-0.1-0.6,0.3-1.1,0.3c0-0.3-0.3-0.4-0.3-0.8c1.3,0.8,0.4-0.7-0.3,0C113.3,62.5,113.8,63.4,114.7,63.7L114.7,63.7z M112.9,60.2
	L112.9,60.2c-0.1,0.4-0.3,0.5,0,0.8c-0.3,0-0.6,0.1-0.5,0.5c0.7-0.1,1.1-0.5,1.6-0.8C113.2,61,113.4,60.2,112.9,60.2L112.9,60.2z
	 M119.6,46.7L119.6,46.7c0.5-0.2,1.3-0.1,1.6-0.5c-0.5,0-0.3-0.7-1.1-0.5C120.3,46.4,119.6,46.2,119.6,46.7L119.6,46.7z M119.3,48.1
	L119.3,48.1c0.2,0.1,0.3,0.2,0.3,0.5c1.3,0,1.5-1,1.9-1.9C119.9,46.3,120.1,47.7,119.3,48.1L119.3,48.1z M119.1,49.2L119.1,49.2
	c0.4,0,1-0.1,1.1,0.3c-0.4,0-1,0.1-0.5,0.3c1.7-0.4,1.8-1.1,2.2-2.2c-0.9,0-0.7,1.1-1.3,1.3c-1,0.1-1.2-0.4-1.6-0.8
	C118.7,48.6,119.1,48.7,119.1,49.2L119.1,49.2z M119.9,44.3L119.9,44.3c0,0.5-0.7,1.6,0,1.9C119.9,45.7,120.6,44.6,119.9,44.3
	L119.9,44.3z M123.1,55.9L123.1,55.9c-0.5-0.1-0.6,0.3-1.1,0.3c0.2-0.2,0.8-1.5,0.3-0.8c-0.3,0.6-1,0.8-1.1,1.6
	c3.1-0.9,2.8-3.1,2.4-5.7C123.4,52.8,123.1,54.4,123.1,55.9L123.1,55.9z M123.4,52.9L123.4,52.9c-1.3,1.2-3.2,3-3.2,3.8
	c-0.5-0.5-1.5,0.2-0.5,0.5c-1-0.2-1.5-0.4-1.9,0.5C120.5,58.1,122.2,54.3,123.4,52.9L123.4,52.9z M122.8,65.6L122.8,65.6
	c0.3-0.1,0.4-0.3,0.5-0.5c-0.7-0.2-0.5,0.5-1.1,0.5c0.9-0.5-0.7-0.9-0.8-0.3c0.2,0.1,0.5,0,0.5,0.3c-0.2,0-0.3,0-0.3,0.3
	c0.8-0.1,0.8,0.6,1.6,0.5c-0.3-0.7,1.2-0.9,0.3-1.3C123.6,65.3,123.1,66.4,122.8,65.6L122.8,65.6z M119.6,66.4L119.6,66.4
	c0.7,0.3,2.4,0.4,1.6-0.5C120.9,66.7,119.7,65.2,119.6,66.4L119.6,66.4z M146,74.8L146,74.8c0.7-0.2,1.1-0.7,1.6-1.1
	c-0.4,0-0.2-0.5-0.5-0.5C147.5,74.5,145.7,73.6,146,74.8L146,74.8z M159.5,165L159.5,165c1.3,0.3,1.9,1.3,2.7,2.2
	C162,165.9,160.4,164.7,159.5,165L159.5,165z"/>
<path class="st1" d="M151.4,59.7c0.8-0.2,4.3,2.7,1.6,0.8C152.7,60.2,152,60.1,151.4,59.7L151.4,59.7z"/>
<path class="st1" d="M106.7,57c0.8-0.2,0.7,0.4,1.3,0.3c0,0.4,0,0.8,0.3,0.8c-0.1,0.4-0.8,0.1-0.8,0.5c-0.4-0.1,0.1-0.3,0-0.8
	c-1.9,0.5-1,0.5-2.7,1.1c0.1,0.2,0.2,0.5,0.5,0.5c0.8,0-0.6-0.7,0.5-0.5c0,0.5-0.3,0.6-0.3,1.1c-0.4,0-0.9,0-1.3,0
	c0-0.3,0.5-0.2,0.8-0.3c-0.2-0.5-0.6-0.8-1.1-1.1C104.5,57.5,107.2,58.4,106.7,57L106.7,57z"/>
<path class="st1" d="M110.4,54.8c-1.1,0.1-1.2,1.3-2.2,1.6c-0.5-0.2,1.8-1.2,0.8-1.9c0.5-0.3,1.8-0.4,2.2-0.3
	c0.9-0.1-1.8,1.2-0.8,2.2c-0.5-1-0.8-0.1-1.6,0c0.1,0.2,0.3,0.3,0.3,0.5c0.6-0.2,2.5-0.3,1.6-1.1c0.2-0.3,0.6-0.3,0.5-0.8
	c0.2,0.8,0.1,1.9,0.5,2.4c-0.6,1.1-0.4-0.9-0.8-0.8c-0.7,0.2,0.5,1.2-0.3,1.6c-0.2-0.2-0.5-0.3-0.5,0c-0.7-0.1,0.4-0.5,0-1.1
	c-0.3,0.4-1.3,0.1-1.3,0.8c-0.8-0.2,0.4-0.4,0.3-0.8c-0.1-0.2-0.3-0.3-0.3-0.5c-0.3,1.1-2.2,0-1.3-0.8
	C108.1,57.7,109.9,55.6,110.4,54.8L110.4,54.8z"/>
<path class="st1" d="M112.3,62.6c0.2-0.6,1,0.4,0.8,1.1c-0.6-1.2-1.2,0.1,0,0.3c-1.2-0.1-3.2-0.9-4.9-0.3
	C108.7,61.6,112.4,63.9,112.3,62.6L112.3,62.6z"/>
<path class="st1" d="M111.8,62.1c0.2,0,0.3,0.1,0.3,0.3c0,0.2,0,0.4,0,0.5c-0.9-0.1-1.2-0.8-1.9-1.1c0.2-0.5,0.7-0.8,0.8-1.3
	c-0.1-0.6-0.9,0.3-0.8,0.8c-0.7-0.7,0.9-1.9,1.3-0.8c-0.1,0.4-1.1,0.5,0,0.5c-0.1,0.5-0.5,0.6-1.1,0.5c0.1,0.2,0.3,0.3,0.3,0.5
	c0.5,0,0.7-0.2,0.8-0.5C112.3,61.8,110.6,62.9,111.8,62.1L111.8,62.1z"/>
<path class="st1" d="M113.7,67.2c1-0.3,0.2,1.2,1.1,1.1c0.9-0.3-0.7-0.1-0.3-0.8c0.9-0.2,1,0.2,1.3,0.5c-0.1,0.6-0.7,0.5-1.1,0.8
	c0,0.3,0.3,0.2,0.5,0.3c-0.3,0.1-1,1.1-0.3,1.3c-0.6,0.2-2.1-1.6-3.5-0.5C112.1,68.9,113.6,68.8,113.7,67.2L113.7,67.2z M113.9,69.6
	L113.9,69.6c1.2,0,0.3-1.7-0.3-1.6c-0.1,0.8-0.4,1,0,1.3c0.1-0.3,0.3-0.6,0.5-0.8C114.2,69,114.1,69.4,113.9,69.6L113.9,69.6z"/>
<path class="st1" d="M118.2,65.3c-0.3-0.4-0.8-0.5-0.3-1.1c0.8,0.9-0.3,4.9-1.3,4.9c0.8,1.6,2.1,0.3,2.4-0.8
	c-0.2-0.3-0.5-0.4-0.8-0.5c0.9-1.4,4.4,0.8,5.4,0.5c-1.5,0.5-2.3-0.4-4-0.5c0.9,1.6,3.4,0.6,4.3,1.1c-0.6,0.8-1.6,1-1.9,2.2
	c-1.7-0.3-2.2,0.4-4-0.3c0.3,0.7,4.4,1.2,3,1.1c-1,0.1-1.8,0-2.4-0.3c0.1,1.3,2.1,0.8,3,1.3c-1,1.3-2.9,2.4-5.1,1.6
	c0.2,1.3,1.9,1,3,1.3c-1.1,1-3.2-1.4-3.8,0c-0.5-0.7,0.8-1.9,1.6-2.2c-0.5-1,0-1.1,0.8-1.3c0.4-1.8-1-1.4-1.1-2.2
	c-0.4,0.2-0.1,1.3,0,1.3c-0.1,0.6-1.4,0-1.6,0.5c-0.1,0.6,0.8,0.3,0.8,0.8c-0.2,0.8-0.7,1.4-1.9,1.3c0.3,0.3,0.1,1,0.8,0.8
	c-0.1,0.2-0.3,0.4-0.3,0.8c-0.8-0.2-0.5-0.2-1.3,0c0.2-0.2,0.3-0.5,0-0.5c0.3-0.8,0.7,0.3,1.1,0.3c0-0.5-0.3-0.6-0.3-1.1
	c-0.5,0.1-1.1,0.1-1.3,0.5c-0.9-0.2,0.2-1.2-1.1-1.3c0.1-0.2,0.2-0.5,0.5-0.5c0.2,0,0.4,0,0.5,0c0,0.3-0.3,0.2-0.5,0.3
	c0.1,0.6,1.2,0.2,1.1-0.3c0.1-0.4-0.3-0.5-0.3-0.8c-1-0.1-0.7,1-1.6,0.8c0.2-0.5,0.9-0.8,0-1.1c0.7-0.4,0.9,0.5,1.9-0.3
	c-0.1,0.5,0.1,0.8,0.5,0.8c-0.1,0.6-0.6,1.2,0.3,1.3c0.5-0.1,0-1.2,1.1-0.8c-0.2-0.2-0.3-0.6-0.3-1.1c-0.6-0.1,0.1,1.2-0.8,0.8
	c0.2-0.2,0.3-0.6,0.3-1.1c0.7,0.6,1.5-0.2,0.8-0.8c-0.6,0.4,0.4-0.7,0.8,0.3c0.6-0.3-0.7-0.9-1.1-1.1c0.2-0.8,0.9,0.2,1.3,0
	c-0.9-0.5-0.1-0.7,0.5-0.3c-1-0.8,0.5-1.8-0.5-2.7c-0.7,0.2,0.4,0.8,0,1.6c-0.3,0-0.5,0.1-0.5,0.3c0-0.6-0.1-3,1.3-3.5
	c-0.5-0.5-0.9-0.5-1.6-0.3c0.1-0.5,0.7-0.5,0.8-1.1c0.3,0,0.2,0.5,0.3,0.8c0.3-0.2,0.4-0.5,0.5-0.8c0.5,0.2,0,0.5,0,0.8
	C117.7,65,117.7,65.4,118.2,65.3L118.2,65.3z M118.2,69.9L118.2,69.9c0,0.9,1.1,0.7,1.9,0.8c0.2-1.4-1.1-0.2-1.3-0.8
	c0.2-0.1,0.5,0,0.5-0.3C118.8,69.6,118.7,70,118.2,69.9L118.2,69.9z M119.1,68.6L119.1,68.6c-0.3,1.6,2.6-0.1,1.9,1.9
	c0.8,0,1-0.6,1.3-1.1C121,69.4,119.8,68.3,119.1,68.6L119.1,68.6z M118.5,74L118.5,74c-0.6,0.1-0.6-0.5-1.3-0.3
	C116.9,74.7,118.5,74.8,118.5,74L118.5,74z M118.5,73.2L118.5,73.2c-0.2,1.1,1.3,0.4,1.3,0c-1.1-0.2-1.7-1-2.4,0
	c1.1,0.1,1.4-0.6,1.9,0.3C119,73.4,118.7,73.3,118.5,73.2L118.5,73.2z"/>
<path class="st1" d="M106.4,58.6c0.5,0.3-0.4,1.7,1.1,1.1c0.9,0.1-1.1,0.8-0.8,0.3c-0.5,0-0.2,0.9-0.8,0.8c0.1,0.2,0.3,0.3,0.3,0.5
	c0.4-0.4,1.2-1,1.6-0.5c0.1,0.8-0.7,0.8-1.1,1.1c-1,0.1-0.7-1-1.6-0.8c0-0.8,0.7-0.9,1.3-1.1C106,59.6,106,59,106.4,58.6L106.4,58.6
	z"/>
<path class="st1" d="M108.5,67.5c0-0.3,0-0.5,0-0.8c1.4,0.2,2-0.3,2.2,1.3c0-0.4-1.7-1.2-1.1-0.5C109.6,68.2,109.2,67.1,108.5,67.5
	L108.5,67.5z"/>
<path class="st1" d="M108.8,68.8c-0.9-0.1-0.5-1.4,1.1-0.8c0,0.8-1.1,0.5-1.3,1.1c0.3,0.8-0.1,0.7,0.3,1.3c0.5,0.1,0.5-0.2,0.5-0.5
	c1,0.6-0.5,1-0.8,1.1c0.6,0.7,0.5,1.6,0.3,2.7c0.8-0.8,0.9-1.8,0.3-2.7c1.7,0.7-0.2,3,0,3.8c0.2,0,0.4,0,0.5,0
	c0.5-0.4-0.3-1.2,0.5-1.6c0.6,0.1-0.3,0.7-0.3,1.1c0.8,0,0.8-0.7,0.8-1.3c1.3,0.6-0.8,1.4-0.8,2.4c-1.7-0.5-2,0.5-3,0.3
	c0-1,1.1-1.1,2.2-1.1c-0.4-1.4-1.4,0.4-1.9-0.3c0.2-0.5,0.7-0.7,1.3-0.8c-0.2-0.5-1-0.9,0.3-0.8c-0.8-1.3,0.2-2.6-0.8-3.2
	C108.2,69.1,108.5,69,108.8,68.8L108.8,68.8z"/>
<path class="st1" d="M76.2,72.9c-1.3,4.2-5.8,7.7-5.7,14.3c0-1,0-2,0-3C71.3,79.3,74.5,76.8,76.2,72.9L76.2,72.9z"/>
<path class="st1" d="M82.4,89.6c0.4,0.5-1.5-0.9-2.7-0.5C79.4,88.4,82.2,89,82.4,89.6L82.4,89.6z"/>
<path class="st1" d="M98.8,107.1c-2.5,1.5-4.9,3.2-7.3,4.9C93.6,109.9,96,108.3,98.8,107.1L98.8,107.1z"/>
<path class="st1" d="M93.7,120.6c-0.4,0.4,1-1.6,1.9-1.6C95.2,119.8,94.4,120.1,93.7,120.6L93.7,120.6z"/>
<path class="st1" d="M91.3,125.7c-0.4-0.7,0.6-2.3,1.1-3C92.7,122.4,91.7,125,91.3,125.7L91.3,125.7z"/>
<path class="st1" d="M91,124.1c0.6,0.1-1.1,3.4-1.9,3c-0.5-0.2,0.5-1.1,0.5-1.6c0.7-0.5-0.3,0.9-0.3,1.3
	C90.3,126.2,90.4,124.9,91,124.1L91,124.1z"/>
<path class="st1" d="M73.8,133.5c0.3,1-2,1.6-2.2,3C71.3,135.5,73.3,134.6,73.8,133.5L73.8,133.5z"/>
<path class="st1" d="M70.6,130.6c0.9-2,3.7-3.5,0.8-1.1C70.6,131.4,68.5,133.4,70.6,130.6L70.6,130.6z"/>
<path class="st1" d="M66.2,118.7c0.6-0.1,2,1.2,3.2,1.3C72.8,120.8,66,119.8,66.2,118.7L66.2,118.7z"/>
<path class="st1" d="M66,95.3c0.9,0.4,1.1,1.6,1.6,2.4C67.4,98.5,66.5,95.8,66,95.3L66,95.3z"/>
<path class="st1" d="M112.6,70.2c0-0.4,1.3,0.1,1.6,0.3c0.3,0.8-0.4,0.7-0.5,1.1C113.5,71.3,113.4,70.5,112.6,70.2L112.6,70.2z"/>
<path class="st1" d="M101,71c0,0.8-1.1,0.3,0.3,0.8C100.8,73.4,99.3,70.8,101,71L101,71z"/>
<path class="st1" d="M69.5,77.7c0.7,0.8-1.6,3-1.3,5.1C67.3,80.9,69.1,79.4,69.5,77.7L69.5,77.7z"/>
<path class="st1" d="M81.6,78.5c-1.1,0.4-1.7,0.1-2.4,0.5c-1.9,1.3-0.1-0.5,1.9-0.8C81.8,78.2,83.5,79.3,81.6,78.5L81.6,78.5z"/>
<path class="st1" d="M105.9,79.4C103.6,79.9,102.8,78.3,105.9,79.4L105.9,79.4z"/>
<path class="st1" d="M69.7,79.1c0.6,0.5-0.7,1.4-0.5,2.4C68.4,80.8,69.6,79.8,69.7,79.1L69.7,79.1z"/>
<path class="st1" d="M80,80.7c2-1.5,6.1-0.5,1.1-0.5C80.6,80.2,80.8,80.8,80,80.7L80,80.7z"/>
<path class="st1" d="M134.4,80.4c0.3,0,0.2,0.3,0.3,0.5c0.7-1.2,0.9,1,2.2,0.8c-0.7,0.9-1.3-0.7-1.9-0.8
	C138.2,84.1,135.2,82.8,134.4,80.4L134.4,80.4z"/>
<path class="st1" d="M70.8,81c0.4,0.7-0.8,2.1-0.5,3.5C69.5,83.4,70.6,81.9,70.8,81L70.8,81z"/>
<path class="st1" d="M108.8,81.5c0.3,0.1,0.6,0.3,0.5,0.8c-0.9,0.3-1.6,0.7-2.7,0.8c0,0.2,0.1,0.3,0.3,0.3c-0.1,0.4-0.3-0.1-0.8,0
	C107.3,82.5,108.3,82.7,108.8,81.5L108.8,81.5z"/>
<path class="st1" d="M123.4,81.2c-0.7,0.6-1.8,0.7-2.2,1.6C120.9,82.4,122.2,81.2,123.4,81.2L123.4,81.2z"/>
<path class="st1" d="M124.2,81.5c-0.4,0.7-1.6,0.5-1.9,1.3C121.6,82.2,123.4,81.7,124.2,81.5L124.2,81.5z"/>
<path class="st1" d="M97.5,84.2c-0.1,0.6-1,0-1.1-0.3c-2.9,0.2-2.9-0.5,0-0.3C96.6,84,97,84.2,97.5,84.2L97.5,84.2z"/>
<path class="st1" d="M72.4,89.9c-0.5,0.8-0.2-1.4-0.3-1.9c-0.4,0.1-0.2,0.7-0.3,1.1c-0.6-0.1-0.3-1.5,0.3-1.3c0-0.8,0-1.6,0-2.4
	c-0.1-1.3,0.5-0.7,0.3,0.3C72.4,87,72.4,88.4,72.4,89.9L72.4,89.9z"/>
<path class="st1" d="M120.4,84.7c0,1.5-2.4,2.9-4.6,3.2C117.5,87.1,119.6,86.5,120.4,84.7L120.4,84.7z"/>
<path class="st1" d="M116.4,87.2C118.3,85.2,119.9,85.8,116.4,87.2L116.4,87.2z"/>
<path class="st1" d="M69.7,86.1c0.4-0.3,0.3,2.2,0.5,3C69.9,89.3,69.7,87.2,69.7,86.1L69.7,86.1z"/>
<path class="st1" d="M69.2,88c0.6,0.7,0.3,2.4,0.8,3.2C69.5,91.5,69.2,89.2,69.2,88L69.2,88z"/>
<path class="st1" d="M104.8,89.9c0,0.7-0.1,2-0.3,2.7c-1-0.3,0.3-1.3-0.5-1.9C103.9,90,104.7,90.4,104.8,89.9L104.8,89.9z"/>
<path class="st1" d="M106.4,90.7c0.6-0.5-1.1,0.8-0.8,1.1c-0.6,0.8,0.5-0.6-0.5-0.3C105.3,91,105.5,90.5,106.4,90.7L106.4,90.7z"/>
<path class="st1" d="M134.4,93.6c-0.8-0.3,0.6-0.4,0.5-0.8C137.9,92.9,135.2,93,134.4,93.6L134.4,93.6z"/>
<path class="st1" d="M68.4,96.3c0.2,1.1,2.7,4.6,1.1,3.2C69.3,98.3,68.3,97.9,68.4,96.3L68.4,96.3z"/>
<path class="st1" d="M124.4,97.4c0.5,0.2,1,0.6,0.5,1.1c0.2-0.1,0.4-0.3,0.8-0.3c0.1,0.7,0.3,1.1,1.1,1.6c0.6-0.1-0.3-0.9-0.8-0.8
	c2.4,0.6,5.4,2.9,9.2,3c-2.7,0.5-5.6-1.2-7.8-2.2c1,1.4,3.1,1.7,4.9,2.4c0.8,0.5-2.7-0.4-3.5-0.8c-1.6-0.8-3.1-2.6-4.3-3
	C124.9,97.9,124.4,98.1,124.4,97.4L124.4,97.4z"/>
<path class="st1" d="M74.1,104.1c-2.1-0.6-5.2-2.2-6.2-4.6c-0.6-1.6,0.4,0.3,0.8,0.8C69.7,101.8,72.4,103,74.1,104.1L74.1,104.1z"/>
<path class="st1" d="M68.4,98.8c0.5-0.4,1.1,1.3,1.3,1.9C69,100.3,68.9,99.3,68.4,98.8L68.4,98.8z"/>
<path class="st1" d="M74.9,100.9c1.4-0.4,2.8,2.4,4.6,3.2c-1,0.4-1.9-1.7-3-2.2c0.4,2.4,3.7,3.7,6.2,4.9c-3.5-0.1-5.9-3.6-8.4-5.7
	C74.5,100.9,76.2,102.2,74.9,100.9L74.9,100.9z"/>
<path class="st1" d="M75.7,103.3c1,0.4,1.6,1.1,2.2,1.9C81.3,108.3,71.2,99.4,75.7,103.3L75.7,103.3z"/>
<path class="st1" d="M80.5,104.1c-1.8-0.4-3.3-2-4-3.2C76.8,101.5,78.8,103,80.5,104.1L80.5,104.1z"/>
<path class="st1" d="M137.7,102.8c0.9,0.1,2.4-1,3.5-1.1C141.3,102.2,138.6,103.4,137.7,102.8L137.7,102.8z"/>
<path class="st1" d="M74.6,103.3c0.6,0.1,3.1,2.8,4.9,3.5c-0.9,0.3-2.4-1.2-3.2-1.9c-0.2,1.3,4.3,3,4,3.5
	C77.4,107.3,76,105.4,74.6,103.3L74.6,103.3z"/>
<path class="st1" d="M153.8,112.8c-0.5,0.6-1.1-1-1.6-1.3c-0.7-0.3-0.9,1.2-1.3,0.3c-0.8-0.5,1.2,0.5,0.8-0.8
	C152.6,111.2,153.5,111.8,153.8,112.8L153.8,112.8z"/>
<path class="st1" d="M105.9,106.3c0-0.8,1.6-0.7,1.3,0.3c-0.5,0-0.6,0.3-1.1,0.3c0.1-0.3,0.3-0.6,0.8-0.5
	C106.8,105.5,106.4,106.6,105.9,106.3L105.9,106.3z"/>
<path class="st1" d="M73.2,109c-1.9-0.1-4.6-3.2-7.8-1.9C67.2,105.5,71.5,108,73.2,109L73.2,109z"/>
<path class="st1" d="M76.5,107.1c1.4,0,3.1,2.1,5.1,2.4C79.8,109.9,78,107.9,76.5,107.1L76.5,107.1z"/>
<path class="st1" d="M81.9,110.9c-0.8,0.1-0.9-0.1-0.5-0.5c-2.1,0.6-3.6-1.1-0.5,0C78.5,109.2,81.5,109.7,81.9,110.9L81.9,110.9z"/>
<path class="st1" d="M138.5,107.9c0.4-0.6,1.1,0.8,2.2,0.5C140,109.3,138.9,108.2,138.5,107.9L138.5,107.9z"/>
<path class="st1" d="M138.2,113.8c0.1-1-1.6-6.6,0.3-1.9C138.6,112.8,138.3,113.2,138.2,113.8L138.2,113.8z"/>
<path class="st1" d="M152.2,119.5c-0.5,1,0.2,0.4,0.3,1.3c-1.1-0.1-1.2-1.3-2.2-1.6c0-0.2,0.1-0.3,0.3-0.3
	C150.7,118.9,150.9,119.6,152.2,119.5L152.2,119.5z"/>
<path class="st1" d="M149.2,121.9c0.3,0.1,0.1,0.3,0,0.3c0.9,1.3,2.4,2.1,3.8,3c-0.4,0-3.5-0.9-1.9-0.5c-1.6-0.4-2.2-0.4-3.8-3
	c1-0.3,1.6,2.2,3,2.4c-0.5-0.7-1.1-1.4-1.9-1.9C148.5,121.2,149.3,122.8,149.2,121.9L149.2,121.9z"/>
<path class="st1" d="M148.7,123.5c-0.8,0.7-1.1-1.4-2.4-1.1c0.8-1.1-0.3-0.7-0.5-2.2C146.7,120.3,147.4,123,148.7,123.5L148.7,123.5
	z"/>
<path class="st1" d="M149,125.2c0,0.4,0.6,1,1.3,1.3c-0.6,0.4-2-0.7-2.2-1.6c0.2,0.1,0.5,0.2,0.5,0.5
	C148.9,125.5,149,125.3,149,125.2L149,125.2z"/>
<path class="st1" d="M142.8,124.6c-1.1,0,0-0.4,0-0.8c-0.9-0.2-0.3,1.1-1.3,0.8c-0.9-1,1.4-1.8,0-2.4c0.6-1,0.7,0.7,1.1,0.8
	c-0.2,0.6-0.4-0.3-0.8,0.3c0.2,0.8,0.4,0.3,1.1,0.3c0.2-1.6-0.5-2.2-0.5-3.5C143.8,120.9,143.2,123.7,142.8,124.6L142.8,124.6z"/>
<path class="st1" d="M149,111.7c-0.3-0.1-0.1-0.3,0-0.3c0-0.3-0.3-0.2-0.5-0.3c0.4-0.7,1.4,0.2,1.9,0.3c-0.2,0.2-0.3,0.5,0,0.5
	c0.1,0.8-1-0.4-0.3-0.3C150.2,111.3,148.8,111.3,149,111.7L149,111.7z"/>
<path class="st1" d="M115.3,115.2c0.8-0.9,1.1-2.3,1.9-3.2c0.7,0.6-0.6,1.3-0.8,1.9c0.2,0.5,0.6,0.2,0.5-0.3c0.3,0,0.2,0.3,0.3,0.5
	c0.8-0.2-0.3-0.6,0-1.1c0.6-0.1,0.5-0.9,1.3-0.8c0.2,1.2-0.9,1.1-0.8,2.2c0.7-0.2,0.7-1.1,1.1-1.6c0.6,0.3-1.1,3-1.1,1.9
	c-0.8,0.2,0.4,0.7,0,1.3c-0.4-0.4-0.9-0.2-0.8,0.5c-0.5-0.2,0-0.5,0-0.8c-0.7-0.2-0.5,0.6-0.8,0.8c0.4-0.3-1.4-1.4-2.4-1.9
	c0.3-1.9,1.9-2.6,3.2-2.7C116.4,113.1,115.4,113.7,115.3,115.2L115.3,115.2z M114.7,114.1L114.7,114.1c0-0.3,0-0.8-0.3-0.8
	c0.2,0.5-0.8,1.1,0,1.3c0.1-0.5,0.3,0.1,0.5,0.3C115.1,114.3,115.6,113.6,114.7,114.1L114.7,114.1z"/>
<path class="st1" d="M119.6,113.8c0.5,0.8-0.9,2-1.1,3C118.1,116.1,119.3,114.7,119.6,113.8L119.6,113.8z"/>
<path class="st1" d="M107.7,113.3C108.9,114.3,106.8,116.7,107.7,113.3L107.7,113.3z"/>
<path class="st1" d="M77.8,114.7c-0.4-0.7,0.9,1.1,1.9,0.8c0,0.5-0.9,0.2-1.1,0.5c-0.8,0.1-0.7-0.7-1.3-0.8c0.3-0.6,0.8,0.8,1.6,0.5
	C78.7,115.3,77.9,115.3,77.8,114.7L77.8,114.7z"/>
<path class="st1" d="M128,114.7c-1,1.3-2.7,1.8-4.3,2.4c0,0.3,0.3,0.2,0.5,0.3c-0.8,0.1-1.5,0.5-2.7,0.8c-0.3-0.8,2.1-0.8,0.5-1.1
	C125.3,116.7,125,114.7,128,114.7L128,114.7z"/>
<path class="st1" d="M136,114.9c0.9,0.8-0.4,1.8-0.5,2.4C134.8,116.8,136.5,116.2,136,114.9L136,114.9z"/>
<path class="st1" d="M78.6,117.3c-1,1.2-2.6-2.9-1.3-0.8C77.7,116.9,77.9,117.3,78.6,117.3L78.6,117.3z"/>
<path class="st1" d="M128,116.8c-2.4,0.8-2.4,1.3-4,2.2c0.2-1.3,2.8-2.4,4.6-3c-0.6,0.6-0.2,0.7-0.5,1.3c0.3,0.8,0.7-0.4,1.1,0.3
	c-1,1.2-2.6,1.8-3.5,2.4c-0.5,0-0.3-0.7-1.1-0.5c1.4-0.2,2.1-1,3.5-1.6C127.6,117.5,127.6,117.2,128,116.8L128,116.8z"/>
<path class="st1" d="M82.7,116.5c-1.1,0.7-1.8,1.5-3,0.8C80.5,116.9,81.8,116.9,82.7,116.5L82.7,116.5z"/>
<path class="st1" d="M89.7,117.3c-1.2,2.5-5.1,4.6-7.5,6.7C83.8,122,87.6,119.9,89.7,117.3L89.7,117.3z"/>
<path class="st1" d="M89.7,118.7c-2.3,2.4-5.2,4.3-7.8,6.5C83.5,123.1,87.1,120.7,89.7,118.7L89.7,118.7z"/>
<path class="st1" d="M75.9,122.7c1-2.1,4.8-3.8,7.5-5.1C81.1,119.5,77.8,120.4,75.9,122.7L75.9,122.7z"/>
<path class="st1" d="M76.2,123c0.3-1.1,5.9-4.3,7-4.6C80.9,119.9,78.2,121.2,76.2,123L76.2,123z"/>
<path class="st1" d="M73.8,119c-2.3,0.2-3-0.4-0.3-0.3c0.1-0.8,7.3-0.5,3-0.3C75.5,118.5,75.3,118.5,73.8,119L73.8,119z"/>
<path class="st1" d="M128.2,119.2c0.2-0.3,0.5-0.1,1.3-0.3c-0.9,1.7-2.7,1.7-4.3,1.6C125.9,119.9,128.5,120.4,128.2,119.2
	L128.2,119.2z"/>
<path class="st1" d="M66.5,119.8c0.3-0.3,3.5,1.4,3,1.1C68.1,120.9,67.4,120.3,66.5,119.8L66.5,119.8z"/>
<path class="st1" d="M78.4,119.8c-0.7,0.4-0.7,0.8-1.1,1.1C74.8,122.6,75.9,120.6,78.4,119.8L78.4,119.8z"/>
<path class="st1" d="M81.6,119.8c-0.7,1.3-3.9,2.4-5.1,4C77,122.4,79.9,121,81.6,119.8L81.6,119.8z"/>
<path class="st1" d="M80.3,121.4c-0.3,0.9-2.6,2.1-3.8,3C77.5,123.1,79,122.4,80.3,121.4L80.3,121.4z"/>
<path class="st1" d="M88.9,120.3c-0.5,1.3-4.6,3.7-6.5,5.4C83.4,123.8,87,122.3,88.9,120.3L88.9,120.3z"/>
<path class="st1" d="M127.4,121.4c0.8,0.2,1.6-1,3-1.1c-1.4,0.8-2.8,2.6-4,2.7C126.7,122.6,128.2,122.1,127.4,121.4L127.4,121.4z"/>
<path class="st1" d="M88.3,121.7c-0.1,1.4-3.6,2.9-5.4,4.3c-0.5,0.4-1.5,2.1-1.3,1.3C83.4,125,86.2,123.7,88.3,121.7L88.3,121.7z"/>
<path class="st1" d="M71.6,122.7c0.1-0.7,0.8,0.3,0.5,0.8c-1.6-0.2-2.8,0.9-4,1.9c0.2,0.8,0.6-0.3,1.1,0c-0.3,0.8-1.3,0.9-2.4,0.8
	c1.4-1.3,2.8-2.8,5.1-3.2C71.9,122.8,71.8,122.8,71.6,122.7L71.6,122.7z"/>
<path class="st1" d="M131.5,123.8c-0.6-0.1-0.6,0.5-1.3,0.3c0.2-0.5,0.7-0.7,1.3-0.8c0,0.3,0.1,0.5,0.3,0.5
	C131.7,124.1,131.5,124,131.5,123.8L131.5,123.8z"/>
<path class="st1" d="M74.9,124.1c1.3-0.5,0,2-0.5,2.2C73.7,125.9,75.9,124.8,74.9,124.1L74.9,124.1z"/>
<path class="st1" d="M125.8,124.4c0.2,0.1,0.9,1,0.3,1.1c0.2,0.3,0.6,0.3,0.5,0.8C125.6,125.9,125.6,125.4,125.8,124.4L125.8,124.4z
	"/>
<path class="st1" d="M131.5,124.6c-0.1-0.8,0.8,0.7,0.8-0.3c0.8,0.4-0.2,1.2-0.8,1.1C131.4,125,131.9,124.7,131.5,124.6L131.5,124.6
	z"/>
<path class="st1" d="M85.6,124.9c-1.1,1.2-2.5,2.2-3.8,3.2C81.9,128,84.1,125.4,85.6,124.9L85.6,124.9z"/>
<path class="st1" d="M133.3,125.4c-0.2,0.5,0,1.4-0.8,1.3c-0.3-0.8,0.4-0.7,0.5-1.1C132.2,125.8,132.3,125.1,133.3,125.4
	L133.3,125.4z"/>
<path class="st1" d="M75.1,128.7c-1.8,1.5-3.3,4.8-5.1,6.7C70.1,135.3,72.6,130,75.1,128.7L75.1,128.7z"/>
<path class="st1" d="M157.9,132.7c0.4,0.8-0.9,2.1-1.3,3C156.2,135,157.6,133.7,157.9,132.7L157.9,132.7z"/>
<path class="st1" d="M148.2,146.2c-0.4-0.9,1.8-2.7,2.4-3.2C152.1,141.5,148.8,144.5,148.2,146.2L148.2,146.2z"/>
<path class="st2" d="M107.2,135.7c0.2-0.4,0.4-0.7,0.8-0.8c-2.1-1.3-5.3,0.2-7.5-0.3c0.6,1.6,2.6,2.4,3.8,1.3c0.7-0.1,0.2,1,1.1,0.8
	c-0.5,0.4-1,0.2-1.3-0.3c0.4,1.9,3.6,2.7,4.6,1.6c-0.2-0.4-3.1,0.7-3-0.8c1.4,0.6,2.2,0.3,3.2,0.5c-0.1,1.3-1.1,0.7-1.6,1.1
	c0.8,0.6,1.4,0.2,0.3,0.8c0.8,0.7,3.2-0.4,4-1.3c-0.5-1-1-2.1-1.9-2.7c-0.3,0.4-0.7,0.8-1.1,1.1c-0.7-0.9,0.6-0.4,1.1-1.6
	c0.7,0.8,1.4,1.7,1.9,2.7c0.5-0.7,0.4-0.4,1.1,0c-1.5,1.1-2.3,2.7-5.1,2.4c1.7,2,4.8-1.1,5.9-2.4c0.8-0.4-0.6,1-0.8,1.3
	c0.4,0.7,0.7,1.4,1.1,2.2c3.8,1.8,7.9,1.1,11.3,1.3c5.4,0.4,8.6,6.1,14,4c0-0.6-0.2-0.9-0.8-0.8c0.2-0.8,0.6,0.3,1.1,0
	c0.3,4.2-5.6,2.6-7,1.1c1,2,2.8,5.5,6.7,5.4c0.6,0.9,0.5,2.5,2.2,2.4c0.1,0.6-0.2,0.7-0.3,1.1c0.2,1.1,1.1-0.1,1.6,0.5
	c0.7,2.1-3.7,2.1-3.8,0c-0.3,0.5-0.8,0.6-1.3,0.8c-0.5,0-0.6-0.3-1.1-0.3c-1.9-5.6-9.7-5.4-12.4-10.2c-2.9,1.6-8.7,3.8-12.4,1.3
	c4.9,1.9,9.4-0.4,13.2-1.9c-0.1-0.2-0.2-0.5-0.5-0.5c0.9-0.2,2.3,0.3,3,0c0.6,0.6-0.7-0.2-0.8,0.3c0.1,1.9,1.5,3,2.7,3
	c-0.1,0.4-0.2,0-0.5,0c3.1,2.7,8.3,3.2,10.8,6.5c0.7-0.8-0.6-1.2-0.3-2.4c-1.8-0.4-3.9-0.8-4.9-1.6c-1-0.9-1.3-2.9-2.4-4
	c-1.2-1.3-2.8-1.4-4-3c3,0.6,5.4,4.1,10.2,3.8c-5.9-0.1-7.2-4.9-13.2-4.9c-0.1,0.7,1.5-0.3,1.1,0.8c-1-0.6-1.4,0.1-2.4-0.3
	c-0.1,0,0.9-0.5,1.1-0.3c-0.8-1-2.3,0.4-3.8-0.3c0,0.3,0.5,0.2,0.8,0.3c-0.8,0.5-1.9-0.1-2.7,0c0-0.3,0.5-0.2,0.8-0.3
	c-2.2-0.1-4.2-1-6.2-1.3c-0.1-0.5-0.7-1.5-1.1-2.4c-0.7,0.4,0.5,1.3-0.5,1.6c0.1,0.6,0.7,0.5,1.1,0.8c-0.6,0.6-1.8-0.8-1.1-1.6
	c-1.7,0.6-2.7,1.3-2.7,2.7c-1.1,0,0.1-0.4-0.5-0.8c-1.1,0.8,0.6,1,0.5,1.6c-1.3-0.4-0.5,0-0.3,0.8c-2.9-1.2-5-3.1-7.3-4.6
	c2.1,0,3.8,2.7,5.9,3.5c1.7-6-5.9-5.1-7.3-8.9c2.8-0.4,5.6-0.9,7.8-1.9c0.6,0.6-0.1,0.8,0,1.6c1-0.5,1.7-1,2.4-0.5
	c-0.9,0.4-1.4,1.1-2.2,1.6C108.2,135.3,108.7,134.7,107.2,135.7L107.2,135.7z M128.2,149.4L128.2,149.4c-0.3,0-0.8,0-0.8-0.3
	c0.8-0.7-0.6,0.5-0.5-0.3c0.1,0,0.3-0.2,0-0.3C126.2,149.1,127.9,150.7,128.2,149.4L128.2,149.4z M128,150.2L128,150.2
	c1.1,0,1.6,0.6,2.4,0.8C129.9,150.6,128.3,149.2,128,150.2L128,150.2z M134.7,152.4L134.7,152.4c-1.1,0-2-0.9-2.7-1.1
	c-2.2-0.6-0.3,0,0.5,0.5c1,0.7,1.9,2,3.2,3c0.4,0.9,0.6,2.1,2.2,1.9C136.9,155.2,135.5,154.1,134.7,152.4L134.7,152.4z M136.8,155.1
	L136.8,155.1c0.7,0,0.5-0.4,1.1,0c-0.4-1.1-1.5-1.6-2.4-2.2C135.5,154,137.3,153.5,136.8,155.1L136.8,155.1z M139.3,156.7
	L139.3,156.7c0.6,0.1,0.5,0.9,1.3,0.8c0.4-0.2,0.7-0.4,0.8-0.8c-1.5,0.3-0.5-0.4-1.1-0.8C140.5,156.6,139.3,156.1,139.3,156.7
	L139.3,156.7z M140.6,155.1L140.6,155.1c-0.7,0.3-2.1,0.9-3,0.3C138.2,156.6,140.4,156.4,140.6,155.1L140.6,155.1z"/>
<path class="st1" d="M105.3,142.7c-0.8,0.8,2.4,1.8,3.5,2.4c0.5-0.9,0.7-0.9,0.8-1.3c-0.1-0.7,1.6,0.5,0.8-0.3
	c1.7-0.2-1.4,1.1-0.5,1.6c0.1,0.7-1-0.7-0.8,0.5c-0.9,0.2-2.1-1.7-2.4-0.3c0.3-0.8-4.2-3.8-7.5-2.7c0.2-1,2-0.4,3-0.5
	c0-0.2,0-0.4,0-0.5c-1.3-0.8-2.5-0.3-3.8-0.3c-2,0,3.1-0.8,4-0.5C102,142.3,104,143.1,105.3,142.7L105.3,142.7z"/>
<path class="st1" d="M132.5,150c-1-0.5-1.3-3-2.4-2.4c-0.1-0.4-0.3-0.3-0.5-1.1C131.2,146.9,132.2,148.2,132.5,150L132.5,150z"/>
<path class="st1" d="M106.4,134.6c0.1,0,0.6,1.2,0,1.6c-0.5,0.8,0.4-0.8-0.3-1.1c-0.3,0-0.2,0.3-0.3,0.5c-0.5,0-0.3-0.7-1.1-0.5
	C105,134.3,106.3,135,106.4,134.6L106.4,134.6z"/>
<path class="st1" d="M150.3,138.1c-0.4-0.3,1.5,0.1,2.4-0.3c-0.6,0.9-1.4,1.5-2.2,2.2c-1.9-0.4-4.3-0.9-0.8-0.5
	c-0.1-0.4-0.8-0.1-0.8-0.5c-0.2-0.2,1.8,0.5,2.7-0.3C151.6,138.1,150.5,138.6,150.3,138.1L150.3,138.1z"/>
<path class="st1" d="M92.4,157c-3.4-4.8-9.9-6.4-14.8-9.7C82.3,149.6,89.7,151.6,92.4,157L92.4,157z"/>
<path class="st1" d="M92.4,158c0.7-0.5,2.2,1.2,1.6,2.2c-1.2-0.2-1.2-1.5-2.2-1.9c0.5-0.5,1.1,1.2,1.9,1.3
	C94.2,159.3,92.8,158.4,92.4,158L92.4,158z"/>
<path class="st1" d="M87.8,162.4c-1.1-0.2-2.5-1.6-4-2.7c-1.3-0.9-3.5-1.9-3-3C82.6,159.1,85.8,160.2,87.8,162.4L87.8,162.4z"/>
<path class="st1" d="M88.6,162.1c-2.1-1.3-5.6-3.6-7.8-5.7c1.7,0.5,3.7,3,5.9,3.8c-1.3-1.9-4.3-2-5.1-4.3c1.7,1.5,3.6,2.7,5.7,3.8
	C86,160.9,87.9,161.3,88.6,162.1L88.6,162.1z"/>
<path class="st1" d="M87,162.6c-0.7,0.6-1.6-1.1-2.4-1.3c0.9,1,2.3,2.7,4,3.5c-3.8,0.1-5.4-4.3-8.6-5.7c2.5,0,4,3.4,6.2,4.6
	c-1.1-2-4.6-4.1-5.9-6.2C82.3,159.4,84.8,160.8,87,162.6L87,162.6z"/>
<path class="st1" d="M100.5,139.4c-0.4,1.8-5.2,0.1-5.7,1.9c0,0.6,1.1,0.1,1.6,0.3c-0.3,0.7-1.5,0.2-1.6,0.5c-0.6-0.2-0.3-1.7,0-1.9
	C96.8,140.1,98.7,139.8,100.5,139.4L100.5,139.4z"/>
<path class="st1" d="M96.4,144c-0.8-0.7,5.5-0.5,3.8,0c-1.7,0-2.3,0.4-3.5-0.3C96.5,143.7,96.4,143.9,96.4,144L96.4,144z"/>
<path class="st1" d="M158.9,145.9c-0.2,0-0.4,0-0.5,0c0,0.5,0.3,0.6,0.3,1.1c-1.2-0.4-0.1-1.5,0-2.2c0.6,0.1,0.1,1.2,0.5,1.3
	C159.1,146.6,158.9,146.2,158.9,145.9L158.9,145.9z"/>
<path class="st1" d="M120.1,147c-0.5,0.1-0.5-0.2-0.5-0.5c-0.2,0.1-0.9,1-0.3,1.1c0.6-0.2-0.7,0.2-1.3,0.5c-0.4-0.4-0.3-1.4,0.5-1.3
	c-0.1,0.2-0.3,0.4-0.3,0.8c0.5-0.1,0.6-0.5,0.5-1.1C119.4,146.3,120,146,120.1,147L120.1,147z"/>
<path class="st1" d="M81.6,150.5c1.7,0.4,4.7,1.7,5.9,3.5C85.7,152.7,83.6,151.7,81.6,150.5L81.6,150.5z"/>
<path class="st1" d="M81.3,151c2.2,0.4,4.8,2.8,7,4C86.3,154.5,83.6,152.3,81.3,151L81.3,151z"/>
<path class="st1" d="M89.1,157c-0.4-0.3-3.2-1.9-4.3-3.2c-0.8-0.2-2.6-0.8-2.2-1.3C85,153.6,88,155.5,89.1,157L89.1,157z"/>
<path class="st1" d="M87.8,156.4c-1.5,0.1-3.2-1.8-4.6-2.7C83.8,153.5,86.5,155.7,87.8,156.4L87.8,156.4z"/>
<path class="st1" d="M86.5,157.5c-0.9,0.5-1.8-1.4-3-1.6C84.4,155.4,85.5,157.1,86.5,157.5L86.5,157.5z"/>
<path class="st1" d="M86.5,156.4c-0.8,0.4-1.9-1.1-3-1.3C84.4,154.5,85.6,156,86.5,156.4L86.5,156.4z"/>
<path class="st1" d="M68.4,162.6c0.8-0.8,0.9-2.3,1.6-3.2C70.2,160.1,69.5,162.3,68.4,162.6L68.4,162.6z"/>
<path class="st1" d="M67.9,162.1c0.2-0.7,0.7-1.1,1.1-1.6c-0.1-0.8,0.5-3.8,0.5-1.9C69,159.8,69.5,162,67.9,162.1L67.9,162.1z"/>
<path class="st1" d="M161.6,164.2c-1.6-1-2.8-1.2-4.6-1.6c0.8-0.8,2.1,0.3,3,0.3c-0.4-0.8-1.5-0.8-2.7-0.8
	C158.5,161,161.1,163,161.6,164.2L161.6,164.2z"/>
<path class="st1" d="M149,159.1c1.6,1.4,2.9,3,5.4,3.5C152,163.1,150,160.9,149,159.1L149,159.1z"/>
<path class="st1" d="M152.5,159.7c-1.8,0.7-2.8-1.7-4-2.4C149.6,157.2,150.7,159.4,152.5,159.7L152.5,159.7z"/>
<path class="st1" d="M155.7,162.1c0.1,0.3-0.4,1.3-0.8,1.3c0-0.3,0.1-0.5,0.3-0.5c-0.2-0.3-0.5-0.4-0.8-0.5
	C154.4,161.5,155.5,163.1,155.7,162.1L155.7,162.1z"/>
<path class="st1" d="M157.3,170.7c0.5,0,0.6,0.3,1.1,0.3c-0.2,0.3-0.6,0.3-0.5,0.8c-0.2-0.2-0.7-0.2-0.8-0.5c-0.4,0.1,0,0.5,0.3,0.5
	c-0.2,0.8-0.4-0.4-0.8-0.3C156.4,170.9,157.3,171.2,157.3,170.7L157.3,170.7z"/>
<path class="st1" d="M80.5,171.8c0,0.3,0.3,0.2,0.5,0.3c0.6-0.4-0.4,0.7-1.1,0C81.4,170.5,84,171.9,80.5,171.8L80.5,171.8z"/>
<path class="st3" d="M142.9,140.7l-14.5-28.8l-7.8,4l-0.5,1.1l-1.5,3.3l-8.2,0.7L106,123l-23.9,10.4l0.9,2c4.6,4.6,7.4,11,10,16.9
	c2.5,5.8,5,10.5,5.5,16c7.2,8.5,19.5,11.6,30.4,6.8C141.6,169.6,148.8,153.8,142.9,140.7L142.9,140.7z"/>
<path class="st4" d="M100.5,130.2l5.3-0.5l0.6-5.7l4.9,2.8l3.4-3.7c0,8.1,1.4,15.2,4.2,21.5c5.3-3,9.8-7.5,13.5-13.5l0.5,5.7
	l5.2,0.4l-2.7,4.7l4,3.5c-7-0.6-13.4,0.3-18.9,2.6c3.3,6.1,8.2,11.5,14.7,16.5l-5.2,0.4l0,6.9l-5.1-4.3l-3.8,4.1
	c0-8.2-1.3-15.4-4.1-21.8c-5.3,3-9.8,7.5-13.6,13.5l-0.6-5.3l-5.1-0.7l2.5-4.4l-4-3.8c7.1,0.6,13.4-0.3,19-2.6
	C111.9,140.4,107.1,135.1,100.5,130.2L100.5,130.2z"/>
</svg>
