<?xml version="1.0" encoding="utf-8"?>
<!-- Generator: Adobe Illustrator 22.0.1, SVG Export Plug-In . SVG Version: 6.00 Build 0)  -->
<svg version="1.1" id="Layer_1" xmlns="http://www.w3.org/2000/svg" xmlns:xlink="http://www.w3.org/1999/xlink" x="0px" y="0px"
	 viewBox="0 0 226.8 226.8" style="enable-background:new 0 0 226.8 226.8;" xml:space="preserve">
<style type="text/css">
	.st0{fill:#2A57A3;}
</style>
<g>
	<path class="st0" d="M71.3,123.8h2.3l-1.5,7.8c-0.1,0.6-0.2,1.1-0.2,1.6c0,0.7,0.2,1.2,0.6,1.6c0.4,0.4,0.9,0.6,1.6,0.6
		c1.7,0,2.9-1.3,3.3-3.9l1.5-7.9h2.3l-1.5,7.8c-0.4,2-1.1,3.5-2,4.4s-2.3,1.4-3.9,1.4c-1.3,0-2.3-0.3-3.1-1
		c-0.8-0.7-1.1-1.7-1.1-3.1c0-0.5,0.1-1.1,0.2-1.9L71.3,123.8z"/>
	<path class="st0" d="M83.8,137.3h-2.3l2.7-14.2h2.3l-1.7,8.7h0c0.4-0.4,0.7-0.8,0.9-1.1l2.9-3.2h2.9l-4.2,4l2.8,5.7h-2.6l-2-4.5
		l-1.1,1.1L83.8,137.3z"/>
	<path class="st0" d="M93.8,137.3h-2.3l1.1-6c0.1-0.6,0.3-1.8,0.5-3.7h2c-0.1,0.9-0.2,1.6-0.2,2H95c0.3-0.7,0.8-1.2,1.3-1.6
		c0.5-0.4,1.1-0.6,1.7-0.6c0.1,0,0.2,0,0.3,0s0.2,0,0.3,0l-0.5,2.3c-0.1,0-0.2,0-0.4,0c-0.8,0-1.4,0.3-2,1c-0.5,0.7-0.9,1.6-1.1,2.7
		L93.8,137.3z"/>
	<path class="st0" d="M106.7,137.3h-2.1c0-0.4,0.1-1.1,0.2-2.2h0c-0.9,1.6-2,2.4-3.5,2.4c-0.9,0-1.6-0.3-2.1-0.9s-0.8-1.4-0.8-2.4
		c0-0.9,0.1-1.7,0.4-2.5s0.7-1.5,1.3-2.2c0.6-0.7,1.3-1.2,2.2-1.6s1.9-0.6,3-0.6c1,0,2,0.1,3,0.4l-1,5.1
		C106.8,134.4,106.7,135.9,106.7,137.3z M105,131.8l0.5-2.6c-0.3-0.1-0.6-0.1-1-0.1c-1,0-1.9,0.5-2.7,1.4c-0.8,1-1.1,2-1.1,3.2
		c0,1.2,0.5,1.9,1.4,1.9c0.6,0,1.2-0.3,1.7-1C104.4,133.9,104.8,132.9,105,131.8z"/>
	<path class="st0" d="M111.4,137.3H109l1.9-9.7h2.3L111.4,137.3z M112.4,126.1c-0.3,0-0.6-0.1-0.8-0.3c-0.2-0.2-0.3-0.5-0.3-0.9
		c0-0.4,0.1-0.7,0.4-1c0.3-0.3,0.6-0.4,1-0.4c0.4,0,0.7,0.1,0.9,0.3c0.2,0.2,0.3,0.5,0.3,0.9c0,0.4-0.2,0.8-0.4,1
		C113.2,126,112.8,126.1,112.4,126.1z"/>
	<path class="st0" d="M116.3,137.3H114l1.3-6.7c0.1-0.7,0.3-1.7,0.5-3h2.1l-0.2,1.7h0c0.9-1.3,2.1-2,3.5-2c0.7,0,1.3,0.2,1.8,0.7
		c0.5,0.5,0.7,1.1,0.7,2c0,0.5-0.1,1-0.2,1.6l-1.1,5.7h-2.3l1-5.5c0.1-0.5,0.1-0.9,0.1-1.2c0-0.9-0.4-1.4-1.2-1.4
		c-0.6,0-1.1,0.3-1.7,1c-0.6,0.6-0.9,1.5-1.1,2.6L116.3,137.3z"/>
	<path class="st0" d="M127.3,137.3H125l1.9-9.7h2.3L127.3,137.3z M128.4,126.1c-0.3,0-0.6-0.1-0.8-0.3c-0.2-0.2-0.3-0.5-0.3-0.9
		c0-0.4,0.1-0.7,0.4-1c0.3-0.3,0.6-0.4,1-0.4c0.4,0,0.7,0.1,0.9,0.3s0.3,0.5,0.3,0.9c0,0.4-0.2,0.8-0.4,1
		C129.1,126,128.8,126.1,128.4,126.1z"/>
	<path class="st0" d="M138.5,137.3h-2.1c0-0.4,0.1-1.1,0.2-2.2h0c-0.9,1.6-2,2.4-3.5,2.4c-0.9,0-1.6-0.3-2.1-0.9
		c-0.5-0.6-0.8-1.4-0.8-2.4c0-0.9,0.1-1.7,0.4-2.5c0.3-0.8,0.7-1.5,1.3-2.2s1.3-1.2,2.2-1.6c0.9-0.4,1.9-0.6,3-0.6c1,0,2,0.1,3,0.4
		l-1,5.1C138.6,134.4,138.5,135.9,138.5,137.3z M136.8,131.8l0.5-2.6c-0.3-0.1-0.6-0.1-1-0.1c-1,0-1.9,0.5-2.7,1.4
		c-0.8,1-1.1,2-1.1,3.2c0,1.2,0.5,1.9,1.4,1.9c0.6,0,1.2-0.3,1.7-1C136.2,133.9,136.6,132.9,136.8,131.8z"/>
	<path class="st0" d="M143.1,137.3h-2.3l1.3-6.7c0.1-0.7,0.3-1.7,0.5-3h2.1l-0.2,1.7h0c0.9-1.3,2.1-2,3.5-2c0.7,0,1.3,0.2,1.8,0.7
		c0.5,0.5,0.7,1.1,0.7,2c0,0.5-0.1,1-0.2,1.6l-1.1,5.7h-2.3l1-5.5c0.1-0.5,0.1-0.9,0.1-1.2c0-0.9-0.4-1.4-1.2-1.4
		c-0.6,0-1.1,0.3-1.7,1c-0.6,0.6-0.9,1.5-1.1,2.6L143.1,137.3z"/>
	<path class="st0" d="M46.6,161.2h-2.3l1.1-5.5l-2.6-7.9h2.5l1.1,3.8c0.3,1.1,0.4,1.9,0.5,2.4h0c0.4-0.7,0.9-1.5,1.4-2.4l2.4-3.8
		h2.8l-5.8,7.9L46.6,161.2z"/>
	<path class="st0" d="M56.7,151.3c1.3,0,2.2,0.4,2.9,1.2s1,1.7,1,2.9c0,1.7-0.5,3.1-1.6,4.3c-1.1,1.2-2.4,1.8-4,1.8
		c-1.2,0-2.2-0.4-2.9-1.1c-0.7-0.8-1.1-1.7-1.1-2.9c0-1.7,0.5-3.1,1.6-4.3S55.1,151.3,56.7,151.3z M56.4,153.1
		c-0.9,0-1.6,0.5-2.1,1.4c-0.5,0.9-0.8,1.9-0.8,2.9c0,0.7,0.2,1.2,0.5,1.6c0.3,0.4,0.8,0.6,1.4,0.6c0.8,0,1.5-0.5,2.1-1.4
		s0.8-1.9,0.8-3c0-0.6-0.1-1.1-0.4-1.6C57.6,153.3,57.1,153.1,56.4,153.1z"/>
	<path class="st0" d="M69.4,151.5h2.3l-1.3,6.7c-0.1,0.7-0.3,1.7-0.5,3H68l0.2-1.7h0c-1,1.3-2.1,1.9-3.4,1.9c-0.8,0-1.4-0.2-1.8-0.7
		c-0.5-0.4-0.7-1.1-0.7-2.1c0-0.5,0.1-1.1,0.2-1.7l1-5.5h2.3l-1,5.3c-0.1,0.5-0.2,1-0.2,1.3c0,0.9,0.4,1.4,1.2,1.4
		c0.6,0,1.1-0.3,1.6-0.9s0.9-1.4,1.1-2.4L69.4,151.5z"/>
	<path class="st0" d="M75.1,149.7l2.4-0.7l-0.5,2.5h2.2l-0.4,1.8h-2.2l-0.8,3.9c-0.1,0.5-0.2,1-0.2,1.4c0,0.6,0.3,0.9,0.9,0.9
		c0.3,0,0.6,0,0.8-0.1l-0.2,1.8c-0.3,0.1-0.8,0.2-1.5,0.2c-0.8,0-1.3-0.2-1.7-0.5c-0.4-0.4-0.6-0.8-0.6-1.4c0-0.5,0.1-1.1,0.2-1.8
		l0.8-4.3h-1.3l0.3-1.8h1.3L75.1,149.7z"/>
	<path class="st0" d="M81.6,161.2h-2.3L82,147h2.3l-1.1,5.9h0c0.9-1.1,2-1.7,3.3-1.7c0.7,0,1.3,0.2,1.7,0.7s0.7,1.1,0.7,1.9
		c0,0.5-0.1,1.1-0.2,1.7l-1.1,5.6h-2.3l1-5.5c0.1-0.5,0.1-0.9,0.1-1.3c0-0.9-0.4-1.3-1.2-1.3c-0.6,0-1.2,0.3-1.7,1
		c-0.5,0.6-0.9,1.5-1.1,2.5L81.6,161.2z"/>
	<path class="st0" d="M94,161.2l2.6-13.5h7.4l-0.4,2h-5.1l-0.7,3.8h4.7l-0.4,2h-4.7l-1.1,5.7H94z"/>
	<path class="st0" d="M110.6,159l0.2,1.7c-1,0.5-2.1,0.8-3.4,0.8c-1.3,0-2.3-0.4-3-1.1c-0.7-0.7-1-1.7-1-2.9c0-1.6,0.5-3,1.6-4.2
		c1-1.3,2.4-1.9,4-1.9c1,0,1.7,0.2,2.3,0.7c0.6,0.5,0.8,1.2,0.8,2c0,2.2-2.1,3.3-6.4,3.2c-0.1,0.5,0,1,0.3,1.4c0.4,0.7,1.1,1,2,1
		C108.9,159.6,109.7,159.4,110.6,159z M109.8,154c0-0.3-0.1-0.5-0.3-0.7s-0.5-0.3-0.9-0.3c-0.7,0-1.3,0.3-1.7,0.7
		c-0.5,0.5-0.8,1.1-1,1.7c1.3,0,2.3-0.1,2.9-0.3S109.8,154.6,109.8,154z"/>
	<path class="st0" d="M115,161.2h-2.3l2.7-14.2h2.3L115,161.2z"/>
	<path class="st0" d="M120,161.2h-2.3l2.7-14.2h2.3L120,161.2z"/>
	<path class="st0" d="M128.5,151.3c1.3,0,2.2,0.4,2.9,1.2s1,1.7,1,2.9c0,1.7-0.5,3.1-1.6,4.3s-2.4,1.8-4,1.8c-1.2,0-2.2-0.4-2.9-1.1
		c-0.7-0.8-1.1-1.7-1.1-2.9c0-1.7,0.5-3.1,1.6-4.3S126.9,151.3,128.5,151.3z M128.2,153.1c-0.9,0-1.6,0.5-2.1,1.4s-0.8,1.9-0.8,2.9
		c0,0.7,0.2,1.2,0.5,1.6c0.3,0.4,0.8,0.6,1.4,0.6c0.8,0,1.5-0.5,2.1-1.4c0.6-0.9,0.8-1.9,0.8-3c0-0.6-0.1-1.1-0.4-1.6
		C129.4,153.3,128.9,153.1,128.2,153.1z"/>
	<path class="st0" d="M134.1,151.5h2.3l0.2,4.7c0,1,0,1.9,0,2.9h0c0.2-0.6,0.6-1.5,1.1-2.7l2.4-4.9h1.9l0.4,4.7
		c0.1,1.2,0.1,2.1,0.1,2.9h0c0.3-1,0.7-2,1-2.9l2.1-4.8h2.4l-4.8,9.7h-2.2l-0.4-4.2c-0.1-1-0.1-2-0.1-2.9h0
		c-0.7,1.7-1.1,2.6-1.1,2.8l-2.2,4.3H135L134.1,151.5z"/>
	<path class="st0" d="M147.4,160.7l0.6-1.7c0.8,0.4,1.5,0.6,2.3,0.6c0.5,0,0.8-0.1,1.1-0.3c0.3-0.2,0.4-0.5,0.4-0.9
		c0-0.3-0.1-0.6-0.3-0.8s-0.5-0.5-1-0.7c-1.3-0.7-1.9-1.5-1.9-2.5c0-0.9,0.4-1.7,1.1-2.3s1.7-0.9,2.8-0.9c1,0,1.7,0.2,2.3,0.5
		l-0.6,1.7c-0.6-0.3-1.2-0.4-1.8-0.4c-0.4,0-0.8,0.1-1.1,0.3c-0.3,0.2-0.4,0.5-0.4,0.8c0,0.5,0.4,0.9,1.3,1.4c1.3,0.7,2,1.6,2,2.6
		c0,1.1-0.4,1.9-1.2,2.5c-0.8,0.6-1.8,0.9-3,0.9C148.9,161.4,148,161.2,147.4,160.7z"/>
	<path class="st0" d="M158,161.2h-2.3l2.7-14.2h2.3l-1.1,5.9h0c0.9-1.1,2-1.7,3.3-1.7c0.7,0,1.3,0.2,1.7,0.7
		c0.5,0.4,0.7,1.1,0.7,1.9c0,0.5-0.1,1.1-0.2,1.7l-1.1,5.6h-2.3l1-5.5c0.1-0.5,0.1-0.9,0.1-1.3c0-0.9-0.4-1.3-1.2-1.3
		c-0.6,0-1.2,0.3-1.7,1c-0.5,0.6-0.9,1.5-1.1,2.5L158,161.2z"/>
	<path class="st0" d="M169,161.2h-2.3l1.9-9.7h2.3L169,161.2z M170.1,150.1c-0.3,0-0.6-0.1-0.8-0.3c-0.2-0.2-0.3-0.5-0.3-0.9
		c0-0.4,0.1-0.7,0.4-1c0.3-0.3,0.6-0.4,1-0.4c0.4,0,0.7,0.1,0.9,0.3s0.3,0.5,0.3,0.9c0,0.4-0.2,0.8-0.4,1
		C170.8,150,170.5,150.1,170.1,150.1z"/>
	<path class="st0" d="M173.1,165.2h-2.3l1.9-10.1c0.1-0.8,0.3-2.1,0.6-3.7h2.1l-0.2,1.6h0c0.9-1.2,1.9-1.8,3.3-1.8
		c1,0,1.8,0.3,2.3,1s0.8,1.5,0.8,2.6c0,1.8-0.5,3.3-1.6,4.6c-1.1,1.3-2.4,2-4,2c-0.8,0-1.5-0.1-1.9-0.4h0L173.1,165.2z M174.7,156.8
		l-0.4,2.4c0.4,0.3,0.9,0.5,1.6,0.5c0.9,0,1.6-0.5,2.3-1.4c0.7-1,1-2,1-3.2c0-0.5-0.1-0.9-0.4-1.3c-0.2-0.4-0.6-0.6-1.2-0.6
		c-0.6,0-1.2,0.3-1.7,1S174.9,155.7,174.7,156.8z"/>
</g>
<g>
	<path class="st0" d="M63,60.3l-5.6,25.9c0,0.2-0.1,0.3-0.1,0.5c0,0.2-0.1,0.4-0.1,0.6c0,0.2-0.1,0.4-0.1,0.7c0,0.2-0.1,0.5-0.1,0.7
		c0,0.4-0.1,0.9-0.1,1.3c0,0.4-0.1,0.8-0.1,1.1c0,2.1,0.7,3.7,2.1,4.7c1.4,1,3.2,1.5,5.3,1.5c3.6,0,6.2-1,7.6-3.1
		c1.4-2.1,2.5-4.7,3.1-7.8l5.5-25.9h10.4l-5.9,27.5c-0.2,0.9-0.4,1.9-0.7,2.9c-0.2,1-0.6,2-1,3c-1.1,3-3.1,5.7-5.9,8.2
		c-2.8,2.5-7.4,3.7-13.8,3.7c-7,0-11.6-1.3-13.9-3.9c-2.3-2.6-3.4-5.5-3.5-8.7c0-0.1,0-0.2,0-0.3c0-0.1,0-0.2,0-0.2
		c0-1.2,0.1-2.3,0.2-3.3c0.2-1.1,0.3-2.1,0.5-3l5.4-25.9H63z"/>
	<path class="st0" d="M124.9,60.3h11.6L115,87.8l-3.5,16.7H101l3.5-16.7l-10-27.6h11.4l5.8,18.3L124.9,60.3z"/>
	<path class="st0" d="M165.5,79l-1.8,8.6h-18.4l-3.6,17h-10.4l9.4-44.3h32.2l-1.9,8.6h-21.7L147.1,79H165.5z"/>
</g>
</svg>
