<?xml version="1.0" encoding="utf-8"?>
<!-- Generator: Adobe Illustrator 22.0.1, SVG Export Plug-In . SVG Version: 6.00 Build 0)  -->
<svg version="1.1" id="Layer_1" xmlns="http://www.w3.org/2000/svg" xmlns:xlink="http://www.w3.org/1999/xlink" x="0px" y="0px"
	 viewBox="0 0 226.8 226.8" style="enable-background:new 0 0 226.8 226.8;" xml:space="preserve">
<style type="text/css">
	.st0{fill:#231F20;}
	.st1{fill:#FFFFFF;}
	.st2{fill:#EE1D23;}
	.st3{fill:#0089CF;}
	.st4{fill:#F68E1E;}
	.st5{fill:#AB208E;}
	.st6{fill:#00984A;}
</style>
<path class="st0" d="M112.8,139.1c2.4-0.6,4.9-0.6,7.4-0.8c3.1,0,6.3,0.2,9.1,1.6c2.2,1,3.9,3,4.5,5.4c0.9,3.4,0,7.4-2.6,9.8
	c-1.1,1.1-2.5,1.8-3.8,2.6c2.2,0.8,4.5,1.9,5.8,3.9c2,2.8,2,6.7,0.9,9.8c-1,3.1-3.6,5.5-6.6,6.6c-4.7,1.6-9.8,1.3-14.5,0.3
	c-0.9-0.2-1.5-1.1-1.5-2c0-11.7,0-23.4,0-35.2C111.5,140.4,111.9,139.3,112.8,139.1 M117.9,142.5c-0.1,4.6,0,9.1,0,13.7
	c1.7,0,3.5,0.1,5.1-0.4c1.8-0.5,3.4-2,4.1-3.7c0.7-1.8,0.7-3.8,0.3-5.7c-0.3-1.6-1.5-3-3.1-3.6C122.2,142.1,120,142.2,117.9,142.5
	 M117.8,159.8c0,5,0,10,0,15c2.5,0.6,5.3,0.7,7.6-0.7c2.1-1.4,2.9-4,2.9-6.4c0.1-2.2-0.4-4.7-2.2-6.1
	C123.8,159.7,120.6,159.8,117.8,159.8 M154.6,139.1c1.9-0.5,4-0.6,6-0.7c1.7-0.2,3.5,0,5.2,0.1c2.9,0.3,5.9,1.1,8,3.3
	c1.8,1.8,2.5,4.5,2.2,7c-0.1,2.7-1.4,5.2-3.5,6.9c-0.9,0.9-2.1,1.3-3.1,2.1c2.3,0.8,4.6,2.1,6,4.1c1.9,2.9,1.8,6.7,0.7,9.9
	c-0.9,2.7-3.2,4.9-5.8,6c-3,1.3-6.2,1.5-9.4,1.4c-2.1-0.1-4.2-0.4-6.2-0.9c-0.9-0.3-1.3-1.3-1.2-2.2c0-11.5,0-23.1,0-34.6
	C153.3,140.6,153.5,139.4,154.6,139.1 M159.8,142.5c0,4.6,0,9.2,0,13.8c1.7,0,3.5,0.2,5.2-0.4c1.6-0.5,3.1-1.7,3.8-3.3
	c0.9-1.9,0.9-4.1,0.5-6.2c-0.4-1.4-1.3-2.7-2.6-3.3C164.4,142.1,162,142.2,159.8,142.5 M159.7,159.8c0,5,0,9.9,0,14.9
	c0.4,0.4,1,0.3,1.5,0.4c2.3,0.3,4.9,0.1,6.7-1.7c1.5-1.4,2-3.5,2.1-5.5c0.2-2.4-0.4-5-2.4-6.5C165.4,159.7,162.5,159.8,159.7,159.8
	 M57.7,140c0.2-0.7,0.8-1.5,1.6-1.4c5.5,0,11,0,16.5,0c0.9,0.1,1.1,1.1,1,1.9c0,12,0,23.9,0,35.9c0,0.7,0,1.5-0.5,1.9
	c-0.7,0.5-1.6,0.3-2.4,0.4c-0.9,0-1.8,0.1-2.7-0.1c-0.7-0.2-0.8-1.1-0.8-1.7c0-11.4,0-22.8,0-34.2c-2.5,0-5.1,0-7.6,0
	c-0.5,6.9-0.8,13.9-1.8,20.8c-0.6,3.9-1.3,7.9-3.2,11.5c-1.2,2.3-3.3,4.1-6,4.4c-0.7,0-1.8,0.4-2.2-0.5c-0.3-1.4-0.3-2.8-0.5-4.2
	c-0.1-0.5,0-1,0.2-1.5c0.9-0.6,2.1-0.5,2.9-1.3c2-2,2.5-5,3-7.6c1-6.7,1.5-13.4,1.9-20.1C57.5,142.8,57.4,141.4,57.7,140
	 M83.9,140.1c-0.1-0.6,0.2-1.4,1-1.4c1.3,0,2.7,0,4,0c0.8-0.1,1.4,0.7,1.4,1.4c0,5.1,0,10.3,0,15.4c3.1-0.8,6.4-0.7,9.5,0.1
	c3,0.9,5.6,3.2,6.5,6.2c0.8,2.5,1.1,5.3,0.5,7.9c-0.8,3.4-3.1,6.4-6.3,7.9c-3.3,1.5-7,1.7-10.6,1.5c-1.6-0.1-3.1-0.3-4.6-0.7
	c-0.7-0.2-1.3-0.8-1.3-1.5C83.9,164.6,83.9,152.3,83.9,140.1 M90.2,159.5c0,5.2,0,10.3,0,15.5c1.4,0.2,2.9,0.4,4.3,0.1
	c1.9-0.2,3.6-1.4,4.7-3c1.4-2.3,1.5-5.1,1.1-7.7c-0.3-2-1.5-4-3.4-4.9C94.8,158.5,92.4,158.9,90.2,159.5 M140.6,138.7
	c1.4-0.2,2.9,0,4.4-0.1c0.7-0.1,1.2,0.5,1.2,1.2c0,12.4,0,24.9,0,37.3c0,0.5-0.1,0.9-0.4,1.3c-0.6,0.4-1.3,0.3-2,0.3
	c-1,0-2,0.1-3-0.1c-0.8-0.1-1-1-1-1.7c0-12.1,0-24.2,0-36.4C139.8,139.9,139.8,139,140.6,138.7 M109.3,185.3
	c0.4-0.1,0.8-0.1,1.2-0.1c0.2,0.5,0.5,1.2,1.2,1.1c0.6,0,0.8-0.6,1-1.1c0.4,0,0.8,0.1,1.2,0.1c0.1,1.2-1.1,2.1-2.2,1.9
	C110.5,187.5,109.3,186.6,109.3,185.3 M53,187.8c1.4,0,2.8-0.3,4.1,0.3c1.4,0.5,1.4,2.8,0,3.3c0.6,0.3,1.2,0.6,1.4,1.3
	c0,0.6,0.1,1.2-0.1,1.7c-0.3,0.8-1.2,1.1-2,1.3c-1.2,0.1-2.4,0-3.5,0c-0.2-1.4-0.1-2.8-0.1-4.2C52.9,190.3,52.7,189,53,187.8
	 M54.5,188.9c0,0.7,0,1.4,0,2.2c0.5,0,1,0,1.5,0c0.6-0.3,0.7-1,0.5-1.5C56.1,188.8,55.2,188.9,54.5,188.9 M54.5,192.2
	c0,0.8,0,1.6,0,2.4c0.6,0,1.3,0.1,1.9-0.1c0.6-0.2,0.7-0.9,0.6-1.5C56.5,192.1,55.4,192.2,54.5,192.2 M59.9,187.7c0.5,0,1,0,1.5,0
	c0,2.7,0,5.4,0,8.1c-0.5,0.1-1,0-1.6,0C59.9,193.1,59.8,190.4,59.9,187.7 M64.8,187.8c1.5-0.1,2.9-0.1,4.4,0c0.4,0,0.6,0.4,0.5,0.7
	c0,2,0,4,0,6c0.3,0,0.6,0.1,1,0.1c0,1.1,0,2.2,0,3.3c-0.5,0-0.9,0-1.4,0c0-0.7,0-1.4,0-2.1c-1.8,0-3.6,0-5.4,0c0,0.7,0,1.4,0,2.1
	c-0.5,0-0.9,0-1.4,0c0-1.1,0-2.1,0-3.2c0.3-0.1,0.6-0.2,0.9-0.4C64.5,192.3,64.3,189.9,64.8,187.8 M66.2,189
	c-0.3,1.8-0.4,3.8-1.3,5.4c1.1,0,2.1,0,3.2,0c0-1.8,0-3.6,0-5.4C67.5,189,66.8,189,66.2,189 M71.8,187.7c0.5,0,1,0,1.6,0
	c0,1.1,0,2.3,0.1,3.4c0.4-0.1,0.8-0.2,1.2-0.4c0.7-0.9,0.9-2,1.3-3c0.5,0,1.1,0,1.7,0c-0.5,1.3-0.7,3-2,3.8c1.4,0.9,1.7,2.7,2.3,4.1
	c-0.5,0.1-1.1,0.3-1.6,0c-0.6-0.9-0.6-2.1-1.4-2.9c-0.3-0.4-0.9-0.4-1.4-0.5c0,1.2,0,2.3,0,3.5c-0.5,0.1-1,0.1-1.6,0
	C71.7,193.1,71.7,190.4,71.8,187.7 M79,187.8c1.6,0,3.5-0.4,4.8,0.8c0.9,1,0.8,2.8-0.3,3.7c-0.8,0.8-2,0.6-3,0.7c0,1,0,1.9-0.1,2.9
	c-0.5,0.1-1,0-1.6,0c0-1.7,0-3.5,0-5.2C78.8,189.6,78.7,188.7,79,187.8 M80.5,188.9c0,1,0,1.9,0,2.9c0.7,0,1.5,0.1,2-0.6
	c0.2-0.6,0.3-1.5-0.3-2C81.6,189,81,189,80.5,188.9 M85.5,187.7c0.5,0,1,0,1.5,0c0.2,1.8,0,3.5,0.1,5.3c1.1-1.6,2.2-3.3,3.3-4.9
	c0.3-0.6,1-0.3,1.6-0.4c0.1,2.7,0,5.4,0.1,8.1c-0.5,0.1-1.1,0.1-1.6,0c0-1.8,0-3.5,0-5.3c-1.1,1.7-2.2,3.4-3.4,5.1
	c-0.3,0.5-1,0.2-1.5,0.2C85.4,193.1,85.3,190.4,85.5,187.7 M93,187.7c2,0,4,0,6,0c0.1,0.4,0.1,0.9,0.1,1.3c-0.7,0.1-1.5,0-2.2,0
	c0,2.2,0,4.4,0,6.7c-0.5,0.1-1.1,0.1-1.6,0c0-2.2,0-4.4,0-6.7c-0.8,0-1.5,0-2.3-0.1C92.9,188.6,93,188.2,93,187.7 M100.1,187.7
	c0.5,0,1,0,1.5,0c0.2,1.8,0,3.5,0.1,5.3c1.1-1.6,2.2-3.3,3.3-4.9c0.3-0.6,1-0.3,1.6-0.4c0.2,2.7,0,5.4,0.1,8.1
	c-0.5,0.1-1.1,0.1-1.6,0c0-1.8,0-3.5,0-5.3c-1.2,1.7-2.2,3.4-3.4,5.1c-0.4,0.5-1,0.2-1.5,0.2C100.1,193.1,100,190.4,100.1,187.7
	 M108.3,187.8c0.5,0,1,0,1.5,0c0.1,1.8,0,3.5,0,5.3c1.3-1.7,2.4-3.5,3.6-5.3c0.4,0,0.9,0,1.3,0c0,2.7,0,5.4,0,8.1
	c-0.5,0.1-1.1,0-1.6,0c0-1.7,0-3.5,0-5.2c-1.2,1.6-2.2,3.3-3.4,5c-0.4,0.5-1.1,0.3-1.6,0.2C108.2,193.1,108.2,190.4,108.3,187.8
	 M121.2,187.8c1.5-0.1,3.1-0.1,4.6,0c0.3,2.2,0.1,4.4,0.1,6.6c0.3,0.1,0.7,0.1,1,0.2c0,1.1,0,2.2,0,3.3c-0.5,0-0.9,0-1.4,0
	c0-0.7,0-1.4,0-2.1c-1.8,0-3.6,0-5.4,0c0,0.7,0,1.4,0,2.1c-0.5,0-1,0-1.4,0c0-1-0.1-2,0-3c0.3-0.4,1-0.6,1.1-1.1
	c0.8-1.8,0.8-3.8,1.2-5.7C121,188,121.2,187.8,121.2,187.8 M122.4,189c-0.2,1.8-0.4,3.8-1.3,5.4c1,0,2,0,3,0l0.1-0.1
	c0.1-1.8,0-3.5,0-5.3C123.7,189,123,189,122.4,189 M129.9,187.8c1.5-0.1,3.1-0.1,4.6,0c0.2,1.2,0.1,2.3,0.1,3.5c0,1.5,0.1,3-0.1,4.5
	c-0.5,0.1-1.1,0.1-1.6,0c0-2.2,0-4.5,0-6.7c-0.6,0-1.1,0-1.7,0c-0.3,1.9-0.4,3.9-1.3,5.7c-0.4,0.9-1.5,1.2-2.4,1.2
	c-0.1-0.4-0.1-0.8-0.1-1.3c0.4-0.3,1-0.5,1.2-1C129.5,191.8,129.4,189.7,129.9,187.8 M136.9,188.4c1.4-1,3.2-0.7,4.8-0.6
	c0.2,2.7,0,5.3,0.1,8c-0.5,0.1-1,0.1-1.5,0c0-1.1,0-2.2,0-3.3c-0.6,0.1-1.4-0.1-1.7,0.5c-0.5,0.8-0.6,1.7-1,2.5
	c-0.5,0.4-1.2,0.2-1.8,0.1c0.5-1.3,0.8-2.8,1.9-3.7C136,191.7,135.6,189.4,136.9,188.4 M138.4,189.1c-0.7,0.3-0.8,1.2-0.4,1.7
	c0.5,0.7,1.5,0.4,2.2,0.5c0-0.8,0-1.6-0.1-2.4C139.6,188.9,139,189,138.4,189.1 M147.3,188.6c0.7-0.8,1.9-1.1,2.9-1
	c0.7,0.1,1.5,0.2,1.9,0.8c0,0.4,0,0.8,0,1.2c-0.9-0.4-1.8-1-2.7-0.6c-1,0.4-1.4,1.5-1.4,2.5c-0.1,1.1,0.2,2.6,1.4,2.9
	c0.9,0.4,1.9-0.2,2.7-0.6c0,0.5,0,0.9,0,1.4c-1.2,0.7-2.6,0.9-3.9,0.4c-1.3-0.5-2-2.1-2-3.4C146.1,190.9,146.3,189.5,147.3,188.6
	 M153.2,188.4c-0.1-0.4,0.3-0.8,0.7-0.7c1.3,0,2.9-0.2,4,0.6c0.9,0.8,0.7,2.4-0.3,3c0.6,0.3,1.2,0.7,1.3,1.4c0.5,1.3-0.7,2.7-2,2.9
	c-1.2,0.1-2.4,0.1-3.7,0C153.2,193.3,153.2,190.9,153.2,188.4 M154.8,188.9c0,0.7,0,1.4,0,2.2c0.5,0,0.9,0,1.4,0
	c0.8-0.1,0.9-1.2,0.4-1.7C156.1,188.9,155.4,188.9,154.8,188.9 M154.8,192.2c0,0.8,0,1.6,0,2.4c0.8-0.1,1.7,0.2,2.3-0.4
	c0.5-0.5,0.1-1.2-0.1-1.7C156.3,192.3,155.6,192.2,154.8,192.2 M160.3,187.7c0.5,0,1,0,1.6,0c0.1,2.7,0,5.4,0,8
	c-0.5,0.1-1.1,0.1-1.6,0C160.2,193.1,160.2,190.4,160.3,187.7 M162.8,187.7c2,0,4.1-0.1,6.1,0c0,0.4,0,0.8,0,1.3
	c-0.8,0.1-1.5,0.1-2.3,0.1c0,2.2,0,4.5,0,6.7c-0.5,0.1-1.1,0-1.6,0c-0.1-2.2,0-4.5,0-6.7c-0.7,0-1.5,0-2.2,0
	C162.8,188.6,162.8,188.2,162.8,187.7 M169.4,187.8c0.6-0.1,1.1-0.1,1.7-0.1c0.8,1.4,1.4,2.9,2.1,4.4c0.5-1.5,1-2.9,1.6-4.4
	c0.5,0,1.1,0,1.6,0c-0.5,1.6-1.2,3.2-1.8,4.8c-0.4,1-0.7,2-1.4,2.8c-0.7,0.7-1.8,0.7-2.7,0.3c0-0.5,0-0.9,0-1.4
	c0.5,0,0.9,0.2,1.4,0.1c0.2-0.3,0.6-0.6,0.3-0.9C171.3,191.5,170.2,189.7,169.4,187.8L169.4,187.8z"/>
<g>
	<path class="st1" d="M86.7,28.5c-0.9,1.4,0,3-0.5,4.5c-0.7,0-1.4,0-2,0.5c0.1,0.3,0.2,0.6,0.3,0.9c0.6,0.1,1.7-0.1,1.9,0.7
		c0.4,1.4,0.4,2.8,0.2,4.2c-0.8,1.3-2.4,2.3-2.8,3.9c-0.3,1,1,1.3,1.1,2.2c0.2,0.9,0.4,1.9,0.3,2.8c-1.1,1.1-2.9,1.8-3.4,3.5
		c-0.6,1.1-0.1,2.8-1.4,3.5c-0.5-2.3-0.5-4.6-1.2-6.9c-0.1-0.6-0.6-0.9-1-1.3c-0.8,1.4-1,3.1-1.4,4.7c-0.3,1.7-0.6,3.4-0.5,5.1
		c0.1,1.9,0,3.9,0.2,5.8c0,4,0,7.9,0.1,11.9c-0.7,0.3-1.3,0.9-1.3,1.7c0.3,0.4,0.8,0.5,1.2,0.7c0,1.2,0,2.3-0.1,3.4
		c-0.1,3.4-0.1,6.7-0.1,10.1c-0.3,5.2-0.6,10.4-1,15.6c-0.1,1.7,0,3.4-0.2,5.1c-0.1,4.7-0.1,9.4-0.1,14.2c0,0.7,0.2,1.3,0.5,1.8
		c0.7-0.6,1-1.5,1.1-2.4c1-8.1,1.7-16.2,2.6-24.2c1.3,0,2.6,0.3,3.8,0.3c1.6,0,3.1,0,4.7,0c0.2,0.4,0.4,0.8,0.6,1.2
		c0.2,0,0.6,0.1,0.7,0.1c0.1-0.4,0.2-0.9,0.3-1.3c0.5-0.1,1.1-0.3,1.6-0.3c0.4,0.1,0.7,0.3,1.1,0.5c0.5-0.1,0.7-0.7,0.9-1.2
		c0.8-0.3,1.6-0.6,2.4-1c0.7,8.1,0.9,16.2,2.2,24.3c0,1,1,2.1,2,1.6c0.8-0.6,1-1.8,1.1-2.7c0.1-2.2-0.1-4.4-0.2-6.6
		c0-3.4-0.4-6.8-0.6-10.1c-0.3-2.4-0.5-4.7-0.5-7.1c-0.3-2.4-0.1-4.7-0.4-7.1c-0.1-1.9-0.1-3.9-0.3-5.8c0-2.9-0.1-5.7-0.1-8.6
		c0-6.3,0.2-12.6,0.1-19c-0.2-1,1.3-1.1,1.3-2c0.1-0.9-0.9-1.2-1.4-1.6c-0.1-2.9-0.2-5.8-0.7-8.7c-0.1-0.6-0.6-1.1-1.1-1.4
		c-0.3,0.3-0.6,0.7-0.7,1.1c-0.3,1.7,0,3.5-0.3,5.3c-0.2,1.3,0,2.7-0.5,3.9c-0.5-1-0.4-2.2-0.9-3.2c-0.8-1.6-2.7-2.1-4-3.1
		c-0.6-0.6,0-1.5-0.1-2.2c0-1.1,1.2-1.7,1.1-2.8c-0.2-1.8-1.6-3.3-3.3-3.9c-0.1-1.6-0.1-3.2,0.4-4.7c0.6-0.1,1.2-0.1,1.8-0.2
		c0-0.4,0-0.8-0.1-1.2c-0.7-0.1-1.3-0.1-2-0.2c-0.2-1.1-0.4-2.2-0.4-3.3c0-0.5-0.3-0.9-0.5-1.3C87.3,28.4,86.9,28.5,86.7,28.5"/>
	<path class="st1" d="M143.5,31.8c-0.6,1.3-0.6,2.7-0.6,4.1c-0.7,0.1-1.5,0.1-2.2,0.2c-0.6,0.4-0.3,1.3,0.3,1.6
		c0.6,0.2,1.3,0.2,1.9,0.3c0,1.3,0.1,2.5-0.2,3.8c-0.4,0.6-1,1.1-1.3,1.8c-0.7,1.9-0.5,4-0.8,6c-1.2,0.3-2.9,0.8-2.9,2.3
		c0.2,0.9,1.2,1.3,1.9,1.8c-0.3,2.1-0.5,4.4-1.5,6.3c-0.8,1.8-2.1,3.3-3.2,5c-0.1-1,0-2.2-0.5-3.1c-0.3-0.4-0.8-0.3-1.3-0.4
		c-0.8,2.2-0.8,4.6-0.9,6.9c-0.7,0.4-1.6,0.8-2,1.5c-0.4,0.6-0.3,1.3-0.2,2c0.2,0.7,1,1,1.6,1.2c-0.4,5.4-0.7,10.8-0.6,16.3
		c0.1,2.7-0.3,5.4,0,8.1c0,4.4,0,8.8,0.1,13.2c0.1,2.5-0.1,5.1,0.1,7.6c0,1.8,0.2,3.5,0.6,5.2c0.4,1.5,1.8,2.7,3.4,2.6
		c0.8-0.9,1-2.3,0.7-3.5c-1.1-5.3-1.8-10.6-2.1-16c4.4-0.5,8.8-0.3,13.1-1.2c0.3,5.1,1,10.2,1.4,15.3c0.1,0.9,0.2,1.8,0.6,2.6
		c0.2,0.3,0.3,0.8,0.8,0.6c0.2-0.2,0.4-0.5,0.5-0.8c0.3-1.7,0.2-3.5,0.2-5.2c0-1.6,0-3.2-0.1-4.8c-0.1-2,0-4-0.2-6
		c-0.2-1.7-0.1-3.4-0.2-5.1c-0.3-2.8-0.1-5.6-0.4-8.3c0-3.2,0-6.4,0-9.6c0.3-3.8,0.1-7.8,1-11.5c0.9-0.1,2-0.5,2-1.6
		c0.2-0.9-0.5-1.7-1.1-2.3c0.3-1.3,0.6-2.7-0.2-3.9c-0.7,0-1.2,0.4-1.7,0.9c-0.9-1.7-1.8-3.3-2.6-5.1c-0.9-2.1-0.9-4.5-1-6.7
		c0.5-0.4,1.4-0.8,1.3-1.6c0.1-0.9-0.7-1.4-1.2-1.9c-0.5-1.5-0.3-3.1-0.3-4.7c0-0.9,0.2-1.9-0.3-2.8c-0.2-0.5-0.7-0.8-1.2-1.1
		c0.2-1.3,0-2.6,0.3-3.8c0.7-0.2,1.5-0.3,2.2-0.5c-0.1-0.5,0.1-1.1-0.4-1.3c-0.5-0.3-1.1-0.2-1.6-0.2c-0.1-1.2,0.3-2.4,0.1-3.6
		C144.7,31.8,143.9,31,143.5,31.8"/>
	<path class="st1" d="M115.6,36c-1,0-2,0.2-2.9,0.4c-0.1,0.7-0.1,1.4,0,2.1c0.4,2.1,0.7,4.2,1.1,6.2c0.1,0.5,0,1-0.1,1.4
		c-0.5,1.9-0.9,3.9-1.4,5.8c-1.9,0-3.9-0.1-5.8,0.2c-1.3,0.2-2.5,0-3.8,0.3c0.1,1.1,0.4,2.4,1.5,3c0.9,0.2,1.8,0.1,2.7,0.1
		c1,0,1.9-0.4,2.9,0c-1.6,0.8-3.4,1.1-5.2,1.6c-1.3,0.3-1.9,2.1-0.9,3c0.5,0.6,1.3,0.5,2,0.6c0.3,2.4,0.4,4.8,0.5,7.3
		c0.3,1.7,0.1,3.3,0.3,5c0.2,1.5,0.1,2.9,0.2,4.4c0.4,2.9,0,5.7,0.4,8.6c0.1,3.2,0,6.4,0.3,9.6c0.1,1.9,0,3.8,0,5.7
		c-1,0.4-2.4,1.2-2,2.5c0.5,0.7,1.5,0.6,2.3,0.6c0,2.3,0,4.5,0.2,6.8c0,2,0.3,4,0.3,6.1c0.3,2.3,0.3,4.7,1.1,7
		c0.3,0.9,1.3,1.7,2.3,1.3c0.7-0.6,0.7-1.6,0.6-2.4c-0.6-3.6-0.8-7.3-1.2-10.9c-0.1-2.7-0.5-5.4-0.5-8.1c1.5,0,3.1,0,4.6-0.2
		c2.1-0.1,4.2-0.1,6.3,0c0.5,2.2,0.2,4.5,0.4,6.8c0.3,2.4,0,4.8,0.3,7.2c0.2,2.3,0.3,4.7,0.9,7c0.3,0.8,0.8,2.1,1.9,1.8
		c0.8-1.2,0.4-2.7,0.4-4c0-1.7-0.3-3.4-0.3-5.1c0.1-1.8-0.3-3.5-0.3-5.3c0-2.6-0.1-5.2,0-7.7c0.8-0.4,1.5-1.2,1.3-2.1
		c0.1-0.7-0.8-0.9-1.3-1.1c-0.1-4.4,0-8.9,0-13.3c0.1-1.5,0.3-3,0.2-4.5c-0.1-2,0.3-4,0.3-6c0.3-1.8,0.1-3.6,0.4-5.3
		c0.2-4.1,0.7-8.2,0.9-12.3c0.6-0.2,1.4-0.2,1.6-0.9c0.5-1.2,0.8-2.4,1.2-3.6c0.2-0.6,0.5-1.3,0.4-2c-0.5-0.7-1.4-0.8-2.2-0.9
		c-0.2-0.7-0.1-1.8-1-2c-0.8,0.4-1,1.3-1.4,2.1c-1.8,0-3.6,0.2-5.4,0c-1.1-1.9-2.4-3.6-3.8-5.1c-0.1-2-0.6-3.9-0.7-5.9
		c1.7-0.3,3.4-0.4,5-0.2c1.1,0.2,2.2,0,3.2-0.3c0.5-1.5-0.3-3.1-0.4-4.6c-0.1-0.7-0.9-0.9-1.5-0.9C119.4,35.2,117.5,36,115.6,36"/>
	<path class="st1" d="M167.4,48.6c-0.5,1.4-0.5,2.8-0.6,4.2c-0.8,0.1-1.6,0-2.3,0.2c-0.2,0.5-0.1,1-0.2,1.5c0.9,0.5,1.9,0.2,2.8,0
		c0,1.3-0.1,2.6-0.3,3.8c-0.1,0.4-0.4,0.6-0.6,0.9c-0.6,0.7-0.8,1.7-1.2,2.6c-0.4,0.8-1.7,0.4-2.1,1.2c-0.3,0.7,0.2,1.4,0.5,2
		c0.5,0.9,0.7,2,0.7,3.1c0,0.7,0.1,1.4-0.3,2c-1.2,1.2-3.1,1.3-4.3,2.5c-1.8,1.7-2.8,3.9-3.8,6.1c-0.4,0.9-1.6,1-2.2,1.7
		c0,1.4,1.6,1.8,2.7,2.2c0.6,0.1,0.5,0.8,0.6,1.3c0.1,1.8-0.3,3.7-0.3,5.5c-1.1,0-2.1,0.3-3.1,0.8c-0.1,1.2,0.8,2,1.8,2.5
		c0.5,4,0.5,8.1,0.3,12.1c0.1,2.4-0.2,4.7-0.2,7.1c0,3-0.1,5.9,0.2,8.9c0.1,0.9,0,1.8,0.4,2.6c0.3,0.3,0.7,0.5,1.1,0.6
		c0.5-0.1,0.9-0.4,1.3-0.7c0-4.9-0.1-9.8-0.1-14.7c-0.3-3.2,0-6.4-0.4-9.6c0.1-2.2-0.2-4.4-0.3-6.6c1.1,0,2.3,0,3.4,0
		c-0.1,3.6-0.1,7.2-0.1,10.9c-0.1,1.6-0.2,3.2-0.2,4.8c0,2.1-0.3,4.2-0.3,6.3c0.1,2.4-0.3,4.7-0.3,7.1c0,1.1-0.6,2.5,0.4,3.5
		c1.1,0.3,2.2-0.9,2.2-2c0-4.8,0-9.6,0-14.4c0.2-2.9,0.2-5.9,0.2-8.8c-0.1-2.4,0.2-4.7,0.3-7c1,0,2,0,3-0.1c0,1.4,0.1,2.8-0.2,4.1
		c-0.9,3.9-1.2,8-1.4,12c-0.2,3.4-0.2,6.8-0.1,10.2c0.2,1.1,0,2.4,0.6,3.3c0.4,0.6,1.1,0.4,1.7,0.4c0.3-3.1,0-6.3,0.2-9.4
		c0.3-2.7,0-5.5,0.4-8.2c0.1-1.4,0.1-2.7,0.3-4c0.2-2.7,0-5.4,0.1-8.2c0.8,0.1,1.7,0.2,2.5,0.3c0,1.2,0,2.4-0.1,3.6
		c-0.2,1.9-0.1,3.8-0.3,5.7c-0.2,3.5-0.1,7.1-0.1,10.6c-0.1,2,0.2,4,0.4,6c0.2,1,0.3,2.2,1.2,2.8c0.4-0.1,0.8-0.3,1.2-0.4
		c-0.1-1.6-0.5-3.2-0.6-4.8c-0.1-4.6-0.1-9.3,0-13.9c0-2.4,0.5-4.7,0.5-7.1c0-1,0-2.1,0.7-2.9c0.4-0.5,0.3-1.1,0.4-1.7
		c-0.4-0.1-0.7-0.3-1.1-0.4c0.3-2.2,0.2-4.5,0.8-6.7c1.4-0.2,3.1-0.6,3.5-2.1c0.3-1.4-1.6-1.8-1.7-3.1c-0.3-3.5-2.7-6.6-5.9-7.8
		c0.2-0.4,0.6-0.9,0.4-1.4c-0.3-1.2-0.4-2.5-0.2-3.8c0.6-0.1,1.2-0.2,1.7-0.4c0.1-0.5,0.4-1.1,0.3-1.6c-0.6-0.7-1.4-1.1-1.6-2
		c-0.3-1.1-0.8-2.2-1.4-3.2c-0.1-1.4,0.3-2.8,0.3-4.2c0.9-0.1,2.3,0.1,2.6-1.1c-0.2-1.2-1.8-0.9-2.7-1.1c0.2-1.1,0.3-2.3,0.4-3.4
		C169.1,48.3,167.7,47.7,167.4,48.6"/>
	<path class="st1" d="M58.2,56c-0.7,1.4-0.5,2.9-0.2,4.4c-0.7,0.2-1.8,0.1-2.1,1c0,1,1.4,0.6,2,0.8c-0.1,1.8,0,3.8-0.7,5.5
		c-0.2,0.8-1,1.1-1.5,1.6c-0.3,0.8,0.5,1.5,1.1,1.9c-0.4,3.2-0.9,6.5-1.3,9.7c-0.6-4.1-1-8.2-2.5-12.1c-0.2-0.4-0.3-1-0.9-0.9
		c-0.9,1.1-1.1,2.5-1.4,3.9c-0.3,1.5-0.6,3-0.4,4.5c-0.4,0.2-0.7,0.4-1.1,0.5c0.1,0.4,0.1,0.8,0.4,1.1c0.3,0.3,0.7,0.4,0.7,0.9
		c0.2,3.6,0.1,7.2,0.5,10.8c0,4,0.3,7.9,0.3,11.9c0.1,3.4-0.3,6.7-0.3,10.1c-0.3,3-0.2,6.1-0.2,9.1c0.1,1.1,0,2.3,0.8,3.2
		c0.5,0.6,1.2,1.3,2.1,1c1.2-0.7,0.8-2.3,0.9-3.5c-0.6-6.8-0.9-13.6-1.5-20.5c0-1.9-0.3-3.9-0.3-5.8c0-2.4-0.3-4.7-0.2-7.1
		c0.9,0,1.8,0,2.7,0.1c0.1,2.6-0.1,5.2,0.3,7.8c0,1.7,0.2,3.3,0.3,5c0.7,7.6,1.3,15.3,3,22.8c0.1,0.9,1.2,2.1,2,1.2
		c0.1-0.8,0-1.6-0.1-2.3c-1.9-7.9-2.5-16-3.3-24c-0.3-3.5-0.5-7-0.3-10.5c1.6,0,3.2,0.2,4.8,0.3c0.1,1.8,0,3.7,0.1,5.5
		c0.2,2.2,0.1,4.4,0.3,6.6c0.2,6.4,0.6,12.7,1.8,19c0.2,0.7,0.3,1.6,1.1,1.9c0.3-0.1,0.4-0.3,0.4-0.6c-0.1-2.7-0.5-5.3-0.7-8
		c-0.4-3.4-0.4-6.7-0.7-10.1c0-2.3-0.1-4.5-0.3-6.8c0-2.5-0.1-5.1-0.1-7.6c0.8,0,1.6,0,2.4,0c0,4.1,0.4,8.1,0.6,12.1
		c0.4,5.6,0.9,11.3,1.5,16.9c0.1,1,0.2,2.3,1.4,2.5c1-1.8,0.3-3.8,0.2-5.7c-0.4-3.7-0.5-7.4-0.7-11.1c0.1-3.5-0.3-6.9-0.3-10.4
		c0-1.2-0.3-2.5-0.2-3.7c0.2-0.4,0.5-0.7,0.7-1.1c-0.3-0.3-0.6-0.6-0.8-1c-0.1-0.9-0.1-1.8-0.1-2.7c-0.3-3,0.1-5.9-0.4-8.9
		c-0.2-2.3-1.1-4.5-1.6-6.8c-0.2-0.8-0.5-1.8-1.2-2.2c-0.5-0.2-0.7,0.3-0.9,0.7c-0.7,2.1-1,4.4-1.6,6.5c-0.4,1.4-0.4,2.9-0.6,4.4
		c-0.6-1.9-1.2-3.9-1.6-5.9c-0.3-0.8,0.7-1.5,0.3-2.3c-0.2-0.7-1-1-1.2-1.6c-0.5-1.8-0.4-3.7-0.4-5.6c0.5,0,1.1-0.1,1.6-0.1
		c0-0.4,0-0.9,0-1.3c-0.5-0.2-1-0.3-1.5-0.4c0-1.5,0.1-3-0.3-4.4C58.7,56,58.4,56,58.2,56"/>
	<path class="st1" d="M58.3,95.4c-0.1,3.2,0.6,6.3,1.1,9.5c0.3,1.2,0.3,2.5,1.2,3.4c1-0.7,0.7-1.9,0.5-2.9
		c-0.3-3.8-0.5-7.5-0.6-11.3c0-0.6-0.4-1.1-0.8-1.5C58.7,93.2,58.3,94.3,58.3,95.4"/>
	<path class="st1" d="M89.2,109.4c-0.3,1.2-0.4,2.4-0.4,3.7c0,3.5,0.4,6.9,0.6,10.4c0.1,1,0.2,2.2,1.2,2.7c0.6-1.1,0.5-2.3,0.4-3.5
		c-0.2-1.8-0.3-3.5-0.5-5.3c-0.1-1.5-0.4-3.1,0.2-4.5c0.4,0.6,0.8,1.3,0.9,2.1c0.5,3.2,0.8,6.4,1.9,9.5c0.2,0.4,0.4,1.1,1,1
		c0.8-0.8,0.5-2,0.4-3.1c-0.2-1.3-0.2-2.7-0.2-4.1c-0.3-2.8-0.1-5.7-0.6-8.5c-0.2-0.8-0.6-1.5-1.3-1.9
		C91.6,107.3,89.6,107.9,89.2,109.4"/>
	<path class="st1" d="M82.8,108.4c-1.1,0.8-1.5,2.2-1.7,3.5c-0.4,2.7-0.7,5.3-0.9,8c-0.2,1.8-0.4,3.7,0.2,5.4
		c0.4-0.1,0.9-0.1,1.2-0.5c0.6-0.8,0.4-1.9,0.5-2.8c0.3-3,0.6-6,1.2-9c0.1-0.6,0.3-1.3,0.6-1.9c0.3,0.4,0.6,0.8,0.7,1.3
		c0.7,3.3,0.9,6.7,0.9,10c0.1,1.2,0.2,2.7,1.3,3.4c0.4,0.2,0.9-0.1,1-0.5c0.5-1.2,0.4-2.4,0.3-3.7c-0.3-3.8-0.9-7.5-1.6-11.3
		c-0.2-0.7-0.4-1.3-0.9-1.8C84.8,107.9,83.6,107.7,82.8,108.4"/>
	<path class="st1" d="M86.2,43.3c0.5-0.7,0.9-1.7,1.8-1.9c0.6,0.6,1,1.2,1.4,1.9c-1,0.8-1.1,2.1-0.9,3.3c0.2,1.2-0.7,2.4,0.1,3.5
		c0.8,1.2,2.2,1.8,3.1,3c0.6,0.7,0.9,1.6,1.1,2.5c-1.7,0.2-3.4,0.3-5,0.7c-1.1,0.3-2.2,0.3-3.4,0.1c-0.7-0.1-1.2-0.9-1-1.6
		c0.2-1.2,0.6-2.3,1.3-3.3c0.6-0.9,1.9-1.2,2.4-2.2c0.2-1.4,0-2.8,0.1-4.2C87.1,44.4,86.5,43.9,86.2,43.3"/>
	<path class="st1" d="M142.1,50.2c0.4-0.6,0.4-1.5,1.1-2c0.6,0.7,0.1,1.7,0.2,2.5c-0.1,0.7,0.5,1.1,0.9,1.6
		c-0.5,0.4-1.2,0.8-1.3,1.5c-0.3,2.8,0,5.6,1.3,8.1c0.9,2,2.2,3.9,3.3,5.8c0.3,0.4,0.1,0.9,0.1,1.3c-0.8-0.5-1-1.5-1.5-2.2
		c-1.1-1.7-2.9-3.3-5-3.1c-1.3,0-2.3,0.8-3.4,1.5c1.7-3.3,3.3-6.7,3.6-10.5c0.1-1.2-0.4-2.3-1.1-3.1
		C140.9,51.2,141.7,50.9,142.1,50.2"/>
	<path class="st1" d="M83.5,59c4.3,0.2,8.6,0,12.7-1.1c-0.8,3.6-1,7.3-1.2,10.9c-0.2,1.3-0.2,2.7-0.2,4.1c-0.5,0.1-1,0.2-1.5,0.2
		c0-2.9,0.1-5.9-0.8-8.8c-0.3-1-0.9-2.1-2-2.2c-1.1,0.1-1.7,1.2-2.1,2.2c-0.6,1.6-0.6,3.3-0.8,5c-0.2,1.5-0.2,3.1-0.1,4.6
		c-0.6,0.1-1.1,0.2-1.7,0.3c-0.2-2-0.3-3.9-0.6-5.9c-0.2-1.4-0.3-2.9-0.7-4.3c-0.2-0.6-0.8-1.3-1.5-1c-1.8,0.9-2.1,3.1-2.3,4.9
		c-0.1,2.2,0,4.4,0,6.6c-0.4,0-0.8,0-1.3,0c0-2.6,0-5.3-0.2-7.9c-0.2-2.6,0.5-5.1,0-7.7C80.6,58.8,82,59,83.5,59"/>
	<path class="st1" d="M110.6,59.4c3.2-0.2,6.4-0.6,9.5-0.1c0.9,0.1,1.9,0.2,2.8,0.4c0.1,1.8-0.3,3.7-0.3,5.5
		c-0.2,1.6-0.2,3.2-0.4,4.8c-0.2,1.5,0,3.1-0.2,4.6c-0.2,1.8,0,3.7-0.3,5.5c-0.2,2.3,0,4.6-0.2,6.8c-0.2,2.4-0.1,4.9-0.1,7.3
		c-0.2,2.2-0.2,4.4-0.2,6.6c-1.1,0-2.2,0-3.2-0.2c-0.4-2.3-0.3-4.6-0.3-6.9c0-1.1,0-2.2-0.4-3.2c-0.6-1-2.2-1.2-3.1-0.5
		c-0.5,0.6-0.1,1.4,0,2.1c0.3,1.3,0.1,2.7,0.3,4c0.2,1.5,0,3.1,0.4,4.6c-1.6,0-3.3,0.3-4.9,0.3c-0.3-2.9-0.7-5.7-0.8-8.6
		c-0.4-2.4-0.1-4.8-0.4-7.1c-0.1-2.9,0.1-5.7-0.3-8.6c-0.1-5.6-0.5-11.3-1.3-16.8C108.3,59.6,109.5,59.5,110.6,59.4"/>
	<path class="st1" d="M115.4,70.5c-0.8,0.1-1.6,0.5-2.2,1.1c-1,1-2.2,2.3-1.9,3.8c0.3,1.8,0.9,3.8,2.7,4.6c1.1,0.5,2.6,0.8,3.4-0.2
		c1.1-1.2,2-2.7,2.1-4.4c0-1.4-0.3-2.9-1.4-3.8C117.5,70.9,116.5,70.3,115.4,70.5"/>
	<path class="st1" d="M165,63.8c1-0.3,1.4-1.4,2.3-1.9c0.4,0.9,0.8,1.8,1.3,2.6c-1.2,0.8-1.3,2.3-1.4,3.6c0,0.9,0.2,1.7,0.4,2.5
		c-0.6-0.1-1.2-0.3-1.8-0.3C165.9,68.1,166.1,65.8,165,63.8"/>
	<path class="st1" d="M82.6,64.9c0.3,0.3,0.6,0.5,0.7,0.9c1,2.7,0.7,5.6,1,8.4c-0.7,0-1.4,0-2,0C82.2,71.1,82,67.9,82.6,64.9"/>
	<path class="st1" d="M90.1,65.8c0.8-0.1,0.9,0.9,1.1,1.4c0.3,2,0.4,3.9,0.7,5.9c-0.8,0.1-1.6,0.1-2.4,0.1c0-2,0.3-4,0.3-5.9
		C89.8,66.8,89.8,66.3,90.1,65.8"/>
	<path class="st1" d="M139.9,66.7c0.8-0.6,2-0.5,2.7,0.2c1.4,1.5,1.1,3.8,2.6,5.3c0.6,0.6,1.5,0.7,2.4,0.7c0,3-0.4,5.9-0.4,8.9
		c-0.2,2.3-0.2,4.5-0.3,6.8c-0.3,3.4-0.2,6.9-0.2,10.4c0,1.4-0.1,2.9,0.3,4.3c-2.8,0.3-5.6,0.5-8.4,0.6c-1.7,0.1-3.3,0.3-5,0.1
		c0-3-0.4-6-0.3-9c0.1-2.9-0.1-5.9,0.1-8.8c0-1.4,0.1-2.9,0.1-4.3c0-1.4,0.3-2.7,0.2-4c0-1.5,0.3-3,0.3-4.6c0.8-0.4,1.6-0.9,2-1.7
		C137.1,69.7,138.2,67.9,139.9,66.7"/>
	<path class="st1" d="M137.4,81.1c-1.1,1.3-1.1,3.1-1.3,4.7c0,1.7-0.3,3.4,0.3,5.1c0.9,0.1,1.9,0.3,2.7-0.3c-0.5-2.6-0.3-5.3-0.3-8
		C138.9,81.7,138.2,80.9,137.4,81.1"/>
	<path class="st1" d="M142.7,80.9c-0.6,1.8-0.2,3.6-0.5,5.4c0,1.5-0.5,3.1-0.1,4.6c0.6,0.5,1.6,0.6,2-0.2c0.9-2,0.5-4.2,0.6-6.2
		c0-0.9,0.2-1.9-0.4-2.6C143.9,81.3,143.3,81.1,142.7,80.9"/>
	<path class="st1" d="M52.3,71.6c0.6,1.6,0.7,3.4,1.2,5.1c-0.6-0.1-1.2-0.2-1.8-0.3C51.8,74.7,51.9,73.1,52.3,71.6"/>
	<path class="st1" d="M63.7,76.3c0.3-1.4,0.3-2.9,1.1-4.1c0.7,1.2,0.5,2.7,0.6,4C64.8,76.3,64.3,76.3,63.7,76.3"/>
	<path class="st1" d="M162.4,73c1.9-1,4.1-0.5,6.1,0.1c1.4,0.4,2.5,1.5,3,2.9c0.7,1.6,1,3.4,1.3,5.1c-4.9-0.4-9.9-1.3-14.8-1.3
		C158.6,77.1,159.8,74.2,162.4,73"/>
	<path class="st1" d="M57,81.8c0.3-2.2,0.6-4.5,1.4-6.5c0.9,1,1.2,2.3,1.7,3.5c0.8,2.4,1.4,4.9,1.9,7.3c-1.8,0.2-3.6,0.2-5.4,0.2
		C56.6,84.9,56.9,83.4,57,81.8"/>
	<path class="st1" d="M86.1,75.9c2.9-0.4,5.9-0.6,8.8-0.6c0,4.4-0.1,8.8,0.1,13.3c0.1,1.1,0.1,2.2,0.1,3.3c0,1.4,0.3,2.9,0.3,4.3
		c-0.5,0.6-1.3,0.7-1.9,1c0.2-3.9-0.1-7.9-0.8-11.8c-0.3-1.5-1.3-3.5-3.1-3.4c-0.5,0.6-0.8,1.4-1,2.1c-0.4,2.3-0.7,4.7-0.6,7
		c0,2.6-0.1,5.1,0.3,7.7c-0.5,0-1,0-1.5,0c0.4-3.7,0-7.5-0.2-11.2c-0.3-2.2-0.2-4.6-1.7-6.4c-0.4-0.6-1.4-1.1-1.9-0.4
		c-1,1.1-1.1,2.7-1.5,4.1c-0.7,4.6-0.4,9.3-0.1,13.9c-0.7,0-1.3-0.1-2-0.1c0.2-0.9,0.2-1.9,0.2-2.8c0-4.4,0.1-8.8-0.2-13.1
		c0-2-0.1-4.1,0.2-6.1c0.3,0,0.7,0,1,0c0.3,0.4,0.7,0.8,1.1,1.2c0.2-0.4,0.5-0.9,0.7-1.3c1.1-0.2,2.2-0.1,3.1,0.5
		C85.7,76.7,85.9,76.3,86.1,75.9"/>
	<path class="st1" d="M63.7,78.2c0.6,0,1.2,0,1.9,0c0.2,2.8,0.3,5.6,0.4,8.5c-0.7-0.2-1.5-0.3-2.2-0.4c-0.3-1.9-0.2-3.9-0.2-5.8
		C63.5,79.7,63.5,79,63.7,78.2"/>
	<path class="st1" d="M51.8,78.4c0.6,0,1.2,0,1.7,0c0.1,2.6,0.5,5.1,0.9,7.7c-0.8,0-1.6,0-2.3,0C52.1,83.6,51.9,81,51.8,78.4"/>
	<path class="st1" d="M158.5,83.1c1.6-0.3,3.3-0.4,4.9-0.1c-1,1.1-2.1,2.4-1.8,4c0.2,1.6,2.1,2.3,3.5,2c1.4-0.4,2.5-1.7,2.3-3.2
		c0-1.1-0.9-1.9-1.7-2.7c1.6,0,3.2,0.2,4.8,0.7c-0.1,2.3-0.2,4.7-0.4,7c-1.2,0.1-2.4,0.1-3.6,0c-2.6-0.3-5.3-0.4-7.9-1
		C158.5,87.6,159,85.3,158.5,83.1"/>
	<path class="st1" d="M83.8,85.9c0.8,0.9,0.8,2.1,0.9,3.3c0.1,1.5,0.1,3,0.3,4.5c0.1,1.8,0,3.6,0,5.4c-0.6,0-1.2-0.1-1.8-0.1
		c-0.2-2.7-0.3-5.4-0.2-8.1C83,89.2,83,87.4,83.8,85.9"/>
	<path class="st1" d="M89.6,90.4c0-1.2-0.1-2.6,0.9-3.4c1.2,1.6,1.2,3.6,1.2,5.5c0,1.9,0.1,3.9-0.4,5.8c-0.5,0.1-1,0.2-1.5,0.4
		C89.8,95.8,89.8,93.1,89.6,90.4"/>
	<path class="st2" d="M86.7,28.5c0.2,0,0.6,0,0.8,0c0.2,0.4,0.5,0.8,0.5,1.3c0,1.1,0.2,2.2,0.4,3.3c0.7,0,1.3,0,2,0.2
		c0,0.4,0.1,0.8,0.1,1.2c-0.6,0.1-1.2,0.1-1.8,0.2c-0.5,1.5-0.5,3.1-0.4,4.7c1.6,0.6,3,2.1,3.3,3.9c0,1.1-1.1,1.7-1.1,2.8
		c0,0.7-0.5,1.6,0.1,2.2c1.3,1,3.2,1.5,4,3.1c0.5,1,0.3,2.2,0.9,3.2c0.6-1.2,0.4-2.6,0.5-3.9c0.2-1.8-0.1-3.5,0.3-5.3
		c0.1-0.5,0.4-0.8,0.7-1.1c0.5,0.3,0.9,0.8,1.1,1.4c0.6,2.9,0.6,5.8,0.7,8.7c0.6,0.4,1.6,0.7,1.4,1.6c0,1-1.5,1-1.3,2
		c0.1,6.3-0.1,12.6-0.1,19c0.1,2.9,0.1,5.7,0.1,8.6c0.2,1.9,0.2,3.9,0.3,5.8c0.3,2.4,0.1,4.7,0.4,7.1c0,2.4,0.2,4.7,0.5,7.1
		c0.2,3.4,0.6,6.7,0.6,10.1c0.2,2.2,0.3,4.4,0.2,6.6c-0.1,1-0.3,2.1-1.1,2.7c-1,0.5-2-0.7-2-1.6c-1.3-8-1.5-16.2-2.2-24.3
		c-0.8,0.3-1.6,0.7-2.4,1c-0.2,0.4-0.3,1-0.9,1.2c-0.4-0.1-0.7-0.3-1.1-0.5c-0.6,0-1.1,0.2-1.6,0.3c-0.1,0.4-0.2,0.9-0.3,1.3
		c-0.2,0-0.5-0.1-0.7-0.1c-0.2-0.4-0.4-0.8-0.6-1.2c-1.6,0-3.1,0-4.7,0c-1.3,0-2.6-0.3-3.8-0.3c-0.9,8.1-1.6,16.2-2.6,24.2
		c-0.1,0.9-0.4,1.8-1.1,2.4c-0.3-0.6-0.6-1.2-0.5-1.8c0-4.7,0-9.4,0.1-14.2c0.2-1.7,0.1-3.4,0.2-5.1c0.4-5.2,0.7-10.4,1-15.6
		c0-3.4,0.1-6.7,0.1-10.1c0.1-1.1,0.1-2.3,0.1-3.4c-0.4-0.2-0.9-0.3-1.2-0.7c0-0.8,0.6-1.4,1.3-1.7c-0.1-4-0.1-7.9-0.1-11.9
		c-0.2-1.9-0.1-3.9-0.2-5.8c-0.1-1.7,0.2-3.4,0.5-5.1c0.3-1.6,0.5-3.3,1.4-4.7c0.4,0.3,0.9,0.7,1,1.3c0.7,2.2,0.7,4.6,1.2,6.9
		c1.3-0.7,0.8-2.4,1.4-3.5c0.5-1.7,2.3-2.4,3.4-3.5c0.1-0.9,0-1.9-0.3-2.8c-0.1-0.9-1.4-1.2-1.1-2.2c0.4-1.6,1.9-2.6,2.8-3.9
		c0.2-1.4,0.2-2.9-0.2-4.2c-0.2-0.8-1.3-0.6-1.9-0.7c-0.1-0.3-0.2-0.6-0.3-0.9c0.5-0.5,1.3-0.5,2-0.5C86.8,31.5,85.9,29.9,86.7,28.5
		 M86.2,43.3c0.3,0.6,0.9,1.1,0.9,1.8c0,1.4,0.1,2.8-0.1,4.2c-0.5,1-1.7,1.3-2.4,2.2c-0.7,1-1,2.1-1.3,3.3c-0.2,0.7,0.3,1.5,1,1.6
		c1.1,0.2,2.3,0.2,3.4-0.1c1.7-0.4,3.4-0.5,5-0.7c-0.2-0.9-0.5-1.8-1.1-2.5c-0.8-1.2-2.3-1.8-3.1-3c-0.7-1.1,0.2-2.4-0.1-3.5
		c-0.2-1.2-0.1-2.5,0.9-3.3C89,42.7,88.6,42,88,41.4C87.1,41.6,86.6,42.6,86.2,43.3 M83.5,59c-1.4,0-2.9-0.1-4.3,0
		c0.6,2.5-0.2,5.1,0,7.7c0.3,2.6,0.3,5.2,0.2,7.9c0.4,0,0.8,0,1.3,0c0-2.2-0.1-4.4,0-6.6c0.2-1.8,0.5-3.9,2.3-4.9
		c0.7-0.3,1.3,0.4,1.5,1c0.5,1.4,0.6,2.9,0.7,4.3c0.2,2,0.4,3.9,0.6,5.9c0.6-0.1,1.1-0.2,1.7-0.3c0-1.5-0.1-3.1,0.1-4.6
		c0.2-1.7,0.2-3.4,0.8-5c0.4-0.9,1-2.1,2.1-2.2c1.2,0.1,1.7,1.2,2,2.2c0.8,2.8,0.7,5.8,0.8,8.8c0.5-0.1,1-0.1,1.5-0.2
		c0.1-1.4,0.1-2.7,0.2-4.1c0.2-3.7,0.3-7.3,1.2-10.9C92.1,58.9,87.7,59.1,83.5,59 M82.6,64.9c-0.6,3.1-0.3,6.2-0.4,9.3
		c0.7,0,1.4,0,2,0c-0.3-2.8,0-5.7-1-8.4C83.1,65.4,82.9,65.2,82.6,64.9 M90.1,65.8c-0.3,0.5-0.3,1-0.3,1.5c0,2-0.3,4-0.3,5.9
		c0.8,0,1.6-0.1,2.4-0.1c-0.3-2-0.4-3.9-0.7-5.9C91,66.7,90.8,65.7,90.1,65.8 M86.1,75.9c-0.2,0.4-0.4,0.8-0.6,1.1
		c-0.9-0.6-2-0.7-3.1-0.5c-0.2,0.5-0.4,0.9-0.7,1.3c-0.4-0.4-0.8-0.7-1.1-1.2c-0.3,0-0.7,0-1,0c-0.3,2-0.2,4-0.2,6.1
		c0.3,4.4,0.2,8.8,0.2,13.1c0,0.9-0.1,1.9-0.2,2.8c0.7,0,1.3,0.1,2,0.1c-0.3-4.6-0.6-9.3,0.1-13.9c0.3-1.4,0.4-3,1.5-4.1
		c0.6-0.7,1.5-0.1,1.9,0.4c1.5,1.8,1.4,4.2,1.7,6.4c0.3,3.7,0.6,7.5,0.2,11.2c0.5,0,1,0,1.5,0c-0.4-2.6-0.3-5.1-0.3-7.7
		c-0.1-2.3,0.2-4.7,0.6-7c0.1-0.8,0.5-1.5,1-2.1c1.8-0.1,2.8,1.9,3.1,3.4c0.7,3.9,1,7.9,0.8,11.8c0.6-0.3,1.5-0.4,1.9-1
		c0-1.4-0.3-2.9-0.3-4.3c0-1.1,0-2.2-0.1-3.3c-0.2-4.4-0.1-8.8-0.1-13.3C91.9,75.3,89,75.5,86.1,75.9 M83.8,85.9
		c-0.8,1.5-0.8,3.3-0.8,5c-0.1,2.7,0.1,5.4,0.2,8.1c0.6,0,1.2,0.1,1.8,0.1c0-1.8,0-3.6,0-5.4c-0.2-1.5-0.2-3-0.3-4.5
		C84.6,88,84.6,86.8,83.8,85.9 M89.6,90.4c0.2,2.7,0.2,5.5,0.3,8.2c0.5-0.1,1-0.2,1.5-0.4c0.4-1.9,0.3-3.9,0.4-5.8
		c0-1.9,0-3.9-1.2-5.5C89.4,87.7,89.5,89.2,89.6,90.4 M89.2,109.4c0.4-1.5,2.4-2.1,3.7-1.4c0.7,0.4,1.1,1.2,1.3,1.9
		c0.5,2.8,0.3,5.6,0.6,8.5c0.1,1.4,0,2.7,0.2,4.1c0.1,1,0.3,2.2-0.4,3.1c-0.6,0-0.8-0.6-1-1c-1.1-3.1-1.3-6.3-1.9-9.5
		c-0.1-0.8-0.5-1.5-0.9-2.1c-0.6,1.4-0.3,3-0.2,4.5c0.2,1.8,0.3,3.5,0.5,5.3c0.1,1.2,0.2,2.4-0.4,3.5c-1.1-0.4-1.1-1.7-1.2-2.7
		c-0.2-3.5-0.5-6.9-0.6-10.4C88.8,111.9,88.9,110.6,89.2,109.4 M82.8,108.4c0.8-0.6,2-0.5,2.7,0.2c0.5,0.5,0.7,1.2,0.9,1.8
		c0.7,3.7,1.3,7.5,1.6,11.3c0.1,1.2,0.1,2.5-0.3,3.7c-0.2,0.4-0.6,0.8-1,0.5c-1.1-0.7-1.2-2.2-1.3-3.4c0-3.4-0.2-6.7-0.9-10
		c-0.1-0.5-0.4-0.9-0.7-1.3c-0.3,0.6-0.5,1.2-0.6,1.9c-0.6,3-0.8,6-1.2,9c-0.1,0.9,0.1,2-0.5,2.8c-0.3,0.4-0.8,0.4-1.2,0.5
		c-0.6-1.8-0.3-3.6-0.2-5.4c0.1-2.7,0.5-5.3,0.9-8C81.2,110.6,81.7,109.2,82.8,108.4L82.8,108.4z"/>
	<path class="st3" d="M143.5,31.8c0.4-0.8,1.2,0,1.3,0.5c0.2,1.2-0.2,2.4-0.1,3.6c0.5,0,1.2-0.2,1.6,0.2c0.5,0.2,0.3,0.9,0.4,1.3
		c-0.7,0.2-1.5,0.3-2.2,0.5c-0.3,1.2-0.1,2.6-0.3,3.8c0.4,0.3,0.9,0.6,1.2,1.1c0.4,0.9,0.2,1.9,0.3,2.8c0,1.6-0.2,3.2,0.3,4.7
		c0.5,0.5,1.3,1.1,1.2,1.9c0.1,0.8-0.7,1.2-1.3,1.6c0.1,2.3,0.1,4.6,1,6.7c0.8,1.7,1.7,3.4,2.6,5.1c0.4-0.5,1-0.9,1.7-0.9
		c0.8,1.2,0.5,2.6,0.2,3.9c0.6,0.6,1.3,1.3,1.1,2.3c0,1.1-1.1,1.5-2,1.6c-0.9,3.8-0.7,7.7-1,11.5c0,3.2,0,6.4,0,9.6
		c0.3,2.8,0.1,5.6,0.4,8.3c0.1,1.7,0,3.4,0.2,5.1c0.2,2,0.1,4,0.2,6c0.2,1.6,0.1,3.2,0.1,4.8c0,1.7,0.1,3.5-0.2,5.2
		c-0.1,0.3-0.3,0.6-0.5,0.8c-0.5,0.2-0.6-0.3-0.8-0.6c-0.4-0.8-0.5-1.7-0.6-2.6c-0.4-5.1-1-10.2-1.4-15.3c-4.3,0.9-8.7,0.7-13.1,1.2
		c0.3,5.4,1,10.7,2.1,16c0.4,1.2,0.2,2.5-0.7,3.5c-1.6,0-3-1.2-3.4-2.6c-0.4-1.7-0.6-3.5-0.6-5.2c-0.3-2.5-0.1-5.1-0.1-7.6
		c-0.1-4.4-0.1-8.8-0.1-13.2c-0.3-2.7,0.1-5.4,0-8.1c-0.1-5.4,0.2-10.9,0.6-16.3c-0.6-0.2-1.4-0.5-1.6-1.2c-0.1-0.7-0.1-1.4,0.2-2
		c0.4-0.7,1.3-1.1,2-1.5c0.1-2.3,0-4.7,0.9-6.9c0.4,0.1,1,0,1.3,0.4c0.6,0.9,0.5,2.1,0.5,3.1c1-1.7,2.4-3.2,3.2-5
		c1-2,1.1-4.2,1.5-6.3c-0.7-0.5-1.7-0.8-1.9-1.8c0.1-1.5,1.7-2,2.9-2.3c0.3-2,0.1-4.1,0.8-6c0.2-0.7,0.9-1.2,1.3-1.8
		c0.3-1.2,0.2-2.5,0.2-3.8c-0.6-0.1-1.3-0.1-1.9-0.3c-0.5-0.3-0.9-1.2-0.3-1.6c0.7-0.1,1.5-0.1,2.2-0.2
		C142.9,34.5,142.9,33.1,143.5,31.8 M142.1,50.2c-0.4,0.7-1.2,1.1-1.9,1.4c0.7,0.9,1.2,2,1.1,3.1c-0.3,3.7-1.9,7.2-3.6,10.5
		c1-0.6,2.1-1.4,3.4-1.5c2.1-0.1,4,1.4,5,3.1c0.5,0.7,0.7,1.7,1.5,2.2c0-0.4,0.2-0.9-0.1-1.3c-1.1-2-2.3-3.8-3.3-5.8
		c-1.3-2.5-1.7-5.4-1.3-8.1c0.1-0.7,0.8-1.1,1.3-1.5c-0.4-0.5-1-0.9-0.9-1.6c-0.1-0.8,0.4-1.8-0.2-2.5
		C142.5,48.7,142.5,49.5,142.1,50.2 M139.9,66.7c-1.7,1.2-2.8,3-3.8,4.8c-0.5,0.8-1.3,1.3-2,1.7c0,1.5-0.3,3-0.3,4.6
		c0,1.4-0.3,2.7-0.2,4c0,1.4-0.1,2.9-0.1,4.3c-0.3,2.9-0.1,5.9-0.1,8.8c-0.1,3,0.3,6,0.3,9c1.7,0.2,3.3,0,5-0.1
		c2.8-0.1,5.6-0.3,8.4-0.6c-0.4-1.4-0.2-2.8-0.3-4.3c0-3.5,0-6.9,0.2-10.4c0-2.3,0-4.6,0.3-6.8c0-3,0.3-5.9,0.4-8.9
		c-0.8,0-1.7-0.1-2.4-0.7c-1.4-1.5-1.2-3.8-2.6-5.3C141.9,66.1,140.7,66.1,139.9,66.7 M137.4,81.1c0.8-0.1,1.5,0.7,1.4,1.5
		c0,2.7-0.2,5.4,0.3,8c-0.7,0.6-1.8,0.5-2.7,0.3c-0.5-1.6-0.3-3.4-0.3-5.1C136.3,84.2,136.3,82.4,137.4,81.1 M142.7,80.9
		c0.6,0.2,1.2,0.5,1.5,1c0.6,0.7,0.4,1.8,0.4,2.6c-0.1,2.1,0.3,4.3-0.6,6.2c-0.4,0.7-1.4,0.6-2,0.2c-0.3-1.5,0.1-3.1,0.1-4.6
		C142.5,84.5,142.2,82.6,142.7,80.9L142.7,80.9z"/>
	<path class="st4" d="M115.6,36c2,0,3.8-0.8,5.8-0.9c0.6,0,1.4,0.2,1.5,0.9c0.1,1.5,0.9,3.1,0.4,4.6c-1,0.3-2.1,0.5-3.2,0.3
		c-1.7-0.2-3.4-0.1-5,0.2c0.1,2,0.5,3.9,0.7,5.9c1.5,1.6,2.8,3.3,3.8,5.1c1.8,0.3,3.6,0.1,5.4,0c0.3-0.8,0.6-1.7,1.4-2.1
		c0.9,0.2,0.8,1.3,1,2c0.8,0.2,1.7,0.3,2.2,0.9c0.1,0.7-0.2,1.4-0.4,2c-0.4,1.2-0.8,2.4-1.2,3.6c-0.2,0.7-1.1,0.7-1.6,0.9
		c-0.2,4.1-0.7,8.2-0.9,12.3c-0.3,1.8-0.1,3.6-0.4,5.3c0,2-0.4,4-0.3,6c0,1.5-0.1,3-0.2,4.5c0,4.4-0.1,8.9,0,13.3
		c0.5,0.2,1.4,0.4,1.3,1.1c0.2,0.9-0.5,1.7-1.3,2.1c0,2.6,0.1,5.2,0,7.7c0,1.8,0.3,3.5,0.3,5.3c-0.1,1.7,0.3,3.4,0.3,5.1
		c0.1,1.3,0.4,2.8-0.4,4c-1.1,0.4-1.6-1-1.9-1.8c-0.6-2.3-0.7-4.6-0.9-7c-0.3-2.4,0-4.8-0.3-7.2c-0.2-2.3,0.1-4.5-0.4-6.8
		c-2.1-0.1-4.2-0.1-6.3,0c-1.5,0.2-3,0.2-4.6,0.2c0,2.7,0.4,5.4,0.5,8.1c0.4,3.6,0.6,7.3,1.2,10.9c0.1,0.8,0.1,1.8-0.6,2.4
		c-1,0.4-2-0.4-2.3-1.3c-0.8-2.2-0.8-4.6-1.1-7c0-2-0.4-4-0.3-6.1c-0.3-2.2-0.3-4.5-0.2-6.8c-0.8-0.1-1.7,0.1-2.3-0.6
		c-0.4-1.3,1-2.1,2-2.5c0-1.9,0-3.8,0-5.7c-0.3-3.2-0.2-6.4-0.3-9.6c-0.4-2.9,0-5.8-0.4-8.6c-0.1-1.5,0-2.9-0.2-4.4
		c-0.2-1.7,0-3.3-0.3-5c-0.1-2.4-0.3-4.8-0.5-7.3c-0.7-0.1-1.5-0.1-2-0.6c-0.9-0.9-0.3-2.7,0.9-3c1.7-0.5,3.5-0.8,5.2-1.6
		c-0.9-0.3-1.9,0-2.9,0c-0.9,0-1.8,0.1-2.7-0.1c-1.1-0.6-1.3-1.9-1.5-3c1.2-0.3,2.5-0.1,3.8-0.3c1.9-0.3,3.9-0.1,5.8-0.2
		c0.4-1.9,0.9-3.9,1.4-5.8c0.1-0.5,0.3-1,0.1-1.4c-0.4-2.1-0.7-4.2-1.1-6.2c-0.1-0.7-0.1-1.4,0-2.1C113.6,36.2,114.6,36.1,115.6,36
		 M110.6,59.4c-1.1,0.2-2.3,0.3-3.4,0.5c0.9,5.6,1.2,11.2,1.3,16.8c0.3,2.9,0.1,5.7,0.3,8.6c0.3,2.4,0,4.8,0.4,7.1
		c0,2.9,0.4,5.8,0.8,8.6c1.6,0,3.3-0.3,4.9-0.3c-0.4-1.5-0.2-3-0.4-4.6c-0.2-1.3,0-2.7-0.3-4c-0.1-0.7-0.5-1.5,0-2.1
		c0.9-0.7,2.5-0.5,3.1,0.5c0.4,1,0.4,2.1,0.4,3.2c0,2.3-0.1,4.6,0.3,6.9c1.1,0.2,2.2,0.2,3.2,0.2c0-2.2,0-4.4,0.2-6.6
		c0.1-2.4-0.1-4.9,0.1-7.3c0.3-2.3,0-4.6,0.2-6.8c0.3-1.8,0-3.7,0.3-5.5c0.2-1.5,0-3.1,0.2-4.6c0.2-1.6,0.1-3.2,0.4-4.8
		c0-1.8,0.4-3.7,0.3-5.5c-0.9-0.1-1.8-0.3-2.8-0.4C117,58.7,113.8,59.1,110.6,59.4 M115.4,70.5c1-0.2,2,0.3,2.7,1.1
		c1,1,1.3,2.5,1.4,3.8c-0.1,1.7-1.1,3.2-2.1,4.4c-0.8,1.1-2.4,0.7-3.4,0.2c-1.8-0.8-2.3-2.9-2.7-4.6c-0.3-1.6,0.9-2.8,1.9-3.8
		C113.8,71,114.6,70.6,115.4,70.5L115.4,70.5z"/>
	<path class="st5" d="M167.4,48.6c0.3-1,1.7-0.3,1.6,0.5c-0.1,1.1-0.3,2.3-0.4,3.4c0.9,0.2,2.5-0.1,2.7,1.1c-0.3,1.2-1.7,1-2.6,1.1
		c0,1.4-0.4,2.8-0.3,4.2c0.6,1,1.1,2,1.4,3.2c0.2,0.9,1,1.4,1.6,2c0.1,0.6-0.1,1.1-0.3,1.6c-0.6,0.1-1.2,0.3-1.7,0.4
		c-0.2,1.3-0.1,2.6,0.2,3.8c0.2,0.5-0.2,0.9-0.4,1.4c3.2,1.3,5.6,4.4,5.9,7.8c0,1.3,1.9,1.7,1.7,3.1c-0.5,1.5-2.2,1.9-3.5,2.1
		c-0.6,2.2-0.5,4.5-0.8,6.7c0.4,0.1,0.7,0.2,1.1,0.4c-0.1,0.6,0,1.2-0.4,1.7c-0.7,0.8-0.6,1.9-0.7,2.9c0,2.4-0.6,4.7-0.5,7.1
		c-0.1,4.6-0.1,9.3,0,13.9c0,1.6,0.5,3.2,0.6,4.8c-0.4,0.1-0.8,0.3-1.2,0.4c-0.9-0.6-1-1.8-1.2-2.8c-0.2-2-0.5-4-0.4-6
		c0-3.5-0.1-7.1,0.1-10.6c0.2-1.9,0.1-3.8,0.3-5.7c0.1-1.2,0.1-2.4,0.1-3.6c-0.8-0.2-1.7-0.3-2.5-0.3c-0.1,2.7,0.1,5.4-0.1,8.2
		c-0.2,1.3-0.2,2.7-0.3,4c-0.3,2.7-0.1,5.4-0.4,8.2c-0.2,3.1,0.1,6.3-0.2,9.4c-0.6,0-1.3,0.2-1.7-0.4c-0.6-1-0.4-2.2-0.6-3.3
		c-0.1-3.4-0.2-6.8,0.1-10.2c0.2-4,0.5-8,1.4-12c0.3-1.3,0.2-2.7,0.2-4.1c-1,0-2,0-3,0.1c-0.1,2.3-0.4,4.7-0.3,7
		c-0.1,2.9,0,5.9-0.2,8.8c0,4.8,0,9.6,0,14.4c0.1,1.1-1,2.3-2.2,2c-1-0.9-0.3-2.3-0.4-3.5c-0.1-2.4,0.3-4.7,0.3-7.1
		c0-2.1,0.3-4.2,0.3-6.3c0-1.6,0.1-3.2,0.2-4.8c0.1-3.6,0-7.2,0.1-10.9c-1.1,0-2.3,0-3.4,0c0.1,2.2,0.4,4.4,0.3,6.6
		c0.4,3.2,0.1,6.4,0.4,9.6c0,4.9,0.1,9.8,0.1,14.7c-0.4,0.3-0.8,0.6-1.3,0.7c-0.4-0.1-0.8-0.3-1.1-0.6c-0.4-0.8-0.4-1.7-0.4-2.6
		c-0.3-2.9-0.2-5.9-0.2-8.9c0-2.4,0.3-4.7,0.2-7.1c0.2-4,0.2-8.1-0.3-12.1c-1-0.5-1.9-1.3-1.8-2.5c1-0.5,2-0.8,3.1-0.8
		c0-1.8,0.4-3.7,0.3-5.5c0-0.5,0.1-1.2-0.6-1.3c-1.1-0.3-2.7-0.8-2.7-2.2c0.6-0.7,1.8-0.8,2.2-1.7c1-2.2,2-4.4,3.8-6.1
		c1.2-1.2,3.1-1.3,4.3-2.5c0.4-0.6,0.3-1.3,0.3-2c0-1.1-0.1-2.2-0.7-3.1c-0.3-0.6-0.8-1.3-0.5-2c0.3-0.9,1.7-0.4,2.1-1.2
		c0.4-0.9,0.6-1.8,1.2-2.6c0.2-0.3,0.6-0.5,0.6-0.9c0.2-1.3,0.3-2.6,0.3-3.8c-0.9,0.2-1.9,0.5-2.8,0c0-0.5,0-1,0.2-1.5
		c0.7-0.3,1.5-0.2,2.3-0.2C166.9,51.5,166.9,50,167.4,48.6 M165,63.8c1.1,2,0.9,4.3,0.9,6.5c0.6,0.1,1.2,0.2,1.8,0.3
		c-0.2-0.8-0.4-1.7-0.4-2.5c0.1-1.3,0.2-2.8,1.4-3.6c-0.6-0.8-0.9-1.7-1.3-2.6C166.4,62.4,166,63.5,165,63.8 M162.4,73
		c-2.6,1.3-3.8,4.2-4.5,6.8c5,0,9.9,0.9,14.8,1.3c-0.3-1.7-0.6-3.5-1.3-5.1c-0.5-1.3-1.6-2.4-3-2.9C166.5,72.5,164.3,72,162.4,73
		 M158.5,83.1c0.5,2.2,0,4.5,0,6.8c2.6,0.6,5.3,0.7,7.9,1c1.2,0.1,2.4,0.1,3.6,0c0.2-2.3,0.3-4.7,0.4-7c-1.5-0.4-3.1-0.7-4.8-0.7
		c0.7,0.7,1.7,1.5,1.7,2.7c0.2,1.5-1,2.8-2.3,3.2c-1.4,0.3-3.3-0.4-3.5-2c-0.2-1.6,0.8-3,1.8-4C161.8,82.7,160.1,82.8,158.5,83.1
		L158.5,83.1z"/>
	<path class="st6" d="M58.2,56c0.2,0,0.5,0.1,0.7,0.1c0.4,1.4,0.3,3,0.3,4.4c0.5,0.1,1,0.2,1.5,0.4c0,0.4,0,0.9,0,1.3
		c-0.5,0-1.1,0.1-1.6,0.1c0,1.9-0.1,3.8,0.4,5.6c0.2,0.7,1,1,1.2,1.6c0.3,0.8-0.6,1.5-0.3,2.3c0.5,2,1,4,1.6,5.9
		c0.2-1.5,0.2-3,0.6-4.4c0.6-2.1,0.9-4.4,1.6-6.5c0.2-0.3,0.4-0.9,0.9-0.7c0.8,0.5,1,1.4,1.2,2.2c0.5,2.3,1.5,4.4,1.6,6.8
		c0.4,2.9,0.1,5.9,0.4,8.9c0,0.9,0,1.8,0.1,2.7c0.2,0.4,0.5,0.7,0.8,1c-0.2,0.4-0.5,0.7-0.7,1.1c-0.2,1.2,0.2,2.5,0.2,3.7
		c0,3.5,0.4,6.9,0.3,10.4c0.2,3.7,0.4,7.4,0.7,11.1c0.1,1.9,0.7,3.9-0.2,5.7c-1.2-0.2-1.3-1.5-1.4-2.5c-0.6-5.6-1.1-11.2-1.5-16.9
		c-0.2-4-0.6-8.1-0.6-12.1c-0.8,0-1.6,0-2.4,0c0,2.5,0.1,5.1,0.1,7.6c0.2,2.3,0.2,4.5,0.3,6.8c0.3,3.4,0.3,6.7,0.7,10.1
		c0.2,2.7,0.6,5.3,0.7,8c0,0.3-0.1,0.5-0.4,0.6c-0.7-0.4-0.8-1.3-1.1-1.9c-1.1-6.3-1.6-12.6-1.8-19c-0.3-2.2-0.1-4.4-0.3-6.6
		c-0.1-1.8,0-3.7-0.1-5.5c-1.6,0-3.2-0.3-4.8-0.3c-0.2,3.5,0.1,7,0.3,10.5c0.8,8,1.3,16.2,3.3,24c0.2,0.8,0.3,1.5,0.1,2.3
		c-0.8,1-1.9-0.3-2-1.2c-1.7-7.5-2.3-15.2-3-22.8c-0.1-1.7-0.3-3.3-0.3-5c-0.3-2.6-0.1-5.2-0.3-7.8c-0.9-0.1-1.8,0-2.7-0.1
		c-0.1,2.4,0.3,4.7,0.2,7.1c-0.1,1.9,0.3,3.9,0.3,5.8c0.6,6.8,0.9,13.6,1.5,20.5c-0.1,1.2,0.4,2.8-0.9,3.5c-0.9,0.3-1.6-0.4-2.1-1
		c-0.7-0.9-0.7-2.1-0.8-3.2c-0.1-3-0.1-6.1,0.2-9.1c-0.1-3.4,0.3-6.7,0.3-10.1c0.1-4-0.3-7.9-0.3-11.9c-0.4-3.6-0.3-7.2-0.5-10.8
		c0.1-0.5-0.4-0.6-0.7-0.9c-0.3-0.3-0.3-0.7-0.4-1.1c0.4-0.2,0.7-0.4,1.1-0.5c-0.3-1.5,0.1-3,0.4-4.5c0.4-1.3,0.5-2.8,1.4-3.9
		c0.6-0.1,0.7,0.5,0.9,0.9c1.5,3.9,1.9,8,2.5,12.1c0.4-3.2,1-6.4,1.3-9.7c-0.6-0.4-1.4-1.1-1.1-1.9c0.5-0.5,1.3-0.8,1.5-1.6
		c0.7-1.8,0.6-3.7,0.7-5.5c-0.7-0.2-2,0.2-2-0.8c0.3-0.9,1.4-0.8,2.1-1C57.8,58.9,57.5,57.3,58.2,56 M52.3,71.6
		c-0.4,1.6-0.4,3.2-0.6,4.8c0.6,0.1,1.2,0.2,1.8,0.3C53,74.9,52.9,73.2,52.3,71.6 M63.7,76.3c0.6,0,1.1,0,1.7-0.1
		c-0.1-1.3,0.1-2.8-0.6-4C64,73.4,64,74.9,63.7,76.3 M57,81.8c-0.1,1.5-0.4,3-0.3,4.5c1.8,0,3.6-0.1,5.4-0.2
		c-0.5-2.5-1.1-4.9-1.9-7.3c-0.5-1.2-0.8-2.5-1.7-3.5C57.6,77.4,57.4,79.6,57,81.8 M63.7,78.2c-0.1,0.7-0.2,1.5-0.1,2.3
		c0,1.9-0.1,3.9,0.2,5.8c0.7,0.1,1.5,0.2,2.2,0.4c-0.1-2.8-0.2-5.6-0.4-8.5C64.9,78.2,64.3,78.2,63.7,78.2 M51.8,78.4
		c0.1,2.6,0.3,5.1,0.3,7.7c0.8,0,1.6,0,2.3,0c-0.4-2.5-0.8-5.1-0.9-7.7C53,78.5,52.4,78.5,51.8,78.4 M58.3,95.4
		c0-1.1,0.4-2.2,1.3-2.8c0.4,0.4,0.8,0.9,0.8,1.5c0.1,3.8,0.3,7.5,0.6,11.3c0.2,1,0.5,2.2-0.5,2.9c-0.8-0.9-0.9-2.2-1.2-3.4
		C58.9,101.8,58.2,98.6,58.3,95.4L58.3,95.4z"/>
</g>
</svg>
