<?xml version="1.0" encoding="utf-8"?>
<!-- Generator: Adobe Illustrator 22.0.1, SVG Export Plug-In . SVG Version: 6.00 Build 0)  -->
<svg version="1.1" id="Шар_1" xmlns="http://www.w3.org/2000/svg" xmlns:xlink="http://www.w3.org/1999/xlink" x="0px" y="0px"
	 viewBox="0 0 262.229 191.523" enable-background="new 0 0 262.229 191.523" xml:space="preserve">
<g>
	<g>
		<g>
			<path fill="#4A4A49" d="M68.435,153.391c1.711,0,2.811,0.213,3.72,0.824c1.543,1.037,1.67,2.705,1.67,3.318
				c0,2.029-1.247,3.508-3.128,3.932l4.396,6.023h-2.601l-4.035-5.77h-0.381v5.77H65.92v-14.098H68.435z M68.075,159.857h0.677
				c0.593,0,3.001-0.063,3.001-2.303c0-1.986-1.881-2.176-2.938-2.176h-0.74V159.857z"/>
			<path fill="#4A4A49" d="M81.345,153.391v14.098h-2.155v-14.098H81.345z"/>
			<path fill="#4A4A49" d="M92.924,156.52c-0.128-0.316-0.317-0.613-0.634-0.889c-0.445-0.359-0.909-0.506-1.522-0.506
				c-1.31,0-1.986,0.781-1.986,1.689c0,0.424,0.148,1.162,1.523,1.713l1.416,0.57c2.599,1.057,3.317,2.535,3.317,4.143
				c0,2.684-1.902,4.521-4.544,4.521c-1.627,0-2.6-0.611-3.318-1.416c-0.761-0.844-1.1-1.775-1.184-2.746l2.135-0.465
				c0,0.697,0.254,1.352,0.592,1.795c0.401,0.508,0.993,0.846,1.839,0.846c1.311,0,2.324-0.951,2.324-2.367
				c0-1.436-1.099-2.027-2.028-2.408l-1.353-0.57c-1.162-0.486-2.874-1.459-2.874-3.572c0-1.902,1.479-3.719,4.121-3.719
				c1.521,0,2.388,0.57,2.832,0.951c0.38,0.338,0.781,0.824,1.077,1.416L92.924,156.52z"/>
			<path fill="#4A4A49" d="M103.894,155.42v12.068h-2.156V155.42h-3.233v-2.029h8.623v2.029H103.894z"/>
			<path fill="#4A4A49" d="M124.605,160.449c0,4.143-3.106,7.313-7.333,7.313c-4.227,0-7.333-3.17-7.333-7.313
				c0-4.141,3.106-7.311,7.333-7.311C121.499,153.139,124.605,156.309,124.605,160.449z M122.45,160.449
				c0-3.127-2.155-5.324-5.178-5.324c-3.022,0-5.178,2.197-5.178,5.324c0,3.129,2.155,5.326,5.178,5.326
				C120.295,165.775,122.45,163.578,122.45,160.449z"/>
			<path fill="#4A4A49" d="M131.94,153.391c1.712,0,2.812,0.213,3.719,0.824c1.544,1.037,1.67,2.705,1.67,3.318
				c0,2.029-1.246,3.508-3.127,3.932l4.395,6.023h-2.6l-4.036-5.77h-0.38v5.77h-2.156v-14.098H131.94z M131.582,159.857h0.676
				c0.592,0,3.001-0.063,3.001-2.303c0-1.986-1.881-2.176-2.938-2.176h-0.739V159.857z"/>
			<path fill="#4A4A49" d="M151.795,164.086h-6.023l-1.543,3.402h-2.324l7.016-14.922l6.679,14.922h-2.325L151.795,164.086z
				 M150.929,162.057l-2.092-4.777l-2.178,4.777H150.929z"/>
			<path fill="#4A4A49" d="M159.541,167.488v-15.047l10.229,10.713v-9.764h2.156v14.963l-10.229-10.715v9.85H159.541z"/>
			<path fill="#4A4A49" d="M181.317,155.42v12.068h-2.156V155.42h-3.232v-2.029h8.622v2.029H181.317z"/>
			<path fill="#4A4A49" d="M196.324,155.423h-5.632v3.368h4.874v2.032h-4.874v4.657h5.632v2.033h-7.791v-14.123h7.791V155.423z"/>
		</g>
		<g>
			<path fill="#4A4A49" d="M41.681,125.064c-2.667-2.414-5.152-2.666-6.522-2.666c-5.225,0-8.757,3.855-8.757,9.152
				c0,5.08,3.677,9.008,8.794,9.008c2.882,0,5.115-1.479,6.485-2.775v4.361c-2.415,1.441-4.938,1.801-6.594,1.801
				c-4.36,0-7.1-1.982-8.505-3.314c-2.81-2.631-3.854-5.693-3.854-9.08c0-4.434,1.838-7.496,3.854-9.404
				c2.487-2.344,5.37-3.137,8.685-3.137c2.198,0,4.324,0.398,6.414,1.73V125.064z"/>
			<path fill="#4A4A49" d="M64.19,122.902h-9.585v5.73h8.297v3.459h-8.297v7.926h9.585v3.461H50.929v-24.035H64.19V122.902z"/>
			<path fill="#4A4A49" d="M77.194,119.443v20.574h7.062v3.461H73.518v-24.035H77.194z"/>
			<path fill="#4A4A49" d="M105.155,122.902H95.57v5.73h8.296v3.459H95.57v7.926h9.585v3.461h-13.26v-24.035h13.26V122.902z"/>
			<path fill="#4A4A49" d="M113.482,143.479v-25.656l17.439,18.267v-16.646h3.675v25.512l-17.439-18.27v16.793H113.482z"/>
			<path fill="#4A4A49" d="M150.36,122.902v20.576h-3.676v-20.576h-5.514v-3.459h14.702v3.459H150.36z"/>
			<path fill="#4A4A49" d="M175.055,137.676h-10.27l-2.631,5.803h-3.963l11.963-25.439l11.387,25.439h-3.965L175.055,137.676z
				 M173.578,134.217l-3.567-8.143l-3.713,8.143H173.578z"/>
			<path fill="#4A4A49" d="M187.012,143.479v-25.656l17.439,18.267v-16.646h3.676v25.512l-17.439-18.27v16.793H187.012z"/>
			<path fill="#4A4A49" d="M239.083,131.479c0,7.063-5.295,12.467-12.502,12.467c-7.206,0-12.503-5.404-12.503-12.467
				s5.297-12.469,12.503-12.469C233.788,119.01,239.083,124.416,239.083,131.479z M235.408,131.479c0-5.334-3.675-9.08-8.826-9.08
				c-5.153,0-8.829,3.746-8.829,9.08s3.676,9.08,8.829,9.08C231.733,140.559,235.408,136.813,235.408,131.479z"/>
		</g>
	</g>
	<g>
		<g>
			<polygon fill="#DD6E50" points="187.145,74.742 175.031,51.721 191.201,24.035 214.395,24.035 238.195,47.836 238.195,71.621 
				211.691,79.23 			"/>
			<polygon fill="#C51A1B" points="166.808,47.967 175.031,51.721 191.201,24.035 			"/>
			<polygon fill="#C51A1B" points="166.808,71.027 187.161,74.748 175.031,51.721 			"/>
			<polygon fill="#D14033" points="166.808,47.967 166.808,71.027 175.031,51.721 			"/>
			<polygon fill="#C51A1B" points="211.691,79.23 191.201,95.42 214.395,95.42 			"/>
			<polygon fill="#D14033" points="186.24,74.578 166.808,71.027 191.201,95.42 211.691,79.23 			"/>
			<polygon fill="#D14033" points="211.691,79.23 214.395,95.42 238.195,71.621 			"/>
			<polygon fill="#C51A1B" points="209.383,28.285 221.342,35.662 229.688,48.428 207.862,53.852 			"/>
			<polygon fill="#C51A1B" points="231.819,53.045 232.557,67.512 217.471,73.039 208.849,55.85 			"/>
			<polygon fill="#C51A1B" points="182.372,51.785 186.782,37.877 195.04,28.223 207.862,53.852 			"/>
			<polygon fill="#C51A1B" points="195.584,69.557 188.794,69.557 183.361,58.234 204.672,55.883 			"/>
			<g>
				<polygon fill="#EDB081" points="211.599,44.65 210.876,41.504 212.99,39.064 213.715,42.209 				"/>
				<polygon fill="#EDB081" points="214.802,45.521 215.674,42.412 218.696,41.283 217.824,44.391 				"/>
				<polygon fill="#EDB081" points="217.479,48.895 218.323,45.779 221.342,44.627 220.495,47.74 				"/>
			</g>
			<g>
				<polygon fill="#EDB081" points="217.487,58.957 219.905,56.818 223.057,57.512 220.642,59.652 				"/>
				<polygon fill="#EDB081" points="219.176,61.074 222.4,61.191 224.211,63.863 220.985,63.748 				"/>
				<polygon fill="#EDB081" points="216.569,66.152 219.71,65.404 222.163,67.506 219.024,68.25 				"/>
			</g>
			<g>
				<polygon fill="#EDB081" points="194.301,48.791 191.375,50.15 188.549,48.59 191.474,47.229 				"/>
				<polygon fill="#EDB081" points="194.677,45.672 191.453,45.486 189.701,42.777 192.923,42.961 				"/>
				<polygon fill="#EDB081" points="197.645,41.854 194.475,41.248 193.096,38.328 196.266,38.936 				"/>
			</g>
		</g>
		<polygon fill="#A2C617" points="47.862,24.035 24.034,95.42 95.42,24.035 		"/>
		<polygon fill="#78B22B" points="95.42,24.035 57.72,61.734 95.42,71.496 		"/>
		<polygon fill="#58A333" points="57.72,61.734 35.043,84.41 95.42,71.496 		"/>
		<polygon fill="#2F9638" points="35.043,84.41 24.034,95.42 71.496,95.42 95.42,71.496 		"/>
		<polygon fill="#78B22B" points="24.034,47.865 24.034,95.42 47.862,24.035 		"/>
		<g>
			<polygon fill="#F3F0E2" points="145.225,56.818 119.812,95.42 166.808,71.027 			"/>
			<polygon fill="#F6F5EE" points="145.225,56.818 166.808,71.027 166.808,40.846 160.141,34.18 			"/>
			<polygon fill="#E4DFBC" points="166.808,71.027 119.812,95.42 142.412,95.42 			"/>
			<g>
				<polygon fill="#F6F5EE" points="100.554,39.059 119.812,95.42 145.225,56.818 119.023,31.611 				"/>
				<polygon fill="#F3F0E2" points="119.023,31.611 111.816,24.631 99.773,36.777 100.554,39.059 				"/>
				<polygon fill="#F3F0E2" points="149.995,24.035 119.023,31.611 145.225,56.818 160.133,34.172 				"/>
				<polygon fill="#E4DFBC" points="149.995,24.035 112.516,24.035 111.816,24.631 119.023,31.611 				"/>
				<polygon fill="#E4DFBC" points="99.773,36.777 95.42,41.129 95.42,71.496 119.812,95.42 				"/>
			</g>
		</g>
		<polygon fill="#FFFFFF" points="73.415,57.711 54.587,95.42 71.325,95.42 79.408,57.711 		"/>
		<polygon fill="#FFFFFF" points="74.183,45.271 79.902,50.244 85.006,44.178 79.37,40.109 		"/>
		<path fill="#FFFFFF" d="M30.021,77.484L44.22,34.947c0,0,23.268,8.469,16.831,24.447c-5.324,13.221-22.327,14.314-22.327,14.314
			l-2.571,6.896L30.021,77.484z"/>
		<polygon fill="#58A333" points="104.658,51.072 124.577,60.604 116.502,85.451 132.886,95.42 98.659,95.42 116.664,63.77 
			101.173,56.984 		"/>
		<polygon fill="#FFFFFF" points="184.52,74.266 200.247,38.629 217.471,73.039 208.783,73.721 207.954,70.408 195.357,70.408 
			195.414,76.256 		"/>
		<g>
			<polygon fill="#C51A1B" points="141.242,36.307 137.686,43.074 156.964,51.721 128.936,64.174 163.804,79.615 166.808,71.027 
				147.813,64.264 166.808,55.498 166.808,47.956 			"/>
		</g>
		<polyline fill="#FFFFFF" points="166.808,47.967 175.031,51.721 166.808,55.512 		"/>
	</g>
</g>
</svg>
