<?xml version="1.0" encoding="utf-8"?>
<!-- Generator: Adobe Illustrator 22.0.1, SVG Export Plug-In . SVG Version: 6.00 Build 0)  -->
<svg version="1.1" id="Layer_1" xmlns="http://www.w3.org/2000/svg" xmlns:xlink="http://www.w3.org/1999/xlink" x="0px" y="0px"
	 viewBox="0 0 226.772 226.772" enable-background="new 0 0 226.772 226.772" xml:space="preserve">
<g>
	<g>
		<path fill="#127CC1" d="M128.469,84.349c0.113-4.327-2.135-10.909-8.201-12.874c-6.077-1.968-10.571-0.955-14.393,0.952
			c-3.819,1.918-5.456,6.918-5.456,8.772c0,1.858,0.394,3.429,0.113,4.277c-0.283,0.838-3.271,4.492-3.271,5.165
			c0,0.677,0.705,1.009,1.492,1.231c0.787,0.225,1.348,0.451,1.403,1.016c0.057,0.558,0.548,2.87,0.662,5.061
			c0.111,2.194,0.843,2.813,1.854,2.981c1.009,0.168,2.416,0.283,3.541,0.283c1.12,0,1.858,0.565,1.858,1.178
			c0,0.623,0,3.153,0,3.153h16.061c-1.374-3.407-0.888-7.702,0.068-10.626C125.157,91.994,128.364,88.677,128.469,84.349z
			 M121,83.544c-0.757,1.009-1.945,2.058-3.11,2.863c-1.167,0.809-2.343,1.482-2.824,1.682c-0.44,0.186-0.555,0.172-0.555,0.172
			s-0.12,0.014-0.558-0.172c-0.474-0.2-1.652-0.873-2.819-1.682c-1.163-0.805-2.357-1.854-3.114-2.863
			c-0.757-1.002-1.544-2.695-1.544-4.681c0-1.986,1.824-3.765,4.139-3.765c2.319,0,3.896,2.044,3.896,2.044s1.577-2.044,3.894-2.044
			c2.312,0,4.145,1.779,4.145,3.765C122.55,80.849,121.753,82.542,121,83.544z"/>
		<path fill="#127CC1" d="M109.853,133.307c-1.947,1.976-4.42,3.493-7.29,4.256c-2.872,0.766-5.764,0.69-8.44-0.058
			c1.95-1.972,4.417-3.482,7.289-4.248C104.284,132.491,107.179,132.569,109.853,133.307z"/>
		<path fill="#127CC1" d="M85.627,122.437c-2.772,0-5.583-0.709-8.14-2.219c-2.556-1.517-4.526-3.633-5.87-6.063
			c2.774,0.004,5.583,0.712,8.14,2.223C82.32,117.892,84.283,120.011,85.627,122.437z"/>
		<path fill="#127CC1" d="M78.252,113.322c-2.762-0.247-5.494-1.202-7.911-2.939c-2.412-1.732-4.188-4.019-5.306-6.553
			c2.759,0.25,5.494,1.202,7.908,2.934C75.362,108.501,77.132,110.784,78.252,113.322z"/>
		<path fill="#127CC1" d="M75.011,105.498c-2.563-1.059-4.894-2.777-6.682-5.15c-1.795-2.377-2.808-5.082-3.126-7.838
			c2.563,1.056,4.891,2.785,6.682,5.154C73.68,100.036,74.693,102.746,75.011,105.498z"/>
		<path fill="#127CC1" d="M72.449,94.636c-2.391-1.403-4.461-3.425-5.909-6.027c-1.448-2.598-2.078-5.415-2.012-8.188
			c2.394,1.399,4.459,3.425,5.904,6.02C71.885,89.038,72.517,91.862,72.449,94.636z"/>
		<path fill="#127CC1" d="M73.625,87.413c-1.949-1.976-3.42-4.47-4.146-7.351c-0.719-2.888-0.592-5.773,0.188-8.436
			c1.945,1.972,3.414,4.47,4.139,7.355C74.53,81.862,74.404,84.754,73.625,87.413z"/>
		<path fill="#127CC1" d="M75.918,77.882c-1.494-2.341-2.419-5.082-2.53-8.053c-0.107-2.974,0.61-5.777,1.929-8.217
			c1.498,2.337,2.417,5.082,2.527,8.053C77.953,72.639,77.234,75.438,75.918,77.882z"/>
		<path fill="#127CC1" d="M79.954,70.61c-0.836-2.645-1.016-5.533-0.347-8.432c0.669-2.899,2.09-5.415,3.994-7.43
			c0.841,2.645,1.017,5.533,0.349,8.432C83.282,66.079,81.86,68.595,79.954,70.61z"/>
		<path fill="#127CC1" d="M85.696,63.767c-0.12-2.77,0.462-5.612,1.861-8.232c1.403-2.623,3.432-4.681,5.8-6.131
			c0.12,2.77-0.469,5.608-1.866,8.228C90.09,60.259,88.062,62.317,85.696,63.767z"/>
		<path fill="#127CC1" d="M90.326,62.264c1.453-2.369,3.516-4.399,6.145-5.791c2.622-1.392,5.462-1.968,8.23-1.85
			c-1.448,2.366-3.516,4.391-6.139,5.787C95.931,61.805,93.098,62.382,90.326,62.264z"/>
		<path fill="#127CC1" d="M79.968,112.795c-1.587-2.273-2.618-4.975-2.847-7.938c-0.233-2.967,0.372-5.794,1.592-8.289
			c1.585,2.273,2.618,4.978,2.849,7.938C81.795,107.473,81.189,110.305,79.968,112.795z"/>
		<path fill="#127CC1" d="M74.317,97.008c-0.263-2.763,0.166-5.626,1.426-8.311c1.256-2.698,3.175-4.867,5.463-6.435
			c0.263,2.763-0.168,5.626-1.428,8.314C78.522,93.272,76.6,95.441,74.317,97.008z"/>
		<path fill="#127CC1" d="M76.217,81.078c1.109-2.541,2.87-4.839,5.277-6.589c2.407-1.743,5.136-2.709,7.895-2.974
			c-1.106,2.538-2.872,4.835-5.275,6.585C81.711,79.851,78.98,80.813,76.217,81.078z"/>
		<path fill="#127CC1" d="M82.985,69.203c1.886-2.037,4.3-3.625,7.145-4.488c2.849-0.855,5.743-0.873,8.437-0.218
			c-1.883,2.037-4.302,3.626-7.145,4.488C88.577,69.844,85.684,69.858,82.985,69.203z"/>
		<path fill="#127CC1" d="M115.889,133.307c1.942,1.976,4.417,3.493,7.287,4.256c2.872,0.766,5.764,0.69,8.439-0.058
			c-1.949-1.972-4.42-3.482-7.291-4.248C121.452,132.491,118.557,132.569,115.889,133.307z"/>
		<path fill="#127CC1" d="M147.484,113.322c2.763-0.247,5.497-1.202,7.911-2.939c2.414-1.732,4.189-4.019,5.307-6.553
			c-2.763,0.25-5.496,1.202-7.908,2.934C150.376,108.501,148.606,110.784,147.484,113.322z"/>
		<path fill="#127CC1" d="M150.727,105.498c2.561-1.059,4.891-2.777,6.682-5.15c1.793-2.377,2.806-5.082,3.126-7.838
			c-2.564,1.056-4.889,2.785-6.684,5.154C152.056,100.036,151.044,102.746,150.727,105.498z"/>
		<path fill="#127CC1" d="M153.288,94.636c2.392-1.403,4.461-3.425,5.909-6.027c1.448-2.598,2.083-5.415,2.013-8.188
			c-2.392,1.399-4.461,3.425-5.905,6.02C153.851,89.038,153.22,91.862,153.288,94.636z"/>
		<path fill="#127CC1" d="M152.114,87.413c1.95-1.976,3.42-4.47,4.144-7.351c0.719-2.888,0.594-5.773-0.186-8.436
			c-1.945,1.972-3.414,4.47-4.139,7.355C151.206,81.862,151.332,84.754,152.114,87.413z"/>
		<path fill="#127CC1" d="M149.82,77.882c1.496-2.341,2.419-5.082,2.528-8.053c0.109-2.974-0.608-5.777-1.929-8.217
			c-1.493,2.337-2.416,5.082-2.525,8.053C147.781,72.639,148.503,75.438,149.82,77.882z"/>
		<path fill="#127CC1" d="M145.781,70.61c0.837-2.645,1.018-5.533,0.351-8.432c-0.669-2.899-2.092-5.415-3.996-7.43
			c-0.837,2.645-1.018,5.533-0.351,8.432C142.454,66.079,143.873,68.595,145.781,70.61z"/>
		<path fill="#127CC1" d="M140.042,63.767c0.118-2.77-0.462-5.612-1.863-8.232c-1.401-2.623-3.432-4.681-5.798-6.131
			c-0.12,2.77,0.465,5.608,1.865,8.228C135.647,60.259,137.676,62.317,140.042,63.767z"/>
		<path fill="#127CC1" d="M135.409,62.264c-1.451-2.369-3.513-4.399-6.142-5.791c-2.623-1.392-5.462-1.968-8.23-1.85
			c1.442,2.366,3.513,4.391,6.138,5.787C129.807,61.805,132.639,62.382,135.409,62.264z"/>
		<path fill="#127CC1" d="M145.768,112.795c1.585-2.273,2.62-4.975,2.851-7.938c0.229-2.967-0.374-5.794-1.594-8.289
			c-1.589,2.273-2.62,4.978-2.851,7.938C143.943,107.473,144.55,110.305,145.768,112.795z"/>
		<path fill="#127CC1" d="M151.423,97.008c0.259-2.763-0.17-5.626-1.428-8.311c-1.258-2.698-3.176-4.867-5.465-6.435
			c-0.263,2.763,0.17,5.626,1.428,8.314C147.218,93.272,149.136,95.441,151.423,97.008z"/>
		<path fill="#127CC1" d="M149.519,81.078c-1.11-2.541-2.872-4.839-5.276-6.589c-2.409-1.743-5.136-2.709-7.895-2.974
			c1.104,2.538,2.869,4.835,5.276,6.585C144.027,79.851,146.756,80.813,149.519,81.078z"/>
		<path fill="#127CC1" d="M142.749,69.203c-1.883-2.037-4.299-3.625-7.147-4.488c-2.844-0.855-5.739-0.873-8.432-0.218
			c1.881,2.037,4.297,3.626,7.145,4.488C137.161,69.844,140.054,69.858,142.749,69.203z"/>
		<g>
			<path fill="#127CC1" d="M145.981,116.378c-2.564,1.514-4.527,3.633-5.871,6.059c2.77,0,5.579-0.709,8.14-2.219
				c2.557-1.517,4.525-3.633,5.869-6.063C151.348,114.159,148.542,114.868,145.981,116.378z"/>
			<path fill="#127CC1" d="M141.985,123.965c-0.893,0.093-1.75,0.268-2.584,0.501c0.014-0.186,0.029-0.372,0.029-0.565v-3.94
				c0.399-0.551,0.768-1.138,1.099-1.754c1.414-2.616,2.001-5.447,1.899-8.221c-1.267,0.766-2.428,1.714-3.461,2.824
				c-1.043-2.863-3.788-4.914-7.008-4.914H93.78c-3.219,0-5.965,2.051-7.009,4.914c-1.031-1.109-2.196-2.058-3.463-2.824
				c-0.1,2.774,0.489,5.605,1.901,8.221c0.331,0.616,0.7,1.202,1.101,1.754v3.94c0,0.193,0.012,0.379,0.027,0.565
				c-0.834-0.233-1.689-0.408-2.584-0.501c-2.956-0.308-5.802,0.207-8.326,1.364c2.232,1.646,4.9,2.756,7.858,3.067
				c1.514,0.161,2.998,0.1,4.425-0.154c0.401,0.555,0.87,1.056,1.401,1.485c-1.779,0.505-3.423,1.306-4.882,2.344
				c2.5,1.195,5.331,1.779,8.296,1.528c2.512-0.215,4.832-1.009,6.857-2.23h9.114c1.99,0,3.608,1.618,3.608,3.608v0.043h1.532
				v-0.043c0-1.99,1.62-3.608,3.608-3.608h9.116c2.026,1.22,4.343,2.015,6.857,2.23c2.96,0.251,5.796-0.333,8.296-1.528
				c-1.46-1.038-3.105-1.839-4.882-2.344c0.531-0.43,0.998-0.931,1.399-1.485c1.428,0.254,2.913,0.315,4.425,0.154
				c2.958-0.312,5.63-1.421,7.859-3.067C147.79,124.173,144.943,123.658,141.985,123.965z M137.894,123.901
				c0,3.275-2.661,5.938-5.936,5.938h-14.717c-1.772,0-3.438,0.938-4.37,2.444c-0.937-1.507-2.607-2.444-4.377-2.444H93.78
				c-3.273,0-5.939-2.663-5.939-5.938v-8.536c0-3.275,2.666-5.938,5.939-5.938h38.179c3.275,0,5.936,2.663,5.936,5.938V123.901z"/>
		</g>
		<g>
			<path fill="#127CC1" d="M94.878,116.013c-0.056-0.866-0.056-1.138-0.943-1.36c-0.431-0.107-0.544-0.236-0.544-0.362
				c0-0.147,0.256-0.25,0.582-0.25c0.526,0,1.469,0.054,2.063,0.054c0.888,0,1.525-0.054,2.156-0.054
				c0.308,0,0.562,0.068,0.562,0.25c0,0.165-0.254,0.312-0.562,0.362c-0.906,0.165-0.959,0.641-0.997,1.109
				c-0.054,0.451-0.073,1.084-0.073,4.198c0,2.191,0.019,2.971,0.057,3.515c0.07,1.07,0.183,1.289,1.194,1.557
				c0.326,0.075,0.506,0.2,0.506,0.379c0,0.183-0.344,0.24-0.562,0.24c-0.725,0-1.957-0.115-2.713-0.093
				c-0.526,0-1.07,0.054-1.738,0.054c-0.438,0-0.564-0.125-0.564-0.308c0-0.125,0.163-0.254,0.544-0.343
				c0.832-0.197,0.958-0.58,0.993-1.356c0.057-0.691,0.095-2.556,0.095-4.094C94.936,118.582,94.936,116.707,94.878,116.013z"/>
			<path fill="#127CC1" d="M101.068,114.019c1.129,0,1.507,0.075,2.939,0.075c0.034,0,0.181,0.161,0.2,0.254
				c0.163,0.526,0.326,0.87,0.687,1.628c0.907,1.865,2.607,5.433,2.954,5.891c0.034,0.029,0.14,0.068,0.159,0.05
				c0.419-0.759,2.448-4.746,3.026-6.156c0.089-0.222,0.438-1.013,0.524-1.396c0.02-0.075,0.183-0.272,0.22-0.272
				c1.269,0,2.716-0.075,2.874-0.075c0.22,0,0.492,0.058,0.492,0.222c0,0.175-0.197,0.268-0.523,0.343
				c-0.292,0.068-0.528,0.165-0.816,0.308c-0.308,0.143-0.435,0.523-0.435,1.449c0,3.039,0.107,6.607,0.217,7.512
				c0.091,0.601,0.252,0.909,1.16,1.142c0.306,0.072,0.489,0.254,0.489,0.38c0,0.2-0.27,0.276-0.544,0.276
				c-0.197,0-1.9-0.093-2.552-0.093c-0.327,0-1.306,0.054-1.718,0.054c-0.295,0-0.53-0.075-0.53-0.25
				c0-0.165,0.254-0.329,0.506-0.383c0.745-0.183,0.796-0.741,0.854-1.467c0.072-0.884,0.107-5.558,0.088-6.464
				c0-0.179-0.106-0.276-0.181-0.125c-0.598,1.174-2.121,4.399-2.641,5.598c-0.473,1.045-0.854,2.004-1.088,2.587
				c-0.22,0.526-0.415,0.562-0.51,0.562c-0.088,0-0.25-0.2-0.343-0.401c-0.088-0.29-0.326-0.999-0.669-1.847
				c-0.938-2.316-2.516-5.705-2.86-6.374c-0.054-0.111-0.109-0.075-0.109,0.054c-0.145,1.21-0.306,4.363-0.29,6.321
				c0.02,1.034,0.184,1.267,1.104,1.557c0.379,0.129,0.526,0.236,0.526,0.397c0,0.147-0.218,0.258-0.526,0.258
				c-0.542,0-1.233-0.075-1.664-0.075c-0.435,0-1.195,0.075-1.614,0.075c-0.268,0-0.562-0.04-0.562-0.258
				c0-0.125,0.184-0.233,0.494-0.344c0.993-0.343,1.194-0.576,1.356-1.843c0.163-1.382,0.578-5.691,0.598-7.305
				c0-0.229-0.034-0.923-0.691-1.084c-0.288-0.089-0.526-0.165-0.741-0.215c-0.129-0.039-0.38-0.168-0.38-0.329
				C100.549,114.094,100.674,114.019,101.068,114.019z"/>
			<path fill="#127CC1" d="M123.111,114.094c0.594,0,1.338-0.075,1.594-0.111c0.07-0.018,0.2,0.111,0.218,0.24
				c0.02,0.322,0.02,1.575,0.02,1.936c0,0.251-0.132,0.505-0.294,0.505c-0.163,0-0.306-0.272-0.345-0.451
				c-0.235-1.017-0.743-1.285-1.154-1.36c-0.345-0.054-1.125-0.125-2.521-0.104c-0.071,0-0.218,0.068-0.232,0.505
				c-0.04,0.451-0.091,2.971-0.074,3.966c0,0.054,0.074,0.179,0.181,0.179h1.444c1.289,0,1.251-0.068,1.596-0.866
				c0.113-0.272,0.236-0.472,0.399-0.472c0.147,0,0.2,0.307,0.184,0.505c-0.037,0.508-0.075,0.834-0.075,1.253
				c0,0.49,0.038,0.784,0.075,1.231c0.016,0.326-0.091,0.544-0.234,0.544c-0.151,0-0.294-0.218-0.349-0.397
				c-0.233-0.802-0.471-0.927-1.178-0.98c-0.578-0.054-1.249-0.054-1.809-0.054c-0.071,0-0.235,0.183-0.235,0.218
				c-0.073,0.508-0.055,1.915-0.037,2.52c0.02,0.433,0,1.099,0.071,1.482c0.054,0.165,0.217,0.401,0.401,0.436
				c0.29,0.05,0.847,0.107,1.466,0.107c0.544,0,1.213,0,1.67-0.161c0.538-0.2,1.031-0.641,1.428-1.342
				c0.254-0.473,0.417-0.634,0.56-0.634c0.181,0,0.163,0.383,0.143,0.523c0,0.147-0.524,1.811-0.687,2.101
				c-0.054,0.125-0.343,0.24-0.431,0.24c-0.2,0-4.676-0.093-6.034-0.093c-1.211,0-1.412,0.093-2.062,0.093
				c-0.347,0-0.619-0.058-0.619-0.24c0-0.161,0.238-0.29,0.544-0.361c0.925-0.211,1.163-0.397,1.231-1.374
				c0.057-0.762,0.145-2.137,0.145-4.384c0-2.137,0.018-2.967-0.016-3.493c-0.037-0.652-0.183-1.013-0.961-1.163
				c-0.379-0.071-0.58-0.143-0.58-0.326c0-0.165,0.308-0.268,0.562-0.268c0.85,0,2.336,0.054,3.28,0.054H123.111z"/>
			<path fill="#127CC1" d="M128.433,116.013c-0.057-0.866-0.057-1.138-0.945-1.36c-0.431-0.107-0.544-0.236-0.544-0.362
				c0-0.147,0.256-0.25,0.582-0.25c0.524,0,1.469,0.054,2.065,0.054c0.886,0,1.523-0.054,2.154-0.054
				c0.306,0,0.562,0.068,0.562,0.25c0,0.165-0.256,0.312-0.562,0.362c-0.907,0.165-0.959,0.641-0.995,1.109
				c-0.056,0.451-0.074,1.084-0.074,4.198c0,2.191,0.018,2.971,0.056,3.515c0.071,1.07,0.183,1.289,1.195,1.557
				c0.324,0.075,0.507,0.2,0.507,0.379c0,0.183-0.345,0.24-0.564,0.24c-0.721,0-1.958-0.115-2.716-0.093
				c-0.523,0-1.066,0.054-1.739,0.054c-0.433,0-0.558-0.125-0.558-0.308c0-0.125,0.163-0.254,0.54-0.343
				c0.836-0.197,0.963-0.58,0.997-1.356c0.053-0.691,0.095-2.556,0.095-4.094C128.489,118.582,128.489,116.707,128.433,116.013z"/>
		</g>
	</g>
	<g>
		<path fill="#127CC1" d="M51.091,155.278c0.081-0.461,0.158-0.934,0.224-1.417c0.057-0.483,0.098-0.952,0.125-1.41
			c0.029-0.462,0.043-0.859,0.043-1.189H43.28v-1.728h10.302c0.016,0.508,0.005,1.066-0.029,1.675
			c-0.036,0.616-0.086,1.238-0.158,1.868c-0.066,0.633-0.152,1.245-0.256,1.832c-0.102,0.594-0.207,1.113-0.318,1.567h4.06v1.65
			h-7.276v3.01h4.125v6.406h-2.002v-4.739h-8.632v-1.668h4.388v-3.01h-7.335v-1.65h10.673
			C50.918,156.144,51.005,155.747,51.091,155.278z"/>
		<path fill="#127CC1" d="M59.602,151.717v-1.75h7.068v1.75h-2.516v0.823c0,0.744,0.057,1.424,0.165,2.047
			c0.111,0.63,0.297,1.209,0.558,1.743c0.245,0.537,0.576,1.056,0.99,1.557c0.413,0.504,0.934,1.023,1.566,1.557l-1.009,1.195
			c-0.317-0.189-0.633-0.444-0.948-0.751c-0.317-0.308-0.619-0.641-0.907-0.999c-0.29-0.329-0.549-0.673-0.784-1.031
			c-0.233-0.358-0.41-0.687-0.533-0.991c-0.125,0.318-0.299,0.655-0.526,1.013c-0.225,0.358-0.483,0.716-0.775,1.066
			c-0.301,0.376-0.628,0.73-0.981,1.077c-0.347,0.343-0.687,0.641-1.016,0.884l-1.217-1.174c0.701-0.576,1.276-1.156,1.732-1.732
			c0.451-0.576,0.818-1.174,1.092-1.79c0.218-0.537,0.381-1.102,0.483-1.693c0.102-0.594,0.156-1.235,0.156-1.936v-0.866H59.602z
			 M68.36,149.244h1.852v15.107H68.36v-8.883h-2.575V153.8h2.575V149.244z M72.13,148.954h1.938v15.869H72.13V148.954z"/>
		<path fill="#127CC1" d="M78.562,159.899v-9.932h7.833v9.932H78.562z M84.435,151.635h-3.914v6.574h3.914V151.635z M94.224,154.294
			v1.668h-2.616v8.718h-1.958v-15.726h1.958v5.34H94.224z"/>
		<path fill="#127CC1" d="M96.791,152.304c0.238-0.569,0.565-1.059,0.979-1.474c0.41-0.426,0.897-0.762,1.453-1.009
			c0.557-0.247,1.149-0.372,1.782-0.372c0.619,0,1.205,0.125,1.763,0.372c0.553,0.247,1.038,0.583,1.453,1.009
			c0.413,0.415,0.741,0.905,0.99,1.474c0.245,0.569,0.369,1.171,0.369,1.804c0,0.644-0.124,1.253-0.369,1.822
			c-0.249,0.572-0.576,1.063-0.99,1.474c-0.415,0.426-0.9,0.759-1.453,0.999c-0.558,0.243-1.143,0.361-1.763,0.361
			c-0.633,0-1.226-0.118-1.782-0.361c-0.556-0.24-1.043-0.573-1.453-0.999c-0.413-0.412-0.741-0.902-0.979-1.474
			c-0.243-0.569-0.363-1.178-0.363-1.822C96.428,153.475,96.548,152.873,96.791,152.304z M102.818,152.079
			c-0.492-0.559-1.099-0.834-1.813-0.834c-0.728,0-1.337,0.275-1.823,0.834c-0.489,0.555-0.734,1.235-0.734,2.029
			c0,0.809,0.245,1.492,0.734,2.037c0.487,0.555,1.095,0.827,1.823,0.827c0.714,0,1.321-0.272,1.813-0.827
			c0.494-0.544,0.741-1.228,0.741-2.037C103.559,153.313,103.312,152.633,102.818,152.079z M102.734,161.567v3.958h8.45v1.711
			h-10.449v-5.669H102.734z M108.776,148.911h1.977v13.461h-1.977V148.911z"/>
		<path fill="#127CC1" d="M114.77,160.436h15.889v1.732H114.77V160.436z M127.426,149.863v1.689h-7.604v4.306h7.869v1.629h-9.83
			v-7.623H127.426z"/>
		<path fill="#127CC1" d="M137.071,155.715h1.832v5.114h2.453v-5.114h1.831v5.114h6.351v1.707H132.95v-1.707h4.121V155.715z
			 M144.632,159.011c0.07-0.537,0.136-1.131,0.195-1.793c0.063-0.659,0.114-1.328,0.156-1.997c0.039-0.659,0.068-1.306,0.082-1.936
			c0.014-0.634,0.014-1.199,0-1.693h-9.107v-1.711h11.107c0,1.428-0.048,2.96-0.145,4.588c-0.097,1.629-0.235,3.143-0.412,4.542
			H144.632z"/>
		<path fill="#127CC1" d="M151.412,159.323v-1.65h16.816v1.65h-4.966v2.144h1.754v6.077h-2.003v-4.409h-8.633v-1.668h2.244v-2.144
			H151.412z M161.532,148.657c0.548,0.225,1.022,0.523,1.421,0.898c0.412,0.379,0.737,0.83,0.981,1.338
			c0.24,0.508,0.36,1.053,0.36,1.629c0,0.59-0.12,1.138-0.36,1.646c-0.243,0.508-0.569,0.955-0.981,1.338
			c-0.399,0.383-0.873,0.684-1.421,0.899c-0.548,0.214-1.133,0.322-1.75,0.322c-0.633,0-1.224-0.107-1.775-0.322
			c-0.548-0.215-1.024-0.516-1.419-0.899c-0.413-0.383-0.737-0.83-0.968-1.338c-0.236-0.508-0.354-1.056-0.354-1.646
			c0-0.576,0.118-1.12,0.354-1.629c0.231-0.508,0.555-0.959,0.968-1.338c0.395-0.376,0.872-0.673,1.419-0.898
			c0.551-0.229,1.142-0.34,1.775-0.34C160.399,148.317,160.984,148.428,161.532,148.657z M157.937,154.333
			c0.501,0.498,1.117,0.741,1.845,0.741c0.712,0,1.325-0.243,1.834-0.741c0.505-0.494,0.761-1.099,0.761-1.811
			c0-0.701-0.256-1.303-0.761-1.797c-0.51-0.49-1.122-0.741-1.834-0.741c-0.728,0-1.344,0.251-1.845,0.741
			c-0.505,0.494-0.753,1.095-0.753,1.797C157.184,153.234,157.432,153.84,157.937,154.333z M158.624,161.466h2.639v-2.144h-2.639
			V161.466z"/>
		<path fill="#127CC1" d="M174.082,159.011l-4.141,0.022v-1.586h3.422c0.685,0,1.437-0.014,2.256-0.043
			c0.814-0.025,1.618-0.061,2.398-0.1c0.795-0.043,1.552-0.089,2.258-0.147c0.709-0.054,1.307-0.114,1.804-0.186v1.546
			c-0.58,0.079-1.355,0.165-2.339,0.247c-0.986,0.086-2.006,0.147-3.062,0.183v2.602h-2.04v-2.538H174.082z M177.39,149.262
			c0.528,0.211,0.991,0.49,1.39,0.845c0.385,0.358,0.691,0.78,0.929,1.26c0.233,0.483,0.347,0.995,0.347,1.546
			c0,0.551-0.115,1.066-0.347,1.546c-0.238,0.48-0.544,0.898-0.929,1.256c-0.399,0.358-0.862,0.637-1.39,0.844
			c-0.528,0.208-1.09,0.308-1.682,0.308c-0.601,0-1.172-0.1-1.7-0.308c-0.53-0.207-0.983-0.487-1.367-0.844
			c-0.401-0.358-0.708-0.777-0.929-1.256c-0.222-0.48-0.333-0.995-0.333-1.546c0-0.551,0.111-1.063,0.333-1.546
			c0.22-0.48,0.528-0.902,0.929-1.26c0.385-0.354,0.838-0.633,1.367-0.845c0.528-0.204,1.099-0.307,1.7-0.307
			C176.301,148.954,176.863,149.058,177.39,149.262z M177.367,154.562c0.478-0.454,0.714-1.013,0.714-1.671
			c0-0.644-0.236-1.199-0.714-1.657c-0.471-0.462-1.024-0.691-1.659-0.691c-0.631,0-1.184,0.229-1.659,0.691
			c-0.472,0.458-0.71,1.013-0.71,1.657c0,0.659,0.238,1.217,0.71,1.671c0.474,0.454,1.027,0.677,1.659,0.677
			C176.344,155.239,176.897,155.017,177.367,154.562z M176.657,162.515v3.01h8.432v1.711h-10.431v-4.721H176.657z M179.11,161.259
			v-1.564h3.878v-10.762h1.975v13.976h-1.975v-1.65H179.11z"/>
	</g>
	<g>
		<path fill="#127CC1" d="M40.716,178.044v-7.309h1.134v7.309H40.716z"/>
		<path fill="#127CC1" d="M44.074,173.796v4.248H42.94v-7.309h1.02l0.881,2.176c0.07,0.183,0.139,0.361,0.211,0.533
			c0.07,0.175,0.141,0.354,0.22,0.537l0.365,1.009c0.016,0,0.025-0.003,0.025-0.003c0.007-0.007,0.014-0.007,0.029-0.007v-4.245
			h1.113v7.309H45.81l-0.878-2.162c-0.14-0.358-0.279-0.709-0.412-1.049c-0.14-0.347-0.27-0.691-0.405-1.038H44.074z"/>
		<path fill="#127CC1" d="M49.659,171.799v6.245h-1.133v-6.245h-1.178v-1.063h3.486v1.063H49.659z"/>
		<path fill="#127CC1" d="M51.435,178.044v-7.309h3.242v1.063h-2.11v1.997h1.836v1.077h-1.836v2.112h2.11v1.06H51.435z"/>
		<path fill="#127CC1" d="M57.093,170.736c0.59,0,1.06,0.168,1.396,0.501c0.335,0.329,0.503,0.873,0.503,1.625
			c0,0.458-0.065,0.852-0.197,1.167c-0.127,0.322-0.358,0.569-0.685,0.752l1.079,3.264h-1.154l-0.942-3.024h-0.539v3.024h-1.132
			v-7.309H57.093z M56.554,171.799v2.144h0.464c0.294,0,0.51-0.089,0.651-0.261c0.138-0.168,0.21-0.444,0.21-0.819
			c0-0.34-0.068-0.598-0.204-0.784c-0.136-0.186-0.363-0.279-0.678-0.279H56.554z"/>
		<path fill="#127CC1" d="M61.039,173.796v4.248h-1.135v-7.309h1.018l0.881,2.176c0.07,0.183,0.14,0.361,0.211,0.533
			c0.07,0.175,0.143,0.354,0.222,0.537l0.365,1.009c0.015,0,0.025-0.003,0.029-0.007c0.001-0.004,0.009-0.004,0.025-0.004v-4.245
			h1.111v7.309h-0.993l-0.878-2.162c-0.14-0.358-0.277-0.709-0.412-1.049c-0.136-0.347-0.27-0.691-0.405-1.038H61.039z"/>
		<path fill="#127CC1" d="M67.453,178.044l-0.287-1.521h-1.34c-0.05,0.251-0.096,0.505-0.143,0.762
			c-0.045,0.254-0.088,0.508-0.133,0.759h-1.152c0.243-1.224,0.489-2.441,0.734-3.651c0.245-1.213,0.489-2.43,0.736-3.658h1.258
			l1.482,7.309H67.453z M66.466,172.432c-0.071,0.501-0.145,1.002-0.222,1.503c-0.077,0.501-0.159,1.009-0.253,1.525h0.999
			l-0.474-3.028H66.466z"/>
		<path fill="#127CC1" d="M70.738,171.799v6.245h-1.133v-6.245h-1.178v-1.063h3.486v1.063H70.738z"/>
		<path fill="#127CC1" d="M72.533,178.044v-7.309h1.133v7.309H72.533z"/>
		<path fill="#127CC1" d="M78.263,176.18c0,0.633-0.14,1.113-0.43,1.442c-0.284,0.322-0.736,0.487-1.349,0.487
			c-0.614,0-1.061-0.157-1.34-0.469c-0.277-0.312-0.419-0.759-0.419-1.346v-3.676c0-0.286,0.036-0.548,0.1-0.788
			c0.066-0.236,0.168-0.444,0.31-0.615c0.141-0.172,0.322-0.301,0.551-0.397c0.224-0.097,0.495-0.143,0.809-0.143
			c0.335,0,0.615,0.043,0.843,0.132c0.228,0.086,0.406,0.215,0.544,0.383c0.136,0.168,0.234,0.372,0.292,0.609
			c0.061,0.236,0.089,0.504,0.089,0.809V176.18z M77.13,172.522c0-0.2-0.045-0.383-0.13-0.544c-0.088-0.161-0.254-0.243-0.5-0.243
			c-0.134,0-0.242,0.032-0.324,0.089c-0.084,0.064-0.152,0.136-0.197,0.222c-0.045,0.086-0.075,0.186-0.093,0.294
			c-0.018,0.111-0.027,0.208-0.027,0.297v3.676c0,0.19,0.047,0.358,0.141,0.512c0.093,0.147,0.258,0.226,0.487,0.226
			c0.235,0,0.397-0.079,0.494-0.236c0.1-0.158,0.148-0.351,0.148-0.572V172.522z"/>
		<path fill="#127CC1" d="M80.405,173.796v4.248h-1.133v-7.309h1.018l0.88,2.176c0.07,0.183,0.141,0.361,0.211,0.533
			c0.07,0.175,0.143,0.354,0.22,0.537l0.367,1.009c0.014,0,0.022-0.003,0.025-0.007c0.007-0.004,0.013-0.004,0.029-0.004v-4.245
			h1.111v7.309h-0.993l-0.877-2.162c-0.141-0.358-0.277-0.709-0.413-1.049c-0.136-0.347-0.27-0.691-0.404-1.038H80.405z"/>
		<path fill="#127CC1" d="M86.82,178.044l-0.284-1.521h-1.344c-0.05,0.251-0.095,0.505-0.141,0.762
			c-0.047,0.254-0.089,0.508-0.132,0.759h-1.153c0.244-1.224,0.489-2.441,0.732-3.651c0.247-1.213,0.49-2.43,0.737-3.658h1.258
			l1.48,7.309H86.82z M85.832,172.432c-0.07,0.501-0.143,1.002-0.22,1.503c-0.077,0.501-0.161,1.009-0.254,1.525h0.999l-0.472-3.028
			H85.832z"/>
		<path fill="#127CC1" d="M88.624,178.044v-7.309h1.135v6.249h2.024v1.06H88.624z"/>
		<path fill="#127CC1" d="M96.669,176.452l-0.52-1.356l-0.449-1.281h-0.052v4.23h-1.134v-7.309h1.102l0.793,2.083l0.572,1.585h0.052
			l0.589-1.628l0.788-2.04h1.09v7.309h-1.133v-4.209h-0.043l-0.458,1.303l-0.512,1.314H96.669z"/>
		<path fill="#127CC1" d="M100.581,178.044v-7.309h1.133v7.309H100.581z"/>
		<path fill="#127CC1" d="M103.94,173.796v4.248h-1.134v-7.309h1.02l0.878,2.176c0.072,0.183,0.141,0.361,0.211,0.533
			c0.072,0.175,0.145,0.354,0.222,0.537l0.367,1.009c0.014,0,0.021-0.003,0.027-0.007c0.004-0.004,0.012-0.004,0.025-0.004v-4.245
			h1.113v7.309h-0.993l-0.877-2.162c-0.141-0.358-0.281-0.709-0.413-1.049c-0.14-0.347-0.272-0.691-0.404-1.038H103.94z"/>
		<path fill="#127CC1" d="M109.541,170.736c0.433,0,0.773,0.079,1.024,0.225c0.253,0.154,0.426,0.408,0.523,0.762
			c0.077,0.261,0.118,0.616,0.122,1.067c0.004,0.454,0.006,0.98,0.006,1.589c0,0.601-0.004,1.12-0.011,1.557
			c-0.009,0.433-0.052,0.777-0.135,1.027c-0.136,0.415-0.345,0.698-0.635,0.852c-0.288,0.15-0.618,0.229-0.99,0.229h-1.716v-7.309
			H109.541z M110.082,172.654c0-0.272-0.05-0.476-0.154-0.626c-0.102-0.151-0.295-0.229-0.582-0.229h-0.485v5.186h0.485
			c0.279,0,0.472-0.071,0.578-0.222c0.104-0.147,0.158-0.361,0.158-0.641V172.654z"/>
		<path fill="#127CC1" d="M114.448,178.044v-7.309h3.243v1.063h-2.11v1.997h1.838v1.077h-1.838v2.112h2.11v1.06H114.448z"/>
		<path fill="#127CC1" d="M120.246,170.736c0.431,0,0.775,0.079,1.025,0.225c0.254,0.154,0.426,0.408,0.526,0.762
			c0.075,0.261,0.114,0.616,0.118,1.067c0.004,0.454,0.005,0.98,0.005,1.589c0,0.601-0.004,1.12-0.009,1.557
			c-0.007,0.433-0.054,0.777-0.139,1.027c-0.131,0.415-0.342,0.698-0.63,0.852c-0.292,0.15-0.621,0.229-0.99,0.229h-1.716v-7.309
			H120.246z M120.789,172.654c0-0.272-0.052-0.476-0.152-0.626c-0.102-0.151-0.297-0.229-0.582-0.229h-0.485v5.186h0.485
			c0.277,0,0.471-0.071,0.576-0.222c0.106-0.147,0.158-0.361,0.158-0.641V172.654z"/>
		<path fill="#127CC1" d="M126.499,170.75v5.43c0,0.633-0.143,1.113-0.424,1.442c-0.283,0.322-0.73,0.487-1.346,0.487
			c-0.614,0-1.061-0.157-1.344-0.469c-0.283-0.312-0.424-0.759-0.424-1.346v-5.544h1.134v5.562c0,0.19,0.045,0.358,0.141,0.512
			c0.093,0.147,0.256,0.226,0.487,0.226s0.397-0.079,0.492-0.236c0.1-0.158,0.148-0.351,0.148-0.572v-5.49H126.499z"/>
		<path fill="#127CC1" d="M129.258,170.675c0.301,0,0.56,0.043,0.778,0.125c0.217,0.082,0.397,0.2,0.542,0.347
			c0.141,0.15,0.247,0.329,0.311,0.533c0.068,0.208,0.1,0.43,0.1,0.677l-1.102,0.279c0-0.261-0.05-0.48-0.15-0.648
			c-0.1-0.168-0.263-0.254-0.483-0.254c-0.133,0-0.24,0.029-0.324,0.086c-0.082,0.057-0.147,0.125-0.192,0.215
			c-0.045,0.086-0.077,0.183-0.095,0.286c-0.018,0.1-0.027,0.197-0.027,0.287v3.711c0,0.072,0.007,0.151,0.023,0.236
			c0.011,0.082,0.041,0.161,0.089,0.236c0.045,0.071,0.106,0.132,0.184,0.183c0.081,0.05,0.183,0.075,0.308,0.075
			c0.417,0,0.628-0.304,0.635-0.906c0.188,0.036,0.376,0.068,0.565,0.093c0.19,0.021,0.379,0.05,0.567,0.075
			c-0.012,0.551-0.165,0.991-0.456,1.313c-0.29,0.322-0.719,0.483-1.285,0.483c-0.603,0-1.045-0.154-1.333-0.458
			c-0.288-0.304-0.433-0.751-0.433-1.338v-3.64c0-0.272,0.034-0.533,0.091-0.777c0.061-0.236,0.159-0.451,0.301-0.63
			c0.138-0.186,0.324-0.329,0.551-0.433C128.652,170.729,128.929,170.675,129.258,170.675z"/>
		<path fill="#127CC1" d="M134.435,178.044l-0.283-1.521h-1.346c-0.048,0.251-0.095,0.505-0.141,0.762
			c-0.045,0.254-0.089,0.508-0.13,0.759h-1.156c0.247-1.224,0.49-2.441,0.736-3.651c0.243-1.213,0.49-2.43,0.736-3.658h1.26
			l1.48,7.309H134.435z M133.447,172.432c-0.071,0.501-0.143,1.002-0.22,1.503c-0.078,0.501-0.161,1.009-0.252,1.525h0.997
			l-0.471-3.028H133.447z"/>
		<path fill="#127CC1" d="M137.721,171.799v6.245h-1.135v-6.245h-1.174v-1.063h3.482v1.063H137.721z"/>
		<path fill="#127CC1" d="M139.516,178.044v-7.309h1.134v7.309H139.516z"/>
		<path fill="#127CC1" d="M145.247,176.18c0,0.633-0.143,1.113-0.43,1.442c-0.288,0.322-0.735,0.487-1.351,0.487
			c-0.614,0-1.06-0.157-1.338-0.469c-0.279-0.312-0.421-0.759-0.421-1.346v-3.676c0-0.286,0.034-0.548,0.1-0.788
			c0.068-0.236,0.17-0.444,0.308-0.615c0.141-0.172,0.324-0.301,0.551-0.397c0.227-0.097,0.496-0.143,0.811-0.143
			c0.335,0,0.616,0.043,0.843,0.132c0.225,0.086,0.41,0.215,0.546,0.383c0.136,0.168,0.233,0.372,0.292,0.609
			c0.057,0.236,0.089,0.504,0.089,0.809V176.18z M144.111,172.522c0-0.2-0.043-0.383-0.129-0.544
			c-0.088-0.161-0.254-0.243-0.499-0.243c-0.133,0-0.242,0.032-0.326,0.089c-0.084,0.064-0.148,0.136-0.193,0.222
			c-0.047,0.086-0.077,0.186-0.095,0.294c-0.018,0.111-0.027,0.208-0.027,0.297v3.676c0,0.19,0.048,0.358,0.141,0.512
			c0.097,0.147,0.258,0.226,0.489,0.226c0.231,0,0.395-0.079,0.494-0.236c0.097-0.158,0.145-0.351,0.145-0.572V172.522z"/>
		<path fill="#127CC1" d="M147.388,173.796v4.248h-1.135v-7.309h1.018l0.882,2.176c0.068,0.183,0.14,0.361,0.209,0.533
			c0.072,0.175,0.145,0.354,0.222,0.537l0.369,1.009c0.011,0,0.021-0.003,0.025-0.007c0.004-0.004,0.012-0.004,0.025-0.004v-4.245
			h1.115v7.309h-0.995l-0.878-2.162c-0.14-0.358-0.276-0.709-0.413-1.049c-0.134-0.347-0.268-0.691-0.401-1.038H147.388z"/>
		<path fill="#127CC1" d="M153.35,178.044v-7.309h1.132v7.309H153.35z"/>
		<path fill="#127CC1" d="M156.709,173.796v4.248h-1.133v-7.309h1.016l0.883,2.176c0.07,0.183,0.139,0.361,0.211,0.533
			c0.07,0.175,0.143,0.354,0.22,0.537l0.367,1.009c0.014,0,0.023-0.003,0.027-0.007c0.004-0.004,0.011-0.004,0.025-0.004v-4.245
			h1.111v7.309h-0.99l-0.88-2.162c-0.138-0.358-0.276-0.709-0.412-1.049c-0.136-0.347-0.27-0.691-0.404-1.038H156.709z"/>
		<path fill="#127CC1" d="M163.944,175.965c0,0.329-0.034,0.626-0.091,0.888c-0.061,0.261-0.159,0.487-0.301,0.669
			c-0.14,0.189-0.326,0.333-0.564,0.433c-0.232,0.104-0.524,0.154-0.868,0.154c-0.317,0-0.589-0.047-0.816-0.136
			c-0.227-0.086-0.417-0.215-0.564-0.372c-0.147-0.161-0.254-0.351-0.32-0.565c-0.066-0.215-0.099-0.444-0.099-0.691l1.133-0.218
			c0.012,0.272,0.064,0.494,0.158,0.666c0.089,0.168,0.265,0.258,0.528,0.258c0.152,0,0.276-0.032,0.365-0.089
			c0.089-0.061,0.159-0.14,0.206-0.236c0.045-0.1,0.068-0.211,0.084-0.34c0.009-0.125,0.014-0.258,0.014-0.397
			c0-0.175-0.012-0.322-0.032-0.44c-0.021-0.122-0.061-0.222-0.122-0.308c-0.057-0.082-0.143-0.157-0.252-0.222
			c-0.111-0.061-0.251-0.129-0.423-0.208c-0.354-0.147-0.631-0.297-0.846-0.451c-0.215-0.158-0.377-0.318-0.49-0.49
			c-0.113-0.172-0.186-0.354-0.217-0.548c-0.036-0.19-0.055-0.405-0.055-0.637c0-0.294,0.036-0.562,0.106-0.806
			c0.071-0.25,0.179-0.458,0.327-0.641c0.147-0.179,0.333-0.315,0.562-0.415c0.229-0.096,0.501-0.147,0.818-0.147
			c0.342,0,0.628,0.054,0.854,0.161c0.224,0.111,0.403,0.25,0.535,0.419c0.132,0.165,0.229,0.351,0.283,0.555
			c0.057,0.204,0.088,0.401,0.088,0.59l-1.135,0.261c0-0.268-0.048-0.483-0.138-0.651c-0.089-0.172-0.266-0.254-0.531-0.254
			c-0.138,0-0.247,0.029-0.326,0.082c-0.08,0.057-0.145,0.132-0.193,0.222c-0.048,0.09-0.081,0.19-0.093,0.297
			c-0.016,0.104-0.022,0.207-0.022,0.315c0,0.125,0.005,0.236,0.022,0.329c0.012,0.093,0.054,0.183,0.118,0.268
			c0.068,0.082,0.168,0.165,0.301,0.251c0.132,0.082,0.315,0.172,0.546,0.261c0.324,0.129,0.58,0.261,0.771,0.404
			c0.194,0.143,0.338,0.301,0.437,0.472c0.098,0.176,0.163,0.365,0.193,0.58C163.928,175.449,163.944,175.693,163.944,175.965z"/>
		<path fill="#127CC1" d="M166.607,171.799v6.245h-1.133v-6.245h-1.176v-1.063h3.484v1.063H166.607z"/>
		<path fill="#127CC1" d="M168.404,178.044v-7.309h1.135v7.309H168.404z"/>
		<path fill="#127CC1" d="M172.455,171.799v6.245h-1.133v-6.245h-1.178v-1.063h3.486v1.063H172.455z"/>
		<path fill="#127CC1" d="M177.724,170.75v5.43c0,0.633-0.14,1.113-0.423,1.442c-0.283,0.322-0.73,0.487-1.346,0.487
			c-0.612,0-1.059-0.157-1.346-0.469c-0.281-0.312-0.422-0.759-0.422-1.346v-5.544h1.133v5.562c0,0.19,0.048,0.358,0.143,0.512
			c0.095,0.147,0.256,0.226,0.489,0.226c0.231,0,0.395-0.079,0.492-0.236c0.097-0.158,0.149-0.351,0.149-0.572v-5.49H177.724z"/>
		<path fill="#127CC1" d="M180.57,171.799v6.245h-1.133v-6.245h-1.176v-1.063h3.482v1.063H180.57z"/>
		<path fill="#127CC1" d="M182.344,178.044v-7.309h3.244v1.063h-2.11v1.997h1.838v1.077h-1.838v2.112h2.11v1.06H182.344z"/>
	</g>
</g>
</svg>
